<svg width="1221" height="701" viewBox="0 0 1221 701" fill="none" xmlns="http://www.w3.org/2000/svg">
<g clip-path="url(#clip0_5538_1346)">
<rect width="1221" height="701" fill="#10015D"/>
<path d="M379.283 417.958C330.423 417.958 299.768 326.493 331.373 311.64C362.979 296.787 384.306 394.254 317.82 394.257L317.819 429.151" stroke="#1622FF" stroke-width="25"/>
<path fill-rule="evenodd" clip-rule="evenodd" d="M367.229 429.139C380.141 431.661 393.883 430.817 407.149 425.999C446.09 411.855 466.193 368.822 452.05 329.881C438.898 293.672 400.769 273.75 364.177 282.504L364.716 308.389C390.613 299.135 419.152 312.535 428.551 338.415C437.981 364.379 424.578 393.07 398.615 402.5C387.924 406.383 376.771 406.395 366.69 403.252L367.229 429.139Z" fill="#1622FF"/>
<path d="M583.988 441.171V312.041H602.808V331.558L600.543 327.027C604.028 321.683 608.675 317.501 614.484 314.48C620.293 311.46 626.915 309.95 634.35 309.95C643.296 309.95 651.312 312.099 658.399 316.397C665.602 320.696 671.236 326.563 675.302 333.998C679.485 341.433 681.576 349.798 681.576 359.092C681.576 368.386 679.485 376.751 675.302 384.186C671.236 391.622 665.66 397.547 658.573 401.961C651.486 406.26 643.412 408.409 634.35 408.409C627.031 408.409 620.351 406.899 614.31 403.878C608.385 400.858 603.796 396.501 600.543 390.808L603.68 387.149V441.171H583.988ZM632.433 390.111C638.01 390.111 642.947 388.775 647.246 386.103C651.544 383.431 654.914 379.772 657.353 375.124C659.909 370.361 661.187 365.017 661.187 359.092C661.187 353.167 659.909 347.881 657.353 343.234C654.914 338.587 651.544 334.927 647.246 332.255C642.947 329.583 638.01 328.247 632.433 328.247C626.973 328.247 622.036 329.583 617.621 332.255C613.322 334.927 609.895 338.587 607.339 343.234C604.9 347.881 603.68 353.167 603.68 359.092C603.68 365.017 604.9 370.361 607.339 375.124C609.895 379.772 613.322 383.431 617.621 386.103C622.036 388.775 626.973 390.111 632.433 390.111Z" fill="#F8F9FF"/>
<path d="M735.759 408.409C726.697 408.409 718.39 406.26 710.839 401.961C703.404 397.663 697.479 391.796 693.064 384.36C688.649 376.925 686.442 368.502 686.442 359.092C686.442 349.566 688.649 341.143 693.064 333.824C697.479 326.389 703.404 320.58 710.839 316.397C718.274 312.099 726.581 309.95 735.759 309.95C745.053 309.95 753.359 312.099 760.678 316.397C768.114 320.58 773.981 326.389 778.279 333.824C782.694 341.143 784.901 349.566 784.901 359.092C784.901 368.619 782.694 377.099 778.279 384.535C773.864 391.97 767.939 397.837 760.504 402.135C753.069 406.318 744.82 408.409 735.759 408.409ZM735.759 390.111C741.335 390.111 746.273 388.775 750.571 386.103C754.87 383.431 758.239 379.772 760.678 375.124C763.234 370.361 764.512 365.017 764.512 359.092C764.512 353.167 763.234 347.881 760.678 343.234C758.239 338.587 754.87 334.927 750.571 332.255C746.273 329.583 741.335 328.247 735.759 328.247C730.298 328.247 725.361 329.583 720.946 332.255C716.648 334.927 713.22 338.587 710.665 343.234C708.225 347.881 707.005 353.167 707.005 359.092C707.005 365.017 708.225 370.361 710.665 375.124C713.22 379.772 716.648 383.431 720.946 386.103C725.361 388.775 730.298 390.111 735.759 390.111Z" fill="#F8F9FF"/>
<path d="M793.67 406.318V274.4H813.362V406.318H793.67Z" fill="#F8F9FF"/>
<path d="M825.93 406.318V274.4H845.621V406.318H825.93Z" fill="#F8F9FF"/>
<path d="M903.672 408.409C894.61 408.409 886.304 406.26 878.752 401.961C871.317 397.663 865.392 391.796 860.977 384.36C856.563 376.925 854.355 368.502 854.355 359.092C854.355 349.566 856.563 341.143 860.977 333.824C865.392 326.389 871.317 320.58 878.752 316.397C886.187 312.099 894.494 309.95 903.672 309.95C912.966 309.95 921.273 312.099 928.592 316.397C936.027 320.58 941.894 326.389 946.193 333.824C950.607 341.143 952.815 349.566 952.815 359.092C952.815 368.619 950.607 377.099 946.193 384.535C941.778 391.97 935.853 397.837 928.418 402.135C920.982 406.318 912.734 408.409 903.672 408.409ZM903.672 390.111C909.248 390.111 914.186 388.775 918.484 386.103C922.783 383.431 926.152 379.772 928.592 375.124C931.148 370.361 932.426 365.017 932.426 359.092C932.426 353.167 931.148 347.881 928.592 343.234C926.152 338.587 922.783 334.927 918.484 332.255C914.186 329.583 909.248 328.247 903.672 328.247C898.212 328.247 893.274 329.583 888.859 332.255C884.561 334.927 881.134 338.587 878.578 343.234C876.138 347.881 874.918 353.167 874.918 359.092C874.918 365.017 876.138 370.361 878.578 375.124C881.134 379.772 884.561 383.431 888.859 386.103C893.274 388.775 898.212 390.111 903.672 390.111Z" fill="#F8F9FF"/>
<path d="M505.024 405.098C509.904 407.305 515.538 408.409 521.928 408.409C527.272 408.409 532.093 407.654 536.392 406.144C540.807 404.633 544.699 402.484 548.068 399.696C549.722 398.372 551.232 396.931 552.598 395.372V389.24L556.607 389.763C555.447 391.777 554.111 393.647 552.598 395.372V406.318H571.419V342.886H551.727V351.11L554.945 351.076V366.586H551.727V367.108C551.727 371.872 550.624 376.228 548.416 380.178C546.209 384.012 543.072 387.091 539.006 389.414C535.056 391.738 530.409 392.899 525.065 392.899C520.766 392.899 517.223 391.796 514.435 389.588C511.763 387.265 510.426 384.302 510.426 380.701C510.426 376.983 511.646 373.963 514.086 371.639C516.526 369.199 519.206 367.515 524.434 366.586C529.785 365.359 536.368 365.583 551.727 366.586V351.11C538.726 350.61 531.096 350.168 521.754 351.424C514.551 352.586 508.568 354.561 503.804 357.349C499.041 360.138 495.498 363.565 493.174 367.631C490.967 371.697 489.863 376.286 489.863 381.398C489.863 386.858 491.199 391.622 493.871 395.688C496.543 399.638 500.261 402.774 505.024 405.098Z" fill="#F8F9FF"/>
<path d="M556.607 389.763L552.598 389.24V395.372C554.111 393.647 555.447 391.777 556.607 389.763Z" fill="#F8F9FF"/>
<path d="M554.945 366.586V351.076L551.727 351.11V366.586H554.945Z" fill="#F8F9FF"/>
<path d="M551.727 342.886H571.419V329.609H551.727V342.886Z" fill="#F8F9FF"/>
<path d="M551.727 329.609V312.041H495.534V329.609H551.727Z" fill="#F8F9FF"/>
<rect x="947.216" y="384.173" width="24.3291" height="24.3291" fill="#F8F9FF"/>
<path d="M-258.949 628.385C256.928 779.314 418.692 -68.8765 118.667 -88.7902C-181.358 -108.704 -71.113 592.859 298.122 706.335" stroke="#1622FF" stroke-width="2"/>
<path d="M688.267 213.017C1204.14 363.946 1365.91 -484.244 1065.88 -504.158C765.858 -524.072 876.103 177.492 1245.34 290.967" stroke="#1622FF" stroke-width="2"/>
</g>
<defs>
<clipPath id="clip0_5538_1346">
<rect width="1221" height="701" fill="white"/>
</clipPath>
</defs>
</svg>
