<svg width="3038" height="1519" viewBox="0 0 3038 1519" fill="none" xmlns="http://www.w3.org/2000/svg">
<g clip-path="url(#clip0_123_248)">
<rect width="3038" height="1519" fill="white"/>
<path fill-rule="evenodd" clip-rule="evenodd" d="M2773 0L-3.05176e-05 1165L3.09859 1172.38L2615.83 74.7062C2615.37 124.992 2613.36 174.665 2609.89 223.605C2570.9 772.445 2347.14 1228.97 2044.66 1421.1C1829.17 1256.9 1680.25 987.034 1653.43 676.121C1650.47 641.85 1649 607.079 1649.08 571.897L1649.07 571.897L1649.06 571.897C1648.7 607.078 1646.78 641.827 1643.39 676.058C1611.37 999.155 1447.77 1276.15 1216.03 1435.06C981.202 1328.04 816.692 1140.87 787.627 923.781C784.577 900.998 783.018 877.885 783.027 854.501L783.018 854.501L783.009 854.501C782.72 877.883 780.868 900.974 777.529 923.716C731.934 1234.22 409.058 1479.77 2.35838 1515.04C-27.0148 1517.59 -56.8252 1519.04 -87 1519.33L48.3441 1520.19C232.406 1496.92 397.617 1430.66 525.424 1335.07C659.069 1235.11 752.108 1102.8 782.386 953.965C810.577 1102.15 900.876 1234.84 1031.78 1336.22C1083.91 1376.59 1142.53 1412.05 1206.34 1441.61C1098.55 1513.4 976.458 1559.85 846.278 1573.89C823.405 1576.36 800.282 1577.82 776.943 1578.25L884.588 1578.93C1004.62 1560.18 1117.07 1514.16 1217.07 1446.5C1305.85 1486.35 1404.36 1514.87 1509.18 1529.48L1644.53 1530.34C1614.36 1529.65 1584.56 1527.83 1555.22 1524.9C1436.79 1513.12 1325.72 1483.55 1226.74 1439.86C1447.8 1285.97 1606.23 1025.54 1648.12 721.095C1684.7 1014.43 1829.6 1268.4 2035.57 1426.78C1959.92 1473.27 1879.47 1503.28 1795.85 1514.16C1777.71 1516.52 1759.42 1517.98 1741 1518.52L1828.64 1519.08C1903.72 1504.96 1975.92 1475.68 2044.11 1433.27C2149.47 1512.3 2270.4 1566.51 2400.71 1588.56L2508.36 1589.25C2485.02 1588.53 2461.92 1586.77 2439.07 1584.01C2297.78 1566.96 2166.53 1511.74 2053.19 1427.52C2168.13 1353.67 2271.39 1242.34 2357.38 1103.35C2490.81 887.698 2583.42 604.474 2614.49 287.87C2641.35 602.772 2729.37 885.501 2858.65 1102.28C2995.07 1331.02 3178.19 1487.41 3384.64 1528.96L3472.26 1529.52C3453.85 1528.75 3435.59 1527.06 3417.48 1524.47C2995.12 1464.02 2660.2 915.114 2619.91 223.669C2617.05 174.686 2615.68 124.988 2615.85 74.6979L2776.1 7.37553L2773 0ZM2053.19 1427.52C2050.34 1425.4 2047.49 1423.26 2044.66 1421.1C2041.64 1423.02 2038.61 1424.92 2035.57 1426.78C2038.4 1428.96 2041.25 1431.12 2044.11 1433.27C2047.14 1431.38 2050.17 1429.46 2053.19 1427.52ZM1226.74 1439.86C1223.15 1438.28 1219.58 1436.68 1216.03 1435.06C1212.81 1437.26 1209.58 1439.45 1206.34 1441.61C1209.9 1443.26 1213.47 1444.89 1217.07 1446.5C1220.3 1444.31 1223.53 1442.1 1226.74 1439.86Z" fill="#0063F0"/>
</g>
<defs>
<clipPath id="clip0_123_248">
<rect width="3038" height="1519" fill="white"/>
</clipPath>
</defs>
</svg>
