<svg width="3325" height="1519" viewBox="0 0 3325 1519" fill="none" xmlns="http://www.w3.org/2000/svg">
<rect width="3325" height="1519" fill="white"/>
<path fill-rule="evenodd" clip-rule="evenodd" d="M610.999 867C610.729 807.859 562.479 760 503 760C562.479 760 610.729 712.141 610.999 653H611.001C611.272 712.141 659.521 760 719 760C659.521 760 611.272 807.859 611.001 867H610.999ZM503 760C500.277 760 497.578 760.1 494.905 760.297L495.179 759.722C497.762 759.906 500.37 760 503 760ZM827 867.5C827 808.129 778.647 760 719 760C778.647 760 827 711.871 827 652.5C827 593.129 778.647 545 719 545H503H499V545.072C441.207 547.167 395 594.462 395 652.5C395 654.345 395.047 656.178 395.139 658H395V864H395.056C395.019 865.162 395 866.329 395 867.5C395 925.538 441.207 972.833 499 974.928V975H503H719C778.647 975 827 926.871 827 867.5ZM1165.79 818.76C1174.67 807.48 1179.71 794.04 1180.91 778.44H1138.07C1134.23 790.92 1126.91 800.52 1116.11 807.24C1105.55 813.96 1091.87 817.32 1075.07 817.32C1062.59 817.32 1051.19 815.28 1040.87 811.2C1030.55 806.88 1022.39 800.52 1016.39 792.12C1010.39 783.48 1007.39 772.8 1007.39 760.08C1007.39 747.12 1010.39 736.44 1016.39 728.04C1022.63 719.4 1030.79 712.92 1040.87 708.6C1051.19 704.28 1062.59 702.12 1075.07 702.12C1090.67 702.12 1103.99 705.48 1115.03 712.2C1126.07 718.92 1133.63 728.28 1137.71 740.28H1180.55C1179.11 724.68 1173.95 711.36 1165.07 700.32C1156.43 689.28 1144.55 680.88 1129.43 675.12C1114.31 669.12 1096.19 666.12 1075.07 666.12C1052.99 666.12 1033.19 669.72 1015.67 676.92C998.394 684.12 984.714 694.68 974.634 708.6C964.794 722.52 959.874 739.68 959.874 760.08C959.874 780.48 964.794 797.64 974.634 811.56C984.714 825.24 998.394 835.68 1015.67 842.88C1033.19 849.84 1052.99 853.32 1075.07 853.32C1096.19 853.32 1114.43 850.44 1129.79 844.68C1145.15 838.68 1157.15 830.04 1165.79 818.76ZM1261.03 842.52C1278.31 849.72 1298.23 853.32 1320.79 853.32C1343.35 853.32 1363.03 849.72 1379.83 842.52C1396.87 835.32 1410.19 824.88 1419.79 811.2C1429.39 797.28 1434.19 780.24 1434.19 760.08C1434.19 739.92 1429.39 722.88 1419.79 708.96C1410.19 694.8 1396.87 684.12 1379.83 676.92C1363.03 669.72 1343.35 666.12 1320.79 666.12C1298.23 666.12 1278.31 669.72 1261.03 676.92C1243.99 684.12 1230.67 694.8 1221.07 708.96C1211.47 722.88 1206.67 739.92 1206.67 760.08C1206.67 780.24 1211.47 797.28 1221.07 811.2C1230.67 824.88 1243.99 835.32 1261.03 842.52ZM1354.27 810.84C1344.43 815.16 1333.27 817.32 1320.79 817.32C1308.07 817.32 1296.67 815.16 1286.59 810.84C1276.51 806.28 1268.59 799.8 1262.83 791.4C1257.07 782.76 1254.19 772.32 1254.19 760.08C1254.19 747.6 1257.07 737.04 1262.83 728.4C1268.83 719.76 1276.87 713.16 1286.95 708.6C1297.03 704.04 1308.31 701.76 1320.79 701.76C1333.51 701.76 1344.79 704.04 1354.63 708.6C1364.47 713.16 1372.27 719.88 1378.03 728.76C1383.79 737.4 1386.67 747.84 1386.67 760.08C1386.67 772.32 1383.79 782.76 1378.03 791.4C1372.27 799.8 1364.35 806.28 1354.27 810.84ZM1522.43 632.64V591.6H1468.07V632.64H1522.43ZM1518.47 670.08H1471.67V849H1518.47V670.08ZM1611.92 670.08H1565.12V849H1611.92V742.581C1613.76 738.089 1616.52 733.722 1620.2 729.48C1626.44 722.04 1634.6 715.92 1644.68 711.12C1654.76 706.32 1666.04 703.92 1678.52 703.92C1695.08 703.92 1706.96 707.52 1714.16 714.72C1721.6 721.68 1725.32 732.72 1725.32 747.84V849H1772.12V739.56C1772.12 726.84 1770.2 715.92 1766.36 706.8C1762.52 697.44 1757.12 689.76 1750.16 683.76C1743.2 677.76 1735.04 673.32 1725.68 670.44C1716.32 667.56 1706.12 666.12 1695.08 666.12C1682.36 666.12 1670.96 668.04 1660.88 671.88C1650.8 675.72 1642.04 681 1634.6 687.72C1627.4 694.2 1621.64 701.4 1617.32 709.32C1615.11 713.367 1613.31 717.476 1611.92 721.648V670.08ZM2012.01 818.76C2020.89 807.48 2025.93 794.04 2027.12 778.44H1984.29C1980.45 790.92 1973.12 800.52 1962.32 807.24C1951.77 813.96 1938.08 817.32 1921.29 817.32C1908.81 817.32 1897.41 815.28 1887.08 811.2C1876.77 806.88 1868.6 800.52 1862.6 792.12C1856.6 783.48 1853.6 772.8 1853.6 760.08C1853.6 747.12 1856.6 736.44 1862.6 728.04C1868.84 719.4 1877.01 712.92 1887.08 708.6C1897.41 704.28 1908.81 702.12 1921.29 702.12C1936.89 702.12 1950.2 705.48 1961.24 712.2C1972.29 718.92 1979.84 728.28 1983.93 740.28H2026.77C2025.32 724.68 2020.17 711.36 2011.29 700.32C2002.65 689.28 1990.77 680.88 1975.65 675.12C1960.53 669.12 1942.41 666.12 1921.29 666.12C1899.2 666.12 1879.41 669.72 1861.89 676.92C1844.6 684.12 1830.93 694.68 1820.84 708.6C1811.01 722.52 1806.08 739.68 1806.08 760.08C1806.08 780.48 1811.01 797.64 1820.84 811.56C1830.93 825.24 1844.6 835.68 1861.89 842.88C1879.41 849.84 1899.2 853.32 1921.29 853.32C1942.41 853.32 1960.65 850.44 1976.01 844.68C1991.36 838.68 2003.36 830.04 2012.01 818.76ZM2107.24 842.52C2124.52 849.72 2144.44 853.32 2167 853.32C2189.56 853.32 2209.24 849.72 2226.04 842.52C2243.08 835.32 2256.4 824.88 2266 811.2C2275.6 797.28 2280.4 780.24 2280.4 760.08C2280.4 739.92 2275.6 722.88 2266 708.96C2256.4 694.8 2243.08 684.12 2226.04 676.92C2209.24 669.72 2189.56 666.12 2167 666.12C2144.44 666.12 2124.52 669.72 2107.24 676.92C2090.2 684.12 2076.88 694.8 2067.28 708.96C2057.68 722.88 2052.88 739.92 2052.88 760.08C2052.88 780.24 2057.68 797.28 2067.28 811.2C2076.88 824.88 2090.2 835.32 2107.24 842.52ZM2200.48 810.84C2190.64 815.16 2179.48 817.32 2167 817.32C2154.28 817.32 2142.88 815.16 2132.8 810.84C2122.72 806.28 2114.8 799.8 2109.04 791.4C2103.28 782.76 2100.4 772.32 2100.4 760.08C2100.4 747.6 2103.28 737.04 2109.04 728.4C2115.04 719.76 2123.08 713.16 2133.16 708.6C2143.24 704.04 2154.52 701.76 2167 701.76C2179.72 701.76 2191 704.04 2200.84 708.6C2210.68 713.16 2218.48 719.88 2224.24 728.76C2230 737.4 2232.88 747.84 2232.88 760.08C2232.88 772.32 2230 782.76 2224.24 791.4C2218.48 799.8 2210.56 806.28 2200.48 810.84ZM2361.8 670.08H2315V849H2361.8V742.581C2363.64 738.089 2366.4 733.722 2370.08 729.48C2376.32 722.04 2384.48 715.92 2394.56 711.12C2404.64 706.32 2415.92 703.92 2428.4 703.92C2444.96 703.92 2456.84 707.52 2464.04 714.72C2471.48 721.68 2475.2 732.72 2475.2 747.84V849H2522V739.56C2522 737.938 2521.97 736.346 2521.91 734.783C2523.09 732.994 2524.44 731.226 2525.96 729.48C2532.2 722.04 2540.36 715.92 2550.44 711.12C2560.52 706.32 2571.8 703.92 2584.28 703.92C2600.84 703.92 2612.84 707.52 2620.28 714.72C2627.72 721.68 2631.44 732.72 2631.44 747.84V849H2678.24V739.56C2678.24 726.84 2676.2 715.92 2672.12 706.8C2668.28 697.44 2662.88 689.76 2655.92 683.76C2648.96 677.76 2640.8 673.32 2631.44 670.44C2622.08 667.56 2611.88 666.12 2600.84 666.12C2588.6 666.12 2577.44 668.04 2567.36 671.88C2557.52 675.72 2548.88 680.88 2541.44 687.36C2534 693.84 2528 701.04 2523.44 708.96C2521.94 711.557 2520.63 714.153 2519.5 716.75C2518.63 713.224 2517.55 709.908 2516.24 706.8C2512.4 697.44 2507 689.76 2500.04 683.76C2493.08 677.76 2484.92 673.32 2475.56 670.44C2466.2 667.56 2456 666.12 2444.96 666.12C2432.24 666.12 2420.84 668.04 2410.76 671.88C2400.68 675.72 2391.92 681 2384.48 687.72C2377.28 694.2 2371.52 701.4 2367.2 709.32C2364.99 713.367 2363.19 717.476 2361.8 721.648V670.08ZM2929.14 789.6H2883.78C2880.9 797.76 2874.42 804.48 2864.34 809.76C2854.5 814.8 2842.14 817.32 2827.26 817.32C2813.82 817.32 2802.18 815.16 2792.34 810.84C2782.74 806.52 2775.06 800.64 2769.3 793.2C2763.78 785.76 2760.42 777.48 2759.22 768.36H2929.86C2931.06 745.08 2927.82 726 2920.14 711.12C2912.7 696 2901.18 684.72 2885.58 677.28C2869.98 669.84 2850.42 666.12 2826.9 666.12C2803.86 666.12 2783.7 669.84 2766.42 677.28C2749.38 684.72 2736.06 695.52 2726.46 709.68C2716.86 723.6 2712.06 740.4 2712.06 760.08C2712.06 779.76 2716.98 796.56 2726.82 810.48C2736.66 824.4 2750.34 835.08 2767.86 842.52C2785.38 849.72 2805.54 853.32 2828.34 853.32C2848.74 853.32 2866.02 850.56 2880.18 845.04C2894.34 839.52 2905.5 831.96 2913.66 822.36C2922.06 812.76 2927.22 801.84 2929.14 789.6ZM2782.62 713.28C2793.42 705.6 2807.46 701.76 2824.74 701.76C2842.26 701.76 2856.06 705.36 2866.14 712.56C2876.46 719.52 2882.22 729 2883.42 741H2761.74C2764.86 729.96 2771.82 720.72 2782.62 713.28Z" fill="#0063F0"/>
</svg>
