<svg width="3038" height="3037" viewBox="0 0 3038 3037" fill="none" xmlns="http://www.w3.org/2000/svg">
<rect width="3038" height="3037" fill="#0063F0"/>
<path d="M711.202 1437.11C711.838 1180.86 712.156 1052.73 762.973 955.133C805.799 872.885 872.885 805.799 955.133 762.973C1052.73 712.156 1180.86 711.838 1437.11 711.202L1518.5 711L1599.89 711.202C1856.14 711.838 1984.27 712.156 2081.87 762.973C2164.12 805.799 2231.2 872.885 2274.03 955.133C2324.84 1052.73 2325.16 1180.86 2325.8 1437.11L2326 1518.5L2325.8 1599.89C2325.16 1856.14 2324.84 1984.27 2274.03 2081.87C2231.2 2164.12 2164.12 2231.2 2081.87 2274.03C1984.27 2324.84 1856.14 2325.16 1599.89 2325.8L1518.5 2326L1437.11 2325.8C1180.86 2325.16 1052.73 2324.84 955.133 2274.03C872.885 2231.2 805.799 2164.12 762.973 2081.87C712.156 1984.27 711.838 1856.14 711.202 1599.89L711 1518.5L711.202 1437.11Z" fill="white"/>
<path fill-rule="evenodd" clip-rule="evenodd" d="M1263.25 1518.5C1403.82 1518.5 1517.86 1632.14 1518.5 1772.56H1518.5C1519.14 1632.14 1633.18 1518.5 1773.75 1518.5C1914.72 1518.5 2029 1632.78 2029 1773.75C2029 1914.72 1914.72 2029 1773.75 2029H1263.25H1253.8V2028.83C1117.21 2023.86 1008 1911.56 1008 1773.75C1008 1770.97 1008.04 1768.2 1008.13 1765.44H1008V1276.31H1008.33C1008.11 1271.98 1008 1267.63 1008 1263.25C1008 1125.44 1117.21 1013.14 1253.8 1008.17V1008L1773.75 1008C1914.72 1008 2029 1122.28 2029 1263.25C2029 1404.22 1914.72 1518.5 1773.75 1518.5C1633.18 1518.5 1519.14 1404.86 1518.5 1264.44H1518.5C1517.86 1404.86 1403.82 1518.5 1263.25 1518.5ZM1244.77 1517.84C1250.87 1518.28 1257.03 1518.5 1263.25 1518.5C1256.81 1518.5 1250.43 1518.74 1244.12 1519.21L1244.77 1517.84Z" fill="#005CE0"/>
</svg>
