<svg width="3038" height="4586" viewBox="0 0 3038 4586" fill="none" xmlns="http://www.w3.org/2000/svg">
<g clip-path="url(#clip0_273_17)">
<rect width="3038" height="4586" fill="#0D0F41"/>
<path fill-rule="evenodd" clip-rule="evenodd" d="M343.28 185.76C341.84 201.12 336.92 214.32 328.52 225.36C320.12 236.4 308.84 244.8 294.68 250.56C280.76 256.32 264.68 259.2 246.44 259.2C226.76 259.2 208.88 255.6 192.8 248.4C176.96 241.2 164.36 230.64 155 216.72C145.64 202.8 140.96 185.88 140.96 165.96C140.96 146.04 145.64 129.12 155 115.2C164.36 101.28 176.96 90.6001 192.8 83.1602C208.88 75.7202 226.76 72 246.44 72C264.68 72 280.76 75 294.68 81C308.6 86.7603 319.76 95.04 328.16 105.84C336.56 116.64 341.48 129.72 342.92 145.08H306.2C302.12 132.36 294.68 122.52 283.88 115.56C273.32 108.36 260.84 104.76 246.44 104.76C234.68 104.76 223.88 107.16 214.04 111.96C204.2 116.52 196.28 123.36 190.28 132.48C184.52 141.36 181.64 152.52 181.64 165.96C181.64 179.16 184.52 190.32 190.28 199.44C196.28 208.56 204.2 215.4 214.04 219.96C223.88 224.28 234.68 226.44 246.44 226.44C262.28 226.44 275.24 222.96 285.32 216C295.64 208.8 302.72 198.72 306.56 185.76H343.28ZM473.884 259.2C453.964 259.2 436.084 255.6 420.244 248.4C404.404 241.2 391.924 230.64 382.804 216.72C373.684 202.8 369.124 185.88 369.124 165.96C369.124 146.28 373.684 129.48 382.804 115.56C391.924 101.4 404.404 90.6001 420.244 83.1602C436.084 75.7202 453.964 72 473.884 72C493.804 72 511.564 75.7202 527.164 83.1602C542.764 90.6001 555.004 101.4 563.884 115.56C573.004 129.48 577.564 146.28 577.564 165.96C577.564 185.88 573.004 202.8 563.884 216.72C555.004 230.64 542.764 241.2 527.164 248.4C511.564 255.6 493.804 259.2 473.884 259.2ZM473.884 226.44C485.404 226.44 495.964 224.16 505.564 219.6C515.164 215.04 522.724 208.2 528.244 199.08C534.004 189.96 536.884 178.92 536.884 165.96C536.884 153 534.004 141.96 528.244 132.84C522.724 123.72 515.164 116.76 505.564 111.96C496.204 106.92 485.645 104.4 473.884 104.4C462.124 104.4 451.444 106.8 441.844 111.6C432.244 116.4 424.444 123.36 418.444 132.48C412.684 141.6 409.804 152.76 409.804 165.96C409.804 178.92 412.684 189.96 418.444 199.08C424.204 208.2 431.884 215.04 441.484 219.6C451.324 224.16 462.124 226.44 473.884 226.44ZM660.128 0V38.52H612.248V0H660.128ZM615.848 75.96H656.168V255.24H615.848V75.96ZM704.031 75.96H743.991V127.539C745.36 122.922 747.16 118.449 749.391 114.12C753.471 105.96 758.871 98.7598 765.591 92.52C772.311 86.04 780.23 81 789.351 77.3999C798.471 73.7998 808.551 72 819.591 72C829.911 72 839.391 73.4399 848.031 76.3198C856.911 79.2002 864.471 83.6401 870.711 89.6401C877.191 95.3999 882.111 102.6 885.471 111.24C889.071 119.88 890.871 130.08 890.871 141.84V255.24H850.911V149.76C850.911 135.12 847.311 124.32 840.111 117.36C833.151 110.16 822.111 106.56 806.991 106.56C795.471 106.56 784.911 109.08 775.311 114.12C765.951 118.92 758.271 125.28 752.271 133.2C748.533 137.985 745.772 143.096 743.991 148.533V255.24H704.031V75.96ZM1127.97 185.76C1126.53 201.12 1121.61 214.32 1113.21 225.36C1104.81 236.4 1093.53 244.8 1079.37 250.56C1065.45 256.32 1049.37 259.2 1031.13 259.2C1011.45 259.2 993.567 255.6 977.487 248.4C961.647 241.2 949.048 230.64 939.688 216.72C930.327 202.8 925.647 185.88 925.647 165.96C925.647 146.04 930.327 129.12 939.688 115.2C949.048 101.28 961.647 90.6001 977.487 83.1602C993.567 75.7202 1011.45 72 1031.13 72C1049.37 72 1065.45 75 1079.37 81C1093.29 86.7603 1104.45 95.04 1112.85 105.84C1121.25 116.64 1126.17 129.72 1127.61 145.08H1090.89C1086.81 132.36 1079.37 122.52 1068.57 115.56C1058.01 108.36 1045.53 104.76 1031.13 104.76C1019.37 104.76 1008.57 107.16 998.728 111.96C988.888 116.52 980.968 123.36 974.968 132.48C969.207 141.36 966.327 152.52 966.327 165.96C966.327 179.16 969.207 190.32 974.968 199.44C980.968 208.56 988.888 215.4 998.728 219.96C1008.57 224.28 1019.37 226.44 1031.13 226.44C1046.97 226.44 1059.93 222.96 1070.01 216C1080.33 208.8 1087.41 198.72 1091.25 185.76H1127.97ZM1258.57 259.2C1238.65 259.2 1220.77 255.6 1204.93 248.4C1189.09 241.2 1176.61 230.64 1167.49 216.72C1158.37 202.8 1153.81 185.88 1153.81 165.96C1153.81 146.28 1158.37 129.48 1167.49 115.56C1176.61 101.4 1189.09 90.6001 1204.93 83.1602C1220.77 75.7202 1238.65 72 1258.57 72C1278.49 72 1296.25 75.7202 1311.85 83.1602C1327.45 90.6001 1339.69 101.4 1348.57 115.56C1357.69 129.48 1362.25 146.28 1362.25 165.96C1362.25 185.88 1357.69 202.8 1348.57 216.72C1339.69 230.64 1327.45 241.2 1311.85 248.4C1296.25 255.6 1278.49 259.2 1258.57 259.2ZM1258.57 226.44C1270.09 226.44 1280.65 224.16 1290.25 219.6C1299.85 215.04 1307.41 208.2 1312.93 199.08C1318.69 189.96 1321.57 178.92 1321.57 165.96C1321.57 153 1318.69 141.96 1312.93 132.84C1307.41 123.72 1299.85 116.76 1290.25 111.96C1280.89 106.92 1270.33 104.4 1258.57 104.4C1246.81 104.4 1236.13 106.8 1226.53 111.6C1216.93 116.4 1209.13 123.36 1203.13 132.48C1197.37 141.6 1194.49 152.76 1194.49 165.96C1194.49 178.92 1197.37 189.96 1203.13 199.08C1208.89 208.2 1216.57 215.04 1226.17 219.6C1236.01 224.16 1246.81 226.44 1258.57 226.44ZM1398.02 75.96H1437.98V127.539C1439.34 122.922 1441.14 118.449 1443.38 114.12C1447.46 105.96 1452.86 98.7598 1459.58 92.52C1466.29 86.04 1474.21 81 1483.33 77.3999C1492.46 73.7998 1502.54 72 1513.58 72C1523.9 72 1533.38 73.4399 1542.02 76.3198C1550.9 79.2002 1558.46 83.6401 1564.7 89.6401C1571.18 95.3999 1576.1 102.6 1579.46 111.24C1580.84 114.565 1581.96 118.121 1582.81 121.908C1583.92 119.151 1585.2 116.435 1586.66 113.76C1590.98 105.6 1596.5 98.3999 1603.21 92.1602C1609.94 85.9199 1617.74 81 1626.62 77.3999C1635.74 73.7998 1645.7 72 1656.5 72C1667.06 72 1676.66 73.4399 1685.29 76.3198C1693.94 79.2002 1701.38 83.6401 1707.62 89.6401C1714.1 95.3999 1719.14 102.6 1722.74 111.24C1726.33 119.88 1728.14 130.08 1728.14 141.84V255.24H1687.82V149.76C1687.82 135.12 1684.21 124.32 1677.02 117.36C1670.06 110.16 1659.02 106.56 1643.9 106.56C1632.38 106.56 1621.82 109.08 1612.21 114.12C1602.86 118.92 1595.18 125.28 1589.18 133.2C1587.54 135.386 1586.09 137.641 1584.84 139.963C1584.85 140.313 1584.85 140.666 1584.85 141.02L1584.86 141.84V255.24H1544.9V149.76C1544.9 135.12 1541.29 124.32 1534.1 117.36C1527.14 110.16 1516.1 106.56 1500.98 106.56C1489.46 106.56 1478.9 109.08 1469.29 114.12C1459.94 118.92 1452.26 125.28 1446.26 133.2C1442.52 137.985 1439.76 143.096 1437.98 148.533V255.24H1398.02V75.96ZM1921.84 196.2H1960.36C1958.44 208.44 1953.64 219.36 1945.96 228.96C1938.52 238.32 1928.32 245.76 1915.36 251.28C1902.4 256.56 1886.92 259.2 1868.92 259.2C1848.52 259.2 1830.28 255.48 1814.2 248.04C1798.12 240.36 1785.52 229.56 1776.4 215.64C1767.28 201.72 1762.72 185.16 1762.72 165.96C1762.72 147 1767.16 130.44 1776.04 116.28C1784.92 102.12 1797.16 91.2002 1812.76 83.52C1828.6 75.8398 1846.84 72 1867.48 72C1888.84 72 1906.6 75.8398 1920.76 83.52C1935.16 90.96 1945.84 102.24 1952.8 117.36C1959.76 132.24 1962.64 151.08 1961.44 173.88H1803.4C1804.6 183.96 1807.84 193.08 1813.12 201.24C1818.64 209.16 1826.08 215.4 1835.44 219.96C1844.8 224.28 1855.72 226.44 1868.2 226.44C1882.12 226.44 1893.76 223.68 1903.12 218.16C1912.72 212.64 1918.96 205.32 1921.84 196.2ZM1866.4 104.4C1850.08 104.4 1836.64 108.48 1826.08 116.64C1815.52 124.56 1808.68 134.76 1805.56 147.24H1921.12C1920.16 133.8 1914.76 123.36 1904.92 115.92C1895.08 108.24 1882.24 104.4 1866.4 104.4ZM346.88 655C355.76 643.72 360.8 630.28 362 614.68H319.16C315.32 627.16 308 636.76 297.2 643.48C286.64 650.2 272.96 653.56 256.16 653.56C243.68 653.56 232.28 651.52 221.96 647.44C211.64 643.12 203.48 636.76 197.48 628.36C191.48 619.72 188.48 609.04 188.48 596.32C188.48 583.36 191.48 572.68 197.48 564.28C203.72 555.64 211.88 549.16 221.96 544.84C232.28 540.52 243.68 538.36 256.16 538.36C271.76 538.36 285.08 541.72 296.12 548.44C307.16 555.16 314.72 564.52 318.8 576.52H361.64C360.2 560.92 355.04 547.6 346.16 536.56C337.52 525.52 325.64 517.12 310.52 511.36C295.4 505.36 277.28 502.36 256.16 502.36C234.08 502.36 214.28 505.96 196.76 513.16C179.48 520.36 165.8 530.92 155.72 544.84C145.88 558.76 140.96 575.92 140.96 596.32C140.96 616.72 145.88 633.88 155.72 647.8C165.8 661.48 179.48 671.92 196.76 679.12C214.28 686.08 234.08 689.56 256.16 689.56C277.28 689.56 295.52 686.68 310.88 680.92C326.24 674.92 338.24 666.28 346.88 655ZM442.117 678.76C459.396 685.96 479.316 689.56 501.877 689.56C524.437 689.56 544.117 685.96 560.917 678.76C577.957 671.56 591.277 661.12 600.877 647.44C610.477 633.52 615.277 616.48 615.277 596.32C615.277 576.16 610.477 559.12 600.877 545.2C591.277 531.04 577.957 520.36 560.917 513.16C544.117 505.96 524.437 502.36 501.877 502.36C479.316 502.36 459.396 505.96 442.117 513.16C425.077 520.36 411.757 531.04 402.157 545.2C392.557 559.12 387.757 576.16 387.757 596.32C387.757 616.48 392.557 633.52 402.157 647.44C411.757 661.12 425.077 671.56 442.117 678.76ZM535.356 647.08C525.517 651.4 514.356 653.56 501.877 653.56C489.157 653.56 477.757 651.4 467.677 647.08C457.597 642.52 449.677 636.04 443.917 627.64C438.157 619 435.277 608.56 435.277 596.32C435.277 583.84 438.157 573.28 443.917 564.64C449.917 556 457.957 549.4 468.037 544.84C478.117 540.28 489.396 538 501.877 538C514.597 538 525.877 540.28 535.717 544.84C545.557 549.4 553.356 556.12 559.117 565C564.877 573.64 567.757 584.08 567.757 596.32C567.757 608.56 564.877 619 559.117 627.64C553.356 636.04 545.437 642.52 535.356 647.08ZM703.514 468.88V427.84H649.153V468.88H703.514ZM699.554 506.32H652.754V685.24H699.554V506.32ZM793.002 506.32H746.201V685.24H793.002V578.821C794.846 574.329 797.605 569.962 801.281 565.72C807.521 558.28 815.682 552.16 825.762 547.36C835.842 542.56 847.121 540.16 859.602 540.16C876.161 540.16 888.042 543.76 895.241 550.96C902.682 557.92 906.401 568.96 906.401 584.08V685.24H953.201V575.8C953.201 563.08 951.281 552.16 947.441 543.04C943.602 533.68 938.201 526 931.241 520C924.281 514 916.121 509.56 906.762 506.68C897.401 503.8 887.201 502.36 876.161 502.36C863.441 502.36 852.042 504.28 841.962 508.12C831.882 511.96 823.121 517.24 815.682 523.96C808.481 530.44 802.722 537.64 798.401 545.56C796.194 549.606 794.395 553.716 793.002 557.888V506.32ZM1193.09 655C1201.97 643.72 1207.01 630.28 1208.21 614.68H1165.37C1161.53 627.16 1154.21 636.76 1143.41 643.48C1132.85 650.2 1119.17 653.56 1102.37 653.56C1089.89 653.56 1078.49 651.52 1068.17 647.44C1057.85 643.12 1049.69 636.76 1043.69 628.36C1037.69 619.72 1034.69 609.04 1034.69 596.32C1034.69 583.36 1037.69 572.68 1043.69 564.28C1049.93 555.64 1058.09 549.16 1068.17 544.84C1078.49 540.52 1089.89 538.36 1102.37 538.36C1117.97 538.36 1131.29 541.72 1142.33 548.44C1153.37 555.16 1160.93 564.52 1165.01 576.52H1207.85C1206.41 560.92 1201.25 547.6 1192.37 536.56C1183.73 525.52 1171.85 517.12 1156.73 511.36C1141.61 505.36 1123.49 502.36 1102.37 502.36C1080.29 502.36 1060.49 505.96 1042.97 513.16C1025.69 520.36 1012.01 530.92 1001.93 544.84C992.091 558.76 987.171 575.92 987.171 596.32C987.171 616.72 992.091 633.88 1001.93 647.8C1012.01 661.48 1025.69 671.92 1042.97 679.12C1060.49 686.08 1080.29 689.56 1102.37 689.56C1123.49 689.56 1141.73 686.68 1157.09 680.92C1172.45 674.92 1184.45 666.28 1193.09 655ZM1288.33 678.76C1305.61 685.96 1325.53 689.56 1348.09 689.56C1370.65 689.56 1390.33 685.96 1407.13 678.76C1424.17 671.56 1437.49 661.12 1447.09 647.44C1456.69 633.52 1461.49 616.48 1461.49 596.32C1461.49 576.16 1456.69 559.12 1447.09 545.2C1437.49 531.04 1424.17 520.36 1407.13 513.16C1390.33 505.96 1370.65 502.36 1348.09 502.36C1325.53 502.36 1305.61 505.96 1288.33 513.16C1271.29 520.36 1257.97 531.04 1248.37 545.2C1238.77 559.12 1233.97 576.16 1233.97 596.32C1233.97 616.48 1238.77 633.52 1248.37 647.44C1257.97 661.12 1271.29 671.56 1288.33 678.76ZM1381.57 647.08C1371.73 651.4 1360.57 653.56 1348.09 653.56C1335.37 653.56 1323.97 651.4 1313.89 647.08C1303.81 642.52 1295.89 636.04 1290.13 627.64C1284.37 619 1281.49 608.56 1281.49 596.32C1281.49 583.84 1284.37 573.28 1290.13 564.64C1296.13 556 1304.17 549.4 1314.25 544.84C1324.33 540.28 1335.61 538 1348.09 538C1360.81 538 1372.09 540.28 1381.93 544.84C1391.77 549.4 1399.57 556.12 1405.33 565C1411.09 573.64 1413.97 584.08 1413.97 596.32C1413.97 608.56 1411.09 619 1405.33 627.64C1399.57 636.04 1391.65 642.52 1381.57 647.08ZM1542.88 506.32H1496.08V685.24H1542.88V578.821C1544.73 574.329 1547.49 569.962 1551.16 565.72C1557.4 558.28 1565.56 552.16 1575.64 547.36C1585.72 542.56 1597 540.16 1609.48 540.16C1626.04 540.16 1637.92 543.76 1645.12 550.96C1652.56 557.92 1656.28 568.96 1656.28 584.08V685.24H1703.08V575.8C1703.08 574.178 1703.05 572.586 1702.99 571.023C1704.18 569.234 1705.53 567.466 1707.04 565.72C1713.28 558.28 1721.44 552.16 1731.52 547.36C1741.6 542.56 1752.88 540.16 1765.36 540.16C1781.92 540.16 1793.92 543.76 1801.36 550.96C1808.8 557.92 1812.52 568.96 1812.52 584.08V685.24H1859.32V575.8C1859.32 563.08 1857.28 552.16 1853.2 543.04C1849.36 533.68 1843.96 526 1837 520C1830.04 514 1821.88 509.56 1812.52 506.68C1803.16 503.8 1792.96 502.36 1781.92 502.36C1769.68 502.36 1758.52 504.28 1748.44 508.12C1738.6 511.96 1729.96 517.12 1722.52 523.6C1715.08 530.08 1709.08 537.28 1704.52 545.2C1703.03 547.796 1701.71 550.393 1700.58 552.99C1699.72 549.464 1698.63 546.147 1697.32 543.04C1693.48 533.68 1688.08 526 1681.12 520C1674.16 514 1666 509.56 1656.64 506.68C1647.28 503.8 1637.08 502.36 1626.04 502.36C1613.32 502.36 1601.92 504.28 1591.84 508.12C1581.76 511.96 1573 517.24 1565.56 523.96C1558.36 530.44 1552.6 537.64 1548.28 545.56C1546.08 549.606 1544.28 553.716 1542.88 557.888V506.32ZM2110.23 625.84H2064.87C2061.99 634 2055.51 640.72 2045.43 646C2035.59 651.04 2023.23 653.56 2008.35 653.56C1994.91 653.56 1983.27 651.4 1973.43 647.08C1963.83 642.76 1956.15 636.88 1950.39 629.44C1944.87 622 1941.51 613.72 1940.31 604.6H2110.95C2112.15 581.32 2108.91 562.24 2101.23 547.36C2093.79 532.24 2082.27 520.96 2066.67 513.52C2051.07 506.08 2031.51 502.36 2007.99 502.36C1984.95 502.36 1964.79 506.08 1947.51 513.52C1930.47 520.96 1917.15 531.76 1907.55 545.92C1897.95 559.84 1893.15 576.64 1893.15 596.32C1893.15 616 1898.07 632.8 1907.91 646.72C1917.75 660.64 1931.43 671.32 1948.95 678.76C1966.47 685.96 1986.63 689.56 2009.43 689.56C2029.83 689.56 2047.11 686.8 2061.27 681.28C2075.43 675.76 2086.59 668.2 2094.75 658.6C2103.15 649 2108.31 638.08 2110.23 625.84ZM1963.71 549.52C1974.51 541.84 1988.55 538 2005.83 538C2023.35 538 2037.15 541.6 2047.23 548.8C2057.55 555.76 2063.31 565.24 2064.51 577.24H1942.83C1945.95 566.2 1952.91 556.96 1963.71 549.52ZM457.04 1062.84C467.84 1050.6 473.24 1035.84 473.24 1018.56H394.04C390.2 1028.16 381.44 1035.6 367.76 1040.88C354.32 1045.92 336.8 1048.44 315.2 1048.44C297.44 1048.44 282.08 1047.24 269.12 1044.84C256.16 1042.44 246.2 1038.24 239.24 1032.24C232.28 1026.24 228.8 1017.96 228.8 1007.4C228.8 996.6 232.28 988.2 239.24 982.2C246.44 976.2 256.52 972 269.48 969.6C282.44 966.959 297.68 965.64 315.2 965.64C336.8 965.64 354.32 968.279 367.76 973.56C381.2 978.6 389.84 985.799 393.68 995.16H472.88C472.64 978.12 467.12 963.479 456.32 951.239C445.52 939 428.6 929.64 405.56 923.16C382.52 916.68 352.4 913.439 315.2 913.439C278 913.439 246.32 916.56 220.16 922.799C194.24 928.799 174.44 938.759 160.76 952.68C147.32 966.359 140.6 984.6 140.6 1007.4C140.6 1030.2 147.32 1048.44 160.76 1062.12C174.44 1075.8 194.24 1085.64 220.16 1091.64C246.32 1097.64 278 1100.64 315.2 1100.64C352.4 1100.64 382.64 1097.4 405.92 1090.92C429.2 1084.44 446.24 1075.08 457.04 1062.84ZM574.091 1091.28C599.53 1097.52 631.331 1100.64 669.49 1100.64C707.41 1100.64 738.851 1097.52 763.811 1091.28C789.011 1085.04 807.851 1075.08 820.331 1061.4C832.811 1047.72 839.051 1029.72 839.051 1007.4C839.051 985.08 832.811 967.08 820.331 953.399C807.851 939.479 789.011 929.399 763.811 923.16C738.851 916.68 707.41 913.439 669.49 913.439C631.331 913.439 599.53 916.68 574.091 923.16C548.891 929.399 529.931 939.479 517.211 953.399C504.73 967.08 498.49 985.08 498.49 1007.4C498.49 1029.72 504.73 1047.72 517.211 1061.4C529.931 1075.08 548.891 1085.04 574.091 1091.28ZM714.131 1044.12C702.131 1047 687.251 1048.44 669.49 1048.44C651.49 1048.44 636.251 1047 623.771 1044.12C611.53 1041 602.291 1036.44 596.051 1030.44C589.811 1024.2 586.69 1016.52 586.69 1007.4C586.69 998.04 589.811 990.359 596.051 984.359C602.53 978.12 611.891 973.439 624.131 970.319C636.61 967.2 651.73 965.64 669.49 965.64C687.49 965.64 702.49 967.2 714.49 970.319C726.49 973.439 735.49 978.12 741.49 984.359C747.73 990.6 750.851 998.279 750.851 1007.4C750.851 1016.52 747.73 1024.2 741.49 1030.44C735.251 1036.44 726.131 1041 714.131 1044.12ZM962.756 880.319V826.319H871.315V880.319H962.756ZM960.235 918.839H873.836V1095.24H960.235V918.839ZM1085.25 918.839H998.849V1095.24H1085.25V994.989C1090.31 991.926 1096.67 988.863 1104.33 985.799C1113.93 981.719 1124.73 978.239 1136.73 975.359C1148.97 972.479 1161.57 971.04 1174.53 971.04C1199.01 971.04 1215.93 974.879 1225.29 982.56C1234.65 990 1239.33 1002.72 1239.33 1020.72V1095.24H1325.73V1009.92C1325.73 990.959 1322.61 975.239 1316.37 962.759C1310.13 950.279 1301.73 940.439 1291.17 933.239C1280.85 926.04 1269.09 921 1255.89 918.12C1242.69 915 1229.01 913.439 1214.85 913.439C1192.29 913.439 1172.73 916.2 1156.17 921.719C1139.85 927.239 1126.29 933.959 1115.49 941.879C1104.69 949.799 1096.41 957.719 1090.65 965.64C1088.5 968.623 1086.7 971.352 1085.25 973.828V918.839ZM1670.99 1062.84C1681.79 1050.6 1687.19 1035.84 1687.19 1018.56H1607.99C1604.15 1028.16 1595.39 1035.6 1581.71 1040.88C1568.27 1045.92 1550.75 1048.44 1529.15 1048.44C1511.39 1048.44 1496.03 1047.24 1483.07 1044.84C1470.11 1042.44 1460.15 1038.24 1453.19 1032.24C1446.23 1026.24 1442.75 1017.96 1442.75 1007.4C1442.75 996.6 1446.23 988.2 1453.19 982.2C1460.39 976.2 1470.46 972 1483.43 969.6C1496.39 966.959 1511.62 965.64 1529.15 965.64C1550.75 965.64 1568.27 968.279 1581.71 973.56C1595.15 978.6 1603.79 985.799 1607.62 995.16H1686.83C1686.58 978.12 1681.07 963.479 1670.27 951.239C1659.46 939 1642.54 929.64 1619.51 923.16C1596.46 916.68 1566.35 913.439 1529.15 913.439C1491.95 913.439 1460.27 916.56 1434.11 922.799C1408.19 928.799 1388.38 938.759 1374.71 952.68C1361.27 966.359 1354.54 984.6 1354.54 1007.4C1354.54 1030.2 1361.27 1048.44 1374.71 1062.12C1388.38 1075.8 1408.19 1085.64 1434.11 1091.64C1460.27 1097.64 1491.95 1100.64 1529.15 1100.64C1566.35 1100.64 1596.58 1097.4 1619.87 1090.92C1643.15 1084.44 1660.19 1075.08 1670.99 1062.84ZM1788.04 1091.28C1813.48 1097.52 1845.28 1100.64 1883.44 1100.64C1921.36 1100.64 1952.8 1097.52 1977.76 1091.28C2002.96 1085.04 2021.8 1075.08 2034.28 1061.4C2046.76 1047.72 2053 1029.72 2053 1007.4C2053 985.08 2046.76 967.08 2034.28 953.399C2021.8 939.479 2002.96 929.399 1977.76 923.16C1952.8 916.68 1921.36 913.439 1883.44 913.439C1845.28 913.439 1813.48 916.68 1788.04 923.16C1762.84 929.399 1743.88 939.479 1731.16 953.399C1718.68 967.08 1712.44 985.08 1712.44 1007.4C1712.44 1029.72 1718.68 1047.72 1731.16 1061.4C1743.88 1075.08 1762.84 1085.04 1788.04 1091.28ZM1928.08 1044.12C1916.08 1047 1901.2 1048.44 1883.44 1048.44C1865.44 1048.44 1850.2 1047 1837.72 1044.12C1825.48 1041 1816.24 1036.44 1810 1030.44C1803.76 1024.2 1800.64 1016.52 1800.64 1007.4C1800.64 998.04 1803.76 990.359 1810 984.359C1816.48 978.12 1825.84 973.439 1838.08 970.319C1850.56 967.2 1865.68 965.64 1883.44 965.64C1901.44 965.64 1916.44 967.2 1928.44 970.319C1940.44 973.439 1949.44 978.12 1955.44 984.359C1961.68 990.6 1964.8 998.279 1964.8 1007.4C1964.8 1016.52 1961.68 1024.2 1955.44 1030.44C1949.2 1036.44 1940.08 1041 1928.08 1044.12ZM2168.06 918.839H2081.66V1095.24H2168.06V994.989C2173.12 991.926 2179.48 988.863 2187.14 985.799C2196.74 981.719 2207.54 978.239 2219.54 975.359C2231.78 972.479 2244.38 971.04 2257.34 971.04C2281.82 971.04 2298.74 974.879 2308.1 982.56C2317.46 990 2322.14 1002.72 2322.14 1020.72V1095.24H2408.54V1009.92C2408.54 1003.97 2408.23 998.347 2407.62 993.038C2412.04 990.625 2417.27 988.212 2423.3 985.799C2432.9 981.719 2443.7 978.239 2455.7 975.359C2467.94 972.479 2480.54 971.04 2493.5 971.04C2517.98 971.04 2534.9 974.879 2544.26 982.56C2553.62 990 2558.3 1002.72 2558.3 1020.72V1095.24H2644.7V1009.92C2644.7 990.959 2641.58 975.239 2635.34 962.759C2629.1 950.279 2620.7 940.439 2610.14 933.239C2599.82 926.04 2588.06 921 2574.86 918.12C2561.66 915 2547.98 913.439 2533.82 913.439C2513.18 913.439 2494.7 916.2 2478.38 921.719C2462.3 927.239 2448.5 933.839 2436.98 941.52C2425.7 949.2 2416.94 956.64 2410.7 963.839C2407.63 967.377 2405.21 970.48 2403.42 973.149C2402.21 969.467 2400.8 966.004 2399.18 962.759C2392.94 950.279 2384.54 940.439 2373.98 933.239C2363.66 926.04 2351.9 921 2338.7 918.12C2325.5 915 2311.82 913.439 2297.66 913.439C2275.1 913.439 2255.54 916.2 2238.98 921.719C2222.66 927.239 2209.1 933.959 2198.3 941.879C2187.5 949.799 2179.22 957.719 2173.46 965.64C2171.32 968.622 2169.52 971.352 2168.06 973.828V918.839ZM3005.53 1031.88H2920.57C2917.93 1037.16 2909.89 1041.24 2896.45 1044.12C2883.25 1047 2866.33 1048.44 2845.69 1048.44C2825.77 1048.44 2809.81 1046.88 2797.81 1043.76C2786.05 1040.4 2777.29 1036.08 2771.53 1030.8C2766.01 1025.52 2762.65 1019.76 2761.45 1013.52H3006.25C3006.73 988.799 3001.45 969.239 2990.41 954.839C2979.37 940.199 2962.21 929.64 2938.93 923.16C2915.65 916.68 2885.77 913.439 2849.29 913.439C2812.09 913.439 2780.41 916.439 2754.25 922.439C2728.09 928.439 2708.05 938.399 2694.13 952.319C2680.45 966 2673.61 984.359 2673.61 1007.4C2673.61 1030.68 2680.69 1049.16 2694.85 1062.84C2709.01 1076.52 2729.17 1086.24 2755.33 1092C2781.73 1097.76 2813.05 1100.64 2849.29 1100.64C2883.61 1100.64 2911.81 1097.88 2933.89 1092.36C2956.21 1086.6 2973.13 1078.56 2984.65 1068.24C2996.41 1057.92 3003.37 1045.8 3005.53 1031.88ZM2787.37 973.919C2800.81 968.399 2820.25 965.64 2845.69 965.64C2871.61 965.64 2890.45 968.279 2902.21 973.56C2913.97 978.6 2920.69 984.239 2922.37 990.479H2763.97C2766.37 984.959 2774.17 979.439 2787.37 973.919ZM3076 1521H0V1511H3076V1521ZM74.6201 1881.29H97.0601V1959.66H74.6201V1881.29ZM98.7598 1974.62V1994H73.0898V1974.62H98.7598ZM202.747 2003.35C185.747 2003.35 171.07 2000.8 158.717 1995.7C146.477 1990.6 137.07 1983.29 130.497 1973.77C123.923 1964.14 120.637 1952.63 120.637 1939.26C120.637 1925.77 123.923 1914.44 130.497 1905.26C137.184 1896.08 146.76 1889.17 159.227 1884.52C171.693 1879.76 186.597 1877.38 203.937 1877.38C221.391 1877.38 236.181 1879.76 248.307 1884.52C260.547 1889.17 269.84 1896.02 276.187 1905.09C282.646 1914.04 285.877 1925.04 285.877 1938.07C285.877 1944.64 284.8 1950.31 282.646 1955.07C280.493 1959.72 277.264 1963.34 272.957 1965.95C268.764 1968.44 263.493 1969.69 257.146 1969.69C252.047 1969.69 247.684 1969.01 244.057 1967.65C240.431 1966.29 237.483 1964.48 235.217 1962.21C232.95 1959.94 231.25 1957.45 230.117 1954.73C229.51 1953.11 229.084 1951.49 228.838 1949.88C228.745 1950.12 228.649 1950.36 228.55 1950.6C228.452 1950.84 228.352 1951.09 228.247 1951.33C226.66 1955.3 224.224 1959.09 220.937 1962.72C217.764 1966.35 213.684 1969.35 208.697 1971.73C203.823 1974 198.157 1975.13 191.697 1975.13C183.877 1975.13 176.964 1973.66 170.957 1970.71C165.063 1967.65 160.474 1963.51 157.187 1958.3C153.9 1953.09 152.257 1947.14 152.257 1940.45C152.257 1933.42 153.9 1927.25 157.187 1921.92C160.474 1916.48 165.177 1912.23 171.297 1909.17C177.417 1906 184.613 1904.41 192.887 1904.41C201.387 1904.41 208.413 1906.11 213.967 1909.51C219.634 1912.8 223.827 1917.22 226.547 1922.77C227.337 1924.29 228.017 1925.84 228.587 1927.43V1909.85H250.687V1939.43C250.687 1942.49 250.913 1945.21 251.367 1947.59C251.934 1949.86 252.953 1951.67 254.427 1953.03C255.9 1954.39 257.997 1955.07 260.717 1955.07C263.437 1955.07 265.477 1954.39 266.837 1953.03C268.311 1951.67 269.273 1949.74 269.727 1947.25C270.294 1944.76 270.577 1941.92 270.577 1938.75C270.577 1930.59 269.047 1923.56 265.987 1917.67C263.04 1911.66 258.677 1906.73 252.896 1902.88C247.23 1898.91 240.26 1895.97 231.987 1894.04C223.827 1892.11 214.59 1891.15 204.277 1891.15C193.851 1891.15 184.443 1892.11 176.057 1894.04C167.67 1895.97 160.474 1898.91 154.467 1902.88C148.46 1906.85 143.87 1911.83 140.697 1917.84C137.523 1923.85 135.937 1930.99 135.937 1939.26C135.937 1949.91 138.6 1959.04 143.927 1966.63C149.253 1974.11 156.903 1979.83 166.877 1983.8C176.851 1987.65 188.807 1989.58 202.747 1989.58C208.413 1989.58 213.684 1989.3 218.557 1988.73C223.544 1988.16 228.077 1987.37 232.157 1986.35C236.237 1985.33 239.693 1984.14 242.527 1982.78L248.646 1995.19C245.247 1996.78 241.167 1998.19 236.407 1999.44C231.76 2000.69 226.547 2001.65 220.767 2002.33C215.101 2003.01 209.094 2003.35 202.747 2003.35ZM226.207 1947.42C227.794 1945.27 228.587 1943 228.587 1940.62C228.587 1937.56 227.794 1934.9 226.207 1932.63C224.62 1930.25 222.467 1928.27 219.747 1926.68C217.027 1924.98 213.854 1923.73 210.227 1922.94C206.714 1922.03 202.917 1921.58 198.837 1921.58C190.337 1921.58 184.217 1923.28 180.477 1926.68C176.737 1930.08 174.867 1934.73 174.867 1940.62C174.867 1945.83 176.851 1950.08 180.816 1953.37C184.896 1956.66 190.903 1958.3 198.837 1958.3C202.917 1958.3 206.771 1957.85 210.396 1956.94C214.023 1955.92 217.197 1954.62 219.917 1953.03C222.637 1951.44 224.733 1949.57 226.207 1947.42ZM387.918 1886.39H408.658V1911.04H437.558V1926.68H408.658V1951.33H437.558V1967.14H408.658V1991.62H387.918V1967.14H355.958V1991.62H335.218V1967.14H305.638V1951.33H335.218V1926.68H305.638V1911.04H335.218V1886.39H355.958V1911.04H387.918V1886.39ZM355.958 1926.68H387.918V1951.33H355.958V1926.68ZM502.358 1875L514.429 1877.04L510.827 1897.9C513.25 1898.48 515.471 1899.23 517.488 1900.16C523.042 1902.65 527.179 1906.05 529.898 1910.36C532.732 1914.67 534.148 1919.65 534.148 1925.32H514.599C513.692 1921.24 511.879 1918.24 509.158 1916.31C506.438 1914.38 502.245 1913.42 496.578 1913.42C491.139 1913.42 486.945 1914.33 483.999 1916.14C481.165 1917.84 479.749 1920.16 479.749 1923.11C479.749 1925.38 480.599 1927.19 482.299 1928.55C484.112 1929.8 486.719 1930.87 490.118 1931.78C493.632 1932.57 497.995 1933.42 503.209 1934.33C507.629 1935.24 511.879 1936.26 515.959 1937.39C520.039 1938.52 523.665 1940 526.839 1941.81C530.012 1943.51 532.505 1945.78 534.318 1948.61C536.245 1951.44 537.209 1955.07 537.209 1959.49C537.209 1964.93 535.622 1969.58 532.448 1973.43C529.275 1977.17 524.799 1980 519.019 1981.93C513.238 1983.86 506.325 1984.82 498.278 1984.82C497.274 1984.82 496.29 1984.81 495.325 1984.78L491.648 2006.07L479.578 2004.03L483.275 1983.48C481.988 1983.21 480.756 1982.91 479.577 1982.57C478.389 1982.23 477.256 1981.84 476.179 1981.42C470.398 1979.04 465.865 1976.15 462.578 1972.75C459.405 1969.35 457.195 1966.01 455.948 1962.72C454.815 1959.43 454.419 1956.77 454.759 1954.73H475.158C476.405 1958.58 478.955 1961.76 482.809 1964.25C486.662 1966.63 491.762 1967.82 498.108 1967.82C502.415 1967.82 505.759 1967.42 508.139 1966.63C510.519 1965.84 512.162 1964.7 513.068 1963.23C513.976 1961.76 514.429 1960.06 514.429 1958.13C514.429 1955.75 513.692 1953.94 512.219 1952.69C510.745 1951.33 508.479 1950.25 505.419 1949.46C502.358 1948.67 498.448 1947.93 493.688 1947.25C488.929 1946.46 484.339 1945.49 479.919 1944.36C475.499 1943.11 471.589 1941.58 468.188 1939.77C464.789 1937.96 462.068 1935.63 460.028 1932.8C458.102 1929.85 457.139 1926.28 457.139 1922.09C457.139 1918.01 458.102 1914.38 460.028 1911.21C462.068 1908.04 464.846 1905.37 468.358 1903.22C471.985 1900.95 476.179 1899.25 480.938 1898.12C485.812 1896.99 491.082 1896.42 496.749 1896.42C497.196 1896.42 497.64 1896.42 498.079 1896.43L498.656 1896.44L502.358 1875ZM582.529 1937.39C576.069 1937.39 570.403 1936.26 565.529 1933.99C560.77 1931.72 557.086 1928.49 554.479 1924.3C551.873 1920.11 550.569 1915.12 550.569 1909.34C550.569 1900.39 553.46 1893.47 559.239 1888.6C565.02 1883.61 572.783 1881.12 582.529 1881.12C592.276 1881.12 599.982 1883.61 605.649 1888.6C611.43 1893.47 614.319 1900.39 614.319 1909.34C614.319 1915.12 613.017 1920.11 610.409 1924.3C607.803 1928.49 604.119 1931.72 599.359 1933.99C594.6 1936.26 588.989 1937.39 582.529 1937.39ZM582.529 1923.45C586.836 1923.45 590.293 1922.2 592.899 1919.71C595.619 1917.1 596.979 1913.65 596.979 1909.34C596.979 1904.92 595.619 1901.46 592.899 1898.97C590.293 1896.36 586.836 1895.06 582.529 1895.06C578.109 1895.06 574.539 1896.36 571.819 1898.97C569.213 1901.46 567.909 1904.92 567.909 1909.34C567.909 1913.65 569.213 1917.1 571.819 1919.71C574.539 1922.2 578.109 1923.45 582.529 1923.45ZM666.51 1996.04C656.763 1996.04 649 1993.6 643.22 1988.73C637.439 1983.74 634.55 1976.83 634.55 1967.99C634.55 1959.15 637.439 1952.24 643.22 1947.25C649 1942.26 656.763 1939.77 666.51 1939.77C676.143 1939.77 683.793 1942.26 689.46 1947.25C695.239 1952.24 698.13 1959.15 698.13 1967.99C698.13 1976.83 695.239 1983.74 689.46 1988.73C683.793 1993.6 676.143 1996.04 666.51 1996.04ZM666.51 1982.1C670.816 1982.1 674.272 1980.85 676.88 1978.36C679.6 1975.87 680.96 1972.41 680.96 1967.99C680.96 1963.68 679.6 1960.23 676.88 1957.62C674.272 1955.01 670.816 1953.71 666.51 1953.71C662.09 1953.71 658.52 1955.01 655.8 1957.62C653.193 1960.11 651.89 1963.57 651.89 1967.99C651.89 1972.41 653.193 1975.87 655.8 1978.36C658.52 1980.85 662.09 1982.1 666.51 1982.1ZM649.51 1877.38L658.689 1882.48L593.75 1999.78L584.909 1994.34L649.51 1877.38ZM767.701 1889.11V1908.49H742.03V1889.11H767.701ZM849.456 1995.87C844.243 1995.87 839.256 1995.19 834.496 1993.83C829.85 1992.47 825.77 1990.54 822.256 1988.05C818.743 1985.56 815.966 1982.55 813.926 1979.04C811.886 1975.41 810.866 1971.39 810.866 1966.97C810.866 1961.53 812.17 1956.94 814.776 1953.2C817.383 1949.35 820.953 1946.23 825.486 1943.85C830.133 1941.47 835.459 1939.71 841.466 1938.58C845.05 1937.84 848.775 1937.27 852.642 1936.89C849.368 1936.63 846.21 1936.29 843.166 1935.86C837.612 1934.95 832.739 1933.54 828.546 1931.61C824.466 1929.68 821.236 1927.19 818.856 1924.13C816.59 1920.96 815.456 1916.99 815.456 1912.23C815.456 1906.11 817.383 1900.78 821.236 1896.25C825.09 1891.6 830.643 1888.03 837.896 1885.54C845.149 1883.05 853.763 1881.8 863.736 1881.8C870.649 1881.8 876.939 1882.48 882.606 1883.84C888.386 1885.2 893.316 1887.3 897.396 1890.13C901.59 1892.85 904.819 1896.31 907.086 1900.5C909.353 1904.58 910.486 1909.4 910.486 1914.95H889.746C889.633 1910.3 887.253 1906.79 882.606 1904.41C878.072 1901.92 871.896 1900.67 864.076 1900.67C855.689 1900.67 849.343 1902.03 845.036 1904.75C840.729 1907.36 838.576 1910.98 838.576 1915.63C838.576 1918.92 839.596 1921.75 841.636 1924.13C843.676 1926.51 846.793 1928.32 850.986 1929.57C855.293 1930.82 860.676 1931.44 867.136 1931.44H933.266V1944.19H911.846V1994H891.276C890.822 1990.71 890.482 1987.48 890.256 1984.31C890.029 1981.02 889.859 1977.4 889.746 1973.43V1968.59C888.994 1970.71 888.088 1972.84 887.026 1974.96C885.213 1978.81 882.663 1982.33 879.376 1985.5C876.203 1988.67 872.123 1991.22 867.136 1993.15C862.263 1994.96 856.369 1995.87 849.456 1995.87ZM858.806 1978.87C865.72 1978.87 871.442 1977.68 875.977 1975.3C880.51 1972.81 883.909 1969.63 886.176 1965.78C888.556 1961.81 889.746 1957.73 889.746 1953.54V1944.19H867.136C857.276 1944.19 849.343 1945.66 843.336 1948.61C837.329 1951.44 834.326 1955.98 834.326 1962.21C834.326 1967.08 836.423 1971.11 840.616 1974.28C844.81 1977.34 850.873 1978.87 858.806 1978.87ZM1010.67 1885.88L1015.94 1902.03L993.156 1908.83L1008.29 1928.38L994.517 1938.41L979.727 1916.99L965.106 1938.41L951.337 1928.38L966.467 1908.83L944.196 1902.2L949.467 1885.88L971.906 1893.87L971.227 1869.56H988.227L987.377 1894.04L1010.67 1885.88ZM1070.83 2009.3L1059.1 2018.82L1056.21 2015.59C1054.4 2013.55 1052.13 2010.49 1049.41 2006.41C1046.81 2002.33 1044.14 1997.34 1041.42 1991.45C1038.71 1985.44 1036.38 1978.59 1034.46 1970.88C1032.64 1963.17 1031.73 1954.67 1031.73 1945.38C1031.73 1935.97 1032.64 1927.47 1034.46 1919.88C1036.38 1912.17 1038.71 1905.43 1041.42 1899.65C1044.14 1893.76 1046.81 1888.83 1049.41 1884.86C1052.13 1880.78 1054.4 1877.72 1056.21 1875.68L1059.1 1872.62L1070.83 1881.97L1067.43 1886.05C1065.28 1888.77 1062.79 1892.85 1059.96 1898.29C1057.12 1903.62 1054.57 1910.25 1052.3 1918.18C1050.15 1926 1049.07 1935.07 1049.07 1945.38C1049.07 1953.88 1049.81 1961.53 1051.29 1968.33C1052.76 1975.13 1054.57 1981.08 1056.72 1986.18C1058.88 1991.28 1061.03 1995.53 1063.18 1998.93C1065.34 2002.44 1067.15 2005.05 1068.62 2006.75L1070.83 2009.3ZM1088.84 2009.3L1091.05 2006.75C1092.53 2005.05 1094.34 2002.44 1096.49 1998.93C1098.65 1995.53 1100.8 1991.28 1102.95 1986.18C1105.11 1981.08 1106.92 1975.13 1108.39 1968.33C1109.87 1961.53 1110.6 1953.88 1110.6 1945.38C1110.6 1935.07 1109.47 1926 1107.2 1918.18C1105.05 1910.25 1102.56 1903.62 1099.72 1898.29C1096.89 1892.85 1094.34 1888.77 1092.07 1886.05L1088.84 1881.97L1100.57 1872.62L1103.29 1875.68C1105.22 1877.72 1107.54 1880.78 1110.26 1884.86C1112.98 1888.83 1115.65 1893.76 1118.25 1899.65C1120.97 1905.43 1123.24 1912.17 1125.05 1919.88C1126.98 1927.47 1127.94 1935.97 1127.94 1945.38C1127.94 1954.67 1126.98 1963.17 1125.05 1970.88C1123.24 1978.59 1120.97 1985.44 1118.25 1991.45C1115.65 1997.34 1112.98 2002.33 1110.26 2006.41C1107.54 2010.49 1105.22 2013.55 1103.29 2015.59L1100.57 2018.82L1088.84 2009.3ZM1149.01 2011H1269.37V2028H1149.01V2011ZM1289.71 1939.94H1319.63V1915.97H1337.99V1939.94H1367.91V1956.09H1337.99V1980.23H1319.63V1956.09H1289.71V1939.94ZM87.3701 2198L98.2241 2174.03H155.653L166.59 2198H191.24L139.05 2088.01H114.57L62.8901 2198H87.3701ZM147.044 2155.16H106.769L126.831 2110.86L147.044 2155.16ZM244.484 2199.87C236.098 2199.87 228.448 2198.06 221.534 2194.43C214.734 2190.69 209.295 2185.53 205.215 2178.96C201.248 2172.27 199.265 2164.57 199.265 2155.84C199.265 2146.89 201.305 2139.12 205.385 2132.55C209.465 2125.98 214.961 2120.88 221.875 2117.25C228.901 2113.51 236.835 2111.64 245.675 2111.64C255.421 2111.64 263.241 2113.62 269.135 2117.59C275.142 2121.44 279.505 2126.71 282.225 2133.4C282.942 2135.17 283.566 2136.99 284.095 2138.86V2113.51H306.194V2198H285.625L285.114 2194.77C284.888 2192.5 284.661 2189.67 284.435 2186.27C284.208 2182.87 284.095 2179.53 284.095 2176.24V2170.57L283.925 2171.14C282.338 2176.24 279.901 2181 276.614 2185.42C273.328 2189.73 269.021 2193.24 263.694 2195.96C258.368 2198.57 251.965 2199.87 244.484 2199.87ZM280.185 2169.95C282.791 2165.87 284.095 2161.17 284.095 2155.84C284.095 2150.06 282.734 2145.19 280.015 2141.22C277.408 2137.14 273.668 2134.08 268.795 2132.04C264.034 2129.89 258.312 2128.81 251.625 2128.81C242.218 2128.81 234.908 2131.3 229.694 2136.29C224.481 2141.16 221.875 2147.68 221.875 2155.84C221.875 2161.28 223.121 2166.04 225.614 2170.12C228.107 2174.09 231.564 2177.2 235.984 2179.47C240.518 2181.74 245.731 2182.87 251.625 2182.87C258.312 2182.87 264.091 2181.74 268.965 2179.47C273.838 2177.2 277.578 2174.03 280.185 2169.95ZM370.092 2198V2088.01H433.502C448.235 2088.01 459.398 2090.5 466.992 2095.49C474.698 2100.36 478.552 2107.67 478.552 2117.42C478.552 2123.65 477.021 2128.58 473.962 2132.21C470.902 2135.72 466.539 2138.33 460.872 2140.03C457.507 2141.06 453.768 2141.86 449.654 2142.43C452.351 2142.63 454.957 2142.91 457.472 2143.26C462.459 2143.94 466.822 2145.19 470.562 2147C474.302 2148.81 477.249 2151.36 479.402 2154.65C481.556 2157.82 482.632 2162.02 482.632 2167.23C482.632 2174.03 480.818 2179.7 477.192 2184.23C473.565 2188.65 468.521 2191.99 462.062 2194.26C455.602 2196.53 448.122 2197.77 439.622 2198H370.092ZM392.702 2179.3H437.242C444.382 2179.3 449.879 2178.17 453.732 2175.9C457.585 2173.52 459.512 2169.78 459.512 2164.68C459.512 2160.94 458.379 2158.22 456.112 2156.52C453.846 2154.82 450.842 2153.8 447.102 2153.46C443.362 2153.01 439.339 2152.78 435.032 2152.78H392.702V2179.3ZM392.702 2134.59H432.652C439.792 2134.59 445.289 2133.57 449.142 2131.53C452.995 2129.38 454.922 2125.75 454.922 2120.65C454.922 2115.55 452.995 2111.98 449.142 2109.94C445.289 2107.79 440.188 2106.71 433.842 2106.71H392.702V2134.59ZM564.958 2199.87C557.479 2199.87 551.075 2198.57 545.748 2195.96C540.422 2193.24 536.115 2189.73 532.828 2185.42C529.542 2181 527.105 2176.24 525.519 2171.14L525.349 2170.57V2176.24C525.349 2178.07 525.305 2179.98 525.218 2181.96C525.133 2183.89 525.007 2185.9 524.839 2187.97C524.498 2192.05 524.158 2195.39 523.818 2198H503.248V2079.51H525.349V2138.5C526.936 2133.17 529.372 2128.53 532.658 2124.56C535.945 2120.48 540.252 2117.31 545.578 2115.04C550.905 2112.77 557.365 2111.64 564.958 2111.64C573.686 2111.64 581.392 2113.51 588.078 2117.25C594.879 2120.88 600.205 2125.98 604.059 2132.55C608.025 2139.12 610.009 2146.89 610.009 2155.84C610.009 2164.57 608.025 2172.27 604.059 2178.96C600.092 2185.53 594.708 2190.69 587.908 2194.43C581.108 2198.06 573.458 2199.87 564.958 2199.87ZM529.259 2141.22C526.651 2145.19 525.349 2150.06 525.349 2155.84C525.349 2161.17 526.651 2165.87 529.259 2169.95C531.865 2174.03 535.605 2177.2 540.479 2179.47C545.352 2181.74 551.132 2182.87 557.818 2182.87C563.825 2182.87 569.038 2181.74 573.458 2179.47C577.879 2177.2 581.278 2174.09 583.658 2170.12C586.151 2166.04 587.398 2161.28 587.398 2155.84C587.398 2147.68 584.792 2141.11 579.578 2136.12C574.479 2131.13 567.225 2128.64 557.818 2128.64C551.245 2128.64 545.521 2129.72 540.648 2131.87C535.775 2134.02 531.979 2137.14 529.259 2141.22ZM798.599 2158.39C797.578 2167.23 794.462 2174.77 789.248 2181C784.035 2187.23 776.951 2191.99 767.998 2195.28C759.045 2198.57 748.392 2200.21 736.038 2200.21C725.725 2200.21 716.262 2199.02 707.648 2196.64C699.148 2194.26 691.781 2190.69 685.548 2185.93C679.428 2181.17 674.668 2175.28 671.269 2168.25C667.868 2161.11 666.168 2152.78 666.168 2143.26C666.168 2133.74 667.868 2125.41 671.269 2118.27C674.668 2111.13 679.428 2105.18 685.548 2100.42C691.781 2095.55 699.148 2091.92 707.648 2089.54C716.262 2087.05 725.725 2085.8 736.038 2085.8C748.392 2085.8 759.045 2087.5 767.998 2090.9C777.064 2094.3 784.205 2099.17 789.418 2105.52C794.632 2111.75 797.691 2119.35 798.599 2128.3H776.158C774.685 2123.54 772.191 2119.46 768.678 2116.06C765.278 2112.55 760.858 2109.88 755.418 2108.07C749.979 2106.26 743.519 2105.35 736.038 2105.35C726.745 2105.35 718.585 2106.82 711.559 2109.77C704.531 2112.6 699.092 2116.85 695.238 2122.52C691.385 2128.07 689.458 2134.99 689.458 2143.26C689.458 2151.42 691.385 2158.28 695.238 2163.83C699.092 2169.38 704.531 2173.63 711.559 2176.58C718.585 2179.41 726.745 2180.83 736.038 2180.83C743.519 2180.83 749.922 2179.92 755.248 2178.11C760.688 2176.3 765.108 2173.69 768.508 2170.29C772.021 2166.89 774.571 2162.92 776.158 2158.39H798.599ZM918.068 2164.68C917.502 2172.05 915.122 2178.39 910.929 2183.72C906.849 2189.05 901.182 2193.13 893.929 2195.96C886.675 2198.68 878.062 2200.04 868.088 2200.04C857.662 2200.04 848.312 2198.4 840.038 2195.11C831.878 2191.71 825.418 2186.78 820.658 2180.32C816.012 2173.75 813.688 2165.64 813.688 2156.01C813.688 2146.38 816.012 2138.27 820.658 2131.7C825.418 2125.13 831.878 2120.14 840.038 2116.74C848.312 2113.34 857.662 2111.64 868.088 2111.64C878.062 2111.64 886.618 2113.06 893.759 2115.89C900.898 2118.61 906.509 2122.58 910.588 2127.79C914.781 2133 917.219 2139.29 917.898 2146.66H897.668C895.742 2140.99 892.172 2136.57 886.958 2133.4C881.745 2130.23 875.455 2128.64 868.088 2128.64C862.195 2128.64 856.812 2129.66 851.938 2131.7C847.179 2133.74 843.325 2136.8 840.378 2140.88C837.545 2144.85 836.128 2149.89 836.128 2156.01C836.128 2162.02 837.545 2167.06 840.378 2171.14C843.212 2175.11 847.065 2178.11 851.938 2180.15C856.812 2182.08 862.195 2183.04 868.088 2183.04C876.021 2183.04 882.481 2181.45 887.469 2178.28C892.568 2175.11 896.025 2170.57 897.838 2164.68H918.068ZM1041.11 2088.01C1053.46 2088.01 1063.77 2089.48 1072.05 2092.43C1080.32 2095.38 1086.89 2099.4 1091.77 2104.5C1096.75 2109.49 1100.27 2115.27 1102.31 2121.84C1104.46 2128.41 1105.54 2135.33 1105.54 2142.58C1105.54 2149.83 1104.35 2156.8 1101.97 2163.49C1099.7 2170.18 1096.02 2176.13 1090.92 2181.34C1085.93 2186.44 1079.3 2190.52 1071.03 2193.58C1062.87 2196.53 1052.89 2198 1041.11 2198H978.207V2088.01H1041.11ZM1000.82 2178.62H1040.6C1048.76 2178.62 1055.5 2177.66 1060.83 2175.73C1066.27 2173.69 1070.57 2170.97 1073.75 2167.57C1076.92 2164.17 1079.19 2160.32 1080.55 2156.01C1081.91 2151.7 1082.59 2147.23 1082.59 2142.58C1082.59 2137.93 1081.91 2133.51 1080.55 2129.32C1079.19 2125.13 1076.92 2121.39 1073.75 2118.1C1070.57 2114.81 1066.27 2112.21 1060.83 2110.28C1055.5 2108.35 1048.76 2107.39 1040.6 2107.39H1000.82V2178.62ZM1165.87 2199.87C1157.37 2199.87 1149.66 2198.06 1142.75 2194.43C1135.95 2190.69 1130.57 2185.53 1126.6 2178.96C1122.63 2172.27 1120.65 2164.57 1120.65 2155.84C1120.65 2146.89 1122.58 2139.12 1126.43 2132.55C1130.4 2125.98 1135.78 2120.88 1142.58 2117.25C1149.38 2113.51 1157.14 2111.64 1165.87 2111.64C1173.46 2111.64 1179.92 2112.77 1185.25 2115.04C1190.58 2117.31 1194.88 2120.48 1198.17 2124.56C1201.46 2128.53 1203.84 2133.17 1205.31 2138.5C1205.37 2138.69 1205.43 2138.89 1205.48 2139.08V2079.51H1227.58V2198H1207.01C1206.67 2195.39 1206.33 2192.05 1205.99 2187.97C1205.65 2183.78 1205.48 2179.87 1205.48 2176.24V2170.57L1205.31 2171.14C1203.72 2176.24 1201.29 2181 1198 2185.42C1194.71 2189.73 1190.41 2193.24 1185.08 2195.96C1179.75 2198.57 1173.35 2199.87 1165.87 2199.87ZM1201.57 2169.95C1204.18 2165.87 1205.48 2161.17 1205.48 2155.84C1205.48 2150.06 1204.12 2145.19 1201.4 2141.22C1198.79 2137.14 1195.05 2134.02 1190.18 2131.87C1185.42 2129.72 1179.7 2128.64 1173.01 2128.64C1163.6 2128.64 1156.29 2131.13 1151.08 2136.12C1145.87 2141.11 1143.26 2147.68 1143.26 2155.84C1143.26 2161.28 1144.51 2166.04 1147 2170.12C1149.49 2174.09 1152.95 2177.2 1157.37 2179.47C1161.9 2181.74 1167.12 2182.87 1173.01 2182.87C1179.7 2182.87 1185.48 2181.74 1190.35 2179.47C1195.22 2177.2 1198.96 2174.03 1201.57 2169.95ZM1317.91 2152.1V2179.13H1402.74V2198H1295.3V2088.01H1402.57V2106.88H1317.91V2134.25H1387.27V2152.1H1317.91ZM1497.91 2169.95H1519.33C1518.43 2175.73 1515.99 2180.89 1512.02 2185.42C1508.17 2189.95 1502.9 2193.52 1496.21 2196.13C1489.53 2198.74 1481.37 2200.04 1471.73 2200.04C1460.97 2200.04 1451.45 2198.34 1443.17 2194.94C1434.9 2191.43 1428.44 2186.38 1423.79 2179.81C1419.15 2173.24 1416.82 2165.3 1416.82 2156.01C1416.82 2146.72 1419.09 2138.78 1423.62 2132.21C1428.16 2125.52 1434.45 2120.42 1442.49 2116.91C1450.65 2113.4 1460.17 2111.64 1471.05 2111.64C1482.16 2111.64 1491.4 2113.4 1498.76 2116.91C1506.13 2120.42 1511.57 2125.75 1515.08 2132.89C1518.71 2139.92 1520.24 2148.93 1519.67 2159.92H1439.09C1439.66 2164.23 1441.25 2168.14 1443.85 2171.65C1446.57 2175.16 1450.2 2177.94 1454.73 2179.98C1459.38 2182.02 1464.88 2183.04 1471.22 2183.04C1478.25 2183.04 1484.09 2181.85 1488.73 2179.47C1493.49 2176.98 1496.55 2173.8 1497.91 2169.95ZM1470.03 2128.47C1461.87 2128.47 1455.24 2130.28 1450.14 2133.91C1445.04 2137.42 1441.76 2141.79 1440.28 2147H1497.74C1497.18 2141.33 1494.46 2136.86 1489.58 2133.57C1484.82 2130.17 1478.31 2128.47 1470.03 2128.47ZM1687.28 2088.01V2106.88H1602.62V2136.46H1671.98V2154.14H1602.62V2198H1580.01V2088.01H1687.28ZM1697.18 2115.04H1716.22V2108.92C1716.22 2102.12 1717.47 2096.57 1719.96 2092.26C1722.45 2087.84 1726.14 2084.61 1731.01 2082.57C1735.88 2080.53 1741.83 2079.51 1748.86 2079.51H1766.37V2097.36H1754.13C1750.84 2097.25 1748.01 2097.59 1745.63 2098.38C1743.25 2099.17 1741.44 2100.65 1740.19 2102.8C1738.94 2104.84 1738.32 2107.79 1738.32 2111.64V2115.04H1765.18V2131.87H1738.32V2198H1716.22V2131.87H1697.18V2115.04ZM1886.13 2200.21C1875.93 2200.21 1866.7 2199.02 1858.42 2196.64C1850.26 2194.26 1843.18 2190.69 1837.17 2185.93C1831.28 2181.17 1826.75 2175.28 1823.57 2168.25C1820.4 2161.22 1818.81 2153.12 1818.81 2143.94C1818.81 2134.65 1820.46 2126.43 1823.74 2119.29C1827.14 2112.04 1831.9 2105.92 1838.02 2100.93C1844.26 2095.94 1851.62 2092.2 1860.12 2089.71C1868.74 2087.1 1878.26 2085.8 1888.68 2085.8C1901.04 2085.8 1911.69 2087.56 1920.64 2091.07C1929.6 2094.47 1936.62 2099.29 1941.72 2105.52C1946.94 2111.75 1949.88 2119.18 1950.56 2127.79H1928.8C1927.33 2123.26 1924.89 2119.35 1921.49 2116.06C1918.21 2112.66 1913.84 2110.05 1908.4 2108.24C1902.96 2106.31 1896.39 2105.35 1888.68 2105.35C1878.82 2105.35 1870.38 2106.94 1863.35 2110.11C1856.44 2113.28 1851.17 2117.76 1847.54 2123.54C1843.92 2129.32 1842.1 2136.12 1842.1 2143.94C1842.1 2151.53 1843.69 2158.11 1846.87 2163.66C1850.04 2169.1 1854.91 2173.29 1861.48 2176.24C1868.17 2179.19 1876.67 2180.66 1886.98 2180.66C1894.92 2180.66 1901.89 2179.64 1907.89 2177.6C1914.01 2175.45 1919.12 2172.61 1923.19 2169.1C1926.69 2165.99 1929.31 2162.59 1931.06 2158.9H1888.85V2144.45H1954.47V2198H1934.92C1934.92 2194.49 1935.15 2190.46 1935.6 2185.93C1936.06 2181.28 1936.62 2176.64 1937.3 2171.99L1938.04 2166.83C1935.27 2175.37 1930.6 2182.42 1924.04 2187.97C1914.52 2196.13 1901.89 2200.21 1886.13 2200.21ZM2001.58 2186.95C2005.09 2185.93 2010.42 2185.31 2017.56 2185.08C2026.96 2185.08 2035.07 2183.72 2041.87 2181C2048.78 2178.17 2054.11 2174.14 2057.85 2168.93C2061.58 2163.6 2063.46 2157.26 2063.46 2149.89C2063.46 2145.36 2062.38 2141.39 2060.23 2137.99C2058.19 2134.48 2055.46 2131.42 2052.07 2128.81C2051.19 2128.11 2050.31 2127.44 2049.4 2126.81C2048.58 2126.22 2047.73 2125.66 2046.88 2125.12C2048.84 2125.8 2050.91 2126.46 2053.08 2127.1C2054.46 2127.51 2055.88 2127.91 2057.33 2128.3C2063.34 2129.77 2069.24 2130.45 2075.02 2130.34V2113.68L2032.35 2113.51C2029.96 2112.94 2027.53 2112.49 2025.04 2112.15C2022.66 2111.81 2020.16 2111.64 2017.56 2111.64C2008.15 2111.64 1999.93 2113.17 1992.91 2116.23C1985.99 2119.29 1980.67 2123.6 1976.93 2129.15C1973.19 2134.7 1971.32 2141.28 1971.32 2148.87C1971.32 2156.58 1973.24 2163.15 1977.1 2168.59C1980.95 2174.03 1986.33 2178.17 1993.25 2181C1995.22 2181.76 1997.28 2182.42 1999.42 2182.97C1996.23 2183.02 1993.21 2183.27 1990.36 2183.72C1985.37 2184.51 1981.4 2186.1 1978.46 2188.48C1975.51 2190.75 1974.04 2194.15 1974.04 2198.68C1974.04 2200.95 1974.49 2203.04 1975.4 2204.97C1976.3 2207.01 1977.78 2208.77 1979.82 2210.24C1981.86 2211.71 1984.58 2212.85 1987.98 2213.64C1991.49 2214.43 1995.79 2214.83 2000.9 2214.83H2027.25C2033.03 2214.83 2037.56 2215.85 2040.85 2217.89C2044.25 2219.93 2045.95 2223.56 2045.95 2228.77V2232.85H2068.04V2224.86C2068.04 2218.06 2066.63 2212.68 2063.79 2208.71C2060.96 2204.86 2056.83 2202.08 2051.38 2200.38C2046.06 2198.79 2039.6 2198 2032.01 2198H2004.29C2001.8 2198 1999.88 2197.55 1998.52 2196.64C1997.16 2195.62 1996.48 2194.26 1996.48 2192.56C1996.48 2189.73 1998.18 2187.86 2001.58 2186.95ZM2017.56 2169.1C2022.43 2169.1 2026.68 2168.31 2030.31 2166.72C2034.04 2165.13 2036.94 2162.87 2038.98 2159.92C2041.02 2156.86 2042.04 2153.23 2042.04 2149.04C2042.04 2144.73 2041.02 2141.05 2038.98 2137.99C2036.94 2134.93 2034.1 2132.61 2030.48 2131.02C2026.85 2129.32 2022.54 2128.47 2017.56 2128.47C2012.68 2128.47 2008.38 2129.32 2004.63 2131.02C2000.9 2132.61 1998.01 2134.93 1995.96 2137.99C1993.93 2141.05 1992.91 2144.73 1992.91 2149.04C1992.91 2153.23 1993.93 2156.86 1995.96 2159.92C1998.01 2162.87 2000.84 2165.13 2004.46 2166.72C2008.21 2168.31 2012.57 2169.1 2017.56 2169.1ZM2155.95 2198V2152.27H2236.7V2198H2259.31V2088.01H2236.7V2133.4H2155.95V2088.01H2133.34V2198H2155.95ZM2359.7 2198V2151.59C2359.7 2146.94 2358.91 2143.09 2357.32 2140.03C2355.74 2136.97 2353.19 2134.65 2349.67 2133.06C2346.27 2131.47 2341.68 2130.68 2335.9 2130.68C2330.35 2130.68 2325.31 2131.76 2320.77 2133.91C2316.24 2135.95 2312.56 2138.67 2309.72 2142.07C2308.15 2143.9 2306.96 2145.79 2306.15 2147.76V2198H2284.05V2079.51H2306.15V2137.77C2306.81 2135.86 2307.66 2133.95 2308.7 2132.04C2310.74 2128.3 2313.46 2124.9 2316.86 2121.84C2320.26 2118.78 2324.34 2116.34 2329.1 2114.53C2333.98 2112.6 2339.42 2111.64 2345.42 2111.64C2350.64 2111.64 2355.45 2112.32 2359.87 2113.68C2364.29 2114.93 2368.15 2116.91 2371.43 2119.63C2374.72 2122.35 2377.27 2125.75 2379.08 2129.83C2380.9 2133.8 2381.8 2138.5 2381.8 2143.94V2198H2359.7ZM2449.02 2088.01H2471.62V2198H2449.02V2088.01ZM2523.34 2076.45V2095.83H2497.67V2076.45H2523.34ZM2499.37 2113.51H2521.47V2198H2499.37V2113.51ZM2654.72 2154.99V2088.01H2677.33V2156.52C2677.33 2162.3 2676.25 2167.8 2674.1 2173.01C2672.06 2178.22 2668.94 2182.87 2664.75 2186.95C2660.67 2190.92 2655.57 2194.03 2649.45 2196.3C2643.44 2198.57 2636.41 2199.7 2628.37 2199.7C2622.13 2199.7 2616.07 2198.91 2610.18 2197.32C2604.4 2195.73 2599.18 2193.35 2594.54 2190.18C2589.89 2186.89 2586.15 2182.81 2583.32 2177.94C2580.48 2172.95 2578.95 2167.12 2578.73 2160.43H2600.15C2601.39 2166.89 2604.57 2171.82 2609.67 2175.22C2614.88 2178.51 2621.11 2180.15 2628.37 2180.15C2634.6 2180.15 2639.64 2179.07 2643.5 2176.92C2647.35 2174.65 2650.18 2171.65 2652 2167.91C2653.81 2164.06 2654.72 2159.75 2654.72 2154.99ZM2702.25 2113.51H2724.35V2232H2702.25V2113.51ZM2725.88 2076.45V2095.83H2700.21V2076.45H2725.88ZM2903.16 2088.01L2842.53 2139.75L2910.98 2198H2878.34L2812.55 2140.35V2198H2789.94V2088.01H2812.55V2140.05L2871.03 2088.01H2903.16ZM2927.03 2079.51H2949.13V2198H2927.03V2079.51ZM3020.36 2113.51L2977.54 2151.27L3024.27 2198H2996.22L2949.64 2150.57L2990.27 2113.51H3020.36ZM95.7002 2292.01V2383.13H168.8V2402H73.0898V2292.01H95.7002ZM188.609 2283.51H210.709V2402H188.609V2283.51ZM299.567 2292.01L357.127 2382.39L414.997 2292.01H437.607V2402H414.997V2332.07L369.947 2402H344.617L299.567 2332.38V2402H276.957V2292.01H299.567ZM460.835 2317.51H482.935V2341.86C483.593 2339.89 484.442 2337.95 485.484 2336.04C487.524 2332.3 490.245 2328.9 493.645 2325.84C497.158 2322.67 501.295 2320.17 506.055 2318.36C510.814 2316.55 516.198 2315.64 522.205 2315.64C527.418 2315.64 532.234 2316.32 536.654 2317.68C541.075 2319.04 544.928 2321.14 548.215 2323.97C551.502 2326.8 554.052 2330.43 555.865 2334.85C556.482 2336.32 556.995 2337.88 557.402 2339.55C557.938 2338.32 558.559 2337.1 559.265 2335.87C561.418 2332.13 564.252 2328.73 567.765 2325.67C571.278 2322.61 575.358 2320.17 580.005 2318.36C584.765 2316.55 590.035 2315.64 595.814 2315.64C601.028 2315.64 605.845 2316.32 610.265 2317.68C614.685 2319.04 618.538 2321.14 621.825 2323.97C625.111 2326.8 627.661 2330.43 629.475 2334.85C631.401 2339.16 632.365 2344.31 632.365 2350.32V2402H610.265V2354.23C610.265 2347.09 608.508 2341.88 604.995 2338.59C601.481 2335.19 595.814 2333.49 587.995 2333.49C582.102 2333.49 576.774 2334.62 572.015 2336.89C567.255 2339.16 563.401 2342.05 560.455 2345.56C559.74 2346.38 559.102 2347.22 558.541 2348.06C558.57 2348.8 558.585 2349.55 558.585 2350.32V2402H536.484V2354.23C536.484 2347.09 534.729 2341.88 531.215 2338.59C527.814 2335.19 522.205 2333.49 514.385 2333.49C508.491 2333.49 503.165 2334.62 498.404 2336.89C493.645 2339.16 489.791 2342.05 486.845 2345.56C485.108 2347.56 483.806 2349.63 482.935 2351.75V2402H460.835V2317.51ZM800.692 2292.01V2372.53L718.923 2292.01H696.312V2402H718.923V2322.11L800.692 2402H823.303V2292.01H800.692ZM846.655 2317.51H868.755V2341.86C869.413 2339.89 870.263 2337.95 871.305 2336.04C873.345 2332.3 876.065 2328.9 879.465 2325.84C882.979 2322.67 887.115 2320.17 891.875 2318.36C896.635 2316.55 902.019 2315.64 908.025 2315.64C913.238 2315.64 918.055 2316.32 922.475 2317.68C926.896 2319.04 930.748 2321.14 934.035 2323.97C937.322 2326.8 939.872 2330.43 941.686 2334.85C943.498 2339.16 944.405 2344.31 944.405 2350.32V2402H922.305V2354.23C922.305 2347.09 920.549 2341.88 917.035 2338.59C913.635 2335.19 908.025 2333.49 900.205 2333.49C894.312 2333.49 888.985 2334.62 884.225 2336.89C879.465 2339.16 875.611 2342.05 872.665 2345.56C870.929 2347.56 869.626 2349.63 868.755 2351.75V2402H846.655V2317.51ZM1073.87 2404.21C1059.25 2404.21 1046.73 2401.94 1036.3 2397.41C1025.99 2392.76 1018.06 2386.19 1012.5 2377.69C1007.06 2369.19 1004.34 2358.99 1004.34 2347.09C1004.34 2335.08 1007.06 2324.82 1012.5 2316.32C1018.06 2307.82 1025.99 2301.3 1036.3 2296.77C1046.73 2292.12 1059.25 2289.8 1073.87 2289.8C1088.61 2289.8 1101.13 2292.12 1111.44 2296.77C1121.76 2301.3 1129.63 2307.82 1135.07 2316.32C1140.62 2324.82 1143.4 2335.08 1143.4 2347.09C1143.4 2358.99 1140.62 2369.19 1135.07 2377.69C1129.63 2386.19 1121.76 2392.76 1111.44 2397.41C1101.13 2401.94 1088.61 2404.21 1073.87 2404.21ZM1073.87 2384.66C1082.94 2384.66 1090.87 2383.3 1097.67 2380.58C1104.58 2377.86 1109.97 2373.72 1113.82 2368.17C1117.79 2362.62 1119.77 2355.59 1119.77 2347.09C1119.77 2338.59 1117.79 2331.56 1113.82 2326.01C1109.97 2320.46 1104.58 2316.32 1097.67 2313.6C1090.87 2310.77 1082.94 2309.35 1073.87 2309.35C1064.92 2309.35 1056.93 2310.77 1049.9 2313.6C1042.88 2316.32 1037.38 2320.46 1033.41 2326.01C1029.45 2331.56 1027.46 2338.59 1027.46 2347.09C1027.46 2355.59 1029.45 2362.62 1033.41 2368.17C1037.38 2373.72 1042.88 2377.86 1049.9 2380.58C1056.93 2383.3 1064.92 2384.66 1073.87 2384.66ZM1212.39 2404.04C1201.74 2404.04 1192.33 2402.34 1184.17 2398.94C1176.13 2395.54 1169.84 2390.61 1165.3 2384.15C1160.77 2377.58 1158.5 2369.53 1158.5 2360.01C1158.5 2350.49 1160.77 2342.44 1165.3 2335.87C1169.84 2329.18 1176.13 2324.14 1184.17 2320.74C1192.33 2317.34 1201.74 2315.64 1212.39 2315.64C1223.05 2315.64 1232.34 2317.34 1240.27 2320.74C1248.32 2324.14 1254.61 2329.18 1259.14 2335.87C1263.68 2342.44 1265.94 2350.49 1265.94 2360.01C1265.94 2369.53 1263.68 2377.58 1259.14 2384.15C1254.61 2390.61 1248.32 2395.54 1240.27 2398.94C1232.34 2402.34 1223.05 2404.04 1212.39 2404.04ZM1212.39 2387.04C1218.29 2387.04 1223.56 2386.02 1228.2 2383.98C1232.96 2381.83 1236.7 2378.77 1239.42 2374.8C1242.14 2370.72 1243.5 2365.79 1243.5 2360.01C1243.5 2354.23 1242.14 2349.3 1239.42 2345.22C1236.7 2341.03 1233.02 2337.85 1228.37 2335.7C1223.73 2333.55 1218.4 2332.47 1212.39 2332.47C1206.5 2332.47 1201.17 2333.55 1196.41 2335.7C1191.65 2337.85 1187.86 2340.97 1185.02 2345.05C1182.3 2349.13 1180.94 2354.12 1180.94 2360.01C1180.94 2365.79 1182.3 2370.72 1185.02 2374.8C1187.74 2378.77 1191.48 2381.83 1196.24 2383.98C1201 2386.02 1206.39 2387.04 1212.39 2387.04ZM1325.84 2402H1348.45V2366.3H1394.01C1400.13 2366.3 1405.85 2365.68 1411.18 2364.43C1416.62 2363.07 1421.32 2360.97 1425.29 2358.14C1429.37 2355.19 1432.54 2351.4 1434.81 2346.75C1437.07 2342.1 1438.21 2336.49 1438.21 2329.92C1438.21 2323.23 1437.07 2317.51 1434.81 2312.75C1432.54 2307.99 1429.37 2304.08 1425.29 2301.02C1421.32 2297.96 1416.62 2295.69 1411.18 2294.22C1405.85 2292.75 1400.13 2292.01 1394.01 2292.01H1325.84V2402ZM1396.05 2348.28H1348.45V2311.39H1396.05C1402.05 2311.39 1406.81 2312.98 1410.33 2316.15C1413.84 2319.32 1415.6 2323.91 1415.6 2329.92C1415.6 2335.7 1413.84 2340.23 1410.33 2343.52C1406.81 2346.69 1402.05 2348.28 1396.05 2348.28ZM1518.14 2404.04C1510.66 2404.04 1504.25 2402.74 1498.93 2400.13C1493.71 2397.41 1489.46 2393.9 1486.18 2389.59C1482.89 2385.17 1480.45 2380.35 1478.87 2375.14L1478.7 2374.57V2436H1456.6V2317.51H1477.68L1478.7 2339.95V2342.5C1480.28 2337.17 1482.72 2332.53 1486.01 2328.56C1489.29 2324.48 1493.54 2321.31 1498.76 2319.04C1504.08 2316.77 1510.54 2315.64 1518.14 2315.64C1526.64 2315.64 1534.29 2317.51 1541.09 2321.25C1547.89 2324.99 1553.27 2330.2 1557.24 2336.89C1561.32 2343.46 1563.36 2351.11 1563.36 2359.84C1563.36 2368.79 1561.32 2376.61 1557.24 2383.3C1553.16 2389.87 1547.72 2394.97 1540.92 2398.6C1534.12 2402.23 1526.52 2404.04 1518.14 2404.04ZM1482.95 2345.22C1480.11 2349.19 1478.7 2354.06 1478.7 2359.84C1478.7 2365.28 1480 2370.04 1482.61 2374.12C1485.21 2378.09 1488.95 2381.2 1493.83 2383.47C1498.7 2385.74 1504.42 2386.87 1511 2386.87C1517 2386.87 1522.22 2385.74 1526.64 2383.47C1531.17 2381.2 1534.63 2378.09 1537.01 2374.12C1539.5 2370.04 1540.75 2365.28 1540.75 2359.84C1540.75 2351.68 1538.14 2345.11 1532.93 2340.12C1527.83 2335.13 1520.52 2332.64 1511 2332.64C1504.99 2332.64 1499.49 2333.72 1494.51 2335.87C1489.63 2338.02 1485.78 2341.14 1482.95 2345.22ZM1651.39 2397.41C1659.09 2400.76 1667.93 2402.87 1677.91 2403.74V2436H1700.01V2403.75C1710.06 2402.88 1718.9 2400.76 1726.53 2397.41C1736.84 2392.76 1744.72 2386.19 1750.16 2377.69C1755.71 2369.19 1758.49 2358.99 1758.49 2347.09C1758.49 2335.08 1755.71 2324.82 1750.16 2316.32C1744.72 2307.82 1736.84 2301.3 1726.53 2296.77C1716.22 2292.12 1703.69 2289.8 1688.96 2289.8C1674.34 2289.8 1661.82 2292.12 1651.39 2296.77C1641.08 2301.3 1633.14 2307.82 1627.59 2316.32C1622.15 2324.82 1619.43 2335.08 1619.43 2347.09C1619.43 2358.99 1622.15 2369.19 1627.59 2377.69C1633.14 2386.19 1641.08 2392.76 1651.39 2397.41ZM1688.96 2384.66C1698.03 2384.66 1705.96 2383.3 1712.76 2380.58C1719.67 2377.86 1725.06 2373.72 1728.91 2368.17C1732.88 2362.62 1734.86 2355.59 1734.86 2347.09C1734.86 2338.59 1732.88 2331.56 1728.91 2326.01C1725.06 2320.46 1719.67 2316.32 1712.76 2313.6C1705.96 2310.77 1698.03 2309.35 1688.96 2309.35C1680.01 2309.35 1672.02 2310.77 1664.99 2313.6C1657.96 2316.32 1652.47 2320.46 1648.5 2326.01C1644.53 2331.56 1642.55 2338.59 1642.55 2347.09C1642.55 2355.59 1644.53 2362.62 1648.5 2368.17C1652.47 2373.72 1657.96 2377.86 1664.99 2380.58C1672.02 2383.3 1680.01 2384.66 1688.96 2384.66ZM1818.81 2404.04C1810.42 2404.04 1802.77 2402.23 1795.86 2398.6C1789.06 2394.97 1783.62 2389.87 1779.54 2383.3C1775.57 2376.61 1773.59 2368.79 1773.59 2359.84C1773.59 2351.11 1775.57 2343.46 1779.54 2336.89C1783.62 2330.2 1789.06 2324.99 1795.86 2321.25C1802.77 2317.51 1810.42 2315.64 1818.81 2315.64C1826.4 2315.64 1832.86 2316.77 1838.19 2319.04C1843.52 2321.31 1847.82 2324.48 1851.11 2328.56C1854.4 2332.53 1856.78 2337.17 1858.25 2342.5L1858.42 2343.08V2338.42L1859.1 2317.51H1880.52V2436H1858.42V2374.57L1858.25 2375.14C1856.66 2380.35 1854.23 2385.17 1850.94 2389.59C1847.65 2393.9 1843.35 2397.41 1838.02 2400.13C1832.69 2402.74 1826.29 2404.04 1818.81 2404.04ZM1854.51 2374.12C1857.12 2370.04 1858.42 2365.28 1858.42 2359.84C1858.42 2354.06 1857.06 2349.19 1854.34 2345.22C1851.73 2341.14 1847.99 2338.02 1843.12 2335.87C1838.36 2333.72 1832.64 2332.64 1825.95 2332.64C1816.54 2332.64 1809.23 2335.13 1804.02 2340.12C1798.81 2345.11 1796.2 2351.68 1796.2 2359.84C1796.2 2365.28 1797.45 2370.04 1799.94 2374.12C1802.43 2378.09 1805.89 2381.2 1810.31 2383.47C1814.84 2385.74 1820.06 2386.87 1825.95 2386.87C1832.64 2386.87 1838.42 2385.74 1843.29 2383.47C1848.16 2381.2 1851.9 2378.09 1854.51 2374.12ZM1948.24 2402V2292.01H2022.87C2031.37 2292.01 2038.73 2293.2 2044.97 2295.58C2051.31 2297.85 2056.24 2301.47 2059.76 2306.46C2063.27 2311.33 2065.03 2317.62 2065.03 2325.33C2065.03 2330.54 2064.12 2334.96 2062.31 2338.59C2060.49 2342.22 2057.94 2345.16 2054.66 2347.43C2051.48 2349.7 2047.8 2351.45 2043.61 2352.7C2041.64 2353.23 2039.6 2353.68 2037.51 2354.03C2041.23 2354.38 2044.51 2354.9 2047.35 2355.59C2052.45 2356.72 2056.24 2358.88 2058.74 2362.05C2061.34 2365.11 2062.65 2369.7 2062.65 2375.82V2402H2040.04V2377.35C2040.04 2373.16 2039.3 2369.93 2037.83 2367.66C2036.35 2365.28 2033.69 2363.64 2029.84 2362.73C2026.1 2361.82 2020.66 2361.37 2013.52 2361.37H1970.85V2402H1948.24ZM1970.85 2343.69H2022.87C2029.21 2343.69 2034.03 2342.16 2037.32 2339.1C2040.72 2336.04 2042.42 2331.9 2042.42 2326.69C2042.42 2321.7 2040.72 2317.91 2037.32 2315.3C2034.03 2312.69 2029.21 2311.39 2022.87 2311.39H1970.85V2343.69ZM2085.8 2317.51H2107.9V2343.18C2108.69 2340.46 2109.88 2337.57 2111.47 2334.51C2113.05 2331.34 2115.15 2328.33 2117.76 2325.5C2120.36 2322.55 2123.54 2320.17 2127.28 2318.36C2131.02 2316.55 2135.38 2315.64 2140.37 2315.64V2335.7C2134.02 2335.7 2128.52 2336.95 2123.88 2339.44C2119.23 2341.82 2115.49 2344.77 2112.66 2348.28C2110.64 2350.78 2109.05 2353.23 2107.9 2355.61V2402H2085.8V2317.51ZM2190.61 2364.94H2213.56C2214.02 2368.79 2215.77 2372.31 2218.83 2375.48C2222.01 2378.54 2226.14 2380.98 2231.24 2382.79C2236.34 2384.49 2242.07 2385.34 2248.41 2385.34C2254.19 2385.34 2258.95 2384.72 2262.69 2383.47C2266.43 2382.22 2269.21 2380.47 2271.02 2378.2C2272.84 2375.93 2273.74 2373.21 2273.74 2370.04C2273.74 2366.98 2272.61 2364.66 2270.34 2363.07C2268.08 2361.37 2264.51 2360.01 2259.63 2358.99C2254.76 2357.86 2248.36 2356.72 2240.42 2355.59C2234.19 2354.68 2228.3 2353.44 2222.74 2351.85C2217.19 2350.15 2212.26 2348 2207.95 2345.39C2203.76 2342.78 2200.42 2339.61 2197.92 2335.87C2195.54 2332.02 2194.35 2327.48 2194.35 2322.27C2194.35 2315.81 2196.17 2310.14 2199.79 2305.27C2203.53 2300.4 2209.03 2296.6 2216.28 2293.88C2223.54 2291.16 2232.43 2289.8 2242.97 2289.8C2258.84 2289.8 2271.02 2293.2 2279.52 2300C2288.14 2306.69 2292.33 2315.92 2292.1 2327.71H2270C2269.55 2321.02 2266.72 2316.21 2261.5 2313.26C2256.4 2310.31 2249.94 2308.84 2242.12 2308.84C2234.87 2308.84 2228.86 2309.92 2224.1 2312.07C2219.46 2314.22 2217.13 2317.91 2217.13 2323.12C2217.13 2325.16 2217.7 2326.97 2218.83 2328.56C2219.97 2330.03 2221.89 2331.34 2224.61 2332.47C2227.33 2333.6 2231.02 2334.68 2235.66 2335.7C2240.31 2336.72 2246.09 2337.74 2253 2338.76C2259.46 2339.67 2265.3 2340.91 2270.51 2342.5C2275.84 2343.97 2280.37 2345.96 2284.11 2348.45C2287.97 2350.83 2290.91 2353.89 2292.95 2357.63C2294.99 2361.37 2296.01 2365.96 2296.01 2371.4C2296.01 2378.09 2294.26 2383.92 2290.74 2388.91C2287.34 2393.78 2282.02 2397.58 2274.76 2400.3C2267.62 2403.02 2258.33 2404.38 2246.88 2404.38C2238.72 2404.38 2231.53 2403.53 2225.29 2401.83C2219.06 2400.02 2213.68 2397.64 2209.14 2394.69C2204.61 2391.74 2200.93 2388.51 2198.09 2385C2195.26 2381.49 2193.22 2377.97 2191.97 2374.46C2190.84 2370.95 2190.39 2367.77 2190.61 2364.94ZM2309.67 2373.95H2330.07C2331.32 2377.8 2333.87 2380.98 2337.72 2383.47C2341.69 2385.85 2346.84 2387.04 2353.19 2387.04C2357.5 2387.04 2360.84 2386.64 2363.22 2385.85C2364.7 2385.36 2365.9 2384.73 2366.81 2383.97C2367.36 2383.52 2367.81 2383.01 2368.15 2382.45C2368.62 2381.64 2368.96 2380.78 2369.19 2379.88C2369.4 2379.02 2369.51 2378.12 2369.51 2377.18C2369.51 2374.8 2368.77 2372.99 2367.3 2371.74C2365.83 2370.38 2363.56 2369.3 2360.5 2368.51C2357.44 2367.72 2353.53 2366.98 2348.77 2366.3C2344.01 2365.51 2339.42 2364.54 2335 2363.41C2330.58 2362.28 2326.67 2360.8 2323.27 2358.99C2319.87 2357.06 2317.15 2354.68 2315.11 2351.85C2313.18 2348.9 2312.22 2345.33 2312.22 2341.14C2312.22 2337.06 2313.18 2333.43 2315.11 2330.26C2317.15 2327.09 2319.93 2324.42 2323.44 2322.27C2327.07 2320.12 2331.26 2318.47 2336.02 2317.34C2340.89 2316.21 2346.11 2315.64 2351.66 2315.64C2360.05 2315.64 2367.02 2316.89 2372.57 2319.38C2378.12 2321.76 2382.26 2325.16 2384.98 2329.58C2387.81 2333.89 2389.23 2338.87 2389.23 2344.54H2369.68C2368.77 2340.35 2366.96 2337.34 2364.24 2335.53C2361.52 2333.6 2357.33 2332.64 2351.66 2332.64C2346.11 2332.64 2341.91 2333.49 2339.08 2335.19C2336.25 2336.89 2334.83 2339.21 2334.83 2342.16C2334.83 2344.54 2335.68 2346.41 2337.38 2347.77C2339.19 2349.02 2341.8 2350.04 2345.2 2350.83C2348.71 2351.62 2353.08 2352.47 2358.29 2353.38C2360.76 2353.89 2363.15 2354.43 2365.48 2355C2367.32 2355.46 2369.12 2355.94 2370.87 2356.44C2374.95 2357.57 2378.58 2359.05 2381.75 2360.86C2384.92 2362.56 2387.42 2364.88 2389.23 2367.83C2391.16 2370.66 2392.12 2374.29 2392.12 2378.71C2392.12 2384.15 2390.53 2388.74 2387.36 2392.48C2384.3 2396.22 2379.88 2399.11 2374.1 2401.15C2368.32 2403.08 2361.41 2404.04 2353.36 2404.04C2346.22 2404.04 2340.04 2403.3 2334.83 2401.83C2329.73 2400.24 2325.48 2398.26 2322.08 2395.88C2318.68 2393.39 2316.02 2390.78 2314.09 2388.06C2312.28 2385.23 2311.03 2382.56 2310.35 2380.07C2309.67 2377.58 2309.44 2375.54 2309.67 2373.95ZM2436.43 2292.01H2552.37V2310.88H2505.79V2402H2483.18V2310.88H2436.43V2292.01ZM2559.96 2317.51H2581.72V2294.39H2603.82V2317.51H2625.58V2334.68H2603.82V2402H2581.72V2334.68H2559.96V2317.51ZM2784.5 2353.38V2292.01H2807.11V2355.76C2807.11 2363.01 2806.03 2369.36 2803.88 2374.8C2801.84 2380.24 2798.89 2384.83 2795.04 2388.57C2791.19 2392.31 2786.65 2395.37 2781.44 2397.75C2776.34 2400.02 2770.73 2401.66 2764.61 2402.68C2758.6 2403.7 2752.26 2404.21 2745.57 2404.21C2738.66 2404.21 2732.08 2403.7 2725.85 2402.68C2719.62 2401.66 2713.89 2400.02 2708.68 2397.75C2703.58 2395.37 2699.16 2392.31 2695.42 2388.57C2691.68 2384.83 2688.73 2380.24 2686.58 2374.8C2684.54 2369.36 2683.52 2363.01 2683.52 2355.76V2292.01H2706.13V2353.38C2706.13 2361.99 2707.83 2368.57 2711.23 2373.1C2714.63 2377.52 2719.28 2380.58 2725.17 2382.28C2731.18 2383.87 2737.98 2384.66 2745.57 2384.66C2752.94 2384.66 2759.51 2383.87 2765.29 2382.28C2771.18 2380.58 2775.83 2377.52 2779.23 2373.1C2782.74 2368.57 2784.5 2361.99 2784.5 2353.38ZM2928.13 2402H2906.03V2372.95C2905.92 2373.33 2905.8 2373.72 2905.69 2374.12C2904.78 2377.07 2903.36 2380.24 2901.44 2383.64C2899.62 2387.04 2897.24 2390.33 2894.3 2393.5C2891.35 2396.56 2887.72 2399.11 2883.42 2401.15C2879.11 2403.08 2874.01 2404.04 2868.12 2404.04C2863.47 2404.04 2858.88 2403.47 2854.35 2402.34C2849.93 2401.21 2845.9 2399.34 2842.28 2396.73C2838.65 2394.01 2835.76 2390.38 2833.61 2385.85C2831.45 2381.32 2830.38 2375.59 2830.38 2368.68V2317.51H2852.48V2364.94C2852.48 2370.38 2853.33 2374.69 2855.03 2377.86C2856.84 2380.92 2859.45 2383.07 2862.85 2384.32C2866.25 2385.57 2870.27 2386.19 2874.92 2386.19C2881.04 2386.19 2886.31 2384.89 2890.73 2382.28C2895.15 2379.56 2898.72 2376.27 2901.44 2372.42C2902.49 2370.99 2903.42 2369.58 2904.22 2368.2C2904.92 2366.99 2905.52 2365.81 2906.03 2364.64V2317.51H2928.13V2402ZM112.02 2606L63.3999 2496.01H88.3901L126.122 2585.95L163.7 2496.01H188.35L140.24 2606H112.02ZM267.729 2521.51L240.85 2582.35L214.858 2521.51H190.548L230.328 2606H251.238L291.868 2521.51H267.729ZM385.396 2606L338.986 2496.01H363.976L399.532 2584.21L433.336 2496.01H459.346L493.149 2584.21L528.706 2496.01H553.186L507.286 2606H479.576L446.418 2519.88L413.105 2606H385.396ZM649.294 2521.51L669.836 2581.23L693.664 2521.51H717.975L680.744 2606H660.004L636.486 2547.06L612.234 2606H591.494L555.284 2521.51H579.595L602.514 2581.31L623.965 2521.51H649.294ZM859.668 2496.01H887.208L840.903 2550.03L887.718 2606H858.988L827.882 2565.73L795.918 2606H768.378L815.256 2550.19L770.078 2496.01H797.618L828.314 2534.52L859.668 2496.01ZM1000.3 2521.51L962.364 2562.24L1002.68 2606H975.654L949.596 2576.7L924.824 2606H897.795L937.306 2563.26L897.795 2521.51H924.824L950.055 2548.89L973.444 2521.51H1000.3ZM1169.7 2496.01L1121.42 2571.32V2606H1098.64V2571.32L1050.36 2496.01H1076.54L1110.31 2550.7L1143.52 2496.01H1169.7ZM1175.52 2521.51H1198.98L1226.94 2583.55L1255.25 2521.51H1278.88L1220.4 2640H1197.45L1216.11 2605.22L1175.52 2521.51ZM1333.26 2496.01H1451.41V2514.88L1361.17 2587.13H1451.41V2606H1333.26V2587.13L1423.49 2514.88H1333.26V2496.01ZM1557.2 2538.34L1497.6 2589.34H1558.39V2606H1471.86V2589.34L1531.46 2538.34H1471.86V2521.51H1557.2V2538.34ZM64.25 2744.38V2725.51H110.32V2810H88.2202V2744.38H64.25ZM190.5 2784.33L172.02 2793H225.521V2810H134.91V2793C145.11 2788.35 154.29 2784.39 162.45 2781.1C170.61 2777.81 177.523 2774.87 183.19 2772.26C188.856 2769.54 193.164 2766.82 196.11 2764.1C199.17 2761.27 200.7 2758.15 200.7 2754.75C200.7 2752.03 199.907 2749.71 198.32 2747.78C196.733 2745.74 194.24 2744.15 190.84 2743.02C187.44 2741.89 183.021 2741.32 177.58 2741.32C170.44 2741.32 164.66 2742.74 160.24 2745.57C155.934 2748.29 153.667 2752.03 153.44 2756.79H132.02C131.68 2750.22 133.267 2744.44 136.78 2739.45C140.407 2734.46 145.677 2730.55 152.59 2727.72C159.504 2724.89 167.664 2723.47 177.07 2723.47C183.983 2723.47 190.273 2724.15 195.94 2725.51C201.606 2726.76 206.48 2728.63 210.561 2731.12C214.754 2733.61 217.927 2736.62 220.08 2740.13C222.347 2743.64 223.48 2747.61 223.48 2752.03C223.48 2755.43 222.856 2758.55 221.61 2761.38C220.363 2764.1 218.38 2766.71 215.66 2769.2C213.054 2771.69 209.653 2774.19 205.46 2776.68C201.267 2779.06 196.28 2781.61 190.5 2784.33ZM307.634 2779.57C304.475 2779.05 301.132 2778.65 297.605 2778.35C300.776 2778.12 303.779 2777.79 306.614 2777.36C311.94 2776.57 316.588 2775.26 320.555 2773.45C324.521 2771.52 327.581 2768.97 329.734 2765.8C331.888 2762.51 332.964 2758.38 332.964 2753.39C332.964 2747.38 331.094 2742.11 327.354 2737.58C323.614 2733.05 318.23 2729.53 311.204 2727.04C304.178 2724.55 295.791 2723.3 286.044 2723.3C279.584 2723.3 273.464 2724.09 267.685 2725.68C262.018 2727.27 256.975 2729.59 252.555 2732.65C248.248 2735.6 244.904 2739.17 242.524 2743.36C240.258 2747.55 239.294 2752.31 239.634 2757.64H261.055C261.281 2752.99 263.491 2749.25 267.685 2746.42C271.991 2743.59 278.111 2742.17 286.044 2742.17C294.431 2742.17 300.494 2743.53 304.234 2746.25C307.975 2748.86 309.844 2752.48 309.844 2757.13C309.844 2760.42 308.881 2763.08 306.954 2765.12C305.141 2767.05 302.194 2768.46 298.114 2769.37C294.147 2770.16 288.935 2770.56 282.475 2770.56H268.024V2787.56H282.475C291.768 2787.56 298.964 2788.69 304.064 2790.96C309.164 2793.11 311.714 2796.85 311.714 2802.18C311.714 2807.73 309.504 2811.93 305.084 2814.76C300.664 2817.59 294.317 2819.01 286.044 2819.01C280.718 2819.01 276.071 2818.33 272.104 2816.97C268.251 2815.61 265.248 2813.68 263.094 2811.19C261.055 2808.81 259.978 2805.98 259.864 2802.69H238.444C238.104 2809.6 239.861 2815.67 243.714 2820.88C247.567 2826.21 253.121 2830.34 260.374 2833.29C267.741 2836.35 276.298 2837.88 286.044 2837.88C296.018 2837.88 304.688 2836.46 312.055 2833.63C319.421 2830.91 325.088 2827.11 329.055 2822.24C333.134 2817.37 335.174 2811.76 335.174 2805.41C335.174 2799.97 334.041 2795.49 331.774 2791.98C329.508 2788.47 326.334 2785.75 322.254 2783.82C318.174 2781.78 313.301 2780.36 307.634 2779.57ZM435.75 2724.83V2794.87H455.301V2811.87H435.75V2834.65H413.65V2811.87H349.221V2794.87L413.65 2724.83H435.75ZM413.65 2752.51V2794.87H375.939L413.65 2752.51ZM530.77 2765.97C536.323 2765.97 541.479 2766.71 546.24 2768.18C551.113 2769.65 555.363 2771.86 558.99 2774.81C562.616 2777.64 565.45 2781.27 567.49 2785.69C569.53 2790.11 570.55 2795.21 570.55 2800.99C570.55 2808.81 568.566 2815.44 564.6 2820.88C560.633 2826.32 555.08 2830.46 547.939 2833.29C540.8 2836.24 532.413 2837.71 522.78 2837.71C515.979 2837.71 509.576 2836.92 503.57 2835.33C497.563 2833.74 492.236 2831.48 487.59 2828.53C482.943 2825.58 479.203 2821.96 476.37 2817.65C473.649 2813.46 472.177 2808.64 471.95 2803.2H493.03C493.483 2806.71 495.07 2809.66 497.79 2812.04C500.51 2814.53 503.967 2816.4 508.16 2817.65C512.467 2818.9 517.057 2819.52 521.93 2819.52C525.33 2819.52 528.56 2819.12 531.62 2818.33C534.793 2817.65 537.627 2816.57 540.12 2815.1C542.727 2813.63 544.767 2811.7 546.24 2809.32C547.713 2806.94 548.45 2804.11 548.45 2800.82C548.45 2797.53 547.713 2794.7 546.24 2792.32C544.88 2789.94 542.953 2787.96 540.46 2786.37C538.08 2784.78 535.303 2783.65 532.13 2782.97C529.07 2782.18 525.84 2781.78 522.439 2781.78C518.927 2781.78 515.356 2782.12 511.729 2782.8C508.104 2783.37 504.76 2784.44 501.7 2786.03C498.64 2787.62 496.203 2789.77 494.39 2792.49L475.18 2788.92L480.28 2725H558.99V2743.87H500.85L497.961 2778.83C499.314 2777.08 500.957 2775.52 502.89 2774.13C506.517 2771.52 510.767 2769.54 515.64 2768.18C520.514 2766.71 525.557 2765.97 530.77 2765.97ZM645.106 2737.58C654.061 2737.58 661.88 2739.11 668.566 2742.17C675.254 2745.23 680.41 2749.59 684.037 2755.26C687.776 2760.81 689.59 2767.33 689.477 2774.81C689.363 2782.29 687.267 2788.86 683.187 2794.53C679.106 2800.08 673.271 2804.45 665.677 2807.62C658.083 2810.68 648.96 2812.21 638.307 2812.21C627.087 2812.21 617.283 2810.79 608.896 2807.96C600.623 2805.13 594.22 2800.99 589.687 2795.55C585.153 2790 582.943 2783.37 583.057 2775.66C583.057 2772.94 583.453 2769.99 584.247 2766.82C585.153 2763.53 586.74 2760.02 589.007 2756.28C589.347 2755.6 590.311 2754.13 591.896 2751.86C593.597 2749.48 595.58 2746.59 597.847 2743.19C600.227 2739.79 602.776 2736.16 605.497 2732.31C608.217 2728.46 610.88 2724.6 613.486 2720.75C616.207 2716.9 618.644 2713.44 620.797 2710.38C623.063 2707.21 624.82 2704.71 626.066 2702.9L628.106 2700.01H655.986L618.257 2746.58C621.825 2743.86 625.562 2741.76 629.467 2740.3C634.113 2738.49 639.327 2737.58 645.106 2737.58ZM637.117 2794.19C645.844 2794.19 652.927 2792.49 658.367 2789.09C663.92 2785.69 666.754 2780.82 666.867 2774.47C666.98 2768.12 664.316 2763.25 658.877 2759.85C653.55 2756.34 646.523 2754.58 637.797 2754.58C628.05 2754.58 620.287 2756.51 614.507 2760.36C608.727 2764.21 605.78 2768.97 605.667 2774.64C605.554 2780.99 608.443 2785.86 614.337 2789.26C620.344 2792.55 627.937 2794.19 637.117 2794.19ZM701.284 2744.38V2725.51H798.354V2744.38L745.313 2835.5H718.624L774.602 2744.38H701.284ZM836.362 2751.01C837.775 2751.35 839.253 2751.66 840.795 2751.93C838.833 2752.3 836.959 2752.73 835.172 2753.22C827.692 2755.15 821.969 2758.32 818.002 2762.74C814.035 2767.05 812.052 2772.71 812.052 2779.74C812.052 2785.75 813.865 2791.24 817.492 2796.23C821.232 2801.1 826.785 2805.01 834.152 2807.96C841.632 2810.79 850.982 2812.21 862.202 2812.21C873.535 2812.21 882.886 2810.79 890.252 2807.96C897.732 2805.01 903.285 2801.1 906.912 2796.23C910.652 2791.24 912.522 2785.75 912.522 2779.74C912.522 2772.71 910.539 2767.05 906.572 2762.74C902.605 2758.32 896.882 2755.15 889.402 2753.22C887.592 2752.73 885.688 2752.29 883.692 2751.92C884.965 2751.69 886.194 2751.44 887.379 2751.17C887.602 2751.12 887.822 2751.06 888.042 2751.01C895.068 2749.2 900.339 2746.42 903.853 2742.68C907.479 2738.83 909.292 2733.84 909.292 2727.72C909.292 2721.94 907.535 2716.84 904.022 2712.42C900.622 2707.89 895.466 2704.32 888.552 2701.71C881.639 2699.1 872.855 2697.8 862.202 2697.8C851.662 2697.8 842.936 2699.1 836.022 2701.71C829.108 2704.32 823.896 2707.89 820.382 2712.42C816.982 2716.84 815.282 2721.94 815.282 2727.72C815.282 2733.84 817.039 2738.83 820.552 2742.68C824.179 2746.42 829.449 2749.2 836.362 2751.01ZM862.202 2745.57C867.869 2745.57 872.516 2744.95 876.143 2743.7C879.769 2742.34 882.432 2740.53 884.132 2738.26C885.945 2735.99 886.853 2733.44 886.853 2730.61C886.853 2727.66 885.945 2725.11 884.132 2722.96C882.432 2720.81 879.769 2719.16 876.143 2718.03C872.516 2716.78 867.869 2716.16 862.202 2716.16C856.648 2716.16 852.115 2716.78 848.603 2718.03C845.089 2719.16 842.482 2720.81 840.782 2722.96C839.082 2725.11 838.232 2727.66 838.232 2730.61C838.232 2733.44 839.082 2735.99 840.782 2738.26C842.482 2740.53 845.089 2742.34 848.603 2743.7C852.115 2744.95 856.648 2745.57 862.202 2745.57ZM862.202 2793.51C868.662 2793.51 873.932 2792.83 878.012 2791.47C882.092 2790.11 885.096 2788.24 887.022 2785.86C889.062 2783.37 890.082 2780.59 890.082 2777.53C890.082 2774.24 889.062 2771.35 887.022 2768.86C885.096 2766.37 882.092 2764.44 878.012 2763.08C873.932 2761.72 868.662 2761.04 862.202 2761.04C855.855 2761.04 850.643 2761.72 846.562 2763.08C842.596 2764.44 839.648 2766.37 837.722 2768.86C835.909 2771.35 835.002 2774.24 835.002 2777.53C835.002 2780.59 835.909 2783.37 837.722 2785.86C839.648 2788.24 842.596 2790.11 846.562 2791.47C850.643 2792.83 855.855 2793.51 862.202 2793.51ZM970.289 2797.42C961.562 2797.42 953.799 2795.89 946.999 2792.83C940.312 2789.66 935.099 2785.29 931.359 2779.74C927.619 2774.19 925.749 2767.67 925.749 2760.19C925.862 2752.48 928.016 2745.85 932.209 2740.3C936.402 2734.75 942.466 2730.5 950.398 2727.55C958.332 2724.49 967.909 2722.96 979.129 2722.96C990.462 2722.96 1000.15 2724.38 1008.2 2727.21C1016.36 2730.04 1022.59 2734.18 1026.9 2739.62C1031.32 2744.95 1033.47 2751.52 1033.36 2759.34C1033.36 2762.29 1032.85 2765.4 1031.83 2768.69C1030.81 2771.98 1029.05 2775.55 1026.56 2779.4C1026.22 2779.97 1025.26 2781.44 1023.67 2783.82C1022.2 2786.09 1020.27 2788.92 1017.89 2792.32C1015.62 2795.72 1013.13 2799.4 1010.41 2803.37C1007.8 2807.22 1005.2 2811.02 1002.59 2814.76C999.982 2818.61 997.603 2822.07 995.449 2825.13C993.296 2828.3 991.539 2830.8 990.179 2832.61L988.309 2835.5H960.259L998.621 2787.8C994.747 2790.81 990.573 2793.17 986.099 2794.87C981.339 2796.57 976.069 2797.42 970.289 2797.42ZM979.129 2740.81C969.836 2740.81 962.412 2742.45 956.859 2745.74C951.419 2749.03 948.643 2753.96 948.529 2760.53C948.416 2766.88 951.022 2771.81 956.349 2775.32C961.789 2778.72 969.155 2780.42 978.449 2780.42C988.195 2780.42 995.959 2778.55 1001.74 2774.81C1007.63 2771.07 1010.64 2766.25 1010.75 2760.36C1010.86 2756.05 1009.56 2752.48 1006.84 2749.65C1004.12 2746.7 1000.38 2744.49 995.619 2743.02C990.859 2741.55 985.362 2740.81 979.129 2740.81ZM1101.06 2812.04C1090.41 2812.04 1081 2810.34 1072.84 2806.94C1064.8 2803.54 1058.51 2798.61 1053.97 2792.15C1049.44 2785.58 1047.17 2777.53 1047.17 2768.01C1047.17 2758.49 1049.44 2750.44 1053.97 2743.87C1058.51 2737.18 1064.8 2732.14 1072.84 2728.74C1081 2725.34 1090.41 2723.64 1101.06 2723.64C1111.72 2723.64 1121.01 2725.34 1128.94 2728.74C1136.99 2732.14 1143.28 2737.18 1147.81 2743.87C1152.35 2750.44 1154.61 2758.49 1154.61 2768.01C1154.61 2777.53 1152.35 2785.58 1147.81 2792.15C1143.28 2798.61 1136.99 2803.54 1128.94 2806.94C1121.01 2810.34 1111.72 2812.04 1101.06 2812.04ZM1101.06 2795.04C1106.84 2795.04 1112.06 2794.02 1116.7 2791.98C1121.46 2789.83 1125.2 2786.77 1127.92 2782.8C1130.76 2778.72 1132.17 2773.79 1132.17 2768.01C1132.17 2762.23 1130.76 2757.3 1127.92 2753.22C1125.2 2749.03 1121.52 2745.85 1116.87 2743.7C1112.23 2741.55 1106.96 2740.47 1101.06 2740.47C1095.28 2740.47 1090.01 2741.55 1085.25 2743.7C1080.49 2745.85 1076.7 2748.97 1073.86 2753.05C1071.03 2757.13 1069.61 2762.12 1069.61 2768.01C1069.61 2773.79 1070.97 2778.72 1073.69 2782.8C1076.53 2786.77 1080.32 2789.83 1085.08 2791.98C1089.84 2794.02 1095.17 2795.04 1101.06 2795.04ZM2061.86 2964.67C2061.55 2991.11 2059.68 3017.23 2056.32 3042.95C2010.25 3396.23 1683.96 3675.47 1274.17 3713.39C1241.22 3716.44 1207.74 3717.93 1173.82 3717.78C1207.74 3718.05 1241.2 3719.97 1274.1 3723.43C1683.39 3766.56 2006.1 4049.92 2047.68 4403.77C2050.71 4429.53 2052.24 4455.66 2052.21 4482.1H2052.22H2052.23C2052.54 4455.66 2054.41 4429.55 2057.76 4403.83C2103.83 4050.54 2430.12 3771.31 2839.91 3733.38C2870.79 3730.52 2902.14 3729.04 2933.88 3728.99V3728.96V3728.93C2902.14 3728.48 2870.81 3726.59 2839.98 3723.34C2430.7 3680.21 2107.99 3396.85 2066.41 3043.01C2063.38 3017.25 2061.85 2991.12 2061.87 2964.67H2061.86H2061.86ZM1163.82 3717.74C1166.55 3717.74 1169.28 3717.75 1172.01 3717.76C1170.31 3717.75 1168.6 3717.74 1166.89 3717.72C1165.87 3717.71 1164.84 3717.7 1163.82 3717.68V3717.71V3717.74ZM2061.15 3077.06C2001.28 3408.28 1697.9 3667.73 1316.33 3718.68C1697.22 3774.48 1997.28 4037.76 2052.94 4369.71C2112.81 4038.5 2416.19 3779.05 2797.75 3728.09C2416.86 3672.29 2116.81 3409.01 2061.15 3077.06Z" fill="#D9D9D9"/>
</g>
<defs>
<clipPath id="clip0_273_17">
<rect width="3038" height="4586" fill="white"/>
</clipPath>
</defs>
</svg>
