<svg width="2312" height="1789" viewBox="0 0 2312 1789" fill="none" xmlns="http://www.w3.org/2000/svg">
<rect x="369.75" y="1559.75" width="356.5" height="177.5" rx="1.25" fill="white" stroke="#292C33" stroke-width="1.5"/>
<path d="M450.455 1626.91C450.455 1629.67 449.956 1632.06 448.959 1634.07C447.962 1636.08 446.594 1637.63 444.855 1638.72C443.117 1639.81 441.131 1640.36 438.898 1640.36C436.665 1640.36 434.679 1639.81 432.941 1638.72C431.202 1637.63 429.834 1636.08 428.837 1634.07C427.84 1632.06 427.341 1629.67 427.341 1626.91C427.341 1624.15 427.84 1621.76 428.837 1619.75C429.834 1617.74 431.202 1616.19 432.941 1615.1C434.679 1614.01 436.665 1613.46 438.898 1613.46C441.131 1613.46 443.117 1614.01 444.855 1615.1C446.594 1616.19 447.962 1617.74 448.959 1619.75C449.956 1621.76 450.455 1624.15 450.455 1626.91ZM447.387 1626.91C447.387 1624.64 447.007 1622.73 446.249 1621.17C445.499 1619.61 444.48 1618.43 443.193 1617.63C441.915 1616.83 440.483 1616.43 438.898 1616.43C437.313 1616.43 435.877 1616.83 434.59 1617.63C433.311 1618.43 432.293 1619.61 431.534 1621.17C430.784 1622.73 430.409 1624.64 430.409 1626.91C430.409 1629.18 430.784 1631.09 431.534 1632.65C432.293 1634.21 433.311 1635.39 434.59 1636.19C435.877 1636.99 437.313 1637.39 438.898 1637.39C440.483 1637.39 441.915 1636.99 443.193 1636.19C444.48 1635.39 445.499 1634.21 446.249 1632.65C447.007 1631.09 447.387 1629.18 447.387 1626.91ZM458.394 1613.82V1640H455.377V1613.82H458.394ZM466.937 1613.82V1640H463.92V1613.82H466.937ZM472.463 1640V1620.36H475.377V1623.43H475.633C476.042 1622.38 476.703 1621.57 477.615 1620.99C478.526 1620.4 479.622 1620.11 480.9 1620.11C482.195 1620.11 483.274 1620.4 484.134 1620.99C485.004 1621.57 485.681 1622.38 486.167 1623.43H486.372C486.874 1622.42 487.629 1621.61 488.634 1621.02C489.64 1620.41 490.846 1620.11 492.252 1620.11C494.008 1620.11 495.444 1620.66 496.561 1621.76C497.677 1622.85 498.235 1624.55 498.235 1626.86V1640H495.218V1626.86C495.218 1625.41 494.822 1624.37 494.029 1623.75C493.237 1623.13 492.303 1622.82 491.23 1622.82C489.849 1622.82 488.779 1623.24 488.021 1624.07C487.262 1624.9 486.883 1625.95 486.883 1627.22V1640H483.815V1626.55C483.815 1625.43 483.453 1624.54 482.728 1623.85C482.004 1623.16 481.07 1622.82 479.928 1622.82C479.144 1622.82 478.411 1623.03 477.73 1623.44C477.056 1623.86 476.511 1624.44 476.093 1625.18C475.684 1625.92 475.48 1626.76 475.48 1627.73V1640H472.463ZM509.53 1640.46C508.286 1640.46 507.156 1640.23 506.142 1639.76C505.128 1639.28 504.323 1638.59 503.726 1637.7C503.129 1636.8 502.831 1635.7 502.831 1634.43C502.831 1633.3 503.053 1632.39 503.496 1631.69C503.939 1630.98 504.531 1630.43 505.273 1630.03C506.014 1629.63 506.833 1629.33 507.727 1629.13C508.631 1628.93 509.539 1628.77 510.45 1628.65C511.644 1628.49 512.611 1628.38 513.352 1628.3C514.102 1628.22 514.648 1628.08 514.989 1627.88C515.338 1627.68 515.513 1627.34 515.513 1626.86V1626.76C515.513 1625.49 515.168 1624.51 514.477 1623.82C513.796 1623.12 512.76 1622.77 511.371 1622.77C509.931 1622.77 508.801 1623.08 507.983 1623.71C507.165 1624.34 506.59 1625.02 506.257 1625.73L503.394 1624.71C503.905 1623.52 504.587 1622.59 505.439 1621.92C506.3 1621.25 507.237 1620.78 508.252 1620.52C509.274 1620.24 510.28 1620.11 511.269 1620.11C511.899 1620.11 512.624 1620.18 513.442 1620.34C514.269 1620.48 515.066 1620.79 515.833 1621.25C516.608 1621.71 517.252 1622.4 517.763 1623.33C518.274 1624.26 518.53 1625.5 518.53 1627.06V1640H515.513V1637.34H515.36C515.155 1637.77 514.814 1638.22 514.337 1638.71C513.86 1639.19 513.225 1639.61 512.432 1639.95C511.639 1640.29 510.672 1640.46 509.53 1640.46ZM509.99 1637.75C511.183 1637.75 512.189 1637.52 513.007 1637.05C513.834 1636.58 514.456 1635.97 514.874 1635.23C515.3 1634.49 515.513 1633.71 515.513 1632.89V1630.13C515.385 1630.28 515.104 1630.42 514.669 1630.55C514.243 1630.67 513.749 1630.78 513.186 1630.87C512.632 1630.96 512.091 1631.03 511.563 1631.1C511.043 1631.16 510.621 1631.21 510.297 1631.26C509.513 1631.36 508.78 1631.52 508.098 1631.75C507.425 1631.98 506.879 1632.31 506.462 1632.76C506.053 1633.21 505.848 1633.81 505.848 1634.58C505.848 1635.63 506.236 1636.42 507.012 1636.96C507.796 1637.49 508.789 1637.75 509.99 1637.75ZM533.292 1612.59L524.855 1643.94H522.094L530.531 1612.59H533.292ZM537.278 1640V1613.82H540.448V1637.19H552.619V1640H537.278ZM557.528 1640V1613.82H560.698V1637.19H572.869V1640H557.528ZM583.147 1640.46C581.903 1640.46 580.774 1640.23 579.759 1639.76C578.745 1639.28 577.94 1638.59 577.343 1637.7C576.747 1636.8 576.448 1635.7 576.448 1634.43C576.448 1633.3 576.67 1632.39 577.113 1631.69C577.556 1630.98 578.149 1630.43 578.89 1630.03C579.632 1629.63 580.45 1629.33 581.345 1629.13C582.248 1628.93 583.156 1628.77 584.068 1628.65C585.261 1628.49 586.228 1628.38 586.97 1628.3C587.72 1628.22 588.265 1628.08 588.606 1627.88C588.955 1627.68 589.13 1627.34 589.13 1626.86V1626.76C589.13 1625.49 588.785 1624.51 588.095 1623.82C587.413 1623.12 586.377 1622.77 584.988 1622.77C583.548 1622.77 582.419 1623.08 581.6 1623.71C580.782 1624.34 580.207 1625.02 579.874 1625.73L577.011 1624.71C577.522 1623.52 578.204 1622.59 579.056 1621.92C579.917 1621.25 580.855 1620.78 581.869 1620.52C582.892 1620.24 583.897 1620.11 584.886 1620.11C585.517 1620.11 586.241 1620.18 587.059 1620.34C587.886 1620.48 588.683 1620.79 589.45 1621.25C590.225 1621.71 590.869 1622.4 591.38 1623.33C591.892 1624.26 592.147 1625.5 592.147 1627.06V1640H589.13V1637.34H588.977C588.772 1637.77 588.431 1638.22 587.954 1638.71C587.477 1639.19 586.842 1639.61 586.049 1639.95C585.257 1640.29 584.289 1640.46 583.147 1640.46ZM583.607 1637.75C584.801 1637.75 585.806 1637.52 586.624 1637.05C587.451 1636.58 588.073 1635.97 588.491 1635.23C588.917 1634.49 589.13 1633.71 589.13 1632.89V1630.13C589.002 1630.28 588.721 1630.42 588.286 1630.55C587.86 1630.67 587.366 1630.78 586.803 1630.87C586.249 1630.96 585.708 1631.03 585.18 1631.1C584.66 1631.16 584.238 1631.21 583.914 1631.26C583.13 1631.36 582.397 1631.52 581.715 1631.75C581.042 1631.98 580.497 1632.31 580.079 1632.76C579.67 1633.21 579.465 1633.81 579.465 1634.58C579.465 1635.63 579.853 1636.42 580.629 1636.96C581.413 1637.49 582.406 1637.75 583.607 1637.75ZM598.063 1613.82H601.847L610.745 1635.55H611.052L619.949 1613.82H623.733V1640H620.768V1620.11H620.512L612.33 1640H609.466L601.285 1620.11H601.029V1640H598.063V1613.82ZM631.164 1640H627.84L637.454 1613.82H640.727L650.34 1640H647.017L639.193 1617.96H638.988L631.164 1640ZM632.392 1629.77H645.789V1632.59H632.392V1629.77ZM665.259 1625.5V1628.32H653.805V1625.5H665.259ZM484.719 1684V1657.82H500.418V1660.63H487.89V1669.48H499.242V1672.29H487.89V1684H484.719ZM511.218 1684.46C509.973 1684.46 508.844 1684.23 507.83 1683.76C506.816 1683.28 506.01 1682.59 505.414 1681.7C504.817 1680.8 504.519 1679.7 504.519 1678.43C504.519 1677.3 504.74 1676.39 505.183 1675.69C505.627 1674.98 506.219 1674.43 506.96 1674.03C507.702 1673.63 508.52 1673.33 509.415 1673.13C510.318 1672.93 511.226 1672.77 512.138 1672.65C513.331 1672.49 514.298 1672.38 515.04 1672.3C515.79 1672.22 516.335 1672.08 516.676 1671.88C517.026 1671.68 517.2 1671.34 517.2 1670.86V1670.76C517.2 1669.49 516.855 1668.51 516.165 1667.82C515.483 1667.12 514.448 1666.77 513.058 1666.77C511.618 1666.77 510.489 1667.08 509.671 1667.71C508.852 1668.34 508.277 1669.02 507.945 1669.73L505.081 1668.71C505.593 1667.52 506.274 1666.59 507.127 1665.92C507.987 1665.25 508.925 1664.78 509.939 1664.52C510.962 1664.24 511.968 1664.11 512.956 1664.11C513.587 1664.11 514.311 1664.18 515.129 1664.34C515.956 1664.48 516.753 1664.79 517.52 1665.25C518.296 1665.71 518.939 1666.4 519.45 1667.33C519.962 1668.26 520.218 1669.5 520.218 1671.06V1684H517.2V1681.34H517.047C516.843 1681.77 516.502 1682.22 516.024 1682.71C515.547 1683.19 514.912 1683.61 514.119 1683.95C513.327 1684.29 512.36 1684.46 511.218 1684.46ZM511.678 1681.75C512.871 1681.75 513.877 1681.52 514.695 1681.05C515.521 1680.58 516.144 1679.97 516.561 1679.23C516.987 1678.49 517.2 1677.71 517.2 1676.89V1674.13C517.073 1674.28 516.791 1674.42 516.357 1674.55C515.931 1674.67 515.436 1674.78 514.874 1674.87C514.32 1674.96 513.779 1675.03 513.25 1675.1C512.73 1675.16 512.308 1675.21 511.985 1675.26C511.2 1675.36 510.468 1675.52 509.786 1675.75C509.112 1675.98 508.567 1676.31 508.149 1676.76C507.74 1677.21 507.536 1677.81 507.536 1678.58C507.536 1679.63 507.923 1680.42 508.699 1680.96C509.483 1681.49 510.476 1681.75 511.678 1681.75ZM533.702 1684.41C531.861 1684.41 530.275 1683.97 528.946 1683.11C527.616 1682.24 526.594 1681.04 525.878 1679.51C525.162 1677.99 524.804 1676.24 524.804 1674.28C524.804 1672.29 525.17 1670.53 525.903 1669C526.645 1667.47 527.676 1666.27 528.997 1665.41C530.327 1664.54 531.878 1664.11 533.65 1664.11C535.031 1664.11 536.275 1664.36 537.383 1664.88C538.491 1665.39 539.399 1666.1 540.106 1667.02C540.814 1667.94 541.253 1669.02 541.423 1670.24H538.406C538.176 1669.35 537.665 1668.56 536.872 1667.87C536.088 1667.17 535.031 1666.82 533.702 1666.82C532.525 1666.82 531.494 1667.12 530.608 1667.74C529.73 1668.34 529.044 1669.2 528.55 1670.31C528.064 1671.41 527.821 1672.7 527.821 1674.18C527.821 1675.7 528.059 1677.02 528.537 1678.14C529.023 1679.27 529.704 1680.14 530.582 1680.77C531.469 1681.39 532.508 1681.7 533.702 1681.7C534.486 1681.7 535.197 1681.56 535.836 1681.29C536.476 1681.02 537.017 1680.62 537.46 1680.11C537.903 1679.6 538.219 1678.99 538.406 1678.27H541.423C541.253 1679.43 540.831 1680.48 540.157 1681.4C539.493 1682.33 538.611 1683.06 537.511 1683.6C536.42 1684.14 535.15 1684.41 533.702 1684.41ZM554.373 1664.36V1666.92H544.197V1664.36H554.373ZM547.163 1659.66H550.18V1678.38C550.18 1679.23 550.304 1679.87 550.551 1680.29C550.807 1680.71 551.131 1680.99 551.523 1681.14C551.923 1681.27 552.345 1681.34 552.788 1681.34C553.121 1681.34 553.393 1681.32 553.606 1681.29C553.819 1681.25 553.99 1681.21 554.118 1681.19L554.731 1683.9C554.527 1683.97 554.241 1684.05 553.875 1684.13C553.508 1684.21 553.044 1684.26 552.481 1684.26C551.629 1684.26 550.794 1684.07 549.976 1683.71C549.166 1683.34 548.493 1682.78 547.956 1682.03C547.427 1681.28 547.163 1680.34 547.163 1679.19V1659.66ZM566.678 1684.41C564.905 1684.41 563.35 1683.99 562.012 1683.14C560.682 1682.3 559.643 1681.12 558.893 1679.6C558.151 1678.09 557.78 1676.31 557.78 1674.28C557.78 1672.24 558.151 1670.45 558.893 1668.93C559.643 1667.4 560.682 1666.22 562.012 1665.37C563.35 1664.53 564.905 1664.11 566.678 1664.11C568.451 1664.11 570.002 1664.53 571.331 1665.37C572.67 1666.22 573.709 1667.4 574.451 1668.93C575.201 1670.45 575.576 1672.24 575.576 1674.28C575.576 1676.31 575.201 1678.09 574.451 1679.6C573.709 1681.12 572.67 1682.3 571.331 1683.14C570.002 1683.99 568.451 1684.41 566.678 1684.41ZM566.678 1681.7C568.025 1681.7 569.133 1681.35 570.002 1680.66C570.871 1679.97 571.515 1679.07 571.932 1677.94C572.35 1676.82 572.559 1675.6 572.559 1674.28C572.559 1672.97 572.35 1671.75 571.932 1670.62C571.515 1669.48 570.871 1668.57 570.002 1667.87C569.133 1667.17 568.025 1666.82 566.678 1666.82C565.331 1666.82 564.224 1667.17 563.354 1667.87C562.485 1668.57 561.841 1669.48 561.424 1670.62C561.006 1671.75 560.797 1672.97 560.797 1674.28C560.797 1675.6 561.006 1676.82 561.424 1677.94C561.841 1679.07 562.485 1679.97 563.354 1680.66C564.224 1681.35 565.331 1681.7 566.678 1681.7ZM580.181 1684V1664.36H583.096V1667.33H583.301C583.659 1666.36 584.306 1665.57 585.244 1664.96C586.181 1664.36 587.238 1664.06 588.414 1664.06C588.636 1664.06 588.913 1664.06 589.245 1664.07C589.578 1664.08 589.829 1664.09 589.999 1664.11V1667.18C589.897 1667.15 589.663 1667.11 589.296 1667.06C588.938 1667 588.559 1666.97 588.159 1666.97C587.204 1666.97 586.352 1667.17 585.602 1667.57C584.86 1667.96 584.272 1668.51 583.838 1669.21C583.411 1669.9 583.198 1670.69 583.198 1671.57V1684H580.181ZM596.117 1691.36C595.605 1691.36 595.149 1691.32 594.749 1691.24C594.348 1691.16 594.071 1691.08 593.918 1691.01L594.685 1688.35C595.418 1688.53 596.066 1688.6 596.628 1688.55C597.191 1688.5 597.689 1688.25 598.124 1687.8C598.567 1687.35 598.972 1686.63 599.338 1685.64L599.901 1684.1L592.639 1664.36H595.912L601.333 1680.01H601.537L606.958 1664.36H610.23L601.895 1686.86C601.52 1687.88 601.056 1688.72 600.502 1689.38C599.948 1690.06 599.304 1690.55 598.571 1690.88C597.847 1691.2 597.029 1691.36 596.117 1691.36Z" fill="#292C33"/>
<path d="M325.408 49.448H357.592V51.968H325.408V49.448ZM329.116 61.04H339.196V63.164H329.116V61.04ZM329.116 66.8H339.196V68.924H329.116V66.8ZM345.208 55.496H347.764V70.292H345.208V55.496ZM338.224 55.172H340.852V73.784C340.852 75.152 340.528 75.872 339.52 76.304C338.548 76.736 336.964 76.736 334.516 76.736C334.372 76.052 333.976 75.044 333.616 74.36C335.416 74.432 337.072 74.432 337.576 74.396C338.08 74.36 338.224 74.216 338.224 73.748V55.172ZM352.516 54.416H355.18V73.532C355.18 75.116 354.82 75.872 353.704 76.304C352.588 76.7 350.788 76.772 347.98 76.772C347.836 76.052 347.404 74.9 347.008 74.18C349.204 74.252 351.148 74.252 351.76 74.216C352.336 74.18 352.516 74.036 352.516 73.532V54.416ZM330.988 44.66L333.472 43.724C334.876 45.272 336.388 47.396 337.072 48.8L334.408 49.772C333.832 48.404 332.356 46.208 330.988 44.66ZM349.492 43.616L352.372 44.552C351.004 46.784 349.384 49.268 348.052 50.96L345.676 50.06C346.972 48.332 348.592 45.56 349.492 43.616ZM327.676 55.172H339.088V57.512H330.232V76.7H327.676V55.172ZM373.072 56.828H393.988V59.276H373.072V56.828ZM379.804 63.56H381.964V76.484H379.804V63.56ZM385.276 63.56H387.472V76.412H385.276V63.56ZM382.108 43.832H384.7V53.12H382.108V43.832ZM374.188 62.624H392.116V64.964H376.636V76.844H374.188V62.624ZM390.784 62.624H393.232V74.36C393.232 75.512 393.052 76.16 392.332 76.484C391.54 76.916 390.532 76.916 388.912 76.916C388.804 76.268 388.48 75.368 388.156 74.756C389.2 74.792 390.1 74.792 390.388 74.756C390.676 74.756 390.784 74.648 390.784 74.324V62.624ZM382.108 57.62L385.204 58.268C384.52 60.32 383.872 62.624 383.296 64.1L380.992 63.488C381.424 61.832 381.892 59.312 382.108 57.62ZM374.62 45.596H377.14V51.752H390.172V45.596H392.764V54.128H374.62V45.596ZM361.336 50.996H372.712V53.48H361.336V50.996ZM365.872 44.228H368.32V52.22H365.872V44.228ZM360.652 69.536C363.928 68.924 368.716 67.844 373.36 66.836L373.612 69.176C369.292 70.292 364.756 71.372 361.3 72.2L360.652 69.536ZM362.128 55.244L364.216 54.884C365.044 58.592 365.656 63.344 365.692 66.512L363.46 66.872C363.46 63.704 362.884 58.916 362.128 55.244ZM369.328 54.56L371.884 55.1C371.2 59.312 370.228 64.892 369.364 68.24L367.348 67.7C368.14 64.316 369.004 58.556 369.328 54.56ZM397.156 48.08H408.676V50.564H397.156V48.08ZM403.384 53.696H405.724V76.844H403.384V53.696ZM396.976 68.024C399.928 67.412 404.248 66.404 408.532 65.396L408.712 67.7C404.824 68.744 400.756 69.788 397.588 70.544L396.976 68.024ZM398.02 62.156C397.912 61.652 397.516 60.464 397.228 59.888C397.804 59.708 398.236 58.52 398.776 56.9C399.316 55.352 400.972 49.268 401.476 43.832L403.996 44.228C403.132 50.024 401.404 56.324 399.604 60.68V60.716C399.604 60.716 398.02 61.616 398.02 62.156ZM398.02 62.156V59.852L399.46 59.168H408.604V61.616H400.504C399.388 61.616 398.308 61.832 398.02 62.156ZM412.636 52.652H425.992V54.884H412.636V52.652ZM410.44 57.224H418.324V59.42H412.672V76.772H410.44V57.224ZM417.604 57.224H419.872V74.036C419.872 75.188 419.656 75.872 418.9 76.268C418.18 76.664 417.064 76.7 415.48 76.7C415.408 76.052 415.12 75.08 414.796 74.432C415.912 74.468 416.884 74.468 417.208 74.468C417.532 74.432 417.604 74.36 417.604 74.036V57.224ZM412.024 62.264H419.188V64.316H412.024V62.264ZM411.988 67.304H419.152V69.356H411.988V67.304ZM421.924 57.908H424.012V70.94H421.924V57.908ZM426.46 56.576H428.656V73.82C428.656 75.116 428.404 75.8 427.504 76.16C426.64 76.556 425.236 76.592 423.112 76.592C423.004 75.98 422.716 75.008 422.392 74.36C424.048 74.396 425.452 74.396 425.92 74.36C426.352 74.36 426.46 74.252 426.46 73.82V56.576ZM419.188 43.652L421.42 44.66C418.756 48.836 414.256 52.724 409.756 55.028C409.36 54.416 408.64 53.588 407.992 53.012C412.348 50.996 416.812 47.468 419.188 43.652ZM420.088 45.2C422.932 48.656 426.532 50.816 430.528 52.544C429.916 53.084 429.16 53.948 428.8 54.668C424.624 52.544 421.06 49.988 417.964 46.064L420.088 45.2ZM436.864 71.984H462.28V74.648H436.864V71.984ZM447.916 43.976H450.688V73.496H447.916V43.976ZM435.532 61.94H438.268V76.916H435.532V61.94ZM460.84 61.94H463.612V76.808H460.84V61.94ZM436.936 47.216H439.6V57.008H459.364V47.216H462.172V59.636H436.936V47.216Z" fill="black"/>
<path d="M244 1295H243.25C243.25 1295.41 243.586 1295.75 244 1295.75V1295ZM244 87V86.25C243.586 86.25 243.25 86.5858 243.25 87H244ZM549 219L553.33 211.5H544.67L549 219ZM549 87H549.75V86.25H549V87ZM367.183 1294.25H244V1295.75H367.183V1294.25ZM244.75 1295V87H243.25V1295H244.75ZM244 87.75H549V86.25H244V87.75ZM548.25 87V212.25H549.75V87H548.25Z" fill="#292C33"/>
<rect x="359.75" y="221.75" width="378.5" height="188.5" rx="94.25" fill="white" stroke="#292C33" stroke-width="1.5"/>
<path d="M520.02 301.316H543.312V303.908H520.02V301.316ZM520.02 309.704H543.276V312.26H520.02V309.704ZM519.84 318.308H543.348V320.864H519.84V318.308ZM518.508 301.316H521.172V314.384C521.172 319.856 520.524 327.308 516.24 332.096C515.808 331.556 514.728 330.656 514.152 330.296C518.112 325.832 518.508 319.424 518.508 314.348V301.316ZM542.232 301.316H544.896V328.208C544.896 329.972 544.464 330.8 543.276 331.268C542.052 331.7 539.964 331.736 536.544 331.7C536.436 330.98 536.004 329.792 535.608 329.072C538.164 329.18 540.612 329.144 541.296 329.144C541.98 329.108 542.232 328.892 542.232 328.208V301.316ZM529.812 302.288H532.548V331.556H529.812V302.288ZM555.084 304.34H557.892V312.188C557.892 318.092 557.136 326.516 552.528 332.096C552.06 331.592 550.872 330.764 550.188 330.476C554.616 325.148 555.084 317.624 555.084 312.188V304.34ZM564.84 299.264L567.468 298.58C568.296 300.272 569.232 302.432 569.664 303.836L566.928 304.664C566.532 303.224 565.596 300.956 564.84 299.264ZM556.848 304.34H579.42V319.028H576.684V306.896H556.848V304.34ZM556.848 314.132H578.16V316.652H556.848V314.132Z" fill="#292C33"/>
<path d="M549 474V474.75C549.414 474.75 549.75 474.414 549.75 474H549ZM548.5 474V473.25C548.086 473.25 547.75 473.586 547.75 474H548.5ZM548.5 537L552.83 529.5H544.17L548.5 537ZM548.25 411V474H549.75V411H548.25ZM549 473.25H548.5V474.75H549V473.25ZM547.75 474V530.25H549.25V474H547.75Z" fill="#292C33"/>
<path d="M563.408 462.448H595.592V464.968H563.408V462.448ZM567.116 474.04H577.196V476.164H567.116V474.04ZM567.116 479.8H577.196V481.924H567.116V479.8ZM583.208 468.496H585.764V483.292H583.208V468.496ZM576.224 468.172H578.852V486.784C578.852 488.152 578.528 488.872 577.52 489.304C576.548 489.736 574.964 489.736 572.516 489.736C572.372 489.052 571.976 488.044 571.616 487.36C573.416 487.432 575.072 487.432 575.576 487.396C576.08 487.36 576.224 487.216 576.224 486.748V468.172ZM590.516 467.416H593.18V486.532C593.18 488.116 592.82 488.872 591.704 489.304C590.588 489.7 588.788 489.772 585.98 489.772C585.836 489.052 585.404 487.9 585.008 487.18C587.204 487.252 589.148 487.252 589.76 487.216C590.336 487.18 590.516 487.036 590.516 486.532V467.416ZM568.988 457.66L571.472 456.724C572.876 458.272 574.388 460.396 575.072 461.8L572.408 462.772C571.832 461.404 570.356 459.208 568.988 457.66ZM587.492 456.616L590.372 457.552C589.004 459.784 587.384 462.268 586.052 463.96L583.676 463.06C584.972 461.332 586.592 458.56 587.492 456.616ZM565.676 468.172H577.088V470.512H568.232V489.7H565.676V468.172ZM611.072 469.828H631.988V472.276H611.072V469.828ZM617.804 476.56H619.964V489.484H617.804V476.56ZM623.276 476.56H625.472V489.412H623.276V476.56ZM620.108 456.832H622.7V466.12H620.108V456.832ZM612.188 475.624H630.116V477.964H614.636V489.844H612.188V475.624ZM628.784 475.624H631.232V487.36C631.232 488.512 631.052 489.16 630.332 489.484C629.54 489.916 628.532 489.916 626.912 489.916C626.804 489.268 626.48 488.368 626.156 487.756C627.2 487.792 628.1 487.792 628.388 487.756C628.676 487.756 628.784 487.648 628.784 487.324V475.624ZM620.108 470.62L623.204 471.268C622.52 473.32 621.872 475.624 621.296 477.1L618.992 476.488C619.424 474.832 619.892 472.312 620.108 470.62ZM612.62 458.596H615.14V464.752H628.172V458.596H630.764V467.128H612.62V458.596ZM599.336 463.996H610.712V466.48H599.336V463.996ZM603.872 457.228H606.32V465.22H603.872V457.228ZM598.652 482.536C601.928 481.924 606.716 480.844 611.36 479.836L611.612 482.176C607.292 483.292 602.756 484.372 599.3 485.2L598.652 482.536ZM600.128 468.244L602.216 467.884C603.044 471.592 603.656 476.344 603.692 479.512L601.46 479.872C601.46 476.704 600.884 471.916 600.128 468.244ZM607.328 467.56L609.884 468.1C609.2 472.312 608.228 477.892 607.364 481.24L605.348 480.7C606.14 477.316 607.004 471.556 607.328 467.56ZM635.156 461.08H646.676V463.564H635.156V461.08ZM641.384 466.696H643.724V489.844H641.384V466.696ZM634.976 481.024C637.928 480.412 642.248 479.404 646.532 478.396L646.712 480.7C642.824 481.744 638.756 482.788 635.588 483.544L634.976 481.024ZM636.02 475.156C635.912 474.652 635.516 473.464 635.228 472.888C635.804 472.708 636.236 471.52 636.776 469.9C637.316 468.352 638.972 462.268 639.476 456.832L641.996 457.228C641.132 463.024 639.404 469.324 637.604 473.68V473.716C637.604 473.716 636.02 474.616 636.02 475.156ZM636.02 475.156V472.852L637.46 472.168H646.604V474.616H638.504C637.388 474.616 636.308 474.832 636.02 475.156ZM650.636 465.652H663.992V467.884H650.636V465.652ZM648.44 470.224H656.324V472.42H650.672V489.772H648.44V470.224ZM655.604 470.224H657.872V487.036C657.872 488.188 657.656 488.872 656.9 489.268C656.18 489.664 655.064 489.7 653.48 489.7C653.408 489.052 653.12 488.08 652.796 487.432C653.912 487.468 654.884 487.468 655.208 487.468C655.532 487.432 655.604 487.36 655.604 487.036V470.224ZM650.024 475.264H657.188V477.316H650.024V475.264ZM649.988 480.304H657.152V482.356H649.988V480.304ZM659.924 470.908H662.012V483.94H659.924V470.908ZM664.46 469.576H666.656V486.82C666.656 488.116 666.404 488.8 665.504 489.16C664.64 489.556 663.236 489.592 661.112 489.592C661.004 488.98 660.716 488.008 660.392 487.36C662.048 487.396 663.452 487.396 663.92 487.36C664.352 487.36 664.46 487.252 664.46 486.82V469.576ZM657.188 456.652L659.42 457.66C656.756 461.836 652.256 465.724 647.756 468.028C647.36 467.416 646.64 466.588 645.992 466.012C650.348 463.996 654.812 460.468 657.188 456.652ZM658.088 458.2C660.932 461.656 664.532 463.816 668.528 465.544C667.916 466.084 667.16 466.948 666.8 467.668C662.624 465.544 659.06 462.988 655.964 459.064L658.088 458.2ZM677.672 458.956H687.86V461.692H677.672V458.956ZM686.492 458.956H689.264C689.264 465.4 690.056 479.08 704.276 487.504C703.664 487.972 702.584 489.124 702.08 489.772C687.68 481.06 686.492 465.724 686.492 458.956ZM685.484 466.012L688.544 466.588C685.952 477.568 681.2 485.164 673.244 489.844C672.74 489.268 671.516 488.152 670.796 487.648C678.788 483.472 683.288 476.2 685.484 466.012Z" fill="black"/>
<rect x="369.75" y="537.75" width="357.5" height="178" rx="1.25" fill="white" stroke="#292C33" stroke-width="1.5"/>
<path d="M478.408 593.448H510.592V595.968H478.408V593.448ZM482.116 605.04H492.196V607.164H482.116V605.04ZM482.116 610.8H492.196V612.924H482.116V610.8ZM498.208 599.496H500.764V614.292H498.208V599.496ZM491.224 599.172H493.852V617.784C493.852 619.152 493.528 619.872 492.52 620.304C491.548 620.736 489.964 620.736 487.516 620.736C487.372 620.052 486.976 619.044 486.616 618.36C488.416 618.432 490.072 618.432 490.576 618.396C491.08 618.36 491.224 618.216 491.224 617.748V599.172ZM505.516 598.416H508.18V617.532C508.18 619.116 507.82 619.872 506.704 620.304C505.588 620.7 503.788 620.772 500.98 620.772C500.836 620.052 500.404 618.9 500.008 618.18C502.204 618.252 504.148 618.252 504.76 618.216C505.336 618.18 505.516 618.036 505.516 617.532V598.416ZM483.988 588.66L486.472 587.724C487.876 589.272 489.388 591.396 490.072 592.8L487.408 593.772C486.832 592.404 485.356 590.208 483.988 588.66ZM502.492 587.616L505.372 588.552C504.004 590.784 502.384 593.268 501.052 594.96L498.676 594.06C499.972 592.332 501.592 589.56 502.492 587.616ZM480.676 599.172H492.088V601.512H483.232V620.7H480.676V599.172ZM526.072 600.828H546.988V603.276H526.072V600.828ZM532.804 607.56H534.964V620.484H532.804V607.56ZM538.276 607.56H540.472V620.412H538.276V607.56ZM535.108 587.832H537.7V597.12H535.108V587.832ZM527.188 606.624H545.116V608.964H529.636V620.844H527.188V606.624ZM543.784 606.624H546.232V618.36C546.232 619.512 546.052 620.16 545.332 620.484C544.54 620.916 543.532 620.916 541.912 620.916C541.804 620.268 541.48 619.368 541.156 618.756C542.2 618.792 543.1 618.792 543.388 618.756C543.676 618.756 543.784 618.648 543.784 618.324V606.624ZM535.108 601.62L538.204 602.268C537.52 604.32 536.872 606.624 536.296 608.1L533.992 607.488C534.424 605.832 534.892 603.312 535.108 601.62ZM527.62 589.596H530.14V595.752H543.172V589.596H545.764V598.128H527.62V589.596ZM514.336 594.996H525.712V597.48H514.336V594.996ZM518.872 588.228H521.32V596.22H518.872V588.228ZM513.652 613.536C516.928 612.924 521.716 611.844 526.36 610.836L526.612 613.176C522.292 614.292 517.756 615.372 514.3 616.2L513.652 613.536ZM515.128 599.244L517.216 598.884C518.044 602.592 518.656 607.344 518.692 610.512L516.46 610.872C516.46 607.704 515.884 602.916 515.128 599.244ZM522.328 598.56L524.884 599.1C524.2 603.312 523.228 608.892 522.364 612.24L520.348 611.7C521.14 608.316 522.004 602.556 522.328 598.56ZM556.96 593.484H564.844V596.004H556.96V593.484ZM564.016 593.484H564.556L565.06 593.412L566.86 593.88C565.168 608.64 559.768 616.884 551.92 620.952C551.452 620.34 550.408 619.26 549.724 618.828C557.464 615.084 562.576 607.668 564.016 594.132V593.484ZM556.384 598.02C559.768 614.508 568.192 616.992 576.976 616.992C578.092 616.992 581.8 616.992 583.204 616.956C582.772 617.64 582.268 619.008 582.124 619.8H576.832C566.86 619.8 557.896 616.812 554.224 598.776L556.384 598.02ZM556.42 587.904L559.264 588.588C557.968 595.932 555.628 602.988 552.568 607.056C552.064 606.624 551.056 605.904 550.372 605.544C553.216 601.764 555.412 594.96 556.42 587.904ZM572.26 597.876L574.42 596.652C577.192 599.64 580.576 603.672 582.196 606.264L579.856 607.74C578.344 605.148 574.996 600.936 572.26 597.876ZM570.64 587.832H573.52V614.328H570.64V587.832ZM601.6 598.596V603.24H614.992V598.596H601.6ZM601.6 591.792V596.364H614.992V591.792H601.6ZM599.152 589.452H617.584V605.58H599.152V589.452ZM598.684 609.792H618.088V612.276H598.684V609.792ZM595.912 617.244H619.276V619.692H595.912V617.244ZM586.12 590.208H597.352V592.764H586.12V590.208ZM586.516 600.612H596.848V603.168H586.516V600.612ZM585.76 614.4C588.676 613.608 592.996 612.204 597.172 610.8L597.64 613.392C593.716 614.724 589.612 616.092 586.408 617.172L585.76 614.4ZM590.62 591.216H593.212V613.536L590.62 614.04V591.216ZM607.108 590.568H609.484V604.428H609.664V618.36H606.928V604.428H607.108V590.568ZM438.218 648.909C438.218 645.687 438.636 642.726 439.471 640.024C440.315 637.314 441.516 634.821 443.076 632.545H445.735C445.121 633.389 444.546 634.429 444.009 635.665C443.481 636.892 443.016 638.243 442.616 639.717C442.215 641.183 441.9 642.7 441.67 644.268C441.448 645.837 441.337 647.384 441.337 648.909C441.337 650.938 441.533 652.996 441.925 655.084C442.317 657.172 442.846 659.111 443.511 660.901C444.175 662.69 444.917 664.148 445.735 665.273H443.076C441.516 662.997 440.315 660.509 439.471 657.807C438.636 655.097 438.218 652.131 438.218 648.909ZM450.596 662V635.818H453.767V647.477H467.727V635.818H470.897V662H467.727V650.29H453.767V662H450.596ZM475.813 638.631V635.818H495.449V638.631H487.216V662H484.046V638.631H475.813ZM498.911 638.631V635.818H518.547V638.631H510.314V662H507.143V638.631H498.911ZM523.44 662V635.818H532.287C534.341 635.818 536.02 636.189 537.324 636.93C538.636 637.663 539.608 638.656 540.238 639.909C540.869 641.162 541.184 642.56 541.184 644.102C541.184 645.645 540.869 647.047 540.238 648.308C539.616 649.57 538.653 650.575 537.349 651.325C536.045 652.067 534.375 652.438 532.338 652.438H525.997V649.625H532.235C533.642 649.625 534.771 649.382 535.623 648.896C536.475 648.411 537.093 647.754 537.477 646.928C537.869 646.092 538.065 645.151 538.065 644.102C538.065 643.054 537.869 642.116 537.477 641.29C537.093 640.463 536.471 639.815 535.61 639.347C534.75 638.869 533.608 638.631 532.184 638.631H526.61V662H523.44ZM556.417 662V635.818H565.263C567.317 635.818 568.996 636.189 570.3 636.93C571.613 637.663 572.584 638.656 573.215 639.909C573.846 641.162 574.161 642.56 574.161 644.102C574.161 645.645 573.846 647.047 573.215 648.308C572.593 649.57 571.63 650.575 570.326 651.325C569.022 652.067 567.351 652.438 565.314 652.438H558.973V649.625H565.212C566.618 649.625 567.748 649.382 568.6 648.896C569.452 648.411 570.07 647.754 570.453 646.928C570.846 646.092 571.042 645.151 571.042 644.102C571.042 643.054 570.846 642.116 570.453 641.29C570.07 640.463 569.448 639.815 568.587 639.347C567.726 638.869 566.584 638.631 565.161 638.631H559.587V662H556.417ZM601.359 648.909C601.359 651.67 600.86 654.057 599.863 656.068C598.866 658.08 597.498 659.631 595.76 660.722C594.021 661.812 592.035 662.358 589.802 662.358C587.569 662.358 585.583 661.812 583.845 660.722C582.106 659.631 580.738 658.08 579.741 656.068C578.744 654.057 578.245 651.67 578.245 648.909C578.245 646.148 578.744 643.761 579.741 641.75C580.738 639.739 582.106 638.188 583.845 637.097C585.583 636.006 587.569 635.46 589.802 635.46C592.035 635.46 594.021 636.006 595.76 637.097C597.498 638.188 598.866 639.739 599.863 641.75C600.86 643.761 601.359 646.148 601.359 648.909ZM598.291 648.909C598.291 646.642 597.912 644.729 597.153 643.169C596.403 641.609 595.385 640.429 594.098 639.628C592.819 638.827 591.387 638.426 589.802 638.426C588.217 638.426 586.781 638.827 585.494 639.628C584.216 640.429 583.197 641.609 582.439 643.169C581.689 644.729 581.314 646.642 581.314 648.909C581.314 651.176 581.689 653.089 582.439 654.649C583.197 656.209 584.216 657.389 585.494 658.19C586.781 658.991 588.217 659.392 589.802 659.392C591.387 659.392 592.819 658.991 594.098 658.19C595.385 657.389 596.403 656.209 597.153 654.649C597.912 653.089 598.291 651.176 598.291 648.909ZM621.008 642.364C620.855 641.068 620.233 640.062 619.142 639.347C618.051 638.631 616.713 638.273 615.127 638.273C613.968 638.273 612.954 638.46 612.085 638.835C611.224 639.21 610.551 639.726 610.065 640.382C609.588 641.038 609.349 641.784 609.349 642.619C609.349 643.318 609.515 643.919 609.848 644.422C610.189 644.916 610.623 645.33 611.152 645.662C611.68 645.986 612.234 646.254 612.814 646.467C613.393 646.672 613.926 646.838 614.412 646.966L617.071 647.682C617.752 647.861 618.511 648.108 619.346 648.423C620.19 648.739 620.995 649.169 621.762 649.714C622.538 650.251 623.177 650.942 623.68 651.786C624.183 652.629 624.434 653.665 624.434 654.892C624.434 656.307 624.064 657.585 623.322 658.727C622.589 659.869 621.515 660.777 620.1 661.45C618.694 662.124 616.985 662.46 614.974 662.46C613.099 662.46 611.475 662.158 610.103 661.553C608.74 660.947 607.666 660.104 606.882 659.021C606.106 657.939 605.667 656.682 605.565 655.25H608.838C608.923 656.239 609.255 657.057 609.835 657.705C610.423 658.344 611.164 658.821 612.059 659.136C612.963 659.443 613.934 659.597 614.974 659.597C616.184 659.597 617.271 659.401 618.234 659.009C619.197 658.608 619.96 658.054 620.522 657.347C621.085 656.631 621.366 655.795 621.366 654.841C621.366 653.972 621.123 653.264 620.637 652.719C620.152 652.173 619.512 651.73 618.72 651.389C617.927 651.048 617.071 650.75 616.15 650.494L612.929 649.574C610.883 648.986 609.264 648.146 608.071 647.055C606.877 645.964 606.281 644.537 606.281 642.773C606.281 641.307 606.677 640.028 607.47 638.938C608.271 637.838 609.345 636.986 610.691 636.381C612.047 635.767 613.559 635.46 615.23 635.46C616.917 635.46 618.417 635.763 619.73 636.368C621.042 636.964 622.082 637.783 622.849 638.822C623.625 639.862 624.034 641.043 624.076 642.364H621.008ZM628.215 638.631V635.818H647.852V638.631H639.619V662H636.448V638.631H628.215ZM658.779 648.909C658.779 652.131 658.357 655.097 657.513 657.807C656.678 660.509 655.48 662.997 653.921 665.273H651.262C651.875 664.429 652.446 663.389 652.975 662.153C653.512 660.926 653.98 659.58 654.381 658.114C654.782 656.639 655.093 655.118 655.314 653.55C655.544 651.973 655.659 650.426 655.659 648.909C655.659 646.881 655.463 644.822 655.071 642.734C654.679 640.646 654.151 638.707 653.486 636.918C652.821 635.128 652.08 633.67 651.262 632.545H653.921C655.48 634.821 656.678 637.314 657.513 640.024C658.357 642.726 658.779 645.687 658.779 648.909Z" fill="#292C33"/>
<path d="M872 626.75H872.75C872.75 626.336 872.414 626 872 626V626.75ZM872 940.75H871.25C871.25 941.164 871.586 941.5 872 941.5V940.75ZM1016 940.75L1008.5 936.42V945.08L1016 940.75ZM728 627.5H872V626H728V627.5ZM871.25 626.75V940.75H872.75V626.75H871.25ZM872 941.5H1009.25V940H872V941.5Z" fill="#292C33"/>
<rect x="956.5" y="627.5" width="1109" height="818" fill="#C7EDFF" stroke="black"/>
<path d="M1387.41 699V664.091H1399.61C1402.04 664.091 1404.05 664.511 1405.63 665.352C1407.21 666.182 1408.38 667.301 1409.16 668.71C1409.93 670.108 1410.32 671.659 1410.32 673.364C1410.32 674.864 1410.05 676.102 1409.51 677.08C1408.99 678.057 1408.3 678.83 1407.44 679.398C1406.58 679.966 1405.66 680.386 1404.66 680.659V681C1405.73 681.068 1406.8 681.443 1407.88 682.125C1408.96 682.807 1409.86 683.784 1410.59 685.057C1411.32 686.33 1411.68 687.886 1411.68 689.727C1411.68 691.477 1411.28 693.051 1410.49 694.449C1409.69 695.847 1408.44 696.955 1406.72 697.773C1405 698.591 1402.77 699 1400.02 699H1387.41ZM1391.63 695.25H1400.02C1402.78 695.25 1404.74 694.716 1405.9 693.648C1407.07 692.568 1407.66 691.261 1407.66 689.727C1407.66 688.545 1407.36 687.455 1406.75 686.455C1406.15 685.443 1405.29 684.636 1404.18 684.034C1403.07 683.42 1401.75 683.114 1400.23 683.114H1391.63V695.25ZM1391.63 679.432H1399.48C1400.75 679.432 1401.9 679.182 1402.92 678.682C1403.95 678.182 1404.77 677.477 1405.37 676.568C1405.99 675.659 1406.29 674.591 1406.29 673.364C1406.29 671.83 1405.76 670.528 1404.69 669.46C1403.62 668.381 1401.93 667.841 1399.61 667.841H1391.63V679.432ZM1425.78 699.614C1424.13 699.614 1422.62 699.301 1421.27 698.676C1419.92 698.04 1418.84 697.125 1418.05 695.932C1417.25 694.727 1416.85 693.273 1416.85 691.568C1416.85 690.068 1417.15 688.852 1417.74 687.92C1418.33 686.977 1419.12 686.239 1420.11 685.705C1421.1 685.17 1422.19 684.773 1423.38 684.511C1424.59 684.239 1425.8 684.023 1427.01 683.864C1428.6 683.659 1429.89 683.506 1430.88 683.403C1431.88 683.29 1432.61 683.102 1433.06 682.841C1433.53 682.58 1433.76 682.125 1433.76 681.477V681.341C1433.76 679.659 1433.3 678.352 1432.38 677.42C1431.47 676.489 1430.09 676.023 1428.24 676.023C1426.32 676.023 1424.81 676.443 1423.72 677.284C1422.63 678.125 1421.86 679.023 1421.42 679.977L1417.6 678.614C1418.28 677.023 1419.19 675.784 1420.33 674.898C1421.48 674 1422.73 673.375 1424.08 673.023C1425.44 672.659 1426.78 672.477 1428.1 672.477C1428.94 672.477 1429.91 672.58 1431 672.784C1432.1 672.977 1433.17 673.381 1434.19 673.994C1435.22 674.608 1436.08 675.534 1436.76 676.773C1437.44 678.011 1437.78 679.67 1437.78 681.75V699H1433.76V695.455H1433.56C1433.28 696.023 1432.83 696.631 1432.19 697.278C1431.56 697.926 1430.71 698.477 1429.65 698.932C1428.6 699.386 1427.31 699.614 1425.78 699.614ZM1426.4 696C1427.99 696 1429.33 695.688 1430.42 695.062C1431.52 694.438 1432.35 693.631 1432.91 692.642C1433.48 691.653 1433.76 690.614 1433.76 689.523V685.841C1433.59 686.045 1433.22 686.233 1432.64 686.403C1432.07 686.562 1431.41 686.705 1430.66 686.83C1429.92 686.943 1429.2 687.045 1428.5 687.136C1427.8 687.216 1427.24 687.284 1426.81 687.341C1425.76 687.477 1424.78 687.699 1423.88 688.006C1422.98 688.301 1422.25 688.75 1421.69 689.352C1421.15 689.943 1420.88 690.75 1420.88 691.773C1420.88 693.17 1421.39 694.227 1422.43 694.943C1423.47 695.648 1424.8 696 1426.4 696ZM1455.76 699.545C1453.31 699.545 1451.2 698.966 1449.42 697.807C1447.65 696.648 1446.29 695.051 1445.33 693.017C1444.38 690.983 1443.9 688.659 1443.9 686.045C1443.9 683.386 1444.39 681.04 1445.37 679.006C1446.35 676.96 1447.73 675.364 1449.49 674.216C1451.26 673.057 1453.33 672.477 1455.7 672.477C1457.54 672.477 1459.2 672.818 1460.67 673.5C1462.15 674.182 1463.36 675.136 1464.3 676.364C1465.25 677.591 1465.83 679.023 1466.06 680.659H1462.04C1461.73 679.466 1461.05 678.409 1459.99 677.489C1458.95 676.557 1457.54 676.091 1455.76 676.091C1454.2 676.091 1452.82 676.5 1451.64 677.318C1450.47 678.125 1449.55 679.267 1448.89 680.744C1448.25 682.21 1447.92 683.932 1447.92 685.909C1447.92 687.932 1448.24 689.693 1448.88 691.193C1449.52 692.693 1450.43 693.858 1451.6 694.688C1452.79 695.517 1454.17 695.932 1455.76 695.932C1456.81 695.932 1457.76 695.75 1458.61 695.386C1459.46 695.023 1460.18 694.5 1460.77 693.818C1461.37 693.136 1461.79 692.318 1462.04 691.364H1466.06C1465.83 692.909 1465.27 694.301 1464.37 695.54C1463.49 696.767 1462.31 697.744 1460.84 698.472C1459.39 699.188 1457.7 699.545 1455.76 699.545ZM1475.69 689.455L1475.62 684.477H1476.44L1487.89 672.818H1492.87L1480.67 685.159H1480.33L1475.69 689.455ZM1471.94 699V664.091H1475.96V699H1471.94ZM1488.58 699L1478.35 686.045L1481.21 683.25L1493.69 699H1488.58ZM1510.85 682.159V685.909H1495.57V682.159H1510.85ZM1518.47 699V664.091H1539.54V667.841H1522.7V679.636H1538.45V683.386H1522.7V695.25H1539.81V699H1518.47ZM1550.63 683.25V699H1546.61V672.818H1550.5V676.909H1550.84C1551.45 675.58 1552.38 674.511 1553.63 673.705C1554.88 672.886 1556.5 672.477 1558.48 672.477C1560.25 672.477 1561.8 672.841 1563.13 673.568C1564.46 674.284 1565.49 675.375 1566.23 676.841C1566.97 678.295 1567.34 680.136 1567.34 682.364V699H1563.32V682.636C1563.32 680.58 1562.78 678.977 1561.71 677.83C1560.65 676.67 1559.18 676.091 1557.32 676.091C1556.03 676.091 1554.88 676.369 1553.87 676.926C1552.87 677.483 1552.08 678.295 1551.5 679.364C1550.92 680.432 1550.63 681.727 1550.63 683.25ZM1584.58 699.545C1582.39 699.545 1580.47 698.994 1578.8 697.892C1577.13 696.778 1575.82 695.21 1574.88 693.188C1573.93 691.153 1573.46 688.75 1573.46 685.977C1573.46 683.227 1573.93 680.841 1574.88 678.818C1575.82 676.795 1577.13 675.233 1578.81 674.131C1580.5 673.028 1582.44 672.477 1584.64 672.477C1586.35 672.477 1587.7 672.761 1588.68 673.33C1589.68 673.886 1590.45 674.523 1590.97 675.239C1591.5 675.943 1591.92 676.523 1592.21 676.977H1592.55V664.091H1596.58V699H1592.69V694.977H1592.21C1591.92 695.455 1591.5 696.057 1590.95 696.784C1590.41 697.5 1589.63 698.142 1588.62 698.71C1587.6 699.267 1586.26 699.545 1584.58 699.545ZM1585.12 695.932C1586.74 695.932 1588.1 695.511 1589.21 694.67C1590.33 693.818 1591.17 692.642 1591.75 691.142C1592.33 689.631 1592.62 687.886 1592.62 685.909C1592.62 683.955 1592.34 682.244 1591.77 680.778C1591.2 679.301 1590.36 678.153 1589.25 677.335C1588.13 676.506 1586.76 676.091 1585.12 676.091C1583.42 676.091 1582 676.528 1580.86 677.403C1579.74 678.267 1578.89 679.443 1578.32 680.932C1577.76 682.409 1577.49 684.068 1577.49 685.909C1577.49 687.773 1577.77 689.466 1578.34 690.989C1578.92 692.5 1579.77 693.705 1580.89 694.602C1582.03 695.489 1583.44 695.932 1585.12 695.932Z" fill="black"/>
<path d="M957 736L2065 736" stroke="black"/>
<rect x="1016.75" y="851.75" width="357.5" height="178" rx="1.25" fill="white" stroke="#292C33" stroke-width="1.5"/>
<path d="M1093.19 906.404H1121.41V908.96H1093.19V906.404ZM1091.82 906.404H1094.56V916.232C1094.56 921.704 1094.09 929.768 1091.14 935.168C1090.67 934.664 1089.41 933.908 1088.8 933.656C1091.57 928.544 1091.82 921.344 1091.82 916.232V906.404ZM1104.31 902.192L1106.94 901.508C1107.84 903.092 1108.85 905.108 1109.28 906.404L1106.54 907.268C1106.11 905.9 1105.14 903.776 1104.31 902.192ZM1096.97 914.36L1099.31 913.424C1100.89 917.348 1102.62 922.352 1103.41 925.7L1100.89 926.78C1100.17 923.396 1098.44 918.284 1096.97 914.36ZM1104.78 912.38L1107.23 911.66C1108.49 915.584 1109.82 920.624 1110.36 923.972L1107.77 924.728C1107.3 921.38 1105.97 916.268 1104.78 912.38ZM1116.98 911.444L1119.79 912.488C1117.85 919.256 1114.72 926.744 1110.83 932.72C1110.43 932.252 1109.6 931.496 1109.03 931.1C1112.66 925.448 1115.54 917.852 1116.98 911.444ZM1094.99 930.632H1121.88V933.224H1094.99V930.632ZM1130.52 904.316H1153.81V906.908H1130.52V904.316ZM1130.52 912.704H1153.78V915.26H1130.52V912.704ZM1130.34 921.308H1153.85V923.864H1130.34V921.308ZM1129.01 904.316H1131.67V917.384C1131.67 922.856 1131.02 930.308 1126.74 935.096C1126.31 934.556 1125.23 933.656 1124.65 933.296C1128.61 928.832 1129.01 922.424 1129.01 917.348V904.316ZM1152.73 904.316H1155.4V931.208C1155.4 932.972 1154.96 933.8 1153.78 934.268C1152.55 934.7 1150.46 934.736 1147.04 934.7C1146.94 933.98 1146.5 932.792 1146.11 932.072C1148.66 932.18 1151.11 932.144 1151.8 932.144C1152.48 932.108 1152.73 931.892 1152.73 931.208V904.316ZM1140.31 905.288H1143.05V934.556H1140.31V905.288ZM1182.68 918.752H1185.35V933.152H1182.68V918.752ZM1174.76 917.78H1193.38V920.156H1174.76V917.78ZM1173.22 931.532H1194.17V933.944H1173.22V931.532ZM1175.63 924.476H1192.55V926.816H1175.63V924.476ZM1178.65 905.612V912.272H1189.49V905.612H1178.65ZM1176.13 903.272H1192.12V914.612H1176.13V903.272ZM1167.13 904.748H1169.76V934.808H1167.13V904.748ZM1161.23 911.912H1174.3V914.468H1161.23V911.912ZM1167.28 912.884L1168.97 913.604C1167.53 918.68 1164.65 924.98 1161.88 928.328C1161.62 927.572 1160.98 926.456 1160.51 925.844C1163.1 922.964 1165.98 917.348 1167.28 912.884ZM1172.46 902.3L1174.37 904.388C1171.06 905.72 1166.02 906.728 1161.84 907.304C1161.7 906.692 1161.34 905.828 1161.01 905.216C1165.08 904.532 1169.83 903.524 1172.46 902.3ZM1169.65 916.556C1170.55 917.348 1173.94 920.768 1174.66 921.668L1173.07 923.792C1172.21 922.316 1169.51 918.896 1168.39 917.636L1169.65 916.556ZM1205.83 910.868H1224.12V913.1H1205.83V910.868ZM1203.78 919.904H1227.54V922.244H1203.78V919.904ZM1214.98 920.876H1217.68V931.82C1217.68 933.44 1217.28 934.196 1215.98 934.556C1214.69 934.988 1212.53 934.952 1209.25 934.952C1209.14 934.196 1208.71 933.188 1208.32 932.432C1210.98 932.54 1213.43 932.54 1214.11 932.504C1214.8 932.432 1214.98 932.288 1214.98 931.784V920.876ZM1226.75 919.904H1227.25L1227.72 919.76L1229.66 920.624C1227.68 923.36 1225.49 926.384 1223.54 928.256L1221.35 927.176C1223.11 925.448 1225.27 922.712 1226.75 920.372V919.904ZM1223.29 910.868H1223.98L1224.59 910.724L1226.35 912.092C1223.87 914.648 1220.12 917.348 1216.7 918.968C1216.34 918.464 1215.66 917.708 1215.19 917.348C1218.18 915.944 1221.6 913.352 1223.29 911.444V910.868ZM1213.14 901.796H1215.91V907.34H1213.14V901.796ZM1201.12 905.792H1229.74V908.348H1201.12V905.792ZM1199.82 905.792H1202.45V915.8C1202.45 921.38 1201.98 929.552 1198.88 934.988C1198.42 934.52 1197.23 933.8 1196.62 933.476C1199.57 928.328 1199.82 921.02 1199.82 915.8V905.792ZM1208.86 916.232L1210.48 914.612C1214.08 916.016 1218.86 918.212 1221.42 919.76L1219.69 921.56C1217.32 920.048 1212.49 917.708 1208.86 916.232ZM1253.5 901.76H1256.23V906.692H1253.5V901.76ZM1244.96 905.612H1264.98V907.952H1244.96V905.612ZM1243.52 914.036H1265.99V916.412H1243.52V914.036ZM1248.35 908.276L1250.69 907.808C1251.48 909.752 1252.16 912.272 1252.31 913.82L1249.86 914.432C1249.75 912.848 1249.1 910.256 1248.35 908.276ZM1259.04 907.736L1261.7 908.132C1260.95 910.256 1260.08 912.704 1259.33 914.324L1257.02 913.928C1257.74 912.236 1258.61 909.536 1259.04 907.736ZM1243.7 919.976H1265.84V922.316H1243.7V919.976ZM1251.95 915.764L1254.65 916.304C1252.81 920.444 1250.26 925.7 1248.42 929.012L1246.08 928.22C1247.88 925.016 1250.36 919.688 1251.95 915.764ZM1247.92 927.752L1249.5 925.916C1254.94 927.464 1261.7 930.344 1265.2 932.864L1263.47 934.916C1260.16 932.468 1253.42 929.408 1247.92 927.752ZM1259.04 921.488L1261.67 921.884C1259.94 929.912 1255.01 933.404 1243.88 934.88C1243.7 934.124 1243.24 933.188 1242.8 932.612C1253.17 931.568 1257.49 928.508 1259.04 921.488ZM1232.47 920.912C1235.39 920.192 1239.78 918.896 1244.03 917.672L1244.35 920.084C1240.43 921.308 1236.29 922.604 1233.08 923.576L1232.47 920.912ZM1233.08 909.032H1244.06V911.552H1233.08V909.032ZM1237.98 901.796H1240.57V931.604C1240.57 933.152 1240.25 933.908 1239.31 934.34C1238.38 934.808 1236.9 934.88 1234.56 934.88C1234.45 934.196 1234.09 933.008 1233.73 932.252C1235.35 932.324 1236.86 932.324 1237.3 932.288C1237.76 932.288 1237.98 932.144 1237.98 931.604V901.796ZM1272.04 905.54H1299.04V933.836H1296.12V908.276H1274.84V934.016H1272.04V905.54ZM1273.3 928.148H1298.14V930.92H1273.3V928.148ZM1116.88 962.909C1116.88 959.687 1117.29 956.726 1118.13 954.024C1118.97 951.314 1120.17 948.821 1121.73 946.545H1124.39C1123.78 947.389 1123.2 948.429 1122.67 949.665C1122.14 950.892 1121.67 952.243 1121.27 953.717C1120.87 955.183 1120.56 956.7 1120.33 958.268C1120.11 959.837 1120 961.384 1120 962.909C1120 964.938 1120.19 966.996 1120.58 969.084C1120.98 971.172 1121.5 973.111 1122.17 974.901C1122.83 976.69 1123.58 978.148 1124.39 979.273H1121.73C1120.17 976.997 1118.97 974.509 1118.13 971.807C1117.29 969.097 1116.88 966.131 1116.88 962.909ZM1130.33 976H1127L1136.62 949.818H1139.89L1149.5 976H1146.18L1138.36 953.96H1138.15L1130.33 976ZM1131.56 965.773H1144.95V968.585H1131.56V965.773ZM1153.58 976V949.818H1162.43C1164.48 949.818 1166.16 950.189 1167.47 950.93C1168.78 951.663 1169.75 952.656 1170.38 953.909C1171.01 955.162 1171.33 956.56 1171.33 958.102C1171.33 959.645 1171.01 961.047 1170.38 962.308C1169.76 963.57 1168.8 964.575 1167.49 965.325C1166.19 966.067 1164.52 966.438 1162.48 966.438H1156.14V963.625H1162.38C1163.78 963.625 1164.91 963.382 1165.77 962.896C1166.62 962.411 1167.24 961.754 1167.62 960.928C1168.01 960.092 1168.21 959.151 1168.21 958.102C1168.21 957.054 1168.01 956.116 1167.62 955.29C1167.24 954.463 1166.61 953.815 1165.75 953.347C1164.89 952.869 1163.75 952.631 1162.33 952.631H1156.75V976H1153.58ZM1179.6 949.818V976H1176.43V949.818H1179.6ZM1196.73 948.244L1198.5 946.588C1200.4 948.172 1202.82 950.44 1203.97 951.88L1202.13 953.824C1201.02 952.312 1198.64 949.936 1196.73 948.244ZM1199.5 978.232L1199 975.712L1199.72 974.56L1206.13 969.772C1206.31 970.492 1206.74 971.536 1207.06 972.04C1200.98 976.756 1200.04 977.512 1199.5 978.232ZM1194.39 957.064H1201.38V959.692H1194.39V957.064ZM1199.5 978.232C1199.25 977.584 1198.57 976.468 1198.06 975.928C1198.75 975.532 1199.83 974.452 1199.83 972.868V957.064H1202.42V975.136C1202.42 975.136 1199.5 977.224 1199.5 978.232ZM1210.09 966.46H1222.69V968.404H1210.09V966.46ZM1206.67 948.604H1226.36V950.656H1206.67V948.604ZM1207.53 952.96H1225.24V954.94H1207.53V952.96ZM1205.59 957.46H1227.44V959.512H1205.59V957.46ZM1210.05 971.32H1222.76V973.3H1210.05V971.32ZM1208.14 961.636H1222.8V963.724H1210.7V978.844H1208.14V961.636ZM1221.97 961.636H1224.56V975.856C1224.56 977.224 1224.27 977.944 1223.26 978.34C1222.26 978.736 1220.64 978.772 1218.08 978.736C1217.97 978.088 1217.61 977.08 1217.29 976.396C1219.12 976.468 1220.85 976.468 1221.32 976.432C1221.82 976.432 1221.97 976.288 1221.97 975.82V961.636ZM1214.98 945.76H1217.68V958.108H1214.98V945.76ZM1231.22 951.808H1262.72V954.436H1231.22V951.808ZM1248 954.148C1250.7 962.788 1256.24 970.6 1263.76 973.876C1263.12 974.416 1262.22 975.46 1261.78 976.252C1254.12 972.508 1248.82 964.264 1245.87 954.796L1248 954.148ZM1258.8 955.912L1261.14 957.604C1258.76 960.34 1255.48 963.544 1252.96 965.596L1251.06 964.12C1253.5 962.068 1256.85 958.576 1258.8 955.912ZM1251.6 947.596L1253.25 945.904C1255.45 947.056 1258.4 948.748 1259.91 949.936L1258.18 951.88C1256.78 950.62 1253.9 948.82 1251.6 947.596ZM1233.16 957.964L1235.25 956.596C1237.45 958.504 1240.04 961.24 1241.16 963.148L1238.96 964.696C1237.88 962.824 1235.4 959.944 1233.16 957.964ZM1245.44 945.868H1248.21V975.244C1248.21 977.152 1247.71 977.98 1246.52 978.412C1245.3 978.916 1243.14 978.952 1239.97 978.952C1239.82 978.196 1239.39 976.936 1238.96 976.108C1241.48 976.18 1243.82 976.18 1244.54 976.144C1245.19 976.108 1245.44 975.928 1245.44 975.244V945.868ZM1230.25 972.976C1233.27 971.428 1237.99 968.8 1242.38 966.244L1243.24 968.656C1239.36 971.068 1235.11 973.588 1231.9 975.388L1230.25 972.976ZM1274.12 964.955C1274.12 968.176 1273.7 971.142 1272.85 973.852C1272.02 976.554 1270.82 979.043 1269.26 981.318H1266.6C1267.22 980.474 1267.79 979.435 1268.32 978.199C1268.85 976.972 1269.32 975.625 1269.72 974.159C1270.12 972.685 1270.43 971.163 1270.66 969.595C1270.89 968.018 1271 966.472 1271 964.955C1271 962.926 1270.81 960.868 1270.41 958.78C1270.02 956.692 1269.49 954.753 1268.83 952.963C1268.16 951.173 1267.42 949.716 1266.6 948.591H1269.26C1270.82 950.866 1272.02 953.359 1272.85 956.07C1273.7 958.771 1274.12 961.733 1274.12 964.955Z" fill="#292C33"/>
<path d="M1195.5 1118.08V1118.83C1195.91 1118.83 1196.25 1118.49 1196.25 1118.08H1195.5ZM548.5 1118.08V1117.33C548.086 1117.33 547.75 1117.66 547.75 1118.08H548.5ZM548.5 1205.65L552.83 1198.15H544.17L548.5 1205.65ZM1194.75 1030.5V1118.08H1196.25V1030.5H1194.75ZM1195.5 1117.33H548.5V1118.83H1195.5V1117.33ZM547.75 1118.08V1198.9H549.25V1118.08H547.75Z" fill="#292C33"/>
<rect x="369.75" y="1206.4" width="357.5" height="178" rx="1.25" fill="white" stroke="#292C33" stroke-width="1.5"/>
<path d="M459.256 1316.42C457.799 1316.42 456.546 1316.24 455.498 1315.86C454.449 1315.49 453.576 1315.01 452.877 1314.4C452.187 1313.81 451.637 1313.17 451.228 1312.49L453.631 1310.8C453.904 1311.16 454.249 1311.57 454.667 1312.03C455.084 1312.49 455.655 1312.9 456.38 1313.24C457.113 1313.59 458.072 1313.76 459.256 1313.76C460.841 1313.76 462.15 1313.38 463.181 1312.61C464.212 1311.85 464.728 1310.64 464.728 1309.01V1305.02H464.472C464.251 1305.38 463.935 1305.82 463.526 1306.35C463.126 1306.87 462.546 1307.33 461.788 1307.74C461.038 1308.14 460.023 1308.34 458.745 1308.34C457.16 1308.34 455.736 1307.97 454.475 1307.22C453.222 1306.47 452.229 1305.38 451.496 1303.95C450.772 1302.51 450.41 1300.78 450.41 1298.73C450.41 1296.72 450.763 1294.97 451.471 1293.48C452.178 1291.98 453.163 1290.82 454.424 1290C455.685 1289.17 457.143 1288.76 458.796 1288.76C460.074 1288.76 461.089 1288.97 461.839 1289.4C462.597 1289.82 463.177 1290.29 463.577 1290.83C463.986 1291.36 464.302 1291.79 464.523 1292.13H464.83V1289.01H467.745V1309.21C467.745 1310.9 467.361 1312.27 466.594 1313.33C465.836 1314.39 464.813 1315.17 463.526 1315.67C462.248 1316.17 460.824 1316.42 459.256 1316.42ZM459.154 1305.63C460.364 1305.63 461.387 1305.36 462.222 1304.8C463.057 1304.25 463.692 1303.45 464.127 1302.41C464.562 1301.37 464.779 1300.13 464.779 1298.68C464.779 1297.26 464.566 1296.02 464.14 1294.93C463.714 1293.85 463.083 1293 462.248 1292.39C461.413 1291.78 460.381 1291.47 459.154 1291.47C457.876 1291.47 456.81 1291.79 455.958 1292.44C455.114 1293.09 454.479 1293.96 454.053 1295.05C453.636 1296.14 453.427 1297.35 453.427 1298.68C453.427 1300.04 453.64 1301.25 454.066 1302.3C454.501 1303.34 455.14 1304.15 455.984 1304.75C456.836 1305.34 457.893 1305.63 459.154 1305.63ZM476.285 1282.47V1308.65H473.268V1282.47H476.285ZM481.811 1308.65V1289.01H484.725V1292.08H484.981C485.39 1291.03 486.051 1290.22 486.963 1289.64C487.875 1289.05 488.97 1288.76 490.248 1288.76C491.544 1288.76 492.622 1289.05 493.482 1289.64C494.352 1290.22 495.029 1291.03 495.515 1292.08H495.72C496.223 1291.07 496.977 1290.26 497.982 1289.67C498.988 1289.06 500.194 1288.76 501.6 1288.76C503.356 1288.76 504.792 1289.31 505.909 1290.41C507.025 1291.5 507.583 1293.2 507.583 1295.51V1308.65H504.566V1295.51C504.566 1294.06 504.17 1293.02 503.377 1292.4C502.585 1291.78 501.651 1291.47 500.578 1291.47C499.197 1291.47 498.127 1291.89 497.369 1292.72C496.61 1293.55 496.231 1294.6 496.231 1295.87V1308.65H493.163V1295.2C493.163 1294.09 492.801 1293.19 492.076 1292.5C491.352 1291.81 490.419 1291.47 489.276 1291.47C488.492 1291.47 487.759 1291.68 487.078 1292.09C486.404 1292.51 485.859 1293.09 485.441 1293.83C485.032 1294.57 484.828 1295.41 484.828 1296.38V1308.65H481.811ZM524.35 1296.02V1298.83H512.895V1296.02H524.35ZM528.993 1303.28V1300.67L540.499 1282.47H542.391V1286.51H541.113L532.42 1300.26V1300.47H547.914V1303.28H528.993ZM541.317 1308.65V1302.49V1301.27V1282.47H544.334V1308.65H541.317ZM564.006 1296.02V1298.83H552.551V1296.02H564.006ZM578.059 1289.01V1291.57H567.474V1289.01H578.059ZM570.644 1308.65V1286.3C570.644 1285.18 570.908 1284.24 571.437 1283.49C571.965 1282.74 572.651 1282.18 573.495 1281.8C574.339 1281.43 575.229 1281.24 576.167 1281.24C576.908 1281.24 577.513 1281.3 577.982 1281.42C578.451 1281.54 578.8 1281.65 579.03 1281.75L578.161 1284.36C578.008 1284.31 577.795 1284.25 577.522 1284.17C577.258 1284.09 576.908 1284.05 576.474 1284.05C575.476 1284.05 574.756 1284.31 574.313 1284.81C573.878 1285.31 573.661 1286.05 573.661 1287.02V1308.65H570.644ZM585.304 1282.47V1308.65H582.287V1282.47H585.304ZM596.609 1309.11C595.364 1309.11 594.235 1308.88 593.221 1308.41C592.207 1307.93 591.401 1307.24 590.805 1306.35C590.208 1305.45 589.91 1304.35 589.91 1303.08C589.91 1301.95 590.131 1301.04 590.574 1300.34C591.018 1299.63 591.61 1299.08 592.351 1298.68C593.093 1298.28 593.911 1297.98 594.806 1297.78C595.709 1297.58 596.617 1297.42 597.529 1297.3C598.722 1297.14 599.689 1297.03 600.431 1296.95C601.181 1296.87 601.726 1296.73 602.067 1296.53C602.417 1296.34 602.591 1295.99 602.591 1295.51V1295.41C602.591 1294.14 602.246 1293.16 601.556 1292.47C600.874 1291.77 599.839 1291.42 598.449 1291.42C597.009 1291.42 595.88 1291.73 595.062 1292.36C594.243 1292.99 593.668 1293.67 593.336 1294.38L590.472 1293.36C590.984 1292.17 591.665 1291.24 592.518 1290.57C593.378 1289.9 594.316 1289.43 595.33 1289.17C596.353 1288.89 597.359 1288.76 598.347 1288.76C598.978 1288.76 599.702 1288.84 600.52 1288.99C601.347 1289.13 602.144 1289.44 602.911 1289.9C603.687 1290.36 604.33 1291.05 604.841 1291.98C605.353 1292.91 605.609 1294.15 605.609 1295.71V1308.65H602.591V1305.99H602.438C602.234 1306.42 601.893 1306.87 601.415 1307.36C600.938 1307.84 600.303 1308.26 599.511 1308.6C598.718 1308.94 597.751 1309.11 596.609 1309.11ZM597.069 1306.4C598.262 1306.4 599.268 1306.17 600.086 1305.7C600.913 1305.23 601.535 1304.62 601.952 1303.88C602.378 1303.14 602.591 1302.36 602.591 1301.54V1298.78C602.464 1298.93 602.182 1299.08 601.748 1299.2C601.322 1299.32 600.827 1299.43 600.265 1299.52C599.711 1299.61 599.17 1299.68 598.641 1299.75C598.121 1299.81 597.699 1299.86 597.376 1299.91C596.591 1300.01 595.859 1300.17 595.177 1300.4C594.503 1300.63 593.958 1300.96 593.54 1301.41C593.131 1301.86 592.927 1302.46 592.927 1303.23C592.927 1304.28 593.314 1305.07 594.09 1305.61C594.874 1306.14 595.867 1306.4 597.069 1306.4ZM625.024 1293.41L622.314 1294.18C622.144 1293.73 621.892 1293.29 621.56 1292.86C621.236 1292.43 620.793 1292.07 620.23 1291.79C619.668 1291.51 618.948 1291.37 618.07 1291.37C616.868 1291.37 615.867 1291.64 615.066 1292.2C614.273 1292.74 613.877 1293.44 613.877 1294.28C613.877 1295.03 614.149 1295.62 614.695 1296.06C615.24 1296.49 616.093 1296.85 617.252 1297.14L620.166 1297.86C621.922 1298.29 623.23 1298.94 624.091 1299.82C624.952 1300.69 625.382 1301.81 625.382 1303.18C625.382 1304.3 625.058 1305.31 624.411 1306.2C623.772 1307.08 622.877 1307.78 621.726 1308.29C620.576 1308.8 619.237 1309.06 617.712 1309.06C615.709 1309.06 614.051 1308.62 612.739 1307.76C611.426 1306.89 610.595 1305.62 610.246 1303.95L613.11 1303.23C613.382 1304.29 613.898 1305.08 614.656 1305.61C615.424 1306.14 616.425 1306.4 617.661 1306.4C619.067 1306.4 620.183 1306.1 621.01 1305.51C621.845 1304.9 622.263 1304.18 622.263 1303.33C622.263 1302.65 622.024 1302.08 621.547 1301.62C621.07 1301.15 620.337 1300.8 619.348 1300.57L616.076 1299.8C614.277 1299.38 612.956 1298.72 612.112 1297.82C611.277 1296.92 610.86 1295.79 610.86 1294.43C610.86 1293.33 611.171 1292.35 611.793 1291.49C612.424 1290.64 613.28 1289.97 614.362 1289.49C615.453 1289 616.689 1288.76 618.07 1288.76C620.013 1288.76 621.539 1289.18 622.647 1290.04C623.763 1290.89 624.556 1292.01 625.024 1293.41ZM632.941 1296.84V1308.65H629.924V1282.47H632.941V1292.08H633.197C633.657 1291.07 634.347 1290.26 635.268 1289.67C636.197 1289.06 637.432 1288.76 638.975 1288.76C640.313 1288.76 641.485 1289.03 642.491 1289.56C643.496 1290.09 644.276 1290.91 644.83 1292.01C645.393 1293.1 645.674 1294.49 645.674 1296.17V1308.65H642.657V1296.38C642.657 1294.82 642.252 1293.61 641.442 1292.76C640.641 1291.9 639.529 1291.47 638.106 1291.47C637.117 1291.47 636.231 1291.68 635.447 1292.09C634.671 1292.51 634.057 1293.12 633.606 1293.92C633.163 1294.72 632.941 1295.7 632.941 1296.84Z" fill="#292C33"/>
<path d="M1016 1209C1016 1207.9 1016.9 1207 1018 1207H1367.55C1368.66 1207 1369.55 1207.9 1369.55 1209V1381.78C1369.55 1382.88 1368.66 1383.78 1367.55 1383.78H1018C1016.9 1383.78 1016 1382.88 1016 1381.78V1209ZM1051.36 1242.36H1369.55H1051.36Z" fill="white"/>
<path d="M1051.36 1242.36V1207M1051.36 1242.36H1016M1051.36 1242.36V1383.78M1051.36 1242.36H1369.55M1018 1383.78H1367.55C1368.66 1383.78 1369.55 1382.88 1369.55 1381.78V1209C1369.55 1207.9 1368.66 1207 1367.55 1207H1018C1016.9 1207 1016 1207.9 1016 1209V1381.78C1016 1382.88 1016.9 1383.78 1018 1383.78Z" stroke="#292C33" stroke-width="1.5"/>
<path d="M1116.82 1279.44H1136.62V1281.96H1116.82V1279.44ZM1125.35 1274.12H1127.98V1280.63H1125.35V1274.12ZM1121.61 1283.01L1124.06 1284.05C1122.58 1287 1120.31 1290.1 1117.86 1292.22C1117.47 1291.72 1116.6 1290.96 1115.99 1290.53C1118.3 1288.62 1120.46 1285.6 1121.61 1283.01ZM1129.13 1284.12L1131.22 1282.94C1133.56 1285.24 1136.12 1288.44 1137.27 1290.6L1134.96 1291.94C1133.96 1289.78 1131.44 1286.46 1129.13 1284.12ZM1122.76 1289.6C1125.28 1296.62 1130.46 1302.48 1137.3 1304.97C1136.69 1305.51 1135.83 1306.59 1135.43 1307.34C1128.34 1304.39 1123.23 1298.13 1120.42 1290.28L1122.76 1289.6ZM1130.03 1289.42L1132.73 1289.99C1130.36 1297.77 1125.39 1304.07 1116.82 1307.38C1116.53 1306.77 1115.88 1305.76 1115.42 1305.26C1123.44 1302.27 1128.16 1296.4 1130.03 1289.42ZM1104.29 1281.86H1116.53V1284.41H1104.29V1281.86ZM1109.62 1274.12H1112.14V1307.2H1109.62V1274.12ZM1109.51 1283.44L1111.2 1284.02C1110.09 1289.78 1107.6 1296.83 1105.01 1300.47C1104.72 1299.75 1104.08 1298.7 1103.61 1298.09C1106.06 1294.85 1108.47 1288.62 1109.51 1283.44ZM1111.96 1286.93C1112.86 1287.94 1116.14 1292.66 1116.86 1293.77L1115.31 1295.86C1114.41 1293.99 1111.71 1289.6 1110.66 1288.08L1111.96 1286.93ZM1140.76 1281.71H1172.19V1284.45H1140.76V1281.71ZM1147.96 1297.77H1164.74V1300.5H1147.96V1297.77ZM1154.98 1274.15H1157.82V1307.24H1154.98V1274.15ZM1154.15 1282.61L1156.56 1283.44C1153.36 1291.07 1147.71 1297.95 1141.48 1301.58C1141.05 1300.9 1140.15 1299.89 1139.54 1299.35C1145.55 1296.22 1151.27 1289.52 1154.15 1282.61ZM1158.72 1282.72C1161.57 1289.56 1167.22 1296.11 1173.45 1299.1C1172.76 1299.68 1171.83 1300.76 1171.4 1301.51C1165.02 1297.98 1159.48 1291.11 1156.31 1283.55L1158.72 1282.72ZM1191.95 1275.02H1194.69V1301.73C1194.69 1303.74 1195.05 1304.18 1197.06 1304.18C1198.04 1304.18 1202.93 1304.18 1204.16 1304.18C1206.14 1304.18 1206.42 1302.84 1206.68 1297.59C1207.36 1298.09 1208.48 1298.6 1209.27 1298.78C1208.84 1304.68 1208.04 1306.73 1204.3 1306.73C1203.36 1306.73 1197.71 1306.73 1196.88 1306.73C1193.1 1306.73 1191.95 1305.65 1191.95 1301.69V1275.02ZM1205.45 1280.99L1207.43 1283.3C1203.8 1286.28 1198.5 1289.2 1193.75 1291.68C1193.57 1291.07 1193.03 1290.14 1192.64 1289.56C1197.24 1287.15 1202.39 1283.8 1205.45 1280.99ZM1185.69 1274.69L1188.32 1275.56C1185.62 1281.89 1181.3 1288.05 1176.83 1292.04C1176.54 1291.4 1175.72 1289.99 1175.18 1289.34C1179.35 1285.85 1183.31 1280.38 1185.69 1274.69ZM1181.58 1284.09L1184.21 1281.46L1184.25 1281.5V1307.2H1181.58V1284.09ZM1233.53 1276.92H1236.05V1302.63H1233.53V1276.92ZM1241.02 1275.02H1243.72V1306.77H1241.02V1275.02ZM1225.9 1275.2H1228.56V1287.69C1228.56 1294.6 1228.2 1301.55 1224.64 1307.2C1224.06 1306.7 1222.88 1305.98 1222.08 1305.65C1225.54 1300.4 1225.9 1294.1 1225.9 1287.69V1275.2ZM1213.91 1276.71L1215.6 1274.91C1217.76 1276.64 1220.57 1279.05 1221.9 1280.6L1220.07 1282.65C1218.81 1281.03 1216.07 1278.51 1213.91 1276.71ZM1216.72 1306.52L1216.18 1303.92L1216.83 1302.74L1222.98 1297.73C1223.24 1298.49 1223.74 1299.5 1224.06 1299.96C1218.16 1304.93 1217.22 1305.76 1216.72 1306.52ZM1211.9 1285.46H1218.52V1288.05H1211.9V1285.46ZM1216.72 1306.55C1216.43 1305.98 1215.71 1305 1215.24 1304.57C1215.89 1304.07 1216.97 1302.84 1216.97 1301.08V1285.46H1219.56V1303.06C1219.56 1303.06 1216.72 1305.47 1216.72 1306.55ZM1249.01 1297.8C1248.87 1297.26 1248.47 1296.04 1248.15 1295.39C1248.9 1295.25 1249.62 1294.31 1250.6 1293.02C1251.64 1291.72 1254.92 1286.75 1256.97 1281.96L1259.27 1283.26C1256.86 1288.05 1253.84 1292.91 1250.78 1296.36V1296.44C1250.78 1296.44 1249.01 1297.26 1249.01 1297.8ZM1248.98 1297.84L1248.83 1295.64L1250.09 1294.71L1258.98 1292.98C1258.91 1293.7 1258.91 1294.71 1258.98 1295.28C1250.85 1297.05 1249.66 1297.41 1248.98 1297.84ZM1248.76 1289.16C1248.62 1288.59 1248.18 1287.33 1247.86 1286.61C1248.47 1286.46 1249.05 1285.6 1249.73 1284.34C1250.45 1283.15 1252.72 1278.4 1253.91 1274.04L1256.43 1275.12C1254.88 1279.59 1252.61 1284.34 1250.34 1287.65V1287.76C1250.34 1287.76 1248.76 1288.59 1248.76 1289.16ZM1248.76 1289.16L1248.69 1287.18L1249.95 1286.39L1256.21 1285.74C1256.1 1286.43 1256 1287.4 1256.03 1287.9C1250.31 1288.66 1249.34 1288.88 1248.76 1289.16ZM1248.08 1302.34C1250.7 1301.48 1254.63 1300.04 1258.62 1298.6L1259.06 1300.68C1255.42 1302.23 1251.64 1303.78 1248.72 1304.97L1248.08 1302.34ZM1261.18 1294.2V1292.04L1262.73 1291.22H1279.25V1293.7H1264.38C1262.69 1293.7 1261.5 1293.88 1261.18 1294.2ZM1259.34 1278.33H1280.01V1280.81H1259.34V1278.33ZM1261.18 1294.2C1261.07 1293.7 1260.64 1292.48 1260.32 1291.79C1261 1291.61 1261.61 1290.35 1262.37 1288.52C1263.12 1286.79 1265.54 1280.02 1266.69 1273.94L1269.35 1274.44C1267.84 1280.92 1265.5 1287.8 1263.12 1292.66V1292.73C1263.12 1292.73 1261.18 1293.66 1261.18 1294.2ZM1274.36 1296.9L1276.55 1295.9C1278.14 1298.45 1280.12 1301.94 1281.09 1303.96L1278.78 1305.15C1277.88 1303.1 1275.94 1299.53 1274.36 1296.9ZM1269.17 1284.3H1271.8V1304.07C1271.8 1305.58 1271.48 1306.3 1270.47 1306.73C1269.42 1307.16 1267.77 1307.16 1265.28 1307.16C1265.14 1306.48 1264.78 1305.44 1264.46 1304.72C1266.29 1304.75 1267.98 1304.75 1268.52 1304.72C1269.03 1304.68 1269.17 1304.54 1269.17 1304.07V1284.3ZM1263.34 1295.9L1265.86 1296.62C1264.46 1299.6 1262.3 1303.13 1260.06 1305.44C1259.6 1304.97 1258.7 1304.32 1258.16 1303.96C1260.24 1301.8 1262.3 1298.49 1263.34 1295.9ZM1259.96 1284.3H1270.9V1286.79H1259.96V1284.3ZM1283.86 1293.34H1301.54V1295.61H1283.86V1293.34ZM1284.08 1280.78H1301.43V1282.97H1284.08V1280.78ZM1290.56 1290.24L1293.08 1290.78C1291.46 1294.31 1289.19 1298.7 1287.53 1301.55L1285.16 1300.72C1286.78 1297.98 1289.04 1293.56 1290.56 1290.24ZM1295.96 1294.67L1298.48 1295C1297.25 1302.02 1293.47 1305.47 1285.16 1307.24C1284.98 1306.52 1284.44 1305.54 1283.93 1305C1291.46 1303.74 1294.84 1300.79 1295.96 1294.67ZM1298.22 1274.84L1300.53 1275.84C1299.48 1277.5 1298.3 1279.3 1297.29 1280.52L1295.49 1279.62C1296.39 1278.33 1297.58 1276.24 1298.22 1274.84ZM1291.53 1274.12H1294.01V1290.68H1291.53V1274.12ZM1285.41 1275.84L1287.46 1274.98C1288.47 1276.42 1289.44 1278.33 1289.8 1279.62L1287.68 1280.6C1287.35 1279.3 1286.42 1277.32 1285.41 1275.84ZM1291.56 1281.75L1293.4 1282.83C1291.64 1285.85 1288.25 1289.06 1285.16 1290.75C1284.83 1290.14 1284.18 1289.24 1283.68 1288.7C1286.67 1287.4 1289.98 1284.52 1291.56 1281.75ZM1293.72 1283.01C1295.02 1283.69 1299.41 1286.46 1300.46 1287.22L1298.98 1289.2C1297.68 1287.98 1293.94 1285.17 1292.43 1284.16L1293.72 1283.01ZM1304.16 1280.78H1316.98V1283.3H1304.16V1280.78ZM1305.06 1274.12L1307.8 1274.51C1306.61 1281.57 1304.49 1288.01 1301.32 1292.22C1300.89 1291.72 1299.77 1290.82 1299.12 1290.39C1302.18 1286.57 1304.06 1280.49 1305.06 1274.12ZM1312.16 1282.22L1314.89 1282.5C1313.16 1294.92 1309.35 1302.66 1300.28 1307.34C1299.99 1306.7 1299.2 1305.51 1298.66 1304.93C1307.22 1300.9 1310.68 1293.63 1312.16 1282.22ZM1305.6 1283.01C1307.19 1292.91 1310.64 1301.4 1317.34 1304.93C1316.69 1305.47 1315.83 1306.52 1315.43 1307.24C1308.38 1303.1 1304.96 1294.31 1303.16 1283.4L1305.6 1283.01ZM1287.32 1300.22L1288.76 1298.38C1293.08 1300.04 1297.54 1302.41 1300.13 1304.39L1298.26 1306.34C1295.78 1304.32 1291.49 1301.91 1287.32 1300.22ZM1207.94 1319.7H1225.68V1329.02H1208.01V1326.68H1223.09V1322.08H1207.94V1319.7ZM1206.68 1319.7H1209.3V1330.61C1209.3 1336.66 1208.76 1345.44 1204.8 1351.24C1204.34 1350.77 1203.22 1349.98 1202.57 1349.72C1206.32 1344.18 1206.68 1336.33 1206.68 1330.61V1319.7ZM1208.12 1332.98H1226.91V1335.36H1208.12V1332.98ZM1211 1347.56H1224.32V1349.8H1211V1347.56ZM1216.29 1328.74H1218.88V1340.83H1216.29V1328.74ZM1209.84 1339.82H1225.79V1351.13H1223.31V1342.13H1212.26V1351.27H1209.84V1339.82ZM1193.5 1337.27C1196.31 1336.48 1200.59 1335.18 1204.73 1333.85L1205.09 1336.33C1201.28 1337.59 1197.28 1338.89 1194.18 1339.9L1193.5 1337.27ZM1193.93 1325.39H1205.06V1327.91H1193.93V1325.39ZM1198.47 1318.15H1200.95V1347.89C1200.95 1349.36 1200.63 1350.08 1199.73 1350.52C1198.9 1350.95 1197.5 1351.02 1195.23 1351.02C1195.12 1350.37 1194.8 1349.26 1194.44 1348.5C1196.02 1348.54 1197.39 1348.54 1197.82 1348.54C1198.25 1348.54 1198.47 1348.39 1198.47 1347.85V1318.15Z" fill="#292C33"/>
<path d="M1641 1209C1641 1207.9 1641.9 1207 1643 1207H1993C1994.1 1207 1995 1207.9 1995 1209V1382C1995 1383.1 1994.1 1384 1993 1384H1643C1641.9 1384 1641 1383.1 1641 1382V1209ZM1676.4 1242.4H1995H1676.4Z" fill="white"/>
<path d="M1676.4 1242.4V1207M1676.4 1242.4H1641M1676.4 1242.4V1384M1676.4 1242.4H1995M1643 1384H1993C1994.1 1384 1995 1383.1 1995 1382V1209C1995 1207.9 1994.1 1207 1993 1207H1643C1641.9 1207 1641 1207.9 1641 1209V1382C1641 1383.1 1641.9 1384 1643 1384Z" stroke="#292C33" stroke-width="1.5"/>
<path d="M1762.76 1270.78H1790.45V1273.26H1762.76V1270.78ZM1761.22 1270.78H1763.88V1281.22C1763.88 1287.16 1763.38 1295.9 1760.06 1301.81C1759.56 1301.38 1758.41 1300.69 1757.72 1300.44C1760.89 1294.79 1761.22 1286.83 1761.22 1281.18V1270.78ZM1769.78 1284.24V1287.62H1784.76V1284.24H1769.78ZM1769.78 1278.95V1282.22H1784.76V1278.95H1769.78ZM1767.12 1276.79H1787.5V1289.75H1767.12V1276.79ZM1775.9 1288.42H1778.53V1298.96C1778.53 1300.4 1778.21 1301.12 1777.16 1301.48C1776.05 1301.92 1774.28 1301.92 1771.51 1301.92C1771.4 1301.2 1771.01 1300.22 1770.68 1299.5C1772.81 1299.58 1774.64 1299.58 1775.18 1299.54C1775.76 1299.54 1775.9 1299.36 1775.9 1298.93V1288.42ZM1775.62 1272.72L1778.75 1273.04C1778.21 1274.92 1777.56 1276.9 1777.02 1278.19L1774.36 1277.83C1774.82 1276.39 1775.4 1274.2 1775.62 1272.72ZM1781.63 1292.81L1783.68 1291.48C1786.42 1293.56 1789.62 1296.59 1791.06 1298.71L1788.86 1300.22C1787.46 1298.1 1784.36 1294.97 1781.63 1292.81ZM1769.82 1291.62L1772.45 1292.34C1770.54 1295.4 1767.7 1298.42 1765.07 1300.37C1764.56 1299.9 1763.48 1299.14 1762.84 1298.78C1765.5 1297.02 1768.16 1294.28 1769.82 1291.62ZM1811.51 1297.85H1824.07V1300.3H1811.51V1297.85ZM1810.1 1287.3H1825.48V1301.77H1822.81V1289.78H1812.7V1301.92H1810.1V1287.3ZM1807.66 1281.25C1811.9 1281.04 1818.6 1280.68 1825.01 1280.24L1824.97 1282.66C1818.89 1283.12 1812.44 1283.63 1807.98 1283.92L1807.66 1281.25ZM1819.57 1275.46L1821.73 1274.34C1824.14 1277.33 1826.63 1281.36 1827.6 1284.02L1825.22 1285.32C1824.36 1282.62 1821.95 1278.52 1819.57 1275.46ZM1814.68 1268.76L1817.63 1269.37C1816.15 1273.76 1814.1 1279.27 1812.41 1282.69L1810.1 1282.04C1811.72 1278.55 1813.67 1272.79 1814.68 1268.76ZM1794.05 1276.21H1805.93V1278.77H1794.05V1276.21ZM1799.52 1268.76L1802.11 1269.05C1800.64 1276.25 1798.33 1285.97 1796.64 1291.98L1794.41 1290.76C1796.03 1285.28 1798.26 1275.6 1799.52 1268.76ZM1795.85 1289.68L1797.36 1287.77C1801.39 1290.04 1806.18 1293.49 1808.34 1296.16L1806.68 1298.35C1804.56 1295.65 1799.88 1292.02 1795.85 1289.68ZM1804.88 1276.21H1805.35L1805.82 1276.14L1807.44 1276.46C1806.47 1290.4 1802.58 1298.03 1795.96 1301.99C1795.56 1301.34 1794.84 1300.37 1794.26 1299.83C1800.24 1296.66 1804.02 1288.99 1804.88 1276.79V1276.21ZM1829.9 1287.98H1847.58V1290.25H1829.9V1287.98ZM1830.12 1275.42H1847.47V1277.62H1830.12V1275.42ZM1836.6 1284.89L1839.12 1285.43C1837.5 1288.96 1835.23 1293.35 1833.58 1296.19L1831.2 1295.36C1832.82 1292.63 1835.09 1288.2 1836.6 1284.89ZM1842 1289.32L1844.52 1289.64C1843.3 1296.66 1839.52 1300.12 1831.2 1301.88C1831.02 1301.16 1830.48 1300.19 1829.98 1299.65C1837.5 1298.39 1840.88 1295.44 1842 1289.32ZM1844.27 1269.48L1846.57 1270.49C1845.53 1272.14 1844.34 1273.94 1843.33 1275.17L1841.53 1274.27C1842.43 1272.97 1843.62 1270.88 1844.27 1269.48ZM1837.57 1268.76H1840.06V1285.32H1837.57V1268.76ZM1831.45 1270.49L1833.5 1269.62C1834.51 1271.06 1835.48 1272.97 1835.84 1274.27L1833.72 1275.24C1833.4 1273.94 1832.46 1271.96 1831.45 1270.49ZM1837.61 1276.39L1839.44 1277.47C1837.68 1280.5 1834.3 1283.7 1831.2 1285.39C1830.88 1284.78 1830.23 1283.88 1829.72 1283.34C1832.71 1282.04 1836.02 1279.16 1837.61 1276.39ZM1839.77 1277.65C1841.06 1278.34 1845.46 1281.11 1846.5 1281.86L1845.02 1283.84C1843.73 1282.62 1839.98 1279.81 1838.47 1278.8L1839.77 1277.65ZM1850.21 1275.42H1863.02V1277.94H1850.21V1275.42ZM1851.11 1268.76L1853.84 1269.16C1852.66 1276.21 1850.53 1282.66 1847.36 1286.87C1846.93 1286.36 1845.82 1285.46 1845.17 1285.03C1848.23 1281.22 1850.1 1275.13 1851.11 1268.76ZM1858.2 1276.86L1860.94 1277.15C1859.21 1289.57 1855.39 1297.31 1846.32 1301.99C1846.03 1301.34 1845.24 1300.15 1844.7 1299.58C1853.27 1295.54 1856.72 1288.27 1858.2 1276.86ZM1851.65 1277.65C1853.23 1287.55 1856.69 1296.05 1863.38 1299.58C1862.74 1300.12 1861.87 1301.16 1861.48 1301.88C1854.42 1297.74 1851 1288.96 1849.2 1278.05L1851.65 1277.65ZM1833.36 1294.86L1834.8 1293.02C1839.12 1294.68 1843.58 1297.06 1846.18 1299.04L1844.3 1300.98C1841.82 1298.96 1837.54 1296.55 1833.36 1294.86ZM1879.98 1270.34H1897.73V1279.67H1880.05V1277.33H1895.14V1272.72H1879.98V1270.34ZM1878.72 1270.34H1881.35V1281.25C1881.35 1287.3 1880.81 1296.08 1876.85 1301.88C1876.38 1301.41 1875.26 1300.62 1874.62 1300.37C1878.36 1294.82 1878.72 1286.98 1878.72 1281.25V1270.34ZM1880.16 1283.63H1898.95V1286H1880.16V1283.63ZM1883.04 1298.21H1896.36V1300.44H1883.04V1298.21ZM1888.33 1279.38H1890.92V1291.48H1888.33V1279.38ZM1881.89 1290.47H1897.84V1301.77H1895.35V1292.77H1884.3V1301.92H1881.89V1290.47ZM1865.54 1287.91C1868.35 1287.12 1872.64 1285.82 1876.78 1284.49L1877.14 1286.98C1873.32 1288.24 1869.32 1289.53 1866.23 1290.54L1865.54 1287.91ZM1865.98 1276.03H1877.1V1278.55H1865.98V1276.03ZM1870.51 1268.8H1873V1298.53C1873 1300.01 1872.67 1300.73 1871.77 1301.16C1870.94 1301.59 1869.54 1301.66 1867.27 1301.66C1867.16 1301.02 1866.84 1299.9 1866.48 1299.14C1868.06 1299.18 1869.43 1299.18 1869.86 1299.18C1870.3 1299.18 1870.51 1299.04 1870.51 1298.5V1268.8ZM1745.52 1329.32C1745.52 1322.3 1748.36 1316.61 1752.68 1312.22L1754.84 1313.34C1750.67 1317.62 1748.11 1322.91 1748.11 1329.32C1748.11 1335.76 1750.67 1341.06 1754.84 1345.34L1752.68 1346.46C1748.36 1342.06 1745.52 1336.38 1745.52 1329.32ZM1764.17 1325.68H1785.08V1328.2H1764.17V1325.68ZM1764.17 1333.5H1785.08V1336.02H1764.17V1333.5ZM1764.17 1341.38H1785.08V1343.9H1764.17V1341.38ZM1762.33 1317.69H1787.17V1345.74H1784.36V1320.28H1765.07V1345.92H1762.33V1317.69ZM1772.88 1312.72L1776.01 1313.12C1775.22 1315.28 1774.28 1317.62 1773.49 1319.17L1771.08 1318.7C1771.73 1317.01 1772.52 1314.49 1772.88 1312.72ZM1810.5 1320.43H1826.41V1322.98H1810.5V1320.43ZM1819.03 1321.36C1820.22 1327.63 1822.81 1332.56 1827.46 1334.86C1826.84 1335.4 1826.02 1336.41 1825.62 1337.17C1820.72 1334.32 1818.06 1328.92 1816.73 1321.8L1819.03 1321.36ZM1799.09 1321.04L1800.31 1319.46C1802.72 1320.54 1805.68 1322.26 1807.19 1323.45L1805.93 1325.25C1804.45 1323.99 1801.46 1322.19 1799.09 1321.04ZM1820.22 1314.45L1822.16 1313.34C1823.71 1314.81 1825.48 1316.9 1826.27 1318.3L1824.22 1319.6C1823.42 1318.2 1821.73 1316 1820.22 1314.45ZM1795.88 1325.07L1797.4 1323.6C1799.77 1324.96 1802.72 1326.94 1804.2 1328.38L1802.62 1330C1801.18 1328.56 1798.3 1326.48 1795.88 1325.07ZM1801.68 1312.51L1804.27 1313.19C1802.36 1318.12 1799.16 1323.6 1795.09 1327.05C1794.62 1326.51 1793.8 1325.72 1793.22 1325.29C1797.11 1322.12 1800.2 1316.94 1801.68 1312.51ZM1808.41 1316H1808.95L1809.46 1315.89L1811.15 1316.61C1808.88 1327.41 1803.3 1334.07 1796.39 1337.49C1796.06 1336.84 1795.09 1335.8 1794.52 1335.37C1801.25 1332.31 1806.54 1326.19 1808.41 1316.54V1316ZM1804.92 1338.93L1807.4 1338.68C1807.87 1340.8 1808.27 1343.54 1808.3 1345.2L1805.64 1345.59C1805.64 1343.9 1805.35 1341.09 1804.92 1338.93ZM1812.26 1338.93L1814.78 1338.5C1815.76 1340.55 1816.73 1343.36 1817.09 1345.05L1814.42 1345.63C1814.1 1343.9 1813.2 1341.09 1812.26 1338.93ZM1819.64 1338.72L1822.16 1337.85C1824 1340.01 1826.09 1343.04 1827.06 1344.98L1824.36 1345.95C1823.5 1344.04 1821.44 1340.95 1819.64 1338.72ZM1798.55 1338L1801.1 1338.64C1800.24 1341.31 1798.69 1344.19 1796.78 1345.92L1794.34 1344.87C1796.1 1343.32 1797.72 1340.62 1798.55 1338ZM1801.61 1316H1809.38V1318.23H1800.24L1801.61 1316ZM1816.37 1313.19H1818.96V1320.21C1818.96 1325.97 1817.74 1332.38 1809.31 1336.92C1808.88 1336.3 1808.05 1335.51 1807.4 1335.01C1815.4 1330.8 1816.37 1325.04 1816.37 1320.21V1313.19ZM1841.28 1314.09H1861.76V1316.5H1841.28V1314.09ZM1840.02 1327.81H1862.95V1330.29H1840.02V1327.81ZM1843.01 1333.24H1860.54V1345.77H1857.88V1335.66H1845.56V1345.88H1843.01V1333.24ZM1844.27 1342.1H1858.96V1344.48H1844.27V1342.1ZM1848.8 1315.03L1851.54 1315.32C1850.68 1319.82 1849.31 1325.76 1848.41 1329.21H1845.6C1846.68 1325.58 1848.05 1319.46 1848.8 1315.03ZM1842.54 1320.54H1857.48V1322.91H1842.54V1320.54ZM1856.87 1320.54H1857.12L1857.55 1320.39L1859.42 1320.57C1859.24 1323.31 1858.88 1326.58 1858.56 1329.1L1856 1328.92C1856.36 1326.33 1856.72 1322.77 1856.87 1320.86V1320.54ZM1831.99 1315.42L1833.76 1313.77C1835.66 1315.35 1838.15 1317.66 1839.26 1319.13L1837.46 1321.04C1836.31 1319.49 1833.94 1317.12 1831.99 1315.42ZM1830.08 1324.06H1836.53V1326.66H1830.08V1324.06ZM1835.2 1344.8L1834.76 1342.32L1835.56 1341.2L1841.93 1336.95C1842.07 1337.67 1842.43 1338.72 1842.68 1339.26C1836.67 1343.43 1835.7 1344.15 1835.2 1344.8ZM1835.2 1344.8C1834.94 1344.15 1834.26 1342.96 1833.79 1342.39C1834.33 1342.03 1835.09 1341.24 1835.09 1339.76V1324.06H1837.64V1342.14C1837.64 1342.14 1835.2 1343.83 1835.2 1344.8ZM1873.07 1342.03H1892.11V1344.33H1873.07V1342.03ZM1871.99 1329.57H1892.98V1331.8H1871.99V1329.57ZM1871.99 1324.68H1892.98V1326.91H1871.99V1324.68ZM1866.44 1319.64H1898.74V1322.01H1866.44V1319.64ZM1872.56 1314.78H1892.47V1316.97H1872.56V1314.78ZM1871.59 1334.54H1893.48V1345.77H1890.71V1336.88H1874.22V1345.88H1871.59V1334.54ZM1911.44 1329.32C1911.44 1336.38 1908.6 1342.06 1904.28 1346.46L1902.12 1345.34C1906.3 1341.06 1908.85 1335.76 1908.85 1329.32C1908.85 1322.91 1906.3 1317.62 1902.12 1313.34L1904.28 1312.22C1908.6 1316.61 1911.44 1322.3 1911.44 1329.32Z" fill="#292C33"/>
<path d="M1432.13 1271.74H1446.06V1273.65H1432.13V1271.74ZM1428.31 1254.06H1449.41V1256.15H1428.31V1254.06ZM1429.21 1258.42H1448.54V1260.36H1429.21V1258.42ZM1427.12 1262.85H1450.6V1264.94H1427.12V1262.85ZM1432.13 1276.38H1446.17V1278.36H1432.13V1276.38ZM1430.44 1266.99H1446.31V1269.11H1432.96V1284.84H1430.44V1266.99ZM1445.23 1266.99H1447.79V1281.86C1447.79 1283.26 1447.54 1283.98 1446.53 1284.34C1445.48 1284.74 1443.86 1284.74 1441.34 1284.74C1441.24 1284.09 1440.88 1283.08 1440.52 1282.43C1442.35 1282.47 1444.08 1282.47 1444.55 1282.43C1445.05 1282.43 1445.23 1282.29 1445.23 1281.82V1266.99ZM1437.31 1251.76H1439.98V1264.11H1437.31V1251.76ZM1419.13 1254.03L1420.64 1252.08C1422.91 1253.06 1425.72 1254.68 1427.12 1255.94L1425.58 1258.13C1424.21 1256.84 1421.44 1255.11 1419.13 1254.03ZM1417.33 1263.82L1418.81 1261.8C1421.11 1262.67 1424.03 1264.22 1425.47 1265.4L1423.92 1267.64C1422.52 1266.41 1419.67 1264.79 1417.33 1263.82ZM1418.41 1282.65C1420.25 1279.88 1422.88 1275.09 1424.82 1270.98L1426.87 1272.64C1425.11 1276.46 1422.73 1281.03 1420.75 1284.38L1418.41 1282.65ZM1462.98 1266.7H1486.56V1269.29H1462.98V1266.7ZM1467.34 1257.7H1485.12V1260.26H1467.34V1257.7ZM1473.6 1251.8H1476.26V1268.1H1473.6V1251.8ZM1467.66 1252.34L1470.36 1252.8C1469.39 1257.81 1467.66 1262.56 1465.46 1265.66C1464.92 1265.26 1463.77 1264.54 1463.09 1264.22C1465.28 1261.34 1466.83 1256.87 1467.66 1252.34ZM1476.7 1268.32H1479.32V1280.81C1479.32 1281.82 1479.47 1282 1480.44 1282C1480.84 1282 1482.89 1282 1483.43 1282C1484.36 1282 1484.54 1281.28 1484.65 1276.56C1485.23 1277.03 1486.31 1277.46 1487.03 1277.68C1486.78 1283.01 1486.16 1284.45 1483.68 1284.45C1483.1 1284.45 1480.58 1284.45 1480.04 1284.45C1477.38 1284.45 1476.7 1283.66 1476.7 1280.81V1268.32ZM1469.35 1268.68H1472.05C1471.58 1276.78 1470.29 1282 1463.02 1284.92C1462.69 1284.27 1461.94 1283.3 1461.36 1282.79C1468.02 1280.34 1468.99 1275.81 1469.35 1268.68ZM1455.06 1254.03L1456.68 1252.19C1458.84 1253.27 1461.54 1255.04 1462.84 1256.33L1461.18 1258.42C1459.92 1257.09 1457.26 1255.22 1455.06 1254.03ZM1453.37 1263.75L1454.88 1261.77C1457.11 1262.81 1459.92 1264.5 1461.29 1265.73L1459.74 1267.92C1458.37 1266.63 1455.6 1264.86 1453.37 1263.75ZM1454.38 1282.79C1456.07 1279.98 1458.44 1275.2 1460.17 1271.09L1462.19 1272.64C1460.64 1276.49 1458.52 1281.06 1456.75 1284.45L1454.38 1282.79ZM1497.83 1284.02C1495.49 1281.17 1492.39 1278.11 1489.84 1276.02L1492.18 1273.97C1494.77 1276.06 1498.01 1279.3 1500.28 1281.93L1497.83 1284.02ZM1525.62 1255.97H1538.98V1258.49H1525.62V1255.97ZM1532.75 1261.59H1535.34V1284.77H1532.75V1261.59ZM1525.4 1276.02C1529.08 1275.45 1534.69 1274.48 1540.06 1273.5L1540.2 1275.88C1535.16 1276.85 1529.9 1277.93 1525.98 1278.65L1525.4 1276.02ZM1526.88 1270.08C1526.77 1269.54 1526.38 1268.36 1526.05 1267.71C1526.66 1267.53 1527.2 1266.38 1527.85 1264.79C1528.5 1263.28 1530.59 1257.23 1531.42 1251.8L1534.08 1252.34C1532.78 1258.13 1530.62 1264.32 1528.5 1268.61V1268.64C1528.5 1268.64 1526.88 1269.54 1526.88 1270.08ZM1526.88 1270.08V1267.82L1528.36 1267.1H1539.05V1269.58H1529.54C1528.28 1269.58 1527.2 1269.8 1526.88 1270.08ZM1544.23 1269.47H1555V1272.03H1544.23V1269.47ZM1554.35 1269.47H1554.82L1555.21 1269.33L1557.12 1270.26C1555.14 1273.25 1552.22 1277.21 1549.7 1280.42L1547.36 1279.34C1549.85 1276.24 1552.84 1272.06 1554.35 1269.8V1269.47ZM1543.12 1277.32L1544.84 1275.59C1548.55 1277.72 1552.8 1280.74 1554.92 1282.83L1553.16 1284.95C1551.04 1282.83 1546.75 1279.48 1543.12 1277.32ZM1548.3 1251.8L1550.96 1252.16C1549.34 1258.49 1546.97 1267.13 1545.35 1272.03H1542.43C1544.27 1266.92 1546.79 1258.1 1548.3 1251.8ZM1540.7 1256.01H1557.19V1258.53H1540.7V1256.01ZM1539.34 1262.78H1558.49V1265.3H1539.34V1262.78ZM1563.6 1253.96L1565.65 1252.59C1567.24 1254.46 1569.14 1257.02 1569.97 1258.6L1567.78 1260.22C1566.98 1258.53 1565.15 1255.86 1563.6 1253.96ZM1566.48 1284.02L1565.94 1281.5L1566.62 1280.38L1572.24 1276.24C1572.49 1276.96 1572.96 1277.97 1573.25 1278.47C1567.85 1282.58 1566.95 1283.33 1566.48 1284.02ZM1561.66 1263.03H1568.46V1265.66H1561.66V1263.03ZM1573.28 1253.7H1590.82V1256.12H1573.28V1253.7ZM1590.06 1253.7H1590.56L1591.03 1253.56L1592.76 1254.57C1589.09 1261.91 1580.88 1266.59 1572.96 1268.82C1572.67 1268.14 1572.02 1267.06 1571.52 1266.48C1579.01 1264.68 1587 1260.29 1590.06 1254.14V1253.7ZM1577.75 1254.82C1580.84 1260.47 1587.25 1264.54 1594.99 1266.16C1594.42 1266.7 1593.66 1267.74 1593.3 1268.43C1585.49 1266.48 1579.04 1262.06 1575.62 1255.61L1577.75 1254.82ZM1574.8 1270.37H1591.86V1272.78H1574.8V1270.37ZM1572.85 1276.64H1594.2V1279.05H1572.85V1276.64ZM1581.96 1267.2H1584.66V1284.95H1581.96V1267.2ZM1566.48 1284.02C1566.19 1283.44 1565.44 1282.47 1564.97 1282.07C1565.62 1281.53 1566.73 1280.27 1566.73 1278.51V1263.03H1569.32V1280.49C1569.32 1280.49 1566.48 1282.94 1566.48 1284.02Z" fill="black"/>
<path d="M872 1295.39V1294.64C871.586 1294.64 871.25 1294.97 871.25 1295.39H872ZM872 1295.4V1296.15C872.414 1296.15 872.75 1295.81 872.75 1295.4H872ZM728 1295.4L735.5 1299.73V1291.07L728 1295.4ZM1016 1294.64H872V1296.14H1016V1294.64ZM871.25 1295.39V1295.4H872.75V1295.39H871.25ZM872 1294.65H734.75V1296.15H872V1294.65Z" fill="#292C33"/>
<path d="M1505.28 1295.5H1504.53C1504.53 1295.91 1504.86 1296.25 1505.28 1296.25V1295.5ZM1505.28 1295.39H1506.03C1506.03 1294.97 1505.69 1294.64 1505.28 1294.64V1295.39ZM1369.55 1295.39L1377.05 1299.72V1291.06L1369.55 1295.39ZM1641 1294.75H1505.28V1296.25H1641V1294.75ZM1506.03 1295.5V1295.39H1504.53V1295.5H1506.03ZM1505.28 1294.64H1376.3V1296.14H1505.28V1294.64Z" fill="#292C33"/>
<path d="M549 1388L544.67 1395.5H553.33L549 1388ZM549.75 1559V1394.75H548.25V1559H549.75Z" fill="#292C33"/>
<path d="M585.6 1465.92H596.4V1468.48H588.228V1496.92H585.6V1465.92ZM566.412 1467.76H583.62V1470.17H566.412V1467.76ZM565.476 1477.73H584.088V1480.21H565.476V1477.73ZM573.648 1463.9H576.276V1469.23H573.648V1463.9ZM568.644 1471.43L570.912 1470.92C571.704 1472.72 572.388 1475.14 572.604 1476.72L570.192 1477.3C570.012 1475.71 569.4 1473.26 568.644 1471.43ZM578.976 1470.67L581.568 1471.28C580.776 1473.41 579.912 1475.82 579.12 1477.4L576.96 1476.83C577.68 1475.17 578.544 1472.51 578.976 1470.67ZM568.86 1492.42H580.704V1494.83H568.86V1492.42ZM567.888 1483.34H582.072V1496.74H579.48V1485.76H570.408V1496.92H567.888V1483.34ZM595.68 1465.92H596.22L596.652 1465.81L598.632 1467.07C597.156 1470.46 595.284 1474.63 593.628 1477.94C597.264 1481.29 598.128 1484.14 598.164 1486.73C598.164 1488.92 597.66 1490.62 596.4 1491.48C595.752 1491.88 594.96 1492.13 594.024 1492.27C593.124 1492.38 591.936 1492.34 590.892 1492.31C590.856 1491.55 590.604 1490.4 590.136 1489.64C591.18 1489.72 592.224 1489.75 592.944 1489.72C593.556 1489.68 594.06 1489.54 594.492 1489.28C595.284 1488.82 595.536 1487.77 595.536 1486.44C595.5 1484.17 594.456 1481.47 590.82 1478.3C592.656 1474.6 594.6 1469.63 595.68 1466.78V1465.92ZM623.4 1467.18V1470.67H629.484V1467.18H623.4ZM614.904 1467.18V1470.67H620.88V1467.18H614.904ZM606.66 1467.18V1470.67H612.42V1467.18H606.66ZM604.068 1465.2H632.148V1472.65H604.068V1465.2ZM602.016 1480.07H634.056V1482.3H602.016V1480.07ZM605.616 1475.17H626.352V1477.33H605.616V1475.17ZM610.944 1489.14H629.196V1491.01H610.944V1489.14ZM610.872 1493.64H629.16V1495.69H610.872V1493.64ZM630.024 1473.88L632.184 1475.24C625.128 1482.19 613.572 1486.8 602.592 1489.5C602.34 1488.92 601.656 1487.74 601.224 1487.2C612.204 1484.82 623.58 1480.32 630.024 1473.88ZM615.588 1472.65H618.216V1481.11H615.588V1472.65ZM612.096 1484.75H629.412V1486.76H612.096V1496.84H609.576V1486.3L611.124 1484.75H612.096ZM628.116 1484.75H630.708V1496.77H628.116V1484.75Z" fill="black"/>
</svg>
