<svg width="201" height="207" viewBox="0 0 201 207" fill="none" xmlns="http://www.w3.org/2000/svg">
<g clip-path="url(#clip0_5034_70)">
<path d="M49.6243 30.472C13.1339 89.059 10.4268 156 21.9267 174C33.4266 192 40.1541 196.586 50.9271 201.5C56.5828 204.08 141.51 203.996 151.427 200C161.345 196.004 157.427 198 177.927 178.5C198.427 159 184.93 85.1719 147.149 38.4632L139.986 49.9506L92.6016 5L59.1555 48.053L49.6243 30.472Z" fill="#F000D8" stroke="#F000D8" stroke-width="5"/>
<path d="M66.6931 205.999H134.538C141.324 205.999 166.087 206.68 183.727 175.318C201.366 143.956 158.285 62.8215 149.804 66.2307L126.058 79.8666C107.062 73.0488 81.9592 77.0258 71.7825 79.8666C55.4997 60.7763 49.1668 62.8217 48.0357 66.2307C32.2052 93.5025 6.73445 151.905 19.2972 175.318C31.8914 198.79 46.3558 205.999 66.6931 205.999Z" fill="black"/>
<path d="M50.8428 123.931C53.55 112.418 68.9095 101.288 77.3199 123.931C87.8329 152.234 43.0554 157.051 50.8428 123.931Z" stroke="#F000D8" stroke-width="5"/>
<path d="M127.968 120.507C130.443 108.708 146.035 95.1269 154.445 120.507C164.958 152.232 120.18 157.632 127.968 120.507Z" stroke="#F000D8" stroke-width="5"/>
<path d="M47.5412 108.866C58.8464 112.79 82.2486 120.427 85.4156 119.578" stroke="black" stroke-width="17"/>
<path d="M158.764 108.866C147.458 112.79 124.056 120.427 120.889 119.578" stroke="black" stroke-width="17"/>
<path d="M47.8185 109.073C59.1237 112.997 82.594 118.578 85.6929 119.785" stroke="#F000D8" stroke-width="4"/>
<path d="M159.041 109.073C147.736 112.997 126.478 118.578 121.166 119.785" stroke="#F000D8" stroke-width="4"/>
<path d="M83.9277 167C85.8027 172.85 92.0277 181.645 101.928 170.026C104.928 174.665 112.728 181.039 119.928 169.421" stroke="#F000D8" stroke-width="5"/>
<path d="M6.44865 138.718C5.18831 138.154 3.70952 138.719 3.14569 139.979C2.58185 141.239 3.14648 142.718 4.40682 143.282L6.44865 138.718ZM25.4486 147.218L6.44865 138.718L4.40682 143.282L23.4068 151.782L25.4486 147.218Z" fill="black"/>
<rect x="121.512" y="101.986" width="27.4648" height="6.94336" fill="black"/>
<line x1="2.5" y1="159.625" x2="20.6758" y2="159.625" stroke="black" stroke-width="5" stroke-linecap="round"/>
<line x1="180.75" y1="160.162" x2="198.926" y2="160.162" stroke="black" stroke-width="5" stroke-linecap="round"/>
<line x1="181.356" y1="171.41" x2="193.642" y2="178.099" stroke="black" stroke-width="5" stroke-linecap="round"/>
<path d="M180.424 147.247L193.954 141.252" stroke="black" stroke-width="5" stroke-linecap="round"/>
</g>
<defs>
<clipPath id="clip0_5034_70">
<rect width="201" height="207" fill="white"/>
</clipPath>
</defs>
</svg>
