<svg width="1629" height="1101" viewBox="0 0 1629 1101" fill="none" xmlns="http://www.w3.org/2000/svg">
<g clip-path="url(#clip0_5311_464)">
<rect width="1101" height="1629" transform="translate(1629) rotate(90)" fill="#D6E0FF"/>
<mask id="path-1-outside-1_5311_464" maskUnits="userSpaceOnUse" x="504.523" y="323.307" width="634" height="448" fill="black">
<rect fill="white" x="504.523" y="323.307" width="634" height="448"/>
<path fill-rule="evenodd" clip-rule="evenodd" d="M588.753 517.074V358.314H510.489V325.307H703.505V358.314H626.47V517.074H588.753ZM727.751 517.074V325.307H765.193V401.686H884.196V325.307H921.638V517.074H884.196V434.42H765.193V517.074H727.751ZM954.54 325.307V517.074H982.071H991.982H1116.21V484.34H991.982V434.966H1106.57V403.323H991.982V358.041H1114.83V325.307H991.982H982.071H954.54ZM1057.71 768.959C1042.8 768.959 1028.94 766.392 1016.16 761.258C1003.37 755.934 992.131 748.614 982.444 739.297C972.95 729.79 965.588 718.762 960.357 706.212C955.32 693.663 952.801 680.163 952.801 665.712C952.801 651.262 955.32 637.762 960.357 625.212C965.588 612.663 972.95 601.73 982.444 592.413C992.131 583.096 1003.27 575.776 1015.86 570.452C1028.65 565.128 1042.6 562.466 1057.71 562.466C1073.99 562.466 1088.33 565.128 1100.73 570.452C1113.12 575.585 1124.07 582.716 1133.57 591.843L1106.83 618.082C1101.21 611.997 1094.33 607.244 1086.19 603.821C1078.06 600.399 1068.56 598.688 1057.71 598.688C1048.22 598.688 1039.5 600.304 1031.56 603.536C1023.81 606.578 1017.03 611.142 1011.21 617.226C1005.4 623.121 1000.95 630.251 997.847 638.617C994.747 646.793 993.197 655.825 993.197 665.712C993.197 675.79 994.747 684.917 997.847 693.093C1000.95 701.269 1005.4 708.399 1011.21 714.483C1017.03 720.378 1023.81 724.941 1031.56 728.174C1039.5 731.406 1048.22 733.022 1057.71 733.022C1069.14 733.022 1078.93 731.311 1087.07 727.888C1095.4 724.466 1102.37 719.617 1107.99 713.343L1134.73 739.582C1125.23 748.899 1114.19 756.124 1101.6 761.258C1089 766.392 1074.38 768.959 1057.71 768.959ZM729.291 568.283V768.959H767.626V649.456L815.827 727.853H841.76L890.243 648.998V768.959H928.296V568.283H901.236L828.921 685.869L756.351 568.283H729.291ZM506.523 568.283V768.959H544.716V649.457L592.737 727.853H618.573L666.875 648.998V768.959H704.786V568.283H677.827L605.782 685.869L533.483 568.283H506.523Z"/>
</mask>
<path fill-rule="evenodd" clip-rule="evenodd" d="M588.753 517.074V358.314H510.489V325.307H703.505V358.314H626.47V517.074H588.753ZM727.751 517.074V325.307H765.193V401.686H884.196V325.307H921.638V517.074H884.196V434.42H765.193V517.074H727.751ZM954.54 325.307V517.074H982.071H991.982H1116.21V484.34H991.982V434.966H1106.57V403.323H991.982V358.041H1114.83V325.307H991.982H982.071H954.54ZM1057.71 768.959C1042.8 768.959 1028.94 766.392 1016.16 761.258C1003.37 755.934 992.131 748.614 982.444 739.297C972.95 729.79 965.588 718.762 960.357 706.212C955.32 693.663 952.801 680.163 952.801 665.712C952.801 651.262 955.32 637.762 960.357 625.212C965.588 612.663 972.95 601.73 982.444 592.413C992.131 583.096 1003.27 575.776 1015.86 570.452C1028.65 565.128 1042.6 562.466 1057.71 562.466C1073.99 562.466 1088.33 565.128 1100.73 570.452C1113.12 575.585 1124.07 582.716 1133.57 591.843L1106.83 618.082C1101.21 611.997 1094.33 607.244 1086.19 603.821C1078.06 600.399 1068.56 598.688 1057.71 598.688C1048.22 598.688 1039.5 600.304 1031.56 603.536C1023.81 606.578 1017.03 611.142 1011.21 617.226C1005.4 623.121 1000.95 630.251 997.847 638.617C994.747 646.793 993.197 655.825 993.197 665.712C993.197 675.79 994.747 684.917 997.847 693.093C1000.95 701.269 1005.4 708.399 1011.21 714.483C1017.03 720.378 1023.81 724.941 1031.56 728.174C1039.5 731.406 1048.22 733.022 1057.71 733.022C1069.14 733.022 1078.93 731.311 1087.07 727.888C1095.4 724.466 1102.37 719.617 1107.99 713.343L1134.73 739.582C1125.23 748.899 1114.19 756.124 1101.6 761.258C1089 766.392 1074.38 768.959 1057.71 768.959ZM729.291 568.283V768.959H767.626V649.456L815.827 727.853H841.76L890.243 648.998V768.959H928.296V568.283H901.236L828.921 685.869L756.351 568.283H729.291ZM506.523 568.283V768.959H544.716V649.457L592.737 727.853H618.573L666.875 648.998V768.959H704.786V568.283H677.827L605.782 685.869L533.483 568.283H506.523Z" fill="#003BFF"/>
<path d="M588.753 358.314H590.753V356.314H588.753V358.314ZM588.753 517.074H586.753V519.074H588.753V517.074ZM510.489 358.314H508.489V360.314H510.489V358.314ZM510.489 325.307V323.307H508.489V325.307H510.489ZM703.505 325.307H705.505V323.307H703.505V325.307ZM703.505 358.314V360.314H705.505V358.314H703.505ZM626.47 358.314V356.314H624.47V358.314H626.47ZM626.47 517.074V519.074H628.47V517.074H626.47ZM727.751 325.307V323.307H725.751V325.307H727.751ZM727.751 517.074H725.751V519.074H727.751V517.074ZM765.193 325.307H767.193V323.307H765.193V325.307ZM765.193 401.686H763.193V403.686H765.193V401.686ZM884.196 401.686V403.686H886.196V401.686H884.196ZM884.196 325.307V323.307H882.196V325.307H884.196ZM921.638 325.307H923.638V323.307H921.638V325.307ZM921.638 517.074V519.074H923.638V517.074H921.638ZM884.196 517.074H882.196V519.074H884.196V517.074ZM884.196 434.42H886.196V432.42H884.196V434.42ZM765.193 434.42V432.42H763.193V434.42H765.193ZM765.193 517.074V519.074H767.193V517.074H765.193ZM954.54 517.074H952.54V519.074H954.54V517.074ZM954.54 325.307V323.307H952.54V325.307H954.54ZM1116.21 517.074V519.074H1118.21V517.074H1116.21ZM1116.21 484.34H1118.21V482.34H1116.21V484.34ZM991.982 484.34H989.982V486.34H991.982V484.34ZM991.982 434.966V432.966H989.982V434.966H991.982ZM1106.57 434.966V436.966H1108.57V434.966H1106.57ZM1106.57 403.323H1108.57V401.323H1106.57V403.323ZM991.982 403.323H989.982V405.323H991.982V403.323ZM991.982 358.041V356.041H989.982V358.041H991.982ZM1114.83 358.041V360.041H1116.83V358.041H1114.83ZM1114.83 325.307H1116.83V323.307H1114.83V325.307ZM1016.16 761.258L1015.39 763.104L1015.4 763.109L1015.41 763.114L1016.16 761.258ZM982.444 739.297L981.029 740.71L981.043 740.724L981.057 740.738L982.444 739.297ZM960.357 706.212L958.501 706.957L958.506 706.97L958.511 706.982L960.357 706.212ZM960.357 625.212L958.511 624.443L958.506 624.455L958.501 624.467L960.357 625.212ZM982.444 592.413L981.057 590.971L981.05 590.978L981.043 590.986L982.444 592.413ZM1015.86 570.452L1015.1 568.605L1015.09 568.61L1015.86 570.452ZM1100.73 570.452L1099.94 572.289L1099.95 572.295L1099.96 572.3L1100.73 570.452ZM1133.57 591.843L1134.97 593.27L1136.44 591.828L1134.95 590.401L1133.57 591.843ZM1106.83 618.082L1105.36 619.439L1106.76 620.953L1108.23 619.509L1106.83 618.082ZM1086.19 603.821L1086.97 601.978L1086.19 603.821ZM1031.56 603.536L1032.29 605.398L1032.3 605.393L1032.31 605.389L1031.56 603.536ZM1011.21 617.226L1012.64 618.631L1012.65 618.619L1012.66 618.608L1011.21 617.226ZM997.847 638.617L999.717 639.326L999.719 639.319L999.722 639.312L997.847 638.617ZM997.847 693.093L995.976 693.802L997.847 693.093ZM1011.21 714.483L1009.77 715.865L1009.78 715.876L1009.79 715.888L1011.21 714.483ZM1031.56 728.174L1030.79 730.019L1030.8 730.023L1030.8 730.026L1031.56 728.174ZM1087.07 727.888L1086.31 726.038L1086.3 726.042L1086.29 726.045L1087.07 727.888ZM1107.99 713.343L1109.39 711.915L1107.9 710.449L1106.5 712.008L1107.99 713.343ZM1134.73 739.582L1136.13 741.009L1137.58 739.582L1136.13 738.155L1134.73 739.582ZM1101.6 761.258L1100.84 759.406L1101.6 761.258ZM729.291 768.959H727.291V770.959H729.291V768.959ZM729.291 568.283V566.283H727.291V568.283H729.291ZM767.626 768.959V770.959H769.626V768.959H767.626ZM767.626 649.456L769.33 648.409L765.626 642.385V649.456H767.626ZM815.827 727.853L814.123 728.901L814.709 729.853H815.827V727.853ZM841.76 727.853V729.853H842.878L843.463 728.901L841.76 727.853ZM890.243 648.998H892.243V641.926L888.539 647.95L890.243 648.998ZM890.243 768.959H888.243V770.959H890.243V768.959ZM928.296 768.959V770.959H930.296V768.959H928.296ZM928.296 568.283H930.296V566.283H928.296V568.283ZM901.236 568.283V566.283H900.118L899.532 567.235L901.236 568.283ZM828.921 685.869L827.219 686.919L828.924 689.682L830.624 686.917L828.921 685.869ZM756.351 568.283L758.053 567.232L757.467 566.283H756.351V568.283ZM506.523 768.959H504.523V770.959H506.523V768.959ZM506.523 568.283V566.283H504.523V568.283H506.523ZM544.716 768.959V770.959H546.716V768.959H544.716ZM544.716 649.457L546.421 648.412L542.716 642.362V649.457H544.716ZM592.737 727.853L591.031 728.898L591.617 729.853H592.737V727.853ZM618.573 727.853V729.853H619.693L620.278 728.898L618.573 727.853ZM666.875 648.998H668.875V641.904L665.169 647.953L666.875 648.998ZM666.875 768.959H664.875V770.959H666.875V768.959ZM704.786 768.959V770.959H706.786V768.959H704.786ZM704.786 568.283H706.786V566.283H704.786V568.283ZM677.827 568.283V566.283H676.707L676.122 567.238L677.827 568.283ZM605.782 685.869L604.078 686.917L605.785 689.692L607.487 686.914L605.782 685.869ZM533.483 568.283L535.186 567.235L534.601 566.283H533.483V568.283ZM586.753 358.314V517.074H590.753V358.314H586.753ZM510.489 360.314H588.753V356.314H510.489V360.314ZM508.489 325.307V358.314H512.489V325.307H508.489ZM703.505 323.307H510.489V327.307H703.505V323.307ZM705.505 358.314V325.307H701.505V358.314H705.505ZM626.47 360.314H703.505V356.314H626.47V360.314ZM628.47 517.074V358.314H624.47V517.074H628.47ZM588.753 519.074H626.47V515.074H588.753V519.074ZM725.751 325.307V517.074H729.751V325.307H725.751ZM765.193 323.307H727.751V327.307H765.193V323.307ZM767.193 401.686V325.307H763.193V401.686H767.193ZM884.196 399.686H765.193V403.686H884.196V399.686ZM882.196 325.307V401.686H886.196V325.307H882.196ZM921.638 323.307H884.196V327.307H921.638V323.307ZM923.638 517.074V325.307H919.638V517.074H923.638ZM884.196 519.074H921.638V515.074H884.196V519.074ZM882.196 434.42V517.074H886.196V434.42H882.196ZM765.193 436.42H884.196V432.42H765.193V436.42ZM767.193 517.074V434.42H763.193V517.074H767.193ZM727.751 519.074H765.193V515.074H727.751V519.074ZM956.54 517.074V325.307H952.54V517.074H956.54ZM982.071 515.074H954.54V519.074H982.071V515.074ZM991.982 515.074H982.071V519.074H991.982V515.074ZM1116.21 515.074H991.982V519.074H1116.21V515.074ZM1114.21 484.34V517.074H1118.21V484.34H1114.21ZM991.982 486.34H1116.21V482.34H991.982V486.34ZM989.982 434.966V484.34H993.982V434.966H989.982ZM1106.57 432.966H991.982V436.966H1106.57V432.966ZM1104.57 403.323V434.966H1108.57V403.323H1104.57ZM991.982 405.323H1106.57V401.323H991.982V405.323ZM989.982 358.041V403.323H993.982V358.041H989.982ZM1114.83 356.041H991.982V360.041H1114.83V356.041ZM1112.83 325.307V358.041H1116.83V325.307H1112.83ZM991.982 327.307H1114.83V323.307H991.982V327.307ZM982.071 327.307H991.982V323.307H982.071V327.307ZM954.54 327.307H982.071V323.307H954.54V327.307ZM1015.41 763.114C1028.45 768.351 1042.56 770.959 1057.71 770.959V766.959C1043.03 766.959 1029.43 764.433 1016.9 759.402L1015.41 763.114ZM981.057 740.738C990.929 750.233 1002.38 757.688 1015.39 763.104L1016.92 759.412C1004.36 754.18 993.333 746.995 983.83 737.855L981.057 740.738ZM958.511 706.982C963.841 719.769 971.349 731.016 981.029 740.71L983.859 737.884C974.552 728.563 967.335 717.754 962.203 705.443L958.511 706.982ZM950.801 665.712C950.801 680.401 953.362 694.155 958.501 706.957L962.213 705.467C957.277 693.171 954.801 679.925 954.801 665.712H950.801ZM958.501 624.467C953.362 637.269 950.801 651.024 950.801 665.712H954.801C954.801 651.499 957.277 638.254 962.213 625.957L958.501 624.467ZM981.043 590.986C971.354 600.494 963.843 611.652 958.511 624.443L962.203 625.982C967.333 613.674 974.546 602.966 983.845 593.84L981.043 590.986ZM1015.09 568.61C1002.27 574.027 990.924 581.482 981.057 590.971L983.83 593.854C993.338 584.71 1004.27 577.524 1016.64 572.294L1015.09 568.61ZM1057.71 560.466C1042.36 560.466 1028.15 563.171 1015.1 568.605L1016.63 572.298C1029.16 567.084 1042.84 564.466 1057.71 564.466V560.466ZM1101.51 568.614C1088.82 563.163 1074.21 560.466 1057.71 560.466V564.466C1073.77 564.466 1087.83 567.092 1099.94 572.289L1101.51 568.614ZM1134.95 590.401C1125.27 581.098 1114.12 573.831 1101.49 568.604L1099.96 572.3C1112.13 577.34 1122.87 584.334 1132.18 593.284L1134.95 590.401ZM1108.23 619.509L1134.97 593.27L1132.16 590.415L1105.43 616.655L1108.23 619.509ZM1085.42 605.665C1093.31 608.984 1099.95 613.578 1105.36 619.439L1108.3 616.725C1102.47 610.417 1095.35 605.504 1086.97 601.978L1085.42 605.665ZM1057.71 600.688C1068.36 600.688 1077.58 602.366 1085.42 605.665L1086.97 601.978C1078.54 598.431 1068.77 596.688 1057.71 596.688V600.688ZM1032.31 605.389C1039.99 602.264 1048.45 600.688 1057.71 600.688V596.688C1047.99 596.688 1039.01 598.344 1030.8 601.684L1032.31 605.389ZM1012.66 618.608C1018.28 612.731 1024.81 608.333 1032.29 605.398L1030.83 601.674C1022.8 604.824 1015.78 609.553 1009.77 615.845L1012.66 618.608ZM999.722 639.312C1002.73 631.191 1007.04 624.308 1012.64 618.631L1009.79 615.822C1003.76 621.934 999.162 629.311 995.971 637.922L999.722 639.312ZM995.197 665.712C995.197 656.036 996.713 647.248 999.717 639.326L995.976 637.908C992.78 646.338 991.197 655.614 991.197 665.712H995.197ZM999.717 692.384C996.715 684.466 995.197 675.584 995.197 665.712H991.197C991.197 675.996 992.779 685.367 995.976 693.802L999.717 692.384ZM1012.66 713.102C1007.04 707.219 1002.73 700.319 999.717 692.384L995.976 693.802C999.167 702.218 1003.76 709.579 1009.77 715.865L1012.66 713.102ZM1032.33 726.328C1024.82 723.196 1018.26 718.782 1012.64 713.079L1009.79 715.888C1015.79 721.974 1022.8 726.686 1030.79 730.019L1032.33 726.328ZM1057.71 731.022C1048.45 731.022 1039.99 729.446 1032.31 726.321L1030.8 730.026C1039.01 733.366 1047.99 735.022 1057.71 735.022V731.022ZM1086.29 726.045C1078.46 729.339 1068.95 731.022 1057.71 731.022V735.022C1069.34 735.022 1079.4 733.283 1087.84 729.732L1086.29 726.045ZM1106.5 712.008C1101.1 718.043 1094.38 722.722 1086.31 726.038L1087.83 729.738C1096.42 726.209 1103.65 721.192 1109.48 714.677L1106.5 712.008ZM1136.13 738.155L1109.39 711.915L1106.59 714.77L1133.33 741.009L1136.13 738.155ZM1102.35 763.11C1115.18 757.88 1126.45 750.513 1136.13 741.009L1133.33 738.155C1124.02 747.285 1113.2 754.368 1100.84 759.406L1102.35 763.11ZM1057.71 770.959C1074.58 770.959 1089.47 768.361 1102.35 763.11L1100.84 759.406C1088.54 764.423 1074.17 766.959 1057.71 766.959V770.959ZM731.291 768.959V568.283H727.291V768.959H731.291ZM767.626 766.959H729.291V770.959H767.626V766.959ZM765.626 649.456V768.959H769.626V649.456H765.626ZM817.531 726.806L769.33 648.409L765.922 650.504L814.123 728.901L817.531 726.806ZM841.76 725.853H815.827V729.853H841.76V725.853ZM888.539 647.95L840.056 726.806L843.463 728.901L891.946 650.045L888.539 647.95ZM892.243 768.959V648.998H888.243V768.959H892.243ZM928.296 766.959H890.243V770.959H928.296V766.959ZM926.296 568.283V768.959H930.296V568.283H926.296ZM901.236 570.283H928.296V566.283H901.236V570.283ZM830.624 686.917L902.939 569.33L899.532 567.235L827.217 684.821L830.624 686.917ZM754.649 569.333L827.219 686.919L830.623 684.819L758.053 567.232L754.649 569.333ZM729.291 570.283H756.351V566.283H729.291V570.283ZM508.523 768.959V568.283H504.523V768.959H508.523ZM544.716 766.959H506.523V770.959H544.716V766.959ZM542.716 649.457V768.959H546.716V649.457H542.716ZM594.442 726.809L546.421 648.412L543.01 650.501L591.031 728.898L594.442 726.809ZM618.573 725.853H592.737V729.853H618.573V725.853ZM665.169 647.953L616.867 726.809L620.278 728.898L668.58 650.043L665.169 647.953ZM668.875 768.959V648.998H664.875V768.959H668.875ZM704.786 766.959H666.875V770.959H704.786V766.959ZM702.786 568.283V768.959H706.786V568.283H702.786ZM677.827 570.283H704.786V566.283H677.827V570.283ZM607.487 686.914L679.532 569.328L676.122 567.238L604.076 684.824L607.487 686.914ZM531.779 569.33L604.078 686.917L607.485 684.822L535.186 567.235L531.779 569.33ZM506.523 570.283H533.483V566.283H506.523V570.283Z" fill="#003BFF" mask="url(#path-1-outside-1_5311_464)"/>
<path fill-rule="evenodd" clip-rule="evenodd" d="M387.043 337.082L385.543 337.082L385.543 338.582C385.543 359.972 384.175 408.424 372.323 453.094C360.432 497.914 338.216 538.125 297.067 544.411L297.426 546.763L297.067 549.115C338.216 555.401 360.432 595.611 372.323 640.431C384.175 685.101 385.543 733.554 385.543 754.944L385.543 756.444L387.043 756.444L437.66 756.444L439.11 756.444L439.159 754.995C440.27 722.634 437.658 673.39 426.181 630.812C420.443 609.524 412.465 589.812 401.559 574.7C390.64 559.571 376.721 548.974 359.137 546.151L358.662 549.113C375.241 551.775 388.526 561.768 399.126 576.456C409.739 591.16 417.596 610.49 423.285 631.592C434.491 673.165 437.186 721.265 436.208 753.444L388.541 753.444C388.476 731.275 386.906 683.696 375.223 639.662C363.632 595.975 341.871 555.019 300.985 546.763C341.871 538.506 363.632 497.55 375.223 453.864C386.906 409.83 388.476 362.251 388.541 340.082L436.211 340.082C437.317 372.378 438.831 420.486 431.825 462.074C428.269 483.184 422.537 502.49 413.529 517.163C404.543 531.799 392.35 541.756 375.805 544.413L376.281 547.375C393.898 544.546 406.766 533.913 416.085 518.733C425.382 503.59 431.199 483.853 434.784 462.573C441.954 420.008 440.266 370.77 439.159 338.531L439.11 337.082L437.66 337.082L387.043 337.082Z" fill="#003BFF"/>
<path fill-rule="evenodd" clip-rule="evenodd" d="M1252.86 756.444L1254.36 756.444L1254.36 754.944C1254.36 733.554 1255.72 685.101 1267.58 640.431C1279.47 595.611 1301.68 555.401 1342.83 549.115L1342.47 546.763L1342.83 544.411C1301.68 538.125 1279.47 497.914 1267.58 453.094C1255.72 408.424 1254.36 359.972 1254.36 338.582L1254.36 337.082L1252.86 337.082L1202.24 337.082L1200.79 337.082L1200.74 338.531C1199.63 370.77 1197.95 420.008 1205.12 462.573C1208.7 483.853 1214.52 503.59 1223.81 518.733C1233.13 533.913 1246 544.546 1263.62 547.375L1264.09 544.413C1247.55 541.756 1235.36 531.799 1226.37 517.163C1217.36 502.49 1211.63 483.184 1208.07 462.074C1201.07 420.486 1202.58 372.378 1203.69 340.082L1251.36 340.082C1251.42 362.251 1252.99 409.83 1264.68 453.864C1276.27 497.55 1298.03 538.506 1338.91 546.763C1298.03 555.019 1276.27 595.975 1264.68 639.662C1252.99 683.696 1251.42 731.275 1251.36 753.444L1203.69 753.444C1202.71 721.265 1205.41 673.165 1216.61 631.592C1222.3 610.49 1230.16 591.16 1240.77 576.456C1251.37 561.768 1264.66 551.775 1281.24 549.113L1280.76 546.151C1263.18 548.974 1249.26 559.571 1238.34 574.7C1227.43 589.812 1219.46 609.524 1213.72 630.812C1202.24 673.39 1199.63 722.634 1200.74 754.995L1200.79 756.444L1202.24 756.444L1252.86 756.444Z" fill="#003BFF"/>
<rect x="65.752" y="839.447" width="232.203" height="232.203" rx="18.5" stroke="#003BFF" stroke-width="3"/>
<rect x="321.188" y="839.447" width="138.628" height="232.203" rx="18.5" fill="#003BFF" stroke="#003BFF" stroke-width="3"/>
<rect x="483.047" y="839.447" width="70.673" height="232.203" rx="18.5" stroke="#003BFF" stroke-width="3"/>
<path fill-rule="evenodd" clip-rule="evenodd" d="M1550.5 201.565C1559.61 185.605 1564.75 167.548 1564.75 148.426C1564.75 83.4761 1505.51 30.8242 1432.43 30.8242C1359.35 30.8242 1300.11 83.4761 1300.11 148.426C1300.11 213.375 1359.35 266.027 1432.43 266.027C1483.83 266.027 1528.38 239.982 1550.29 201.932H1550.5V201.565ZM1378.8 198.089C1375.26 183.001 1373.28 166.173 1373.28 148.426C1373.28 130.908 1375.21 114.285 1378.66 99.3478H1316.51C1308.45 114.239 1303.95 130.896 1303.95 148.426C1303.95 166.186 1308.57 183.049 1316.83 198.089H1378.8ZM1382.75 198.089C1379.15 183.103 1377.12 166.265 1377.12 148.426C1377.12 130.818 1379.1 114.186 1382.61 99.3478H1482.24C1485.75 114.186 1487.73 130.818 1487.73 148.426C1487.73 166.265 1485.7 183.103 1482.1 198.089H1382.75ZM1379.74 201.932H1319.04C1338.11 233.547 1373.57 256.376 1415.64 261.225C1400 252.035 1387.05 230.326 1379.74 201.932ZM1383.72 201.932H1481.14C1478.4 212.305 1474.91 221.714 1470.81 229.855C1460.32 250.72 1446.53 262.184 1432.43 262.184C1418.32 262.184 1404.53 250.72 1394.04 229.855C1389.94 221.714 1386.45 212.305 1383.72 201.932ZM1485.11 201.932C1477.8 230.327 1464.86 252.035 1449.21 261.225C1491.29 256.377 1526.74 233.547 1545.81 201.932H1485.11ZM1548.02 198.089C1556.28 183.049 1560.91 166.186 1560.91 148.426C1560.91 130.896 1556.4 114.239 1548.34 99.3478H1486.19C1489.64 114.285 1491.57 130.908 1491.57 148.426C1491.57 166.173 1489.59 183.001 1486.05 198.089H1548.02ZM1394.04 66.9957C1389.87 75.2902 1386.32 84.8996 1383.56 95.5044H1481.29C1478.54 84.8996 1474.99 75.2902 1470.81 66.9957C1460.32 46.1309 1446.53 34.6676 1432.43 34.6676C1418.32 34.6676 1404.53 46.1309 1394.04 66.9957ZM1485.26 95.5044H1546.16C1527.18 63.586 1491.55 40.504 1449.21 35.6263C1464.96 44.8788 1477.98 66.8232 1485.26 95.5044ZM1318.69 95.5044H1379.59C1386.87 66.8235 1399.89 44.8792 1415.64 35.6266C1373.31 40.5049 1337.67 63.5866 1318.69 95.5044Z" fill="#003BFF"/>
<path d="M1396.12 836.125L1336.32 1049.72" stroke="#003BFF" stroke-width="3"/>
<path d="M1502.37 837.292L1443.87 1052.33" stroke="#003BFF" stroke-width="3"/>
<path d="M1540.09 1004.88H1300.11" stroke="#003BFF" stroke-width="3"/>
<path d="M1540.09 883.143H1300.11" stroke="#003BFF" stroke-width="3"/>
<path d="M89.4199 133.238H461.315C440.387 128.47 398.531 103.002 398.531 39.2754" stroke="#003BFF" stroke-width="3"/>
<path d="M89.4199 133.241H461.315C440.387 138.009 398.531 163.476 398.531 227.203" stroke="#003BFF" stroke-width="3"/>
<path d="M1384.04 199.612C1369.93 168.829 1376.44 118.716 1381.46 97.5078H1480.64C1494.42 116.191 1488.25 173.362 1483.44 199.612H1384.04Z" fill="#003BFF" stroke="#003BFF"/>
</g>
<defs>
<clipPath id="clip0_5311_464">
<rect width="1101" height="1629" fill="white" transform="translate(1629) rotate(90)"/>
</clipPath>
</defs>
</svg>
