<svg width="2824" height="1609" viewBox="0 0 2824 1609" fill="none" xmlns="http://www.w3.org/2000/svg">
<rect width="2824" height="1609" fill="#0047FF"/>
<rect x="83.5" y="441.5" width="95" height="44" fill="#FAF506" stroke="black" stroke-width="7"/>
<rect x="168.5" y="384.5" width="89" height="101" fill="#FAF506" stroke="black" stroke-width="7"/>
<rect x="218.5" y="334.5" width="339" height="102" fill="#FAF506" stroke="black" stroke-width="7"/>
<rect x="303.5" y="412.5" width="359" height="102" fill="#FAF506" stroke="black" stroke-width="7"/>
<rect x="306.5" y="364.5" width="359" height="102" fill="#FAF506" stroke="black" stroke-width="7"/>
<rect x="693.5" y="412.5" width="176" height="102" fill="#FAF506" stroke="black" stroke-width="7"/>
<rect x="748.5" y="458.5" width="155" height="95" fill="#FAF506" stroke="black" stroke-width="7"/>
<rect x="844.5" y="258.5" width="382" height="95" fill="#FAF506" stroke="black" stroke-width="7"/>
<rect x="1257.5" y="331.5" width="231" height="95" fill="#FAF506" stroke="black" stroke-width="7"/>
<rect x="1193.5" y="637.5" width="159" height="95" fill="#FAF506" stroke="black" stroke-width="7"/>
<rect x="1139.5" y="701.5" width="528" height="121" fill="#FAF506" stroke="black" stroke-width="7"/>
<rect x="1085.5" y="817.5" width="577" height="149" fill="#FAF506" stroke="black" stroke-width="7"/>
<rect x="1323.5" y="956.5" width="267" height="208" fill="#FAF506" stroke="black" stroke-width="7"/>
<rect x="1323.5" y="956.5" width="283" height="208" fill="#FAF506" stroke="black" stroke-width="7"/>
<rect x="1359.5" y="1112.5" width="187" height="145" fill="#FAF506" stroke="black" stroke-width="7"/>
<rect x="1407.5" y="1231.5" width="139" height="107" fill="#FAF506" stroke="black" stroke-width="7"/>
<rect x="1658.5" y="1064.5" width="64" height="107" fill="#FAF506" stroke="black" stroke-width="7"/>
<rect x="2163.5" y="1129.5" width="231" height="156" fill="#FAF506" stroke="black" stroke-width="7"/>
<rect x="1169.5" y="419.5" width="89" height="95" fill="#FAF506" stroke="black" stroke-width="7"/>
<rect x="1258.5" y="470.5" width="199" height="95" fill="#FAF506" stroke="black" stroke-width="7"/>
<rect x="1407.5" y="444.5" width="199" height="95" fill="#FAF506" stroke="black" stroke-width="7"/>
<rect x="1566.5" y="573.5" width="199" height="95" fill="#FAF506" stroke="black" stroke-width="7"/>
<rect x="1565.5" y="274.5" width="678" height="95" fill="#FAF506" stroke="black" stroke-width="7"/>
<rect x="1520.5" y="392.5" width="708" height="199" fill="#FAF506" stroke="black" stroke-width="7"/>
<rect x="1694.5" y="469.5" width="494" height="199" fill="#FAF506" stroke="black" stroke-width="7"/>
<rect x="1694.5" y="637.5" width="320" height="199" fill="#FAF506" stroke="black" stroke-width="7"/>
<rect x="1806.5" y="559.5" width="320" height="199" fill="#FAF506" stroke="black" stroke-width="7"/>
<rect x="2265.5" y="782.5" width="110" height="115" fill="#FAF506" stroke="black" stroke-width="7"/>
<rect x="2064.5" y="990.5" width="473" height="115" fill="#FAF506" stroke="black" stroke-width="7"/>
<rect x="1961.5" y="927.5" width="227" height="84" fill="#FAF506" stroke="black" stroke-width="7"/>
<rect x="2369.5" y="1129.5" width="110" height="115" fill="#FAF506" stroke="black" stroke-width="7"/>
<rect x="2235.5" y="1217.5" width="110" height="115" fill="#FAF506" stroke="black" stroke-width="7"/>
<rect x="2486.5" y="1326.5" width="110" height="68" fill="#FAF506" stroke="black" stroke-width="7"/>
<rect x="1711.5" y="200.5" width="634" height="285" fill="#FAF506" stroke="black" stroke-width="7"/>
<rect x="2004.5" y="321.5" width="417" height="193" fill="#FAF506" stroke="black" stroke-width="7"/>
<rect x="2216.5" y="234.5" width="417" height="193" fill="#FAF506" stroke="black" stroke-width="7"/>
<rect x="2265.5" y="546.5" width="80" height="166" fill="#FAF506" stroke="black" stroke-width="7"/>
<rect x="2147.5" y="740.5" width="33" height="57" fill="#FAF506" stroke="black" stroke-width="7"/>
<rect x="2200.5" y="708.5" width="37" height="57" fill="#FAF506" stroke="black" stroke-width="7"/>
<rect x="2397.5" y="843.5" width="37" height="41" fill="#FAF506" stroke="black" stroke-width="7"/>
<rect x="2590.5" y="782.5" width="25" height="57" transform="rotate(90 2590.5 782.5)" fill="#FAF506" stroke="black" stroke-width="7"/>
<rect x="2195.5" y="811.5" width="48" height="109" fill="#FAF506" stroke="black" stroke-width="7"/>
<rect x="2506.5" y="782.5" width="48" height="109" transform="rotate(90 2506.5 782.5)" fill="#FAF506" stroke="black" stroke-width="7"/>
<rect x="477.5" y="725.5" width="68" height="158" fill="#FAF506" stroke="black" stroke-width="7"/>
<rect x="-3.5" y="3.5" width="24" height="62" transform="matrix(-1 0 0 1 677 685)" fill="#FAF506" stroke="black" stroke-width="7"/>
<rect x="-3.5" y="3.5" width="24" height="62" transform="matrix(-1 0 0 1 542 901)" fill="#FAF506" stroke="black" stroke-width="7"/>
<rect x="-3.5" y="3.5" width="24" height="29" transform="matrix(-1 0 0 1 638 759)" fill="#FAF506" stroke="black" stroke-width="7"/>
<rect x="-3.5" y="3.5" width="24" height="62" transform="matrix(-1 0 0 1 569 818)" fill="#FAF506" stroke="black" stroke-width="7"/>
<rect x="684.5" y="762.5" width="68" height="158" fill="#FAF506" stroke="black" stroke-width="7"/>
<rect x="1118.5" y="512.5" width="137" height="95" fill="#FAF506" stroke="black" stroke-width="7"/>
<rect x="900.5" y="352.5" width="149" height="53" fill="#FAF506" stroke="black" stroke-width="7"/>
<rect x="597.5" y="454.5" width="155" height="133" fill="#FAF506" stroke="black" stroke-width="7"/>
<rect x="264.5" y="505.5" width="377" height="165" fill="#FAF506" stroke="black" stroke-width="7"/>
<rect x="329.5" y="615.5" width="120" height="165" fill="#FAF506" stroke="black" stroke-width="7"/>
<rect x="564.5" y="929.5" width="120" height="165" fill="#FAF506" stroke="black" stroke-width="7"/>
<rect x="613.5" y="978.5" width="120" height="165" fill="#FAF506" stroke="black" stroke-width="7"/>
<rect x="785.5" y="940.5" width="172" height="270" fill="#FAF506" stroke="black" stroke-width="7"/>
<rect x="754.5" y="1015.5" width="139" height="270" fill="#FAF506" stroke="black" stroke-width="7"/>
<rect x="701.5" y="1231.5" width="71" height="270" fill="#FAF506" stroke="black" stroke-width="7"/>
<rect x="669.5" y="895.5" width="135" height="427" fill="#FAF506" stroke="black" stroke-width="7"/>
<rect x="456.5" y="529.5" width="185" height="165" fill="#FAF506" stroke="black" stroke-width="7"/>
</svg>
