<svg width="3150" height="1490" viewBox="0 0 3150 1490" fill="none" xmlns="http://www.w3.org/2000/svg">
<rect x="217.5" y="316.5" width="95" height="44" fill="#FAF506" stroke="black" stroke-width="7"/>
<rect x="302.5" y="259.5" width="89" height="101" fill="#FAF506" stroke="black" stroke-width="7"/>
<rect x="352.5" y="209.5" width="339" height="102" fill="#FAF506" stroke="black" stroke-width="7"/>
<rect x="437.5" y="287.5" width="359" height="102" fill="#FAF506" stroke="black" stroke-width="7"/>
<rect x="440.5" y="239.5" width="359" height="102" fill="#FAF506" stroke="black" stroke-width="7"/>
<rect x="827.5" y="287.5" width="176" height="102" fill="#FAF506" stroke="black" stroke-width="7"/>
<rect x="882.5" y="333.5" width="155" height="95" fill="#FAF506" stroke="black" stroke-width="7"/>
<rect x="978.5" y="133.5" width="382" height="95" fill="#FAF506" stroke="black" stroke-width="7"/>
<rect x="1391.5" y="206.5" width="231" height="95" fill="#FAF506" stroke="black" stroke-width="7"/>
<rect x="1327.5" y="512.5" width="159" height="95" fill="#FAF506" stroke="black" stroke-width="7"/>
<rect x="1273.5" y="576.5" width="528" height="121" fill="#FAF506" stroke="black" stroke-width="7"/>
<rect x="1219.5" y="692.5" width="577" height="149" fill="#FAF506" stroke="black" stroke-width="7"/>
<rect x="1457.5" y="831.5" width="267" height="208" fill="#FAF506" stroke="black" stroke-width="7"/>
<rect x="1457.5" y="831.5" width="283" height="208" fill="#FAF506" stroke="black" stroke-width="7"/>
<rect x="1493.5" y="987.5" width="187" height="145" fill="#FAF506" stroke="black" stroke-width="7"/>
<rect x="1541.5" y="1106.5" width="139" height="107" fill="#FAF506" stroke="black" stroke-width="7"/>
<rect x="1792.5" y="939.5" width="64" height="107" fill="#FAF506" stroke="black" stroke-width="7"/>
<rect x="2297.5" y="1004.5" width="231" height="156" fill="#FAF506" stroke="black" stroke-width="7"/>
<rect x="1303.5" y="294.5" width="89" height="95" fill="#FAF506" stroke="black" stroke-width="7"/>
<rect x="1392.5" y="345.5" width="199" height="95" fill="#FAF506" stroke="black" stroke-width="7"/>
<rect x="1541.5" y="319.5" width="199" height="95" fill="#FAF506" stroke="black" stroke-width="7"/>
<rect x="1700.5" y="448.5" width="199" height="95" fill="#FAF506" stroke="black" stroke-width="7"/>
<rect x="1699.5" y="149.5" width="678" height="95" fill="#FAF506" stroke="black" stroke-width="7"/>
<rect x="1654.5" y="267.5" width="708" height="199" fill="#FAF506" stroke="black" stroke-width="7"/>
<rect x="1828.5" y="344.5" width="494" height="199" fill="#FAF506" stroke="black" stroke-width="7"/>
<rect x="1828.5" y="512.5" width="320" height="199" fill="#FAF506" stroke="black" stroke-width="7"/>
<rect x="1940.5" y="434.5" width="320" height="199" fill="#FAF506" stroke="black" stroke-width="7"/>
<rect x="2399.5" y="657.5" width="110" height="115" fill="#FAF506" stroke="black" stroke-width="7"/>
<rect x="2198.5" y="865.5" width="473" height="115" fill="#FAF506" stroke="black" stroke-width="7"/>
<rect x="2095.5" y="802.5" width="227" height="84" fill="#FAF506" stroke="black" stroke-width="7"/>
<rect x="2503.5" y="1004.5" width="110" height="115" fill="#FAF506" stroke="black" stroke-width="7"/>
<rect x="2369.5" y="1092.5" width="110" height="115" fill="#FAF506" stroke="black" stroke-width="7"/>
<rect x="2620.5" y="1201.5" width="110" height="68" fill="#FAF506" stroke="black" stroke-width="7"/>
<rect x="1845.5" y="75.5" width="634" height="285" fill="#FAF506" stroke="black" stroke-width="7"/>
<rect x="2138.5" y="196.5" width="417" height="193" fill="#FAF506" stroke="black" stroke-width="7"/>
<rect x="2350.5" y="109.5" width="417" height="193" fill="#FAF506" stroke="black" stroke-width="7"/>
<rect x="2399.5" y="421.5" width="80" height="166" fill="#FAF506" stroke="black" stroke-width="7"/>
<rect x="2281.5" y="615.5" width="33" height="57" fill="#FAF506" stroke="black" stroke-width="7"/>
<rect x="2334.5" y="583.5" width="37" height="57" fill="#FAF506" stroke="black" stroke-width="7"/>
<rect x="2531.5" y="718.5" width="37" height="41" fill="#FAF506" stroke="black" stroke-width="7"/>
<rect x="2724.5" y="657.5" width="25" height="57" transform="rotate(90 2724.5 657.5)" fill="#FAF506" stroke="black" stroke-width="7"/>
<rect x="2329.5" y="686.5" width="48" height="109" fill="#FAF506" stroke="black" stroke-width="7"/>
<rect x="2640.5" y="657.5" width="48" height="109" transform="rotate(90 2640.5 657.5)" fill="#FAF506" stroke="black" stroke-width="7"/>
<rect x="611.5" y="600.5" width="68" height="158" fill="#FAF506" stroke="black" stroke-width="7"/>
<rect x="-3.5" y="3.5" width="24" height="62" transform="matrix(-1 0 0 1 811 560)" fill="#FAF506" stroke="black" stroke-width="7"/>
<rect x="-3.5" y="3.5" width="24" height="62" transform="matrix(-1 0 0 1 676 776)" fill="#FAF506" stroke="black" stroke-width="7"/>
<rect x="-3.5" y="3.5" width="24" height="29" transform="matrix(-1 0 0 1 772 634)" fill="#FAF506" stroke="black" stroke-width="7"/>
<rect x="-3.5" y="3.5" width="24" height="62" transform="matrix(-1 0 0 1 703 693)" fill="#FAF506" stroke="black" stroke-width="7"/>
<rect x="818.5" y="637.5" width="68" height="158" fill="#FAF506" stroke="black" stroke-width="7"/>
<rect x="1252.5" y="387.5" width="137" height="95" fill="#FAF506" stroke="black" stroke-width="7"/>
<rect x="1034.5" y="228.5" width="149" height="53" fill="#FAF506" stroke="black" stroke-width="7"/>
<rect x="731.5" y="329.5" width="155" height="153" fill="#FAF506" stroke="black" stroke-width="7"/>
<rect x="398.5" y="380.5" width="377" height="165" fill="#FAF506" stroke="black" stroke-width="7"/>
<rect x="463.5" y="490.5" width="120" height="165" fill="#FAF506" stroke="black" stroke-width="7"/>
<rect x="698.5" y="804.5" width="120" height="165" fill="#FAF506" stroke="black" stroke-width="7"/>
<rect x="747.5" y="853.5" width="120" height="165" fill="#FAF506" stroke="black" stroke-width="7"/>
<rect x="919.5" y="815.5" width="172" height="270" fill="#FAF506" stroke="black" stroke-width="7"/>
<rect x="888.5" y="890.5" width="139" height="270" fill="#FAF506" stroke="black" stroke-width="7"/>
<rect x="835.5" y="1106.5" width="71" height="270" fill="#FAF506" stroke="black" stroke-width="7"/>
<rect x="803.5" y="770.5" width="135" height="427" fill="#FAF506" stroke="black" stroke-width="7"/>
<rect x="590.5" y="404.5" width="185" height="165" fill="#FAF506" stroke="black" stroke-width="7"/>
</svg>
