<svg width="1023" height="570" viewBox="0 0 1023 570" fill="none" xmlns="http://www.w3.org/2000/svg">
<rect width="1023" height="570" fill="#E0ECFF"/>
<path d="M432.181 282.841C407.993 251.038 348.634 241.755 318.977 257.129C317.826 257.726 317.263 259.056 317.566 260.317C331.852 319.672 404.403 324.8 425.964 311.847L445.23 299.511C441.145 294.444 436.781 288.889 432.181 282.841Z" fill="#E0ECFF"/>
<path d="M510.302 308.647C511.661 308.083 510.764 307.248 509.723 306.208L473.894 270.41C472.649 269.167 470.606 269.256 469.475 270.605L445.23 299.511C486.438 315.209 504.95 310.872 510.302 308.647Z" fill="#E0ECFF"/>
<path d="M445.23 299.511L425.964 311.847C404.403 324.8 331.852 319.672 317.566 260.317C317.263 259.056 317.826 257.726 318.977 257.129C348.634 241.755 407.993 251.038 432.181 282.841C436.781 288.889 441.145 294.444 445.23 299.511ZM445.23 299.511L469.475 270.605C470.606 269.256 472.649 269.167 473.894 270.41L509.723 306.208C510.764 307.248 511.661 308.083 510.302 308.647C504.95 310.872 486.438 315.209 445.23 299.511Z" stroke="#E0ECFF" stroke-width="7"/>
<path fill-rule="evenodd" clip-rule="evenodd" d="M370.019 265.429C374.062 276.344 368.918 286.518 361.465 293.967C357.772 297.658 353.648 300.522 350.163 302.277C348.416 303.157 346.9 303.722 345.731 303.992C344.732 304.223 344.268 304.173 344.153 304.161C344.117 304.157 344.115 304.157 344.142 304.17L341.914 308.646C343.448 309.41 345.326 309.218 346.857 308.864C348.531 308.477 350.433 307.739 352.412 306.743C356.379 304.745 360.935 301.565 364.999 297.503C373.062 289.445 379.741 277.28 374.707 263.692L370.019 265.429ZM345.413 259.443C337.927 260.944 335.672 266.699 335.481 269.389C335.506 271.742 336.536 277.003 340.451 279.223C344.367 281.442 349.828 279.508 352.069 278.263C353.905 276.884 357.066 272.607 355.016 266.533C352.967 260.459 347.76 259.276 345.413 259.443Z" fill="#469BFF"/>
<path d="M377.114 308.228C387.613 310.384 412.442 311.688 427.765 299.653" stroke="#469BFF" stroke-width="5"/>
<path d="M385.593 552V526.368H392.793V552H385.593ZM407.89 552V542.064C407.89 541.368 407.686 540.84 407.278 540.48C406.894 540.096 406.402 539.904 405.802 539.904C405.394 539.904 405.022 539.988 404.686 540.156C404.374 540.324 404.122 540.576 403.93 540.912C403.762 541.224 403.678 541.608 403.678 542.064L400.942 540.84C400.942 539.4 401.254 538.164 401.878 537.132C402.526 536.1 403.402 535.308 404.506 534.756C405.634 534.204 406.906 533.928 408.322 533.928C409.594 533.928 410.722 534.216 411.706 534.792C412.714 535.344 413.506 536.112 414.082 537.096C414.658 538.056 414.946 539.172 414.946 540.444V552H407.89ZM396.622 552V534.288H403.678V552H396.622ZM417.926 552V534.288H424.982V552H417.926ZM421.454 532.632C420.422 532.632 419.558 532.284 418.862 531.588C418.19 530.868 417.854 529.992 417.854 528.96C417.854 527.928 418.19 527.064 418.862 526.368C419.558 525.648 420.422 525.288 421.454 525.288C422.51 525.288 423.374 525.648 424.046 526.368C424.718 527.064 425.054 527.928 425.054 528.96C425.054 529.992 424.718 530.868 424.046 531.588C423.374 532.284 422.51 532.632 421.454 532.632ZM427.397 547.716L435.317 538.572H444.065L436.145 547.716H427.397ZM427.397 552V547.716L431.609 546.384H443.849V552H427.397ZM428.009 539.904V534.288H444.065V538.572L439.853 539.904H428.009ZM446.648 552V534.288H453.704V552H446.648ZM450.176 532.632C449.144 532.632 448.28 532.284 447.584 531.588C446.912 530.868 446.576 529.992 446.576 528.96C446.576 527.928 446.912 527.064 447.584 526.368C448.28 525.648 449.144 525.288 450.176 525.288C451.232 525.288 452.096 525.648 452.768 526.368C453.44 527.064 453.776 527.928 453.776 528.96C453.776 529.992 453.44 530.868 452.768 531.588C452.096 532.284 451.232 532.632 450.176 532.632ZM464.435 552.36C462.779 552.36 461.315 551.964 460.043 551.172C458.771 550.38 457.775 549.3 457.055 547.932C456.335 546.54 455.975 544.944 455.975 543.144C455.975 541.344 456.335 539.748 457.055 538.356C457.775 536.964 458.771 535.884 460.043 535.116C461.315 534.324 462.779 533.928 464.435 533.928C465.467 533.928 466.415 534.108 467.279 534.468C468.167 534.804 468.899 535.284 469.475 535.908C470.075 536.532 470.459 537.252 470.627 538.068V548.22C470.459 549.036 470.075 549.756 469.475 550.38C468.899 551.004 468.167 551.496 467.279 551.856C466.415 552.192 465.467 552.36 464.435 552.36ZM466.019 546.168C466.907 546.168 467.615 545.892 468.143 545.34C468.695 544.764 468.971 544.032 468.971 543.144C468.971 542.544 468.851 542.028 468.611 541.596C468.371 541.14 468.023 540.78 467.567 540.516C467.135 540.252 466.631 540.12 466.055 540.12C465.479 540.12 464.963 540.252 464.507 540.516C464.075 540.78 463.727 541.14 463.463 541.596C463.199 542.052 463.067 542.568 463.067 543.144C463.067 543.72 463.187 544.236 463.427 544.692C463.691 545.148 464.051 545.508 464.507 545.772C464.963 546.036 465.467 546.168 466.019 546.168ZM468.755 552V547.248L469.727 542.928L468.755 538.644V534.288H475.631V552H468.755ZM481.368 552V527.016H488.424V552H481.368ZM477.588 540.048V534.288H492.204V540.048H477.588ZM502.862 552.432C500.918 552.432 499.178 552.036 497.642 551.244C496.13 550.428 494.93 549.312 494.042 547.896C493.178 546.48 492.746 544.884 492.746 543.108C492.746 541.332 493.178 539.748 494.042 538.356C494.906 536.964 496.094 535.872 497.606 535.08C499.142 534.264 500.882 533.856 502.826 533.856C504.77 533.856 506.498 534.264 508.01 535.08C509.522 535.872 510.71 536.964 511.574 538.356C512.462 539.748 512.906 541.332 512.906 543.108C512.906 544.884 512.474 546.48 511.61 547.896C510.746 549.312 509.558 550.428 508.046 551.244C506.534 552.036 504.806 552.432 502.862 552.432ZM502.826 546.24C503.426 546.24 503.942 546.12 504.374 545.88C504.83 545.616 505.178 545.256 505.418 544.8C505.658 544.32 505.778 543.768 505.778 543.144C505.778 542.52 505.646 541.98 505.382 541.524C505.142 541.044 504.806 540.684 504.374 540.444C503.942 540.18 503.426 540.048 502.826 540.048C502.25 540.048 501.734 540.18 501.278 540.444C500.846 540.708 500.498 541.08 500.234 541.56C499.994 542.016 499.874 542.556 499.874 543.18C499.874 543.78 499.994 544.32 500.234 544.8C500.498 545.256 500.846 545.616 501.278 545.88C501.734 546.12 502.25 546.24 502.826 546.24ZM532.835 552V542.064C532.835 541.368 532.631 540.84 532.223 540.48C531.839 540.096 531.347 539.904 530.747 539.904C530.339 539.904 529.967 539.988 529.631 540.156C529.319 540.324 529.067 540.576 528.875 540.912C528.707 541.224 528.623 541.608 528.623 542.064L525.887 540.84C525.887 539.4 526.199 538.164 526.823 537.132C527.471 536.1 528.347 535.308 529.451 534.756C530.579 534.204 531.851 533.928 533.267 533.928C534.539 533.928 535.667 534.216 536.651 534.792C537.659 535.344 538.451 536.112 539.027 537.096C539.603 538.056 539.891 539.172 539.891 540.444V552H532.835ZM521.567 552V534.288H528.623V552H521.567ZM552.123 552.432C550.059 552.432 548.247 552.048 546.687 551.28C545.127 550.488 543.903 549.396 543.015 548.004C542.151 546.588 541.719 544.968 541.719 543.144C541.719 541.344 542.139 539.748 542.979 538.356C543.843 536.964 545.019 535.872 546.507 535.08C547.995 534.264 549.675 533.856 551.547 533.856C553.395 533.856 555.027 534.24 556.443 535.008C557.859 535.752 558.963 536.796 559.755 538.14C560.571 539.484 560.979 541.02 560.979 542.748C560.979 543.108 560.955 543.492 560.907 543.9C560.883 544.284 560.811 544.74 560.691 545.268L544.707 545.376V541.056L558.063 540.948L554.787 542.856C554.787 541.896 554.667 541.116 554.427 540.516C554.211 539.892 553.875 539.424 553.419 539.112C552.963 538.8 552.387 538.644 551.691 538.644C550.971 538.644 550.347 538.824 549.819 539.184C549.291 539.544 548.883 540.06 548.595 540.732C548.331 541.404 548.199 542.22 548.199 543.18C548.199 544.164 548.343 544.992 548.631 545.664C548.943 546.312 549.387 546.804 549.963 547.14C550.539 547.476 551.259 547.644 552.123 547.644C552.963 547.644 553.695 547.512 554.319 547.248C554.967 546.96 555.555 546.516 556.083 545.916L559.611 549.408C558.723 550.416 557.655 551.172 556.407 551.676C555.159 552.18 553.731 552.432 552.123 552.432ZM563.087 552V525.648H570.143V552H563.087ZM579.025 548.148L589.249 537.852C589.657 537.444 589.981 537.072 590.221 536.736C590.485 536.376 590.665 536.04 590.761 535.728C590.881 535.416 590.941 535.092 590.941 534.756C590.941 533.916 590.665 533.256 590.113 532.776C589.585 532.272 588.865 532.02 587.953 532.02C587.137 532.02 586.381 532.272 585.685 532.776C584.989 533.256 584.245 534.084 583.453 535.26L578.773 531.048C579.829 529.368 581.185 528.096 582.841 527.232C584.521 526.368 586.429 525.936 588.565 525.936C590.509 525.936 592.177 526.284 593.569 526.98C594.985 527.652 596.065 528.624 596.809 529.896C597.577 531.168 597.961 532.68 597.961 534.432C597.961 535.416 597.829 536.34 597.565 537.204C597.301 538.068 596.881 538.92 596.305 539.76C595.729 540.576 594.985 541.416 594.073 542.28L587.629 548.4L579.025 548.148ZM579.025 552V548.148L585.001 546.096H598.501V552H579.025ZM611.638 552.432C609.43 552.432 607.462 551.868 605.734 550.74C604.03 549.588 602.686 548.016 601.702 546.024C600.718 544.008 600.226 541.716 600.226 539.148C600.226 536.58 600.706 534.3 601.666 532.308C602.65 530.316 603.994 528.756 605.698 527.628C607.402 526.5 609.358 525.936 611.566 525.936C613.798 525.936 615.766 526.5 617.47 527.628C619.198 528.756 620.542 530.316 621.502 532.308C622.486 534.3 622.978 536.592 622.978 539.184C622.978 541.776 622.486 544.068 621.502 546.06C620.542 548.052 619.21 549.612 617.506 550.74C615.802 551.868 613.846 552.432 611.638 552.432ZM611.602 546.312C612.49 546.312 613.246 546.036 613.87 545.484C614.494 544.932 614.962 544.128 615.274 543.072C615.61 541.992 615.778 540.696 615.778 539.184C615.778 537.672 615.61 536.388 615.274 535.332C614.962 534.276 614.494 533.472 613.87 532.92C613.246 532.344 612.478 532.056 611.566 532.056C610.702 532.056 609.958 532.332 609.334 532.884C608.71 533.436 608.23 534.24 607.894 535.296C607.582 536.352 607.426 537.636 607.426 539.148C607.426 540.66 607.582 541.956 607.894 543.036C608.23 544.092 608.71 544.908 609.334 545.484C609.958 546.036 610.714 546.312 611.602 546.312ZM624.482 548.148L634.706 537.852C635.114 537.444 635.438 537.072 635.678 536.736C635.942 536.376 636.122 536.04 636.218 535.728C636.338 535.416 636.398 535.092 636.398 534.756C636.398 533.916 636.122 533.256 635.57 532.776C635.042 532.272 634.322 532.02 633.41 532.02C632.594 532.02 631.838 532.272 631.142 532.776C630.446 533.256 629.702 534.084 628.91 535.26L624.23 531.048C625.286 529.368 626.642 528.096 628.298 527.232C629.978 526.368 631.886 525.936 634.022 525.936C635.966 525.936 637.634 526.284 639.026 526.98C640.442 527.652 641.522 528.624 642.266 529.896C643.034 531.168 643.418 532.68 643.418 534.432C643.418 535.416 643.286 536.34 643.022 537.204C642.758 538.068 642.338 538.92 641.762 539.76C641.186 540.576 640.442 541.416 639.53 542.28L633.086 548.4L624.482 548.148ZM624.482 552V548.148L630.458 546.096H643.958V552H624.482ZM650.147 552V526.368H657.275V552H650.147ZM645.359 532.272V526.368H656.915V532.272H645.359Z" fill="#469BFF"/>
<path fill-rule="evenodd" clip-rule="evenodd" d="M599.393 213.324H591.393V221.324V241.08C591.392 241.145 591.392 241.21 591.393 241.275V267.336V275.336H599.393H633.577V259.336H607.393V249.002C608.52 248.891 609.733 248.776 611.035 248.666C617.178 248.151 625.053 247.807 633.216 248.885V232.771C624.18 231.789 615.825 232.209 609.698 232.722C608.893 232.79 608.122 232.859 607.393 232.928V229.324H633.216V213.847H633.577V213.324H599.393ZM530.94 214.794V238.594V273.103H546.94V252.157C547.325 252.225 547.714 252.285 548.109 252.338C553.543 253.07 560.072 252.509 567.812 250.183V273.103H583.812V238.594V214.794H567.812V233.279C559.266 236.558 553.61 236.935 550.246 236.481C548.624 236.263 547.582 235.874 546.94 235.535V214.794H530.94ZM717.133 288.053H725.133H759.317V288.475H758.956V304.053H733.133V308.052C733.859 307.982 734.627 307.912 735.429 307.844C741.556 307.323 749.914 306.898 758.956 307.892V324.009C750.799 322.916 742.927 323.265 736.784 323.787C735.478 323.897 734.263 324.015 733.133 324.128V334.685H759.317V350.685H725.133H717.133V342.685V316.401C717.132 316.36 717.132 316.32 717.132 316.279L717.132 316.253L717.133 316.208V296.053V288.053ZM666.921 235.699C673.36 229.633 677.624 223.214 681.454 214.807H697.589L698.656 215.234C693.149 228.997 686.94 239.436 675.756 249.29V273.658H659.756V250.307C652.805 245.692 648.101 238.631 645.136 232.791C643.255 229.083 641.878 225.482 640.96 222.535C640.155 219.948 639.412 216.961 639.412 214.807H655.412C655.412 214.607 655.417 214.628 655.47 214.883L655.47 214.883L655.471 214.883C655.553 215.277 655.754 216.228 656.236 217.777C656.919 219.968 657.971 222.727 659.404 225.549C661.498 229.675 664.055 233.257 666.921 235.699ZM548.285 302.221C548.411 308.842 548.439 314.952 548.39 321.206C552.652 320.332 556.003 319.189 558.558 317.936C564.585 314.982 565.057 312.158 565.052 311.329C565.044 310.163 564.134 307.548 559.871 305.177C557.068 303.617 553.15 302.427 548.285 302.221ZM548.118 337.516C555.058 336.395 560.871 334.622 565.601 332.303C574.893 327.748 581.111 320.359 581.051 311.225C580.994 302.428 575.085 295.331 567.649 291.194C560.72 287.34 551.715 285.492 541.657 286.432L539.85 286.499L531.846 287.131C532.357 300.979 532.489 311.547 532.374 322.862C530.184 322.916 527.867 322.916 525.418 322.856L525.023 338.851C527.459 338.911 529.811 338.917 532.081 338.873C532.008 341.871 531.924 345.01 531.831 348.341L547.825 348.785C547.936 344.791 548.035 341.064 548.118 337.516ZM623.26 302.426C625.592 303.36 628.044 305.612 629.906 309.187C631.746 312.72 632.675 316.946 632.454 320.857C632.233 324.762 630.922 327.81 628.923 329.804C627.045 331.679 623.684 333.503 617.487 333.435C611.003 333.363 607.309 330.769 605.182 327.519C602.86 323.971 602.003 318.955 602.924 313.928C603.849 308.876 606.36 304.865 609.457 302.755C612.191 300.892 616.514 299.724 623.26 302.426ZM616.792 349.336C626.505 349.443 634.515 346.464 640.183 340.808C645.73 335.272 648.139 328.063 648.525 321.238C648.911 314.421 647.335 307.445 644.27 301.559C641.226 295.714 636.374 290.329 629.714 287.661C618.788 283.285 608.588 284.32 600.609 289.757C592.992 294.946 588.598 303.33 587.087 311.583C585.57 319.861 586.744 329.059 591.581 336.45C596.612 344.139 605.203 349.207 616.792 349.336ZM658.707 321.751V285.966H674.707V304.997C675.958 303.895 677.233 302.762 678.5 301.63C682.153 298.365 685.693 295.143 688.323 292.735C689.638 291.532 690.722 290.534 691.478 289.837C691.855 289.489 692.15 289.216 692.351 289.031L692.578 288.821L692.636 288.768L692.65 288.755L692.653 288.752L692.654 288.751C692.654 288.751 692.654 288.751 698.093 294.617C703.532 300.484 703.532 300.484 703.532 300.484L703.53 300.485L703.526 300.489L703.51 300.504L703.449 300.56L703.214 300.778C703.009 300.968 702.708 301.246 702.324 301.6C701.557 302.307 700.458 303.318 699.128 304.536C696.47 306.97 692.879 310.237 689.163 313.559C685.811 316.555 682.319 319.629 679.302 322.185C684.08 325.552 689.491 328.084 694.499 329.921C698.199 331.277 701.498 332.189 703.857 332.758C705.033 333.041 705.965 333.237 706.585 333.359C706.894 333.42 707.124 333.462 707.267 333.488L707.344 333.502L707.414 333.513L707.426 333.515C707.424 333.515 707.422 333.515 706.152 341.413C704.881 349.312 704.879 349.312 704.877 349.311L704.872 349.31L704.861 349.309L704.831 349.304L704.744 349.289C704.673 349.277 704.579 349.261 704.462 349.24C704.227 349.198 703.901 349.138 703.492 349.057C702.673 348.896 701.521 348.653 700.106 348.312C697.285 347.631 693.381 346.552 688.992 344.943C684.66 343.355 679.664 341.182 674.707 338.247V347.705H658.707V321.751Z" fill="#469BFF"/>
<path d="M317 334C327 328.667 335.333 328.667 342 334C348.667 339.333 357 339.333 367 334C377 328.667 385.333 328.667 392 334C398.667 339.333 407 339.333 417 334C427 328.667 435.333 328.667 442 334C448.667 339.333 457 339.333 467 334" stroke="#E0ECFF" stroke-width="7"/>
<path fill-rule="evenodd" clip-rule="evenodd" d="M729.9 253.8C736.472 253.8 741.8 248.472 741.8 241.9C741.8 235.328 736.472 230 729.9 230C723.328 230 718 235.328 718 241.9C718 248.472 723.328 253.8 729.9 253.8ZM729.9 247.537C733.013 247.537 735.537 245.013 735.537 241.9C735.537 238.787 733.013 236.263 729.9 236.263C726.787 236.263 724.263 238.787 724.263 241.9C724.263 245.013 726.787 247.537 729.9 247.537Z" fill="#469BFF"/>
<path fill-rule="evenodd" clip-rule="evenodd" d="M751 267C754.866 267 758 263.866 758 260C758 256.134 754.866 253 751 253C747.134 253 744 256.134 744 260C744 263.866 747.134 267 751 267ZM751 262.8C752.546 262.8 753.8 261.546 753.8 260C753.8 258.454 752.546 257.2 751 257.2C749.454 257.2 748.2 258.454 748.2 260C748.2 261.546 749.454 262.8 751 262.8Z" fill="#469BFF"/>
<path fill-rule="evenodd" clip-rule="evenodd" d="M736.798 280C739.505 280 741.698 277.806 741.698 275.1C741.698 272.394 739.505 270.2 736.798 270.2C734.092 270.2 731.898 272.394 731.898 275.1C731.898 277.806 734.092 280 736.798 280ZM736.798 276.5C737.572 276.5 738.198 275.873 738.198 275.1C738.198 274.327 737.572 273.7 736.798 273.7C736.025 273.7 735.398 274.327 735.398 275.1C735.398 275.873 736.025 276.5 736.798 276.5Z" fill="#469BFF"/>
<path d="M340.411 272.528C340.031 271.511 339.899 270.479 339.893 269.853C340.015 268.49 341.172 265.469 344.984 264.606C346.067 264.544 348.553 265.113 349.541 268.242C350.549 271.435 348.975 273.663 348.114 274.378C347.522 274.714 346.516 275.145 345.416 275.35C344.266 275.563 343.154 275.504 342.29 274.999C341.408 274.484 340.8 273.57 340.411 272.528Z" fill="#469BFF" stroke="white" stroke-width="2"/>
<path fill-rule="evenodd" clip-rule="evenodd" d="M453.922 175.083C453.021 174.48 451.803 174.706 451.178 175.592L431.318 203.72C413.079 199.303 391.031 197.563 365.188 200.34C282.583 209.218 280.971 261.535 283.669 286.468C286.073 348.682 356.486 369.691 409.943 363.409C468.934 356.477 489.525 329.736 496.257 314.029C504.612 294.534 503.183 265.797 496.257 252.017C493.76 239.497 479.921 222.921 454.803 211.66L478.988 188.245C479.814 187.446 479.798 186.117 478.953 185.338L477.768 184.245C476.972 183.511 475.736 183.544 474.98 184.319L450.219 209.716C445.831 207.957 441.132 206.361 436.123 204.968L455.733 178.829C456.422 177.911 456.199 176.603 455.244 175.966L453.922 175.083ZM450.219 209.716L411.27 249.666C410.764 250.185 410.705 250.993 411.131 251.579C411.663 252.311 412.719 252.403 413.369 251.774L454.803 211.66C453.315 210.992 451.787 210.344 450.219 209.716ZM436.123 204.968L401.115 251.632C400.574 252.354 399.519 252.428 398.882 251.79C398.373 251.28 398.304 250.478 398.72 249.889L431.318 203.72C432.95 204.115 434.552 204.532 436.123 204.968Z" fill="#469BFF"/>
<path d="M451.178 175.592L450.769 175.304V175.304L451.178 175.592ZM453.922 175.083L454.2 174.667V174.667L453.922 175.083ZM365.188 200.34L365.134 199.843L365.188 200.34ZM283.669 286.468L284.169 286.449L284.168 286.432L284.166 286.415L283.669 286.468ZM409.943 363.409L409.885 362.913H409.885L409.943 363.409ZM496.257 314.029L495.797 313.832L496.257 314.029ZM496.257 252.017L495.766 252.115L495.78 252.181L495.81 252.242L496.257 252.017ZM478.988 188.245L479.336 188.605L479.336 188.605L478.988 188.245ZM478.953 185.338L478.614 185.706L478.614 185.706L478.953 185.338ZM477.768 184.245L478.107 183.878L478.107 183.878L477.768 184.245ZM474.98 184.319L475.338 184.668V184.668L474.98 184.319ZM455.733 178.829L456.133 179.129V179.129L455.733 178.829ZM455.244 175.966L454.967 176.381V176.381L455.244 175.966ZM411.27 249.666L410.912 249.317L411.27 249.666ZM411.131 251.579L410.727 251.873V251.873L411.131 251.579ZM413.369 251.774L413.022 251.414L413.369 251.774ZM401.115 251.632L401.515 251.932L401.115 251.632ZM398.882 251.79L399.236 251.437H399.236L398.882 251.79ZM398.72 249.889L398.312 249.6L398.72 249.889ZM451.586 175.881C452.055 175.216 452.968 175.047 453.645 175.498L454.2 174.667C453.073 173.914 451.551 174.196 450.769 175.304L451.586 175.881ZM431.726 204.008L451.586 175.881L450.769 175.304L430.91 203.431L431.726 204.008ZM365.241 200.837C391.032 198.065 413.022 199.804 431.2 204.206L431.436 203.234C413.136 198.803 391.03 197.06 365.134 199.843L365.241 200.837ZM284.166 286.415C282.821 273.983 282.563 254.805 292.869 237.641C303.158 220.505 324.048 205.264 365.241 200.837L365.134 199.843C323.723 204.293 302.505 219.65 292.011 237.126C281.535 254.573 281.819 274.021 283.172 286.522L284.166 286.415ZM409.885 362.913C383.233 366.045 352.367 362.369 327.884 350.177C303.42 337.993 285.362 317.33 284.169 286.449L283.17 286.488C284.381 317.82 302.732 338.768 327.439 351.072C352.128 363.368 383.197 367.056 410.001 363.906L409.885 362.913ZM495.797 313.832C489.143 329.359 468.715 356 409.885 362.913L410.001 363.906C469.152 356.955 489.907 330.114 496.716 314.226L495.797 313.832ZM495.81 252.242C499.227 259.04 501.309 269.586 501.487 280.888C501.665 292.184 499.939 304.167 495.797 313.832L496.716 314.226C500.929 304.396 502.666 292.263 502.487 280.872C502.308 269.487 500.213 258.775 496.703 251.792L495.81 252.242ZM454.599 212.116C479.642 223.344 493.314 239.818 495.766 252.115L496.747 251.919C494.205 239.176 480.2 222.498 455.008 211.203L454.599 212.116ZM478.64 187.886L454.456 211.3L455.151 212.019L479.336 188.605L478.64 187.886ZM478.614 185.706C479.248 186.29 479.26 187.287 478.64 187.886L479.336 188.605C480.368 187.606 480.348 185.945 479.292 184.971L478.614 185.706ZM477.429 184.613L478.614 185.706L479.292 184.971L478.107 183.878L477.429 184.613ZM475.338 184.668C475.905 184.087 476.832 184.062 477.429 184.613L478.107 183.878C477.111 182.96 475.567 183.001 474.622 183.97L475.338 184.668ZM450.577 210.065L475.338 184.668L474.622 183.97L449.861 209.367L450.577 210.065ZM435.989 205.45C440.981 206.838 445.662 208.428 450.033 210.18L450.405 209.251C445.999 207.486 441.283 205.884 436.257 204.487L435.989 205.45ZM455.333 178.529L435.723 204.668L436.523 205.268L456.133 179.129L455.333 178.529ZM454.967 176.381C455.682 176.86 455.85 177.84 455.333 178.529L456.133 179.129C456.994 177.982 456.715 176.347 455.522 175.55L454.967 176.381ZM453.645 175.498L454.967 176.381L455.522 175.55L454.2 174.667L453.645 175.498ZM411.628 250.015L450.577 210.065L449.861 209.367L410.912 249.317L411.628 250.015ZM411.536 251.285C411.253 250.896 411.292 250.36 411.628 250.015L410.912 249.317C410.236 250.011 410.158 251.09 410.727 251.873L411.536 251.285ZM413.022 251.414C412.59 251.832 411.889 251.771 411.536 251.285L410.727 251.873C411.437 252.851 412.849 252.973 413.717 252.133L413.022 251.414ZM454.456 211.3L413.022 251.414L413.717 252.133L455.151 212.019L454.456 211.3ZM450.033 210.18C451.595 210.805 453.117 211.451 454.599 212.116L455.008 211.203C453.513 210.533 451.979 209.882 450.405 209.251L450.033 210.18ZM435.723 204.668L400.716 251.332L401.515 251.932L436.523 205.268L435.723 204.668ZM400.716 251.332C400.357 251.81 399.658 251.86 399.236 251.437L398.528 252.143C399.38 252.997 400.791 252.898 401.515 251.932L400.716 251.332ZM399.236 251.437C398.898 251.099 398.853 250.567 399.129 250.177L398.312 249.6C397.756 250.388 397.847 251.461 398.528 252.143L399.236 251.437ZM399.129 250.177L431.726 204.008L430.91 203.431L398.312 249.6L399.129 250.177ZM431.2 204.206C432.827 204.6 434.424 205.015 435.989 205.45L436.257 204.487C434.68 204.048 433.073 203.63 431.436 203.234L431.2 204.206Z" fill="#469BFF"/>
<path d="M426.181 274.841C401.993 243.038 342.634 233.755 312.977 249.129C311.826 249.726 311.263 251.056 311.566 252.317C325.852 311.672 398.403 316.8 419.964 303.847L439.23 291.511C435.145 286.444 430.781 280.889 426.181 274.841Z" fill="#E0ECFF"/>
<path d="M504.302 300.647C505.661 300.083 504.764 299.248 503.723 298.208L467.894 262.41C466.649 261.167 464.606 261.256 463.475 262.605L439.23 291.511C480.438 307.209 498.95 302.872 504.302 300.647Z" fill="#E0ECFF"/>
<path d="M439.23 291.511L419.964 303.847C398.403 316.8 325.852 311.672 311.566 252.317C311.263 251.056 311.826 249.726 312.977 249.129C342.634 233.755 401.993 243.038 426.181 274.841C430.781 280.889 435.145 286.444 439.23 291.511ZM439.23 291.511L463.475 262.605C464.606 261.256 466.649 261.167 467.894 262.41L503.723 298.208C504.764 299.248 505.661 300.083 504.302 300.647C498.95 302.872 480.438 307.209 439.23 291.511Z" stroke="#E0ECFF" stroke-width="7"/>
<path fill-rule="evenodd" clip-rule="evenodd" d="M364.019 257.429C368.062 268.344 362.918 278.518 355.465 285.967C351.772 289.658 347.648 292.522 344.163 294.277C342.416 295.157 340.9 295.722 339.731 295.992C338.732 296.223 338.268 296.173 338.153 296.161C338.117 296.157 338.115 296.157 338.142 296.17L335.914 300.646C337.448 301.41 339.326 301.218 340.857 300.864C342.531 300.477 344.433 299.739 346.412 298.743C350.379 296.745 354.935 293.565 358.999 289.503C367.062 281.445 373.741 269.28 368.707 255.692L364.019 257.429ZM339.413 251.443C331.927 252.944 329.672 258.699 329.481 261.389C329.506 263.742 330.536 269.003 334.451 271.223C338.367 273.442 343.828 271.508 346.069 270.263C347.905 268.884 351.066 264.607 349.016 258.533C346.967 252.459 341.76 251.276 339.413 251.443Z" fill="#469BFF"/>
<path d="M372 342C382.533 336.667 391.311 336.667 398.333 342C405.356 347.333 414.133 347.333 424.667 342C435.2 336.667 443.978 336.667 451 342C458.022 347.333 466.8 347.333 477.333 342C487.867 336.667 496.644 336.667 503.667 342C510.689 347.333 519.467 347.333 530 342" stroke="#E0ECFF" stroke-width="7"/>
<path d="M317 326C327.8 320.667 336.8 320.667 344 326C351.2 331.333 360.2 331.333 371 326C381.8 320.667 390.8 320.667 398 326C405.2 331.333 414.2 331.333 425 326C435.8 320.667 444.8 320.667 452 326C459.2 331.333 468.2 331.333 479 326" stroke="#E0ECFF" stroke-width="7"/>
<path d="M334.411 264.528C334.031 263.511 333.899 262.479 333.893 261.853C334.015 260.49 335.172 257.469 338.984 256.606C340.067 256.544 342.553 257.113 343.541 260.242C344.549 263.435 342.975 265.663 342.114 266.378C341.522 266.714 340.516 267.145 339.416 267.35C338.266 267.563 337.154 267.504 336.29 266.999C335.408 266.484 334.8 265.57 334.411 264.528Z" fill="#469BFF" stroke="white" stroke-width="2"/>
<path d="M372.04 301.921C382.539 304.077 407.368 305.381 422.691 293.346" stroke="#469BFF" stroke-width="5"/>
</svg>
