<svg width="1023" height="570" viewBox="0 0 1023 570" fill="none" xmlns="http://www.w3.org/2000/svg">
<rect width="1023" height="570" fill="#469BFF"/>
<path fill-rule="evenodd" clip-rule="evenodd" d="M344.582 195.271C285.789 220.874 277.413 272.317 280.574 294.839C284.92 314.199 302.621 355.765 338.656 367.144C374.69 378.524 416.097 352.92 432.297 338.696C444.941 324.077 463.353 283.223 435.853 236.757C408.353 190.292 363.547 189.739 344.582 195.271ZM578.091 284.172C576.09 258.437 582.839 201.081 638.543 195.272C699.381 188.928 729.102 228.721 735.741 248.612C740.878 262.836 741.937 292.497 735.741 312.62C730.749 328.833 715.479 356.434 671.733 363.589C632.091 370.073 579.874 348.388 578.091 284.172ZM473.211 389.33C474.791 375.106 536.034 372.937 538.404 382.218C540.775 391.499 515.883 431.801 502.844 427.261C489.806 422.721 473.211 396.442 473.211 389.33Z" fill="#E0ECFF"/>
<path fill-rule="evenodd" clip-rule="evenodd" d="M613.636 259.637C616.792 228.824 638.619 212.903 649.138 208.795C686.613 202.632 706.337 255.015 699.434 299.695C692.531 344.375 664.917 348.997 646.18 344.375C627.442 339.753 609.691 298.154 613.636 259.637ZM325.516 257.995C322.516 267.643 324.266 287.141 325.516 295.683C328.329 312.265 335.828 327.341 343.329 334.879C354.024 345.628 367.704 351.461 387.392 337.894C407.08 324.326 411.768 300.206 408.018 264.025C404.267 227.845 384.579 212.77 362.079 215.785C339.578 218.8 329.266 245.935 325.516 257.995Z" fill="#469BFF"/>
</svg>
