<svg width="1023" height="570" viewBox="0 0 1023 570" fill="none" xmlns="http://www.w3.org/2000/svg">
<rect width="1023" height="570" fill="#E0ECFF"/>
<path d="M174.396 79.1388C143.62 52.1956 82.6989 55.7036 56.5926 77.7317C55.6158 78.5558 55.351 79.9521 55.8937 81.1092C82.6424 138.146 155.756 127.604 174.396 109.82L190.881 93.1686C185.753 88.9297 180.244 84.2579 174.396 79.1388Z" fill="#469BFF"/>
<path d="M227.209 121.191C229.203 122.622 232 121.183 232 118.73V58.9265C232 56.2465 228.753 54.9113 226.868 56.8159L190.881 93.1686C207.452 106.868 220.043 116.046 227.209 121.191Z" fill="#469BFF"/>
<path d="M190.881 93.1686L174.396 109.82C155.756 127.604 82.6424 138.146 55.8937 81.1092C55.351 79.9521 55.6158 78.5558 56.5926 77.7317C82.6989 55.7036 143.62 52.1956 174.396 79.1388C180.244 84.2579 185.753 88.9297 190.881 93.1686ZM190.881 93.1686L226.868 56.8159C228.753 54.9113 232 56.2465 232 58.9265V118.73C232 121.183 229.203 122.622 227.209 121.191C220.043 116.046 207.452 106.868 190.881 93.1686Z" stroke="#469BFF" stroke-width="7"/>
<path fill-rule="evenodd" clip-rule="evenodd" d="M107.362 51.1448C110.62 56.2743 112.055 63.7634 112.128 72.3537C112.202 80.8921 110.93 90.2623 109.014 98.9397C107.098 107.618 104.557 115.519 102.134 121.113C100.916 123.924 99.7648 126.066 98.785 127.422C98.2888 128.109 97.9072 128.494 97.6625 128.674C97.6063 128.716 97.5697 128.738 97.551 128.748C97.5412 128.752 97.5361 128.755 97.5361 128.755C97.536 128.756 97.5408 128.754 97.551 128.748C97.6006 128.728 97.772 128.676 98.0308 128.742L97.0383 132.617C98.2738 132.934 99.343 132.405 100.036 131.894C100.757 131.363 101.42 130.605 102.027 129.765C103.253 128.068 104.538 125.625 105.804 122.703C108.348 116.831 110.961 108.678 112.92 99.8021C114.88 90.9261 116.205 81.2436 116.128 72.3194C116.052 63.4472 114.59 55.0637 110.738 49L107.362 51.1448ZM81.9082 75.4227C76.1207 77.8442 75.2961 82.7097 75.6073 84.8398C76.0351 86.6709 77.7776 90.6022 81.3248 91.6784C84.8721 92.7547 88.9482 90.3331 90.5429 88.9878C91.7876 87.6052 93.6001 83.7411 90.893 79.3465C88.1859 74.9518 83.7752 74.8995 81.9082 75.4227Z" fill="#E0ECFF"/>
<path d="M462.396 79.1388C431.62 52.1956 370.699 55.7036 344.593 77.7317C343.616 78.5558 343.351 79.9521 343.894 81.1092C370.642 138.146 443.756 127.604 462.396 109.82L478.881 93.1686C473.753 88.9297 468.244 84.2579 462.396 79.1388Z" fill="#469BFF"/>
<path d="M515.209 121.191C517.203 122.622 520 121.183 520 118.73V58.9265C520 56.2465 516.753 54.9113 514.868 56.8159L478.881 93.1686C495.452 106.868 508.043 116.046 515.209 121.191Z" fill="#469BFF"/>
<path d="M478.881 93.1686L462.396 109.82C443.756 127.604 370.642 138.146 343.894 81.1092C343.351 79.9521 343.616 78.5558 344.593 77.7317C370.699 55.7036 431.62 52.1956 462.396 79.1388C468.244 84.2579 473.753 88.9297 478.881 93.1686ZM478.881 93.1686L514.868 56.8159C516.753 54.9113 520 56.2465 520 58.9265V118.73C520 121.183 517.203 122.622 515.209 121.191C508.043 116.046 495.452 106.868 478.881 93.1686Z" stroke="#469BFF" stroke-width="7"/>
<path fill-rule="evenodd" clip-rule="evenodd" d="M395.362 51.1448C398.62 56.2743 400.055 63.7634 400.128 72.3537C400.202 80.8921 398.93 90.2623 397.014 98.9397C395.098 107.618 392.557 115.519 390.134 121.113C388.916 123.924 387.765 126.066 386.785 127.422C386.289 128.109 385.907 128.494 385.663 128.674C385.606 128.716 385.57 128.738 385.551 128.748C385.541 128.752 385.536 128.755 385.536 128.755C385.536 128.756 385.541 128.754 385.551 128.748C385.601 128.728 385.772 128.676 386.031 128.742L385.038 132.617C386.274 132.934 387.343 132.405 388.036 131.894C388.757 131.363 389.42 130.605 390.027 129.765C391.253 128.068 392.538 125.624 393.804 122.703C396.348 116.831 398.961 108.678 400.92 99.8021C402.88 90.9261 404.205 81.2436 404.128 72.3194C404.052 63.4472 402.59 55.0637 398.738 49L395.362 51.1448ZM369.908 75.4227C364.121 77.8442 363.296 82.7097 363.607 84.8398C364.035 86.6709 365.778 90.6022 369.325 91.6784C372.872 92.7547 376.948 90.3331 378.543 88.9878C379.788 87.6052 381.6 83.7411 378.893 79.3465C376.186 74.9518 371.775 74.8995 369.908 75.4227Z" fill="#E0ECFF"/>
<path d="M750.396 82.1388C719.62 55.1956 658.699 58.7036 632.593 80.7317C631.616 81.5558 631.351 82.9521 631.894 84.1092C658.642 141.146 731.756 130.604 750.396 112.82L766.881 96.1686C761.753 91.9297 756.244 87.2579 750.396 82.1388Z" fill="#469BFF"/>
<path d="M803.209 124.191C805.203 125.622 808 124.183 808 121.73V61.9265C808 59.2465 804.753 57.9113 802.868 59.8159L766.881 96.1686C783.452 109.868 796.043 119.046 803.209 124.191Z" fill="#469BFF"/>
<path d="M766.881 96.1686L750.396 112.82C731.756 130.604 658.642 141.146 631.894 84.1092C631.351 82.9521 631.616 81.5558 632.593 80.7317C658.699 58.7036 719.62 55.1956 750.396 82.1388C756.244 87.2579 761.753 91.9297 766.881 96.1686ZM766.881 96.1686L802.868 59.8159C804.753 57.9113 808 59.2465 808 61.9265V121.73C808 124.183 805.203 125.622 803.209 124.191C796.043 119.046 783.452 109.868 766.881 96.1686Z" stroke="#469BFF" stroke-width="7"/>
<path fill-rule="evenodd" clip-rule="evenodd" d="M683.362 54.1448C686.62 59.2743 688.055 66.7634 688.128 75.3537C688.202 83.8921 686.93 93.2623 685.014 101.94C683.098 110.618 680.557 118.519 678.134 124.113C676.916 126.924 675.765 129.066 674.785 130.422C674.289 131.109 673.907 131.494 673.663 131.674C673.606 131.716 673.57 131.738 673.551 131.748C673.541 131.752 673.536 131.755 673.536 131.755C673.536 131.756 673.541 131.754 673.551 131.748C673.601 131.728 673.772 131.676 674.031 131.742L673.038 135.617C674.274 135.934 675.343 135.405 676.036 134.894C676.757 134.363 677.42 133.605 678.027 132.765C679.253 131.068 680.538 128.624 681.804 125.703C684.348 119.831 686.961 111.678 688.92 102.802C690.88 93.9261 692.205 84.2436 692.128 75.3194C692.052 66.4472 690.59 58.0637 686.738 52L683.362 54.1448ZM657.908 78.4227C652.121 80.8442 651.296 85.7097 651.607 87.8398C652.035 89.6709 653.778 93.6022 657.325 94.6784C660.872 95.7547 664.948 93.3331 666.543 91.9878C667.788 90.6052 669.6 86.7411 666.893 82.3465C664.186 77.9518 659.775 77.8995 657.908 78.4227Z" fill="#E0ECFF"/>
<path d="M174.396 220.139C143.62 193.196 82.6989 196.704 56.5926 218.732C55.6158 219.556 55.351 220.952 55.8937 222.109C82.6424 279.146 155.756 268.604 174.396 250.82L190.881 234.169C185.753 229.93 180.244 225.258 174.396 220.139Z" fill="#469BFF"/>
<path d="M227.209 262.191C229.203 263.622 232 262.183 232 259.73V199.927C232 197.247 228.753 195.911 226.868 197.816L190.881 234.169C207.452 247.868 220.043 257.046 227.209 262.191Z" fill="#469BFF"/>
<path d="M190.881 234.169L174.396 250.82C155.756 268.604 82.6424 279.146 55.8937 222.109C55.351 220.952 55.6158 219.556 56.5926 218.732C82.6989 196.704 143.62 193.196 174.396 220.139C180.244 225.258 185.753 229.93 190.881 234.169ZM190.881 234.169L226.868 197.816C228.753 195.911 232 197.247 232 199.927V259.73C232 262.183 229.203 263.622 227.209 262.191C220.043 257.046 207.452 247.868 190.881 234.169Z" stroke="#469BFF" stroke-width="7"/>
<path fill-rule="evenodd" clip-rule="evenodd" d="M107.362 192.145C110.62 197.274 112.055 204.763 112.128 213.354C112.202 221.892 110.93 231.262 109.014 239.94C107.098 248.618 104.557 256.519 102.134 262.113C100.916 264.924 99.7648 267.066 98.785 268.422C98.2888 269.109 97.9072 269.494 97.6625 269.674C97.6063 269.716 97.5697 269.738 97.551 269.748C97.5412 269.752 97.5361 269.755 97.5361 269.755C97.536 269.756 97.5408 269.754 97.551 269.748C97.6006 269.728 97.772 269.676 98.0308 269.742L97.0383 273.617C98.2738 273.934 99.343 273.405 100.036 272.894C100.757 272.363 101.42 271.605 102.027 270.765C103.253 269.068 104.538 266.624 105.804 263.703C108.348 257.831 110.961 249.678 112.92 240.802C114.88 231.926 116.205 222.244 116.128 213.319C116.052 204.447 114.59 196.064 110.738 190L107.362 192.145ZM81.9082 216.423C76.1207 218.844 75.2961 223.71 75.6073 225.84C76.0351 227.671 77.7776 231.602 81.3248 232.678C84.8721 233.755 88.9482 231.333 90.5429 229.988C91.7876 228.605 93.6001 224.741 90.893 220.346C88.1859 215.952 83.7752 215.9 81.9082 216.423Z" fill="#E0ECFF"/>
<path d="M462.396 220.139C431.62 193.196 370.699 196.704 344.593 218.732C343.616 219.556 343.351 220.952 343.894 222.109C370.642 279.146 443.756 268.604 462.396 250.82L478.881 234.169C473.753 229.93 468.244 225.258 462.396 220.139Z" fill="#469BFF"/>
<path d="M515.209 262.191C517.203 263.622 520 262.183 520 259.73V199.927C520 197.247 516.753 195.911 514.868 197.816L478.881 234.169C495.452 247.868 508.043 257.046 515.209 262.191Z" fill="#469BFF"/>
<path d="M478.881 234.169L462.396 250.82C443.756 268.604 370.642 279.146 343.894 222.109C343.351 220.952 343.616 219.556 344.593 218.732C370.699 196.704 431.62 193.196 462.396 220.139C468.244 225.258 473.753 229.93 478.881 234.169ZM478.881 234.169L514.868 197.816C516.753 195.911 520 197.247 520 199.927V259.73C520 262.183 517.203 263.622 515.209 262.191C508.043 257.046 495.452 247.868 478.881 234.169Z" stroke="#469BFF" stroke-width="7"/>
<path fill-rule="evenodd" clip-rule="evenodd" d="M395.362 192.145C398.62 197.274 400.055 204.763 400.128 213.354C400.202 221.892 398.93 231.262 397.014 239.94C395.098 248.618 392.557 256.519 390.134 262.113C388.916 264.924 387.765 267.066 386.785 268.422C386.289 269.109 385.907 269.494 385.663 269.674C385.606 269.716 385.57 269.738 385.551 269.748C385.541 269.752 385.536 269.755 385.536 269.755C385.536 269.756 385.541 269.754 385.551 269.748C385.601 269.728 385.772 269.676 386.031 269.742L385.038 273.617C386.274 273.934 387.343 273.405 388.036 272.894C388.757 272.363 389.42 271.605 390.027 270.765C391.253 269.068 392.538 266.624 393.804 263.703C396.348 257.831 398.961 249.678 400.92 240.802C402.88 231.926 404.205 222.244 404.128 213.319C404.052 204.447 402.59 196.064 398.738 190L395.362 192.145ZM369.908 216.423C364.121 218.844 363.296 223.71 363.607 225.84C364.035 227.671 365.778 231.602 369.325 232.678C372.872 233.755 376.948 231.333 378.543 229.988C379.788 228.605 381.6 224.741 378.893 220.346C376.186 215.952 371.775 215.9 369.908 216.423Z" fill="#E0ECFF"/>
<path d="M750.396 223.139C719.62 196.196 658.699 199.704 632.593 221.732C631.616 222.556 631.351 223.952 631.894 225.109C658.642 282.146 731.756 271.604 750.396 253.82L766.881 237.169C761.753 232.93 756.244 228.258 750.396 223.139Z" fill="#469BFF"/>
<path d="M803.209 265.191C805.203 266.622 808 265.183 808 262.73V202.927C808 200.247 804.753 198.911 802.868 200.816L766.881 237.169C783.452 250.868 796.043 260.046 803.209 265.191Z" fill="#469BFF"/>
<path d="M766.881 237.169L750.396 253.82C731.756 271.604 658.642 282.146 631.894 225.109C631.351 223.952 631.616 222.556 632.593 221.732C658.699 199.704 719.62 196.196 750.396 223.139C756.244 228.258 761.753 232.93 766.881 237.169ZM766.881 237.169L802.868 200.816C804.753 198.911 808 200.247 808 202.927V262.73C808 265.183 805.203 266.622 803.209 265.191C796.043 260.046 783.452 250.868 766.881 237.169Z" stroke="#469BFF" stroke-width="7"/>
<path fill-rule="evenodd" clip-rule="evenodd" d="M683.362 195.145C686.62 200.274 688.055 207.763 688.128 216.354C688.202 224.892 686.93 234.262 685.014 242.94C683.098 251.618 680.557 259.519 678.134 265.113C676.916 267.924 675.765 270.066 674.785 271.422C674.289 272.109 673.907 272.494 673.663 272.674C673.606 272.716 673.57 272.738 673.551 272.748C673.541 272.752 673.536 272.755 673.536 272.755C673.536 272.756 673.541 272.754 673.551 272.748C673.601 272.728 673.772 272.676 674.031 272.742L673.038 276.617C674.274 276.934 675.343 276.405 676.036 275.894C676.757 275.363 677.42 274.605 678.027 273.765C679.253 272.068 680.538 269.624 681.804 266.703C684.348 260.831 686.961 252.678 688.92 243.802C690.88 234.926 692.205 225.244 692.128 216.319C692.052 207.447 690.59 199.064 686.738 193L683.362 195.145ZM657.908 219.423C652.121 221.844 651.296 226.71 651.607 228.84C652.035 230.671 653.778 234.602 657.325 235.678C660.872 236.755 664.948 234.333 666.543 232.988C667.788 231.605 669.6 227.741 666.893 223.346C664.186 218.952 659.775 218.9 657.908 219.423Z" fill="#E0ECFF"/>
<path d="M174.396 361.139C143.62 334.196 82.6989 337.704 56.5926 359.732C55.6158 360.556 55.351 361.952 55.8937 363.109C82.6424 420.146 155.756 409.604 174.396 391.82L190.881 375.169C185.753 370.93 180.244 366.258 174.396 361.139Z" fill="#469BFF"/>
<path d="M227.209 403.191C229.203 404.622 232 403.183 232 400.73V340.927C232 338.247 228.753 336.911 226.868 338.816L190.881 375.169C207.452 388.868 220.043 398.046 227.209 403.191Z" fill="#469BFF"/>
<path d="M190.881 375.169L174.396 391.82C155.756 409.604 82.6424 420.146 55.8937 363.109C55.351 361.952 55.6158 360.556 56.5926 359.732C82.6989 337.704 143.62 334.196 174.396 361.139C180.244 366.258 185.753 370.93 190.881 375.169ZM190.881 375.169L226.868 338.816C228.753 336.911 232 338.247 232 340.927V400.73C232 403.183 229.203 404.622 227.209 403.191C220.043 398.046 207.452 388.868 190.881 375.169Z" stroke="#469BFF" stroke-width="7"/>
<path fill-rule="evenodd" clip-rule="evenodd" d="M107.362 333.145C110.62 338.274 112.055 345.763 112.128 354.354C112.202 362.892 110.93 372.262 109.014 380.94C107.098 389.618 104.557 397.519 102.134 403.113C100.916 405.924 99.7648 408.066 98.785 409.422C98.2888 410.109 97.9072 410.494 97.6625 410.674C97.6063 410.716 97.5697 410.738 97.551 410.748C97.5412 410.752 97.5361 410.755 97.5361 410.755C97.536 410.756 97.5408 410.754 97.551 410.748C97.6006 410.728 97.772 410.676 98.0308 410.742L97.0383 414.617C98.2738 414.934 99.343 414.405 100.036 413.894C100.757 413.363 101.42 412.605 102.027 411.765C103.253 410.068 104.538 407.624 105.804 404.703C108.348 398.831 110.961 390.678 112.92 381.802C114.88 372.926 116.205 363.244 116.128 354.319C116.052 345.447 114.59 337.064 110.738 331L107.362 333.145ZM81.9082 357.423C76.1207 359.844 75.2961 364.71 75.6073 366.84C76.0351 368.671 77.7776 372.602 81.3248 373.678C84.8721 374.755 88.9482 372.333 90.5429 370.988C91.7876 369.605 93.6001 365.741 90.893 361.346C88.1859 356.952 83.7752 356.9 81.9082 357.423Z" fill="#E0ECFF"/>
<path d="M462.396 361.139C431.62 334.196 370.699 337.704 344.593 359.732C343.616 360.556 343.351 361.952 343.894 363.109C370.642 420.146 443.756 409.604 462.396 391.82L478.881 375.169C473.753 370.93 468.244 366.258 462.396 361.139Z" fill="#469BFF"/>
<path d="M515.209 403.191C517.203 404.622 520 403.183 520 400.73V340.927C520 338.247 516.753 336.911 514.868 338.816L478.881 375.169C495.452 388.868 508.043 398.046 515.209 403.191Z" fill="#469BFF"/>
<path d="M478.881 375.169L462.396 391.82C443.756 409.604 370.642 420.146 343.894 363.109C343.351 361.952 343.616 360.556 344.593 359.732C370.699 337.704 431.62 334.196 462.396 361.139C468.244 366.258 473.753 370.93 478.881 375.169ZM478.881 375.169L514.868 338.816C516.753 336.911 520 338.247 520 340.927V400.73C520 403.183 517.203 404.622 515.209 403.191C508.043 398.046 495.452 388.868 478.881 375.169Z" stroke="#469BFF" stroke-width="7"/>
<path fill-rule="evenodd" clip-rule="evenodd" d="M395.362 333.145C398.62 338.274 400.055 345.763 400.128 354.354C400.202 362.892 398.93 372.262 397.014 380.94C395.098 389.618 392.557 397.519 390.134 403.113C388.916 405.924 387.765 408.066 386.785 409.422C386.289 410.109 385.907 410.494 385.663 410.674C385.606 410.716 385.57 410.738 385.551 410.748C385.541 410.752 385.536 410.755 385.536 410.755C385.536 410.756 385.541 410.754 385.551 410.748C385.601 410.728 385.772 410.676 386.031 410.742L385.038 414.617C386.274 414.934 387.343 414.405 388.036 413.894C388.757 413.363 389.42 412.605 390.027 411.765C391.253 410.068 392.538 407.624 393.804 404.703C396.348 398.831 398.961 390.678 400.92 381.802C402.88 372.926 404.205 363.244 404.128 354.319C404.052 345.447 402.59 337.064 398.738 331L395.362 333.145ZM369.908 357.423C364.121 359.844 363.296 364.71 363.607 366.84C364.035 368.671 365.778 372.602 369.325 373.678C372.872 374.755 376.948 372.333 378.543 370.988C379.788 369.605 381.6 365.741 378.893 361.346C376.186 356.952 371.775 356.9 369.908 357.423Z" fill="#E0ECFF"/>
<path d="M750.396 364.139C719.62 337.196 658.699 340.704 632.593 362.732C631.616 363.556 631.351 364.952 631.894 366.109C658.642 423.146 731.756 412.604 750.396 394.82L766.881 378.169C761.753 373.93 756.244 369.258 750.396 364.139Z" fill="#469BFF"/>
<path d="M803.209 406.191C805.203 407.622 808 406.183 808 403.73V343.927C808 341.247 804.753 339.911 802.868 341.816L766.881 378.169C783.452 391.868 796.043 401.046 803.209 406.191Z" fill="#469BFF"/>
<path d="M766.881 378.169L750.396 394.82C731.756 412.604 658.642 423.146 631.894 366.109C631.351 364.952 631.616 363.556 632.593 362.732C658.699 340.704 719.62 337.196 750.396 364.139C756.244 369.258 761.753 373.93 766.881 378.169ZM766.881 378.169L802.868 341.816C804.753 339.911 808 341.247 808 343.927V403.73C808 406.183 805.203 407.622 803.209 406.191C796.043 401.046 783.452 391.868 766.881 378.169Z" stroke="#469BFF" stroke-width="7"/>
<path fill-rule="evenodd" clip-rule="evenodd" d="M683.362 336.145C686.62 341.274 688.055 348.763 688.128 357.354C688.202 365.892 686.93 375.262 685.014 383.94C683.098 392.618 680.557 400.519 678.134 406.113C676.916 408.924 675.765 411.066 674.785 412.422C674.289 413.109 673.907 413.494 673.663 413.674C673.606 413.716 673.57 413.738 673.551 413.748C673.541 413.752 673.536 413.755 673.536 413.755C673.536 413.756 673.541 413.754 673.551 413.748C673.601 413.728 673.772 413.676 674.031 413.742L673.038 417.617C674.274 417.934 675.343 417.405 676.036 416.894C676.757 416.363 677.42 415.605 678.027 414.765C679.253 413.068 680.538 410.624 681.804 407.703C684.348 401.831 686.961 393.678 688.92 384.802C690.88 375.926 692.205 366.244 692.128 357.319C692.052 348.447 690.59 340.064 686.738 334L683.362 336.145ZM657.908 360.423C652.121 362.844 651.296 367.71 651.607 369.84C652.035 371.671 653.778 375.602 657.325 376.678C660.872 377.755 664.948 375.333 666.543 373.988C667.788 372.605 669.6 368.741 666.893 364.346C664.186 359.952 659.775 359.9 657.908 360.423Z" fill="#E0ECFF"/>
<path d="M174.396 502.139C143.62 475.196 82.6989 478.704 56.5926 500.732C55.6158 501.556 55.351 502.952 55.8937 504.109C82.6424 561.146 155.756 550.604 174.396 532.82L190.881 516.169C185.753 511.93 180.244 507.258 174.396 502.139Z" fill="#469BFF"/>
<path d="M227.209 544.191C229.203 545.622 232 544.183 232 541.73V481.927C232 479.247 228.753 477.911 226.868 479.816L190.881 516.169C207.452 529.868 220.043 539.046 227.209 544.191Z" fill="#469BFF"/>
<path d="M190.881 516.169L174.396 532.82C155.756 550.604 82.6424 561.146 55.8937 504.109C55.351 502.952 55.6158 501.556 56.5926 500.732C82.6989 478.704 143.62 475.196 174.396 502.139C180.244 507.258 185.753 511.93 190.881 516.169ZM190.881 516.169L226.868 479.816C228.753 477.911 232 479.247 232 481.927V541.73C232 544.183 229.203 545.622 227.209 544.191C220.043 539.046 207.452 529.868 190.881 516.169Z" stroke="#469BFF" stroke-width="7"/>
<path fill-rule="evenodd" clip-rule="evenodd" d="M107.362 474.145C110.62 479.274 112.055 486.763 112.128 495.354C112.202 503.892 110.93 513.262 109.014 521.94C107.098 530.618 104.557 538.519 102.134 544.113C100.916 546.924 99.7648 549.066 98.785 550.422C98.2888 551.109 97.9072 551.494 97.6625 551.674C97.6063 551.716 97.5697 551.738 97.551 551.748C97.5412 551.752 97.5361 551.755 97.5361 551.755C97.536 551.756 97.5408 551.754 97.551 551.748C97.6006 551.728 97.772 551.676 98.0308 551.742L97.0383 555.617C98.2738 555.934 99.343 555.405 100.036 554.894C100.757 554.363 101.42 553.605 102.027 552.765C103.253 551.068 104.538 548.624 105.804 545.703C108.348 539.831 110.961 531.678 112.92 522.802C114.88 513.926 116.205 504.244 116.128 495.319C116.052 486.447 114.59 478.064 110.738 472L107.362 474.145ZM81.9082 498.423C76.1207 500.844 75.2961 505.71 75.6073 507.84C76.0351 509.671 77.7776 513.602 81.3248 514.678C84.8721 515.755 88.9482 513.333 90.5429 511.988C91.7876 510.605 93.6001 506.741 90.893 502.346C88.1859 497.952 83.7752 497.9 81.9082 498.423Z" fill="#E0ECFF"/>
<path d="M462.396 502.139C431.62 475.196 370.699 478.704 344.593 500.732C343.616 501.556 343.351 502.952 343.894 504.109C370.642 561.146 443.756 550.604 462.396 532.82L478.881 516.169C473.753 511.93 468.244 507.258 462.396 502.139Z" fill="#469BFF"/>
<path d="M515.209 544.191C517.203 545.622 520 544.183 520 541.73V481.927C520 479.247 516.753 477.911 514.868 479.816L478.881 516.169C495.452 529.868 508.043 539.046 515.209 544.191Z" fill="#469BFF"/>
<path d="M478.881 516.169L462.396 532.82C443.756 550.604 370.642 561.146 343.894 504.109C343.351 502.952 343.616 501.556 344.593 500.732C370.699 478.704 431.62 475.196 462.396 502.139C468.244 507.258 473.753 511.93 478.881 516.169ZM478.881 516.169L514.868 479.816C516.753 477.911 520 479.247 520 481.927V541.73C520 544.183 517.203 545.622 515.209 544.191C508.043 539.046 495.452 529.868 478.881 516.169Z" stroke="#469BFF" stroke-width="7"/>
<path fill-rule="evenodd" clip-rule="evenodd" d="M395.362 474.145C398.62 479.274 400.055 486.763 400.128 495.354C400.202 503.892 398.93 513.262 397.014 521.94C395.098 530.618 392.557 538.519 390.134 544.113C388.916 546.924 387.765 549.066 386.785 550.422C386.289 551.109 385.907 551.494 385.663 551.674C385.606 551.716 385.57 551.738 385.551 551.748C385.541 551.752 385.536 551.755 385.536 551.755C385.536 551.756 385.541 551.754 385.551 551.748C385.601 551.728 385.772 551.676 386.031 551.742L385.038 555.617C386.274 555.934 387.343 555.405 388.036 554.894C388.757 554.363 389.42 553.605 390.027 552.765C391.253 551.068 392.538 548.624 393.804 545.703C396.348 539.831 398.961 531.678 400.92 522.802C402.88 513.926 404.205 504.244 404.128 495.319C404.052 486.447 402.59 478.064 398.738 472L395.362 474.145ZM369.908 498.423C364.121 500.844 363.296 505.71 363.607 507.84C364.035 509.671 365.778 513.602 369.325 514.678C372.872 515.755 376.948 513.333 378.543 511.988C379.788 510.605 381.6 506.741 378.893 502.346C376.186 497.952 371.775 497.9 369.908 498.423Z" fill="#E0ECFF"/>
<path d="M750.396 505.139C719.62 478.196 658.699 481.704 632.593 503.732C631.616 504.556 631.351 505.952 631.894 507.109C658.642 564.146 731.756 553.604 750.396 535.82L766.881 519.169C761.753 514.93 756.244 510.258 750.396 505.139Z" fill="#469BFF"/>
<path d="M803.209 547.191C805.203 548.622 808 547.183 808 544.73V484.927C808 482.247 804.753 480.911 802.868 482.816L766.881 519.169C783.452 532.868 796.043 542.046 803.209 547.191Z" fill="#469BFF"/>
<path d="M766.881 519.169L750.396 535.82C731.756 553.604 658.642 564.146 631.894 507.109C631.351 505.952 631.616 504.556 632.593 503.732C658.699 481.704 719.62 478.196 750.396 505.139C756.244 510.258 761.753 514.93 766.881 519.169ZM766.881 519.169L802.868 482.816C804.753 480.911 808 482.247 808 484.927V544.73C808 547.183 805.203 548.622 803.209 547.191C796.043 542.046 783.452 532.868 766.881 519.169Z" stroke="#469BFF" stroke-width="7"/>
<path fill-rule="evenodd" clip-rule="evenodd" d="M683.362 477.145C686.62 482.274 688.055 489.763 688.128 498.354C688.202 506.892 686.93 516.262 685.014 524.94C683.098 533.618 680.557 541.519 678.134 547.113C676.916 549.924 675.765 552.066 674.785 553.422C674.289 554.109 673.907 554.494 673.663 554.674C673.606 554.716 673.57 554.738 673.551 554.748C673.541 554.752 673.536 554.755 673.536 554.755C673.536 554.756 673.541 554.754 673.551 554.748C673.601 554.728 673.772 554.676 674.031 554.742L673.038 558.617C674.274 558.934 675.343 558.405 676.036 557.894C676.757 557.363 677.42 556.605 678.027 555.765C679.253 554.068 680.538 551.624 681.804 548.703C684.348 542.831 686.961 534.678 688.92 525.802C690.88 516.926 692.205 507.244 692.128 498.319C692.052 489.447 690.59 481.064 686.738 475L683.362 477.145ZM657.908 501.423C652.121 503.844 651.296 508.71 651.607 510.84C652.035 512.671 653.778 516.602 657.325 517.678C660.872 518.755 664.948 516.333 666.543 514.988C667.788 513.605 669.6 509.741 666.893 505.346C664.186 500.952 659.775 500.9 657.908 501.423Z" fill="#E0ECFF"/>
<path d="M750.396 505.139C719.62 478.196 658.699 481.704 632.593 503.732C631.616 504.556 631.351 505.952 631.894 507.109C658.642 564.146 731.756 553.604 750.396 535.82L766.881 519.169C761.753 514.93 756.244 510.258 750.396 505.139Z" fill="#469BFF"/>
<path d="M803.209 547.191C805.203 548.622 808 547.183 808 544.73V484.927C808 482.247 804.753 480.911 802.868 482.816L766.881 519.169C783.452 532.868 796.043 542.046 803.209 547.191Z" fill="#469BFF"/>
<path d="M766.881 519.169L750.396 535.82C731.756 553.604 658.642 564.146 631.894 507.109C631.351 505.952 631.616 504.556 632.593 503.732C658.699 481.704 719.62 478.196 750.396 505.139C756.244 510.258 761.753 514.93 766.881 519.169ZM766.881 519.169L802.868 482.816C804.753 480.911 808 482.247 808 484.927V544.73C808 547.183 805.203 548.622 803.209 547.191C796.043 542.046 783.452 532.868 766.881 519.169Z" stroke="#469BFF" stroke-width="7"/>
<path fill-rule="evenodd" clip-rule="evenodd" d="M683.362 477.145C686.62 482.274 688.055 489.763 688.128 498.354C688.202 506.892 686.93 516.262 685.014 524.94C683.098 533.618 680.557 541.519 678.134 547.113C676.916 549.924 675.765 552.066 674.785 553.422C674.289 554.109 673.907 554.494 673.663 554.674C673.606 554.716 673.57 554.738 673.551 554.748C673.541 554.752 673.536 554.755 673.536 554.755C673.536 554.756 673.541 554.754 673.551 554.748C673.601 554.728 673.772 554.676 674.031 554.742L673.038 558.617C674.274 558.934 675.343 558.405 676.036 557.894C676.757 557.363 677.42 556.605 678.027 555.765C679.253 554.068 680.538 551.624 681.804 548.703C684.348 542.831 686.961 534.678 688.92 525.802C690.88 516.926 692.205 507.244 692.128 498.319C692.052 489.447 690.59 481.064 686.738 475L683.362 477.145ZM657.908 501.423C652.121 503.844 651.296 508.71 651.607 510.84C652.035 512.671 653.778 516.602 657.325 517.678C660.872 518.755 664.948 516.333 666.543 514.988C667.788 513.605 669.6 509.741 666.893 505.346C664.186 500.952 659.775 500.9 657.908 501.423Z" fill="#E0ECFF"/>
</svg>
