<svg width="942" height="561" viewBox="0 0 942 561" fill="none" xmlns="http://www.w3.org/2000/svg">
<rect width="942" height="561" fill="#E0ECFF"/>
<path fill-rule="evenodd" clip-rule="evenodd" d="M260.184 283.684C254.934 244.128 272.641 155.969 418.798 147.041C578.423 137.29 656.406 198.454 673.826 229.027C687.303 250.89 690.083 296.48 673.826 327.41C660.727 352.329 620.662 394.754 505.881 405.752C401.868 415.718 264.862 382.386 260.184 283.684ZM169.939 412.442C168.476 392.664 173.409 348.585 214.124 344.121C258.591 339.245 280.315 369.827 285.167 385.114C288.922 396.045 289.696 418.84 285.167 434.305C281.519 446.765 270.358 467.977 238.383 473.476C209.408 478.459 171.242 461.793 169.939 412.442ZM142.693 454.064C117.482 465.051 113.891 487.128 115.246 496.793C117.11 505.102 124.7 522.94 140.151 527.823C155.603 532.707 173.358 521.719 180.305 515.615C185.726 509.341 193.622 491.808 181.83 471.868C170.038 451.927 150.825 451.69 142.693 454.064Z" fill="#469BFF"/>
<path fill-rule="evenodd" clip-rule="evenodd" d="M464.13 167.654L462.667 165H475.127C477.522 169.993 479.969 176.904 480.786 184.106C481.755 192.641 480.52 202.743 472.642 209.889C468.393 213.743 467.3 218.874 468.027 224.497C468.613 229.031 470.363 233.453 472.134 236.717H460.006C458.696 233.449 457.616 229.758 457.118 225.908C456.095 218.001 457.502 208.771 465.252 201.741C469.373 198.003 470.638 192.231 469.856 185.347C469.081 178.515 466.372 171.722 464.13 167.654ZM421.91 172.622L420.043 169.677H432.911C435.247 174.048 437.577 179.942 438.384 186.12C439.399 193.902 438.047 203.11 429.961 209.488C425.882 212.706 424.959 216.768 425.621 221.219C426.219 225.242 428.122 229.231 429.979 232.04H417.488C416.247 229.246 415.228 226.115 414.741 222.837C413.653 215.523 415.23 207.098 423.149 200.851C427.063 197.764 428.21 193.17 427.476 187.544C426.732 181.841 424.109 176.091 421.91 172.622Z" fill="#E0ECFF"/>
<path d="M542.519 278.569C486.464 230.379 375.004 237.146 328.611 277.142C327.63 277.988 327.369 279.402 327.914 280.577C375.61 383.344 508.709 364.629 542.519 332.953L572.275 303.437C563.019 295.924 553.074 287.643 542.519 278.569Z" fill="#E0ECFF"/>
<path d="M693.964 293.531C695.092 292.583 693.314 292.614 692.078 291.813L610.141 238.781C608.662 237.824 606.681 238.34 605.858 239.897L572.275 303.437C658.568 316.746 688.351 298.251 693.964 293.531Z" fill="#E0ECFF"/>
<path d="M572.275 303.437L542.519 332.953C508.709 364.629 375.61 383.344 327.914 280.577C327.369 279.402 327.63 277.988 328.611 277.142C375.004 237.146 486.464 230.379 542.519 278.569C553.074 287.643 563.019 295.924 572.275 303.437ZM572.275 303.437L605.858 239.897C606.681 238.34 608.662 237.824 610.141 238.781L692.078 291.813C693.314 292.614 695.092 292.583 693.964 293.531C688.351 298.251 658.568 316.746 572.275 303.437Z" stroke="#E0ECFF" stroke-width="7"/>
<path fill-rule="evenodd" clip-rule="evenodd" d="M424.572 272.667C436.016 290.683 430.697 310.895 420.212 327.091C415.015 335.119 408.729 341.832 403.16 346.314C400.369 348.56 397.867 350.157 395.872 351.092C394.135 351.907 393.274 351.988 393.068 352.008C393.01 352.013 393.004 352.014 393.048 352.025L390.815 360.743C393.825 361.515 397.092 360.461 399.692 359.242C402.532 357.91 405.647 355.865 408.803 353.325C415.129 348.234 422.057 340.803 427.767 331.982C439.095 314.484 446.365 290.188 432.169 267.841L424.572 272.667ZM378.184 271.434C365.364 276.99 363.537 288.152 364.227 293.039C365.174 297.24 369.034 306.259 376.892 308.729C384.749 311.198 393.778 305.642 397.311 302.556C400.068 299.384 404.083 290.519 398.086 280.436C392.09 270.354 382.32 270.234 378.184 271.434Z" fill="#53A2FF"/>
<path d="M374.96 295.22C373.911 293.637 373.291 291.937 373.045 290.886C372.76 288.591 373.624 283.064 380.028 280.197C381.934 279.694 386.521 279.78 389.428 284.713C392.381 289.724 390.483 294.021 389.26 295.532C388.339 296.32 386.724 297.424 384.854 298.176C382.888 298.966 380.898 299.267 379.189 298.725C377.448 298.173 376.038 296.848 374.96 295.22Z" fill="#53A2FF" stroke="#E0ECFF" stroke-width="4"/>
<path d="M453.617 345.495C473.23 345.326 518.158 338.136 540.959 310.726" stroke="#53A2FF" stroke-width="9"/>
</svg>
