<svg width="6810" height="4314" viewBox="0 0 6810 4314" fill="none" xmlns="http://www.w3.org/2000/svg">
<rect width="6810" height="4314" fill="url(#paint0_radial_1815_201)"/>
<path d="M1099.5 1680.5H1329V1735H1099.5V1680.5ZM1111 1916.5H1317.5V1970.5H1111V1916.5ZM1184 1868.5H1241V2055H1184V1868.5ZM1095 2039C1154.5 2032.5 1245 2020.5 1329 2008.5L1331.5 2065C1252 2078 1166 2090.5 1103.5 2100L1095 2039ZM1094.5 1812.5C1144 1810.5 1217.5 1805.5 1288.5 1800.5L1289 1851C1222.5 1857.5 1153 1863 1101 1867.5L1094.5 1812.5ZM1162 1715.5L1223 1728.5C1206 1769.5 1186 1815 1169.5 1843.5L1122.5 1830.5C1136.5 1799 1153.5 1750.5 1162 1715.5ZM1235 1769.5L1281.5 1747C1303 1778 1327.5 1818.5 1337 1845.5L1287 1871.5C1278.5 1844 1255.5 1801.5 1235 1769.5ZM1370 1745H1561.5V1800.5H1370V1745ZM1377 1653L1439 1663C1421.5 1761 1389 1852 1343 1909C1332.5 1898 1307 1877 1293 1868C1336.5 1819.5 1363.5 1738.5 1377 1653ZM1474.5 1779L1536 1785.5C1511.5 1957 1455 2063 1323.5 2124.5C1318 2110.5 1300.5 2082.5 1289.5 2070C1408.5 2021 1457 1928 1474.5 1779ZM1399.5 1788.5C1421.5 1918 1470.5 2024.5 1572 2071C1558 2083 1539.5 2107 1530.5 2123.5C1421 2065.5 1372.5 1950 1345 1797.5L1399.5 1788.5ZM1619.5 1757.5H2002.5V1819H1619.5V1757.5ZM1978 1757.5H2040.5C2040.5 1757.5 2040 1778 2039 1786.5C2029 1986.5 2019 2062.5 1996.5 2089C1982 2108 1967.5 2113.5 1945.5 2116.5C1926.5 2119.5 1895.5 2119 1865 2117.5C1864 2100 1855.5 2073 1844 2055.5C1876 2058 1905.5 2058.5 1919 2058.5C1929 2058.5 1935 2056.5 1942 2050C1959.5 2033 1969.5 1954 1978 1769.5V1757.5ZM1773 1654.5H1836.5V1757.5C1836.5 1871 1820.5 2029.5 1650.5 2125.5C1641 2111 1618.5 2087.5 1603.5 2077C1759 1992.5 1773 1854 1773 1757.5V1654.5ZM2172.5 1841.5H2288V1896.5H2172.5V1841.5ZM2265 1841.5H2323.5C2323.5 1841.5 2323 1856.5 2323 1863.5C2321 1969.5 2318.5 2014 2307 2029.5C2297 2042 2287 2046.5 2272.5 2049C2259 2051 2237.5 2051 2214 2050.5C2213 2033 2206.5 2009.5 2197.5 1994.5C2215.5 1996.5 2232.5 1996.5 2240.5 1996.5C2247.5 1996.5 2252 1995.5 2256 1990.5C2262 1982.5 2264 1947.5 2265 1850.5V1841.5ZM2415.5 1685L2451.5 1648.5C2479 1663 2516 1686 2534 1702.5L2495.5 1743C2479 1725.5 2443.5 1701 2415.5 1685ZM2474.5 1813.5L2535 1828C2493 1958.5 2419.5 2060 2320.5 2121C2311.5 2108.5 2289.5 2083.5 2277 2071.5C2373 2020 2440 1929.5 2474.5 1813.5ZM2176 1728.5H2561.5V1787.5H2176V1728.5ZM2136 1728.5H2199V1875.5C2199 1950.5 2190.5 2061.5 2145 2129C2135 2117 2108 2095 2094 2088C2132.5 2028 2136 1940.5 2136 1875V1728.5ZM2339 1654H2402C2398.5 1858 2444.5 2058.5 2495 2058.5C2506.5 2058.5 2512.5 2033 2515.5 1970C2529 1984 2550.5 1998 2566.5 2004C2557 2097 2537 2119.5 2490 2119.5C2381 2119.5 2340.5 1882 2339 1654ZM2618.5 1770.5H3001V1831H2618.5V1770.5ZM2975.5 1770.5H3039C3039 1770.5 3038.5 1790.5 3038 1799C3031.5 1992 3025 2064 3005 2089C2991 2108 2976.5 2113.5 2955.5 2116.5C2936.5 2119.5 2905.5 2119 2875 2118C2874 2100 2865.5 2073 2854 2055C2885 2058 2914 2058 2927 2058C2937 2058 2942.5 2056 2949 2050C2964 2034.5 2970.5 1960 2975.5 1782V1770.5ZM2774 1654.5H2835V1722.5C2835 1832.5 2821 2004.5 2654 2114C2644 2100 2621 2079 2606.5 2069C2762 1972 2774 1819 2774 1722V1654.5ZM2649.5 1687L2702 1666C2720.5 1688 2742.5 1719.5 2752 1740.5L2696 1764.5C2688 1744 2667.5 1711.5 2649.5 1687ZM2823 1901L2873.5 1877.5C2895.5 1905.5 2922.5 1944 2934 1969.5L2880.5 1996C2870 1970.5 2844.5 1930.5 2823 1901ZM1268 2352.5L1332 2365C1294 2419 1243 2464 1166 2499.5C1158 2485.5 1139.5 2464.5 1126.5 2455C1197 2428 1243 2390 1268 2352.5ZM1282 2386H1431.5V2431H1241L1282 2386ZM1413.5 2386H1425L1435 2383.5L1475.5 2407.5C1409.5 2518 1268 2578 1124 2606C1118.5 2590.5 1106 2566 1095.5 2553C1229.5 2532.5 1363.5 2478.5 1413.5 2394.5V2386ZM1258 2420C1316 2485 1432.5 2525 1567.5 2538C1554 2552 1537.5 2579 1529 2596C1391.5 2577 1277.5 2528 1206 2443L1258 2420ZM1190.5 2571.5H1478V2727H1416.5V2620.5H1249V2728H1190.5V2571.5ZM1220 2663.5H1446.5V2712.5H1220V2663.5ZM1299.5 2259H1361.5V2330H1299.5V2259ZM1116.5 2299.5H1547.5V2410H1486V2353.5H1175V2410H1116.5V2299.5ZM1654 2333.5H1717V2447.5C1717 2530.5 1706.5 2654.5 1647.5 2732C1636.5 2721 1609.5 2702 1594.5 2695.5C1649 2624 1654 2520.5 1654 2447.5V2333.5ZM1791.5 2270.5L1851 2255.5C1862 2277.5 1874 2306 1880 2325L1818 2343C1813 2323.5 1801 2293 1791.5 2270.5ZM1693.5 2333.5H2015V2550.5H1953.5V2389.5H1693.5V2333.5ZM1694.5 2468.5H1984.5V2524H1694.5V2468.5ZM2293.5 2278H2524V2325H2293.5V2278ZM2285.5 2422H2533V2469H2285.5V2422ZM2285.5 2493.5H2531V2540.5H2285.5V2493.5ZM2309.5 2660.5H2508.5V2708H2309.5V2660.5ZM2246 2349.5H2568V2398H2246V2349.5ZM2277.5 2565.5H2540V2726H2479.5V2612H2335V2727.5H2277.5V2565.5ZM2209 2259.5L2265 2277.5C2231 2362.5 2176 2452 2119 2508.5C2114 2494.5 2098 2461.5 2088 2447C2135.5 2402 2182 2331 2209 2259.5ZM2161 2398L2217.5 2341L2218 2341.5V2726.5H2161V2398ZM2689.5 2260.5H2744V2421H2689.5V2260.5ZM2603.5 2309H2828V2360H2603.5V2309ZM2665 2441.5V2498.5H2767V2441.5H2665ZM2615.5 2396H2819V2544H2615.5V2396ZM2689.5 2512.5L2724 2528.5C2702.5 2590.5 2665 2661 2623.5 2698C2618.5 2681.5 2606 2656.5 2597.5 2641C2634.5 2612.5 2671.5 2559 2689.5 2512.5ZM2695.5 2421H2738V2517.5H2744.5V2727H2689V2517.5H2695.5V2421ZM2905.5 2294H3001V2341.5H2868L2905.5 2294ZM2894.5 2257.5L2947.5 2266.5C2925.5 2316 2899 2367.5 2860 2412.5C2850 2402.5 2830 2390 2816.5 2384.5C2853 2345.5 2879.5 2296.5 2894.5 2257.5ZM2985 2294H2995.5L3003 2292L3037 2313C3021.5 2348.5 2995.5 2393 2974 2422C2964.5 2415 2947.5 2404.5 2936 2398.5C2955.5 2372.5 2976 2330.5 2985 2303.5V2294ZM2706.5 2562L2740.5 2531C2770 2558 2810 2597 2828 2622L2792 2658.5C2774.5 2632.5 2736 2591 2706.5 2562ZM2842 2392.5H3049V2621.5H2995.5V2435H2893.5V2623.5H2842V2392.5ZM2920.5 2452.5H2970C2968 2615.5 2958.5 2691 2831 2730.5C2826.5 2719 2813.5 2699.5 2803.5 2691C2916 2658 2919.5 2599.5 2920.5 2452.5ZM2939 2652L2971 2619.5C3003.5 2639 3049.5 2669.5 3072.5 2689.5L3038.5 2726.5C3017.5 2706 2972.5 2674 2939 2652ZM3153.5 2339.5H3307V2676.5H3153.5V2623.5H3252.5V2392H3153.5V2339.5ZM3118.5 2339.5H3173V2713.5H3118.5V2339.5ZM3151 2473H3279V2525H3151V2473ZM3189.5 2258L3255 2267.5C3243.5 2301.5 3231 2337 3221 2360.5L3173 2350C3180 2324 3187 2285.5 3189.5 2258ZM3373 2336H3519V2390.5H3373V2336ZM3498.5 2336H3554C3554 2336 3554 2355.5 3553.5 2363C3547 2588 3541 2667.5 3520.5 2694C3506.5 2713.5 3492.5 2719 3472 2722C3453 2725 3422.5 2724.5 3393.5 2723C3392.5 2706.5 3384.5 2681 3373.5 2665C3406 2667.5 3436 2668 3448.5 2668C3458.5 2668 3464 2666 3470.5 2659C3486.5 2642 3493 2556 3498.5 2347.5V2336ZM3374.5 2258.5L3432 2272C3412.5 2346 3380 2422 3346 2470C3335 2460 3310.5 2443 3296.5 2435C3330 2393 3358.5 2325 3374.5 2258.5ZM3350 2480L3397 2453.5C3421.5 2488 3454.5 2536 3470 2565.5L3419 2596.5C3405.5 2566 3374 2517 3350 2480ZM3798.5 2258H3862.5V2349H3798.5V2258ZM3619 2303H4046.5V2421.5H3982.5V2358.5H3680V2421.5H3619V2303ZM3780.5 2370.5L3843.5 2384C3805.5 2464.5 3754.5 2564 3718.5 2626.5L3655.5 2609.5C3693 2548.5 3746 2447.5 3780.5 2370.5ZM3906.5 2485L3974.5 2494C3930.5 2647.5 3825.5 2703.5 3654 2728.5C3648.5 2714 3631 2687 3620 2673.5C3784 2657.5 3879.5 2613 3906.5 2485ZM3609 2445H4055.5V2501.5H3609V2445ZM3693 2599L3736.5 2557.5C3833 2584 3965.5 2635 4035.5 2678L3987 2727C3924 2685 3794 2629 3693 2599ZM4330 2315.5C4288.5 2374.5 4212 2442 4130 2487.5C4122 2473.5 4105 2451.5 4092 2439C4178 2395.5 4259 2318.5 4296 2256.5H4358.5C4412 2333.5 4493.5 2399 4573 2433C4558 2448.5 4544.5 2468.5 4533.5 2487C4456.5 2444.5 4372.5 2375 4330 2315.5ZM4160 2550H4502V2602H4160V2550ZM4185.5 2439.5H4479V2492H4185.5V2439.5ZM4120 2662.5H4547V2716H4120V2662.5ZM4298.5 2463H4362V2692.5H4298.5V2463ZM4999.5 2349.5L5065.5 2365.5C5049.5 2418.5 5030 2475.5 5014 2513L4959.5 2497.5C4974.5 2458 4991.5 2396 4999.5 2349.5ZM4902 2264.5H4934.5V2461C4934.5 2517.5 4968 2614 5075 2666.5C5062 2682 5044.5 2710 5035 2727.5C4954.5 2687 4912.5 2604 4901.5 2564C4892 2605.5 4849.5 2686.5 4767.5 2727C4760 2712 4741 2684 4728.5 2669.5C4835.5 2617.5 4869.5 2517 4869.5 2461V2264.5H4902ZM4773.5 2350L4829 2357.5C4829 2418.5 4818.5 2482 4792 2523L4738 2497.5C4761 2465 4771.5 2404.5 4773.5 2350ZM4709 2259.5L4765 2277.5C4731 2362.5 4676 2452 4619 2508.5C4614 2494.5 4598 2461.5 4588 2447C4635.5 2402 4682 2331 4709 2259.5ZM4661 2398L4717.5 2341L4718 2341.5V2727H4661V2398ZM5373 2265H5433.5V2728H5373V2265ZM5261 2416.5H5547.5V2472H5261V2416.5ZM5241 2539.5H5568V2595H5241V2539.5ZM5259.5 2302L5310 2283.5C5327.5 2316 5345.5 2359.5 5351.5 2388L5297.5 2409.5C5292.5 2381.5 5276 2336.5 5259.5 2302ZM5496 2279.5L5557.5 2301C5539 2339 5519 2380 5503 2407L5454 2388C5469 2358.5 5487 2313 5496 2279.5ZM5209 2259.5L5265 2277.5C5231 2362.5 5176 2452 5119 2508.5C5114 2494.5 5098 2461.5 5088 2447C5135.5 2402 5182 2331 5209 2259.5ZM5161 2398L5217.5 2341L5218 2341.5V2726.5H5161V2398Z" fill="url(#paint1_radial_1815_201)"/>
<defs>
<radialGradient id="paint0_radial_1815_201" cx="0" cy="0" r="1" gradientUnits="userSpaceOnUse" gradientTransform="translate(4131.06 4640) rotate(-32.2848) scale(6745.57 13927.4)">
<stop offset="0.316323" stop-color="#000C37"/>
<stop offset="0.485768" stop-color="#001A76"/>
<stop offset="0.61245" stop-color="#009DC0"/>
<stop offset="0.845291" stop-color="#FEFFB8"/>
</radialGradient>
<radialGradient id="paint1_radial_1815_201" cx="0" cy="0" r="1" gradientUnits="userSpaceOnUse" gradientTransform="translate(6566 1964) rotate(173.428) scale(5631.5 1364.85)">
<stop stop-color="white"/>
<stop offset="0.255" stop-color="#FEF7B9"/>
<stop offset="0.722851" stop-color="#00BEFC"/>
<stop offset="0.954" stop-color="#0500FF"/>
</radialGradient>
</defs>
</svg>
