<svg width="8146" height="4314" viewBox="0 0 8146 4314" fill="none" xmlns="http://www.w3.org/2000/svg">
<rect width="8146" height="4314" fill="url(#paint0_radial_1813_200)"/>
<path fill-rule="evenodd" clip-rule="evenodd" d="M5176.48 1821.56C5176.51 1826.22 5176.55 1831.09 5176.59 1836.17C5176.96 1886.88 5177.49 1957.85 5181.79 2037.14H4680.97V2106.14H4936.52V2554.77H4860.47V2233.63H4791.47V2554.77H4701.97V2623.77H5207.97V2554.77H5005.52V2330.5H5135.98V2261.5H5005.52V2106.14H5186.44C5189.72 2146.57 5194.14 2188.18 5200.12 2229.57C5211.6 2309.08 5229 2389.05 5255.71 2459.21C5282.29 2529.02 5319.15 2591.92 5371.27 2634.09L5414.67 2580.45C5375.8 2549 5344.58 2498.7 5320.2 2434.66C5295.95 2370.96 5279.49 2296.42 5268.41 2219.71C5262.92 2181.71 5258.79 2143.49 5255.66 2106.14H5333.97V2037.14H5250.89C5246.5 1958.18 5245.97 1886.88 5245.58 1835.13L5245.58 1834.96C5245.54 1830.13 5245.51 1825.47 5245.47 1820.99L5176.48 1821.56ZM4248.02 1895.83H4023.56V1964.83H4248.02V2037.14H3993.97V2106.14H4161.09C4154.43 2116.16 4146 2126.6 4135.63 2136.75C4105.13 2166.61 4061.36 2190.14 4005.97 2190.14V2259.14C4082.3 2259.14 4142.73 2226.36 4183.9 2186.06C4208.53 2161.96 4227.74 2133.62 4239.07 2106.14H4282.52H4339.47V2212.64V2247.14H4373.97H4568.97V2178.14H4408.47V2106.14H4568.97V2037.14H4373.97H4317.02V1964.83H4541.48V1895.83H4317.02V1821.64H4248.02V1895.83ZM4209.49 2223.29C4209.49 2223.29 4209.49 2223.3 4209.49 2223.32L4278.44 2225.95C4277.61 2247.65 4266.13 2268.58 4252.82 2285.52C4245.21 2295.21 4236.03 2304.85 4225.49 2314.14H4438.86H4476.27L4473.25 2351.43C4469.96 2391.95 4441.64 2429.43 4409.41 2460.16C4393.82 2475.03 4375.94 2489.6 4356.57 2503.61C4437.39 2546.12 4525.84 2574.14 4583.97 2574.14V2643.14C4502.92 2643.14 4390.26 2602.96 4298.85 2550.62C4296.16 2549.08 4293.48 2547.53 4290.81 2545.96C4288.76 2547.14 4286.7 2548.31 4284.64 2549.48C4237.6 2576.14 4186.72 2599.31 4139.17 2615.9C4092.27 2632.26 4046.01 2643.14 4008.97 2643.14V2574.14C4034.63 2574.14 4072.36 2566.13 4116.44 2550.75C4151.81 2538.41 4189.61 2521.92 4225.99 2502.87C4208.13 2489.35 4191.72 2475.27 4177.43 2460.85C4152.26 2435.45 4130.38 2405.72 4121.88 2373.57C4087.53 2385.6 4048.5 2393.14 4005.97 2393.14V2324.14C4068.3 2324.14 4120.78 2304.05 4157.47 2279.52C4175.86 2267.23 4189.64 2254.25 4198.55 2242.9C4203 2237.24 4205.91 2232.4 4207.65 2228.64C4209.19 2225.29 4209.45 2223.56 4209.49 2223.32C4209.49 2223.3 4209.49 2223.29 4209.49 2223.29ZM4361.79 2410.22C4342.66 2428.46 4318.51 2446.98 4291.29 2464.74C4266.01 2447.66 4243.88 2429.87 4226.44 2412.28C4216.02 2401.76 4207.96 2392.01 4201.93 2383.14H4386.49C4380.19 2391.38 4372.05 2400.44 4361.79 2410.22ZM3765.97 2037.14H3935.97V2106.14H3765.97V2037.14ZM5341.47 1931.64V2031.64H5410.47V1931.64H5341.47ZM3693.75 2519.71L3723.04 2501.48C3803.06 2451.71 3849.27 2391.18 3849.27 2305.64V2271.14H3918.27V2305.64C3918.27 2423.37 3851.47 2502.85 3759.49 2560.07L3730.2 2578.3L3693.75 2519.71ZM4722.97 1966.14L5134.97 1966.14V1897.14L4722.97 1897.14V1966.14Z" fill="white"/>
<path fill-rule="evenodd" clip-rule="evenodd" d="M3292.92 1918.7L3261.56 1856.04L3202.87 1894.32C3106.2 1957.39 2996.37 1971.27 2907.39 1926.87L2851.58 2038.72C2968.42 2097.02 3099.06 2086.19 3211.66 2032.47C3264.79 2126.44 3349.49 2238.74 3498.73 2280.85L3532.67 2160.54C3407.85 2125.33 3342.56 2017.89 3292.92 1918.7ZM3106.39 2325.14C2922.18 2405.9 2734.33 2349.85 2611 2284.45L2671.03 2174.96C2785.72 2235.74 2951.07 2277.62 3098.43 2188.73L3158.26 2152.64L3187.48 2216.11C3206.43 2257.26 3254.7 2320.05 3316.92 2377.54C3379.68 2435.52 3446.16 2478.35 3496.99 2490.6L3467.71 2612.12C3385.69 2592.37 3300.08 2532.16 3232.09 2469.35C3183.46 2424.42 3138.55 2373.21 3106.39 2325.14Z" fill="#0019FF"/>
<defs>
<radialGradient id="paint0_radial_1813_200" cx="0" cy="0" r="1" gradientUnits="userSpaceOnUse" gradientTransform="translate(4941.5 4640) rotate(-27.8423) scale(7714.56 14567.2)">
<stop offset="0.316323" stop-color="#000C37"/>
<stop offset="0.485768" stop-color="#0019FF"/>
<stop offset="0.61245" stop-color="#009DC0"/>
<stop offset="0.845291" stop-color="#FEFFB8"/>
</radialGradient>
</defs>
</svg>
