<svg width="1211" height="722" viewBox="0 0 1211 722" fill="none" xmlns="http://www.w3.org/2000/svg">
<rect width="1211" height="722" fill="#D8D7EE"/>
<path fill-rule="evenodd" clip-rule="evenodd" d="M209.528 373.742C209.528 325.9 248.698 287.102 296.999 287.102C345.299 287.102 384.469 325.9 384.469 373.742H345.207C345.207 347.374 323.619 325.991 296.999 325.991C270.379 325.991 248.79 347.374 248.79 373.742H209.528Z" fill="#0A05FF"/>
<path d="M403.589 354.78L384.012 374.361L403.589 393.942L423.165 374.361L403.589 354.78Z" fill="#0A05FF"/>
<path fill-rule="evenodd" clip-rule="evenodd" d="M335.215 422.428C362.093 422.428 383.891 400.626 383.891 373.741H423.535C423.535 422.521 383.984 462.08 335.215 462.08V422.428Z" fill="#0A05FF"/>
<path fill-rule="evenodd" clip-rule="evenodd" d="M227.91 422.428C254.272 422.428 275.65 400.626 275.65 373.741H314.531C314.531 422.521 275.742 462.08 227.91 462.08V422.428Z" fill="#0A05FF"/>
<path d="M227.24 422.46L207.663 442.041L227.24 461.622L246.817 442.041L227.24 422.46Z" fill="#0A05FF"/>
<path fill-rule="evenodd" clip-rule="evenodd" d="M824.51 414.268C824.51 414.268 823.537 386.798 824.51 385.094C825.483 383.391 827.741 383.905 828.727 385.094C829.712 386.284 849.15 414.268 849.15 414.268H877.759L848.819 374.013L873.79 340.844H845.016L827.817 367.756H824.51V308.429H799.291V414.268H824.51ZM759.904 340.561H782.814V417.679H759.904V340.561ZM771.525 331.692C768.205 331.692 765.41 330.664 763.141 328.607C760.873 326.551 759.738 324.006 759.738 320.973C759.738 317.939 760.873 315.394 763.141 313.338C765.41 311.281 768.177 310.253 771.442 310.253C774.707 310.253 777.446 311.281 779.659 313.338C781.928 315.394 783.063 317.939 783.063 320.973C783.063 324.006 781.956 326.551 779.742 328.607C777.584 330.664 774.845 331.692 771.525 331.692ZM699.374 434.954V456.238C706.513 456.238 712.96 454.619 718.715 451.38C724.525 448.192 729.118 443.925 732.493 438.578C735.924 433.231 737.64 427.293 737.64 420.764V340.561H714.73V420.764C714.73 423.386 714.039 425.777 712.655 427.936C711.272 430.095 709.418 431.792 707.094 433.026C704.77 434.311 702.197 434.954 699.374 434.954ZM717.968 328.607C720.236 330.664 723.031 331.692 726.351 331.692C729.671 331.692 732.41 330.664 734.569 328.607C736.782 326.551 737.889 324.006 737.889 320.973C737.889 317.939 736.754 315.394 734.486 313.338C732.272 311.282 729.533 310.253 726.268 310.253C723.003 310.253 720.236 311.282 717.968 313.338C715.699 315.394 714.564 317.939 714.564 320.973C714.564 324.006 715.699 326.551 717.968 328.607ZM469 416.754V339.635H488.589V349.957C489.244 344.13 495.072 340.798 498.384 339.558C502.091 338.17 506.02 337.476 510.17 337.476C515.815 337.476 520.989 338.684 525.692 341.101C530.451 343.517 534.269 346.73 537.147 350.741C540.08 346.73 543.898 343.517 548.602 341.101C553.305 338.684 558.451 337.476 564.04 337.476C570.072 337.476 575.523 338.839 580.392 341.563C585.317 344.288 589.246 347.939 592.179 352.514C595.112 357.039 596.578 362.103 596.578 367.707V416.754H573.669V373.568C573.669 370.894 572.95 368.478 571.511 366.318C570.127 364.108 568.274 362.36 565.95 361.074C563.625 359.738 561.025 359.069 558.147 359.069C555.27 359.069 552.641 359.712 550.262 360.997C547.937 362.283 546.056 364.031 544.617 366.241C543.234 368.401 542.542 370.843 542.542 373.568V416.754H519.633V373.568C519.633 370.843 518.941 368.401 517.558 366.241C516.174 364.031 514.293 362.283 511.913 360.997C509.589 359.712 506.988 359.069 504.111 359.069C501.289 359.069 498.688 359.738 496.308 361.074C493.984 362.36 492.103 364.108 490.664 366.318C489.281 368.478 488.589 370.894 488.589 373.568L488.529 416.695L469 416.754ZM615.199 389.454V340.561H638.108V383.593C638.108 386.318 638.8 388.786 640.183 390.996C641.622 393.156 643.531 394.878 645.911 396.163C648.29 397.449 650.891 398.091 653.713 398.091C656.591 398.091 659.219 397.449 661.599 396.163C663.978 394.878 665.86 393.156 667.243 390.996C668.626 388.786 669.318 386.318 669.318 383.593V340.561H692.228C692.228 340.561 692.846 393.205 692.891 396.163C692.935 399.096 695.07 417.521 695.617 417.679H672.721C671.127 415.751 670.826 413.5 670.457 410.746C670.379 410.166 670.299 409.565 670.203 408.939C669.096 412.538 663.287 416.214 659.524 417.602C655.816 418.99 651.887 419.684 647.737 419.684C641.761 419.684 636.31 418.322 631.385 415.597C626.46 412.872 622.531 409.248 619.598 404.723C616.665 400.148 615.199 395.058 615.199 389.454ZM695.631 417.679H695.617C695.622 417.681 695.626 417.681 695.631 417.679ZM965.68 340.561H945.204L946.864 355.805C945.204 349.768 937.737 343.731 933.059 341.409C929.019 339.404 924.454 338.401 919.363 338.401C913.442 338.401 907.908 339.43 902.762 341.486C897.671 343.543 893.161 346.396 889.232 350.046C885.303 353.697 882.26 357.912 880.102 362.694C877.944 367.475 876.865 372.616 876.865 378.117C876.865 383.876 877.999 389.274 880.268 394.312C882.592 399.299 885.801 403.695 889.896 407.5C893.991 411.304 898.723 414.286 904.09 416.445C909.458 418.605 915.24 419.684 921.438 419.684C925.976 419.684 929.932 418.759 933.308 416.908C936.683 415.057 939.45 412.641 941.608 409.659C942.823 412.922 943.797 414.713 946.008 417.679H969C966.558 414.672 965.21 399.336 965.371 396.086L965.68 340.561ZM931.067 396.549C928.023 398.348 924.62 399.248 920.857 399.248C917.094 399.248 913.663 398.348 910.565 396.549C907.466 394.749 904.976 392.333 903.094 389.3C901.268 386.215 900.355 382.822 900.355 379.12C900.355 375.418 901.268 372.051 903.094 369.018C904.92 365.933 907.383 363.491 910.482 361.691C913.58 359.892 917.039 358.992 920.857 358.992C924.62 358.992 928.023 359.892 931.067 361.691C934.11 363.491 936.517 365.907 938.288 368.94C940.059 371.974 940.944 375.367 940.944 379.12C940.944 382.822 940.059 386.215 938.288 389.3C936.517 392.333 934.11 394.749 931.067 396.549Z" fill="#010035"/>
</svg>
