<svg width="1218" height="807" viewBox="0 0 1218 807" fill="none" xmlns="http://www.w3.org/2000/svg">
<rect width="1218" height="807" fill="#D8D7EE"/>
<rect x="475" width="238" height="425" fill="#D8D7EE"/>
<rect width="439" height="807" fill="#010035"/>
<rect x="439" width="439" height="807" fill="#0A05FF"/>
<path d="M45.056 778.64C41.6853 778.64 38.592 777.701 35.776 775.824C33.0027 773.904 30.784 771.216 29.12 767.76C27.456 764.304 26.624 760.229 26.624 755.536C26.624 750.843 27.4347 746.789 29.056 743.376C30.72 739.92 32.9387 737.253 35.712 735.376C38.4853 733.499 41.5573 732.56 44.928 732.56C48.3413 732.56 51.4347 733.499 54.208 735.376C56.9813 737.253 59.1787 739.92 60.8 743.376C62.464 746.789 63.296 750.864 63.296 755.6C63.296 760.293 62.464 764.368 60.8 767.824C59.1787 771.28 56.9813 773.947 54.208 775.824C51.4773 777.701 48.4267 778.64 45.056 778.64ZM44.928 771.728C47.1467 771.728 49.0667 771.131 50.688 769.936C52.3093 768.741 53.568 766.949 54.464 764.56C55.4027 762.171 55.872 759.163 55.872 755.536C55.872 751.952 55.4027 748.965 54.464 746.576C53.568 744.187 52.288 742.416 50.624 741.264C49.0027 740.069 47.104 739.472 44.928 739.472C42.752 739.472 40.832 740.069 39.168 741.264C37.5467 742.416 36.288 744.187 35.392 746.576C34.496 748.923 34.048 751.909 34.048 755.536C34.048 759.163 34.496 762.171 35.392 764.56C36.288 766.949 37.5467 768.741 39.168 769.936C40.832 771.131 42.752 771.728 44.928 771.728ZM76.5615 778V733.2H83.7935V778H76.5615ZM67.6015 739.792V733.2H83.1535V739.792H67.6015ZM109.744 778.64C106.373 778.64 103.28 777.701 100.464 775.824C97.6902 773.904 95.4715 771.216 93.8075 767.76C92.1435 764.304 91.3115 760.229 91.3115 755.536C91.3115 750.843 92.1222 746.789 93.7435 743.376C95.4075 739.92 97.6262 737.253 100.4 735.376C103.173 733.499 106.245 732.56 109.616 732.56C113.029 732.56 116.122 733.499 118.896 735.376C121.669 737.253 123.866 739.92 125.488 743.376C127.152 746.789 127.984 750.864 127.984 755.6C127.984 760.293 127.152 764.368 125.488 767.824C123.866 771.28 121.669 773.947 118.896 775.824C116.165 777.701 113.114 778.64 109.744 778.64ZM109.616 771.728C111.834 771.728 113.754 771.131 115.376 769.936C116.997 768.741 118.256 766.949 119.152 764.56C120.09 762.171 120.56 759.163 120.56 755.536C120.56 751.952 120.09 748.965 119.152 746.576C118.256 744.187 116.976 742.416 115.312 741.264C113.69 740.069 111.792 739.472 109.616 739.472C107.44 739.472 105.52 740.069 103.856 741.264C102.234 742.416 100.976 744.187 100.08 746.576C99.1835 748.923 98.7355 751.909 98.7355 755.536C98.7355 759.163 99.1835 762.171 100.08 764.56C100.976 766.949 102.234 768.741 103.856 769.936C105.52 771.131 107.44 771.728 109.616 771.728ZM151.681 778.64C148.31 778.64 145.217 777.701 142.401 775.824C139.628 773.904 137.409 771.216 135.745 767.76C134.081 764.304 133.249 760.229 133.249 755.536C133.249 750.843 134.06 746.789 135.681 743.376C137.345 739.92 139.564 737.253 142.337 735.376C145.11 733.499 148.182 732.56 151.553 732.56C154.966 732.56 158.06 733.499 160.833 735.376C163.606 737.253 165.804 739.92 167.425 743.376C169.089 746.789 169.921 750.864 169.921 755.6C169.921 760.293 169.089 764.368 167.425 767.824C165.804 771.28 163.606 773.947 160.833 775.824C158.102 777.701 155.052 778.64 151.681 778.64ZM151.553 771.728C153.772 771.728 155.692 771.131 157.313 769.936C158.934 768.741 160.193 766.949 161.089 764.56C162.028 762.171 162.497 759.163 162.497 755.536C162.497 751.952 162.028 748.965 161.089 746.576C160.193 744.187 158.913 742.416 157.249 741.264C155.628 740.069 153.729 739.472 151.553 739.472C149.377 739.472 147.457 740.069 145.793 741.264C144.172 742.416 142.913 744.187 142.017 746.576C141.121 748.923 140.673 751.909 140.673 755.536C140.673 759.163 141.121 762.171 142.017 764.56C142.913 766.949 144.172 768.741 145.793 769.936C147.457 771.131 149.377 771.728 151.553 771.728ZM188.307 778.64C185.32 778.64 182.611 778.107 180.179 777.04C177.789 775.931 175.763 774.331 174.099 772.24L179.091 767.248C179.987 768.613 181.245 769.701 182.867 770.512C184.488 771.323 186.259 771.728 188.179 771.728C190.013 771.728 191.592 771.387 192.915 770.704C194.237 770.021 195.261 769.061 195.987 767.824C196.755 766.587 197.139 765.157 197.139 763.536C197.139 761.829 196.755 760.379 195.987 759.184C195.261 757.989 194.195 757.072 192.787 756.432C191.421 755.749 189.757 755.408 187.795 755.408C187.027 755.408 186.237 755.472 185.427 755.6C184.616 755.685 183.891 755.835 183.251 756.048L186.515 751.824C187.411 751.483 188.349 751.205 189.331 750.992C190.355 750.736 191.336 750.608 192.275 750.608C194.579 750.608 196.648 751.163 198.483 752.272C200.36 753.381 201.832 754.939 202.899 756.944C204.008 758.907 204.562 761.232 204.562 763.92C204.562 766.821 203.88 769.381 202.515 771.6C201.149 773.819 199.251 775.547 196.819 776.784C194.387 778.021 191.549 778.64 188.307 778.64ZM183.251 756.048V751.696L195.219 737.744L204.051 737.552L191.571 751.888L183.251 756.048ZM176.339 739.792V733.2H204.051V737.552L197.715 739.792H176.339ZM222.933 778.64C219.818 778.64 217.045 778.107 214.613 777.04C212.181 775.931 210.133 774.331 208.469 772.24L213.461 767.248C214.357 768.613 215.616 769.701 217.237 770.512C218.901 771.323 220.757 771.728 222.805 771.728C224.682 771.728 226.325 771.387 227.733 770.704C229.141 770.021 230.25 769.04 231.061 767.76C231.872 766.48 232.277 764.965 232.277 763.216C232.277 761.381 231.872 759.867 231.061 758.672C230.293 757.435 229.248 756.517 227.925 755.92C226.645 755.28 225.258 754.96 223.765 754.96C222.058 754.96 220.522 755.152 219.157 755.536C217.834 755.92 216.533 756.603 215.253 757.584L215.445 752.976C216.128 752.08 216.917 751.355 217.813 750.8C218.709 750.203 219.754 749.755 220.949 749.456C222.144 749.157 223.552 749.008 225.173 749.008C228.33 749.008 230.976 749.669 233.109 750.992C235.285 752.315 236.928 754.085 238.037 756.304C239.146 758.48 239.701 760.912 239.701 763.6C239.701 766.501 238.976 769.083 237.525 771.344C236.117 773.605 234.154 775.397 231.637 776.72C229.12 778 226.218 778.64 222.933 778.64ZM215.253 757.584L211.221 753.552L213.205 733.2H219.925L217.621 754.384L215.253 757.584ZM214.485 739.792L213.205 733.2H237.205V739.792H214.485Z" fill="#0A05FF"/>
<path d="M484.056 783.64C480.685 783.64 477.592 782.701 474.776 780.824C472.003 778.904 469.784 776.216 468.12 772.76C466.456 769.304 465.624 765.229 465.624 760.536C465.624 755.843 466.435 751.789 468.056 748.376C469.72 744.92 471.939 742.253 474.712 740.376C477.485 738.499 480.557 737.56 483.928 737.56C487.341 737.56 490.435 738.499 493.208 740.376C495.981 742.253 498.179 744.92 499.8 748.376C501.464 751.789 502.296 755.864 502.296 760.6C502.296 765.293 501.464 769.368 499.8 772.824C498.179 776.28 495.981 778.947 493.208 780.824C490.477 782.701 487.427 783.64 484.056 783.64ZM483.928 776.728C486.147 776.728 488.067 776.131 489.688 774.936C491.309 773.741 492.568 771.949 493.464 769.56C494.403 767.171 494.872 764.163 494.872 760.536C494.872 756.952 494.403 753.965 493.464 751.576C492.568 749.187 491.288 747.416 489.624 746.264C488.003 745.069 486.104 744.472 483.928 744.472C481.752 744.472 479.832 745.069 478.168 746.264C476.547 747.416 475.288 749.187 474.392 751.576C473.496 753.923 473.048 756.909 473.048 760.536C473.048 764.163 473.496 767.171 474.392 769.56C475.288 771.949 476.547 773.741 478.168 774.936C479.832 776.131 481.752 776.728 483.928 776.728ZM506.474 783L524.906 738.2H530.026L548.33 783H540.394L526.058 746.712H528.746L514.282 783H506.474ZM515.562 774.36V767.96H539.306V774.36H515.562ZM570.931 783.64C567.56 783.64 564.467 782.701 561.651 780.824C558.878 778.904 556.659 776.216 554.995 772.76C553.331 769.304 552.499 765.229 552.499 760.536C552.499 755.843 553.31 751.789 554.931 748.376C556.595 744.92 558.814 742.253 561.587 740.376C564.36 738.499 567.432 737.56 570.803 737.56C574.216 737.56 577.31 738.499 580.083 740.376C582.856 742.253 585.054 744.92 586.675 748.376C588.339 751.789 589.171 755.864 589.171 760.6C589.171 765.293 588.339 769.368 586.675 772.824C585.054 776.28 582.856 778.947 580.083 780.824C577.352 782.701 574.302 783.64 570.931 783.64ZM570.803 776.728C573.022 776.728 574.942 776.131 576.563 774.936C578.184 773.741 579.443 771.949 580.339 769.56C581.278 767.171 581.747 764.163 581.747 760.536C581.747 756.952 581.278 753.965 580.339 751.576C579.443 749.187 578.163 747.416 576.499 746.264C574.878 745.069 572.979 744.472 570.803 744.472C568.627 744.472 566.707 745.069 565.043 746.264C563.422 747.416 562.163 749.187 561.267 751.576C560.371 753.923 559.923 756.909 559.923 760.536C559.923 764.163 560.371 767.171 561.267 769.56C562.163 771.949 563.422 773.741 565.043 774.936C566.707 776.131 568.627 776.728 570.803 776.728ZM607.621 783.64C604.506 783.64 601.733 783.107 599.301 782.04C596.869 780.931 594.821 779.331 593.157 777.24L598.149 772.248C599.045 773.613 600.303 774.701 601.925 775.512C603.589 776.323 605.445 776.728 607.493 776.728C609.37 776.728 611.013 776.387 612.421 775.704C613.829 775.021 614.938 774.04 615.749 772.76C616.559 771.48 616.965 769.965 616.965 768.216C616.965 766.381 616.559 764.867 615.749 763.672C614.981 762.435 613.935 761.517 612.613 760.92C611.333 760.28 609.946 759.96 608.453 759.96C606.746 759.96 605.21 760.152 603.845 760.536C602.522 760.92 601.221 761.603 599.941 762.584L600.133 757.976C600.815 757.08 601.605 756.355 602.501 755.8C603.397 755.203 604.442 754.755 605.637 754.456C606.831 754.157 608.239 754.008 609.861 754.008C613.018 754.008 615.663 754.669 617.797 755.992C619.973 757.315 621.615 759.085 622.725 761.304C623.834 763.48 624.389 765.912 624.389 768.6C624.389 771.501 623.663 774.083 622.213 776.344C620.805 778.605 618.842 780.397 616.325 781.72C613.807 783 610.906 783.64 607.621 783.64ZM599.941 762.584L595.909 758.552L597.893 738.2H604.613L602.309 759.384L599.941 762.584ZM599.173 744.792L597.893 738.2H621.893V744.792H599.173ZM631.552 783V738.2H638.912V783H631.552ZM636.608 763.8V757.08H659.392V763.8H636.608ZM636.608 744.92V738.2H660.479V744.92H636.608ZM667.802 783V738.2H675.162V783H667.802ZM672.858 763.8V757.08H695.642V763.8H672.858ZM672.858 744.92V738.2H696.729V744.92H672.858Z" fill="#D8D7EE"/>
<path d="M911.92 786V779.28H923.696C926.768 779.28 929.456 778.619 931.76 777.296C934.107 775.973 935.92 774.139 937.2 771.792C938.523 769.403 939.184 766.651 939.184 763.536C939.184 760.464 938.523 757.755 937.2 755.408C935.877 753.061 934.043 751.227 931.696 749.904C929.392 748.581 926.725 747.92 923.696 747.92H911.92V741.2H923.888C927.131 741.2 930.139 741.776 932.912 742.928C935.685 744.037 938.096 745.616 940.144 747.664C942.235 749.669 943.856 752.037 945.008 754.768C946.16 757.456 946.736 760.4 946.736 763.6C946.736 766.757 946.16 769.701 945.008 772.432C943.856 775.163 942.256 777.552 940.208 779.6C938.16 781.605 935.749 783.184 932.976 784.336C930.203 785.445 927.216 786 924.016 786H911.92ZM906.864 786V741.2H914.224V786H906.864ZM966.911 786.64C963.839 786.64 961.172 786.085 958.911 784.976C956.65 783.867 954.879 782.331 953.599 780.368C952.362 778.363 951.743 776.101 951.743 773.584C951.743 771.579 952.127 769.744 952.895 768.08C953.706 766.373 954.858 764.923 956.351 763.728C957.887 762.533 959.7 761.68 961.791 761.168L961.599 763.216C959.892 762.747 958.442 761.979 957.247 760.912C956.095 759.845 955.22 758.587 954.623 757.136C954.026 755.685 953.727 754.171 953.727 752.592C953.727 750.203 954.282 748.112 955.391 746.32C956.543 744.485 958.122 743.056 960.127 742.032C962.132 741.008 964.394 740.496 966.911 740.496C969.471 740.496 971.732 741.008 973.695 742.032C975.7 743.056 977.258 744.485 978.367 746.32C979.519 748.112 980.095 750.203 980.095 752.592C980.095 754.171 979.796 755.685 979.199 757.136C978.602 758.587 977.727 759.845 976.575 760.912C975.423 761.979 973.972 762.747 972.223 763.216L972.031 761.168C974.164 761.68 975.978 762.533 977.471 763.728C978.964 764.923 980.095 766.373 980.863 768.08C981.674 769.744 982.079 771.579 982.079 773.584C982.079 776.101 981.46 778.363 980.223 780.368C978.986 782.331 977.215 783.867 974.911 784.976C972.65 786.085 969.983 786.64 966.911 786.64ZM966.911 779.984C968.49 779.984 969.876 779.664 971.071 779.024C972.308 778.384 973.268 777.509 973.951 776.4C974.676 775.291 975.039 774.032 975.039 772.624C975.039 771.173 974.676 769.915 973.951 768.848C973.268 767.739 972.308 766.864 971.071 766.224C969.876 765.584 968.49 765.264 966.911 765.264C965.332 765.264 963.924 765.584 962.687 766.224C961.492 766.864 960.532 767.739 959.807 768.848C959.124 769.915 958.783 771.173 958.783 772.624C958.783 774.032 959.124 775.291 959.807 776.4C960.532 777.509 961.492 778.384 962.687 779.024C963.924 779.664 965.332 779.984 966.911 779.984ZM966.911 759.504C968.788 759.504 970.324 758.907 971.519 757.712C972.714 756.517 973.311 754.981 973.311 753.104C973.311 751.227 972.714 749.712 971.519 748.56C970.324 747.365 968.788 746.768 966.911 746.768C965.076 746.768 963.54 747.365 962.303 748.56C961.108 749.712 960.511 751.227 960.511 753.104C960.511 754.981 961.108 756.517 962.303 757.712C963.54 758.907 965.076 759.504 966.911 759.504ZM994.358 786V779.28H1006.13C1009.21 779.28 1011.89 778.619 1014.2 777.296C1016.54 775.973 1018.36 774.139 1019.64 771.792C1020.96 769.403 1021.62 766.651 1021.62 763.536C1021.62 760.464 1020.96 757.755 1019.64 755.408C1018.31 753.061 1016.48 751.227 1014.13 749.904C1011.83 748.581 1009.16 747.92 1006.13 747.92H994.358V741.2H1006.33C1009.57 741.2 1012.58 741.776 1015.35 742.928C1018.12 744.037 1020.53 745.616 1022.58 747.664C1024.67 749.669 1026.29 752.037 1027.45 754.768C1028.6 757.456 1029.17 760.4 1029.17 763.6C1029.17 766.757 1028.6 769.701 1027.45 772.432C1026.29 775.163 1024.69 777.552 1022.65 779.6C1020.6 781.605 1018.19 783.184 1015.41 784.336C1012.64 785.445 1009.65 786 1006.45 786H994.358ZM989.302 786V741.2H996.662V786H989.302ZM1039.88 786L1056.2 745.68H1063.49L1047.56 786H1039.88ZM1033.48 747.792V741.2H1063.49V745.68L1060.36 747.792H1033.48ZM1070.11 786V741.2H1077.47V786H1070.11ZM1075.17 786V779.28H1100.26V786H1075.17ZM1075.17 766.352V759.888H1098.08V766.352H1075.17ZM1075.17 747.92V741.2H1099.94V747.92H1075.17ZM1107.86 786V741.2H1115.22V786H1107.86ZM1112.92 786V779.28H1138.01V786H1112.92ZM1112.92 766.352V759.888H1135.83V766.352H1112.92ZM1112.92 747.92V741.2H1137.69V747.92H1112.92Z" fill="#010035"/>
</svg>
