<svg width="655" height="446" viewBox="0 0 655 446" fill="none" xmlns="http://www.w3.org/2000/svg">
<rect width="655" height="446" fill="#1F36AF"/>
<path d="M97.7975 372.862C177.337 346.889 414.709 339.23 513.928 370.879M97.7975 372.862V372.862ZM96.7174 371.647C181.227 345.604 416.271 339.218 511.087 371.039M513.434 372.862C692.819 436.122 -60.7992 418.269 98.2686 374.053M514.472 373.713C691.16 436.723 -62.0751 415.469 98.1086 374.477" stroke="#F88C00" stroke-width="2"/>
<path d="M215.168 377.198C254.515 364.35 371.938 360.561 421.02 376.217M215.168 377.198V377.198ZM214.634 376.597C256.439 363.714 372.711 360.555 419.615 376.296M420.776 377.198C509.514 408.492 136.714 399.66 215.401 377.788M421.289 377.619C508.693 408.789 136.082 398.275 215.322 377.997" stroke="#F88C00" stroke-width="2"/>
<path d="M208.221 158.218C238.63 151.091 274.35 147.376 311.129 150.513C317.898 150.989 324.711 151.694 331.541 152.65C374.822 158.709 418.811 174.851 456.799 206.71C474.723 221.741 491.296 240.263 505.826 262.853C511.248 262.987 516.543 263.204 521.693 263.524C559.328 265.86 589.645 273.524 606.311 292.205L604.818 293.537C588.734 275.507 559.171 267.854 521.569 265.52C516.87 265.229 512.05 265.02 507.121 264.884C507.389 265.308 507.653 265.735 507.919 266.162C512.181 266.277 516.361 266.445 520.448 266.682C557.593 268.837 587.54 276.356 604.301 295.024C604.402 294.97 604.501 294.914 604.602 294.862L605.064 295.749L605.527 296.634C603.622 297.63 601.562 298.982 599.377 300.618C592.649 306.544 584.424 314.243 576.009 322.494C575.189 323.348 574.368 324.207 573.548 325.068C565.131 333.903 556.74 343.01 549.66 349.682C548.307 351.168 546.996 352.628 545.735 354.052C545.811 354.32 545.889 354.588 545.964 354.857L545.001 355.127L544.719 355.205C543.694 356.373 542.705 357.517 541.758 358.631L540.996 357.982L540.234 357.335C540.77 356.705 541.318 356.065 541.879 355.418L541.725 355.214L541.122 354.416C541.814 353.893 542.531 353.32 543.272 352.704C533.808 319.73 521.394 291.755 506.792 268.132C505.92 268.11 505.044 268.093 504.165 268.076C518.742 292.362 530.933 321.132 539.916 355.043L538.949 355.299L537.983 355.554C528.913 321.312 516.564 292.373 501.805 268.035C468.783 267.562 431.061 270.233 391.864 272.827C345.155 275.918 296.377 278.895 251.156 276.253C205.944 273.611 164.172 265.349 131.52 245.884L132.032 245.025L132.264 244.635L131.875 244.466C132.959 241.965 133.919 239.707 134.833 237.416C135.275 234.543 135.888 232.011 136.537 229.712C137.773 225.335 139.049 222.026 139.587 218.684L140.574 218.842L141.562 219.002C141.521 219.253 141.474 219.506 141.426 219.759L141.791 219.866L142.453 220.058C140.455 216.985 139.218 214.238 138.263 211.619C135.237 206.622 132.214 200.685 129.123 192.62L129.897 192.323C129.84 192.241 129.783 192.159 129.725 192.077L130.162 191.766L130.108 191.704C144.536 179.452 172.843 166.511 208.221 158.218ZM509.176 268.197C523.454 291.538 535.613 319.034 544.943 351.278C546 350.353 547.096 349.351 548.229 348.284C556.149 339.592 565.49 330.006 574.608 321.066C579.594 315.876 584.583 310.832 589.32 306.481C592.361 303.689 595.315 301.165 598.112 299.066C599.493 297.851 600.81 296.709 602.054 295.653L602.434 296.1C602.464 296.082 602.494 296.063 602.524 296.045C586.287 278.252 557.216 270.819 520.333 268.679C516.686 268.468 512.964 268.31 509.176 268.197ZM136.199 244.225C136.18 244.753 136.167 245.292 136.162 245.841L135.416 245.835C167.232 263.868 207.513 271.699 251.272 274.256C296.35 276.889 345.006 273.924 391.731 270.832C430.383 268.274 467.734 265.63 500.571 266.02C500.306 265.591 500.039 265.163 499.771 264.736C467.07 264.303 430.003 266.721 391.687 269.111C344.605 272.047 295.661 274.938 250.799 272.395C206.949 269.909 166.876 262.225 136.199 244.225ZM310.964 152.507C275.082 149.986 240.41 153.937 210.915 161.036C175.854 169.474 148.226 182.332 134.581 193.948L133.933 193.186L133.285 192.425C139.547 187.094 148.613 181.553 159.876 176.299C148.343 181.495 138.978 187.033 132.378 192.418C135.802 197.618 137.217 201.821 138.475 205.838C138.992 207.491 139.482 209.103 140.072 210.743C141.858 213.68 143.646 216.291 145.455 218.833L144.64 219.413L143.825 219.993C143.776 219.924 143.728 219.855 143.679 219.786L143.533 219.883L142.7 220.437C142.692 220.425 142.684 220.412 142.676 220.4C140.425 228.104 138.693 233.117 136.774 237.943C136.584 239.216 136.431 240.557 136.324 241.976C166.699 260.109 206.742 267.894 250.912 270.398C295.636 272.933 344.462 270.053 391.562 267.115C429.331 264.759 466.005 262.367 498.498 262.722C484.761 241.211 469.084 223.458 452.111 208.941C415.086 177.274 371.846 160.952 329.042 154.611C323.001 153.716 316.968 153.019 310.964 152.507ZM502.938 266.052C503.803 266.067 504.665 266.083 505.523 266.101C505.255 265.675 504.984 265.25 504.714 264.827C503.863 264.808 503.009 264.79 502.152 264.775C502.415 265.199 502.677 265.625 502.938 266.052ZM422.875 185.4C433.401 191.742 443.621 199.049 453.411 207.422C470.834 222.323 486.884 240.587 500.888 262.754C501.73 262.766 502.57 262.779 503.406 262.796C489.157 240.881 472.972 222.883 455.514 208.242C445.048 199.465 434.121 191.892 422.875 185.4ZM207.463 164.736C210.452 169.722 213.043 175.92 214.596 182.823C217.095 191.034 217.923 200.157 216.272 209.388C213.297 226.032 202.296 242.906 178.819 255.374L178.351 254.491L177.882 253.607C195.378 244.315 205.676 232.61 210.86 220.516C205.62 231.797 196.047 242.773 180.293 251.958L179.789 251.093L179.285 250.23C201.237 237.432 210.748 221.222 213.353 205.817C214.682 197.957 214.215 190.277 212.661 183.332C210.735 177.034 207.792 171.292 204.22 166.504L205.021 165.906L205.822 165.308C205.892 165.402 205.962 165.498 206.031 165.592L206.605 165.25L207.463 164.736ZM133.851 244.934C133.959 244.997 134.067 245.06 134.175 245.123C134.182 244.783 134.19 244.446 134.202 244.114C134.086 244.384 133.97 244.659 133.851 244.934ZM319.038 177.593C319.36 177.961 319.663 178.41 319.953 178.924C320.505 178.909 321.015 178.923 321.476 178.973C322.105 179.042 322.708 179.184 323.204 179.464L322.714 180.335L322.247 181.162C322.267 181.181 322.287 181.199 322.306 181.218C322.722 181.644 323.071 182.217 323.371 182.858C323.972 184.145 324.479 185.937 324.904 188.051C325.759 192.299 326.33 198.082 326.587 204.32C326.753 208.353 326.787 212.603 326.68 216.778C327.313 225.613 327.576 234.428 327.386 241.433L326.386 241.406L325.387 241.379C325.459 238.721 325.464 235.797 325.409 232.707C325.119 234.614 324.779 236.375 324.388 237.939L324.364 238.704L324.333 239.703C321.655 239.62 318.821 239.406 315.892 239.087C319.196 239.925 322.257 240.611 324.926 241.057L324.596 243.03C317.718 241.879 308.321 239.209 298.954 236.317C294.946 235.47 290.971 234.506 287.168 233.471C281.097 231.819 275.443 229.982 270.763 228.146C269.215 227.539 267.766 226.928 266.438 226.321C266.117 226.248 265.816 226.183 265.537 226.129C264.881 226.001 264.38 225.932 264.028 225.917C263.852 225.909 263.742 225.916 263.684 225.924C263.609 225.936 263.688 225.939 263.806 225.851L263.209 225.049L262.79 224.485C261.742 223.896 260.835 223.318 260.096 222.755L260.702 221.96L261.309 221.164C262.621 222.165 264.591 223.267 267.087 224.417C268.293 224.697 269.736 225.085 271.361 225.553C275.744 226.817 281.565 228.698 287.893 230.725C291.632 231.924 295.548 233.171 299.457 234.379C307.361 236.046 315.37 237.245 322.405 237.619C323.731 232.426 324.469 224.8 324.679 216.819C324.378 212.644 323.995 208.463 323.535 204.47C322.82 198.262 321.925 192.528 320.886 187.986C320.366 185.714 319.813 183.758 319.236 182.198C319.145 181.95 319.052 181.715 318.961 181.491C318.079 181.406 317.084 181.373 315.99 181.385C315.3 181.504 314.566 181.642 313.791 181.8C309.315 182.718 303.607 184.256 297.388 186.007C287.133 188.892 275.49 192.353 265.927 194.455C264.112 195.328 262.477 196.206 261.072 197.073L260.547 196.221L260.022 195.371C260.079 195.336 260.137 195.301 260.194 195.266L260.08 194.59L259.913 193.605C261.597 193.319 263.391 192.963 265.271 192.552C272.698 189.004 282.871 185.577 292.644 183.114C298.833 181.554 304.9 180.371 310.054 179.787C312.109 179.554 314.046 179.414 315.803 179.387C316.466 179.276 317.098 179.183 317.692 179.109C317.639 179.039 317.587 178.972 317.534 178.912L319.038 177.593ZM293.132 185.053C289.057 186.08 284.931 187.272 280.979 188.564C285.752 187.244 290.609 185.848 295.256 184.533C294.551 184.701 293.842 184.874 293.132 185.053Z" fill="#F88C00"/>
<path d="M18.2399 91.1777V55.4177H30.8639C33.2319 55.4177 35.3119 55.8657 37.1039 56.7617C38.8959 57.6577 40.2879 58.9377 41.2799 60.6017C42.3039 62.2657 42.8159 64.2177 42.8159 66.4577C42.8159 68.9857 42.1759 71.1297 40.8959 72.8897C39.6159 74.6497 37.8879 75.9137 35.7119 76.6817L44.0159 91.1777H38.5439L29.8079 75.6737L32.9279 77.4977H22.9439V91.1777H18.2399ZM22.9439 73.1777H31.0079C32.4159 73.1777 33.6479 72.9057 34.7039 72.3617C35.7599 71.8177 36.5759 71.0337 37.1519 70.0097C37.7599 68.9857 38.0639 67.8017 38.0639 66.4577C38.0639 65.0817 37.7599 63.8977 37.1519 62.9057C36.5759 61.8817 35.7599 61.0977 34.7039 60.5537C33.6479 60.0097 32.4159 59.7377 31.0079 59.7377H22.9439V73.1777ZM46.9649 91.1777V55.4177H70.2449V59.7377H51.6689V71.0657H69.2849V75.3857H51.6689V86.8577H70.2449V91.1777H46.9649ZM85.9622 91.7537C83.6902 91.7537 81.6102 91.3377 79.7222 90.5057C77.8342 89.6417 76.2342 88.4737 74.9222 87.0017C73.6102 85.5297 72.6662 83.8817 72.0902 82.0577L76.1702 80.3777C77.0342 82.6817 78.3142 84.4577 80.0102 85.7057C81.7382 86.9217 83.7542 87.5297 86.0582 87.5297C87.4662 87.5297 88.6982 87.3057 89.7542 86.8577C90.8102 86.4097 91.6262 85.7857 92.2022 84.9857C92.8102 84.1537 93.1142 83.1937 93.1142 82.1057C93.1142 80.6017 92.6822 79.4177 91.8182 78.5537C90.9862 77.6577 89.7542 76.9857 88.1222 76.5377L81.5462 74.5217C78.9542 73.7217 76.9702 72.4577 75.5942 70.7297C74.2182 69.0017 73.5302 67.0177 73.5302 64.7777C73.5302 62.8257 73.9942 61.1137 74.9222 59.6417C75.8822 58.1377 77.1942 56.9697 78.8582 56.1377C80.5542 55.2737 82.4742 54.8417 84.6182 54.8417C86.7622 54.8417 88.6982 55.2257 90.4262 55.9937C92.1862 56.7617 93.6742 57.8017 94.8902 59.1137C96.1062 60.3937 97.0022 61.8657 97.5782 63.5297L93.5462 65.2097C92.7782 63.1937 91.6262 61.6737 90.0902 60.6497C88.5542 59.5937 86.7462 59.0657 84.6662 59.0657C83.3862 59.0657 82.2502 59.2897 81.2582 59.7377C80.2982 60.1537 79.5462 60.7777 79.0022 61.6097C78.4902 62.4097 78.2342 63.3697 78.2342 64.4897C78.2342 65.8017 78.6502 66.9697 79.4822 67.9937C80.3142 69.0177 81.5782 69.8017 83.2742 70.3457L89.2742 72.1217C92.0902 72.9857 94.2182 74.2177 95.6582 75.8177C97.0982 77.4177 97.8182 79.4017 97.8182 81.7697C97.8182 83.7217 97.3062 85.4497 96.2822 86.9537C95.2902 88.4577 93.8982 89.6417 92.1062 90.5057C90.3462 91.3377 88.2982 91.7537 85.9622 91.7537ZM108.545 91.1777V59.7377H98.8495V55.4177H122.849V59.7377H113.297V91.1777H108.545ZM119.137 91.1777L131.953 55.4177H137.521L150.337 91.1777H145.297L142.369 82.7777H127.105L124.177 91.1777H119.137ZM128.593 78.4577H140.881L134.065 58.8257H135.409L128.593 78.4577ZM164.465 91.7537C161.873 91.7537 159.569 91.2097 157.553 90.1217C155.569 89.0337 154.017 87.5457 152.897 85.6577C151.809 83.7377 151.265 81.5617 151.265 79.1297V55.4177H156.017V79.0337C156.017 80.6657 156.369 82.1217 157.073 83.4017C157.809 84.6497 158.801 85.6257 160.049 86.3297C161.329 87.0337 162.801 87.3857 164.465 87.3857C166.129 87.3857 167.585 87.0337 168.833 86.3297C170.113 85.6257 171.105 84.6497 171.809 83.4017C172.545 82.1217 172.913 80.6657 172.913 79.0337V55.4177H177.665V79.1297C177.665 81.5617 177.105 83.7377 175.985 85.6577C174.897 87.5457 173.361 89.0337 171.377 90.1217C169.393 91.2097 167.089 91.7537 164.465 91.7537ZM182.996 91.1777V55.4177H195.62C197.988 55.4177 200.068 55.8657 201.86 56.7617C203.652 57.6577 205.044 58.9377 206.036 60.6017C207.06 62.2657 207.572 64.2177 207.572 66.4577C207.572 68.9857 206.932 71.1297 205.652 72.8897C204.372 74.6497 202.644 75.9137 200.468 76.6817L208.772 91.1777H203.3L194.564 75.6737L197.684 77.4977H187.7V91.1777H182.996ZM187.7 73.1777H195.764C197.172 73.1777 198.404 72.9057 199.46 72.3617C200.516 71.8177 201.332 71.0337 201.908 70.0097C202.516 68.9857 202.82 67.8017 202.82 66.4577C202.82 65.0817 202.516 63.8977 201.908 62.9057C201.332 61.8817 200.516 61.0977 199.46 60.5537C198.404 60.0097 197.172 59.7377 195.764 59.7377H187.7V73.1777ZM208.265 91.1777L221.081 55.4177H226.649L239.465 91.1777H234.425L231.497 82.7777H216.233L213.305 91.1777H208.265ZM217.721 78.4577H230.009L223.193 58.8257H224.537L217.721 78.4577ZM241.571 91.1777V55.4177H245.507L266.051 84.3137L264.275 84.5057V55.4177H269.027V91.1777H265.091L244.643 62.0897L246.275 61.8977V91.1777H241.571ZM280.849 91.1777V59.7377H271.153V55.4177H295.153V59.7377H285.601V91.1777H280.849Z" fill="#F88C00"/>
<path d="M585.14 33.4657C584.004 33.4657 582.972 33.2497 582.044 32.8177C581.116 32.3857 580.332 31.8097 579.692 31.0897C579.052 30.3537 578.596 29.5457 578.324 28.6657L580.052 28.0177C580.468 29.2337 581.116 30.1617 581.996 30.8017C582.876 31.4257 583.924 31.7377 585.14 31.7377C585.908 31.7377 586.58 31.6177 587.156 31.3777C587.748 31.1217 588.204 30.7697 588.524 30.3217C588.844 29.8737 589.004 29.3537 589.004 28.7617C589.004 27.8817 588.764 27.2017 588.284 26.7217C587.804 26.2417 587.116 25.8737 586.22 25.6177L583.004 24.6577C581.74 24.2897 580.764 23.6737 580.076 22.8097C579.404 21.9457 579.068 20.9617 579.068 19.8577C579.068 18.9137 579.3 18.0817 579.764 17.3617C580.228 16.6257 580.86 16.0497 581.66 15.6337C582.476 15.2177 583.396 15.0097 584.42 15.0097C585.492 15.0097 586.452 15.2097 587.3 15.6097C588.164 15.9937 588.892 16.5057 589.484 17.1457C590.076 17.7857 590.5 18.4977 590.756 19.2817L589.076 19.9537C588.692 18.8977 588.092 18.0977 587.276 17.5537C586.476 17.0097 585.532 16.7377 584.444 16.7377C583.756 16.7377 583.148 16.8577 582.62 17.0977C582.108 17.3377 581.708 17.6817 581.42 18.1297C581.132 18.5777 580.988 19.1057 580.988 19.7137C580.988 20.4497 581.22 21.1137 581.684 21.7057C582.148 22.2817 582.86 22.7137 583.82 23.0017L586.652 23.8417C588.06 24.2577 589.124 24.8577 589.844 25.6417C590.564 26.4257 590.924 27.4097 590.924 28.5937C590.924 29.5537 590.676 30.4017 590.18 31.1377C589.7 31.8577 589.02 32.4257 588.14 32.8417C587.276 33.2577 586.276 33.4657 585.14 33.4657ZM600.44 33.4657C599.176 33.4657 598.064 33.2017 597.104 32.6737C596.144 32.1457 595.4 31.4257 594.872 30.5137C594.344 29.5857 594.08 28.5297 594.08 27.3457V15.2977H596V27.3457C596 28.2097 596.184 28.9697 596.552 29.6257C596.936 30.2657 597.456 30.7697 598.112 31.1377C598.784 31.4897 599.56 31.6657 600.44 31.6657C601.32 31.6657 602.088 31.4897 602.744 31.1377C603.416 30.7697 603.936 30.2657 604.304 29.6257C604.688 28.9697 604.88 28.2097 604.88 27.3457V15.2977H606.8V27.3457C606.8 28.5297 606.536 29.5857 606.008 30.5137C605.48 31.4257 604.736 32.1457 603.776 32.6737C602.832 33.2017 601.72 33.4657 600.44 33.4657ZM616.5 33.4657C615.364 33.4657 614.332 33.2497 613.404 32.8177C612.476 32.3857 611.692 31.8097 611.052 31.0897C610.412 30.3537 609.956 29.5457 609.684 28.6657L611.412 28.0177C611.828 29.2337 612.476 30.1617 613.356 30.8017C614.236 31.4257 615.284 31.7377 616.5 31.7377C617.268 31.7377 617.94 31.6177 618.516 31.3777C619.108 31.1217 619.564 30.7697 619.884 30.3217C620.204 29.8737 620.364 29.3537 620.364 28.7617C620.364 27.8817 620.124 27.2017 619.644 26.7217C619.164 26.2417 618.476 25.8737 617.58 25.6177L614.364 24.6577C613.1 24.2897 612.124 23.6737 611.436 22.8097C610.764 21.9457 610.428 20.9617 610.428 19.8577C610.428 18.9137 610.66 18.0817 611.124 17.3617C611.588 16.6257 612.22 16.0497 613.02 15.6337C613.836 15.2177 614.756 15.0097 615.78 15.0097C616.852 15.0097 617.812 15.2097 618.66 15.6097C619.524 15.9937 620.252 16.5057 620.844 17.1457C621.436 17.7857 621.86 18.4977 622.116 19.2817L620.436 19.9537C620.052 18.8977 619.452 18.0977 618.636 17.5537C617.836 17.0097 616.892 16.7377 615.804 16.7377C615.116 16.7377 614.508 16.8577 613.98 17.0977C613.468 17.3377 613.068 17.6817 612.78 18.1297C612.492 18.5777 612.348 19.1057 612.348 19.7137C612.348 20.4497 612.58 21.1137 613.044 21.7057C613.508 22.2817 614.22 22.7137 615.18 23.0017L618.012 23.8417C619.42 24.2577 620.484 24.8577 621.204 25.6417C621.924 26.4257 622.284 27.4097 622.284 28.5937C622.284 29.5537 622.036 30.4017 621.54 31.1377C621.06 31.8577 620.38 32.4257 619.5 32.8417C618.636 33.2577 617.636 33.4657 616.5 33.4657ZM625.512 33.1777V15.2977H627.432V23.3377H637.032V15.2977H638.952V33.1777H637.032V25.1377H627.432V33.1777H625.512ZM642.704 33.1777V15.2977H644.624V33.1777H642.704Z" fill="#F88C00"/>
<path d="M544.524 55.1777V39.0977H539.58V37.2977H551.34V39.0977H546.444V55.1777H544.524ZM553.229 55.1777V37.2977H564.749V39.0977H555.149V45.3137H564.269V47.1137H555.149V53.3777H564.749V55.1777H553.229ZM567.444 55.1777V37.2977H569.124L575.844 47.0417H574.908L581.604 37.2977H583.284V55.1777H581.364V39.8897L581.988 40.1297L575.412 49.6577H575.316L568.764 40.1297L569.364 39.8897V55.1777H567.444ZM587.027 55.1777V37.2977H593.171C594.339 37.2977 595.363 37.5297 596.243 37.9937C597.123 38.4417 597.803 39.0817 598.283 39.9137C598.779 40.7297 599.027 41.6817 599.027 42.7697C599.027 43.8577 598.779 44.8097 598.283 45.6257C597.803 46.4417 597.123 47.0817 596.243 47.5457C595.379 47.9937 594.355 48.2177 593.171 48.2177H588.947V55.1777H587.027ZM588.947 46.4177H593.267C594.035 46.4177 594.707 46.2737 595.283 45.9857C595.859 45.6817 596.307 45.2577 596.627 44.7137C596.947 44.1537 597.107 43.4977 597.107 42.7457C597.107 41.9937 596.947 41.3457 596.627 40.8017C596.307 40.2577 595.859 39.8417 595.283 39.5537C594.707 39.2497 594.035 39.0977 593.267 39.0977H588.947V46.4177ZM608.257 55.4657C606.993 55.4657 605.881 55.2017 604.921 54.6737C603.961 54.1457 603.217 53.4257 602.689 52.5137C602.161 51.5857 601.897 50.5297 601.897 49.3457V37.2977H603.817V49.3457C603.817 50.2097 604.001 50.9697 604.369 51.6257C604.753 52.2657 605.273 52.7697 605.929 53.1377C606.601 53.4897 607.377 53.6657 608.257 53.6657C609.137 53.6657 609.905 53.4897 610.561 53.1377C611.233 52.7697 611.753 52.2657 612.121 51.6257C612.505 50.9697 612.697 50.2097 612.697 49.3457V37.2977H614.617V49.3457C614.617 50.5297 614.353 51.5857 613.825 52.5137C613.297 53.4257 612.553 54.1457 611.593 54.6737C610.649 55.2017 609.537 55.4657 608.257 55.4657ZM618.293 55.1777V37.2977H624.437C625.605 37.2977 626.629 37.5297 627.509 37.9937C628.389 38.4417 629.069 39.0817 629.549 39.9137C630.045 40.7297 630.293 41.6817 630.293 42.7697C630.293 44.0337 629.957 45.1137 629.285 46.0097C628.629 46.9057 627.733 47.5377 626.597 47.9057L630.773 55.1777H628.517L624.149 47.4737L625.445 48.2177H620.213V55.1777H618.293ZM620.213 46.4177H624.533C625.301 46.4177 625.973 46.2737 626.549 45.9857C627.125 45.6817 627.573 45.2577 627.893 44.7137C628.213 44.1537 628.373 43.4977 628.373 42.7457C628.373 41.9937 628.213 41.3457 627.893 40.8017C627.573 40.2577 627.125 39.8417 626.549 39.5537C625.973 39.2497 625.301 39.0977 624.533 39.0977H620.213V46.4177ZM631.34 55.1777L637.868 37.2977H639.932L646.46 55.1777H644.444L642.908 50.8097H634.916L633.356 55.1777H631.34ZM635.54 49.0097H642.236L638.612 38.7377H639.188L635.54 49.0097Z" fill="#F88C00"/>
<path d="M577.901 76.4657C576.637 76.4657 575.477 76.2417 574.421 75.7937C573.365 75.3297 572.445 74.6897 571.661 73.8737C570.893 73.0417 570.293 72.0657 569.861 70.9457C569.429 69.8257 569.213 68.5937 569.213 67.2497C569.213 65.9057 569.429 64.6737 569.861 63.5537C570.293 62.4337 570.893 61.4577 571.661 60.6257C572.445 59.7937 573.365 59.1537 574.421 58.7057C575.477 58.2417 576.637 58.0097 577.901 58.0097C579.117 58.0097 580.205 58.2257 581.165 58.6577C582.141 59.0897 582.957 59.6497 583.613 60.3377C584.285 61.0097 584.765 61.7217 585.053 62.4737L583.253 63.2657C582.805 62.2257 582.117 61.3937 581.189 60.7697C580.277 60.1297 579.181 59.8097 577.901 59.8097C576.589 59.8097 575.421 60.1217 574.397 60.7457C573.373 61.3697 572.573 62.2417 571.997 63.3617C571.421 64.4657 571.133 65.7617 571.133 67.2497C571.133 68.7217 571.421 70.0177 571.997 71.1377C572.573 72.2577 573.373 73.1297 574.397 73.7537C575.421 74.3617 576.589 74.6657 577.901 74.6657C579.181 74.6657 580.277 74.3537 581.189 73.7297C582.117 73.1057 582.805 72.2737 583.253 71.2337L585.053 72.0257C584.765 72.7617 584.285 73.4737 583.613 74.1617C582.957 74.8337 582.141 75.3857 581.165 75.8177C580.205 76.2497 579.117 76.4657 577.901 76.4657ZM594.299 76.4657C593.035 76.4657 591.923 76.2017 590.963 75.6737C590.003 75.1457 589.259 74.4257 588.731 73.5137C588.203 72.5857 587.939 71.5297 587.939 70.3457V58.2977H589.859V70.3457C589.859 71.2097 590.043 71.9697 590.411 72.6257C590.795 73.2657 591.315 73.7697 591.971 74.1377C592.643 74.4897 593.419 74.6657 594.299 74.6657C595.179 74.6657 595.947 74.4897 596.603 74.1377C597.275 73.7697 597.795 73.2657 598.163 72.6257C598.547 71.9697 598.739 71.2097 598.739 70.3457V58.2977H600.659V70.3457C600.659 71.5297 600.395 72.5857 599.867 73.5137C599.339 74.4257 598.595 75.1457 597.635 75.6737C596.691 76.2017 595.579 76.4657 594.299 76.4657ZM604.336 76.1777V58.2977H610.48C611.648 58.2977 612.672 58.5297 613.552 58.9937C614.432 59.4417 615.112 60.0817 615.592 60.9137C616.088 61.7297 616.336 62.6817 616.336 63.7697C616.336 65.0337 616 66.1137 615.328 67.0097C614.672 67.9057 613.776 68.5377 612.64 68.9057L616.816 76.1777H614.56L610.192 68.4737L611.488 69.2177H606.256V76.1777H604.336ZM606.256 67.4177H610.576C611.344 67.4177 612.016 67.2737 612.592 66.9857C613.168 66.6817 613.616 66.2577 613.936 65.7137C614.256 65.1537 614.416 64.4977 614.416 63.7457C614.416 62.9937 614.256 62.3457 613.936 61.8017C613.616 61.2577 613.168 60.8417 612.592 60.5537C612.016 60.2497 611.344 60.0977 610.576 60.0977H606.256V67.4177ZM619.231 76.1777V58.2977H625.375C626.543 58.2977 627.567 58.5297 628.447 58.9937C629.327 59.4417 630.007 60.0817 630.487 60.9137C630.983 61.7297 631.231 62.6817 631.231 63.7697C631.231 65.0337 630.895 66.1137 630.223 67.0097C629.567 67.9057 628.671 68.5377 627.535 68.9057L631.711 76.1777H629.455L625.087 68.4737L626.383 69.2177H621.151V76.1777H619.231ZM621.151 67.4177H625.471C626.239 67.4177 626.911 67.2737 627.487 66.9857C628.063 66.6817 628.511 66.2577 628.831 65.7137C629.151 65.1537 629.311 64.4977 629.311 63.7457C629.311 62.9937 629.151 62.3457 628.831 61.8017C628.511 61.2577 628.063 60.8417 627.487 60.5537C626.911 60.2497 626.239 60.0977 625.471 60.0977H621.151V67.4177ZM638.307 76.1777V67.8737L632.043 58.2977H634.179L639.651 66.6257H638.883L644.331 58.2977H646.467L640.227 67.8737V76.1777H638.307Z" fill="#F88C00"/>
<path d="M177.177 213.631C157.356 211.12 165.857 193.804 172.239 187.803C172.492 187.565 172.801 187.381 173.128 187.265C190.963 180.934 197.233 216.172 177.177 213.631Z" stroke="#F88C00" stroke-width="3"/>
<path fill-rule="evenodd" clip-rule="evenodd" d="M17.7051 11.4141C16.6005 11.4141 15.7051 12.3095 15.7051 13.4141V46.5856C15.7051 47.6902 16.6005 48.5856 17.7051 48.5856H22.6661C23.7706 48.5856 24.6661 47.6902 24.6661 46.5856V31.5582C24.6661 29.5178 27.3629 28.7873 28.3927 30.5488L38.3582 47.595C38.7168 48.2085 39.3741 48.5856 40.0848 48.5856H47.2258C48.3304 48.5856 49.2258 47.6902 49.2258 46.5856V13.4141C49.2258 12.3095 48.3304 11.4141 47.2258 11.4141H42.2649C41.1603 11.4141 40.2649 12.3095 40.2649 13.4141V29.101C40.2649 31.09 37.677 31.8597 36.59 30.194L24.9261 12.321C24.5568 11.7552 23.9268 11.4141 23.2512 11.4141H17.7051ZM56.1448 21.3653C55.7531 21.7424 55.5317 22.2626 55.5317 22.8063V46.5858C55.5317 47.6903 56.4272 48.5858 57.5317 48.5858H62.4927C63.5973 48.5858 64.4927 47.6903 64.4927 46.5858V41.709C64.4927 40.6044 65.3882 39.709 66.4927 39.709H73.1132C74.2177 39.709 75.1132 40.6044 75.1132 41.709V46.5858C75.1132 47.6903 76.0086 48.5858 77.1132 48.5858H82.0742C83.1787 48.5858 84.0742 47.6903 84.0742 46.5858V22.8063C84.0742 22.2626 83.8528 21.7424 83.4611 21.3653L73.7026 11.9732C73.33 11.6146 72.8329 11.4142 72.3157 11.4142H67.2902C66.773 11.4142 66.2759 11.6146 65.9033 11.9732L56.1448 21.3653ZM64.4927 24.2774C64.4927 23.6848 64.7555 23.1228 65.2101 22.7428L67.5867 20.7565C67.9464 20.4558 68.4004 20.291 68.8693 20.291H70.7366C71.2055 20.291 71.6595 20.4558 72.0193 20.7564L74.3958 22.7428C74.8504 23.1228 75.1132 23.6848 75.1132 24.2774V30.2192C75.1132 31.3238 74.2178 32.2192 73.1132 32.2192H66.4927C65.3882 32.2192 64.4927 31.3238 64.4927 30.2192V24.2774ZM93.3757 48.5858C92.2712 48.5858 91.3757 47.6903 91.3757 46.5858V13.4142C91.3757 12.3097 92.2712 11.4142 93.3757 11.4142H97.8935C98.4646 11.4142 99.0085 11.6584 99.388 12.0852L107.322 21.007C107.701 21.4338 108.245 21.678 108.816 21.678H110.443C111.014 21.678 111.558 21.4338 111.938 21.007L119.871 12.0852C120.251 11.6584 120.795 11.4142 121.366 11.4142H125.884C126.988 11.4142 127.884 12.3097 127.884 13.4142V46.5858C127.884 47.6903 126.988 48.5858 125.884 48.5858H122.183C121.078 48.5858 120.183 47.6903 120.183 46.5858V25.0788C120.183 24.4262 119.654 23.8972 119.001 23.8972C118.664 23.8972 118.343 24.0411 118.119 24.2927L111.652 31.5498C111.273 31.9756 110.729 32.2192 110.159 32.2192H108.793C108.235 32.2192 107.703 31.9866 107.325 31.5776L100.512 24.2156C100.324 24.0126 100.06 23.8972 99.7837 23.8972C99.2357 23.8972 98.7914 24.3415 98.7914 24.8895V46.5858C98.7914 47.6903 97.8959 48.5858 96.7914 48.5858H93.3757ZM136.521 11.4142C135.417 11.4142 134.521 12.3097 134.521 13.4142V46.5858C134.521 47.6903 135.417 48.5858 136.521 48.5858H141.15C142.255 48.5858 143.15 47.6903 143.15 46.5858V13.4142C143.15 12.3097 142.255 11.4142 141.15 11.4142H136.521Z" fill="#F88C00"/>
</svg>
