<svg width="655" height="446" viewBox="0 0 655 446" fill="none" xmlns="http://www.w3.org/2000/svg">
<rect width="655" height="446" fill="white"/>
<rect width="655" height="446" stroke="#1F36AF"/>
<path fill-rule="evenodd" clip-rule="evenodd" d="M259.819 299.417C259.036 300.171 258.593 301.212 258.593 302.299V343.501C258.593 345.711 260.384 347.501 262.593 347.501H270.376C272.585 347.501 274.376 345.711 274.376 343.501V335.867C274.376 333.658 276.167 331.867 278.376 331.867H289.082C291.291 331.867 293.082 333.658 293.082 335.867V343.501C293.082 345.711 294.873 347.501 297.082 347.501H304.865C307.074 347.501 308.865 345.711 308.865 343.501V302.299C308.865 301.212 308.422 300.171 307.639 299.417L290.736 283.149C289.991 282.432 288.997 282.031 287.962 282.031H279.496C278.461 282.031 277.467 282.432 276.722 283.149L259.819 299.417ZM274.376 304.91C274.376 303.725 274.901 302.601 275.811 301.841L279.692 298.597C280.412 297.995 281.32 297.666 282.258 297.666H285.2C286.138 297.666 287.046 297.995 287.765 298.597L291.647 301.841C292.556 302.601 293.082 303.725 293.082 304.91V314.675C293.082 316.884 291.291 318.675 289.082 318.675H278.376C276.167 318.675 274.376 316.884 274.376 314.675V304.91ZM192.445 282.031C190.236 282.031 188.445 283.822 188.445 286.031V343.501C188.445 345.711 190.236 347.501 192.445 347.501H200.228C202.437 347.501 204.228 345.711 204.228 343.501V319.274C204.228 315.193 209.622 313.732 211.681 317.255L228.206 345.52C228.923 346.747 230.238 347.501 231.659 347.501H243.485C245.694 347.501 247.485 345.711 247.485 343.501V286.031C247.485 283.822 245.694 282.031 243.485 282.031H235.702C233.493 282.031 231.702 283.822 231.702 286.031V311.578C231.702 315.556 226.527 317.096 224.353 313.764L204.828 283.845C204.089 282.714 202.829 282.031 201.478 282.031H192.445ZM325.725 347.501C323.516 347.501 321.725 345.711 321.725 343.501V286.031C321.725 283.822 323.516 282.031 325.725 282.031H332.99C334.133 282.031 335.22 282.52 335.98 283.373L349.668 298.767C350.427 299.62 351.515 300.109 352.657 300.109H355.094C356.236 300.109 357.324 299.62 358.083 298.767L371.772 283.373C372.531 282.52 373.618 282.031 374.761 282.031H382.026C384.235 282.031 386.026 283.822 386.026 286.031V343.501C386.026 345.711 384.235 347.501 382.026 347.501H376.463C374.253 347.501 372.463 345.711 372.463 343.501V306.099C372.463 304.949 371.531 304.017 370.382 304.017V304.017C369.788 304.017 369.223 304.271 368.828 304.714L357.58 317.336C356.821 318.188 355.735 318.675 354.594 318.675H352.61C351.495 318.675 350.431 318.21 349.674 317.392L337.817 304.578C337.486 304.221 337.021 304.017 336.534 304.017V304.017C335.569 304.017 334.786 304.8 334.786 305.765V343.501C334.786 345.711 332.995 347.501 330.786 347.501H325.725ZM401.717 282.031C399.508 282.031 397.717 283.822 397.717 286.031V343.501C397.717 345.711 399.508 347.501 401.717 347.501H408.916C411.125 347.501 412.916 345.711 412.916 343.501V286.031C412.916 283.822 411.125 282.031 408.916 282.031H401.717Z" fill="#1F36AF"/>
<path d="M438.495 200.261C440.839 200.261 443.304 200.325 445.283 200.59C446.207 200.713 447.503 200.937 448.731 201.448C449.342 201.703 453.395 203.442 453.395 208.118C453.395 208.893 453.244 209.78 453.187 210.123C453.091 210.705 452.955 211.431 452.787 212.266C452.451 213.941 451.961 216.164 451.328 218.738C450.735 221.154 450.006 223.908 449.156 226.834C453.535 227.548 458.235 228.711 463.254 230.378C463.492 225.718 463.226 221.66 462.794 218.886L469.217 217.886L475.639 216.887C476.344 221.418 476.67 228.033 475.903 235.369C479.479 236.992 483.189 238.845 487.033 240.943L480.804 252.354C478.223 250.945 475.737 249.669 473.344 248.517C470.913 256.784 466.673 265.277 459.512 272.007L450.61 262.534C456.024 257.446 459.371 250.608 461.272 243.42C455.067 241.199 449.663 239.932 444.995 239.352C442.774 245.175 440.042 251.086 436.784 255.741C433.402 260.575 427.897 266.245 420.222 265.607C416.359 265.286 412.913 263.753 410.357 261.105C407.835 258.493 406.525 255.157 406.236 251.782C405.662 245.077 408.989 238.045 415.245 233.127C420.339 229.123 427.2 226.514 435.827 226.03C436.987 222.277 437.955 218.686 438.704 215.637C438.91 214.8 439.095 214.006 439.266 213.267C439.016 213.265 438.759 213.261 438.495 213.261C436.298 213.261 433.878 213.326 431.531 213.394C429.244 213.46 426.948 213.532 425.196 213.532V200.532C426.709 200.532 428.761 200.469 431.155 200.399C433.488 200.332 436.085 200.261 438.495 200.261ZM430.707 239.908C427.43 240.734 424.985 242.007 423.281 243.347C419.873 246.026 419.049 249.034 419.189 250.673C419.257 251.469 419.522 251.882 419.709 252.076C419.863 252.235 420.262 252.566 421.298 252.652C421.464 252.666 423.145 252.557 426.133 248.287C427.723 246.014 429.259 243.14 430.707 239.908ZM468.62 138.664C470.352 145.591 470.538 152.493 469.515 158.795C474.114 161.426 478.964 164.858 484.022 169.148L479.817 174.105L475.612 179.062C471.891 175.905 468.501 173.42 465.433 171.477C464.983 172.353 464.506 173.2 464.001 174.013C461.19 178.537 457.313 182.4 452.489 184.42C447.463 186.523 441.867 186.41 436.573 183.623C430.851 180.611 427.789 175.108 427.834 169.37C427.879 163.716 430.919 158.3 436.236 155.086C441.71 151.777 448.778 151.05 457.061 153.396C457.303 149.759 457.012 145.835 456.008 141.817L462.314 140.24L468.62 138.664ZM453.658 165.938C448.038 164.373 444.543 165.255 442.961 166.211C441.365 167.176 440.842 168.497 440.834 169.472C440.827 170.363 441.224 171.38 442.627 172.119C444.459 173.083 445.992 173.046 447.469 172.428C449.147 171.725 451.147 170.069 452.959 167.152C453.201 166.764 453.433 166.358 453.658 165.938ZM443.747 111.663C442.979 114.148 442.261 116.849 441.481 119.827C443.122 119.431 444.735 118.963 446.286 118.408L448.475 124.529L450.664 130.649C446.444 132.159 441.968 133.154 437.608 133.788C437.037 135.626 436.425 137.494 435.754 139.372C432.005 149.874 426.417 161.045 416.708 170.349L407.714 160.962C415.433 153.565 420.139 144.446 423.511 135.001C423.54 134.92 423.567 134.839 423.596 134.758C419.738 134.753 416.498 134.531 414.332 134.268L415.116 127.814L415.899 121.362C418.401 121.666 422.642 121.888 427.549 121.677C427.615 121.428 427.684 121.18 427.749 120.933C428.945 116.426 430.091 111.824 431.327 107.823L443.747 111.663ZM463.883 118.271C468.422 119.543 479.422 122.876 485.637 125.748L482.91 131.648L480.183 137.548C475.023 135.163 464.949 132.07 460.374 130.787L462.129 124.529L463.883 118.271Z" fill="#1F36AF"/>
<path d="M208.268 196.136V223.573C208.268 227.994 211.17 231.89 215.406 233.155L333.461 268.418C337.05 269.491 340.938 268.466 343.534 265.765L378.212 229.671C380.001 227.809 381.001 225.326 381.001 222.743V191.881C368.105 205.041 359.696 214.472 348.667 225.727C348.126 226.527 347.265 227.46 346.082 228.363C342.71 231.874 335.215 235.544 324.841 232.471L208.268 196.136Z" fill="#FF7A00"/>
<path d="M208.268 196.136V223.573C208.268 227.994 211.17 231.89 215.406 233.155L333.461 268.418C337.05 269.491 340.938 268.466 343.534 265.765L378.212 229.671C380.001 227.809 381.001 225.326 381.001 222.743V191.881M208.268 196.136V169.67C208.268 166.512 209.758 163.541 212.289 161.653L254.54 130.144C257.02 128.295 260.215 127.697 263.195 128.525L373.677 159.215C378.005 160.417 381.001 164.358 381.001 168.85V191.881M208.268 196.136L324.841 232.471C335.215 235.544 342.71 231.874 346.082 228.363M381.001 191.881C368.105 205.041 359.696 214.472 348.667 225.727M348.667 225.727C348.126 226.527 347.265 227.46 346.082 228.363M348.667 225.727C347.822 226.589 346.961 227.467 346.082 228.363" stroke="#1F36AF" stroke-width="10"/>
<mask id="path-6-inside-1_6591_933" fill="white">
<path d="M313.782 205.496C314.722 205.496 315.483 206.258 315.483 207.197C315.483 208.137 314.722 208.899 313.782 208.899C312.842 208.899 312.08 208.137 312.08 207.197C312.08 206.257 312.842 205.496 313.782 205.496ZM337.607 196.986C338.547 196.986 339.31 197.749 339.31 198.688C339.31 199.628 338.547 200.391 337.607 200.391C336.668 200.391 335.905 199.628 335.905 198.688C335.905 197.749 336.668 196.986 337.607 196.986ZM274.639 195.285C275.578 195.285 276.34 196.047 276.34 196.986C276.34 197.926 275.578 198.688 274.639 198.688C273.699 198.688 272.937 197.926 272.937 196.986C272.937 196.047 273.699 195.285 274.639 195.285ZM232.095 183.373C233.034 183.373 233.796 184.135 233.796 185.075C233.796 186.015 233.034 186.777 232.095 186.777C231.155 186.777 230.393 186.015 230.393 185.075C230.393 184.135 231.155 183.373 232.095 183.373ZM296.764 183.373C297.704 183.373 298.466 184.135 298.466 185.075C298.466 186.015 297.704 186.777 296.764 186.777C295.824 186.777 295.062 186.015 295.062 185.075C295.062 184.135 295.824 183.373 296.764 183.373ZM327.396 176.566C328.336 176.566 329.098 177.328 329.099 178.268C329.099 179.207 328.336 179.97 327.396 179.97C326.457 179.97 325.694 179.207 325.694 178.268C325.695 177.328 326.457 176.566 327.396 176.566ZM257.62 173.162C258.56 173.162 259.322 173.924 259.322 174.864C259.322 175.804 258.56 176.566 257.62 176.566C256.68 176.566 255.919 175.804 255.919 174.864C255.919 173.924 256.68 173.162 257.62 173.162ZM359.729 171.461C360.669 171.461 361.431 172.222 361.432 173.162C361.432 174.102 360.669 174.864 359.729 174.864C358.79 174.864 358.027 174.102 358.027 173.162C358.028 172.222 358.79 171.461 359.729 171.461ZM221.884 164.653C222.824 164.653 223.585 165.416 223.585 166.355C223.585 167.295 222.823 168.056 221.884 168.057C220.944 168.057 220.182 167.295 220.182 166.355C220.182 165.416 220.944 164.653 221.884 164.653ZM284.85 164.653C285.789 164.653 286.551 165.416 286.551 166.355C286.551 167.295 285.789 168.057 284.85 168.057C283.91 168.057 283.148 167.295 283.147 166.355C283.147 165.416 283.91 164.653 284.85 164.653ZM242.306 159.548C243.245 159.548 244.007 160.31 244.007 161.25C244.007 162.19 243.245 162.951 242.306 162.951C241.366 162.951 240.604 162.19 240.604 161.25C240.604 160.31 241.366 159.548 242.306 159.548ZM315.482 157.846C316.422 157.846 317.184 158.608 317.184 159.548C317.184 160.488 316.422 161.25 315.482 161.25C314.543 161.25 313.78 160.488 313.78 159.548C313.78 158.608 314.543 157.846 315.482 157.846ZM261.024 144.231C261.964 144.232 262.726 144.994 262.726 145.934C262.725 146.873 261.964 147.635 261.024 147.635C260.085 147.635 259.322 146.873 259.322 145.934C259.322 144.994 260.085 144.231 261.024 144.231Z"/>
</mask>
<path d="M313.782 205.496C314.722 205.496 315.483 206.258 315.483 207.197C315.483 208.137 314.722 208.899 313.782 208.899C312.842 208.899 312.08 208.137 312.08 207.197C312.08 206.257 312.842 205.496 313.782 205.496ZM337.607 196.986C338.547 196.986 339.31 197.749 339.31 198.688C339.31 199.628 338.547 200.391 337.607 200.391C336.668 200.391 335.905 199.628 335.905 198.688C335.905 197.749 336.668 196.986 337.607 196.986ZM274.639 195.285C275.578 195.285 276.34 196.047 276.34 196.986C276.34 197.926 275.578 198.688 274.639 198.688C273.699 198.688 272.937 197.926 272.937 196.986C272.937 196.047 273.699 195.285 274.639 195.285ZM232.095 183.373C233.034 183.373 233.796 184.135 233.796 185.075C233.796 186.015 233.034 186.777 232.095 186.777C231.155 186.777 230.393 186.015 230.393 185.075C230.393 184.135 231.155 183.373 232.095 183.373ZM296.764 183.373C297.704 183.373 298.466 184.135 298.466 185.075C298.466 186.015 297.704 186.777 296.764 186.777C295.824 186.777 295.062 186.015 295.062 185.075C295.062 184.135 295.824 183.373 296.764 183.373ZM327.396 176.566C328.336 176.566 329.098 177.328 329.099 178.268C329.099 179.207 328.336 179.97 327.396 179.97C326.457 179.97 325.694 179.207 325.694 178.268C325.695 177.328 326.457 176.566 327.396 176.566ZM257.62 173.162C258.56 173.162 259.322 173.924 259.322 174.864C259.322 175.804 258.56 176.566 257.62 176.566C256.68 176.566 255.919 175.804 255.919 174.864C255.919 173.924 256.68 173.162 257.62 173.162ZM359.729 171.461C360.669 171.461 361.431 172.222 361.432 173.162C361.432 174.102 360.669 174.864 359.729 174.864C358.79 174.864 358.027 174.102 358.027 173.162C358.028 172.222 358.79 171.461 359.729 171.461ZM221.884 164.653C222.824 164.653 223.585 165.416 223.585 166.355C223.585 167.295 222.823 168.056 221.884 168.057C220.944 168.057 220.182 167.295 220.182 166.355C220.182 165.416 220.944 164.653 221.884 164.653ZM284.85 164.653C285.789 164.653 286.551 165.416 286.551 166.355C286.551 167.295 285.789 168.057 284.85 168.057C283.91 168.057 283.148 167.295 283.147 166.355C283.147 165.416 283.91 164.653 284.85 164.653ZM242.306 159.548C243.245 159.548 244.007 160.31 244.007 161.25C244.007 162.19 243.245 162.951 242.306 162.951C241.366 162.951 240.604 162.19 240.604 161.25C240.604 160.31 241.366 159.548 242.306 159.548ZM315.482 157.846C316.422 157.846 317.184 158.608 317.184 159.548C317.184 160.488 316.422 161.25 315.482 161.25C314.543 161.25 313.78 160.488 313.78 159.548C313.78 158.608 314.543 157.846 315.482 157.846ZM261.024 144.231C261.964 144.232 262.726 144.994 262.726 145.934C262.725 146.873 261.964 147.635 261.024 147.635C260.085 147.635 259.322 146.873 259.322 145.934C259.322 144.994 260.085 144.231 261.024 144.231Z" fill="black"/>
<path d="M313.782 205.496L313.785 195.496H313.782V205.496ZM315.483 207.197L325.483 207.197L325.483 207.196L315.483 207.197ZM313.782 208.899L313.782 218.899L313.785 218.899L313.782 208.899ZM312.08 207.197L302.08 207.196V207.197H312.08ZM337.607 196.986L337.608 186.986H337.607V196.986ZM339.31 198.688L349.31 198.689V198.688H339.31ZM337.607 200.391L337.607 210.391L337.608 210.391L337.607 200.391ZM335.905 198.688L325.905 198.688L325.905 198.689L335.905 198.688ZM274.639 195.285L274.64 185.285H274.639V195.285ZM276.34 196.986L286.34 196.986L286.34 196.985L276.34 196.986ZM274.639 198.688L274.639 208.688L274.64 208.688L274.639 198.688ZM272.937 196.986L262.937 196.985V196.986H272.937ZM232.095 183.373L232.097 173.373H232.095V183.373ZM233.796 185.075L243.796 185.075V185.075H233.796ZM232.095 186.777L232.095 196.777L232.097 196.777L232.095 186.777ZM230.393 185.075L220.393 185.075L220.393 185.075L230.393 185.075ZM296.764 183.373L296.764 173.373H296.764V183.373ZM298.466 185.075L308.466 185.075V185.075H298.466ZM296.764 186.777L296.764 196.777L296.764 196.777L296.764 186.777ZM295.062 185.075L285.062 185.075L285.062 185.075L295.062 185.075ZM327.396 176.566L327.397 166.566H327.396V176.566ZM329.099 178.268L339.099 178.268L339.099 178.266L329.099 178.268ZM327.396 179.97L327.396 189.97L327.397 189.97L327.396 179.97ZM325.694 178.268L315.694 178.266V178.268H325.694ZM257.62 173.162L257.62 163.162L257.619 163.162L257.62 173.162ZM259.322 174.864L269.322 174.864L269.322 174.864L259.322 174.864ZM257.62 176.566L257.619 186.566H257.62V176.566ZM255.919 174.864L245.919 174.864V174.864H255.919ZM359.729 171.461L359.729 161.461L359.729 161.461L359.729 171.461ZM361.432 173.162L371.432 173.162L371.432 173.16L361.432 173.162ZM359.729 174.864L359.729 184.864H359.729V174.864ZM358.027 173.162L348.027 173.16V173.162H358.027ZM221.884 164.653L221.886 154.653H221.884V164.653ZM223.585 166.355L233.585 166.357V166.355H223.585ZM221.884 168.057L221.884 178.057L221.886 178.057L221.884 168.057ZM220.182 166.355L210.182 166.355L210.182 166.357L220.182 166.355ZM284.85 164.653L284.851 154.653H284.85V164.653ZM286.551 166.355L296.551 166.357V166.355H286.551ZM284.85 168.057L284.85 178.057L284.851 178.057L284.85 168.057ZM283.147 166.355L273.147 166.355L273.147 166.357L283.147 166.355ZM242.306 159.548L242.308 149.548H242.306V159.548ZM244.007 161.25L254.007 161.252V161.25H244.007ZM242.306 162.951L242.306 172.951L242.308 172.951L242.306 162.951ZM240.604 161.25L230.604 161.25L230.604 161.252L240.604 161.25ZM315.482 157.846L315.484 147.846H315.482V157.846ZM317.184 159.548L327.184 159.548L327.184 159.548L317.184 159.548ZM315.482 161.25L315.482 171.25L315.484 171.25L315.482 161.25ZM313.78 159.548L303.78 159.548V159.548H313.78ZM261.024 144.231L261.027 134.231H261.024V144.231ZM262.726 145.934L272.726 145.935V145.934H262.726ZM261.024 147.635L261.024 157.635L261.027 157.635L261.024 147.635ZM259.322 145.934L249.322 145.934L249.322 145.935L259.322 145.934ZM313.782 205.496L313.78 215.496C309.2 215.495 305.484 211.782 305.483 207.198L315.483 207.197L325.483 207.196C325.483 200.733 320.244 195.498 313.785 195.496L313.782 205.496ZM315.483 207.197H305.483C305.483 202.619 309.193 198.901 313.78 198.899L313.782 208.899L313.785 218.899C320.25 218.898 325.483 213.655 325.483 207.197H315.483ZM313.782 208.899V198.899C318.365 198.899 322.08 202.614 322.08 207.197H312.08H302.08C302.08 213.66 307.319 218.899 313.782 218.899V208.899ZM312.08 207.197L322.08 207.198C322.08 211.787 318.359 215.496 313.782 215.496V205.496V195.496C307.326 195.496 302.081 200.728 302.08 207.196L312.08 207.197ZM337.607 196.986L337.607 206.986C333.025 206.986 329.31 203.272 329.31 198.688H339.31H349.31C349.31 192.225 344.07 186.987 337.608 186.986L337.607 196.986ZM339.31 198.688L329.31 198.688C329.31 194.105 333.024 190.391 337.607 190.391L337.607 200.391L337.608 210.391C344.07 210.39 349.309 205.151 349.31 198.689L339.31 198.688ZM337.607 200.391V190.391C342.191 190.391 345.905 194.106 345.905 198.688L335.905 198.688L325.905 198.689C325.906 205.151 331.144 210.391 337.607 210.391V200.391ZM335.905 198.688H345.905C345.905 203.271 342.19 206.986 337.607 206.986V196.986V186.986C331.145 186.986 325.905 192.226 325.905 198.688H335.905ZM274.639 195.285L274.638 205.285C270.055 205.285 266.34 201.569 266.34 196.987L276.34 196.986L286.34 196.985C286.339 190.524 281.102 185.286 274.64 185.285L274.639 195.285ZM276.34 196.986H266.34C266.34 192.41 270.049 188.689 274.638 188.688L274.639 198.688L274.64 208.688C281.108 208.688 286.34 203.442 286.34 196.986H276.34ZM274.639 198.688V188.688C279.222 188.688 282.937 192.403 282.937 196.986H272.937H262.937C262.937 203.449 268.176 208.688 274.639 208.688V198.688ZM272.937 196.986L282.937 196.987C282.936 201.576 279.215 205.285 274.639 205.285V195.285V185.285C268.182 185.285 262.937 190.517 262.937 196.985L272.937 196.986ZM232.095 183.373L232.093 193.373C227.506 193.372 223.796 189.653 223.796 185.075H233.796H243.796C243.796 178.618 238.563 173.374 232.097 173.373L232.095 183.373ZM233.796 185.075L223.796 185.075C223.796 180.498 227.506 176.778 232.093 176.777L232.095 186.777L232.097 196.777C238.563 196.776 243.796 191.532 243.796 185.075L233.796 185.075ZM232.095 186.777V176.777C236.678 176.777 240.393 180.492 240.393 185.075L230.393 185.075L220.393 185.075C220.393 191.538 225.632 196.777 232.095 196.777V186.777ZM230.393 185.075H240.393C240.393 189.658 236.678 193.373 232.095 193.373V183.373V173.373C225.632 173.373 220.393 178.612 220.393 185.075H230.393ZM296.764 183.373L296.763 193.373C292.181 193.373 288.466 189.659 288.466 185.075H298.466H308.466C308.466 178.612 303.226 173.373 296.764 173.373L296.764 183.373ZM298.466 185.075L288.466 185.075C288.466 180.492 292.181 176.778 296.763 176.777L296.764 186.777L296.764 196.777C303.226 196.777 308.466 191.538 308.466 185.075L298.466 185.075ZM296.764 186.777V176.777C301.347 176.777 305.062 180.492 305.062 185.075L295.062 185.075L285.062 185.075C285.062 191.538 290.301 196.777 296.764 196.777V186.777ZM295.062 185.075H305.062C305.062 189.658 301.347 193.373 296.764 193.373V183.373V173.373C290.301 173.373 285.062 178.612 285.062 185.075H295.062ZM327.396 176.566L327.396 186.566C322.819 186.566 319.099 182.857 319.099 178.269L329.099 178.268L339.099 178.266C339.097 171.798 333.853 166.567 327.397 166.566L327.396 176.566ZM329.099 178.268H319.099C319.099 173.684 322.814 169.97 327.396 169.97L327.396 179.97L327.397 189.97C333.859 189.969 339.099 184.731 339.099 178.268H329.099ZM327.396 179.97V169.97C331.979 169.97 335.694 173.685 335.694 178.268H325.694H315.694C315.694 184.73 320.934 189.97 327.396 189.97V179.97ZM325.694 178.268L335.694 178.269C335.693 182.857 331.974 186.566 327.396 186.566V176.566V166.566C320.939 166.566 315.696 171.799 315.694 178.266L325.694 178.268ZM257.62 173.162V183.162C253.037 183.162 249.322 179.447 249.322 174.864L259.322 174.864L269.322 174.864C269.322 168.402 264.083 163.162 257.62 163.162V173.162ZM259.322 174.864H249.322C249.322 170.281 253.037 166.566 257.62 166.566V176.566V186.566C264.083 186.566 269.322 181.327 269.322 174.864H259.322ZM257.62 176.566L257.621 166.566C262.21 166.567 265.919 170.288 265.919 174.864H255.919H245.919C245.919 181.321 251.151 186.566 257.619 186.566L257.62 176.566ZM255.919 174.864L265.919 174.864C265.919 179.441 262.21 183.162 257.621 183.162L257.62 173.162L257.619 163.162C251.151 163.163 245.919 168.408 245.919 174.864L255.919 174.864ZM359.729 171.461V181.461C355.152 181.461 351.433 177.751 351.432 173.164L361.432 173.162L371.432 173.16C371.43 166.694 366.187 161.461 359.729 161.461V171.461ZM361.432 173.162H351.432C351.432 168.579 355.147 164.864 359.729 164.864V174.864V184.864C366.192 184.864 371.432 179.625 371.432 173.162H361.432ZM359.729 174.864L359.73 164.864C364.312 164.864 368.027 168.579 368.027 173.162H358.027H348.027C348.027 179.625 353.267 184.864 359.729 184.864L359.729 174.864ZM358.027 173.162L368.027 173.164C368.026 177.752 364.307 181.461 359.73 181.461L359.729 171.461L359.729 161.461C353.273 161.461 348.029 166.693 348.027 173.16L358.027 173.162ZM221.884 164.653L221.882 174.653C217.295 174.652 213.585 170.933 213.585 166.355H223.585H233.585C233.585 159.899 228.352 154.654 221.886 154.653L221.884 164.653ZM223.585 166.355L213.585 166.354C213.586 161.772 217.3 158.057 221.882 158.057L221.884 168.057L221.886 178.057C228.347 178.055 233.584 172.818 233.585 166.357L223.585 166.355ZM221.884 168.057V158.057C226.461 158.057 230.181 161.766 230.182 166.354L220.182 166.355L210.182 166.357C210.183 172.824 215.427 178.057 221.884 178.057V168.057ZM220.182 166.355H230.182C230.182 170.938 226.467 174.653 221.884 174.653V164.653V154.653C215.421 154.653 210.182 159.893 210.182 166.355H220.182ZM284.85 164.653L284.849 174.653C280.26 174.653 276.551 170.932 276.551 166.355H286.551H296.551C296.551 159.899 291.319 154.654 284.851 154.653L284.85 164.653ZM286.551 166.355L276.551 166.354C276.552 161.773 280.265 158.057 284.849 158.057L284.85 168.057L284.851 178.057C291.313 178.056 296.55 172.818 296.551 166.357L286.551 166.355ZM284.85 168.057V158.057C289.427 158.057 293.147 161.766 293.147 166.354L283.147 166.355L273.147 166.357C273.149 172.824 278.393 178.057 284.85 178.057V168.057ZM283.147 166.355H293.147C293.147 170.938 289.433 174.653 284.85 174.653V164.653V154.653C278.387 154.653 273.147 159.893 273.147 166.355H283.147ZM242.306 159.548L242.304 169.548C237.717 169.547 234.007 165.828 234.007 161.25H244.007H254.007C254.007 154.793 248.774 149.549 242.308 149.548L242.306 159.548ZM244.007 161.25L234.007 161.248C234.008 156.666 237.722 152.952 242.304 152.951L242.306 162.951L242.308 172.951C248.768 172.95 254.006 167.713 254.007 161.252L244.007 161.25ZM242.306 162.951V152.951C246.883 152.951 250.603 156.661 250.604 161.248L240.604 161.25L230.604 161.252C230.605 167.719 235.849 172.951 242.306 172.951V162.951ZM240.604 161.25H250.604C250.604 165.833 246.889 169.548 242.306 169.548V159.548V149.548C235.843 149.548 230.604 154.787 230.604 161.25H240.604ZM315.482 157.846L315.481 167.846C310.893 167.845 307.184 164.124 307.184 159.548L317.184 159.548L327.184 159.548C327.184 153.092 321.952 147.846 315.484 147.846L315.482 157.846ZM317.184 159.548H307.184C307.184 154.971 310.893 151.251 315.481 151.25L315.482 161.25L315.484 171.25C321.952 171.249 327.184 166.004 327.184 159.548H317.184ZM315.482 161.25V151.25C320.065 151.25 323.78 154.965 323.78 159.548H313.78H303.78C303.78 166.011 309.02 171.25 315.482 171.25V161.25ZM313.78 159.548L323.78 159.548C323.78 164.131 320.066 167.846 315.482 167.846V157.846V147.846C309.02 147.846 303.78 153.085 303.78 159.548L313.78 159.548ZM261.024 144.231L261.022 154.231C256.436 154.23 252.726 150.512 252.726 145.934H262.726H272.726C272.726 139.476 267.492 134.233 261.027 134.231L261.024 144.231ZM262.726 145.934L252.726 145.932C252.726 141.349 256.442 137.636 261.022 137.635L261.024 147.635L261.027 157.635C267.486 157.633 272.725 152.397 272.726 145.935L262.726 145.934ZM261.024 147.635V137.635C265.602 137.635 269.321 141.344 269.322 145.932L259.322 145.934L249.322 145.935C249.323 152.402 254.568 157.635 261.024 157.635V147.635ZM259.322 145.934H269.322C269.322 150.517 265.607 154.231 261.024 154.231V144.231V134.231C254.562 134.231 249.322 139.471 249.322 145.934H259.322Z" fill="white" mask="url(#path-6-inside-1_6591_933)"/>
<path d="M229.507 202.092C226.664 212.87 229.542 236.128 242.304 241.233" stroke="#1F36AF" stroke-width="10"/>
<path d="M260.305 212.303C257.463 223.081 260.492 245.488 273.254 250.593" stroke="#1F36AF" stroke-width="10"/>
<path d="M292.242 222.514C289.399 233.292 296.759 254.848 305.269 259.953" stroke="#1F36AF" stroke-width="10"/>
<path d="M332.808 234.553C331.428 239.786 332.795 247.546 335.614 254.687C337.018 258.243 338.773 261.619 340.697 264.415C340.793 264.555 340.89 264.693 340.987 264.829L340.269 265.547C340.136 265.361 340.004 265.173 339.873 264.982C337.899 262.115 336.111 258.67 334.683 255.054C331.838 247.847 330.379 239.841 331.841 234.297L332.808 234.553Z" fill="black"/>
<path d="M332.808 234.553L337.643 235.828L338.917 230.997L334.087 229.719L332.808 234.553ZM335.614 254.687L330.963 256.523L330.963 256.523L335.614 254.687ZM340.697 264.415L336.578 267.249L336.578 267.25L340.697 264.415ZM340.987 264.829L344.523 268.365L347.507 265.38L345.066 261.937L340.987 264.829ZM340.269 265.547L336.204 268.458L339.636 273.251L343.805 269.082L340.269 265.547ZM339.873 264.982L335.754 267.817L335.754 267.817L339.873 264.982ZM334.683 255.054L330.033 256.89L330.033 256.89L334.683 255.054ZM331.841 234.297L333.121 229.463L328.283 228.183L327.007 233.022L331.841 234.297ZM332.808 234.553L327.974 233.278C326.184 240.065 328.014 249.053 330.963 256.523L335.614 254.687L340.265 252.85C337.575 246.039 336.672 239.508 337.643 235.828L332.808 234.553ZM335.614 254.687L330.963 256.523C332.485 260.377 334.408 264.097 336.578 267.249L340.697 264.415L344.816 261.581C343.137 259.141 341.552 256.11 340.265 252.85L335.614 254.687ZM340.697 264.415L336.578 267.25C336.694 267.418 336.807 267.578 336.908 267.721L340.987 264.829L345.066 261.937C344.974 261.807 344.892 261.691 344.816 261.581L340.697 264.415ZM340.987 264.829L337.451 261.294L336.734 262.011L340.269 265.547L343.805 269.082L344.523 268.365L340.987 264.829ZM340.269 265.547L344.334 262.636C344.218 262.473 344.104 262.31 343.992 262.148L339.873 264.982L335.754 267.817C335.904 268.035 336.055 268.249 336.204 268.458L340.269 265.547ZM339.873 264.982L343.992 262.148C342.264 259.637 340.644 256.537 339.334 253.218L334.683 255.054L330.033 256.89C331.578 260.803 333.535 264.593 335.754 267.817L339.873 264.982ZM334.683 255.054L339.334 253.218C336.619 246.34 335.623 239.563 336.676 235.572L331.841 234.297L327.007 233.022C325.135 240.119 327.057 249.354 330.033 256.89L334.683 255.054ZM331.841 234.297L330.562 239.13L331.529 239.386L332.808 234.553L334.087 229.719L333.121 229.463L331.841 234.297Z" fill="#1F36AF"/>
<path d="M344.414 169.758V135.722M344.414 135.722V118.704C351.221 120.973 368.239 124.15 381.854 118.704V135.722C375.614 138.275 359.39 141.849 344.414 135.722Z" stroke="#1F36AF" stroke-width="7"/>
</svg>
