<svg width="655" height="446" viewBox="0 0 655 446" fill="none" xmlns="http://www.w3.org/2000/svg">
<rect width="655" height="446" fill="#F88C00"/>
<rect width="655" height="446" stroke="#1F36AF"/>
<path d="M171.662 150.103C181.65 148.812 194.011 148.814 207.978 150.261C235.916 153.155 270.423 161.849 305.476 177.739C348.028 197.029 391.446 226.961 424.891 270.058C425.681 270.442 426.488 270.835 427.314 271.234C445.676 271.387 462.817 272.404 478.26 274.751C506.221 279.001 528.872 287.636 543.083 303.599L542.498 304.119C542.952 304.557 543.399 304.999 543.839 305.448L542.767 306.497L541.696 307.547C527.349 292.892 505.129 284.636 477.251 280.475C465.536 278.726 452.862 277.706 439.412 277.23C443.358 279.28 447.437 281.532 451.486 284.048C454.591 285.441 457.676 286.965 460.663 288.667C475.032 296.852 487.269 309.161 489.053 330.165C489.095 330.318 489.137 330.471 489.178 330.625L489.092 330.648C489.123 331.048 489.152 331.452 489.175 331.859L487.677 331.943L486.18 332.028C486.154 331.576 486.12 331.127 486.084 330.683C481.133 312.771 469.587 300.352 456.675 291.105C454.503 289.549 452.296 288.088 450.081 286.706C445.709 284.753 441.266 283.053 436.951 281.488C435.312 280.894 433.687 280.318 432.089 279.753C441.147 292.534 449.337 306.39 456.413 321.379C463.482 335.943 469.541 351.608 474.369 368.435C476.36 366.09 478.973 363.34 482.006 360.31C488.415 351.985 497.027 343.016 505.604 334.816C518.344 322.635 531.196 311.97 537.15 307.315C537.529 306.869 537.89 306.437 538.228 306.019L539.396 306.961L540.563 307.902C540.158 308.404 539.724 308.924 539.263 309.461L539.268 309.467C539.259 309.474 539.249 309.481 539.24 309.488C532.563 317.269 520.209 328.688 508.02 339.921C499.367 347.895 490.799 355.778 484.262 362.296C481.203 366.282 478.692 370.079 476.985 373.525L475.641 372.859L474.836 372.459L474.003 372.688L472.556 373.082C472.422 372.59 472.284 372.1 472.148 371.61L471.467 371.788C466.88 354.208 460.872 337.861 453.71 322.686C445.762 306.313 436.52 291.347 426.31 277.696C425.588 277.435 424.877 277.173 424.177 276.913C410.071 276.811 395.247 277.189 379.891 277.86C360.749 278.697 340.779 279.989 320.368 281.359C313.779 285.375 306.092 288.264 297.448 289.568L297 286.602C302.865 285.717 308.249 284.079 313.114 281.847C311.767 281.938 310.418 282.027 309.068 282.118C304.705 284.161 300.027 285.795 295.079 286.913L294.747 285.45L294.416 283.986C295.944 283.641 297.444 283.244 298.916 282.8C270.932 284.668 242.382 286.442 214.219 287.191C212.767 288.065 211.276 288.919 209.746 289.747L208.437 287.328C189.691 287.731 171.146 287.652 153.086 286.81C153.036 286.88 152.986 286.951 152.936 287.021L152.614 286.787C151.538 286.736 150.463 286.683 149.391 286.626L149.273 288.045C145.982 287.768 142.823 285.972 139.948 283.213C137.063 280.445 134.357 276.612 131.955 272.025C127.147 262.849 123.442 250.453 121.964 236.925C121.859 235.958 121.767 234.984 121.684 234.005C120.743 224.56 121 214.502 123.029 204.544C126.275 187.086 134.282 170.207 149.314 157.874C153.948 153.968 161.741 151.384 171.662 150.103ZM475.032 370.78C475.085 370.682 475.138 370.584 475.192 370.485L474.878 370.229C474.93 370.412 474.98 370.596 475.032 370.78ZM150.697 281.902C150.253 282.389 149.803 282.878 149.346 283.364L148.253 282.337L148.177 282.266L148.276 283.463L148.315 283.942L148.335 283.568C149.081 283.609 149.828 283.646 150.576 283.684L150.667 282.337L150.697 281.902ZM206.813 155.044C193.169 153.681 181.247 153.702 171.784 154.878C163.845 155.865 157.799 157.647 153.898 159.98L153.969 160.072C153.868 160.149 153.768 160.227 153.667 160.304C159.453 166.422 165.916 175.949 170.523 187.729C173.478 194.003 175.715 200.986 176.873 208.615C179.941 228.823 175.419 253.404 156.954 281.222C175.655 282.272 194.998 282.397 214.63 281.95C221.281 278.059 227.079 273.833 232.08 269.341C263.688 236.854 261.041 189.966 241.005 166.061L242.155 165.097L242.2 165.058C241.881 164.582 241.559 164.109 241.232 163.638L242.463 162.781L243.696 161.925C257.295 181.49 263.847 205.187 259.529 227.918C256.563 243.53 248.488 258.583 234.21 271.456C230.683 275.078 226.746 278.524 222.378 281.747C252.48 280.845 283.149 278.713 313.129 276.601C323.806 270.351 332.062 261.478 337.014 252.002C344.585 237.515 344.304 222 333.809 212.095L334.838 211.004L335.412 210.395C335.072 209.949 334.722 209.507 334.361 209.071L336.671 207.157C353.698 227.721 348.639 257.741 328.311 275.534C346.087 274.296 363.541 273.139 380.404 272.334C394.198 271.675 407.597 271.254 420.445 271.216C419.934 270.961 419.431 270.708 418.939 270.456L419.621 269.12L419.626 269.109C386.318 228.015 344.117 199.704 302.918 181.437C268.131 166.013 234.098 157.769 206.813 155.044ZM148.881 164.304C135.966 176.013 128.971 190.422 125.969 205.129C124.2 214.659 123.888 224.407 124.668 233.704C124.785 234.877 124.921 236.041 125.075 237.194C126.793 250.074 130.737 261.586 135.286 269.749C137.562 273.835 139.958 277.025 142.251 279.128C144.444 281.139 146.356 281.991 147.872 281.98L147.161 281.31C171.301 255.616 176.113 229.372 172.788 207.556C171.77 200.883 169.99 194.62 167.762 188.908C162.903 178.629 156.036 170.331 148.881 164.304ZM160.705 269.323C158.06 273.182 155.04 277.046 151.607 280.895C152.23 280.936 152.855 280.977 153.48 281.016C156.175 277.045 158.576 273.146 160.705 269.323ZM342.607 246.712C341.8 248.963 340.82 251.198 339.673 253.392C335.222 261.909 328.26 269.929 319.365 276.161C320.627 276.072 321.888 275.984 323.147 275.896C333.247 268.343 339.944 257.824 342.607 246.712ZM151.169 162.311C151.64 162.712 152.109 163.124 152.577 163.544C152.155 163.072 151.733 162.621 151.319 162.187C151.269 162.228 151.219 162.269 151.169 162.311Z" fill="#1F36AF"/>
<path d="M18.2399 92.1777V56.4177H30.8639C33.2319 56.4177 35.3119 56.8657 37.1039 57.7617C38.8959 58.6577 40.2879 59.9377 41.2799 61.6017C42.3039 63.2657 42.8159 65.2177 42.8159 67.4577C42.8159 69.9857 42.1759 72.1297 40.8959 73.8897C39.6159 75.6497 37.8879 76.9137 35.7119 77.6817L44.0159 92.1777H38.5439L29.8079 76.6737L32.9279 78.4977H22.9439V92.1777H18.2399ZM22.9439 74.1777H31.0079C32.4159 74.1777 33.6479 73.9057 34.7039 73.3617C35.7599 72.8177 36.5759 72.0337 37.1519 71.0097C37.7599 69.9857 38.0639 68.8017 38.0639 67.4577C38.0639 66.0817 37.7599 64.8977 37.1519 63.9057C36.5759 62.8817 35.7599 62.0977 34.7039 61.5537C33.6479 61.0097 32.4159 60.7377 31.0079 60.7377H22.9439V74.1777ZM46.9649 92.1777V56.4177H70.2449V60.7377H51.6689V72.0657H69.2849V76.3857H51.6689V87.8577H70.2449V92.1777H46.9649ZM85.9622 92.7537C83.6902 92.7537 81.6102 92.3377 79.7222 91.5057C77.8342 90.6417 76.2342 89.4737 74.9222 88.0017C73.6102 86.5297 72.6662 84.8817 72.0902 83.0577L76.1702 81.3777C77.0342 83.6817 78.3142 85.4577 80.0102 86.7057C81.7382 87.9217 83.7542 88.5297 86.0582 88.5297C87.4662 88.5297 88.6982 88.3057 89.7542 87.8577C90.8102 87.4097 91.6262 86.7857 92.2022 85.9857C92.8102 85.1537 93.1142 84.1937 93.1142 83.1057C93.1142 81.6017 92.6822 80.4177 91.8182 79.5537C90.9862 78.6577 89.7542 77.9857 88.1222 77.5377L81.5462 75.5217C78.9542 74.7217 76.9702 73.4577 75.5942 71.7297C74.2182 70.0017 73.5302 68.0177 73.5302 65.7777C73.5302 63.8257 73.9942 62.1137 74.9222 60.6417C75.8822 59.1377 77.1942 57.9697 78.8582 57.1377C80.5542 56.2737 82.4742 55.8417 84.6182 55.8417C86.7622 55.8417 88.6982 56.2257 90.4262 56.9937C92.1862 57.7617 93.6742 58.8017 94.8902 60.1137C96.1062 61.3937 97.0022 62.8657 97.5782 64.5297L93.5462 66.2097C92.7782 64.1937 91.6262 62.6737 90.0902 61.6497C88.5542 60.5937 86.7462 60.0657 84.6662 60.0657C83.3862 60.0657 82.2502 60.2897 81.2582 60.7377C80.2982 61.1537 79.5462 61.7777 79.0022 62.6097C78.4902 63.4097 78.2342 64.3697 78.2342 65.4897C78.2342 66.8017 78.6502 67.9697 79.4822 68.9937C80.3142 70.0177 81.5782 70.8017 83.2742 71.3457L89.2742 73.1217C92.0902 73.9857 94.2182 75.2177 95.6582 76.8177C97.0982 78.4177 97.8182 80.4017 97.8182 82.7697C97.8182 84.7217 97.3062 86.4497 96.2822 87.9537C95.2902 89.4577 93.8982 90.6417 92.1062 91.5057C90.3462 92.3377 88.2982 92.7537 85.9622 92.7537ZM108.545 92.1777V60.7377H98.8495V56.4177H122.849V60.7377H113.297V92.1777H108.545ZM119.137 92.1777L131.953 56.4177H137.521L150.337 92.1777H145.297L142.369 83.7777H127.105L124.177 92.1777H119.137ZM128.593 79.4577H140.881L134.065 59.8257H135.409L128.593 79.4577ZM164.465 92.7537C161.873 92.7537 159.569 92.2097 157.553 91.1217C155.569 90.0337 154.017 88.5457 152.897 86.6577C151.809 84.7377 151.265 82.5617 151.265 80.1297V56.4177H156.017V80.0337C156.017 81.6657 156.369 83.1217 157.073 84.4017C157.809 85.6497 158.801 86.6257 160.049 87.3297C161.329 88.0337 162.801 88.3857 164.465 88.3857C166.129 88.3857 167.585 88.0337 168.833 87.3297C170.113 86.6257 171.105 85.6497 171.809 84.4017C172.545 83.1217 172.913 81.6657 172.913 80.0337V56.4177H177.665V80.1297C177.665 82.5617 177.105 84.7377 175.985 86.6577C174.897 88.5457 173.361 90.0337 171.377 91.1217C169.393 92.2097 167.089 92.7537 164.465 92.7537ZM182.996 92.1777V56.4177H195.62C197.988 56.4177 200.068 56.8657 201.86 57.7617C203.652 58.6577 205.044 59.9377 206.036 61.6017C207.06 63.2657 207.572 65.2177 207.572 67.4577C207.572 69.9857 206.932 72.1297 205.652 73.8897C204.372 75.6497 202.644 76.9137 200.468 77.6817L208.772 92.1777H203.3L194.564 76.6737L197.684 78.4977H187.7V92.1777H182.996ZM187.7 74.1777H195.764C197.172 74.1777 198.404 73.9057 199.46 73.3617C200.516 72.8177 201.332 72.0337 201.908 71.0097C202.516 69.9857 202.82 68.8017 202.82 67.4577C202.82 66.0817 202.516 64.8977 201.908 63.9057C201.332 62.8817 200.516 62.0977 199.46 61.5537C198.404 61.0097 197.172 60.7377 195.764 60.7377H187.7V74.1777ZM208.265 92.1777L221.081 56.4177H226.649L239.465 92.1777H234.425L231.497 83.7777H216.233L213.305 92.1777H208.265ZM217.721 79.4577H230.009L223.193 59.8257H224.537L217.721 79.4577ZM241.571 92.1777V56.4177H245.507L266.051 85.3137L264.275 85.5057V56.4177H269.027V92.1777H265.091L244.643 63.0897L246.275 62.8977V92.1777H241.571ZM280.849 92.1777V60.7377H271.153V56.4177H295.153V60.7377H285.601V92.1777H280.849Z" fill="#1F36AF"/>
<path d="M583.142 31.8798C582.006 31.8798 580.974 31.6638 580.046 31.2318C579.118 30.7998 578.334 30.2238 577.694 29.5038C577.054 28.7678 576.598 27.9598 576.326 27.0798L578.054 26.4318C578.47 27.6478 579.118 28.5758 579.998 29.2158C580.878 29.8398 581.926 30.1518 583.142 30.1518C583.91 30.1518 584.582 30.0318 585.158 29.7918C585.75 29.5358 586.206 29.1838 586.526 28.7358C586.846 28.2878 587.006 27.7678 587.006 27.1758C587.006 26.2958 586.766 25.6158 586.286 25.1358C585.806 24.6558 585.118 24.2878 584.222 24.0318L581.006 23.0718C579.742 22.7038 578.766 22.0878 578.078 21.2238C577.406 20.3598 577.07 19.3758 577.07 18.2718C577.07 17.3278 577.302 16.4958 577.766 15.7758C578.23 15.0398 578.862 14.4638 579.662 14.0478C580.478 13.6318 581.398 13.4238 582.422 13.4238C583.494 13.4238 584.454 13.6238 585.302 14.0238C586.166 14.4078 586.894 14.9198 587.486 15.5598C588.078 16.1998 588.502 16.9118 588.758 17.6958L587.078 18.3678C586.694 17.3118 586.094 16.5118 585.278 15.9678C584.478 15.4238 583.534 15.1518 582.446 15.1518C581.758 15.1518 581.15 15.2718 580.622 15.5118C580.11 15.7518 579.71 16.0958 579.422 16.5438C579.134 16.9918 578.99 17.5198 578.99 18.1278C578.99 18.8638 579.222 19.5278 579.686 20.1198C580.15 20.6958 580.862 21.1278 581.822 21.4158L584.654 22.2558C586.062 22.6718 587.126 23.2718 587.846 24.0558C588.566 24.8398 588.926 25.8238 588.926 27.0078C588.926 27.9678 588.678 28.8158 588.182 29.5518C587.702 30.2718 587.022 30.8398 586.142 31.2558C585.278 31.6718 584.278 31.8798 583.142 31.8798ZM598.442 31.8798C597.178 31.8798 596.066 31.6158 595.106 31.0878C594.146 30.5598 593.402 29.8398 592.874 28.9278C592.346 27.9998 592.082 26.9438 592.082 25.7598V13.7118H594.002V25.7598C594.002 26.6238 594.186 27.3838 594.554 28.0398C594.938 28.6798 595.458 29.1838 596.114 29.5518C596.786 29.9038 597.562 30.0798 598.442 30.0798C599.322 30.0798 600.09 29.9038 600.746 29.5518C601.418 29.1838 601.938 28.6798 602.306 28.0398C602.69 27.3838 602.882 26.6238 602.882 25.7598V13.7118H604.802V25.7598C604.802 26.9438 604.538 27.9998 604.01 28.9278C603.482 29.8398 602.738 30.5598 601.778 31.0878C600.834 31.6158 599.722 31.8798 598.442 31.8798ZM614.502 31.8798C613.366 31.8798 612.334 31.6638 611.406 31.2318C610.478 30.7998 609.694 30.2238 609.054 29.5038C608.414 28.7678 607.958 27.9598 607.686 27.0798L609.414 26.4318C609.83 27.6478 610.478 28.5758 611.358 29.2158C612.238 29.8398 613.286 30.1518 614.502 30.1518C615.27 30.1518 615.942 30.0318 616.518 29.7918C617.11 29.5358 617.566 29.1838 617.886 28.7358C618.206 28.2878 618.366 27.7678 618.366 27.1758C618.366 26.2958 618.126 25.6158 617.646 25.1358C617.166 24.6558 616.478 24.2878 615.582 24.0318L612.366 23.0718C611.102 22.7038 610.126 22.0878 609.438 21.2238C608.766 20.3598 608.43 19.3758 608.43 18.2718C608.43 17.3278 608.662 16.4958 609.126 15.7758C609.59 15.0398 610.222 14.4638 611.022 14.0478C611.838 13.6318 612.758 13.4238 613.782 13.4238C614.854 13.4238 615.814 13.6238 616.662 14.0238C617.526 14.4078 618.254 14.9198 618.846 15.5598C619.438 16.1998 619.862 16.9118 620.118 17.6958L618.438 18.3678C618.054 17.3118 617.454 16.5118 616.638 15.9678C615.838 15.4238 614.894 15.1518 613.806 15.1518C613.118 15.1518 612.51 15.2718 611.982 15.5118C611.47 15.7518 611.07 16.0958 610.782 16.5438C610.494 16.9918 610.35 17.5198 610.35 18.1278C610.35 18.8638 610.582 19.5278 611.046 20.1198C611.51 20.6958 612.222 21.1278 613.182 21.4158L616.014 22.2558C617.422 22.6718 618.486 23.2718 619.206 24.0558C619.926 24.8398 620.286 25.8238 620.286 27.0078C620.286 27.9678 620.038 28.8158 619.542 29.5518C619.062 30.2718 618.382 30.8398 617.502 31.2558C616.638 31.6718 615.638 31.8798 614.502 31.8798ZM623.514 31.5918V13.7118H625.434V21.7518H635.034V13.7118H636.954V31.5918H635.034V23.5518H625.434V31.5918H623.514ZM640.706 31.5918V13.7118H642.626V31.5918H640.706Z" fill="#1F36AF"/>
<path d="M542.526 53.5918V37.5118H537.582V35.7118H549.342V37.5118H544.446V53.5918H542.526ZM551.231 53.5918V35.7118H562.751V37.5118H553.151V43.7278H562.271V45.5278H553.151V51.7918H562.751V53.5918H551.231ZM565.446 53.5918V35.7118H567.126L573.846 45.4558H572.91L579.606 35.7118H581.286V53.5918H579.366V38.3038L579.99 38.5438L573.414 48.0718H573.318L566.766 38.5438L567.366 38.3038V53.5918H565.446ZM585.029 53.5918V35.7118H591.173C592.341 35.7118 593.365 35.9438 594.245 36.4078C595.125 36.8558 595.805 37.4958 596.285 38.3278C596.781 39.1438 597.029 40.0958 597.029 41.1838C597.029 42.2718 596.781 43.2238 596.285 44.0398C595.805 44.8558 595.125 45.4958 594.245 45.9598C593.381 46.4078 592.357 46.6318 591.173 46.6318H586.949V53.5918H585.029ZM586.949 44.8318H591.269C592.037 44.8318 592.709 44.6878 593.285 44.3998C593.861 44.0958 594.309 43.6718 594.629 43.1278C594.949 42.5678 595.109 41.9118 595.109 41.1598C595.109 40.4078 594.949 39.7598 594.629 39.2158C594.309 38.6718 593.861 38.2558 593.285 37.9678C592.709 37.6638 592.037 37.5118 591.269 37.5118H586.949V44.8318ZM606.258 53.8798C604.994 53.8798 603.882 53.6158 602.922 53.0878C601.962 52.5598 601.218 51.8398 600.69 50.9278C600.162 49.9998 599.898 48.9438 599.898 47.7598V35.7118H601.818V47.7598C601.818 48.6238 602.002 49.3838 602.37 50.0398C602.754 50.6798 603.274 51.1838 603.93 51.5518C604.602 51.9038 605.378 52.0798 606.258 52.0798C607.138 52.0798 607.906 51.9038 608.562 51.5518C609.234 51.1838 609.754 50.6798 610.122 50.0398C610.506 49.3838 610.698 48.6238 610.698 47.7598V35.7118H612.618V47.7598C612.618 48.9438 612.354 49.9998 611.826 50.9278C611.298 51.8398 610.554 52.5598 609.594 53.0878C608.65 53.6158 607.538 53.8798 606.258 53.8798ZM616.295 53.5918V35.7118H622.439C623.607 35.7118 624.631 35.9438 625.511 36.4078C626.391 36.8558 627.071 37.4958 627.551 38.3278C628.047 39.1438 628.295 40.0958 628.295 41.1838C628.295 42.4478 627.959 43.5278 627.287 44.4238C626.631 45.3198 625.735 45.9518 624.599 46.3198L628.775 53.5918H626.519L622.151 45.8878L623.447 46.6318H618.215V53.5918H616.295ZM618.215 44.8318H622.535C623.303 44.8318 623.975 44.6878 624.551 44.3998C625.127 44.0958 625.575 43.6718 625.895 43.1278C626.215 42.5678 626.375 41.9118 626.375 41.1598C626.375 40.4078 626.215 39.7598 625.895 39.2158C625.575 38.6718 625.127 38.2558 624.551 37.9678C623.975 37.6638 623.303 37.5118 622.535 37.5118H618.215V44.8318ZM629.342 53.5918L635.87 35.7118H637.934L644.462 53.5918H642.446L640.91 49.2238H632.918L631.358 53.5918H629.342ZM633.542 47.4238H640.238L636.614 37.1518H637.19L633.542 47.4238Z" fill="#1F36AF"/>
<path d="M575.903 74.8798C574.639 74.8798 573.479 74.6558 572.423 74.2078C571.367 73.7438 570.447 73.1038 569.663 72.2878C568.895 71.4558 568.295 70.4798 567.863 69.3598C567.431 68.2398 567.215 67.0078 567.215 65.6638C567.215 64.3198 567.431 63.0878 567.863 61.9678C568.295 60.8478 568.895 59.8718 569.663 59.0398C570.447 58.2078 571.367 57.5678 572.423 57.1198C573.479 56.6558 574.639 56.4238 575.903 56.4238C577.119 56.4238 578.207 56.6398 579.167 57.0718C580.143 57.5038 580.959 58.0638 581.615 58.7518C582.287 59.4238 582.767 60.1358 583.055 60.8878L581.255 61.6798C580.807 60.6398 580.119 59.8078 579.191 59.1838C578.279 58.5438 577.183 58.2238 575.903 58.2238C574.591 58.2238 573.423 58.5358 572.399 59.1598C571.375 59.7838 570.575 60.6558 569.999 61.7758C569.423 62.8798 569.135 64.1758 569.135 65.6638C569.135 67.1358 569.423 68.4318 569.999 69.5518C570.575 70.6718 571.375 71.5438 572.399 72.1678C573.423 72.7758 574.591 73.0798 575.903 73.0798C577.183 73.0798 578.279 72.7678 579.191 72.1438C580.119 71.5198 580.807 70.6878 581.255 69.6478L583.055 70.4398C582.767 71.1758 582.287 71.8878 581.615 72.5758C580.959 73.2478 580.143 73.7998 579.167 74.2318C578.207 74.6638 577.119 74.8798 575.903 74.8798ZM592.301 74.8798C591.037 74.8798 589.925 74.6158 588.965 74.0878C588.005 73.5598 587.261 72.8398 586.733 71.9278C586.205 70.9998 585.941 69.9438 585.941 68.7598V56.7118H587.861V68.7598C587.861 69.6238 588.045 70.3838 588.413 71.0398C588.797 71.6798 589.317 72.1838 589.973 72.5518C590.645 72.9038 591.421 73.0798 592.301 73.0798C593.181 73.0798 593.949 72.9038 594.605 72.5518C595.277 72.1838 595.797 71.6798 596.165 71.0398C596.549 70.3838 596.741 69.6238 596.741 68.7598V56.7118H598.661V68.7598C598.661 69.9438 598.397 70.9998 597.869 71.9278C597.341 72.8398 596.597 73.5598 595.637 74.0878C594.693 74.6158 593.581 74.8798 592.301 74.8798ZM602.338 74.5918V56.7118H608.482C609.65 56.7118 610.674 56.9438 611.554 57.4078C612.434 57.8558 613.114 58.4958 613.594 59.3278C614.09 60.1438 614.338 61.0958 614.338 62.1838C614.338 63.4478 614.002 64.5278 613.33 65.4238C612.674 66.3198 611.778 66.9518 610.642 67.3198L614.818 74.5918H612.562L608.194 66.8878L609.49 67.6318H604.258V74.5918H602.338ZM604.258 65.8318H608.578C609.346 65.8318 610.018 65.6878 610.594 65.3998C611.17 65.0958 611.618 64.6718 611.938 64.1278C612.258 63.5678 612.418 62.9118 612.418 62.1598C612.418 61.4078 612.258 60.7598 611.938 60.2158C611.618 59.6718 611.17 59.2558 610.594 58.9678C610.018 58.6638 609.346 58.5118 608.578 58.5118H604.258V65.8318ZM617.233 74.5918V56.7118H623.377C624.545 56.7118 625.569 56.9438 626.449 57.4078C627.329 57.8558 628.009 58.4958 628.489 59.3278C628.985 60.1438 629.233 61.0958 629.233 62.1838C629.233 63.4478 628.897 64.5278 628.225 65.4238C627.569 66.3198 626.673 66.9518 625.537 67.3198L629.713 74.5918H627.457L623.089 66.8878L624.385 67.6318H619.153V74.5918H617.233ZM619.153 65.8318H623.473C624.241 65.8318 624.913 65.6878 625.489 65.3998C626.065 65.0958 626.513 64.6718 626.833 64.1278C627.153 63.5678 627.313 62.9118 627.313 62.1598C627.313 61.4078 627.153 60.7598 626.833 60.2158C626.513 59.6718 626.065 59.2558 625.489 58.9678C624.913 58.6638 624.241 58.5118 623.473 58.5118H619.153V65.8318ZM636.309 74.5918V66.2878L630.045 56.7118H632.181L637.653 65.0398H636.885L642.333 56.7118H644.469L638.229 66.2878V74.5918H636.309Z" fill="#1F36AF"/>
<path fill-rule="evenodd" clip-rule="evenodd" d="M20.0566 13.5918C18.9521 13.5918 18.0566 14.4872 18.0566 15.5918V48.7633C18.0566 49.8679 18.9521 50.7633 20.0566 50.7633H25.0176C26.1222 50.7633 27.0176 49.8679 27.0176 48.7634V33.736C27.0176 31.6955 29.7144 30.9651 30.7442 32.7266L40.7097 49.7727C41.0684 50.3862 41.7257 50.7633 42.4363 50.7633H49.5774C50.682 50.7633 51.5774 49.8679 51.5774 48.7633V15.5918C51.5774 14.4872 50.682 13.5918 49.5774 13.5918H44.6164C43.5118 13.5918 42.6164 14.4872 42.6164 15.5918V31.2787C42.6164 33.2677 40.0285 34.0374 38.9415 32.3718L27.2776 14.4988C26.9084 13.9329 26.2784 13.5918 25.6027 13.5918H20.0566ZM58.4964 23.5431C58.1047 23.9201 57.8833 24.4404 57.8833 24.9841V48.7635C57.8833 49.8681 58.7787 50.7635 59.8833 50.7635H64.8443C65.9489 50.7635 66.8443 49.8681 66.8443 48.7635V43.8867C66.8443 42.7822 67.7397 41.8867 68.8443 41.8867H75.4647C76.5693 41.8867 77.4647 42.7822 77.4647 43.8867V48.7635C77.4647 49.8681 78.3602 50.7635 79.4647 50.7635H84.4257C85.5303 50.7635 86.4257 49.8681 86.4257 48.7635V24.9841C86.4257 24.4404 86.2044 23.9201 85.8127 23.5431L76.0542 14.151C75.6816 13.7923 75.1845 13.592 74.6673 13.592H69.6417C69.1245 13.592 68.6275 13.7923 68.2548 14.151L58.4964 23.5431ZM66.8443 26.4551C66.8443 25.8626 67.107 25.3005 67.5617 24.9205L69.9382 22.9342C70.298 22.6335 70.752 22.4687 71.2208 22.4687H73.0882C73.5571 22.4687 74.0111 22.6335 74.3708 22.9342L76.7474 24.9205C77.202 25.3005 77.4647 25.8626 77.4647 26.4551V32.3969C77.4647 33.5015 76.5693 34.3969 75.4647 34.3969H68.8443C67.7397 34.3969 66.8443 33.5015 66.8443 32.3969V26.4551ZM95.7273 50.7635C94.6227 50.7635 93.7273 49.8681 93.7273 48.7635V15.592C93.7273 14.4874 94.6227 13.592 95.7273 13.592H100.245C100.816 13.592 101.36 13.8361 101.74 14.2629L109.673 23.1848C110.053 23.6116 110.597 23.8557 111.168 23.8557H112.795C113.366 23.8557 113.91 23.6116 114.289 23.1848L122.223 14.2629C122.602 13.8361 123.146 13.592 123.717 13.592H128.235C129.34 13.592 130.235 14.4874 130.235 15.592V48.7635C130.235 49.8681 129.34 50.7635 128.235 50.7635H124.534C123.43 50.7635 122.534 49.8681 122.534 48.7635V27.2565C122.534 26.604 122.005 26.0749 121.353 26.0749C121.016 26.0749 120.695 26.2188 120.47 26.4704L114.004 33.7275C113.624 34.1534 113.081 34.3969 112.511 34.3969H111.144C110.587 34.3969 110.055 34.1644 109.676 33.7553L102.864 26.3933C102.676 26.1903 102.412 26.0749 102.135 26.0749C101.587 26.0749 101.143 26.5192 101.143 27.0673V48.7635C101.143 49.8681 100.248 50.7635 99.1429 50.7635H95.7273ZM138.873 13.592C137.768 13.592 136.873 14.4874 136.873 15.592V48.7635C136.873 49.8681 137.768 50.7635 138.873 50.7635H143.502C144.607 50.7635 145.502 49.8681 145.502 48.7635V15.592C145.502 14.4874 144.607 13.592 143.502 13.592H138.873Z" fill="#1F36AF"/>
</svg>
