<svg width="713" height="425" viewBox="0 0 713 425" fill="none" xmlns="http://www.w3.org/2000/svg">
<g clip-path="url(#clip0_994_1107)">
<rect width="713" height="425" fill="#D9D9D9"/>
<path fill-rule="evenodd" clip-rule="evenodd" d="M39.5 401.06V425.001H39.75V401.06L80 401.118V425.001H80.25V401.118L120 401.176V425H120.25V401.176L160 401.233V425H160.25V401.233L200 401.291V425.001H200.25V401.291L240.5 401.349V425.002H240.75V401.349L280.5 401.406V425H280.75V401.407L320.5 401.464V425H320.75V401.464L361 401.522V425.001H361.25V401.523L401.5 401.581V425.002H401.75V401.581L441.5 401.638V425H441.75V401.638L481.5 401.696V425H481.75V401.696L521.5 401.753V425.002H521.75V401.754L562 401.812V425.002H562.25V401.812L602 401.869V425.001H602.25V401.869L642 401.927V425.001H642.25V401.927L680 401.981V425H680.25V401.982L711 402.026L711 401.776L680.25 401.732V361.982L711 362.026L711 361.776L680.25 361.732V320.982L711 321.026L711 320.776L680.25 320.732V280.982L711 281.026L711 280.776L680.25 280.732V240.979L713 241.026L713 240.776L680.25 240.729V200.979L713 201.026L713 200.776L680.25 200.729V160.982L711 161.026L711 160.776L680.25 160.732V120.982L711 121.026L711 120.776L680.25 120.732V80.9788L713 81.0259L713 80.7759L680.25 80.7288V40.9788L713 41.0259L713 40.7759L680.25 40.7288V0H680V40.7284L642.25 40.6741V0.000976562H642V40.6737L602.25 40.6165V0.000976562H602V40.6162L562.25 40.559V0.000976562H562V40.5586L521.75 40.5007V0.000488281H521.5V40.5004L481.75 40.4432V0.000488281H481.5V40.4428L441.75 40.3856V0.000488281H441.5V40.3853L401.75 40.3281V0.000488281H401.5V40.3277L361.25 40.2698V0H361V40.2694L320.75 40.2115V0.000488281H320.5V40.2112L280.75 40.154V0.000488281H280.5V40.1536L240.75 40.0964V0.000488281H240.5V40.096L200.25 40.0381V0H200V40.0378L160.25 39.9806V0H160V39.9802L120.25 39.923V0H120V39.9227L80.25 39.8655V0H80V39.8651L39.75 39.8072V-0.000488281H39.5V39.8068L0.000359774 39.75L0 40L39.5 40.0568V79.8068L0.000359774 79.75L0 80L39.5 80.0568V119.81L-1.99964 119.75L-2 120L39.5 120.06V159.81L-1.99964 159.75L-2 160L39.5 160.06V199.807L0.000359774 199.75L0 200L39.5 200.057V239.807L0.000359774 239.75L0 240L39.5 240.057V279.81L-1.99964 279.75L-2 280L39.5 280.06V319.81L-1.99964 319.75L-2 320L39.5 320.06V360.81L-1.99964 360.75L-2 361L39.5 361.06V400.81L-1.99964 400.75L-2 401L39.5 401.06ZM39.75 400.81L80 400.868V361.118L39.75 361.06V400.81ZM39.75 360.81L80 360.868V320.118L39.75 320.06V360.81ZM39.75 319.81L80 319.868V280.118L39.75 280.06V319.81ZM39.75 279.81L80 279.868V240.115L39.75 240.057V279.81ZM39.75 239.807L80 239.865V200.115L39.75 200.057V239.807ZM39.75 199.807L80 199.865V160.118L39.75 160.06V199.807ZM39.75 159.81L80 159.868V120.118L39.75 120.06V159.81ZM39.75 119.81L80 119.868V80.1151L39.75 80.0572V119.81ZM39.75 79.8072L80 79.8651V40.1151L39.75 40.0572V79.8072ZM80.25 40.1155V79.8655L120 79.9227V40.1727L80.25 40.1155ZM120.25 40.173V79.923L160 79.9802V40.2302L120.25 40.173ZM160.25 40.2306V79.9806L200 80.0378V40.2878L160.25 40.2306ZM200.25 40.2881V80.0381L240.5 80.096V40.346L200.25 40.2881ZM240.75 40.3464V80.0964L280.5 80.1536V40.4036L240.75 40.3464ZM280.75 40.404V80.154L320.5 80.2112V40.4612L280.75 40.404ZM320.75 40.4615V80.2115L361 80.2694V40.5194L320.75 40.4615ZM361.25 40.5198V80.2698L401.5 80.3277V40.5777L361.25 40.5198ZM401.75 40.5781V80.3281L441.5 80.3852V40.6353L401.75 40.5781ZM441.75 40.6356V80.3856L481.5 80.4428V40.6928L441.75 40.6356ZM481.75 40.6932V80.4432L521.5 80.5004V40.7504L481.75 40.6932ZM521.75 40.7507V80.5007L562 80.5586V40.8086L521.75 40.7507ZM562.25 40.809V80.559L602 80.6162V40.8662L562.25 40.809ZM602.25 40.8665V80.6165L642 80.6737V40.9237L602.25 40.8665ZM642.25 40.9241V80.6741L680 80.7284V40.9784L642.25 40.9241ZM680 80.9784L642.25 80.9241V120.677L680 120.731V80.9784ZM680 120.981L642.25 120.927V160.677L680 160.731V120.981ZM680 160.981L642.25 160.927V200.674L680 200.728V160.981ZM680 200.978L642.25 200.924V240.674L680 240.728V200.978ZM680 240.978L642.25 240.924V280.677L680 280.731V240.978ZM680 280.981L642.25 280.927V320.677L680 320.731V280.981ZM680 320.981L642.25 320.927V361.677L680 361.731V320.981ZM680 361.981L642.25 361.927V401.677L680 401.731V361.981ZM642 401.677V361.927L602.25 361.869V401.619L642 401.677ZM602 401.619V361.869L562.25 361.812V401.562L602 401.619ZM562 401.562V361.812L521.75 361.754V401.504L562 401.562ZM521.5 401.503V361.753L481.75 361.696V401.446L521.5 401.503ZM481.5 401.446V361.696L441.75 361.638V401.388L481.5 401.446ZM441.5 401.388V361.638L401.75 361.581V401.331L441.5 401.388ZM401.5 401.331V361.581L361.25 361.523V401.273L401.5 401.331ZM361 401.272V361.522L320.75 361.464V401.214L361 401.272ZM320.5 401.214V361.464L280.75 361.407V401.157L320.5 401.214ZM280.5 401.156V361.406L240.75 361.349V401.099L280.5 401.156ZM240.5 401.099V361.349L200.25 361.291V401.041L240.5 401.099ZM200 401.041V361.291L160.25 361.233V400.983L200 401.041ZM160 400.983V361.233L120.25 361.176V400.926L160 400.983ZM120 400.926V361.176L80.25 361.118V400.868L120 400.926ZM80.25 360.868L120 360.926V320.176L80.25 320.118V360.868ZM80.25 319.868L120 319.926V280.176L80.25 280.118V319.868ZM80.25 279.868L120 279.926V240.173L80.25 240.115V279.868ZM80.25 239.865L120 239.923V200.173L80.25 200.115V239.865ZM80.25 199.865L120 199.923V160.176L80.25 160.118V199.865ZM80.25 159.868L120 159.926V120.176L80.25 120.118V159.868ZM80.25 119.868L120 119.926V80.1727L80.25 80.1155V119.868ZM120.25 80.173V119.926L160 119.983V80.2302L120.25 80.173ZM160.25 80.2306V119.983L200 120.041V80.2878L160.25 80.2306ZM200.25 80.2881V120.041L240.5 120.099V80.346L200.25 80.2881ZM240.75 80.3464V120.099L280.5 120.156V80.4036L240.75 80.3464ZM280.75 80.404V120.157L320.5 120.214V80.4612L280.75 80.404ZM320.75 80.4615V120.214L361 120.272V80.5194L320.75 80.4615ZM361.25 80.5198V120.273L401.5 120.331V80.5777L361.25 80.5198ZM401.75 80.5781V120.331L441.5 120.388V80.6352L401.75 80.5781ZM441.75 80.6356V120.388L481.5 120.446V80.6928L441.75 80.6356ZM481.75 80.6932V120.446L521.5 120.503V80.7504L481.75 80.6932ZM521.75 80.7507V120.504L562 120.562V80.8086L521.75 80.7507ZM562.25 80.809V120.562L602 120.619V80.8662L562.25 80.809ZM602.25 80.8665V120.619L642 120.677V80.9237L602.25 80.8665ZM642 120.927L602.25 120.869V160.619L642 160.677V120.927ZM642 160.927L602.25 160.869V200.617L642 200.674V160.927ZM642 200.924L602.25 200.867V240.617L642 240.674V200.924ZM642 240.924L602.25 240.867V280.619L642 280.677V240.924ZM642 280.927L602.25 280.869V320.619L642 320.677V280.927ZM642 320.927L602.25 320.869V361.619L642 361.677V320.927ZM602 361.619V320.869L562.25 320.812V361.562L602 361.619ZM562 361.562V320.812L521.75 320.754V361.504L562 361.562ZM521.5 361.503V320.753L481.75 320.696V361.446L521.5 361.503ZM481.5 361.446V320.696L441.75 320.638V361.388L481.5 361.446ZM441.5 361.388V320.638L401.75 320.581V361.331L441.5 361.388ZM401.5 361.331V320.581L361.25 320.523V361.273L401.5 361.331ZM361 361.272V320.522L320.75 320.464V361.214L361 361.272ZM320.5 361.214V320.464L280.75 320.407V361.157L320.5 361.214ZM280.5 361.156V320.406L240.75 320.349V361.099L280.5 361.156ZM240.5 361.099V320.349L200.25 320.291V361.041L240.5 361.099ZM200 361.041V320.291L160.25 320.233V360.983L200 361.041ZM160 360.983V320.233L120.25 320.176V360.926L160 360.983ZM120.25 319.926L160 319.983V280.233L120.25 280.176V319.926ZM120.25 279.926L160 279.983V240.23L120.25 240.173V279.926ZM120.25 239.923L160 239.98V200.23L120.25 200.173V239.923ZM120.25 199.923L160 199.98V160.233L120.25 160.176V199.923ZM120.25 159.926L160 159.983V120.233L120.25 120.176V159.926ZM160.25 120.233V159.983L200 160.041V120.291L160.25 120.233ZM200.25 120.291V160.041L240.5 160.099V120.349L200.25 120.291ZM240.75 120.349V160.099L280.5 160.156V120.406L240.75 120.349ZM280.75 120.407V160.157L320.5 160.214V120.464L280.75 120.407ZM320.75 120.464V160.214L361 160.272V120.522L320.75 120.464ZM361.25 120.523V160.273L401.5 160.331V120.581L361.25 120.523ZM401.75 120.581V160.331L441.5 160.388V120.638L401.75 120.581ZM441.75 120.638V160.388L481.5 160.446V120.696L441.75 120.638ZM481.75 120.696V160.446L521.5 160.503V120.753L481.75 120.696ZM521.75 120.754V160.504L562 160.562V120.812L521.75 120.754ZM562.25 120.812V160.562L602 160.619V120.869L562.25 120.812ZM602 160.869L562.25 160.812V200.559L602 200.616V160.869ZM602 200.866L562.25 200.809V240.559L602 240.616V200.866ZM602 240.866L562.25 240.809V280.562L602 280.619V240.866ZM602 280.869L562.25 280.812V320.562L602 320.619V280.869ZM562 320.562V280.811L521.75 280.754V320.504L562 320.562ZM521.5 320.503V280.753L481.75 280.696V320.446L521.5 320.503ZM481.5 320.446V280.696L441.75 280.638V320.388L481.5 320.446ZM441.5 320.388V280.638L401.75 280.581V320.331L441.5 320.388ZM401.5 320.331V280.581L361.25 280.523V320.273L401.5 320.331ZM361 320.272V280.522L320.75 280.464V320.214L361 320.272ZM320.5 320.214V280.464L280.75 280.407V320.157L320.5 320.214ZM280.5 320.156V280.406L240.75 280.349V320.099L280.5 320.156ZM240.5 320.099V280.349L200.25 280.291V320.041L240.5 320.099ZM200 320.041V280.291L160.25 280.233V319.983L200 320.041ZM160.25 279.983L200 280.041V240.288L160.25 240.231V279.983ZM160.25 239.981L200 240.038V200.288L160.25 200.231V239.981ZM160.25 199.981L200 200.038V160.291L160.25 160.233V199.981ZM200.25 160.291V200.038L240.5 200.096V160.349L200.25 160.291ZM240.75 160.349V200.096L280.5 200.154V160.406L240.75 160.349ZM280.75 160.407V200.154L320.5 200.211V160.464L280.75 160.407ZM320.75 160.464V200.212L361 200.269V160.522L320.75 160.464ZM361.25 160.523V200.27L401.5 200.328V160.581L361.25 160.523ZM401.75 160.581V200.328L441.5 200.385V160.638L401.75 160.581ZM441.75 160.638V200.386L481.5 200.443V160.696L441.75 160.638ZM481.75 160.696V200.443L521.5 200.5V160.753L481.75 160.696ZM521.75 160.754V200.501L562 200.559V160.812L521.75 160.754ZM562 200.809L521.75 200.751V240.501L562 240.559V200.809ZM562 240.809L521.75 240.751V280.504L562 280.561V240.809ZM521.5 280.503V240.75L481.75 240.693V280.446L521.5 280.503ZM481.5 280.446V240.693L441.75 240.636V280.388L481.5 280.446ZM441.5 280.388V240.635L401.75 240.578V280.331L441.5 280.388ZM401.5 280.331V240.578L361.25 240.52V280.273L401.5 280.331ZM361 280.272V240.519L320.75 240.462V280.214L361 280.272ZM320.5 280.214V240.461L280.75 240.404V280.157L320.5 280.214ZM280.5 280.156V240.404L240.75 240.346V280.099L280.5 280.156ZM240.5 280.099V240.346L200.25 240.288V280.041L240.5 280.099ZM200.25 240.038L240.5 240.096V200.346L200.25 200.288V240.038ZM240.75 200.346V240.096L280.5 240.154V200.404L240.75 200.346ZM280.75 200.404V240.154L320.5 240.211V200.461L280.75 200.404ZM320.75 200.462V240.212L361 240.269V200.519L320.75 200.462ZM361.25 200.52V240.27L401.5 240.328V200.578L361.25 200.52ZM401.75 200.578V240.328L441.5 240.385V200.635L401.75 200.578ZM441.75 200.636V240.386L481.5 240.443V200.693L441.75 200.636ZM481.75 200.693V240.443L521.5 240.5V200.75L481.75 200.693Z" fill="#605F5F"/>
<path fill-rule="evenodd" clip-rule="evenodd" d="M61 63H77V120H72V131H56V74H61V63ZM103 63H87V120H92V131H108V74H103V63Z" fill="#FFD600"/>
<path fill-rule="evenodd" clip-rule="evenodd" d="M103 102H87V45H92L92 34H108L108 91H103V102ZM61 102H77V45H72V34H56L56 91H61V102Z" fill="#FFD600"/>
<path fill-rule="evenodd" clip-rule="evenodd" d="M151 103H135V46H140V35H156V92H151V103ZM109 103H125V46H120V35H104V92H109V103Z" fill="#FFD600"/>
<path fill-rule="evenodd" clip-rule="evenodd" d="M198 103H182V46H187V35H203V92H198V103ZM156 103H172V46H167V35H151V92H156V103Z" fill="#FFD600"/>
<path fill-rule="evenodd" clip-rule="evenodd" d="M245 103H229V46H234V35H250V92H245V103ZM203 103H219V46H214V35H198V92H203V103Z" fill="#FFD600"/>
<path fill-rule="evenodd" clip-rule="evenodd" d="M290 103H274V46H279V35H295V92H290V103ZM248 103H264V46H259V35H243V92H248V103Z" fill="#FFD600"/>
<path fill-rule="evenodd" clip-rule="evenodd" d="M423 267H439V324H434V335H418V278H423V267ZM465 267H449V324H454V335H470V278H465V267Z" fill="#FFD600"/>
<path fill-rule="evenodd" clip-rule="evenodd" d="M465 306H449V249H454V238H470V295H465V306ZM423 306H439V249H434V238H418V295H423V306Z" fill="#FFD600"/>
<path fill-rule="evenodd" clip-rule="evenodd" d="M513 307H497V250H502V239H518V296H513V307ZM471 307H487V250H482V239H466V296H471V307Z" fill="#FFD600"/>
<path fill-rule="evenodd" clip-rule="evenodd" d="M560 307H544V250H549V239H565V296H560V307ZM518 307H534V250H529V239H513V296H518V307Z" fill="#FFD600"/>
<path fill-rule="evenodd" clip-rule="evenodd" d="M607 307H591V250H596V239H612V296H607V307ZM565 307H581V250H576V239H560V296H565V307Z" fill="#FFD600"/>
<path fill-rule="evenodd" clip-rule="evenodd" d="M652 307H636V250H641V239H657V296H652V307ZM610 307H626V250H621V239H605V296H610V307Z" fill="#FFD600"/>
<path fill-rule="evenodd" clip-rule="evenodd" d="M108 63H124V120H119V131H103V74H108V63ZM150 63H134V120H139V131H155V74H150V63Z" fill="#FFD600"/>
<path fill-rule="evenodd" clip-rule="evenodd" d="M202 63H218V120H213V131H197V74H202V63ZM244 63H228V120H233V131H249V74H244V63Z" fill="#FFD600"/>
<path fill-rule="evenodd" clip-rule="evenodd" d="M249 63H265V120H260V131H244V74H249V63ZM291 63H275V120H280V131H296V74H291V63Z" fill="#FFD600"/>
<path fill-rule="evenodd" clip-rule="evenodd" d="M155 63H171V120H166V131H150V74H155V63ZM197 63H181V120H186V131H202V74H197V63Z" fill="#FFD600"/>
<rect x="32" y="97.106" width="32" height="15.1141" transform="rotate(-28.1677 32 97.106)" fill="#FFD600"/>
<rect x="32" y="97.106" width="32" height="15.1141" transform="rotate(-28.1677 32 97.106)" fill="#FFD600"/>
<rect x="32" y="97.106" width="32" height="15.1141" transform="rotate(-28.1677 32 97.106)" fill="#FFD600"/>
<rect x="32" y="97.106" width="32" height="15.1141" transform="rotate(-28.1677 32 97.106)" fill="#FFD600"/>
<rect x="32" y="97.106" width="32" height="15.1141" transform="rotate(-28.1677 32 97.106)" fill="#FFD600"/>
<rect x="32" y="97.106" width="32" height="15.1141" transform="rotate(-28.1677 32 97.106)" fill="#FFD600"/>
<rect x="32" y="97.106" width="32" height="15.1141" transform="rotate(-28.1677 32 97.106)" fill="#FFD600"/>
<rect x="36.2148" y="55" width="32" height="15" transform="rotate(24.4786 36.2148 55)" fill="#FFD600"/>
<rect x="36.2148" y="55" width="32" height="15" transform="rotate(24.4786 36.2148 55)" fill="#FFD600"/>
<rect x="36.2148" y="55" width="32" height="15" transform="rotate(24.4786 36.2148 55)" fill="#FFD600"/>
<rect x="36.2148" y="55" width="32" height="15" transform="rotate(24.4786 36.2148 55)" fill="#FFD600"/>
<rect x="36.2148" y="55" width="32" height="15" transform="rotate(24.4786 36.2148 55)" fill="#FFD600"/>
<rect x="36.2148" y="55" width="32" height="15" transform="rotate(24.4786 36.2148 55)" fill="#FFD600"/>
<rect x="36.2148" y="55" width="32" height="15" transform="rotate(24.4786 36.2148 55)" fill="#FFD600"/>
<rect x="284.583" y="66.792" width="32" height="15" transform="rotate(-19.4942 284.583 66.792)" fill="#FFD600"/>
<rect x="284.583" y="66.792" width="32" height="15" transform="rotate(-19.4942 284.583 66.792)" fill="#FFD600"/>
<rect x="284.583" y="66.792" width="32" height="15" transform="rotate(-19.4942 284.583 66.792)" fill="#FFD600"/>
<rect x="284.583" y="66.792" width="32" height="15" transform="rotate(-19.4942 284.583 66.792)" fill="#FFD600"/>
<rect x="284.583" y="66.792" width="32" height="15" transform="rotate(-19.4942 284.583 66.792)" fill="#FFD600"/>
<rect x="284.583" y="66.792" width="32" height="15" transform="rotate(-19.4942 284.583 66.792)" fill="#FFD600"/>
<rect x="284.583" y="66.792" width="32" height="15" transform="rotate(-19.4942 284.583 66.792)" fill="#FFD600"/>
<rect x="292.33" y="82" width="32" height="15" transform="rotate(29.2518 292.33 82)" fill="#FFD600"/>
<rect x="292.33" y="82" width="32" height="15" transform="rotate(29.2518 292.33 82)" fill="#FFD600"/>
<rect x="292.33" y="82" width="32" height="15" transform="rotate(29.2518 292.33 82)" fill="#FFD600"/>
<rect x="292.33" y="82" width="32" height="15" transform="rotate(29.2518 292.33 82)" fill="#FFD600"/>
<rect x="292.33" y="82" width="32" height="15" transform="rotate(29.2518 292.33 82)" fill="#FFD600"/>
<rect x="292.33" y="82" width="32" height="15" transform="rotate(29.2518 292.33 82)" fill="#FFD600"/>
<rect x="292.33" y="82" width="32" height="15" transform="rotate(29.2518 292.33 82)" fill="#FFD600"/>
<rect x="648" y="271.679" width="32" height="15" transform="rotate(-19.4942 648 271.679)" fill="#FFD600"/>
<rect x="648" y="271.679" width="32" height="15" transform="rotate(-19.4942 648 271.679)" fill="#FFD600"/>
<rect x="648" y="271.679" width="32" height="15" transform="rotate(-19.4942 648 271.679)" fill="#FFD600"/>
<rect x="648" y="271.679" width="32" height="15" transform="rotate(-19.4942 648 271.679)" fill="#FFD600"/>
<rect x="648" y="271.679" width="32" height="15" transform="rotate(-19.4942 648 271.679)" fill="#FFD600"/>
<rect x="648" y="271.679" width="32" height="15" transform="rotate(-19.4942 648 271.679)" fill="#FFD600"/>
<rect x="648" y="271.679" width="32" height="15" transform="rotate(-19.4942 648 271.679)" fill="#FFD600"/>
<rect x="655.747" y="286.887" width="32" height="15" transform="rotate(29.2518 655.747 286.887)" fill="#FFD600"/>
<rect x="655.747" y="286.887" width="32" height="15" transform="rotate(29.2518 655.747 286.887)" fill="#FFD600"/>
<rect x="655.747" y="286.887" width="32" height="15" transform="rotate(29.2518 655.747 286.887)" fill="#FFD600"/>
<rect x="655.747" y="286.887" width="32" height="15" transform="rotate(29.2518 655.747 286.887)" fill="#FFD600"/>
<rect x="655.747" y="286.887" width="32" height="15" transform="rotate(29.2518 655.747 286.887)" fill="#FFD600"/>
<rect x="655.747" y="286.887" width="32" height="15" transform="rotate(29.2518 655.747 286.887)" fill="#FFD600"/>
<rect x="655.747" y="286.887" width="32" height="15" transform="rotate(29.2518 655.747 286.887)" fill="#FFD600"/>
<rect x="419" y="254" width="239" height="108" fill="#FFD600"/>
<path fill-rule="evenodd" clip-rule="evenodd" d="M608 354H592V297H597V286H613V343H608V354ZM566 354H582V297H577V286H561V343H566V354Z" fill="#FFD600"/>
<path fill-rule="evenodd" clip-rule="evenodd" d="M653 354H637V297H642V286H658V343H653V354ZM611 354H627V297H622V286H606V343H611V354Z" fill="#FFD600"/>
<path fill-rule="evenodd" clip-rule="evenodd" d="M471 314H487V371H482V382H466V325H471V314ZM513 314H497V371H502V382H518V325H513V314Z" fill="#FFD600"/>
<path fill-rule="evenodd" clip-rule="evenodd" d="M423 314H439V371H434V382H418V325H423V314ZM465 314H449V371H454V382H470V325H465V314Z" fill="#FFD600"/>
<path fill-rule="evenodd" clip-rule="evenodd" d="M565 314H581V371H576V382H560V325H565V314ZM607 314H591V371H596V382H612V325H607V314Z" fill="#FFD600"/>
<path fill-rule="evenodd" clip-rule="evenodd" d="M612 314H628V371H623V382H607V325H612V314ZM654 314H638V371H643V382H659V325H654V314Z" fill="#FFD600"/>
<path fill-rule="evenodd" clip-rule="evenodd" d="M518 314H534V371H529V382H513V325H518V314ZM560 314H544V371H549V382H565V325H560V314Z" fill="#FFD600"/>
<rect x="395" y="348.106" width="32" height="15.1141" transform="rotate(-28.1677 395 348.106)" fill="#FFD600"/>
<rect x="395" y="348.106" width="32" height="15.1141" transform="rotate(-28.1677 395 348.106)" fill="#FFD600"/>
<rect x="395" y="348.106" width="32" height="15.1141" transform="rotate(-28.1677 395 348.106)" fill="#FFD600"/>
<rect x="395" y="348.106" width="32" height="15.1141" transform="rotate(-28.1677 395 348.106)" fill="#FFD600"/>
<rect x="395" y="348.106" width="32" height="15.1141" transform="rotate(-28.1677 395 348.106)" fill="#FFD600"/>
<rect x="395" y="348.106" width="32" height="15.1141" transform="rotate(-28.1677 395 348.106)" fill="#FFD600"/>
<rect x="395" y="348.106" width="32" height="15.1141" transform="rotate(-28.1677 395 348.106)" fill="#FFD600"/>
<rect x="399.215" y="306" width="32" height="15" transform="rotate(24.4786 399.215 306)" fill="#FFD600"/>
<rect x="399.215" y="306" width="32" height="15" transform="rotate(24.4786 399.215 306)" fill="#FFD600"/>
<rect x="399.215" y="306" width="32" height="15" transform="rotate(24.4786 399.215 306)" fill="#FFD600"/>
<rect x="399.215" y="306" width="32" height="15" transform="rotate(24.4786 399.215 306)" fill="#FFD600"/>
<rect x="399.215" y="306" width="32" height="15" transform="rotate(24.4786 399.215 306)" fill="#FFD600"/>
<rect x="399.215" y="306" width="32" height="15" transform="rotate(24.4786 399.215 306)" fill="#FFD600"/>
<rect x="399.215" y="306" width="32" height="15" transform="rotate(24.4786 399.215 306)" fill="#FFD600"/>
<rect x="394" y="302.106" width="32" height="15.1141" transform="rotate(-28.1677 394 302.106)" fill="#FFD600"/>
<rect x="394" y="302.106" width="32" height="15.1141" transform="rotate(-28.1677 394 302.106)" fill="#FFD600"/>
<rect x="394" y="302.106" width="32" height="15.1141" transform="rotate(-28.1677 394 302.106)" fill="#FFD600"/>
<rect x="394" y="302.106" width="32" height="15.1141" transform="rotate(-28.1677 394 302.106)" fill="#FFD600"/>
<rect x="394" y="302.106" width="32" height="15.1141" transform="rotate(-28.1677 394 302.106)" fill="#FFD600"/>
<rect x="394" y="302.106" width="32" height="15.1141" transform="rotate(-28.1677 394 302.106)" fill="#FFD600"/>
<rect x="394" y="302.106" width="32" height="15.1141" transform="rotate(-28.1677 394 302.106)" fill="#FFD600"/>
<path d="M399.389 260.644L428.248 271.262L421.123 286.911L392 273.652L399.389 260.644Z" fill="#FFD600"/>
<path d="M399.389 260.644L428.248 271.262L421.123 286.911L392 273.652L399.389 260.644Z" fill="#FFD600"/>
<path d="M399.389 260.644L428.248 271.262L421.123 286.911L392 273.652L399.389 260.644Z" fill="#FFD600"/>
<path d="M399.389 260.644L428.248 271.262L421.123 286.911L392 273.652L399.389 260.644Z" fill="#FFD600"/>
<path d="M399.389 260.644L428.248 271.262L421.123 286.911L392 273.652L399.389 260.644Z" fill="#FFD600"/>
<path d="M399.389 260.644L428.248 271.262L421.123 286.911L392 273.652L399.389 260.644Z" fill="#FFD600"/>
<path d="M399.389 260.644L428.248 271.262L421.123 286.911L392 273.652L399.389 260.644Z" fill="#FFD600"/>
<rect x="647.583" y="317.792" width="32" height="15" transform="rotate(-19.4942 647.583 317.792)" fill="#FFD600"/>
<rect x="647.583" y="317.792" width="32" height="15" transform="rotate(-19.4942 647.583 317.792)" fill="#FFD600"/>
<rect x="647.583" y="317.792" width="32" height="15" transform="rotate(-19.4942 647.583 317.792)" fill="#FFD600"/>
<rect x="647.583" y="317.792" width="32" height="15" transform="rotate(-19.4942 647.583 317.792)" fill="#FFD600"/>
<rect x="647.583" y="317.792" width="32" height="15" transform="rotate(-19.4942 647.583 317.792)" fill="#FFD600"/>
<rect x="647.583" y="317.792" width="32" height="15" transform="rotate(-19.4942 647.583 317.792)" fill="#FFD600"/>
<rect x="647.583" y="317.792" width="32" height="15" transform="rotate(-19.4942 647.583 317.792)" fill="#FFD600"/>
<rect x="655.33" y="333" width="32" height="15" transform="rotate(29.2518 655.33 333)" fill="#FFD600"/>
<rect x="655.33" y="333" width="32" height="15" transform="rotate(29.2518 655.33 333)" fill="#FFD600"/>
<rect x="655.33" y="333" width="32" height="15" transform="rotate(29.2518 655.33 333)" fill="#FFD600"/>
<rect x="655.33" y="333" width="32" height="15" transform="rotate(29.2518 655.33 333)" fill="#FFD600"/>
<rect x="655.33" y="333" width="32" height="15" transform="rotate(29.2518 655.33 333)" fill="#FFD600"/>
<rect x="655.33" y="333" width="32" height="15" transform="rotate(29.2518 655.33 333)" fill="#FFD600"/>
<rect x="655.33" y="333" width="32" height="15" transform="rotate(29.2518 655.33 333)" fill="#FFD600"/>
<mask id="path-38-outside-1_994_1107" maskUnits="userSpaceOnUse" x="18" y="19" width="92" height="128" fill="black">
<rect fill="white" x="18" y="19" width="92" height="128"/>
<path fill-rule="evenodd" clip-rule="evenodd" d="M62.2567 20L81.9735 50.4212L101.806 20H108.843V56.1565H101.806V31.9445L85.8615 56.1565L78.1385 56.1565L62.2567 32.14V56.1565H55.1565V20H62.2567ZM31.14 63.2567H55.1565V56.1565H19V63.2567L49.4212 82.9735L19 102.806V109.843H55.1565V146H62.2567L81.9735 115.579L101.806 146H108.843V109.843H101.806V134.055L85.8615 109.843H78.1385L62.2567 133.86V109.843H55.1565V102.806H30.9445L55.1565 86.8615L55.1565 79.1385L31.14 63.2567Z"/>
</mask>
<path fill-rule="evenodd" clip-rule="evenodd" d="M62.2567 20L81.9735 50.4212L101.806 20H108.843V56.1565H101.806V31.9445L85.8615 56.1565L78.1385 56.1565L62.2567 32.14V56.1565H55.1565V20H62.2567ZM31.14 63.2567H55.1565V56.1565H19V63.2567L49.4212 82.9735L19 102.806V109.843H55.1565V146H62.2567L81.9735 115.579L101.806 146H108.843V109.843H101.806V134.055L85.8615 109.843H78.1385L62.2567 133.86V109.843H55.1565V102.806H30.9445L55.1565 86.8615L55.1565 79.1385L31.14 63.2567Z" fill="black"/>
<path d="M81.9735 50.4212L81.1343 50.9651L81.971 52.2561L82.8112 50.9673L81.9735 50.4212ZM62.2567 20L63.0958 19.4561L62.8002 19H62.2567V20ZM101.806 20V19H101.264L100.968 19.4539L101.806 20ZM108.843 20H109.843V19H108.843V20ZM108.843 56.1565V57.1565H109.843V56.1565H108.843ZM101.806 56.1565H100.806V57.1565H101.806V56.1565ZM101.806 31.9445H102.806V28.6078L100.97 31.3946L101.806 31.9445ZM85.8615 56.1565V57.1565H86.4003L86.6966 56.7065L85.8615 56.1565ZM78.1385 56.1565L77.3044 56.7081L77.6009 57.1565H78.1385V56.1565ZM62.2567 32.14L63.0908 31.5884L61.2567 28.8149V32.14H62.2567ZM62.2567 56.1565V57.1565H63.2567V56.1565H62.2567ZM55.1565 20V19H54.1565V20H55.1565ZM31.14 63.2567V62.2567H27.8149L30.5884 64.0908L31.14 63.2567ZM55.1565 63.2567V64.2567H56.1565V63.2567H55.1565ZM19 56.1565V55.1565H18V56.1565H19ZM19 63.2567H18V63.8002L18.4561 64.0958L19 63.2567ZM49.4212 82.9735L49.9673 83.8112L51.2561 82.971L49.9651 82.1343L49.4212 82.9735ZM19 102.806L18.4539 101.968L18 102.264V102.806H19ZM19 109.843H18V110.843H19V109.843ZM55.1565 146H54.1565V147H55.1565V146ZM62.2567 146V147H62.8002L63.0958 146.544L62.2567 146ZM81.9735 115.579L82.8112 115.033L81.971 113.744L81.1343 115.035L81.9735 115.579ZM101.806 146L100.968 146.546L101.264 147H101.806V146ZM108.843 146V147H109.843V146H108.843ZM108.843 109.843H109.843V108.843H108.843V109.843ZM101.806 109.843V108.843H100.806V109.843H101.806ZM101.806 134.055L100.97 134.605L102.806 137.392V134.055H101.806ZM85.8615 109.843L86.6966 109.293L86.4003 108.843H85.8615V109.843ZM78.1385 109.843V108.843H77.6009L77.3044 109.292L78.1385 109.843ZM62.2567 133.86H61.2567V137.185L63.0908 134.412L62.2567 133.86ZM62.2567 109.843H63.2567V108.843H62.2567V109.843ZM55.1565 102.806H56.1565V101.806H55.1565V102.806ZM30.9445 102.806L30.3946 101.97L27.6078 103.806H30.9445V102.806ZM55.1565 86.8615L55.7065 87.6966L56.1565 87.4003V86.8615H55.1565ZM55.1565 79.1385H56.1565V78.6009L55.7081 78.3044L55.1565 79.1385ZM82.8126 49.8773L63.0958 19.4561L61.4175 20.5439L81.1343 50.9651L82.8126 49.8773ZM100.968 19.4539L81.1358 49.8751L82.8112 50.9673L102.643 20.5461L100.968 19.4539ZM108.843 19H101.806V21H108.843V19ZM109.843 56.1565V20H107.843V56.1565H109.843ZM101.806 57.1565H108.843V55.1565H101.806V57.1565ZM100.806 31.9445V56.1565H102.806V31.9445H100.806ZM86.6966 56.7065L102.641 32.4945L100.97 31.3946L85.0263 55.6065L86.6966 56.7065ZM78.1385 57.1565L85.8615 57.1565V55.1565L78.1385 55.1565V57.1565ZM61.4225 32.6916L77.3044 56.7081L78.9726 55.6049L63.0908 31.5884L61.4225 32.6916ZM63.2567 56.1565V32.14H61.2567V56.1565H63.2567ZM55.1565 57.1565H62.2567V55.1565H55.1565V57.1565ZM54.1565 20V56.1565H56.1565V20H54.1565ZM62.2567 19H55.1565V21H62.2567V19ZM31.14 64.2567H55.1565V62.2567H31.14V64.2567ZM56.1565 63.2567V56.1565H54.1565V63.2567H56.1565ZM55.1565 55.1565H19V57.1565H55.1565V55.1565ZM18 56.1565V63.2567H20V56.1565H18ZM18.4561 64.0958L48.8773 83.8126L49.9651 82.1343L19.5439 62.4175L18.4561 64.0958ZM48.8751 82.1358L18.4539 101.968L19.5461 103.643L49.9673 83.8112L48.8751 82.1358ZM18 102.806V109.843H20V102.806H18ZM19 110.843H55.1565V108.843H19V110.843ZM56.1565 146V109.843H54.1565V146H56.1565ZM62.2567 145H55.1565V147H62.2567V145ZM81.1343 115.035L61.4175 145.456L63.0958 146.544L82.8126 116.123L81.1343 115.035ZM102.643 145.454L82.8112 115.033L81.1358 116.125L100.968 146.546L102.643 145.454ZM108.843 145H101.806V147H108.843V145ZM107.843 109.843V146H109.843V109.843H107.843ZM101.806 110.843H108.843V108.843H101.806V110.843ZM102.806 134.055V109.843H100.806V134.055H102.806ZM85.0263 110.393L100.97 134.605L102.641 133.505L86.6966 109.293L85.0263 110.393ZM78.1385 110.843H85.8615V108.843H78.1385V110.843ZM63.0908 134.412L78.9726 110.395L77.3044 109.292L61.4225 133.308L63.0908 134.412ZM61.2567 109.843V133.86H63.2567V109.843H61.2567ZM55.1565 110.843H62.2567V108.843H55.1565V110.843ZM56.1565 109.843V102.806H54.1565V109.843H56.1565ZM55.1565 101.806H30.9445V103.806H55.1565V101.806ZM31.4945 103.641L55.7065 87.6966L54.6065 86.0263L30.3946 101.97L31.4945 103.641ZM56.1565 86.8615L56.1565 79.1385H54.1565L54.1565 86.8615H56.1565ZM55.7081 78.3044L31.6916 62.4225L30.5884 64.0908L54.6049 79.9726L55.7081 78.3044Z" fill="black" mask="url(#path-38-outside-1_994_1107)"/>
<mask id="path-40-outside-2_994_1107" maskUnits="userSpaceOnUse" x="241.844" y="19" width="92" height="128" fill="black">
<rect fill="white" x="241.844" y="19" width="92" height="128"/>
<path fill-rule="evenodd" clip-rule="evenodd" d="M289.587 20L269.87 50.4212L250.038 20H243V56.1565H250.038V31.9445L265.982 56.1565L273.705 56.1565L289.587 32.14V56.1565H296.687V20H289.587ZM320.704 63.2567H296.687V56.1565H332.844V63.2567L302.423 82.9735L332.844 102.806V109.843H296.687V146H289.587L269.87 115.579L250.038 146H243V109.843H250.038V134.055L265.982 109.843H273.705L289.587 133.86V109.843H296.687V102.806H320.899L296.687 86.8615V79.1385L320.704 63.2567Z"/>
</mask>
<path fill-rule="evenodd" clip-rule="evenodd" d="M289.587 20L269.87 50.4212L250.038 20H243V56.1565H250.038V31.9445L265.982 56.1565L273.705 56.1565L289.587 32.14V56.1565H296.687V20H289.587ZM320.704 63.2567H296.687V56.1565H332.844V63.2567L302.423 82.9735L332.844 102.806V109.843H296.687V146H289.587L269.87 115.579L250.038 146H243V109.843H250.038V134.055L265.982 109.843H273.705L289.587 133.86V109.843H296.687V102.806H320.899L296.687 86.8615V79.1385L320.704 63.2567Z" fill="black"/>
<path d="M269.87 50.4212L270.709 50.9651L269.873 52.2561L269.033 50.9673L269.87 50.4212ZM289.587 20L288.748 19.4561L289.044 19H289.587V20ZM250.038 20V19H250.58L250.876 19.4539L250.038 20ZM243 20H242V19H243V20ZM243 56.1565V57.1565H242V56.1565H243ZM250.038 56.1565H251.038V57.1565H250.038V56.1565ZM250.038 31.9445H249.038V28.6078L250.873 31.3946L250.038 31.9445ZM265.982 56.1565V57.1565H265.443L265.147 56.7065L265.982 56.1565ZM273.705 56.1565L274.539 56.7081L274.243 57.1565H273.705V56.1565ZM289.587 32.14L288.753 31.5884L290.587 28.8149V32.14H289.587ZM289.587 56.1565V57.1565H288.587V56.1565H289.587ZM296.687 20V19H297.687V20H296.687ZM320.704 63.2567V62.2567H324.029L321.255 64.0908L320.704 63.2567ZM296.687 63.2567V64.2567H295.687V63.2567H296.687ZM332.844 56.1565V55.1565H333.844V56.1565H332.844ZM332.844 63.2567H333.844V63.8002L333.388 64.0958L332.844 63.2567ZM302.423 82.9735L301.876 83.8112L300.588 82.971L301.879 82.1343L302.423 82.9735ZM332.844 102.806L333.39 101.968L333.844 102.264V102.806H332.844ZM332.844 109.843H333.844V110.843H332.844V109.843ZM296.687 146H297.687V147H296.687V146ZM289.587 146V147H289.044L288.748 146.544L289.587 146ZM269.87 115.579L269.033 115.033L269.873 113.744L270.709 115.035L269.87 115.579ZM250.038 146L250.876 146.546L250.58 147H250.038V146ZM243 146V147H242V146H243ZM243 109.843H242V108.843H243V109.843ZM250.038 109.843V108.843H251.038V109.843H250.038ZM250.038 134.055L250.873 134.605L249.038 137.392V134.055H250.038ZM265.982 109.843L265.147 109.293L265.443 108.843H265.982V109.843ZM273.705 109.843V108.843H274.243L274.539 109.292L273.705 109.843ZM289.587 133.86H290.587V137.185L288.753 134.412L289.587 133.86ZM289.587 109.843H288.587V108.843H289.587V109.843ZM296.687 102.806H295.687V101.806H296.687V102.806ZM320.899 102.806L321.449 101.97L324.236 103.806H320.899V102.806ZM296.687 86.8615L296.137 87.6966L295.687 87.4003V86.8615H296.687ZM296.687 79.1385H295.687V78.6009L296.136 78.3044L296.687 79.1385ZM269.031 49.8773L288.748 19.4561L290.426 20.5439L270.709 50.9651L269.031 49.8773ZM250.876 19.4539L270.708 49.8751L269.033 50.9673L249.2 20.5461L250.876 19.4539ZM243 19H250.038V21H243V19ZM242 56.1565V20H244V56.1565H242ZM250.038 57.1565H243V55.1565H250.038V57.1565ZM251.038 31.9445V56.1565H249.038V31.9445H251.038ZM265.147 56.7065L249.203 32.4945L250.873 31.3946L266.817 55.6065L265.147 56.7065ZM273.705 57.1565L265.982 57.1565V55.1565L273.705 55.1565V57.1565ZM290.421 32.6916L274.539 56.7081L272.871 55.6049L288.753 31.5884L290.421 32.6916ZM288.587 56.1565V32.14H290.587V56.1565H288.587ZM296.687 57.1565H289.587V55.1565H296.687V57.1565ZM297.687 20V56.1565H295.687V20H297.687ZM289.587 19H296.687V21H289.587V19ZM320.704 64.2567H296.687V62.2567H320.704V64.2567ZM295.687 63.2567V56.1565H297.687V63.2567H295.687ZM296.687 55.1565H332.844V57.1565H296.687V55.1565ZM333.844 56.1565V63.2567H331.844V56.1565H333.844ZM333.388 64.0958L302.966 83.8126L301.879 82.1343L332.3 62.4175L333.388 64.0958ZM302.969 82.1358L333.39 101.968L332.298 103.643L301.876 83.8112L302.969 82.1358ZM333.844 102.806V109.843H331.844V102.806H333.844ZM332.844 110.843H296.687V108.843H332.844V110.843ZM295.687 146V109.843H297.687V146H295.687ZM289.587 145H296.687V147H289.587V145ZM270.709 115.035L290.426 145.456L288.748 146.544L269.031 116.123L270.709 115.035ZM249.2 145.454L269.033 115.033L270.708 116.125L250.876 146.546L249.2 145.454ZM243 145H250.038V147H243V145ZM244 109.843V146H242V109.843H244ZM250.038 110.843H243V108.843H250.038V110.843ZM249.038 134.055V109.843H251.038V134.055H249.038ZM266.817 110.393L250.873 134.605L249.203 133.505L265.147 109.293L266.817 110.393ZM273.705 110.843H265.982V108.843H273.705V110.843ZM288.753 134.412L272.871 110.395L274.539 109.292L290.421 133.308L288.753 134.412ZM290.587 109.843V133.86H288.587V109.843H290.587ZM296.687 110.843H289.587V108.843H296.687V110.843ZM295.687 109.843V102.806H297.687V109.843H295.687ZM296.687 101.806H320.899V103.806H296.687V101.806ZM320.349 103.641L296.137 87.6966L297.237 86.0263L321.449 101.97L320.349 103.641ZM295.687 86.8615V79.1385H297.687V86.8615H295.687ZM296.136 78.3044L320.152 62.4225L321.255 64.0908L297.239 79.9726L296.136 78.3044Z" fill="black" mask="url(#path-40-outside-2_994_1107)"/>
<mask id="path-42-outside-3_994_1107" maskUnits="userSpaceOnUse" x="101.156" y="19" width="56" height="128" fill="black">
<rect fill="white" x="101.156" y="19" width="56" height="128"/>
<path fill-rule="evenodd" clip-rule="evenodd" d="M128.973 50.4212L109.256 20H102.156V56.1565H109.256V32.14L125.138 56.1565H132.861L148.805 31.9445V56.1565H155.843V20H148.805L128.973 50.4212ZM128.973 115.579L109.256 146H102.156V109.843H109.256V133.86L125.138 109.843H132.861L148.805 134.055V109.843H155.843V146H148.805L128.973 115.579Z"/>
</mask>
<path fill-rule="evenodd" clip-rule="evenodd" d="M128.973 50.4212L109.256 20H102.156V56.1565H109.256V32.14L125.138 56.1565H132.861L148.805 31.9445V56.1565H155.843V20H148.805L128.973 50.4212ZM128.973 115.579L109.256 146H102.156V109.843H109.256V133.86L125.138 109.843H132.861L148.805 134.055V109.843H155.843V146H148.805L128.973 115.579Z" fill="black"/>
<path d="M109.256 20L110.096 19.4561L109.8 19H109.256V20ZM128.973 50.4212L128.134 50.9651L128.971 52.2561L129.811 50.9673L128.973 50.4212ZM102.156 20V19H101.156V20H102.156ZM102.156 56.1565H101.156V57.1565H102.156V56.1565ZM109.256 56.1565V57.1565H110.256V56.1565H109.256ZM109.256 32.14L110.09 31.5884L108.256 28.8149V32.14H109.256ZM125.138 56.1565L124.304 56.7081L124.601 57.1565H125.138V56.1565ZM132.861 56.1565V57.1565H133.4L133.696 56.7065L132.861 56.1565ZM148.805 31.9445H149.805V28.6078L147.97 31.3946L148.805 31.9445ZM148.805 56.1565H147.805V57.1565H148.805V56.1565ZM155.843 56.1565V57.1565H156.843V56.1565H155.843ZM155.843 20H156.843V19H155.843V20ZM148.805 20V19H148.264L147.968 19.4539L148.805 20ZM109.256 146V147H109.8L110.096 146.544L109.256 146ZM128.973 115.579L129.811 115.033L128.971 113.744L128.134 115.035L128.973 115.579ZM102.156 146H101.156V147H102.156V146ZM102.156 109.843V108.843H101.156V109.843H102.156ZM109.256 109.843H110.256V108.843H109.256V109.843ZM109.256 133.86H108.256V137.185L110.09 134.412L109.256 133.86ZM125.138 109.843V108.843H124.601L124.304 109.292L125.138 109.843ZM132.861 109.843L133.696 109.293L133.4 108.843H132.861V109.843ZM148.805 134.055L147.97 134.605L149.805 137.392V134.055H148.805ZM148.805 109.843V108.843H147.805V109.843H148.805ZM155.843 109.843H156.843V108.843H155.843V109.843ZM155.843 146V147H156.843V146H155.843ZM148.805 146L147.968 146.546L148.264 147H148.805V146ZM108.417 20.5439L128.134 50.9651L129.812 49.8773L110.096 19.4561L108.417 20.5439ZM102.156 21H109.256V19H102.156V21ZM103.156 56.1565V20H101.156V56.1565H103.156ZM109.256 55.1565H102.156V57.1565H109.256V55.1565ZM108.256 32.14V56.1565H110.256V32.14H108.256ZM125.972 55.6049L110.09 31.5884L108.422 32.6916L124.304 56.7081L125.972 55.6049ZM132.861 55.1565H125.138V57.1565H132.861V55.1565ZM147.97 31.3946L132.026 55.6065L133.696 56.7065L149.641 32.4945L147.97 31.3946ZM149.805 56.1565V31.9445H147.805V56.1565H149.805ZM155.843 55.1565H148.805V57.1565H155.843V55.1565ZM154.843 20V56.1565H156.843V20H154.843ZM148.805 21H155.843V19H148.805V21ZM129.811 50.9673L149.643 20.5461L147.968 19.4539L128.136 49.8751L129.811 50.9673ZM110.096 146.544L129.812 116.123L128.134 115.035L108.417 145.456L110.096 146.544ZM102.156 147H109.256V145H102.156V147ZM101.156 109.843V146H103.156V109.843H101.156ZM109.256 108.843H102.156V110.843H109.256V108.843ZM110.256 133.86V109.843H108.256V133.86H110.256ZM124.304 109.292L108.422 133.308L110.09 134.412L125.972 110.395L124.304 109.292ZM132.861 108.843H125.138V110.843H132.861V108.843ZM149.641 133.505L133.696 109.293L132.026 110.393L147.97 134.605L149.641 133.505ZM147.805 109.843V134.055H149.805V109.843H147.805ZM155.843 108.843H148.805V110.843H155.843V108.843ZM156.843 146V109.843H154.843V146H156.843ZM148.805 147H155.843V145H148.805V147ZM128.136 116.125L147.968 146.546L149.643 145.454L129.811 115.033L128.136 116.125Z" fill="black" mask="url(#path-42-outside-3_994_1107)"/>
<mask id="path-44-outside-4_994_1107" maskUnits="userSpaceOnUse" x="148" y="19" width="56" height="128" fill="black">
<rect fill="white" x="148" y="19" width="56" height="128"/>
<path fill-rule="evenodd" clip-rule="evenodd" d="M175.817 50.4212L156.1 20H149V56.1565H156.1V32.14L171.982 56.1565H179.705L195.649 31.9445V56.1565H202.687V20H195.649L175.817 50.4212ZM175.817 115.579L156.1 146H149V109.843H156.1V133.86L171.982 109.843H179.705L195.649 134.055V109.843H202.687V146H195.649L175.817 115.579Z"/>
</mask>
<path fill-rule="evenodd" clip-rule="evenodd" d="M175.817 50.4212L156.1 20H149V56.1565H156.1V32.14L171.982 56.1565H179.705L195.649 31.9445V56.1565H202.687V20H195.649L175.817 50.4212ZM175.817 115.579L156.1 146H149V109.843H156.1V133.86L171.982 109.843H179.705L195.649 134.055V109.843H202.687V146H195.649L175.817 115.579Z" fill="black"/>
<path d="M156.1 20L156.939 19.4561L156.644 19H156.1V20ZM175.817 50.4212L174.978 50.9651L175.815 52.2561L176.655 50.9673L175.817 50.4212ZM149 20V19H148V20H149ZM149 56.1565H148V57.1565H149V56.1565ZM156.1 56.1565V57.1565H157.1V56.1565H156.1ZM156.1 32.14L156.934 31.5884L155.1 28.8149V32.14H156.1ZM171.982 56.1565L171.148 56.7081L171.444 57.1565H171.982V56.1565ZM179.705 56.1565V57.1565H180.244L180.54 56.7065L179.705 56.1565ZM195.649 31.9445H196.649V28.6078L194.814 31.3946L195.649 31.9445ZM195.649 56.1565H194.649V57.1565H195.649V56.1565ZM202.687 56.1565V57.1565H203.687V56.1565H202.687ZM202.687 20H203.687V19H202.687V20ZM195.649 20V19H195.107L194.811 19.4539L195.649 20ZM156.1 146V147H156.644L156.939 146.544L156.1 146ZM175.817 115.579L176.655 115.033L175.815 113.744L174.978 115.035L175.817 115.579ZM149 146H148V147H149V146ZM149 109.843V108.843H148V109.843H149ZM156.1 109.843H157.1V108.843H156.1V109.843ZM156.1 133.86H155.1V137.185L156.934 134.412L156.1 133.86ZM171.982 109.843V108.843H171.444L171.148 109.292L171.982 109.843ZM179.705 109.843L180.54 109.293L180.244 108.843H179.705V109.843ZM195.649 134.055L194.814 134.605L196.649 137.392V134.055H195.649ZM195.649 109.843V108.843H194.649V109.843H195.649ZM202.687 109.843H203.687V108.843H202.687V109.843ZM202.687 146V147H203.687V146H202.687ZM195.649 146L194.811 146.546L195.107 147H195.649V146ZM155.261 20.5439L174.978 50.9651L176.656 49.8773L156.939 19.4561L155.261 20.5439ZM149 21H156.1V19H149V21ZM150 56.1565V20H148V56.1565H150ZM156.1 55.1565H149V57.1565H156.1V55.1565ZM155.1 32.14V56.1565H157.1V32.14H155.1ZM172.816 55.6049L156.934 31.5884L155.266 32.6916L171.148 56.7081L172.816 55.6049ZM179.705 55.1565H171.982V57.1565H179.705V55.1565ZM194.814 31.3946L178.87 55.6065L180.54 56.7065L196.484 32.4945L194.814 31.3946ZM196.649 56.1565V31.9445H194.649V56.1565H196.649ZM202.687 55.1565H195.649V57.1565H202.687V55.1565ZM201.687 20V56.1565H203.687V20H201.687ZM195.649 21H202.687V19H195.649V21ZM176.655 50.9673L196.487 20.5461L194.811 19.4539L174.979 49.8751L176.655 50.9673ZM156.939 146.544L176.656 116.123L174.978 115.035L155.261 145.456L156.939 146.544ZM149 147H156.1V145H149V147ZM148 109.843V146H150V109.843H148ZM156.1 108.843H149V110.843H156.1V108.843ZM157.1 133.86V109.843H155.1V133.86H157.1ZM171.148 109.292L155.266 133.308L156.934 134.412L172.816 110.395L171.148 109.292ZM179.705 108.843H171.982V110.843H179.705V108.843ZM196.484 133.505L180.54 109.293L178.87 110.393L194.814 134.605L196.484 133.505ZM194.649 109.843V134.055H196.649V109.843H194.649ZM202.687 108.843H195.649V110.843H202.687V108.843ZM203.687 146V109.843H201.687V146H203.687ZM195.649 147H202.687V145H195.649V147ZM174.979 116.125L194.811 146.546L196.487 145.454L176.655 115.033L174.979 116.125Z" fill="black" mask="url(#path-44-outside-4_994_1107)"/>
<mask id="path-46-outside-5_994_1107" maskUnits="userSpaceOnUse" x="195" y="19" width="56" height="128" fill="black">
<rect fill="white" x="195" y="19" width="56" height="128"/>
<path fill-rule="evenodd" clip-rule="evenodd" d="M222.817 50.4212L203.1 20H196V56.1565H203.1V32.14L218.982 56.1565H226.705L242.649 31.9445V56.1565H249.687V20H242.649L222.817 50.4212ZM222.817 115.579L203.1 146H196V109.843H203.1V133.86L218.982 109.843H226.705L242.649 134.055V109.843H249.687V146H242.649L222.817 115.579Z"/>
</mask>
<path fill-rule="evenodd" clip-rule="evenodd" d="M222.817 50.4212L203.1 20H196V56.1565H203.1V32.14L218.982 56.1565H226.705L242.649 31.9445V56.1565H249.687V20H242.649L222.817 50.4212ZM222.817 115.579L203.1 146H196V109.843H203.1V133.86L218.982 109.843H226.705L242.649 134.055V109.843H249.687V146H242.649L222.817 115.579Z" fill="black"/>
<path d="M203.1 20L203.939 19.4561L203.644 19H203.1V20ZM222.817 50.4212L221.978 50.9651L222.815 52.2561L223.655 50.9673L222.817 50.4212ZM196 20V19H195V20H196ZM196 56.1565H195V57.1565H196V56.1565ZM203.1 56.1565V57.1565H204.1V56.1565H203.1ZM203.1 32.14L203.934 31.5884L202.1 28.8149V32.14H203.1ZM218.982 56.1565L218.148 56.7081L218.444 57.1565H218.982V56.1565ZM226.705 56.1565V57.1565H227.244L227.54 56.7065L226.705 56.1565ZM242.649 31.9445H243.649V28.6078L241.814 31.3946L242.649 31.9445ZM242.649 56.1565H241.649V57.1565H242.649V56.1565ZM249.687 56.1565V57.1565H250.687V56.1565H249.687ZM249.687 20H250.687V19H249.687V20ZM242.649 20V19H242.107L241.811 19.4539L242.649 20ZM203.1 146V147H203.644L203.939 146.544L203.1 146ZM222.817 115.579L223.655 115.033L222.815 113.744L221.978 115.035L222.817 115.579ZM196 146H195V147H196V146ZM196 109.843V108.843H195V109.843H196ZM203.1 109.843H204.1V108.843H203.1V109.843ZM203.1 133.86H202.1V137.185L203.934 134.412L203.1 133.86ZM218.982 109.843V108.843H218.444L218.148 109.292L218.982 109.843ZM226.705 109.843L227.54 109.293L227.244 108.843H226.705V109.843ZM242.649 134.055L241.814 134.605L243.649 137.392V134.055H242.649ZM242.649 109.843V108.843H241.649V109.843H242.649ZM249.687 109.843H250.687V108.843H249.687V109.843ZM249.687 146V147H250.687V146H249.687ZM242.649 146L241.811 146.546L242.107 147H242.649V146ZM202.261 20.5439L221.978 50.9651L223.656 49.8773L203.939 19.4561L202.261 20.5439ZM196 21H203.1V19H196V21ZM197 56.1565V20H195V56.1565H197ZM203.1 55.1565H196V57.1565H203.1V55.1565ZM202.1 32.14V56.1565H204.1V32.14H202.1ZM219.816 55.6049L203.934 31.5884L202.266 32.6916L218.148 56.7081L219.816 55.6049ZM226.705 55.1565H218.982V57.1565H226.705V55.1565ZM241.814 31.3946L225.87 55.6065L227.54 56.7065L243.484 32.4945L241.814 31.3946ZM243.649 56.1565V31.9445H241.649V56.1565H243.649ZM249.687 55.1565H242.649V57.1565H249.687V55.1565ZM248.687 20V56.1565H250.687V20H248.687ZM242.649 21H249.687V19H242.649V21ZM223.655 50.9673L243.487 20.5461L241.811 19.4539L221.979 49.8751L223.655 50.9673ZM203.939 146.544L223.656 116.123L221.978 115.035L202.261 145.456L203.939 146.544ZM196 147H203.1V145H196V147ZM195 109.843V146H197V109.843H195ZM203.1 108.843H196V110.843H203.1V108.843ZM204.1 133.86V109.843H202.1V133.86H204.1ZM218.148 109.292L202.266 133.308L203.934 134.412L219.816 110.395L218.148 109.292ZM226.705 108.843H218.982V110.843H226.705V108.843ZM243.484 133.505L227.54 109.293L225.87 110.393L241.814 134.605L243.484 133.505ZM241.649 109.843V134.055H243.649V109.843H241.649ZM249.687 108.843H242.649V110.843H249.687V108.843ZM250.687 146V109.843H248.687V146H250.687ZM242.649 147H249.687V145H242.649V147ZM221.979 116.125L241.811 146.546L243.487 145.454L223.655 115.033L221.979 116.125Z" fill="black" mask="url(#path-46-outside-5_994_1107)"/>
<rect x="55" y="53" width="242" height="57" fill="#FFD600"/>
<mask id="path-49-outside-6_994_1107" maskUnits="userSpaceOnUse" x="380" y="223" width="316" height="175" fill="black">
<rect fill="white" x="380" y="223" width="316" height="175"/>
<path fill-rule="evenodd" clip-rule="evenodd" d="M424.257 224L443.973 254.421L463.806 224H464.156H470.843H471.256L490.973 254.421L510.805 224H511H517.843H518.1L537.817 254.421L557.649 224H558H564.687H565.1L584.817 254.421L604.649 224H605H611.687H612.038L631.87 254.421L651.587 224H658.687V260.157H651.587V236.14L635.705 260.157H627.982L612.038 235.945V260.157H611.687H605H604.649V235.945L588.705 260.157H580.982L565.1 236.14V260.157H564.687H558H557.649V235.945L541.705 260.157H533.982L518.1 236.14V260.157H517.843H511H510.805V235.945L494.861 260.157H487.138L471.256 236.14V260.157H470.843H464.156H463.806V235.945L447.861 260.157H440.139L424.257 236.14V260.157H417.157V224H424.257ZM417.157 260.157V267.257H393.14L417.157 283.139V290.861L392.945 306.806H417.157V307V313.843V314.038H392.945L417.157 329.982V337.705L393.14 353.587H417.157V360.687H381V353.587L411.421 333.87L381 314.038V313.843V307V306.806L411.421 286.973L381 267.257V260.157H417.157ZM658.687 260.157H694.844V267.257L664.423 286.973L694.844 306.806V313.843H694.84V314.038L664.419 333.87L694.84 353.587V360.687H658.683V353.587H682.7L658.683 337.705V329.982L682.895 314.038H658.683V307H658.687V306.806H682.899L658.687 290.861V283.139L682.704 267.257H658.687V260.157ZM424.25 396.857L443.966 366.436L463.799 396.857H464.149H470.836H471.25L490.966 366.436L510.799 396.857H510.993H517.836H518.093L537.81 366.436L557.642 396.857H557.993H564.68H565.093L584.81 366.436L604.642 396.857H604.994H611.68H612.032L631.864 366.436L651.581 396.857H658.681V360.7H651.581V384.717L635.699 360.7H627.976L612.032 384.912V360.7H611.68H604.994H604.642V384.912L588.698 360.7H580.975L565.093 384.717V360.7H564.68H557.993H557.642V384.912L541.698 360.7H533.975L518.093 384.717V360.7H517.836H510.993H510.799V384.912L494.854 360.7H487.131L471.25 384.717V360.7H470.836H464.149H463.799V384.912L447.854 360.7H440.131L424.25 384.717V360.7H417.149V396.857H424.25Z"/>
</mask>
<path fill-rule="evenodd" clip-rule="evenodd" d="M424.257 224L443.973 254.421L463.806 224H464.156H470.843H471.256L490.973 254.421L510.805 224H511H517.843H518.1L537.817 254.421L557.649 224H558H564.687H565.1L584.817 254.421L604.649 224H605H611.687H612.038L631.87 254.421L651.587 224H658.687V260.157H651.587V236.14L635.705 260.157H627.982L612.038 235.945V260.157H611.687H605H604.649V235.945L588.705 260.157H580.982L565.1 236.14V260.157H564.687H558H557.649V235.945L541.705 260.157H533.982L518.1 236.14V260.157H517.843H511H510.805V235.945L494.861 260.157H487.138L471.256 236.14V260.157H470.843H464.156H463.806V235.945L447.861 260.157H440.139L424.257 236.14V260.157H417.157V224H424.257ZM417.157 260.157V267.257H393.14L417.157 283.139V290.861L392.945 306.806H417.157V307V313.843V314.038H392.945L417.157 329.982V337.705L393.14 353.587H417.157V360.687H381V353.587L411.421 333.87L381 314.038V313.843V307V306.806L411.421 286.973L381 267.257V260.157H417.157ZM658.687 260.157H694.844V267.257L664.423 286.973L694.844 306.806V313.843H694.84V314.038L664.419 333.87L694.84 353.587V360.687H658.683V353.587H682.7L658.683 337.705V329.982L682.895 314.038H658.683V307H658.687V306.806H682.899L658.687 290.861V283.139L682.704 267.257H658.687V260.157ZM424.25 396.857L443.966 366.436L463.799 396.857H464.149H470.836H471.25L490.966 366.436L510.799 396.857H510.993H517.836H518.093L537.81 366.436L557.642 396.857H557.993H564.68H565.093L584.81 366.436L604.642 396.857H604.994H611.68H612.032L631.864 366.436L651.581 396.857H658.681V360.7H651.581V384.717L635.699 360.7H627.976L612.032 384.912V360.7H611.68H604.994H604.642V384.912L588.698 360.7H580.975L565.093 384.717V360.7H564.68H557.993H557.642V384.912L541.698 360.7H533.975L518.093 384.717V360.7H517.836H510.993H510.799V384.912L494.854 360.7H487.131L471.25 384.717V360.7H470.836H464.149H463.799V384.912L447.854 360.7H440.131L424.25 384.717V360.7H417.149V396.857H424.25Z" fill="black"/>
<path d="M443.973 254.421L443.134 254.965L443.971 256.256L444.811 254.967L443.973 254.421ZM424.257 224L425.096 223.456L424.8 223H424.257V224ZM463.806 224V223H463.264L462.968 223.454L463.806 224ZM471.256 224L472.096 223.456L471.8 223H471.256V224ZM490.973 254.421L490.134 254.965L490.971 256.256L491.811 254.967L490.973 254.421ZM510.805 224V223H510.264L509.968 223.454L510.805 224ZM518.1 224L518.939 223.456L518.644 223H518.1V224ZM537.817 254.421L536.978 254.965L537.815 256.256L538.655 254.967L537.817 254.421ZM557.649 224V223H557.107L556.811 223.454L557.649 224ZM565.1 224L565.939 223.456L565.644 223H565.1V224ZM584.817 254.421L583.978 254.965L584.815 256.256L585.655 254.967L584.817 254.421ZM604.649 224V223H604.107L603.811 223.454L604.649 224ZM612.038 224L612.876 223.454L612.58 223H612.038V224ZM631.87 254.421L631.033 254.967L631.873 256.256L632.709 254.965L631.87 254.421ZM651.587 224V223H651.044L650.748 223.456L651.587 224ZM658.687 224H659.687V223H658.687V224ZM651.587 260.157H650.587V261.157H651.587V260.157ZM651.587 236.14H652.587V232.815L650.753 235.588L651.587 236.14ZM635.705 260.157V261.157H636.243L636.539 260.708L635.705 260.157ZM627.982 260.157L627.147 260.707L627.443 261.157H627.982V260.157ZM612.038 235.945L612.873 235.395L611.038 232.608V235.945H612.038ZM612.038 260.157V261.157H613.038V260.157H612.038ZM604.649 260.157H603.649V261.157H604.649V260.157ZM604.649 235.945H605.649V232.608L603.814 235.395L604.649 235.945ZM588.705 260.157V261.157H589.244L589.54 260.707L588.705 260.157ZM580.982 260.157L580.148 260.708L580.444 261.157H580.982V260.157ZM565.1 236.14L565.934 235.588L564.1 232.815V236.14H565.1ZM565.1 260.157V261.157H566.1V260.157H565.1ZM557.649 260.157H556.649V261.157H557.649V260.157ZM557.649 235.945H558.649V232.608L556.814 235.395L557.649 235.945ZM541.705 260.157V261.157H542.244L542.54 260.707L541.705 260.157ZM533.982 260.157L533.148 260.708L533.444 261.157H533.982V260.157ZM518.1 236.14L518.934 235.588L517.1 232.815V236.14H518.1ZM518.1 260.157V261.157H519.1V260.157H518.1ZM510.805 260.157H509.805V261.157H510.805V260.157ZM510.805 235.945H511.805V232.608L509.97 235.395L510.805 235.945ZM494.861 260.157V261.157H495.4L495.696 260.707L494.861 260.157ZM487.138 260.157L486.304 260.708L486.601 261.157H487.138V260.157ZM471.256 236.14L472.09 235.588L470.256 232.815V236.14H471.256ZM471.256 260.157V261.157H472.256V260.157H471.256ZM463.806 260.157H462.806V261.157H463.806V260.157ZM463.806 235.945H464.806V232.608L462.97 235.395L463.806 235.945ZM447.861 260.157V261.157H448.4L448.697 260.707L447.861 260.157ZM440.139 260.157L439.304 260.708L439.601 261.157H440.139V260.157ZM424.257 236.14L425.091 235.588L423.257 232.815V236.14H424.257ZM424.257 260.157V261.157H425.257V260.157H424.257ZM417.157 224V223H416.157V224H417.157ZM417.157 267.257V268.257H418.157V267.257H417.157ZM393.14 267.257V266.257H389.815L392.588 268.091L393.14 267.257ZM417.157 283.139H418.157V282.601L417.708 282.304L417.157 283.139ZM417.157 290.861L417.707 291.697L418.157 291.4V290.861H417.157ZM392.945 306.806L392.395 305.97L389.608 307.806H392.945V306.806ZM417.157 306.806H418.157V305.806H417.157V306.806ZM417.157 314.038V315.038H418.157V314.038H417.157ZM392.945 314.038V313.038H389.608L392.395 314.873L392.945 314.038ZM417.157 329.982H418.157V329.443L417.707 329.147L417.157 329.982ZM417.157 337.705L417.708 338.539L418.157 338.243V337.705H417.157ZM393.14 353.587L392.588 352.753L389.815 354.587H393.14V353.587ZM417.157 353.587H418.157V352.587H417.157V353.587ZM417.157 360.687V361.687H418.157V360.687H417.157ZM381 360.687H380V361.687H381V360.687ZM381 353.587L380.456 352.748L380 353.043V353.587H381ZM411.421 333.87L411.965 334.709L413.256 333.872L411.967 333.032L411.421 333.87ZM381 314.038H380V314.58L380.454 314.876L381 314.038ZM381 306.806L380.454 305.968L380 306.264V306.806H381ZM411.421 286.973L411.967 287.811L413.256 286.971L411.965 286.134L411.421 286.973ZM381 267.257H380V267.8L380.456 268.096L381 267.257ZM381 260.157V259.157H380V260.157H381ZM694.844 260.157H695.844V259.157H694.844V260.157ZM694.844 267.257L695.388 268.096L695.844 267.8V267.257H694.844ZM664.423 286.973L663.879 286.134L662.588 286.971L663.876 287.811L664.423 286.973ZM694.844 306.806H695.844V306.264L695.39 305.968L694.844 306.806ZM694.844 313.843V314.843H695.844V313.843H694.844ZM694.84 313.843V312.843H693.84V313.843H694.84ZM694.84 314.038L695.386 314.876L695.84 314.58V314.038H694.84ZM664.419 333.87L663.872 333.032L662.584 333.872L663.875 334.709L664.419 333.87ZM694.84 353.587H695.84V353.043L695.384 352.748L694.84 353.587ZM694.84 360.687V361.687H695.84V360.687H694.84ZM658.683 360.687H657.683V361.687H658.683V360.687ZM658.683 353.587V352.587H657.683V353.587H658.683ZM682.7 353.587V354.587H686.025L683.251 352.753L682.7 353.587ZM658.683 337.705H657.683V338.243L658.132 338.539L658.683 337.705ZM658.683 329.982L658.133 329.147L657.683 329.443V329.982H658.683ZM682.895 314.038L683.445 314.873L686.232 313.038H682.895V314.038ZM658.683 314.038H657.683V315.038H658.683V314.038ZM658.683 307V306H657.683V307H658.683ZM658.687 307V308H659.687V307H658.687ZM658.687 306.806V305.806H657.687V306.806H658.687ZM682.899 306.806V307.806H686.236L683.449 305.97L682.899 306.806ZM658.687 290.861H657.687V291.4L658.137 291.697L658.687 290.861ZM658.687 283.139L658.136 282.304L657.687 282.601V283.139H658.687ZM682.704 267.257L683.255 268.091L686.029 266.257H682.704V267.257ZM658.687 267.257H657.687V268.257H658.687V267.257ZM443.966 366.436L444.804 365.889L443.964 364.601L443.127 365.892L443.966 366.436ZM424.25 396.857V397.857H424.793L425.089 397.401L424.25 396.857ZM463.799 396.857L462.961 397.403L463.257 397.857H463.799V396.857ZM471.25 396.857V397.857H471.793L472.089 397.401L471.25 396.857ZM490.966 366.436L491.804 365.889L490.964 364.601L490.127 365.892L490.966 366.436ZM510.799 396.857L509.961 397.403L510.257 397.857H510.799V396.857ZM518.093 396.857V397.857H518.637L518.932 397.401L518.093 396.857ZM537.81 366.436L538.648 365.889L537.808 364.601L536.971 365.892L537.81 366.436ZM557.642 396.857L556.805 397.403L557.1 397.857H557.642V396.857ZM565.093 396.857V397.857H565.637L565.932 397.401L565.093 396.857ZM584.81 366.436L585.648 365.889L584.808 364.601L583.971 365.892L584.81 366.436ZM604.642 396.857L603.805 397.403L604.1 397.857H604.642V396.857ZM612.032 396.857V397.857H612.573L612.869 397.403L612.032 396.857ZM631.864 366.436L632.703 365.892L631.866 364.601L631.026 365.889L631.864 366.436ZM651.581 396.857L650.741 397.401L651.037 397.857H651.581V396.857ZM658.681 396.857V397.857H659.681V396.857H658.681ZM658.681 360.7H659.681V359.7H658.681V360.7ZM651.581 360.7V359.7H650.581V360.7H651.581ZM651.581 384.717L650.746 385.268L652.581 388.042V384.717H651.581ZM635.699 360.7L636.533 360.149L636.236 359.7H635.699V360.7ZM627.976 360.7V359.7H627.437L627.141 360.15L627.976 360.7ZM612.032 384.912H611.032V388.249L612.867 385.462L612.032 384.912ZM612.032 360.7H613.032V359.7H612.032V360.7ZM604.642 360.7V359.7H603.642V360.7H604.642ZM604.642 384.912L603.807 385.462L605.642 388.249V384.912H604.642ZM588.698 360.7L589.533 360.15L589.237 359.7H588.698V360.7ZM580.975 360.7V359.7H580.438L580.141 360.149L580.975 360.7ZM565.093 384.717H564.093V388.042L565.927 385.268L565.093 384.717ZM565.093 360.7H566.093V359.7H565.093V360.7ZM557.642 360.7V359.7H556.642V360.7H557.642ZM557.642 384.912L556.807 385.462L558.642 388.249V384.912H557.642ZM541.698 360.7L542.533 360.15L542.237 359.7H541.698V360.7ZM533.975 360.7V359.7H533.438L533.141 360.149L533.975 360.7ZM518.093 384.717H517.093V388.042L518.927 385.268L518.093 384.717ZM518.093 360.7H519.093V359.7H518.093V360.7ZM510.799 360.7V359.7H509.799V360.7H510.799ZM510.799 384.912L509.963 385.462L511.799 388.249V384.912H510.799ZM494.854 360.7L495.69 360.15L495.393 359.7H494.854V360.7ZM487.131 360.7V359.7H486.594L486.297 360.149L487.131 360.7ZM471.25 384.717H470.25V388.042L472.084 385.268L471.25 384.717ZM471.25 360.7H472.25V359.7H471.25V360.7ZM463.799 360.7V359.7H462.799V360.7H463.799ZM463.799 384.912L462.963 385.462L464.799 388.249V384.912H463.799ZM447.854 360.7L448.69 360.15L448.393 359.7H447.854V360.7ZM440.131 360.7V359.7H439.594L439.297 360.149L440.131 360.7ZM424.25 384.717H423.25V388.042L425.084 385.268L424.25 384.717ZM424.25 360.7H425.25V359.7H424.25V360.7ZM417.149 360.7V359.7H416.149V360.7H417.149ZM417.149 396.857H416.149V397.857H417.149V396.857ZM444.813 253.877L425.096 223.456L423.417 224.544L443.134 254.965L444.813 253.877ZM462.968 223.454L443.136 253.875L444.811 254.967L464.643 224.546L462.968 223.454ZM464.156 223H463.806V225H464.156V223ZM470.843 223H464.156V225H470.843V223ZM471.256 223H470.843V225H471.256V223ZM491.812 253.877L472.096 223.456L470.417 224.544L490.134 254.965L491.812 253.877ZM509.968 223.454L490.136 253.875L491.811 254.967L511.643 224.546L509.968 223.454ZM511 223H510.805V225H511V223ZM517.843 223H511V225H517.843V223ZM518.1 223H517.843V225H518.1V223ZM538.656 253.877L518.939 223.456L517.261 224.544L536.978 254.965L538.656 253.877ZM556.811 223.454L536.979 253.875L538.655 254.967L558.487 224.546L556.811 223.454ZM558 223H557.649V225H558V223ZM558 225H564.687V223H558V225ZM564.687 225H565.1V223H564.687V225ZM564.261 224.544L583.978 254.965L585.656 253.877L565.939 223.456L564.261 224.544ZM585.655 254.967L605.487 224.546L603.811 223.454L583.979 253.875L585.655 254.967ZM604.649 225H605V223H604.649V225ZM605 225H611.687V223H605V225ZM612.038 223H611.687V225H612.038V223ZM632.708 253.875L612.876 223.454L611.2 224.546L631.033 254.967L632.708 253.875ZM650.748 223.456L631.031 253.877L632.709 254.965L652.426 224.544L650.748 223.456ZM658.687 223H651.587V225H658.687V223ZM659.687 260.157V224H657.687V260.157H659.687ZM651.587 261.157H658.687V259.157H651.587V261.157ZM650.587 236.14V260.157H652.587V236.14H650.587ZM636.539 260.708L652.421 236.692L650.753 235.588L634.871 259.605L636.539 260.708ZM627.982 261.157H635.705V259.157H627.982V261.157ZM611.203 236.495L627.147 260.707L628.817 259.607L612.873 235.395L611.203 236.495ZM613.038 260.157V235.945H611.038V260.157H613.038ZM611.687 261.157H612.038V259.157H611.687V261.157ZM611.687 259.157H605V261.157H611.687V259.157ZM605 259.157H604.649V261.157H605V259.157ZM605.649 260.157V235.945H603.649V260.157H605.649ZM603.814 235.395L587.87 259.607L589.54 260.707L605.484 236.495L603.814 235.395ZM588.705 259.157H580.982V261.157H588.705V259.157ZM581.816 259.605L565.934 235.588L564.266 236.692L580.148 260.708L581.816 259.605ZM564.1 236.14V260.157H566.1V236.14H564.1ZM565.1 259.157H564.687V261.157H565.1V259.157ZM564.687 259.157H558V261.157H564.687V259.157ZM557.649 261.157H558V259.157H557.649V261.157ZM556.649 235.945V260.157H558.649V235.945H556.649ZM542.54 260.707L558.484 236.495L556.814 235.395L540.87 259.607L542.54 260.707ZM533.982 261.157H541.705V259.157H533.982V261.157ZM517.266 236.692L533.148 260.708L534.816 259.605L518.934 235.588L517.266 236.692ZM519.1 260.157V236.14H517.1V260.157H519.1ZM517.843 261.157H518.1V259.157H517.843V261.157ZM511 261.157H517.843V259.157H511V261.157ZM510.805 261.157H511V259.157H510.805V261.157ZM509.805 235.945V260.157H511.805V235.945H509.805ZM495.696 260.707L511.641 236.495L509.97 235.395L494.026 259.607L495.696 260.707ZM487.138 261.157H494.861V259.157H487.138V261.157ZM470.422 236.692L486.304 260.708L487.972 259.605L472.09 235.588L470.422 236.692ZM472.256 260.157V236.14H470.256V260.157H472.256ZM470.843 261.157H471.256V259.157H470.843V261.157ZM464.156 261.157H470.843V259.157H464.156V261.157ZM463.806 261.157H464.156V259.157H463.806V261.157ZM462.806 235.945V260.157H464.806V235.945H462.806ZM448.697 260.707L464.641 236.495L462.97 235.395L447.026 259.607L448.697 260.707ZM440.139 261.157H447.861V259.157H440.139V261.157ZM423.423 236.692L439.304 260.708L440.973 259.605L425.091 235.588L423.423 236.692ZM425.257 260.157V236.14H423.257V260.157H425.257ZM417.157 261.157H424.257V259.157H417.157V261.157ZM416.157 224V260.157H418.157V224H416.157ZM424.257 223H417.157V225H424.257V223ZM418.157 267.257V260.157H416.157V267.257H418.157ZM393.14 268.257H417.157V266.257H393.14V268.257ZM417.708 282.304L393.692 266.423L392.588 268.091L416.605 283.973L417.708 282.304ZM418.157 290.861V283.139H416.157V290.861H418.157ZM393.495 307.641L417.707 291.697L416.607 290.026L392.395 305.97L393.495 307.641ZM417.157 305.806H392.945V307.806H417.157V305.806ZM418.157 307V306.806H416.157V307H418.157ZM418.157 313.843V307H416.157V313.843H418.157ZM418.157 314.038V313.843H416.157V314.038H418.157ZM392.945 315.038H417.157V313.038H392.945V315.038ZM417.707 329.147L393.495 313.203L392.395 314.873L416.607 330.817L417.707 329.147ZM418.157 337.705V329.982H416.157V337.705H418.157ZM393.692 354.421L417.708 338.539L416.605 336.871L392.588 352.753L393.692 354.421ZM417.157 352.587H393.14V354.587H417.157V352.587ZM418.157 360.687V353.587H416.157V360.687H418.157ZM381 361.687H417.157V359.687H381V361.687ZM380 353.587V360.687H382V353.587H380ZM410.877 333.031L380.456 352.748L381.544 354.426L411.965 334.709L410.877 333.031ZM380.454 314.876L410.875 334.708L411.967 333.032L381.546 313.2L380.454 314.876ZM380 313.843V314.038H382V313.843H380ZM380 307V313.843H382V307H380ZM380 306.806V307H382V306.806H380ZM410.875 286.136L380.454 305.968L381.546 307.643L411.967 287.811L410.875 286.136ZM380.456 268.096L410.877 287.813L411.965 286.134L381.544 266.417L380.456 268.096ZM380 260.157V267.257H382V260.157H380ZM417.157 259.157H381V261.157H417.157V259.157ZM694.844 259.157H658.687V261.157H694.844V259.157ZM695.844 267.257V260.157H693.844V267.257H695.844ZM664.966 287.813L695.388 268.096L694.3 266.417L663.879 286.134L664.966 287.813ZM695.39 305.968L664.969 286.136L663.876 287.811L694.298 307.643L695.39 305.968ZM695.844 313.843V306.806H693.844V313.843H695.844ZM694.84 314.843H694.844V312.843H694.84V314.843ZM695.84 314.038V313.843H693.84V314.038H695.84ZM664.965 334.708L695.386 314.876L694.294 313.2L663.872 333.032L664.965 334.708ZM695.384 352.748L664.962 333.031L663.875 334.709L694.296 354.426L695.384 352.748ZM695.84 360.687V353.587H693.84V360.687H695.84ZM658.683 361.687H694.84V359.687H658.683V361.687ZM657.683 353.587V360.687H659.683V353.587H657.683ZM682.7 352.587H658.683V354.587H682.7V352.587ZM658.132 338.539L682.148 354.421L683.251 352.753L659.235 336.871L658.132 338.539ZM657.683 329.982V337.705H659.683V329.982H657.683ZM682.345 313.203L658.133 329.147L659.233 330.817L683.445 314.873L682.345 313.203ZM658.683 315.038H682.895V313.038H658.683V315.038ZM657.683 307V314.038H659.683V307H657.683ZM658.687 306H658.683V308H658.687V306ZM657.687 306.806V307H659.687V306.806H657.687ZM682.899 305.806H658.687V307.806H682.899V305.806ZM658.137 291.697L682.349 307.641L683.449 305.97L659.237 290.026L658.137 291.697ZM657.687 283.139V290.861H659.687V283.139H657.687ZM682.152 266.423L658.136 282.304L659.239 283.973L683.255 268.091L682.152 266.423ZM658.687 268.257H682.704V266.257H658.687V268.257ZM657.687 260.157V267.257H659.687V260.157H657.687ZM443.127 365.892L423.41 396.313L425.089 397.401L444.806 366.979L443.127 365.892ZM464.636 396.311L444.804 365.889L443.129 366.982L462.961 397.403L464.636 396.311ZM464.149 395.857H463.799V397.857H464.149V395.857ZM470.836 395.857H464.149V397.857H470.836V395.857ZM471.25 395.857H470.836V397.857H471.25V395.857ZM490.127 365.892L470.41 396.313L472.089 397.401L491.806 366.979L490.127 365.892ZM511.636 396.311L491.804 365.889L490.129 366.982L509.961 397.403L511.636 396.311ZM510.993 395.857H510.799V397.857H510.993V395.857ZM517.836 395.857H510.993V397.857H517.836V395.857ZM518.093 395.857H517.836V397.857H518.093V395.857ZM536.971 365.892L517.254 396.313L518.932 397.401L538.649 366.979L536.971 365.892ZM558.48 396.311L538.648 365.889L536.972 366.982L556.805 397.403L558.48 396.311ZM557.993 395.857H557.642V397.857H557.993V395.857ZM564.68 395.857H557.993V397.857H564.68V395.857ZM565.093 395.857H564.68V397.857H565.093V395.857ZM583.971 365.892L564.254 396.313L565.932 397.401L585.649 366.979L583.971 365.892ZM605.48 396.311L585.648 365.889L583.972 366.982L603.805 397.403L605.48 396.311ZM604.994 395.857H604.642V397.857H604.994V395.857ZM611.68 395.857H604.994V397.857H611.68V395.857ZM612.032 395.857H611.68V397.857H612.032V395.857ZM631.026 365.889L611.194 396.311L612.869 397.403L632.701 366.982L631.026 365.889ZM652.42 396.313L632.703 365.892L631.025 366.979L650.741 397.401L652.42 396.313ZM658.681 395.857H651.581V397.857H658.681V395.857ZM657.681 360.7V396.857H659.681V360.7H657.681ZM651.581 361.7H658.681V359.7H651.581V361.7ZM652.581 384.717V360.7H650.581V384.717H652.581ZM634.865 361.252L650.746 385.268L652.415 384.165L636.533 360.149L634.865 361.252ZM627.976 361.7H635.699V359.7H627.976V361.7ZM612.867 385.462L628.811 361.25L627.141 360.15L611.196 384.362L612.867 385.462ZM611.032 360.7V384.912H613.032V360.7H611.032ZM611.68 361.7H612.032V359.7H611.68V361.7ZM604.994 361.7H611.68V359.7H604.994V361.7ZM604.642 361.7H604.994V359.7H604.642V361.7ZM605.642 384.912V360.7H603.642V384.912H605.642ZM587.863 361.25L603.807 385.462L605.477 384.362L589.533 360.15L587.863 361.25ZM580.975 361.7H588.698V359.7H580.975V361.7ZM565.927 385.268L581.809 361.252L580.141 360.149L564.259 384.165L565.927 385.268ZM564.093 360.7V384.717H566.093V360.7H564.093ZM564.68 361.7H565.093V359.7H564.68V361.7ZM557.993 361.7H564.68V359.7H557.993V361.7ZM557.642 361.7H557.993V359.7H557.642V361.7ZM558.642 384.912V360.7H556.642V384.912H558.642ZM540.863 361.25L556.807 385.462L558.477 384.362L542.533 360.15L540.863 361.25ZM533.975 361.7H541.698V359.7H533.975V361.7ZM518.927 385.268L534.809 361.252L533.141 360.149L517.259 384.165L518.927 385.268ZM517.093 360.7V384.717H519.093V360.7H517.093ZM517.836 361.7H518.093V359.7H517.836V361.7ZM510.993 361.7H517.836V359.7H510.993V361.7ZM510.799 361.7H510.993V359.7H510.799V361.7ZM511.799 384.912V360.7H509.799V384.912H511.799ZM494.019 361.25L509.963 385.462L511.634 384.362L495.69 360.15L494.019 361.25ZM487.131 361.7H494.854V359.7H487.131V361.7ZM472.084 385.268L487.966 361.252L486.297 360.149L470.415 384.165L472.084 385.268ZM470.25 360.7V384.717H472.25V360.7H470.25ZM470.836 361.7H471.25V359.7H470.836V361.7ZM464.149 361.7H470.836V359.7H464.149V361.7ZM463.799 361.7H464.149V359.7H463.799V361.7ZM464.799 384.912V360.7H462.799V384.912H464.799ZM447.019 361.25L462.963 385.462L464.634 384.362L448.69 360.15L447.019 361.25ZM440.131 361.7H447.854V359.7H440.131V361.7ZM425.084 385.268L440.966 361.252L439.297 360.149L423.415 384.165L425.084 385.268ZM423.25 360.7V384.717H425.25V360.7H423.25ZM417.149 361.7H424.25V359.7H417.149V361.7ZM418.149 396.857V360.7H416.149V396.857H418.149ZM424.25 395.857H417.149V397.857H424.25V395.857Z" fill="black" mask="url(#path-49-outside-6_994_1107)"/>
<path d="M60.36 61.12H101.592V65.776H60.36V61.12ZM73.608 90.16C78.84 96.064 89.928 98.704 103.896 99.232C102.792 100.48 101.448 102.832 100.728 104.32C86.184 103.36 75.384 99.904 68.808 91.888L73.608 90.16ZM90.024 87.952H91.176L92.184 87.664L95.784 89.92C89.208 99.616 75.048 103.024 60.408 104.32C59.976 102.976 59.112 100.96 58.248 99.76C71.688 98.992 85.032 96.016 90.024 88.672V87.952ZM73.944 84.496L79.608 85.648C75.624 90.4 70.2 93.952 62.088 96.64C61.368 95.344 59.832 93.424 58.728 92.608C66.264 90.64 71.256 87.664 73.944 84.496ZM77.64 63.664L84.408 63.52C83.688 66.016 82.728 68.224 82.056 69.808L76.68 69.52C77.064 67.696 77.496 65.392 77.64 63.664ZM70.152 75.952V77.776H91.704V75.952H70.152ZM70.152 81.04V82.912H91.704V81.04H70.152ZM70.152 70.864V72.688H91.704V70.864H70.152ZM64.584 67.648H97.512V86.176H64.584V67.648ZM74.328 87.952H92.088V91.84H70.44L74.328 87.952ZM108.072 90.016H150.888V94.864H108.072V90.016ZM116.568 81.568H138.168V86.032H116.568V81.568ZM126.6 87.664H132.264V98.752C132.264 101.536 131.592 102.88 129.432 103.6C127.272 104.32 124.248 104.368 120.216 104.368C119.88 102.832 119.016 100.72 118.2 99.328C121.08 99.472 124.536 99.472 125.448 99.424C126.36 99.424 126.6 99.184 126.6 98.56V87.664ZM136.152 81.568H137.592L138.744 81.28L142.152 84.208C139.032 86.752 134.808 89.488 130.872 91.264C130.248 90.352 128.856 88.816 128.088 88.096C131.064 86.704 134.568 84.208 136.152 82.576V81.568ZM108.168 68.992H150.84V73.696H108.168V68.992ZM126.456 63.616H132.12V80.416H126.456V63.616ZM124.2 70.672L128.664 72.64C124.344 78.112 117.048 82.864 110.184 85.36C109.368 84.064 107.736 82.048 106.584 80.992C113.304 79.024 120.504 74.992 124.2 70.672ZM134.664 70.816C138.312 74.944 145.368 78.688 152.088 80.512C150.888 81.568 149.304 83.68 148.488 85.024C141.576 82.672 134.52 78.064 130.2 72.736L134.664 70.816ZM141.576 59.296L146.328 63.328C136.968 65.536 123.624 66.4 112.344 66.592C112.248 65.296 111.576 63.184 111.048 62.032C121.944 61.84 134.568 60.928 141.576 59.296ZM175.176 63.52H198.312V68.752H175.176V63.52ZM172.296 72.832H200.424V78.16H172.296V72.832ZM173.352 82.48H199.944V87.808H173.352V82.48ZM183.72 59.2H189.432V75.76H183.72V59.2ZM189.432 77.584H195.144V97.888C195.144 100.816 194.568 102.4 192.648 103.264C190.728 104.128 187.992 104.272 184.344 104.272C184.152 102.592 183.384 100.144 182.616 98.56C184.968 98.656 187.608 98.656 188.424 98.608C189.192 98.608 189.432 98.464 189.432 97.792V77.584ZM175.032 90.4L179.304 87.76C181.416 89.872 183.96 92.896 185.112 95.008L180.552 97.984C179.544 95.872 177.096 92.704 175.032 90.4ZM155.208 84.832C159.912 83.776 166.92 81.808 173.544 79.936L174.312 84.976C168.264 86.896 161.688 88.864 156.6 90.352L155.208 84.832ZM163.848 59.248H169.128V104.32H163.848V59.248ZM157.512 61.744L162.312 62.56C161.688 68.896 160.536 75.568 158.808 79.888C157.944 79.168 155.88 77.872 154.728 77.296C156.264 73.408 157.08 67.408 157.512 61.744ZM158.808 68.32H173.112V73.792H157.752L158.808 68.32ZM212.472 59.296L217.8 60.88C215.064 69.28 210.648 78.352 205.752 84.112C205.272 82.72 203.88 79.408 202.968 77.872C206.856 73.36 210.408 66.352 212.472 59.296ZM208.68 72.496L214.2 66.976L214.392 67.072V104.272H208.68V72.496ZM226.056 66.304V73.744H239.88V66.304H226.056ZM220.584 61.264H245.688V78.784H220.584V61.264ZM232.872 84.544H246.408V89.92H232.872V84.544ZM230.424 75.952H236.184V100.432L230.424 97.936V75.952ZM224.952 88.288C227.4 96.448 232.92 97.888 239.592 97.888C241.272 97.936 246.984 97.888 249.24 97.84C248.52 99.088 247.752 101.68 247.512 103.216H239.112C230.136 103.216 223.896 100.816 220.488 89.776L224.952 88.288ZM220.92 82.432L226.392 83.008C225.48 92.08 223.272 99.616 218.904 104.368C217.992 103.456 215.592 101.776 214.344 101.008C218.52 97.024 220.248 90.256 220.92 82.432Z" fill="black"/>
<mask id="path-52-outside-7_994_1107" maskUnits="userSpaceOnUse" x="503" y="-1.84326" width="140" height="39" fill="black">
<rect fill="white" x="503" y="-1.84326" width="140" height="39"/>
<path fill-rule="evenodd" clip-rule="evenodd" d="M622.351 0.000217438L642 30.1407V30.7038V32.8647V36.1567H638.295L622.351 11.9448V36.1567H622H615.313H614.9V12.1402L599.018 36.1567H596H592.295L576.351 11.9448V36.1567H576H569.313H568.9V12.1402L553.018 36.1567H550H546.295L530.351 11.9448V36.1567H530H523.313H522.9V12.1402L507.018 36.1567H504V32.8647V31.6746V29.1609L522.9 0.000217438H523.313H530H530.351L550 30.1407V29.1609L568.9 0.000217438H569.313H576H576.351L596 30.1407V29.1609L614.9 0.000217438H615.313H622H622.351Z"/>
</mask>
<path fill-rule="evenodd" clip-rule="evenodd" d="M622.351 0.000217438L642 30.1407V30.7038V32.8647V36.1567H638.295L622.351 11.9448V36.1567H622H615.313H614.9V12.1402L599.018 36.1567H596H592.295L576.351 11.9448V36.1567H576H569.313H568.9V12.1402L553.018 36.1567H550H546.295L530.351 11.9448V36.1567H530H523.313H522.9V12.1402L507.018 36.1567H504V32.8647V31.6746V29.1609L522.9 0.000217438H523.313H530H530.351L550 30.1407V29.1609L568.9 0.000217438H569.313H576H576.351L596 30.1407V29.1609L614.9 0.000217438H615.313H622H622.351Z" fill="black"/>
<path d="M642 30.1407H643V29.8435L642.838 29.5946L642 30.1407ZM622.351 0.000217438L623.189 -0.545898L622.893 -0.999783H622.351V0.000217438ZM642 36.1567V37.1567H643V36.1567H642ZM638.295 36.1567L637.46 36.7067L637.756 37.1567H638.295V36.1567ZM622.351 11.9448L623.186 11.3948L621.351 8.60797V11.9448H622.351ZM622.351 36.1567V37.1567H623.351V36.1567H622.351ZM614.9 36.1567H613.9V37.1567H614.9V36.1567ZM614.9 12.1402H615.9V8.81511L614.066 11.5886L614.9 12.1402ZM599.018 36.1567V37.1567H599.556L599.852 36.7083L599.018 36.1567ZM592.295 36.1567L591.46 36.7067L591.756 37.1567H592.295V36.1567ZM576.351 11.9448L577.186 11.3948L575.351 8.60797V11.9448H576.351ZM576.351 36.1567V37.1567H577.351V36.1567H576.351ZM568.9 36.1567H567.9V37.1567H568.9V36.1567ZM568.9 12.1402L569.9 12.1402V8.81511L568.066 11.5886L568.9 12.1402ZM553.018 36.1567V37.1567H553.556L553.852 36.7083L553.018 36.1567ZM546.295 36.1567L545.46 36.7067L545.756 37.1567H546.295V36.1567ZM530.351 11.9448L531.186 11.3948L529.351 8.60797V11.9448H530.351ZM530.351 36.1567V37.1567H531.351V36.1567H530.351ZM522.9 36.1567H521.9V37.1567H522.9V36.1567ZM522.9 12.1402H523.9V8.81511L522.066 11.5886L522.9 12.1402ZM507.018 36.1567V37.1567H507.556L507.852 36.7083L507.018 36.1567ZM504 36.1567H503V37.1567H504V36.1567ZM504 29.1609L503.161 28.617L503 28.8652V29.1609H504ZM522.9 0.000217438V-0.999783H522.356L522.061 -0.543667L522.9 0.000217438ZM530.351 0.000217438L531.189 -0.545898L530.893 -0.999783H530.351V0.000217438ZM550 30.1407L549.162 30.6868L551 33.5057V30.1407H550ZM550 29.1609L549.161 28.617L549 28.8652V29.1609H550ZM568.9 0.000217438V-0.999783H568.356L568.061 -0.543667L568.9 0.000217438ZM576.351 0.000217438L577.189 -0.545898L576.893 -0.999783H576.351V0.000217438ZM596 30.1407L595.162 30.6868L597 33.5057V30.1407H596ZM596 29.1609L595.161 28.617L595 28.8652V29.1609H596ZM614.9 0.000217438V-0.999783H614.356L614.061 -0.543667L614.9 0.000217438ZM642.838 29.5946L623.189 -0.545898L621.513 0.546333L641.162 30.6868L642.838 29.5946ZM643 30.7038V30.1407H641V30.7038H643ZM643 32.8647V30.7038H641V32.8647H643ZM643 36.1567V32.8647H641V36.1567H643ZM638.295 37.1567H642V35.1567H638.295V37.1567ZM621.516 12.4947L637.46 36.7067L639.13 35.6068L623.186 11.3948L621.516 12.4947ZM623.351 36.1567V11.9448H621.351V36.1567H623.351ZM622 37.1567H622.351V35.1567H622V37.1567ZM615.313 37.1567H622V35.1567H615.313V37.1567ZM614.9 37.1567H615.313V35.1567H614.9V37.1567ZM613.9 12.1402V36.1567H615.9V12.1402H613.9ZM599.852 36.7083L615.734 12.6918L614.066 11.5886L598.184 35.6051L599.852 36.7083ZM596 37.1567H599.018V35.1567H596V37.1567ZM592.295 37.1567H596V35.1567H592.295V37.1567ZM575.516 12.4947L591.46 36.7067L593.13 35.6068L577.186 11.3948L575.516 12.4947ZM577.351 36.1567V11.9448H575.351V36.1567H577.351ZM576 37.1567H576.351V35.1567H576V37.1567ZM569.313 37.1567H576V35.1567H569.313V37.1567ZM568.9 37.1567H569.313V35.1567H568.9V37.1567ZM567.9 12.1402V36.1567H569.9V12.1402L567.9 12.1402ZM553.852 36.7083L569.734 12.6918L568.066 11.5886L552.184 35.6051L553.852 36.7083ZM550 37.1567H553.018V35.1567H550V37.1567ZM550 35.1567H546.295V37.1567H550V35.1567ZM547.13 35.6068L531.186 11.3948L529.516 12.4947L545.46 36.7067L547.13 35.6068ZM529.351 11.9448V36.1567H531.351V11.9448H529.351ZM530.351 35.1567H530V37.1567H530.351V35.1567ZM530 35.1567H523.313V37.1567H530V35.1567ZM523.313 35.1567H522.9V37.1567H523.313V35.1567ZM523.9 36.1567V12.1402H521.9V36.1567H523.9ZM522.066 11.5886L506.184 35.6051L507.852 36.7083L523.734 12.6918L522.066 11.5886ZM507.018 35.1567H504V37.1567H507.018V35.1567ZM505 36.1567V32.8647H503V36.1567H505ZM505 32.8647V31.6746H503V32.8647H505ZM505 31.6746V29.1609H503V31.6746H505ZM504.839 29.7048L523.739 0.544102L522.061 -0.543667L503.161 28.617L504.839 29.7048ZM522.9 1.00022H523.313V-0.999783H522.9V1.00022ZM523.313 1.00022H530V-0.999783H523.313V1.00022ZM530 1.00022H530.351V-0.999783H530V1.00022ZM529.513 0.546333L549.162 30.6868L550.838 29.5946L531.189 -0.545898L529.513 0.546333ZM549 29.1609V30.1407H551V29.1609H549ZM568.061 -0.543667L549.161 28.617L550.839 29.7048L569.739 0.544102L568.061 -0.543667ZM569.313 -0.999783H568.9V1.00022H569.313V-0.999783ZM576 -0.999783H569.313V1.00022H576V-0.999783ZM576.351 -0.999783H576V1.00022H576.351V-0.999783ZM596.838 29.5946L577.189 -0.545898L575.513 0.546333L595.162 30.6868L596.838 29.5946ZM595 29.1609V30.1407H597V29.1609H595ZM614.061 -0.543667L595.161 28.617L596.839 29.7048L615.739 0.544102L614.061 -0.543667ZM615.313 -0.999783H614.9V1.00022H615.313V-0.999783ZM622 -0.999783H615.313V1.00022H622V-0.999783ZM622.351 -0.999783H622V1.00022H622.351V-0.999783Z" fill="black" mask="url(#path-52-outside-7_994_1107)"/>
<path d="M260.504 87.664L259.256 71.248L259.016 64.096H266.936L266.696 71.248L265.448 87.664H260.504ZM263 100.48C260.504 100.48 258.728 98.704 258.728 96.208C258.728 93.712 260.552 91.984 263 91.984C265.4 91.984 267.224 93.712 267.224 96.208C267.224 98.704 265.4 100.48 263 100.48Z" fill="black"/>
<path d="M629.504 341.664L628.256 325.248L628.016 318.096H635.936L635.696 325.248L634.448 341.664H629.504ZM632 354.48C629.504 354.48 627.728 352.704 627.728 350.208C627.728 347.712 629.552 345.984 632 345.984C634.4 345.984 636.224 347.712 636.224 350.208C636.224 352.704 634.4 354.48 632 354.48Z" fill="black"/>
<path d="M443.808 271.72C439.824 277.384 432.48 283.864 424.608 288.232C423.84 286.888 422.208 284.776 420.96 283.576C429.216 279.4 436.992 272.008 440.544 266.056H446.544C451.68 273.448 459.504 279.736 467.136 283C465.696 284.488 464.4 286.408 463.344 288.184C455.952 284.104 447.888 277.432 443.808 271.72ZM427.488 294.232H460.32V299.224H427.488V294.232ZM429.936 283.624H458.112V288.664H429.936V283.624ZM423.648 305.032H464.64V310.168H423.648V305.032ZM440.784 285.88H446.88V307.912H440.784V285.88ZM470.304 269.896H486.48V275.224H470.304V269.896ZM485.952 274.312H515.136V279.592H485.952V274.312ZM470.688 283.288H485.952V288.616H470.688V283.288ZM469.392 300.04C473.664 298.984 480.24 297.112 486.432 295.336L487.2 300.184C481.584 302.104 475.584 304.024 470.88 305.464L469.392 300.04ZM497.328 266.2H502.896V304.792C502.896 307.624 502.32 309.16 500.64 310.12C498.96 311.08 496.512 311.272 492.912 311.272C492.72 309.736 491.76 307.24 490.944 305.752C493.296 305.848 495.552 305.8 496.32 305.8C497.04 305.8 497.328 305.56 497.328 304.792V266.2ZM482.784 301.144C485.856 299.608 490.56 296.776 495.024 294.088L496.752 298.84C493.152 301.432 489.072 304.168 485.712 306.28L482.784 301.144ZM486.384 283.72L490.848 281.752C492.672 284.296 494.784 287.8 495.552 290.152L490.848 292.36C490.128 290.056 488.208 286.408 486.384 283.72ZM509.952 281.224L514.992 283.864C512.832 286.84 510.432 290.056 508.512 292.168L504.432 289.864C506.256 287.608 508.608 283.96 509.952 281.224ZM504.672 269.416L507.792 266.44C510.048 267.784 512.88 269.944 514.224 271.48L510.912 274.792C509.616 273.208 506.88 270.952 504.672 269.416ZM475.68 272.104H481.248V300.04L475.68 300.904V272.104ZM502.704 280.168C504.576 291.208 507.84 297.736 515.952 303.256C514.608 304.312 513.072 306.136 512.4 307.672C503.472 300.904 500.064 293.272 497.952 281.032L502.704 280.168ZM518.352 291.304H542.64V295.912H518.352V291.304ZM518.928 274.36H542.496V278.872H518.928V274.36ZM526.992 287.848L532.32 289C529.968 293.944 526.848 299.8 524.544 303.64L519.504 302.104C521.76 298.408 524.928 292.408 526.992 287.848ZM533.808 294.52L539.088 294.952C537.36 305.032 532.32 309.064 520.896 311.368C520.56 309.784 519.504 307.768 518.544 306.616C528.096 305.416 532.272 302.392 533.808 294.52ZM537.216 266.824L542.064 268.744C540.48 270.904 538.944 273.112 537.696 274.6L534 272.92C535.104 271.24 536.448 268.648 537.216 266.824ZM528.048 266.2H533.328V288.52H528.048V266.2ZM520.08 268.744L524.208 267.016C525.504 268.84 526.704 271.288 527.136 273.016L522.72 274.936C522.384 273.256 521.28 270.712 520.08 268.744ZM528.192 276.616L531.936 278.872C529.536 282.664 524.928 286.84 520.896 289.096C520.224 287.848 518.976 285.928 517.92 284.872C521.808 283.288 526.128 279.88 528.192 276.616ZM532.848 278.008C534.576 278.824 540.048 282.04 541.392 282.952L538.32 286.936C536.544 285.16 532.272 281.752 530.16 280.264L532.848 278.008ZM545.808 274.936H563.424V280.264H545.808V274.936ZM546.336 266.2L552.144 267.016C550.656 276.952 547.776 286.168 543.36 292.024C542.448 290.968 540.096 288.904 538.8 287.944C542.832 283.048 545.184 274.792 546.336 266.2ZM555.024 278.2L560.928 278.728C558.864 295.144 553.92 305.416 541.776 311.512C541.2 310.12 539.52 307.48 538.464 306.232C549.408 301.432 553.584 292.408 555.024 278.2ZM549.072 279.208C550.992 291.352 555.216 301.72 564.048 306.232C562.704 307.384 560.88 309.688 560.016 311.272C550.368 305.512 546.192 294.376 543.84 280.024L549.072 279.208ZM523.728 302.152L526.8 298.216C532.464 300.376 538.464 303.736 541.728 306.328L537.744 310.408C534.672 307.72 529.104 304.36 523.728 302.152ZM586.416 268.168H610.224V282.136H586.56V277.24H604.752V273.064H586.416V268.168ZM583.728 268.168H589.344V282.904C589.344 291.16 588.528 303.688 583.248 311.416C582.24 310.456 579.84 308.68 578.544 308.104C583.344 300.952 583.728 290.44 583.728 282.904V268.168ZM586.464 286.36H611.568V291.208H586.464V286.36ZM591.024 305.368H607.68V309.928H591.024V305.368ZM596.4 281.656H601.824V297.976H596.4V281.656ZM588.72 295.816H610.464V311.224H605.28V300.568H593.664V311.32H588.72V295.816ZM566.448 290.584C570.336 289.72 576.192 288.184 581.712 286.648L582.48 291.832C577.392 293.368 572.016 294.904 567.696 296.152L566.448 290.584ZM567.168 275.368H582.336V280.648H567.168V275.368ZM572.256 266.296H577.488V304.6C577.488 307.24 577.056 308.728 575.568 309.592C574.128 310.504 572.016 310.696 568.944 310.696C568.8 309.256 568.128 306.904 567.456 305.368C569.184 305.416 570.864 305.416 571.44 305.416C572.016 305.416 572.256 305.224 572.256 304.552V266.296ZM424.176 319.6H463.872V343.696H457.824V325.264H429.984V343.936H424.176V319.6ZM427.2 335.584H461.184V341.248H427.2V335.584ZM440.832 311.248H446.928V356.32H440.832V311.248ZM482.736 324.976H488.736V347.92C488.736 350.272 489.12 350.608 491.376 350.608C492.384 350.608 496.704 350.608 497.952 350.608C500.304 350.608 500.688 349.024 501.072 341.488C502.368 342.544 504.816 343.6 506.448 343.984C505.776 353.008 504.192 355.84 498.432 355.84C497.136 355.84 491.856 355.84 490.608 355.84C484.464 355.84 482.736 353.968 482.736 347.92V324.976ZM482.928 315.856L486.672 311.392C492.336 313.408 498.96 317.008 502.8 319.792L498.96 324.88C495.312 321.808 488.592 318.064 482.928 315.856ZM474.096 328.384L479.76 329.536C479.04 336.208 477.792 343.6 474.624 348.304L469.248 345.232C472.08 341.104 473.472 334.816 474.096 328.384ZM501.744 329.152L507.024 326.512C511.152 331.792 514.608 338.848 515.76 343.888L509.904 346.768C508.944 341.824 505.584 334.432 501.744 329.152ZM526.896 319.936H560.304V325.552H526.896V319.936ZM524.928 334.096H558.48V339.616H524.928V334.096ZM519.36 349.312H562.752V354.928H519.36V349.312ZM538.032 311.248H544.032V352.096H538.032V311.248ZM526.944 311.824L532.896 313.168C530.784 320.608 527.28 328 523.536 332.608C522.384 331.6 519.84 329.92 518.352 329.104C522.144 325.072 525.216 318.448 526.944 311.824ZM567.696 317.392H611.328V322.72H567.696V317.392ZM586.608 310.768H592.608C591.504 323.104 589.104 334.192 570.384 339.472C569.808 338.08 568.368 335.872 567.168 334.624C584.496 330.256 585.696 320.992 586.608 310.768ZM593.568 317.632C596.4 325.744 602.4 331.408 612.336 333.568C610.992 334.816 609.312 337.264 608.496 338.848C597.744 335.872 591.84 329.152 588.288 318.784L593.568 317.632ZM583.392 333.232L588.384 330.256C591.168 331.648 594.72 333.952 596.64 335.68L591.312 338.896C589.728 337.216 586.176 334.768 583.392 333.232ZM578.016 340.288H583.728V348.496C583.728 349.984 584.208 350.224 587.04 350.224C588.288 350.224 593.664 350.224 595.344 350.224C597.696 350.224 598.032 349.504 598.368 344.608C599.568 345.52 601.968 346.384 603.504 346.72C602.832 353.584 601.2 355.312 595.776 355.312C594.336 355.312 587.856 355.312 586.464 355.312C579.744 355.312 578.016 353.728 578.016 348.544V340.288ZM584.832 339.712L589.248 337.12C591.744 339.424 594.864 342.736 596.256 344.992L591.504 347.968C590.256 345.712 587.28 342.208 584.832 339.712ZM600.96 341.056L606 339.424C608.352 343.456 610.848 348.88 611.76 352.384L606.336 354.304C605.52 350.848 603.216 345.232 600.96 341.056ZM571.68 339.952L576.816 341.632C575.856 345.904 574.464 351.232 572.496 354.688L567.312 352.048C569.232 348.832 570.864 344.128 571.68 339.952Z" fill="black"/>
<path d="M502.128 47.312H538.272V52.928H507.84V84.272H502.128V47.312ZM536.208 47.312H542.016V77.648C542.016 80.768 541.344 82.4 539.328 83.312C537.264 84.224 534.192 84.368 529.872 84.368C529.632 82.736 528.768 80.048 527.952 78.512C530.784 78.704 534.048 78.704 535.008 78.656C535.92 78.656 536.208 78.416 536.208 77.552V47.312ZM517.92 39.248L525.312 40.304C523.632 44.144 521.568 48.08 520.032 50.72L514.464 49.472C515.808 46.544 517.248 42.368 517.92 39.248ZM512.544 57.584H517.776V77.408H512.544V57.584ZM514.8 57.584H531.408V74.048H514.8V69.008H526.08V62.624H514.8V57.584ZM569.088 53.648H589.056V59.456H569.088V53.648ZM548.544 76.16H592.416V81.968H548.544V76.16ZM565.824 39.824H572.016V79.376H565.824V39.824ZM624.672 44.384H630.192V70.88H624.672V44.384ZM633.888 39.728H639.504V77.648C639.504 80.768 638.88 82.304 637.056 83.216C635.184 84.128 632.4 84.32 628.272 84.32C628.08 82.784 627.216 80.24 626.448 78.656C629.136 78.752 631.872 78.704 632.688 78.704C633.552 78.704 633.888 78.464 633.888 77.648V39.728ZM596.16 52.64L622.608 49.76L623.136 55.184L596.688 58.112L596.16 52.64ZM602.016 39.296H607.92C607.584 58.976 612.336 78.224 616.896 78.224C618 78.224 618.528 75.968 618.816 70.352C620.064 71.648 622.032 72.944 623.568 73.472C622.656 81.872 620.784 83.936 616.512 83.936C606.432 83.936 602.208 61.184 602.016 39.296ZM615.6 57.104L621.072 58.736C616.512 69.248 608.88 77.888 600.24 83.264C599.376 82.064 597.36 79.808 596.208 78.704C604.704 74.192 611.76 66.416 615.6 57.104ZM609.12 42.704L612.912 39.632C615.36 41.456 618.384 44.192 619.776 46.112L615.696 49.568C614.448 47.648 611.52 44.72 609.12 42.704Z" fill="black"/>
<path fill-rule="evenodd" clip-rule="evenodd" d="M227.721 214V225.387H241.142V225.386H240.956V214H227.721ZM227.721 230.13V280.421H240.956V230.13H227.721ZM63.094 280.895C77.5053 280.895 89.1879 269.213 89.1879 254.802C89.1879 240.39 77.5053 228.708 63.094 228.708C48.6827 228.708 37 240.39 37 254.802C37 269.213 48.6827 280.895 63.094 280.895ZM63.0935 269.383C71.1468 269.383 77.6754 262.855 77.6754 254.801C77.6754 246.748 71.1468 240.22 63.0935 240.22C55.0401 240.22 48.5116 246.748 48.5116 254.801C48.5116 262.855 55.0401 269.383 63.0935 269.383ZM96.7777 229.182V280.421H109.9V250.057L127.397 270.886V271.407L127.616 271.147L127.835 271.407V270.886L145.332 250.057V280.421H158.454V229.182H145.864L127.616 249.81L109.368 229.182H96.7777ZM167.943 229.182V280.421H181.178V246.006L205 268.41V268.62H205.223L218.233 280.855V268.62H218.234V229.182H205V248.818L184.121 229.182H167.943Z" fill="#1E1E1E"/>
<mask id="path-59-outside-8_994_1107" maskUnits="userSpaceOnUse" x="42" y="339" width="140" height="39" fill="black">
<rect fill="white" x="42" y="339" width="140" height="39"/>
<path fill-rule="evenodd" clip-rule="evenodd" d="M62.6491 376.157L43 346.016V345.453V343.292V340H46.705L62.6491 364.212V340H63H69.687H70.1001V364.016L85.982 340H89H92.705L108.649 364.212V340H109H115.687H116.1V364.016L131.982 340H135H138.705L154.649 364.212V340H155H161.687H162.1V364.016L177.982 340H181V343.292V344.482V346.996L162.1 376.157H161.687H155H154.649L135 346.016V346.996L116.1 376.157H115.687H109H108.649L89 346.016V346.996L70.1001 376.157H69.687H63H62.6491Z"/>
</mask>
<path fill-rule="evenodd" clip-rule="evenodd" d="M62.6491 376.157L43 346.016V345.453V343.292V340H46.705L62.6491 364.212V340H63H69.687H70.1001V364.016L85.982 340H89H92.705L108.649 364.212V340H109H115.687H116.1V364.016L131.982 340H135H138.705L154.649 364.212V340H155H161.687H162.1V364.016L177.982 340H181V343.292V344.482V346.996L162.1 376.157H161.687H155H154.649L135 346.016V346.996L116.1 376.157H115.687H109H108.649L89 346.016V346.996L70.1001 376.157H69.687H63H62.6491Z" fill="black"/>
<path d="M43 346.016H42V346.313L42.1623 346.562L43 346.016ZM62.6491 376.157L61.8114 376.703L62.1073 377.157H62.6491V376.157ZM43 340V339H42V340H43ZM46.705 340L47.5401 339.45L47.2438 339H46.705V340ZM62.6491 364.212L61.8139 364.762L63.6491 367.549V364.212H62.6491ZM62.6491 340V339H61.6491V340H62.6491ZM70.1001 340H71.1001V339H70.1001V340ZM70.1001 364.016H69.1001V367.342L70.9342 364.568L70.1001 364.016ZM85.982 340V339H85.4444L85.1479 339.448L85.982 340ZM92.705 340L93.5401 339.45L93.2438 339H92.705V340ZM108.649 364.212L107.814 364.762L109.649 367.549V364.212H108.649ZM108.649 340V339H107.649V340H108.649ZM116.1 340H117.1V339H116.1V340ZM116.1 364.016H115.1V367.342L116.934 364.568L116.1 364.016ZM131.982 340V339H131.444L131.148 339.448L131.982 340ZM138.705 340L139.54 339.45L139.244 339H138.705V340ZM154.649 364.212L153.814 364.762L155.649 367.549V364.212H154.649ZM154.649 340V339H153.649V340H154.649ZM162.1 340H163.1V339H162.1V340ZM162.1 364.016H161.1V367.342L162.934 364.568L162.1 364.016ZM177.982 340V339H177.444L177.148 339.448L177.982 340ZM181 340H182V339H181V340ZM181 346.996L181.839 347.54L182 347.292V346.996H181ZM162.1 376.157V377.157H162.644L162.939 376.7L162.1 376.157ZM154.649 376.157L153.811 376.703L154.107 377.157H154.649V376.157ZM135 346.016L135.838 345.47L134 342.651V346.016H135ZM135 346.996L135.839 347.54L136 347.292V346.996H135ZM116.1 376.157V377.157H116.644L116.939 376.7L116.1 376.157ZM108.649 376.157L107.811 376.703L108.107 377.157H108.649V376.157ZM89 346.016L89.8377 345.47L88 342.651V346.016H89ZM89 346.996L89.8392 347.54L90 347.292V346.996H89ZM70.1001 376.157V377.157H70.6437L70.9393 376.7L70.1001 376.157ZM42.1623 346.562L61.8114 376.703L63.4868 375.61L43.8377 345.47L42.1623 346.562ZM42 345.453V346.016H44V345.453H42ZM42 343.292V345.453H44V343.292H42ZM42 340V343.292H44V340H42ZM46.705 339H43V341H46.705V339ZM63.4843 363.662L47.5401 339.45L45.8698 340.55L61.8139 364.762L63.4843 363.662ZM61.6491 340V364.212H63.6491V340H61.6491ZM63 339H62.6491V341H63V339ZM69.687 339H63V341H69.687V339ZM70.1001 339H69.687V341H70.1001V339ZM71.1001 364.016V340H69.1001V364.016H71.1001ZM85.1479 339.448L69.266 363.465L70.9342 364.568L86.8161 340.552L85.1479 339.448ZM89 339H85.982V341H89V339ZM92.705 339H89V341H92.705V339ZM109.484 363.662L93.5401 339.45L91.8698 340.55L107.814 364.762L109.484 363.662ZM107.649 340V364.212H109.649V340H107.649ZM109 339H108.649V341H109V339ZM115.687 339H109V341H115.687V339ZM116.1 339H115.687V341H116.1V339ZM117.1 364.016V340H115.1V364.016H117.1ZM131.148 339.448L115.266 363.465L116.934 364.568L132.816 340.552L131.148 339.448ZM135 339H131.982V341H135V339ZM135 341H138.705V339H135V341ZM137.87 340.55L153.814 364.762L155.484 363.662L139.54 339.45L137.87 340.55ZM155.649 364.212V340H153.649V364.212H155.649ZM154.649 341H155V339H154.649V341ZM155 341H161.687V339H155V341ZM161.687 341H162.1V339H161.687V341ZM161.1 340V364.016H163.1V340H161.1ZM162.934 364.568L178.816 340.552L177.148 339.448L161.266 363.465L162.934 364.568ZM177.982 341H181V339H177.982V341ZM180 340V343.292H182V340H180ZM180 343.292V344.482H182V343.292H180ZM180 344.482V346.996H182V344.482H180ZM180.161 346.452L161.261 375.613L162.939 376.7L181.839 347.54L180.161 346.452ZM162.1 375.157H161.687V377.157H162.1V375.157ZM161.687 375.157H155V377.157H161.687V375.157ZM155 375.157H154.649V377.157H155V375.157ZM155.487 375.61L135.838 345.47L134.162 346.562L153.811 376.703L155.487 375.61ZM136 346.996V346.016H134V346.996H136ZM116.939 376.7L135.839 347.54L134.161 346.452L115.261 375.613L116.939 376.7ZM115.687 377.157H116.1V375.157H115.687V377.157ZM109 377.157H115.687V375.157H109V377.157ZM108.649 377.157H109V375.157H108.649V377.157ZM88.1623 346.562L107.811 376.703L109.487 375.61L89.8377 345.47L88.1623 346.562ZM90 346.996V346.016H88V346.996H90ZM70.9393 376.7L89.8392 347.54L88.1608 346.452L69.261 375.613L70.9393 376.7ZM69.687 377.157H70.1001V375.157H69.687V377.157ZM63 377.157H69.687V375.157H63V377.157ZM62.6491 377.157H63V375.157H62.6491V377.157Z" fill="black" mask="url(#path-59-outside-8_994_1107)"/>
<path d="M41.128 387.312H77.272V392.928H46.84V424.272H41.128V387.312ZM75.208 387.312H81.016V417.648C81.016 420.768 80.344 422.4 78.328 423.312C76.264 424.224 73.192 424.368 68.872 424.368C68.632 422.736 67.768 420.048 66.952 418.512C69.784 418.704 73.048 418.704 74.008 418.656C74.92 418.656 75.208 418.416 75.208 417.552V387.312ZM56.92 379.248L64.312 380.304C62.632 384.144 60.568 388.08 59.032 390.72L53.464 389.472C54.808 386.544 56.248 382.368 56.92 379.248ZM51.544 397.584H56.776V417.408H51.544V397.584ZM53.8 397.584H70.408V414.048H53.8V409.008H65.08V402.624H53.8V397.584ZM87.928 382.752H131.032V388.56H87.928V382.752ZM105.352 387.984H111.544V424.224H105.352V387.984ZM108.616 399.6L112.552 395.04C117.784 397.632 125.32 401.808 129.016 404.784L124.744 410.064C121.336 407.04 114.04 402.528 108.616 399.6ZM163.672 384.384H169.192V410.88H163.672V384.384ZM172.888 379.728H178.504V417.648C178.504 420.768 177.88 422.304 176.056 423.216C174.184 424.128 171.4 424.32 167.272 424.32C167.08 422.784 166.216 420.24 165.448 418.656C168.136 418.752 170.872 418.704 171.688 418.704C172.552 418.704 172.888 418.464 172.888 417.648V379.728ZM135.16 392.64L161.608 389.76L162.136 395.184L135.688 398.112L135.16 392.64ZM141.016 379.296H146.92C146.584 398.976 151.336 418.224 155.896 418.224C157 418.224 157.528 415.968 157.816 410.352C159.064 411.648 161.032 412.944 162.568 413.472C161.656 421.872 159.784 423.936 155.512 423.936C145.432 423.936 141.208 401.184 141.016 379.296ZM154.6 397.104L160.072 398.736C155.512 409.248 147.88 417.888 139.24 423.264C138.376 422.064 136.36 419.808 135.208 418.704C143.704 414.192 150.76 406.416 154.6 397.104ZM148.12 382.704L151.912 379.632C154.36 381.456 157.384 384.192 158.776 386.112L154.696 389.568C153.448 387.648 150.52 384.72 148.12 382.704Z" fill="black"/>
</g>
<defs>
<clipPath id="clip0_994_1107">
<rect width="713" height="425" fill="white"/>
</clipPath>
</defs>
</svg>
