<svg width="713" height="425" viewBox="0 0 713 425" fill="none" xmlns="http://www.w3.org/2000/svg">
<rect width="713" height="425" fill="#D9D9D9"/>
<path fill-rule="evenodd" clip-rule="evenodd" d="M202.177 218.535V229.517H214.459V229.516H214.289V218.535H202.177Z" fill="black"/>
<circle cx="182.5" cy="213.5" r="132.25" fill="#FFD600" stroke="#1E1E1E" stroke-width="5.5"/>
<mask id="path-3-outside-1_1251_555" maskUnits="userSpaceOnUse" x="74.3711" y="100.795" width="220" height="227" fill="black">
<rect fill="white" x="74.3711" y="100.795" width="220" height="227"/>
<path fill-rule="evenodd" clip-rule="evenodd" d="M184.285 158.999L152.063 107.795H140.459V168.652L81.3711 168.652V180.603L131.088 213.79L81.3711 247.17V259.016H140.459V319.873H152.063L184.285 268.669L216.697 319.873H228.198V259.016H216.697V299.768L190.64 259.016H178.018L152.063 299.439V259.016H140.461V247.17H100.892L140.461 220.334V207.335L101.211 180.603H140.461V168.652L152.063 168.652V128.229L178.018 168.652H190.64L216.697 127.9V168.652H228.198V107.795H216.697L184.285 158.999ZM237.573 213.79L287.29 247.17V259.016H228.2V247.17H267.769L228.2 220.334V207.335L267.45 180.603H228.2V168.652H287.29V180.603L237.573 213.79Z"/>
</mask>
<path fill-rule="evenodd" clip-rule="evenodd" d="M184.285 158.999L152.063 107.795H140.459V168.652L81.3711 168.652V180.603L131.088 213.79L81.3711 247.17V259.016H140.459V319.873H152.063L184.285 268.669L216.697 319.873H228.198V259.016H216.697V299.768L190.64 259.016H178.018L152.063 299.439V259.016H140.461V247.17H100.892L140.461 220.334V207.335L101.211 180.603H140.461V168.652L152.063 168.652V128.229L178.018 168.652H190.64L216.697 127.9V168.652H228.198V107.795H216.697L184.285 158.999ZM237.573 213.79L287.29 247.17V259.016H228.2V247.17H267.769L228.2 220.334V207.335L267.45 180.603H228.2V168.652H287.29V180.603L237.573 213.79Z" fill="#FFD600"/>
<path d="M152.063 107.795L157.987 104.067L155.928 100.795H152.063V107.795ZM184.285 158.999L178.361 162.727L184.268 172.114L190.2 162.743L184.285 158.999ZM140.459 107.795V100.795H133.459V107.795H140.459ZM140.459 168.652L140.459 175.652L147.459 175.652V168.652H140.459ZM81.3711 168.652L81.3711 161.652L74.3711 161.652V168.652H81.3711ZM81.3711 180.603H74.3711V184.347L77.4848 186.425L81.3711 180.603ZM131.088 213.79L134.99 219.601L143.671 213.773L134.974 207.967L131.088 213.79ZM81.3711 247.17L77.4691 241.359L74.3711 243.439L74.3711 247.17H81.3711ZM81.3711 259.016H74.3711V266.016H81.3711V259.016ZM140.459 259.016H147.459V252.016H140.459V259.016ZM140.459 319.873H133.459V326.873H140.459V319.873ZM152.063 319.873V326.873H155.928L157.987 323.601L152.063 319.873ZM184.285 268.669L190.2 264.925L184.268 255.554L178.361 264.941L184.285 268.669ZM216.697 319.873L210.782 323.617L212.843 326.873H216.697V319.873ZM228.198 319.873V326.873H235.198V319.873H228.198ZM228.198 259.016H235.198V252.016H228.198V259.016ZM216.697 259.016V252.016H209.697V259.016H216.697ZM216.697 299.768L210.799 303.539L223.697 323.711V299.768H216.697ZM190.64 259.016L196.537 255.245L194.472 252.016H190.64V259.016ZM178.018 259.016V252.016H174.194L172.128 255.234L178.018 259.016ZM152.063 299.439H145.063V323.297L157.953 303.221L152.063 299.439ZM152.063 259.016H159.063V252.016H152.063V259.016ZM140.461 259.016H133.461V266.016H140.461V259.016ZM140.461 247.17H147.461V240.17H140.461V247.17ZM100.892 247.17L96.9626 241.377L78.0997 254.17H100.892V247.17ZM140.461 220.334L144.39 226.127L147.461 224.044V220.334H140.461ZM140.461 207.335H147.461V203.633L144.401 201.549L140.461 207.335ZM101.211 180.603V173.603H78.4981L97.2708 186.388L101.211 180.603ZM140.461 180.603V187.603H147.461V180.603H140.461ZM140.461 168.652L140.461 161.652L133.461 161.652V168.652H140.461ZM152.063 168.652L152.063 175.652L159.063 175.652V168.652H152.063ZM152.063 128.229L157.953 124.446L145.063 104.371V128.229H152.063ZM178.018 168.652L172.128 172.434L174.194 175.652H178.018V168.652ZM190.64 168.652V175.652H194.472L196.537 172.423L190.64 168.652ZM216.697 127.9H223.697V103.957L210.799 124.129L216.697 127.9ZM216.697 168.652H209.697V175.652H216.697V168.652ZM228.198 168.652V175.652H235.198V168.652H228.198ZM228.198 107.795H235.198V100.795H228.198V107.795ZM216.697 107.795V100.795H212.843L210.782 104.051L216.697 107.795ZM237.573 213.79L233.687 207.967L224.99 213.773L233.671 219.601L237.573 213.79ZM287.29 247.17H294.29V243.439L291.192 241.359L287.29 247.17ZM287.29 259.016V266.016H294.29V259.016H287.29ZM228.2 259.016H221.2V266.016H228.2V259.016ZM228.2 247.17V240.17H221.2V247.17H228.2ZM267.769 247.17V254.17H290.561L271.698 241.377L267.769 247.17ZM228.2 220.334H221.2V224.044L224.271 226.127L228.2 220.334ZM228.2 207.335L224.26 201.549L221.2 203.633V207.335H228.2ZM267.45 180.603L271.39 186.388L290.163 173.603H267.45V180.603ZM228.2 180.603H221.2V187.603H228.2V180.603ZM228.2 168.652V161.652H221.2V168.652H228.2ZM287.29 168.652H294.29V161.652H287.29V168.652ZM287.29 180.603L291.176 186.425L294.29 184.347V180.603H287.29ZM146.138 111.523L178.361 162.727L190.21 155.27L157.987 104.067L146.138 111.523ZM140.459 114.795H152.063V100.795H140.459V114.795ZM147.459 168.652V107.795H133.459V168.652H147.459ZM81.3711 175.652L140.459 175.652L140.459 161.652L81.3711 161.652L81.3711 175.652ZM88.3711 180.603V168.652H74.3711V180.603H88.3711ZM134.974 207.967L85.2574 174.781L77.4848 186.425L127.201 219.612L134.974 207.967ZM85.2731 252.982L134.99 219.601L127.186 207.978L77.4691 241.359L85.2731 252.982ZM88.3711 259.016V247.17H74.3711V259.016H88.3711ZM140.459 252.016H81.3711V266.016H140.459V252.016ZM147.459 319.873V259.016H133.459V319.873H147.459ZM152.063 312.873H140.459V326.873H152.063V312.873ZM178.361 264.941L146.138 316.145L157.987 323.601L190.21 272.397L178.361 264.941ZM222.611 316.129L190.2 264.925L178.371 272.413L210.782 323.617L222.611 316.129ZM228.198 312.873H216.697V326.873H228.198V312.873ZM221.198 259.016V319.873H235.198V259.016H221.198ZM216.697 266.016H228.198V252.016H216.697V266.016ZM223.697 299.768V259.016H209.697V299.768H223.697ZM184.742 262.786L210.799 303.539L222.594 295.997L196.537 255.245L184.742 262.786ZM178.018 266.016H190.64V252.016H178.018V266.016ZM157.953 303.221L183.908 262.798L172.128 255.234L146.172 295.657L157.953 303.221ZM145.063 259.016V299.439H159.063V259.016H145.063ZM140.461 266.016H152.063V252.016H140.461V266.016ZM133.461 247.17V259.016H147.461V247.17H133.461ZM100.892 254.17H140.461V240.17H100.892V254.17ZM136.532 214.54L96.9626 241.377L104.821 252.964L144.39 226.127L136.532 214.54ZM133.461 207.335V220.334H147.461V207.335H133.461ZM97.2708 186.388L136.52 213.12L144.401 201.549L105.152 174.817L97.2708 186.388ZM140.461 173.603H101.211V187.603H140.461V173.603ZM133.461 168.652V180.603H147.461V168.652H133.461ZM152.063 161.652L140.461 161.652L140.461 175.652L152.063 175.652L152.063 161.652ZM145.063 128.229V168.652H159.063V128.229H145.063ZM183.908 164.87L157.953 124.446L146.172 132.011L172.128 172.434L183.908 164.87ZM190.64 161.652H178.018V175.652H190.64V161.652ZM210.799 124.129L184.742 164.881L196.537 172.423L222.594 131.67L210.799 124.129ZM223.697 168.652V127.9H209.697V168.652H223.697ZM228.198 161.652H216.697V175.652H228.198V161.652ZM221.198 107.795V168.652H235.198V107.795H221.198ZM216.697 114.795L228.198 114.795V100.795L216.697 100.795V114.795ZM190.2 162.743L222.611 111.539L210.782 104.051L178.371 155.255L190.2 162.743ZM233.671 219.601L283.388 252.982L291.192 241.359L241.475 207.978L233.671 219.601ZM280.29 247.17V259.016H294.29V247.17H280.29ZM287.29 252.016H228.2V266.016H287.29V252.016ZM235.2 259.016V247.17H221.2V259.016H235.2ZM228.2 254.17H267.769V240.17H228.2V254.17ZM271.698 241.377L232.129 214.54L224.271 226.127L263.84 252.964L271.698 241.377ZM235.2 220.334V207.335H221.2V220.334H235.2ZM232.141 213.12L271.39 186.388L263.509 174.817L224.26 201.549L232.141 213.12ZM267.45 173.603H228.2V187.603H267.45V173.603ZM235.2 180.603V168.652H221.2V180.603H235.2ZM228.2 175.652H287.29V161.652H228.2V175.652ZM280.29 168.652V180.603H294.29V168.652H280.29ZM283.403 174.781L233.687 207.967L241.46 219.612L291.176 186.425L283.403 174.781Z" fill="#1E1E1E" mask="url(#path-3-outside-1_1251_555)"/>
<path fill-rule="evenodd" clip-rule="evenodd" d="M166.467 134.643L178.481 168.804H191.122L200.358 137.617L224.244 130.622L218.573 168.804H228.61V183.022L255.12 169.859C256.498 169.175 258.157 169.651 258.961 170.96L268.975 187.27C269.89 188.76 269.347 190.731 267.798 191.545L228.61 212.125V215.729L271.73 236.112L260.655 260.261L228.61 245.113V258.087H219.148L223.116 302.731L198.123 293.92L189.626 258.087H178.554L181.147 260.498L152.087 299.089L140.197 276.521L150.31 258.087H140.664V245.259L108.92 260.264L97.8447 236.116L140.664 215.875V212.214L101.219 191.499C99.7046 190.704 99.1451 188.797 99.9899 187.311L109.722 170.191C110.505 168.814 112.218 168.297 113.633 169.011L140.664 182.665V168.804H149.825L141.913 128.844L166.467 134.643Z" fill="#FFD600"/>
<mask id="path-6-outside-2_1251_555" maskUnits="userSpaceOnUse" x="79.3711" y="105.74" width="210" height="216" fill="black">
<rect fill="white" x="79.3711" y="105.74" width="210" height="216"/>
<path fill-rule="evenodd" clip-rule="evenodd" d="M184.285 158.944L152.063 107.74H140.459V168.598L81.3711 168.598V180.548L131.088 213.735L81.3711 247.116V258.961H140.459V319.818H152.063L184.285 268.614L216.697 319.818H228.198V258.961H216.697V299.714L190.64 258.961H178.018L152.063 299.385V258.961H140.461V247.116H100.892L140.461 220.279V207.28L101.211 180.548H140.461V168.598L152.063 168.598V128.174L178.018 168.598H190.64L216.697 127.845V168.598H228.198V107.74H216.697L184.285 158.944ZM237.573 213.735L287.29 247.116V258.961H228.2V247.116H267.769L228.2 220.279V207.28L267.45 180.548H228.2V168.598H287.29V180.548L237.573 213.735Z"/>
</mask>
<path fill-rule="evenodd" clip-rule="evenodd" d="M184.285 158.944L152.063 107.74H140.459V168.598L81.3711 168.598V180.548L131.088 213.735L81.3711 247.116V258.961H140.459V319.818H152.063L184.285 268.614L216.697 319.818H228.198V258.961H216.697V299.714L190.64 258.961H178.018L152.063 299.385V258.961H140.461V247.116H100.892L140.461 220.279V207.28L101.211 180.548H140.461V168.598L152.063 168.598V128.174L178.018 168.598H190.64L216.697 127.845V168.598H228.198V107.74H216.697L184.285 158.944ZM237.573 213.735L287.29 247.116V258.961H228.2V247.116H267.769L228.2 220.279V207.28L267.45 180.548H228.2V168.598H287.29V180.548L237.573 213.735Z" fill="#FFD600"/>
<path d="M152.063 107.74L153.332 106.941L152.891 106.24H152.063V107.74ZM184.285 158.944L183.016 159.743L184.282 161.754L185.553 159.746L184.285 158.944ZM140.459 107.74V106.24H138.959V107.74H140.459ZM140.459 168.598L140.459 170.098L141.959 170.098V168.598H140.459ZM81.3711 168.598L81.3711 167.098L79.8711 167.098V168.598H81.3711ZM81.3711 180.548H79.8711V181.35L80.5383 181.796L81.3711 180.548ZM131.088 213.735L131.924 214.98L133.784 213.731L131.92 212.487L131.088 213.735ZM81.3711 247.116L80.5349 245.87L79.8711 246.316V247.116H81.3711ZM81.3711 258.961H79.8711V260.461H81.3711V258.961ZM140.459 258.961H141.959V257.461H140.459V258.961ZM140.459 319.818H138.959V321.318H140.459V319.818ZM152.063 319.818V321.318H152.891L153.332 320.617L152.063 319.818ZM184.285 268.614L185.553 267.812L184.282 265.804L183.016 267.815L184.285 268.614ZM216.697 319.818L215.429 320.62L215.871 321.318H216.697V319.818ZM228.198 319.818V321.318H229.698V319.818H228.198ZM228.198 258.961H229.698V257.461H228.198V258.961ZM216.697 258.961V257.461H215.197V258.961H216.697ZM216.697 299.714L215.433 300.522L218.197 304.844V299.714H216.697ZM190.64 258.961L191.903 258.153L191.461 257.461H190.64V258.961ZM178.018 258.961V257.461H177.199L176.756 258.15L178.018 258.961ZM152.063 299.385H150.563V304.497L153.325 300.195L152.063 299.385ZM152.063 258.961H153.563V257.461H152.063V258.961ZM140.461 258.961H138.961V260.461H140.461V258.961ZM140.461 247.116H141.961V245.616H140.461V247.116ZM100.892 247.116L100.05 245.874L96.0077 248.616H100.892V247.116ZM140.461 220.279L141.303 221.52L141.961 221.074V220.279H140.461ZM140.461 207.28H141.961V206.487L141.305 206.04L140.461 207.28ZM101.211 180.548V179.048H96.3441L100.367 181.788L101.211 180.548ZM140.461 180.548V182.048H141.961V180.548H140.461ZM140.461 168.598L140.461 167.098L138.961 167.098V168.598H140.461ZM152.063 168.598L152.063 170.098L153.563 170.098V168.598H152.063ZM152.063 128.174L153.325 127.363L150.563 123.061V128.174H152.063ZM178.018 168.598L176.756 169.408L177.199 170.098H178.018V168.598ZM190.64 168.598V170.098H191.461L191.903 169.406L190.64 168.598ZM216.697 127.845H218.197V122.714L215.433 127.037L216.697 127.845ZM216.697 168.598H215.197V170.098H216.697V168.598ZM228.198 168.598V170.098H229.698V168.598H228.198ZM228.198 107.74H229.698V106.24H228.198V107.74ZM216.697 107.74V106.24H215.871L215.429 106.938L216.697 107.74ZM237.573 213.735L236.74 212.487L234.877 213.731L236.737 214.98L237.573 213.735ZM287.29 247.116H288.79V246.316L288.126 245.87L287.29 247.116ZM287.29 258.961V260.461H288.79V258.961H287.29ZM228.2 258.961H226.7V260.461H228.2V258.961ZM228.2 247.116V245.616H226.7V247.116H228.2ZM267.769 247.116V248.616H272.653L268.611 245.874L267.769 247.116ZM228.2 220.279H226.7V221.074L227.358 221.52L228.2 220.279ZM228.2 207.28L227.356 206.04L226.7 206.487V207.28H228.2ZM267.45 180.548L268.294 181.788L272.317 179.048H267.45V180.548ZM228.2 180.548H226.7V182.048H228.2V180.548ZM228.2 168.598V167.098H226.7V168.598H228.2ZM287.29 168.598H288.79V167.098H287.29V168.598ZM287.29 180.548L288.123 181.796L288.79 181.35V180.548H287.29ZM150.793 108.539L183.016 159.743L185.555 158.145L153.332 106.941L150.793 108.539ZM140.459 109.24H152.063V106.24H140.459V109.24ZM141.959 168.598V107.74H138.959V168.598H141.959ZM81.3711 170.098L140.459 170.098L140.459 167.098L81.3711 167.098L81.3711 170.098ZM82.8711 180.548V168.598H79.8711V180.548H82.8711ZM131.92 212.487L82.2039 179.301L80.5383 181.796L130.255 214.982L131.92 212.487ZM82.2072 248.361L131.924 214.98L130.252 212.49L80.5349 245.87L82.2072 248.361ZM82.8711 258.961V247.116H79.8711V258.961H82.8711ZM140.459 257.461H81.3711V260.461H140.459V257.461ZM141.959 319.818V258.961H138.959V319.818H141.959ZM152.063 318.318H140.459V321.318H152.063V318.318ZM183.016 267.815L150.793 319.019L153.332 320.617L185.555 269.413L183.016 267.815ZM217.964 319.016L185.553 267.812L183.018 269.417L215.429 320.62L217.964 319.016ZM228.198 318.318H216.697V321.318H228.198V318.318ZM226.698 258.961V319.818H229.698V258.961H226.698ZM216.697 260.461H228.198V257.461H216.697V260.461ZM218.197 299.714V258.961H215.197V299.714H218.197ZM189.376 259.769L215.433 300.522L217.96 298.906L191.903 258.153L189.376 259.769ZM178.018 260.461H190.64V257.461H178.018V260.461ZM153.325 300.195L179.28 259.771L176.756 258.15L150.801 298.574L153.325 300.195ZM150.563 258.961V299.385H153.563V258.961H150.563ZM140.461 260.461H152.063V257.461H140.461V260.461ZM138.961 247.116V258.961H141.961V247.116H138.961ZM100.892 248.616H140.461V245.616H100.892V248.616ZM139.619 219.038L100.05 245.874L101.734 248.357L141.303 221.52L139.619 219.038ZM138.961 207.28V220.279H141.961V207.28H138.961ZM100.367 181.788L139.616 208.52L141.305 206.04L102.056 179.308L100.367 181.788ZM140.461 179.048H101.211V182.048H140.461V179.048ZM138.961 168.598V180.548H141.961V168.598H138.961ZM152.063 167.098L140.461 167.098L140.461 170.098L152.063 170.098L152.063 167.098ZM150.563 128.174V168.598H153.563V128.174H150.563ZM179.28 167.787L153.325 127.363L150.801 128.984L176.756 169.408L179.28 167.787ZM190.64 167.098H178.018V170.098H190.64V167.098ZM215.433 127.037L189.376 167.789L191.903 169.406L217.96 128.653L215.433 127.037ZM218.197 168.598V127.845H215.197V168.598H218.197ZM228.198 167.098H216.697V170.098H228.198V167.098ZM226.698 107.74V168.598H229.698V107.74H226.698ZM216.697 109.24H228.198V106.24H216.697V109.24ZM185.553 159.746L217.964 108.542L215.429 106.938L183.018 158.142L185.553 159.746ZM236.737 214.98L286.454 248.361L288.126 245.87L238.409 212.49L236.737 214.98ZM285.79 247.116V258.961H288.79V247.116H285.79ZM287.29 257.461H228.2V260.461H287.29V257.461ZM229.7 258.961V247.116H226.7V258.961H229.7ZM228.2 248.616H267.769V245.616H228.2V248.616ZM268.611 245.874L229.042 219.038L227.358 221.52L266.927 248.357L268.611 245.874ZM229.7 220.279V207.28H226.7V220.279H229.7ZM229.045 208.52L268.294 181.788L266.605 179.308L227.356 206.04L229.045 208.52ZM267.45 179.048H228.2V182.048H267.45V179.048ZM229.7 180.548V168.598H226.7V180.548H229.7ZM228.2 170.098H287.29V167.098H228.2V170.098ZM285.79 168.598V180.548H288.79V168.598H285.79ZM286.457 179.301L236.74 212.487L238.406 214.982L288.123 181.796L286.457 179.301Z" fill="#FFD600" mask="url(#path-6-outside-2_1251_555)"/>
<mask id="path-8-outside-3_1251_555" maskUnits="userSpaceOnUse" x="79.3711" y="105.74" width="210" height="216" fill="black">
<rect fill="white" x="79.3711" y="105.74" width="210" height="216"/>
<path fill-rule="evenodd" clip-rule="evenodd" d="M184.285 158.944L152.063 107.74H140.459V168.598L81.3711 168.598V180.548L131.088 213.735L81.3711 247.116V258.961H140.459V319.818H152.063L184.285 268.614L216.697 319.818H228.198V258.961H216.697V299.714L190.64 258.961H178.018L152.063 299.385V258.961H140.461V247.116H100.892L140.461 220.279V207.28L101.211 180.548H140.461V168.598L152.063 168.598V128.174L178.018 168.598H190.64L216.697 127.845V168.598H228.198V107.74H216.697L184.285 158.944ZM237.573 213.735L287.29 247.116V258.961H228.2V247.116H267.769L228.2 220.279V207.28L267.45 180.548H228.2V168.598H287.29V180.548L237.573 213.735Z"/>
</mask>
<path fill-rule="evenodd" clip-rule="evenodd" d="M184.285 158.944L152.063 107.74H140.459V168.598L81.3711 168.598V180.548L131.088 213.735L81.3711 247.116V258.961H140.459V319.818H152.063L184.285 268.614L216.697 319.818H228.198V258.961H216.697V299.714L190.64 258.961H178.018L152.063 299.385V258.961H140.461V247.116H100.892L140.461 220.279V207.28L101.211 180.548H140.461V168.598L152.063 168.598V128.174L178.018 168.598H190.64L216.697 127.845V168.598H228.198V107.74H216.697L184.285 158.944ZM237.573 213.735L287.29 247.116V258.961H228.2V247.116H267.769L228.2 220.279V207.28L267.45 180.548H228.2V168.598H287.29V180.548L237.573 213.735Z" fill="#FFD600"/>
<path d="M152.063 107.74L153.332 106.941L152.891 106.24H152.063V107.74ZM184.285 158.944L183.016 159.743L184.282 161.754L185.553 159.746L184.285 158.944ZM140.459 107.74V106.24H138.959V107.74H140.459ZM140.459 168.598L140.459 170.098L141.959 170.098V168.598H140.459ZM81.3711 168.598L81.3711 167.098L79.8711 167.098V168.598H81.3711ZM81.3711 180.548H79.8711V181.35L80.5383 181.796L81.3711 180.548ZM131.088 213.735L131.924 214.98L133.784 213.731L131.92 212.487L131.088 213.735ZM81.3711 247.116L80.5349 245.87L79.8711 246.316V247.116H81.3711ZM81.3711 258.961H79.8711V260.461H81.3711V258.961ZM140.459 258.961H141.959V257.461H140.459V258.961ZM140.459 319.818H138.959V321.318H140.459V319.818ZM152.063 319.818V321.318H152.891L153.332 320.617L152.063 319.818ZM184.285 268.614L185.553 267.812L184.282 265.804L183.016 267.815L184.285 268.614ZM216.697 319.818L215.429 320.62L215.871 321.318H216.697V319.818ZM228.198 319.818V321.318H229.698V319.818H228.198ZM228.198 258.961H229.698V257.461H228.198V258.961ZM216.697 258.961V257.461H215.197V258.961H216.697ZM216.697 299.714L215.433 300.522L218.197 304.844V299.714H216.697ZM190.64 258.961L191.903 258.153L191.461 257.461H190.64V258.961ZM178.018 258.961V257.461H177.199L176.756 258.15L178.018 258.961ZM152.063 299.385H150.563V304.497L153.325 300.195L152.063 299.385ZM152.063 258.961H153.563V257.461H152.063V258.961ZM140.461 258.961H138.961V260.461H140.461V258.961ZM140.461 247.116H141.961V245.616H140.461V247.116ZM100.892 247.116L100.05 245.874L96.0077 248.616H100.892V247.116ZM140.461 220.279L141.303 221.52L141.961 221.074V220.279H140.461ZM140.461 207.28H141.961V206.487L141.305 206.04L140.461 207.28ZM101.211 180.548V179.048H96.3441L100.367 181.788L101.211 180.548ZM140.461 180.548V182.048H141.961V180.548H140.461ZM140.461 168.598L140.461 167.098L138.961 167.098V168.598H140.461ZM152.063 168.598L152.063 170.098L153.563 170.098V168.598H152.063ZM152.063 128.174L153.325 127.363L150.563 123.061V128.174H152.063ZM178.018 168.598L176.756 169.408L177.199 170.098H178.018V168.598ZM190.64 168.598V170.098H191.461L191.903 169.406L190.64 168.598ZM216.697 127.845H218.197V122.714L215.433 127.037L216.697 127.845ZM216.697 168.598H215.197V170.098H216.697V168.598ZM228.198 168.598V170.098H229.698V168.598H228.198ZM228.198 107.74H229.698V106.24H228.198V107.74ZM216.697 107.74V106.24H215.871L215.429 106.938L216.697 107.74ZM237.573 213.735L236.74 212.487L234.877 213.731L236.737 214.98L237.573 213.735ZM287.29 247.116H288.79V246.316L288.126 245.87L287.29 247.116ZM287.29 258.961V260.461H288.79V258.961H287.29ZM228.2 258.961H226.7V260.461H228.2V258.961ZM228.2 247.116V245.616H226.7V247.116H228.2ZM267.769 247.116V248.616H272.653L268.611 245.874L267.769 247.116ZM228.2 220.279H226.7V221.074L227.358 221.52L228.2 220.279ZM228.2 207.28L227.356 206.04L226.7 206.487V207.28H228.2ZM267.45 180.548L268.294 181.788L272.317 179.048H267.45V180.548ZM228.2 180.548H226.7V182.048H228.2V180.548ZM228.2 168.598V167.098H226.7V168.598H228.2ZM287.29 168.598H288.79V167.098H287.29V168.598ZM287.29 180.548L288.123 181.796L288.79 181.35V180.548H287.29ZM150.793 108.539L183.016 159.743L185.555 158.145L153.332 106.941L150.793 108.539ZM140.459 109.24H152.063V106.24H140.459V109.24ZM141.959 168.598V107.74H138.959V168.598H141.959ZM81.3711 170.098L140.459 170.098L140.459 167.098L81.3711 167.098L81.3711 170.098ZM82.8711 180.548V168.598H79.8711V180.548H82.8711ZM131.92 212.487L82.2039 179.301L80.5383 181.796L130.255 214.982L131.92 212.487ZM82.2072 248.361L131.924 214.98L130.252 212.49L80.5349 245.87L82.2072 248.361ZM82.8711 258.961V247.116H79.8711V258.961H82.8711ZM140.459 257.461H81.3711V260.461H140.459V257.461ZM141.959 319.818V258.961H138.959V319.818H141.959ZM152.063 318.318H140.459V321.318H152.063V318.318ZM183.016 267.815L150.793 319.019L153.332 320.617L185.555 269.413L183.016 267.815ZM217.964 319.016L185.553 267.812L183.018 269.417L215.429 320.62L217.964 319.016ZM228.198 318.318H216.697V321.318H228.198V318.318ZM226.698 258.961V319.818H229.698V258.961H226.698ZM216.697 260.461H228.198V257.461H216.697V260.461ZM218.197 299.714V258.961H215.197V299.714H218.197ZM189.376 259.769L215.433 300.522L217.96 298.906L191.903 258.153L189.376 259.769ZM178.018 260.461H190.64V257.461H178.018V260.461ZM153.325 300.195L179.28 259.771L176.756 258.15L150.801 298.574L153.325 300.195ZM150.563 258.961V299.385H153.563V258.961H150.563ZM140.461 260.461H152.063V257.461H140.461V260.461ZM138.961 247.116V258.961H141.961V247.116H138.961ZM100.892 248.616H140.461V245.616H100.892V248.616ZM139.619 219.038L100.05 245.874L101.734 248.357L141.303 221.52L139.619 219.038ZM138.961 207.28V220.279H141.961V207.28H138.961ZM100.367 181.788L139.616 208.52L141.305 206.04L102.056 179.308L100.367 181.788ZM140.461 179.048H101.211V182.048H140.461V179.048ZM138.961 168.598V180.548H141.961V168.598H138.961ZM152.063 167.098L140.461 167.098L140.461 170.098L152.063 170.098L152.063 167.098ZM150.563 128.174V168.598H153.563V128.174H150.563ZM179.28 167.787L153.325 127.363L150.801 128.984L176.756 169.408L179.28 167.787ZM190.64 167.098H178.018V170.098H190.64V167.098ZM215.433 127.037L189.376 167.789L191.903 169.406L217.96 128.653L215.433 127.037ZM218.197 168.598V127.845H215.197V168.598H218.197ZM228.198 167.098H216.697V170.098H228.198V167.098ZM226.698 107.74V168.598H229.698V107.74H226.698ZM216.697 109.24H228.198V106.24H216.697V109.24ZM185.553 159.746L217.964 108.542L215.429 106.938L183.018 158.142L185.553 159.746ZM236.737 214.98L286.454 248.361L288.126 245.87L238.409 212.49L236.737 214.98ZM285.79 247.116V258.961H288.79V247.116H285.79ZM287.29 257.461H228.2V260.461H287.29V257.461ZM229.7 258.961V247.116H226.7V258.961H229.7ZM228.2 248.616H267.769V245.616H228.2V248.616ZM268.611 245.874L229.042 219.038L227.358 221.52L266.927 248.357L268.611 245.874ZM229.7 220.279V207.28H226.7V220.279H229.7ZM229.045 208.52L268.294 181.788L266.605 179.308L227.356 206.04L229.045 208.52ZM267.45 179.048H228.2V182.048H267.45V179.048ZM229.7 180.548V168.598H226.7V180.548H229.7ZM228.2 170.098H287.29V167.098H228.2V170.098ZM285.79 168.598V180.548H288.79V168.598H285.79ZM286.457 179.301L236.74 212.487L238.406 214.982L288.123 181.796L286.457 179.301Z" fill="#FFD600" mask="url(#path-8-outside-3_1251_555)"/>
<path fill-rule="evenodd" clip-rule="evenodd" d="M157.504 212.472C168.719 212.472 177.811 203.381 177.811 192.165C177.811 180.95 168.719 171.858 157.504 171.858C146.289 171.858 137.197 180.95 137.197 192.165C137.197 203.381 146.289 212.472 157.504 212.472ZM157.504 203.514C163.771 203.514 168.852 198.433 168.852 192.166C168.852 185.898 163.771 180.818 157.504 180.818C151.237 180.818 146.156 185.898 146.156 192.166C146.156 198.433 151.237 203.514 157.504 203.514ZM183.872 255.896V215.788H194.007V255.896H183.872ZM137.195 256.094V216.218H149.788L166.034 231.497V216.218H176.334V241.183L176.334 241.184V256.431L166.211 246.91H166.034V246.744L147.495 229.309V256.094H137.195ZM183.719 212.104V172.228H193.517L207.718 188.282L221.92 172.228H231.718V212.104H221.505V188.474L207.888 204.684V205.089L207.718 204.887L207.548 205.089V204.684L193.931 188.474V212.104H183.719Z" fill="#1E1E1E"/>
<path fill-rule="evenodd" clip-rule="evenodd" d="M202.177 215.788V226.77H214.459V226.77H214.289V215.788H202.177Z" fill="#1E1E1E"/>
<path fill-rule="evenodd" clip-rule="evenodd" d="M531.177 218.535V229.517H543.459V229.516H543.289V218.535H531.177Z" fill="black"/>
<rect x="384.5" y="86.5" width="258" height="258" fill="#FFD600" stroke="black" stroke-width="5"/>
<mask id="path-14-outside-4_1251_555" maskUnits="userSpaceOnUse" x="403.371" y="100.795" width="220" height="227" fill="black">
<rect fill="white" x="403.371" y="100.795" width="220" height="227"/>
<path fill-rule="evenodd" clip-rule="evenodd" d="M513.285 158.999L481.063 107.795H469.459V168.652L410.371 168.652V180.603L460.088 213.79L410.371 247.17V259.016H469.459V319.873H481.063L513.285 268.669L545.697 319.873H557.198V259.016H545.697V299.768L519.64 259.016H507.018L481.063 299.439V259.016H469.461V247.17H429.892L469.461 220.334V207.335L430.211 180.603H469.461V168.652L481.063 168.652V128.229L507.018 168.652H519.64L545.697 127.9V168.652H557.198V107.795H545.697L513.285 158.999ZM566.573 213.79L616.29 247.17V259.016H557.2V247.17H596.769L557.2 220.334V207.335L596.45 180.603H557.2V168.652H616.29V180.603L566.573 213.79Z"/>
</mask>
<path fill-rule="evenodd" clip-rule="evenodd" d="M513.285 158.999L481.063 107.795H469.459V168.652L410.371 168.652V180.603L460.088 213.79L410.371 247.17V259.016H469.459V319.873H481.063L513.285 268.669L545.697 319.873H557.198V259.016H545.697V299.768L519.64 259.016H507.018L481.063 299.439V259.016H469.461V247.17H429.892L469.461 220.334V207.335L430.211 180.603H469.461V168.652L481.063 168.652V128.229L507.018 168.652H519.64L545.697 127.9V168.652H557.198V107.795H545.697L513.285 158.999ZM566.573 213.79L616.29 247.17V259.016H557.2V247.17H596.769L557.2 220.334V207.335L596.45 180.603H557.2V168.652H616.29V180.603L566.573 213.79Z" fill="#FFD600"/>
<path d="M481.063 107.795L486.987 104.067L484.928 100.795H481.063V107.795ZM513.285 158.999L507.361 162.727L513.268 172.114L519.2 162.743L513.285 158.999ZM469.459 107.795V100.795H462.459V107.795H469.459ZM469.459 168.652L469.459 175.652L476.459 175.652V168.652H469.459ZM410.371 168.652L410.371 161.652L403.371 161.652V168.652H410.371ZM410.371 180.603H403.371V184.347L406.485 186.425L410.371 180.603ZM460.088 213.79L463.99 219.601L472.671 213.773L463.974 207.967L460.088 213.79ZM410.371 247.17L406.469 241.359L403.371 243.439V247.17H410.371ZM410.371 259.016H403.371V266.016H410.371V259.016ZM469.459 259.016H476.459V252.016H469.459V259.016ZM469.459 319.873H462.459V326.873H469.459V319.873ZM481.063 319.873V326.873H484.928L486.987 323.601L481.063 319.873ZM513.285 268.669L519.2 264.925L513.268 255.554L507.361 264.941L513.285 268.669ZM545.697 319.873L539.782 323.617L541.843 326.873H545.697V319.873ZM557.198 319.873V326.873H564.198V319.873H557.198ZM557.198 259.016H564.198V252.016H557.198V259.016ZM545.697 259.016V252.016H538.697V259.016H545.697ZM545.697 299.768L539.799 303.539L552.697 323.711V299.768H545.697ZM519.64 259.016L525.537 255.245L523.472 252.016H519.64V259.016ZM507.018 259.016V252.016H503.194L501.128 255.234L507.018 259.016ZM481.063 299.439H474.063V323.297L486.953 303.221L481.063 299.439ZM481.063 259.016H488.063V252.016H481.063V259.016ZM469.461 259.016H462.461V266.016H469.461V259.016ZM469.461 247.17H476.461V240.17H469.461V247.17ZM429.892 247.17L425.963 241.377L407.1 254.17H429.892V247.17ZM469.461 220.334L473.39 226.127L476.461 224.044V220.334H469.461ZM469.461 207.335H476.461V203.633L473.401 201.549L469.461 207.335ZM430.211 180.603V173.603H407.498L426.271 186.388L430.211 180.603ZM469.461 180.603V187.603H476.461V180.603H469.461ZM469.461 168.652L469.461 161.652L462.461 161.652V168.652H469.461ZM481.063 168.652L481.063 175.652L488.063 175.652V168.652H481.063ZM481.063 128.229L486.953 124.446L474.063 104.371V128.229H481.063ZM507.018 168.652L501.128 172.434L503.194 175.652H507.018V168.652ZM519.64 168.652V175.652H523.472L525.537 172.423L519.64 168.652ZM545.697 127.9H552.697V103.957L539.799 124.129L545.697 127.9ZM545.697 168.652H538.697V175.652H545.697V168.652ZM557.198 168.652V175.652H564.198V168.652H557.198ZM557.198 107.795H564.198V100.795H557.198V107.795ZM545.697 107.795V100.795H541.843L539.782 104.051L545.697 107.795ZM566.573 213.79L562.687 207.967L553.99 213.773L562.671 219.601L566.573 213.79ZM616.29 247.17H623.29V243.439L620.192 241.359L616.29 247.17ZM616.29 259.016V266.016H623.29V259.016H616.29ZM557.2 259.016H550.2V266.016H557.2V259.016ZM557.2 247.17V240.17H550.2V247.17H557.2ZM596.769 247.17V254.17H619.561L600.698 241.377L596.769 247.17ZM557.2 220.334H550.2V224.044L553.271 226.127L557.2 220.334ZM557.2 207.335L553.26 201.549L550.2 203.633V207.335H557.2ZM596.45 180.603L600.39 186.388L619.163 173.603H596.45V180.603ZM557.2 180.603H550.2V187.603H557.2V180.603ZM557.2 168.652V161.652H550.2V168.652H557.2ZM616.29 168.652H623.29V161.652H616.29V168.652ZM616.29 180.603L620.176 186.425L623.29 184.347V180.603H616.29ZM475.138 111.523L507.361 162.727L519.21 155.27L486.987 104.067L475.138 111.523ZM469.459 114.795H481.063V100.795H469.459V114.795ZM476.459 168.652V107.795H462.459V168.652H476.459ZM410.371 175.652L469.459 175.652L469.459 161.652L410.371 161.652L410.371 175.652ZM417.371 180.603V168.652H403.371V180.603H417.371ZM463.974 207.967L414.257 174.781L406.485 186.425L456.201 219.612L463.974 207.967ZM414.273 252.982L463.99 219.601L456.186 207.978L406.469 241.359L414.273 252.982ZM417.371 259.016V247.17H403.371V259.016H417.371ZM469.459 252.016H410.371V266.016H469.459V252.016ZM476.459 319.873V259.016H462.459V319.873H476.459ZM481.063 312.873H469.459V326.873H481.063V312.873ZM507.361 264.941L475.138 316.145L486.987 323.601L519.21 272.397L507.361 264.941ZM551.611 316.129L519.2 264.925L507.371 272.413L539.782 323.617L551.611 316.129ZM557.198 312.873H545.697V326.873H557.198V312.873ZM550.198 259.016V319.873H564.198V259.016H550.198ZM545.697 266.016H557.198V252.016H545.697V266.016ZM552.697 299.768V259.016H538.697V299.768H552.697ZM513.742 262.786L539.799 303.539L551.594 295.997L525.537 255.245L513.742 262.786ZM507.018 266.016H519.64V252.016H507.018V266.016ZM486.953 303.221L512.908 262.798L501.128 255.234L475.172 295.657L486.953 303.221ZM474.063 259.016V299.439H488.063V259.016H474.063ZM469.461 266.016H481.063V252.016H469.461V266.016ZM462.461 247.17V259.016H476.461V247.17H462.461ZM429.892 254.17H469.461V240.17H429.892V254.17ZM465.532 214.54L425.963 241.377L433.821 252.964L473.39 226.127L465.532 214.54ZM462.461 207.335V220.334H476.461V207.335H462.461ZM426.271 186.388L465.52 213.12L473.401 201.549L434.152 174.817L426.271 186.388ZM469.461 173.603H430.211V187.603H469.461V173.603ZM462.461 168.652V180.603H476.461V168.652H462.461ZM481.063 161.652L469.461 161.652L469.461 175.652L481.063 175.652L481.063 161.652ZM474.063 128.229V168.652H488.063V128.229H474.063ZM512.908 164.87L486.953 124.446L475.172 132.011L501.128 172.434L512.908 164.87ZM519.64 161.652H507.018V175.652H519.64V161.652ZM539.799 124.129L513.742 164.881L525.537 172.423L551.594 131.67L539.799 124.129ZM552.697 168.652V127.9H538.697V168.652H552.697ZM557.198 161.652H545.697V175.652H557.198V161.652ZM550.198 107.795V168.652H564.198V107.795H550.198ZM545.697 114.795L557.198 114.795V100.795L545.697 100.795V114.795ZM519.2 162.743L551.611 111.539L539.782 104.051L507.371 155.255L519.2 162.743ZM562.671 219.601L612.388 252.982L620.192 241.359L570.475 207.978L562.671 219.601ZM609.29 247.17V259.016H623.29V247.17H609.29ZM616.29 252.016H557.2V266.016H616.29V252.016ZM564.2 259.016V247.17H550.2V259.016H564.2ZM557.2 254.17H596.769V240.17H557.2V254.17ZM600.698 241.377L561.129 214.54L553.271 226.127L592.84 252.964L600.698 241.377ZM564.2 220.334V207.335H550.2V220.334H564.2ZM561.141 213.12L600.39 186.388L592.509 174.817L553.26 201.549L561.141 213.12ZM596.45 173.603H557.2V187.603H596.45V173.603ZM564.2 180.603V168.652H550.2V180.603H564.2ZM557.2 175.652H616.29V161.652H557.2V175.652ZM609.29 168.652V180.603H623.29V168.652H609.29ZM612.403 174.781L562.687 207.967L570.46 219.612L620.176 186.425L612.403 174.781Z" fill="#1E1E1E" mask="url(#path-14-outside-4_1251_555)"/>
<path fill-rule="evenodd" clip-rule="evenodd" d="M495.467 134.643L507.481 168.804H520.122L529.358 137.617L553.244 130.622L547.573 168.804H557.61V183.022L584.12 169.859C585.498 169.175 587.157 169.651 587.961 170.96L597.975 187.27C598.89 188.76 598.347 190.731 596.798 191.545L557.61 212.125V215.729L600.73 236.112L589.655 260.261L557.61 245.113V258.087H548.148L552.116 302.731L527.123 293.92L518.626 258.087H507.554L510.147 260.498L481.087 299.089L469.197 276.521L479.31 258.087H469.664V245.259L437.92 260.264L426.845 236.116L469.664 215.875V212.214L430.219 191.499C428.705 190.704 428.145 188.797 428.99 187.311L438.722 170.191C439.505 168.814 441.218 168.297 442.633 169.011L469.664 182.665V168.804H478.825L470.913 128.844L495.467 134.643Z" fill="#FFD600"/>
<mask id="path-17-outside-5_1251_555" maskUnits="userSpaceOnUse" x="408.371" y="105.74" width="210" height="216" fill="black">
<rect fill="white" x="408.371" y="105.74" width="210" height="216"/>
<path fill-rule="evenodd" clip-rule="evenodd" d="M513.285 158.944L481.063 107.74H469.459V168.598L410.371 168.598V180.548L460.088 213.735L410.371 247.116V258.961H469.459V319.818H481.063L513.285 268.614L545.697 319.818H557.198V258.961H545.697V299.714L519.64 258.961H507.018L481.063 299.385V258.961H469.461V247.116H429.892L469.461 220.279V207.28L430.211 180.548H469.461V168.598L481.063 168.598V128.174L507.018 168.598H519.64L545.697 127.845V168.598H557.198V107.74H545.697L513.285 158.944ZM566.573 213.735L616.29 247.116V258.961H557.2V247.116H596.769L557.2 220.279V207.28L596.45 180.548H557.2V168.598H616.29V180.548L566.573 213.735Z"/>
</mask>
<path fill-rule="evenodd" clip-rule="evenodd" d="M513.285 158.944L481.063 107.74H469.459V168.598L410.371 168.598V180.548L460.088 213.735L410.371 247.116V258.961H469.459V319.818H481.063L513.285 268.614L545.697 319.818H557.198V258.961H545.697V299.714L519.64 258.961H507.018L481.063 299.385V258.961H469.461V247.116H429.892L469.461 220.279V207.28L430.211 180.548H469.461V168.598L481.063 168.598V128.174L507.018 168.598H519.64L545.697 127.845V168.598H557.198V107.74H545.697L513.285 158.944ZM566.573 213.735L616.29 247.116V258.961H557.2V247.116H596.769L557.2 220.279V207.28L596.45 180.548H557.2V168.598H616.29V180.548L566.573 213.735Z" fill="#FFD600"/>
<path d="M481.063 107.74L482.332 106.941L481.891 106.24H481.063V107.74ZM513.285 158.944L512.016 159.743L513.282 161.754L514.553 159.746L513.285 158.944ZM469.459 107.74V106.24H467.959V107.74H469.459ZM469.459 168.598L469.459 170.098L470.959 170.098V168.598H469.459ZM410.371 168.598L410.371 167.098L408.871 167.098V168.598H410.371ZM410.371 180.548H408.871V181.35L409.538 181.796L410.371 180.548ZM460.088 213.735L460.924 214.98L462.784 213.731L460.92 212.487L460.088 213.735ZM410.371 247.116L409.535 245.87L408.871 246.316V247.116H410.371ZM410.371 258.961H408.871V260.461H410.371V258.961ZM469.459 258.961H470.959V257.461H469.459V258.961ZM469.459 319.818H467.959V321.318H469.459V319.818ZM481.063 319.818V321.318H481.891L482.332 320.617L481.063 319.818ZM513.285 268.614L514.553 267.812L513.282 265.804L512.016 267.815L513.285 268.614ZM545.697 319.818L544.429 320.62L544.871 321.318H545.697V319.818ZM557.198 319.818V321.318H558.698V319.818H557.198ZM557.198 258.961H558.698V257.461H557.198V258.961ZM545.697 258.961V257.461H544.197V258.961H545.697ZM545.697 299.714L544.433 300.522L547.197 304.844V299.714H545.697ZM519.64 258.961L520.903 258.153L520.461 257.461H519.64V258.961ZM507.018 258.961V257.461H506.199L505.756 258.15L507.018 258.961ZM481.063 299.385H479.563V304.497L482.325 300.195L481.063 299.385ZM481.063 258.961H482.563V257.461H481.063V258.961ZM469.461 258.961H467.961V260.461H469.461V258.961ZM469.461 247.116H470.961V245.616H469.461V247.116ZM429.892 247.116L429.05 245.874L425.008 248.616H429.892V247.116ZM469.461 220.279L470.303 221.52L470.961 221.074V220.279H469.461ZM469.461 207.28H470.961V206.487L470.305 206.04L469.461 207.28ZM430.211 180.548V179.048H425.344L429.367 181.788L430.211 180.548ZM469.461 180.548V182.048H470.961V180.548H469.461ZM469.461 168.598L469.461 167.098L467.961 167.098V168.598H469.461ZM481.063 168.598L481.063 170.098L482.563 170.098V168.598H481.063ZM481.063 128.174L482.325 127.363L479.563 123.061V128.174H481.063ZM507.018 168.598L505.756 169.408L506.199 170.098H507.018V168.598ZM519.64 168.598V170.098H520.461L520.903 169.406L519.64 168.598ZM545.697 127.845H547.197V122.714L544.433 127.037L545.697 127.845ZM545.697 168.598H544.197V170.098H545.697V168.598ZM557.198 168.598V170.098H558.698V168.598H557.198ZM557.198 107.74H558.698V106.24H557.198V107.74ZM545.697 107.74V106.24H544.871L544.429 106.938L545.697 107.74ZM566.573 213.735L565.74 212.487L563.877 213.731L565.737 214.98L566.573 213.735ZM616.29 247.116H617.79V246.316L617.126 245.87L616.29 247.116ZM616.29 258.961V260.461H617.79V258.961H616.29ZM557.2 258.961H555.7V260.461H557.2V258.961ZM557.2 247.116V245.616H555.7V247.116H557.2ZM596.769 247.116V248.616H601.653L597.611 245.874L596.769 247.116ZM557.2 220.279H555.7V221.074L556.358 221.52L557.2 220.279ZM557.2 207.28L556.356 206.04L555.7 206.487V207.28H557.2ZM596.45 180.548L597.294 181.788L601.317 179.048H596.45V180.548ZM557.2 180.548H555.7V182.048H557.2V180.548ZM557.2 168.598V167.098H555.7V168.598H557.2ZM616.29 168.598H617.79V167.098H616.29V168.598ZM616.29 180.548L617.123 181.796L617.79 181.35V180.548H616.29ZM479.793 108.539L512.016 159.743L514.555 158.145L482.332 106.941L479.793 108.539ZM469.459 109.24H481.063V106.24H469.459V109.24ZM470.959 168.598V107.74H467.959V168.598H470.959ZM410.371 170.098L469.459 170.098L469.459 167.098L410.371 167.098L410.371 170.098ZM411.871 180.548V168.598H408.871V180.548H411.871ZM460.92 212.487L411.204 179.301L409.538 181.796L459.255 214.982L460.92 212.487ZM411.207 248.361L460.924 214.98L459.252 212.49L409.535 245.87L411.207 248.361ZM411.871 258.961V247.116H408.871V258.961H411.871ZM469.459 257.461H410.371V260.461H469.459V257.461ZM470.959 319.818V258.961H467.959V319.818H470.959ZM481.063 318.318H469.459V321.318H481.063V318.318ZM512.016 267.815L479.793 319.019L482.332 320.617L514.555 269.413L512.016 267.815ZM546.964 319.016L514.553 267.812L512.018 269.417L544.429 320.62L546.964 319.016ZM557.198 318.318H545.697V321.318H557.198V318.318ZM555.698 258.961V319.818H558.698V258.961H555.698ZM545.697 260.461H557.198V257.461H545.697V260.461ZM547.197 299.714V258.961H544.197V299.714H547.197ZM518.376 259.769L544.433 300.522L546.96 298.906L520.903 258.153L518.376 259.769ZM507.018 260.461H519.64V257.461H507.018V260.461ZM482.325 300.195L508.28 259.771L505.756 258.15L479.801 298.574L482.325 300.195ZM479.563 258.961V299.385H482.563V258.961H479.563ZM469.461 260.461H481.063V257.461H469.461V260.461ZM467.961 247.116V258.961H470.961V247.116H467.961ZM429.892 248.616H469.461V245.616H429.892V248.616ZM468.619 219.038L429.05 245.874L430.734 248.357L470.303 221.52L468.619 219.038ZM467.961 207.28V220.279H470.961V207.28H467.961ZM429.367 181.788L468.616 208.52L470.305 206.04L431.056 179.308L429.367 181.788ZM469.461 179.048H430.211V182.048H469.461V179.048ZM467.961 168.598V180.548H470.961V168.598H467.961ZM481.063 167.098L469.461 167.098L469.461 170.098L481.063 170.098L481.063 167.098ZM479.563 128.174V168.598H482.563V128.174H479.563ZM508.28 167.787L482.325 127.363L479.801 128.984L505.756 169.408L508.28 167.787ZM519.64 167.098H507.018V170.098H519.64V167.098ZM544.433 127.037L518.376 167.789L520.903 169.406L546.96 128.653L544.433 127.037ZM547.197 168.598V127.845H544.197V168.598H547.197ZM557.198 167.098H545.697V170.098H557.198V167.098ZM555.698 107.74V168.598H558.698V107.74H555.698ZM545.697 109.24H557.198V106.24H545.697V109.24ZM514.553 159.746L546.964 108.542L544.429 106.938L512.018 158.142L514.553 159.746ZM565.737 214.98L615.454 248.361L617.126 245.87L567.409 212.49L565.737 214.98ZM614.79 247.116V258.961H617.79V247.116H614.79ZM616.29 257.461H557.2V260.461H616.29V257.461ZM558.7 258.961V247.116H555.7V258.961H558.7ZM557.2 248.616H596.769V245.616H557.2V248.616ZM597.611 245.874L558.042 219.038L556.358 221.52L595.927 248.357L597.611 245.874ZM558.7 220.279V207.28H555.7V220.279H558.7ZM558.045 208.52L597.294 181.788L595.605 179.308L556.356 206.04L558.045 208.52ZM596.45 179.048H557.2V182.048H596.45V179.048ZM558.7 180.548V168.598H555.7V180.548H558.7ZM557.2 170.098H616.29V167.098H557.2V170.098ZM614.79 168.598V180.548H617.79V168.598H614.79ZM615.457 179.301L565.74 212.487L567.406 214.982L617.123 181.796L615.457 179.301Z" fill="#FFD600" mask="url(#path-17-outside-5_1251_555)"/>
<mask id="path-19-outside-6_1251_555" maskUnits="userSpaceOnUse" x="408.371" y="105.74" width="210" height="216" fill="black">
<rect fill="white" x="408.371" y="105.74" width="210" height="216"/>
<path fill-rule="evenodd" clip-rule="evenodd" d="M513.285 158.944L481.063 107.74H469.459V168.598L410.371 168.598V180.548L460.088 213.735L410.371 247.116V258.961H469.459V319.818H481.063L513.285 268.614L545.697 319.818H557.198V258.961H545.697V299.714L519.64 258.961H507.018L481.063 299.385V258.961H469.461V247.116H429.892L469.461 220.279V207.28L430.211 180.548H469.461V168.598L481.063 168.598V128.174L507.018 168.598H519.64L545.697 127.845V168.598H557.198V107.74H545.697L513.285 158.944ZM566.573 213.735L616.29 247.116V258.961H557.2V247.116H596.769L557.2 220.279V207.28L596.45 180.548H557.2V168.598H616.29V180.548L566.573 213.735Z"/>
</mask>
<path fill-rule="evenodd" clip-rule="evenodd" d="M513.285 158.944L481.063 107.74H469.459V168.598L410.371 168.598V180.548L460.088 213.735L410.371 247.116V258.961H469.459V319.818H481.063L513.285 268.614L545.697 319.818H557.198V258.961H545.697V299.714L519.64 258.961H507.018L481.063 299.385V258.961H469.461V247.116H429.892L469.461 220.279V207.28L430.211 180.548H469.461V168.598L481.063 168.598V128.174L507.018 168.598H519.64L545.697 127.845V168.598H557.198V107.74H545.697L513.285 158.944ZM566.573 213.735L616.29 247.116V258.961H557.2V247.116H596.769L557.2 220.279V207.28L596.45 180.548H557.2V168.598H616.29V180.548L566.573 213.735Z" fill="#FFD600"/>
<path d="M481.063 107.74L482.332 106.941L481.891 106.24H481.063V107.74ZM513.285 158.944L512.016 159.743L513.282 161.754L514.553 159.746L513.285 158.944ZM469.459 107.74V106.24H467.959V107.74H469.459ZM469.459 168.598L469.459 170.098L470.959 170.098V168.598H469.459ZM410.371 168.598L410.371 167.098L408.871 167.098V168.598H410.371ZM410.371 180.548H408.871V181.35L409.538 181.796L410.371 180.548ZM460.088 213.735L460.924 214.98L462.784 213.731L460.92 212.487L460.088 213.735ZM410.371 247.116L409.535 245.87L408.871 246.316V247.116H410.371ZM410.371 258.961H408.871V260.461H410.371V258.961ZM469.459 258.961H470.959V257.461H469.459V258.961ZM469.459 319.818H467.959V321.318H469.459V319.818ZM481.063 319.818V321.318H481.891L482.332 320.617L481.063 319.818ZM513.285 268.614L514.553 267.812L513.282 265.804L512.016 267.815L513.285 268.614ZM545.697 319.818L544.429 320.62L544.871 321.318H545.697V319.818ZM557.198 319.818V321.318H558.698V319.818H557.198ZM557.198 258.961H558.698V257.461H557.198V258.961ZM545.697 258.961V257.461H544.197V258.961H545.697ZM545.697 299.714L544.433 300.522L547.197 304.844V299.714H545.697ZM519.64 258.961L520.903 258.153L520.461 257.461H519.64V258.961ZM507.018 258.961V257.461H506.199L505.756 258.15L507.018 258.961ZM481.063 299.385H479.563V304.497L482.325 300.195L481.063 299.385ZM481.063 258.961H482.563V257.461H481.063V258.961ZM469.461 258.961H467.961V260.461H469.461V258.961ZM469.461 247.116H470.961V245.616H469.461V247.116ZM429.892 247.116L429.05 245.874L425.008 248.616H429.892V247.116ZM469.461 220.279L470.303 221.52L470.961 221.074V220.279H469.461ZM469.461 207.28H470.961V206.487L470.305 206.04L469.461 207.28ZM430.211 180.548V179.048H425.344L429.367 181.788L430.211 180.548ZM469.461 180.548V182.048H470.961V180.548H469.461ZM469.461 168.598L469.461 167.098L467.961 167.098V168.598H469.461ZM481.063 168.598L481.063 170.098L482.563 170.098V168.598H481.063ZM481.063 128.174L482.325 127.363L479.563 123.061V128.174H481.063ZM507.018 168.598L505.756 169.408L506.199 170.098H507.018V168.598ZM519.64 168.598V170.098H520.461L520.903 169.406L519.64 168.598ZM545.697 127.845H547.197V122.714L544.433 127.037L545.697 127.845ZM545.697 168.598H544.197V170.098H545.697V168.598ZM557.198 168.598V170.098H558.698V168.598H557.198ZM557.198 107.74H558.698V106.24H557.198V107.74ZM545.697 107.74V106.24H544.871L544.429 106.938L545.697 107.74ZM566.573 213.735L565.74 212.487L563.877 213.731L565.737 214.98L566.573 213.735ZM616.29 247.116H617.79V246.316L617.126 245.87L616.29 247.116ZM616.29 258.961V260.461H617.79V258.961H616.29ZM557.2 258.961H555.7V260.461H557.2V258.961ZM557.2 247.116V245.616H555.7V247.116H557.2ZM596.769 247.116V248.616H601.653L597.611 245.874L596.769 247.116ZM557.2 220.279H555.7V221.074L556.358 221.52L557.2 220.279ZM557.2 207.28L556.356 206.04L555.7 206.487V207.28H557.2ZM596.45 180.548L597.294 181.788L601.317 179.048H596.45V180.548ZM557.2 180.548H555.7V182.048H557.2V180.548ZM557.2 168.598V167.098H555.7V168.598H557.2ZM616.29 168.598H617.79V167.098H616.29V168.598ZM616.29 180.548L617.123 181.796L617.79 181.35V180.548H616.29ZM479.793 108.539L512.016 159.743L514.555 158.145L482.332 106.941L479.793 108.539ZM469.459 109.24H481.063V106.24H469.459V109.24ZM470.959 168.598V107.74H467.959V168.598H470.959ZM410.371 170.098L469.459 170.098L469.459 167.098L410.371 167.098L410.371 170.098ZM411.871 180.548V168.598H408.871V180.548H411.871ZM460.92 212.487L411.204 179.301L409.538 181.796L459.255 214.982L460.92 212.487ZM411.207 248.361L460.924 214.98L459.252 212.49L409.535 245.87L411.207 248.361ZM411.871 258.961V247.116H408.871V258.961H411.871ZM469.459 257.461H410.371V260.461H469.459V257.461ZM470.959 319.818V258.961H467.959V319.818H470.959ZM481.063 318.318H469.459V321.318H481.063V318.318ZM512.016 267.815L479.793 319.019L482.332 320.617L514.555 269.413L512.016 267.815ZM546.964 319.016L514.553 267.812L512.018 269.417L544.429 320.62L546.964 319.016ZM557.198 318.318H545.697V321.318H557.198V318.318ZM555.698 258.961V319.818H558.698V258.961H555.698ZM545.697 260.461H557.198V257.461H545.697V260.461ZM547.197 299.714V258.961H544.197V299.714H547.197ZM518.376 259.769L544.433 300.522L546.96 298.906L520.903 258.153L518.376 259.769ZM507.018 260.461H519.64V257.461H507.018V260.461ZM482.325 300.195L508.28 259.771L505.756 258.15L479.801 298.574L482.325 300.195ZM479.563 258.961V299.385H482.563V258.961H479.563ZM469.461 260.461H481.063V257.461H469.461V260.461ZM467.961 247.116V258.961H470.961V247.116H467.961ZM429.892 248.616H469.461V245.616H429.892V248.616ZM468.619 219.038L429.05 245.874L430.734 248.357L470.303 221.52L468.619 219.038ZM467.961 207.28V220.279H470.961V207.28H467.961ZM429.367 181.788L468.616 208.52L470.305 206.04L431.056 179.308L429.367 181.788ZM469.461 179.048H430.211V182.048H469.461V179.048ZM467.961 168.598V180.548H470.961V168.598H467.961ZM481.063 167.098L469.461 167.098L469.461 170.098L481.063 170.098L481.063 167.098ZM479.563 128.174V168.598H482.563V128.174H479.563ZM508.28 167.787L482.325 127.363L479.801 128.984L505.756 169.408L508.28 167.787ZM519.64 167.098H507.018V170.098H519.64V167.098ZM544.433 127.037L518.376 167.789L520.903 169.406L546.96 128.653L544.433 127.037ZM547.197 168.598V127.845H544.197V168.598H547.197ZM557.198 167.098H545.697V170.098H557.198V167.098ZM555.698 107.74V168.598H558.698V107.74H555.698ZM545.697 109.24H557.198V106.24H545.697V109.24ZM514.553 159.746L546.964 108.542L544.429 106.938L512.018 158.142L514.553 159.746ZM565.737 214.98L615.454 248.361L617.126 245.87L567.409 212.49L565.737 214.98ZM614.79 247.116V258.961H617.79V247.116H614.79ZM616.29 257.461H557.2V260.461H616.29V257.461ZM558.7 258.961V247.116H555.7V258.961H558.7ZM557.2 248.616H596.769V245.616H557.2V248.616ZM597.611 245.874L558.042 219.038L556.358 221.52L595.927 248.357L597.611 245.874ZM558.7 220.279V207.28H555.7V220.279H558.7ZM558.045 208.52L597.294 181.788L595.605 179.308L556.356 206.04L558.045 208.52ZM596.45 179.048H557.2V182.048H596.45V179.048ZM558.7 180.548V168.598H555.7V180.548H558.7ZM557.2 170.098H616.29V167.098H557.2V170.098ZM614.79 168.598V180.548H617.79V168.598H614.79ZM615.457 179.301L565.74 212.487L567.406 214.982L617.123 181.796L615.457 179.301Z" fill="#FFD600" mask="url(#path-19-outside-6_1251_555)"/>
<path fill-rule="evenodd" clip-rule="evenodd" d="M486.504 212.472C497.719 212.472 506.811 203.381 506.811 192.165C506.811 180.95 497.719 171.858 486.504 171.858C475.289 171.858 466.197 180.95 466.197 192.165C466.197 203.381 475.289 212.472 486.504 212.472ZM486.504 203.514C492.771 203.514 497.852 198.433 497.852 192.166C497.852 185.898 492.771 180.818 486.504 180.818C480.237 180.818 475.156 185.898 475.156 192.166C475.156 198.433 480.237 203.514 486.504 203.514ZM512.872 255.896V215.788H523.007V255.896H512.872ZM466.195 256.094V216.218H478.788L495.034 231.497V216.218H505.334V241.183L505.334 241.184V256.431L495.211 246.91H495.034V246.744L476.495 229.309V256.094H466.195ZM512.719 212.104V172.228H522.517L536.718 188.282L550.92 172.228H560.718V212.104H550.505V188.474L536.888 204.684V205.089L536.718 204.887L536.548 205.089V204.684L522.931 188.474V212.104H512.719Z" fill="#1E1E1E"/>
<path fill-rule="evenodd" clip-rule="evenodd" d="M531.177 215.788V226.77H543.459V226.77H543.289V215.788H531.177Z" fill="#1E1E1E"/>
</svg>
