<svg width="713" height="425" viewBox="0 0 713 425" fill="none" xmlns="http://www.w3.org/2000/svg">
<rect width="713" height="425" fill="#FFD600"/>
<path fill-rule="evenodd" clip-rule="evenodd" d="M136.334 174.246H166.937V283.27H157.373V304.31H126.77V195.286H136.334V174.246ZM216.666 174.246H186.063V283.27H195.627V304.31H226.23V195.286H216.666V174.246Z" fill="#FFD600"/>
<path fill-rule="evenodd" clip-rule="evenodd" d="M216.666 248.841H186.063V139.817H195.627V118.778H226.23L226.23 227.801H216.666V248.841ZM136.334 248.841H166.937V139.817H157.373V118.778H126.77L126.77 227.801H136.334V248.841Z" fill="#FFD600"/>
<path fill-rule="evenodd" clip-rule="evenodd" d="M308.477 250.754H277.874V141.73H287.438V120.69H318.041V229.714H308.477V250.754ZM228.144 250.754H258.747V141.73H249.183V120.69H218.58V229.714H228.144V250.754Z" fill="#FFD600"/>
<path fill-rule="evenodd" clip-rule="evenodd" d="M398.372 250.754H367.769V141.73H377.333V120.69H407.937V229.714H398.372V250.754ZM318.039 250.754H348.642V141.73H339.079V120.69H308.476V229.714H318.039V250.754Z" fill="#FFD600"/>
<path fill-rule="evenodd" clip-rule="evenodd" d="M488.268 250.754H457.665V141.73H467.229V120.69H497.832V229.714H488.268V250.754ZM407.936 250.754H438.539V141.73H428.976V120.69H398.373V229.714H407.936V250.754Z" fill="#FFD600"/>
<path fill-rule="evenodd" clip-rule="evenodd" d="M494.008 250.754H524.611V141.73H515.047V120.69H484.444V229.714H494.008V250.754ZM574.341 250.754H543.738V141.73H553.301V120.69H583.904V229.714H574.341V250.754Z" fill="#FFD600"/>
<path fill-rule="evenodd" clip-rule="evenodd" d="M226.232 174.246H256.835V283.27H247.271V304.31H216.668V195.286H226.232V174.246ZM306.564 174.246H275.961V283.27H285.524V304.31H316.127V195.286H306.564V174.246Z" fill="#FFD600"/>
<path fill-rule="evenodd" clip-rule="evenodd" d="M406.023 174.246H436.626V283.27H427.062V304.31H396.459V195.286H406.023V174.246ZM486.356 174.246H455.753V283.27H465.317V304.31H495.92V195.286H486.356V174.246Z" fill="#FFD600"/>
<path fill-rule="evenodd" clip-rule="evenodd" d="M576.253 174.246H545.65V283.27H555.214V304.31H585.817V195.286H576.253V174.246ZM495.92 174.246H526.524V283.27H516.961V304.31H486.357V195.286H495.92V174.246Z" fill="#FFD600"/>
<path fill-rule="evenodd" clip-rule="evenodd" d="M316.128 174.246H346.731V283.27H337.167V304.31H306.563V195.286H316.128V174.246ZM396.461 174.246H365.858V283.27H375.421V304.31H406.024V195.286H396.461V174.246Z" fill="#FFD600"/>
<rect x="80.8652" y="239.48" width="61.2064" height="28.9088" transform="rotate(-28.1677 80.8652 239.48)" fill="#FFD600"/>
<rect x="80.8652" y="239.48" width="61.2064" height="28.9088" transform="rotate(-28.1677 80.8652 239.48)" fill="#FFD600"/>
<rect x="80.8652" y="239.48" width="61.2064" height="28.9088" transform="rotate(-28.1677 80.8652 239.48)" fill="#FFD600"/>
<rect x="80.8652" y="239.48" width="61.2064" height="28.9088" transform="rotate(-28.1677 80.8652 239.48)" fill="#FFD600"/>
<rect x="80.8652" y="239.48" width="61.2064" height="28.9088" transform="rotate(-28.1677 80.8652 239.48)" fill="#FFD600"/>
<rect x="80.8652" y="239.48" width="61.2064" height="28.9088" transform="rotate(-28.1677 80.8652 239.48)" fill="#FFD600"/>
<rect x="80.8652" y="239.48" width="61.2064" height="28.9088" transform="rotate(-28.1677 80.8652 239.48)" fill="#FFD600"/>
<rect x="88.9277" y="158.944" width="61.2064" height="28.6905" transform="rotate(24.4786 88.9277 158.944)" fill="#FFD600"/>
<rect x="88.9277" y="158.944" width="61.2064" height="28.6905" transform="rotate(24.4786 88.9277 158.944)" fill="#FFD600"/>
<rect x="88.9277" y="158.944" width="61.2064" height="28.6905" transform="rotate(24.4786 88.9277 158.944)" fill="#FFD600"/>
<rect x="88.9277" y="158.944" width="61.2064" height="28.6905" transform="rotate(24.4786 88.9277 158.944)" fill="#FFD600"/>
<rect x="88.9277" y="158.944" width="61.2064" height="28.6905" transform="rotate(24.4786 88.9277 158.944)" fill="#FFD600"/>
<rect x="88.9277" y="158.944" width="61.2064" height="28.6905" transform="rotate(24.4786 88.9277 158.944)" fill="#FFD600"/>
<rect x="88.9277" y="158.944" width="61.2064" height="28.6905" transform="rotate(24.4786 88.9277 158.944)" fill="#FFD600"/>
<rect x="563.98" y="181.499" width="61.2064" height="28.6905" transform="rotate(-19.4942 563.98 181.499)" fill="#FFD600"/>
<rect x="563.98" y="181.499" width="61.2064" height="28.6905" transform="rotate(-19.4942 563.98 181.499)" fill="#FFD600"/>
<rect x="563.98" y="181.499" width="61.2064" height="28.6905" transform="rotate(-19.4942 563.98 181.499)" fill="#FFD600"/>
<rect x="563.98" y="181.499" width="61.2064" height="28.6905" transform="rotate(-19.4942 563.98 181.499)" fill="#FFD600"/>
<rect x="563.98" y="181.499" width="61.2064" height="28.6905" transform="rotate(-19.4942 563.98 181.499)" fill="#FFD600"/>
<rect x="563.98" y="181.499" width="61.2064" height="28.6905" transform="rotate(-19.4942 563.98 181.499)" fill="#FFD600"/>
<rect x="563.98" y="181.499" width="61.2064" height="28.6905" transform="rotate(-19.4942 563.98 181.499)" fill="#FFD600"/>
<rect x="578.798" y="210.587" width="61.2064" height="28.6905" transform="rotate(29.2518 578.798 210.587)" fill="#FFD600"/>
<rect x="578.798" y="210.587" width="61.2064" height="28.6905" transform="rotate(29.2518 578.798 210.587)" fill="#FFD600"/>
<rect x="578.798" y="210.587" width="61.2064" height="28.6905" transform="rotate(29.2518 578.798 210.587)" fill="#FFD600"/>
<rect x="578.798" y="210.587" width="61.2064" height="28.6905" transform="rotate(29.2518 578.798 210.587)" fill="#FFD600"/>
<rect x="578.798" y="210.587" width="61.2064" height="28.6905" transform="rotate(29.2518 578.798 210.587)" fill="#FFD600"/>
<rect x="578.798" y="210.587" width="61.2064" height="28.6905" transform="rotate(29.2518 578.798 210.587)" fill="#FFD600"/>
<rect x="578.798" y="210.587" width="61.2064" height="28.6905" transform="rotate(29.2518 578.798 210.587)" fill="#FFD600"/>
<mask id="path-15-outside-1_1251_985" maskUnits="userSpaceOnUse" x="55" y="91" width="174" height="243" fill="black">
<rect fill="white" x="55" y="91" width="174" height="243"/>
<path fill-rule="evenodd" clip-rule="evenodd" d="M138.737 92L176.449 150.187L214.382 92H227.843V161.157H214.382V114.846L183.885 161.157H169.114L138.737 115.22V161.157H125.156V92H138.737ZM138.737 333L176.449 274.813L214.382 333H227.843V263.843H214.382V310.154L183.885 263.843H169.114L138.737 309.78V263.843H125.157V250.382H78.8463L125.157 219.886V205.114L79.2202 174.737H125.157V161.157H56V174.737L114.187 212.449L56 250.382V263.844H125.156V333H138.737Z"/>
</mask>
<path fill-rule="evenodd" clip-rule="evenodd" d="M138.737 92L176.449 150.187L214.382 92H227.843V161.157H214.382V114.846L183.885 161.157H169.114L138.737 115.22V161.157H125.156V92H138.737ZM138.737 333L176.449 274.813L214.382 333H227.843V263.843H214.382V310.154L183.885 263.843H169.114L138.737 309.78V263.843H125.157V250.382H78.8463L125.157 219.886V205.114L79.2202 174.737H125.157V161.157H56V174.737L114.187 212.449L56 250.382V263.844H125.156V333H138.737Z" fill="#1E1E1E"/>
<path d="M176.449 150.187L175.61 150.73L176.446 152.021L177.287 150.733L176.449 150.187ZM138.737 92L139.576 91.4561L139.28 91H138.737V92ZM214.382 92V91H213.84L213.544 91.4539L214.382 92ZM227.843 92H228.843V91H227.843V92ZM227.843 161.157V162.157H228.843V161.157H227.843ZM214.382 161.157H213.382V162.157H214.382V161.157ZM214.382 114.846H215.382V111.51L213.547 114.296L214.382 114.846ZM183.885 161.157V162.157H184.424L184.721 161.707L183.885 161.157ZM169.114 161.157L168.28 161.708L168.576 162.157H169.114V161.157ZM138.737 115.22L139.571 114.669L137.737 111.895V115.22H138.737ZM138.737 161.157V162.157H139.737V161.157H138.737ZM125.156 161.157H124.156V162.157H125.156V161.157ZM125.156 92V91H124.156V92H125.156ZM176.449 274.813L177.287 274.267L176.446 272.979L175.61 274.27L176.449 274.813ZM138.737 333V334H139.28L139.576 333.544L138.737 333ZM214.382 333L213.544 333.546L213.84 334H214.382V333ZM227.843 333V334H228.843V333H227.843ZM227.843 263.843H228.843V262.843H227.843V263.843ZM214.382 263.843V262.843H213.382V263.843H214.382ZM214.382 310.154L213.547 310.704L215.382 313.49V310.154H214.382ZM183.885 263.843L184.721 263.293L184.424 262.843H183.885V263.843ZM169.114 263.843V262.843H168.576L168.28 263.292L169.114 263.843ZM138.737 309.78H137.737V313.105L139.571 310.331L138.737 309.78ZM138.737 263.843H139.737V262.843H138.737V263.843ZM125.157 263.843H124.157V264.843H125.157V263.843ZM125.157 250.382H126.157V249.382H125.157V250.382ZM78.8463 250.382L78.2963 249.547L75.5095 251.382H78.8463V250.382ZM125.157 219.886L125.707 220.721L126.157 220.425L126.157 219.886H125.157ZM125.157 205.114H126.157V204.577L125.708 204.28L125.157 205.114ZM79.2202 174.737V173.737H75.8951L78.6686 175.571L79.2202 174.737ZM125.157 174.737V175.737H126.157V174.737H125.157ZM125.157 161.157H126.157V160.157H125.157V161.157ZM56 161.157V160.157H55V161.157H56ZM56 174.737H55V175.281L55.4561 175.576L56 174.737ZM114.187 212.449L114.733 213.287L116.021 212.447L114.73 211.61L114.187 212.449ZM56 250.382L55.4539 249.545L55 249.841V250.382H56ZM56 263.844H55V264.844H56V263.844ZM125.156 263.844H126.156V262.844H125.156V263.844ZM125.156 333H124.156V334H125.156V333ZM177.288 149.643L139.576 91.4561L137.897 92.5439L175.61 150.73L177.288 149.643ZM213.544 91.4539L175.611 149.64L177.287 150.733L215.22 92.5461L213.544 91.4539ZM227.843 91H214.382V93H227.843V91ZM228.843 161.157V92H226.843V161.157H228.843ZM214.382 162.157H227.843V160.157H214.382V162.157ZM213.382 114.846V161.157H215.382V114.846H213.382ZM184.721 161.707L215.217 115.396L213.547 114.296L183.05 160.607L184.721 161.707ZM169.114 162.157H183.885V160.157H169.114V162.157ZM137.902 115.772L168.28 161.708L169.948 160.605L139.571 114.669L137.902 115.772ZM139.737 161.157V115.22H137.737V161.157H139.737ZM125.156 162.157H138.737V160.157H125.156V162.157ZM124.156 92V161.157H126.156V92H124.156ZM138.737 91H125.156V93H138.737V91ZM175.61 274.27L137.897 332.456L139.576 333.544L177.288 275.357L175.61 274.27ZM215.22 332.454L177.287 274.267L175.611 275.359L213.544 333.546L215.22 332.454ZM227.843 332H214.382V334H227.843V332ZM226.843 263.843V333H228.843V263.843H226.843ZM214.382 264.843H227.843V262.843H214.382V264.843ZM215.382 310.154V263.843H213.382V310.154H215.382ZM183.05 264.393L213.547 310.704L215.217 309.604L184.721 263.293L183.05 264.393ZM169.114 264.843H183.885V262.843H169.114V264.843ZM139.571 310.331L169.948 264.395L168.28 263.292L137.902 309.228L139.571 310.331ZM137.737 263.843V309.78H139.737V263.843H137.737ZM125.157 264.843H138.737V262.843H125.157V264.843ZM126.157 263.843V250.382H124.157V263.843H126.157ZM125.157 249.382H78.8463V251.382H125.157V249.382ZM79.3963 251.218L125.707 220.721L124.607 219.051L78.2963 249.547L79.3963 251.218ZM126.157 219.886V205.114H124.157V219.886H126.157ZM125.708 204.28L79.7718 173.903L78.6686 175.571L124.605 205.948L125.708 204.28ZM79.2202 175.737H125.157V173.737H79.2202V175.737ZM126.157 174.737V161.157H124.157V174.737H126.157ZM125.157 160.157H56V162.157H125.157V160.157ZM55 161.157V174.737H57V161.157H55ZM55.4561 175.576L113.643 213.289L114.73 211.61L56.5439 173.898L55.4561 175.576ZM113.64 211.612L55.4539 249.545L56.5461 251.22L114.733 213.287L113.64 211.612ZM55 250.382V263.844H57V250.382H55ZM56 264.844H125.156V262.844H56V264.844ZM126.156 333V263.844H124.156V333H126.156ZM138.737 332H125.156V334H138.737V332Z" fill="#1E1E1E" mask="url(#path-15-outside-1_1251_985)"/>
<mask id="path-17-outside-2_1251_985" maskUnits="userSpaceOnUse" x="484.289" y="91" width="174" height="243" fill="black">
<rect fill="white" x="484.289" y="91" width="174" height="243"/>
<path fill-rule="evenodd" clip-rule="evenodd" d="M574.553 92L536.84 150.187L498.907 92H485.446V161.157H498.907V114.846L529.404 161.157H544.175L574.553 115.22V161.157H588.133V92H574.553ZM574.553 333L536.84 274.813L498.907 333H485.446V263.843H498.907V310.154L529.404 263.843H544.175L574.553 309.78V263.843H588.133V250.382H634.443L588.133 219.886V205.114L634.069 174.737H588.133V161.157H657.289V174.737L599.102 212.449L657.289 250.382V263.844H588.133V333H574.553Z"/>
</mask>
<path fill-rule="evenodd" clip-rule="evenodd" d="M574.553 92L536.84 150.187L498.907 92H485.446V161.157H498.907V114.846L529.404 161.157H544.175L574.553 115.22V161.157H588.133V92H574.553ZM574.553 333L536.84 274.813L498.907 333H485.446V263.843H498.907V310.154L529.404 263.843H544.175L574.553 309.78V263.843H588.133V250.382H634.443L588.133 219.886V205.114L634.069 174.737H588.133V161.157H657.289V174.737L599.102 212.449L657.289 250.382V263.844H588.133V333H574.553Z" fill="#1E1E1E"/>
<path d="M536.84 150.187L537.679 150.73L536.843 152.021L536.002 150.733L536.84 150.187ZM574.553 92L573.713 91.4561L574.009 91H574.553V92ZM498.907 92V91H499.449L499.745 91.4539L498.907 92ZM485.446 92H484.446V91H485.446V92ZM485.446 161.157V162.157H484.446V161.157H485.446ZM498.907 161.157H499.907V162.157H498.907V161.157ZM498.907 114.846H497.907V111.51L499.742 114.296L498.907 114.846ZM529.404 161.157V162.157H528.865L528.568 161.707L529.404 161.157ZM544.175 161.157L545.009 161.708L544.713 162.157H544.175V161.157ZM574.553 115.22L573.718 114.669L575.553 111.895V115.22H574.553ZM574.553 161.157V162.157H573.553V161.157H574.553ZM588.133 161.157H589.133V162.157H588.133V161.157ZM588.133 92V91H589.133V92H588.133ZM536.84 274.813L536.002 274.267L536.843 272.979L537.679 274.27L536.84 274.813ZM574.553 333V334H574.009L573.713 333.544L574.553 333ZM498.907 333L499.745 333.546L499.449 334H498.907V333ZM485.446 333V334H484.446V333H485.446ZM485.446 263.843H484.446V262.843H485.446V263.843ZM498.907 263.843V262.843H499.907V263.843H498.907ZM498.907 310.154L499.742 310.704L497.907 313.49V310.154H498.907ZM529.404 263.843L528.568 263.293L528.865 262.843H529.404V263.843ZM544.175 263.843V262.843H544.713L545.009 263.292L544.175 263.843ZM574.553 309.78H575.553V313.105L573.718 310.331L574.553 309.78ZM574.553 263.843H573.553V262.843H574.553V263.843ZM588.133 263.843H589.133V264.843H588.133V263.843ZM588.133 250.382H587.133V249.382H588.133V250.382ZM634.443 250.382L634.993 249.547L637.78 251.382H634.443V250.382ZM588.133 219.886L587.583 220.721L587.133 220.425V219.886H588.133ZM588.133 205.114H587.133V204.577L587.581 204.28L588.133 205.114ZM634.069 174.737V173.737H637.394L634.62 175.571L634.069 174.737ZM588.133 174.737V175.737H587.133V174.737H588.133ZM588.133 161.157H587.133V160.157H588.133V161.157ZM657.289 161.157V160.157H658.289V161.157H657.289ZM657.289 174.737H658.289V175.281L657.833 175.576L657.289 174.737ZM599.102 212.449L598.556 213.287L597.268 212.447L598.559 211.61L599.102 212.449ZM657.289 250.382L657.835 249.545L658.289 249.841V250.382H657.289ZM657.289 263.844H658.289V264.844H657.289V263.844ZM588.133 263.844H587.133V262.844H588.133V263.844ZM588.133 333H589.133V334H588.133V333ZM536.001 149.643L573.713 91.4561L575.392 92.5439L537.679 150.73L536.001 149.643ZM499.745 91.4539L537.678 149.64L536.002 150.733L498.07 92.5461L499.745 91.4539ZM485.446 91H498.907V93H485.446V91ZM484.446 161.157V92H486.446V161.157H484.446ZM498.907 162.157H485.446V160.157H498.907V162.157ZM499.907 114.846V161.157H497.907V114.846H499.907ZM528.568 161.707L498.072 115.396L499.742 114.296L530.239 160.607L528.568 161.707ZM544.175 162.157H529.404V160.157H544.175V162.157ZM575.387 115.772L545.009 161.708L543.341 160.605L573.718 114.669L575.387 115.772ZM573.553 161.157V115.22H575.553V161.157H573.553ZM588.133 162.157H574.553V160.157H588.133V162.157ZM589.133 92V161.157H587.133V92H589.133ZM574.553 91H588.133V93H574.553V91ZM537.679 274.27L575.392 332.456L573.713 333.544L536.001 275.357L537.679 274.27ZM498.07 332.454L536.002 274.267L537.678 275.359L499.745 333.546L498.07 332.454ZM485.446 332H498.907V334H485.446V332ZM486.446 263.843V333H484.446V263.843H486.446ZM498.907 264.843H485.446V262.843H498.907V264.843ZM497.907 310.154V263.843H499.907V310.154H497.907ZM530.239 264.393L499.742 310.704L498.072 309.604L528.568 263.293L530.239 264.393ZM544.175 264.843H529.404V262.843H544.175V264.843ZM573.718 310.331L543.341 264.395L545.009 263.292L575.387 309.228L573.718 310.331ZM575.553 263.843V309.78H573.553V263.843H575.553ZM588.133 264.843H574.553V262.843H588.133V264.843ZM587.133 263.843V250.382H589.133V263.843H587.133ZM588.133 249.382H634.443V251.382H588.133V249.382ZM633.893 251.218L587.583 220.721L588.683 219.051L634.993 249.547L633.893 251.218ZM587.133 219.886V205.114H589.133V219.886H587.133ZM587.581 204.28L633.517 173.903L634.62 175.571L588.684 205.948L587.581 204.28ZM634.069 175.737H588.133V173.737H634.069V175.737ZM587.133 174.737V161.157H589.133V174.737H587.133ZM588.133 160.157H657.289V162.157H588.133V160.157ZM658.289 161.157V174.737H656.289V161.157H658.289ZM657.833 175.576L599.646 213.289L598.559 211.61L656.745 173.898L657.833 175.576ZM599.649 211.612L657.835 249.545L656.743 251.22L598.556 213.287L599.649 211.612ZM658.289 250.382V263.844H656.289V250.382H658.289ZM657.289 264.844H588.133V262.844H657.289V264.844ZM587.133 333V263.844H589.133V333H587.133ZM574.553 332H588.133V334H574.553V332Z" fill="#1E1E1E" mask="url(#path-17-outside-2_1251_985)"/>
<mask id="path-19-outside-3_1251_985" maskUnits="userSpaceOnUse" x="214.053" y="91" width="105" height="243" fill="black">
<rect fill="white" x="214.053" y="91" width="105" height="243"/>
<path fill-rule="evenodd" clip-rule="evenodd" d="M266.346 150.187L228.633 92H215.053V161.157H228.633V115.22L259.01 161.157H273.782L304.278 114.846V161.157H317.74V92H304.278L266.346 150.187ZM266.346 274.813L228.633 333H215.053V263.843H228.633V309.78L259.01 263.843H273.782L304.278 310.154V263.843H317.74V333H304.278L266.346 274.813Z"/>
</mask>
<path fill-rule="evenodd" clip-rule="evenodd" d="M266.346 150.187L228.633 92H215.053V161.157H228.633V115.22L259.01 161.157H273.782L304.278 114.846V161.157H317.74V92H304.278L266.346 150.187ZM266.346 274.813L228.633 333H215.053V263.843H228.633V309.78L259.01 263.843H273.782L304.278 310.154V263.843H317.74V333H304.278L266.346 274.813Z" fill="#1E1E1E"/>
<path d="M228.633 92L229.472 91.4561L229.177 91H228.633V92ZM266.346 150.187L265.506 150.73L266.343 152.021L267.183 150.733L266.346 150.187ZM215.053 92V91H214.053V92H215.053ZM215.053 161.157H214.053V162.157H215.053V161.157ZM228.633 161.157V162.157H229.633V161.157H228.633ZM228.633 115.22L229.467 114.669L227.633 111.895V115.22H228.633ZM259.01 161.157L258.176 161.708L258.473 162.157H259.01V161.157ZM273.782 161.157V162.157H274.321L274.617 161.707L273.782 161.157ZM304.278 114.846H305.278V111.51L303.443 114.296L304.278 114.846ZM304.278 161.157H303.278V162.157H304.278V161.157ZM317.74 161.157V162.157H318.74V161.157H317.74ZM317.74 92H318.74V91H317.74V92ZM304.278 92V91H303.737L303.441 91.4539L304.278 92ZM228.633 333V334H229.177L229.472 333.544L228.633 333ZM266.346 274.813L267.183 274.267L266.343 272.979L265.506 274.27L266.346 274.813ZM215.053 333H214.053V334H215.053V333ZM215.053 263.843V262.843H214.053V263.843H215.053ZM228.633 263.843H229.633V262.843H228.633V263.843ZM228.633 309.78H227.633V313.105L229.467 310.331L228.633 309.78ZM259.01 263.843V262.843H258.473L258.176 263.292L259.01 263.843ZM273.782 263.843L274.617 263.293L274.321 262.843H273.782V263.843ZM304.278 310.154L303.443 310.704L305.278 313.49V310.154H304.278ZM304.278 263.843V262.843H303.278V263.843H304.278ZM317.74 263.843H318.74V262.843H317.74V263.843ZM317.74 333V334H318.74V333H317.74ZM304.278 333L303.441 333.546L303.737 334H304.278V333ZM227.794 92.5439L265.506 150.73L267.185 149.643L229.472 91.4561L227.794 92.5439ZM215.053 93H228.633V91H215.053V93ZM216.053 161.157V92H214.053V161.157H216.053ZM228.633 160.157H215.053V162.157H228.633V160.157ZM227.633 115.22V161.157H229.633V115.22H227.633ZM259.844 160.605L229.467 114.669L227.799 115.772L258.176 161.708L259.844 160.605ZM273.782 160.157H259.01V162.157H273.782V160.157ZM303.443 114.296L272.947 160.607L274.617 161.707L305.114 115.396L303.443 114.296ZM305.278 161.157V114.846H303.278V161.157H305.278ZM317.74 160.157H304.278V162.157H317.74V160.157ZM316.74 92V161.157H318.74V92H316.74ZM304.278 93H317.74V91H304.278V93ZM267.183 150.733L305.116 92.5461L303.441 91.4539L265.508 149.64L267.183 150.733ZM229.472 333.544L267.185 275.357L265.506 274.27L227.794 332.456L229.472 333.544ZM215.053 334H228.633V332H215.053V334ZM214.053 263.843V333H216.053V263.843H214.053ZM228.633 262.843H215.053V264.843H228.633V262.843ZM229.633 309.78V263.843H227.633V309.78H229.633ZM258.176 263.292L227.799 309.228L229.467 310.331L259.844 264.395L258.176 263.292ZM273.782 262.843H259.01V264.843H273.782V262.843ZM305.114 309.604L274.617 263.293L272.947 264.393L303.443 310.704L305.114 309.604ZM303.278 263.843V310.154H305.278V263.843H303.278ZM317.74 262.843H304.278V264.843H317.74V262.843ZM318.74 333V263.843H316.74V333H318.74ZM304.278 334H317.74V332H304.278V334ZM265.508 275.36L303.441 333.546L305.116 332.454L267.183 274.267L265.508 275.36Z" fill="#1E1E1E" mask="url(#path-19-outside-3_1251_985)"/>
<mask id="path-21-outside-4_1251_985" maskUnits="userSpaceOnUse" x="306" y="91" width="105" height="243" fill="black">
<rect fill="white" x="306" y="91" width="105" height="243"/>
<path fill-rule="evenodd" clip-rule="evenodd" d="M358.293 150.187L320.58 92H307V161.157H320.58V115.22L350.958 161.157H365.729L396.226 114.846V161.157H409.687V92H396.226L358.293 150.187ZM358.293 274.813L320.58 333H307V263.843H320.58V309.78L350.958 263.843H365.729L396.226 310.154V263.843H409.687V333H396.226L358.293 274.813Z"/>
</mask>
<path fill-rule="evenodd" clip-rule="evenodd" d="M358.293 150.187L320.58 92H307V161.157H320.58V115.22L350.958 161.157H365.729L396.226 114.846V161.157H409.687V92H396.226L358.293 150.187ZM358.293 274.813L320.58 333H307V263.843H320.58V309.78L350.958 263.843H365.729L396.226 310.154V263.843H409.687V333H396.226L358.293 274.813Z" fill="#1E1E1E"/>
<path d="M320.58 92L321.42 91.4561L321.124 91H320.58V92ZM358.293 150.187L357.454 150.73L358.29 152.021L359.13 150.733L358.293 150.187ZM307 92V91H306V92H307ZM307 161.157H306V162.157H307V161.157ZM320.58 161.157V162.157H321.58V161.157H320.58ZM320.58 115.22L321.415 114.669L319.58 111.895V115.22H320.58ZM350.958 161.157L350.124 161.708L350.42 162.157H350.958V161.157ZM365.729 161.157V162.157H366.268L366.564 161.707L365.729 161.157ZM396.226 114.846H397.226V111.51L395.39 114.296L396.226 114.846ZM396.226 161.157H395.226V162.157H396.226V161.157ZM409.687 161.157V162.157H410.687V161.157H409.687ZM409.687 92H410.687V91H409.687V92ZM396.226 92V91H395.684L395.388 91.4539L396.226 92ZM320.58 333V334H321.124L321.42 333.544L320.58 333ZM358.293 274.813L359.13 274.267L358.29 272.979L357.454 274.27L358.293 274.813ZM307 333H306V334H307V333ZM307 263.843V262.843H306V263.843H307ZM320.58 263.843H321.58V262.843H320.58V263.843ZM320.58 309.78H319.58V313.105L321.415 310.331L320.58 309.78ZM350.958 263.843V262.843H350.42L350.124 263.292L350.958 263.843ZM365.729 263.843L366.564 263.293L366.268 262.843H365.729V263.843ZM396.226 310.154L395.39 310.704L397.226 313.49V310.154H396.226ZM396.226 263.843V262.843H395.226V263.843H396.226ZM409.687 263.843H410.687V262.843H409.687V263.843ZM409.687 333V334H410.687V333H409.687ZM396.226 333L395.388 333.546L395.684 334H396.226V333ZM319.741 92.5439L357.454 150.73L359.132 149.643L321.42 91.4561L319.741 92.5439ZM307 93H320.58V91H307V93ZM308 161.157V92H306V161.157H308ZM320.58 160.157H307V162.157H320.58V160.157ZM319.58 115.22V161.157H321.58V115.22H319.58ZM351.792 160.605L321.415 114.669L319.746 115.772L350.124 161.708L351.792 160.605ZM365.729 160.157H350.958V162.157H365.729V160.157ZM395.39 114.296L364.894 160.607L366.564 161.707L397.061 115.396L395.39 114.296ZM397.226 161.157V114.846H395.226V161.157H397.226ZM409.687 160.157H396.226V162.157H409.687V160.157ZM408.687 92V161.157H410.687V92H408.687ZM396.226 93H409.687V91H396.226V93ZM359.13 150.733L397.063 92.5461L395.388 91.4539L357.455 149.64L359.13 150.733ZM321.42 333.544L359.132 275.357L357.454 274.27L319.741 332.456L321.42 333.544ZM307 334H320.58V332H307V334ZM306 263.843V333H308V263.843H306ZM320.58 262.843H307V264.843H320.58V262.843ZM321.58 309.78V263.843H319.58V309.78H321.58ZM350.124 263.292L319.746 309.228L321.415 310.331L351.792 264.395L350.124 263.292ZM365.729 262.843H350.958V264.843H365.729V262.843ZM397.061 309.604L366.564 263.293L364.894 264.393L395.39 310.704L397.061 309.604ZM395.226 263.843V310.154H397.226V263.843H395.226ZM409.687 262.843H396.226V264.843H409.687V262.843ZM410.687 333V263.843H408.687V333H410.687ZM396.226 334H409.687V332H396.226V334ZM357.455 275.36L395.388 333.546L397.063 332.454L359.13 274.267L357.455 275.36Z" fill="#1E1E1E" mask="url(#path-21-outside-4_1251_985)"/>
<mask id="path-23-outside-5_1251_985" maskUnits="userSpaceOnUse" x="395.35" y="91" width="105" height="243" fill="black">
<rect fill="white" x="395.35" y="91" width="105" height="243"/>
<path fill-rule="evenodd" clip-rule="evenodd" d="M447.642 150.187L409.93 92H396.35V161.157H409.93V115.22L440.307 161.157H455.079L485.575 114.846V161.157H499.037V92H485.575L447.642 150.187ZM447.642 274.813L409.93 333H396.35V263.843H409.93V309.78L440.307 263.843H455.079L485.575 310.154V263.843H499.037V333H485.575L447.642 274.813Z"/>
</mask>
<path fill-rule="evenodd" clip-rule="evenodd" d="M447.642 150.187L409.93 92H396.35V161.157H409.93V115.22L440.307 161.157H455.079L485.575 114.846V161.157H499.037V92H485.575L447.642 150.187ZM447.642 274.813L409.93 333H396.35V263.843H409.93V309.78L440.307 263.843H455.079L485.575 310.154V263.843H499.037V333H485.575L447.642 274.813Z" fill="#1E1E1E"/>
<path d="M409.93 92L410.769 91.4561L410.474 91H409.93V92ZM447.642 150.187L446.803 150.73L447.64 152.021L448.48 150.733L447.642 150.187ZM396.35 92V91H395.35V92H396.35ZM396.35 161.157H395.35V162.157H396.35V161.157ZM409.93 161.157V162.157H410.93V161.157H409.93ZM409.93 115.22L410.764 114.669L408.93 111.895V115.22H409.93ZM440.307 161.157L439.473 161.708L439.77 162.157H440.307V161.157ZM455.079 161.157V162.157H455.618L455.914 161.707L455.079 161.157ZM485.575 114.846H486.575V111.51L484.74 114.296L485.575 114.846ZM485.575 161.157H484.575V162.157H485.575V161.157ZM499.037 161.157V162.157H500.037V161.157H499.037ZM499.037 92H500.037V91H499.037V92ZM485.575 92V91H485.033L484.738 91.4539L485.575 92ZM409.93 333V334H410.474L410.769 333.544L409.93 333ZM447.642 274.813L448.48 274.267L447.64 272.979L446.803 274.27L447.642 274.813ZM396.35 333H395.35V334H396.35V333ZM396.35 263.843V262.843H395.35V263.843H396.35ZM409.93 263.843H410.93V262.843H409.93V263.843ZM409.93 309.78H408.93V313.105L410.764 310.331L409.93 309.78ZM440.307 263.843V262.843H439.77L439.473 263.292L440.307 263.843ZM455.079 263.843L455.914 263.293L455.618 262.843H455.079V263.843ZM485.575 310.154L484.74 310.704L486.575 313.49V310.154H485.575ZM485.575 263.843V262.843H484.575V263.843H485.575ZM499.037 263.843H500.037V262.843H499.037V263.843ZM499.037 333V334H500.037V333H499.037ZM485.575 333L484.738 333.546L485.033 334H485.575V333ZM409.091 92.5439L446.803 150.73L448.482 149.643L410.769 91.4561L409.091 92.5439ZM396.35 93H409.93V91H396.35V93ZM397.35 161.157V92H395.35V161.157H397.35ZM409.93 160.157H396.35V162.157H409.93V160.157ZM408.93 115.22V161.157H410.93V115.22H408.93ZM441.141 160.605L410.764 114.669L409.096 115.772L439.473 161.708L441.141 160.605ZM455.079 160.157H440.307V162.157H455.079V160.157ZM484.74 114.296L454.244 160.607L455.914 161.707L486.41 115.396L484.74 114.296ZM486.575 161.157V114.846H484.575V161.157H486.575ZM499.037 160.157H485.575V162.157H499.037V160.157ZM498.037 92V161.157H500.037V92H498.037ZM485.575 93H499.037V91H485.575V93ZM448.48 150.733L486.413 92.5461L484.738 91.4539L446.805 149.64L448.48 150.733ZM410.769 333.544L448.482 275.357L446.803 274.27L409.091 332.456L410.769 333.544ZM396.35 334H409.93V332H396.35V334ZM395.35 263.843V333H397.35V263.843H395.35ZM409.93 262.843H396.35V264.843H409.93V262.843ZM410.93 309.78V263.843H408.93V309.78H410.93ZM439.473 263.292L409.096 309.228L410.764 310.331L441.141 264.395L439.473 263.292ZM455.079 262.843H440.307V264.843H455.079V262.843ZM486.41 309.604L455.914 263.293L454.244 264.393L484.74 310.704L486.41 309.604ZM484.575 263.843V310.154H486.575V263.843H484.575ZM499.037 262.843H485.575V264.843H499.037V262.843ZM500.037 333V263.843H498.037V333H500.037ZM485.575 334H499.037V332H485.575V334ZM446.805 275.36L484.738 333.546L486.413 332.454L448.48 274.267L446.805 275.36Z" fill="#1E1E1E" mask="url(#path-23-outside-5_1251_985)"/>
<rect x="124" y="161" width="463" height="103" fill="#FFD600"/>
</svg>
