<svg width="713" height="425" viewBox="0 0 713 425" fill="none" xmlns="http://www.w3.org/2000/svg">
<rect width="713" height="425" fill="#D9D9D9"/>
<path fill-rule="evenodd" clip-rule="evenodd" d="M527.173 166.931V166.93L527.175 166.931H527.173ZM527.173 170.909V184.337H542.78V170.909H527.173ZM527.173 189.931V249.237H542.78V189.931H527.173ZM333.031 249.797C350.026 249.797 363.803 236.02 363.803 219.025C363.803 202.03 350.026 188.253 333.031 188.253C316.036 188.253 302.259 202.03 302.259 219.025C302.259 236.02 316.036 249.797 333.031 249.797ZM333.031 236.221C342.528 236.221 350.227 228.522 350.227 219.025C350.227 209.528 342.528 201.829 333.031 201.829C323.534 201.829 315.835 209.528 315.835 219.025C315.835 228.522 323.534 236.221 333.031 236.221ZM372.755 188.811V249.237H388.23V213.429L408.864 237.993V238.607L409.122 238.3L409.38 238.607V237.993L430.014 213.429V249.237H445.489V188.811H430.641L409.122 213.138L387.603 188.811H372.755ZM456.681 188.811V249.237H472.288V208.651L500.381 235.072V235.32H500.645L515.986 249.748V235.32H515.988V188.811H500.381V211.967L475.759 188.811H456.681Z" fill="#1E1E1E"/>
<path fill-rule="evenodd" clip-rule="evenodd" d="M220.41 172.959L227.312 192.292H234.575L239.882 174.642L253.604 170.683L250.346 192.292H256.113V199.502L270.551 192.032C272.023 191.271 273.833 191.847 274.594 193.319L278.9 201.642C279.662 203.114 279.086 204.924 277.614 205.685L256.113 216.808V218.848L280.886 230.383L274.523 244.048L256.113 235.476V242.818H250.673L252.953 268.082L238.594 263.096L233.713 242.818H227.353L228.842 244.182L212.147 266.02L205.316 253.249L211.126 242.818H205.587V235.557L187.348 244.049L180.985 230.384L205.587 218.929V216.859L183.991 205.687C182.519 204.926 181.943 203.116 182.705 201.644L187.011 193.32C187.772 191.849 189.582 191.273 191.054 192.034L205.587 199.552V192.292H210.849L206.303 169.678L220.41 172.959Z" fill="#FFD600"/>
<mask id="path-3-outside-1_994_1089" maskUnits="userSpaceOnUse" x="167" y="152.398" width="127" height="130" fill="black">
<rect fill="white" x="167" y="152.398" width="127" height="130"/>
<path fill-rule="evenodd" clip-rule="evenodd" d="M230.297 184.896L211.105 154.398H204.194V190.645H211.105V166.569L226.564 190.645H234.081L249.601 166.373V190.645H256.451V154.398H249.601L230.297 184.896ZM230.297 250.215L211.105 280.712H204.194V244.466H169V237.411L198.611 217.529L169 197.763V190.645H204.194V197.763H180.817L204.194 213.685V221.427L180.627 237.411H204.194V244.466H211.105V268.542L226.564 244.466H234.081L249.601 268.738V244.466H256.451V280.712H249.601L230.297 250.215ZM262.034 217.529L291.646 237.411V244.466H256.452V237.411H280.019L256.452 221.427V213.685L279.829 197.763H256.452V190.645H291.646V197.763L262.034 217.529Z"/>
</mask>
<path fill-rule="evenodd" clip-rule="evenodd" d="M230.297 184.896L211.105 154.398H204.194V190.645H211.105V166.569L226.564 190.645H234.081L249.601 166.373V190.645H256.451V154.398H249.601L230.297 184.896ZM230.297 250.215L211.105 280.712H204.194V244.466H169V237.411L198.611 217.529L169 197.763V190.645H204.194V197.763H180.817L204.194 213.685V221.427L180.627 237.411H204.194V244.466H211.105V268.542L226.564 244.466H234.081L249.601 268.738V244.466H256.451V280.712H249.601L230.297 250.215ZM262.034 217.529L291.646 237.411V244.466H256.452V237.411H280.019L256.452 221.427V213.685L279.829 197.763H256.452V190.645H291.646V197.763L262.034 217.529Z" fill="#1E1E1E"/>
<path d="M211.105 154.398L212.374 153.6L211.933 152.898H211.105V154.398ZM230.297 184.896L229.027 185.694L230.293 187.706L231.564 185.698L230.297 184.896ZM204.194 154.398V152.898H202.694V154.398H204.194ZM204.194 190.645H202.694V192.145H204.194V190.645ZM211.105 190.645V192.145H212.605V190.645H211.105ZM211.105 166.569L212.367 165.758L209.605 161.456V166.569H211.105ZM226.564 190.645L225.301 191.456L225.744 192.145H226.564V190.645ZM234.081 190.645V192.145H234.902L235.345 191.453L234.081 190.645ZM249.601 166.373H251.101V161.242L248.337 165.565L249.601 166.373ZM249.601 190.645H248.101V192.145H249.601V190.645ZM256.451 190.645V192.145H257.951V190.645H256.451ZM256.451 154.398H257.951V152.898H256.451V154.398ZM249.601 154.398V152.898H248.775L248.333 153.596L249.601 154.398ZM211.105 280.712V282.212H211.933L212.374 281.511L211.105 280.712ZM230.297 250.215L231.564 249.413L230.293 247.405L229.027 249.416L230.297 250.215ZM204.194 280.712H202.694V282.212H204.194V280.712ZM204.194 244.466H205.694V242.966H204.194V244.466ZM169 244.466H167.5V245.966H169V244.466ZM169 237.411L168.164 236.165L167.5 236.611V237.411H169ZM198.611 217.529L199.447 218.775L201.308 217.526L199.444 216.282L198.611 217.529ZM169 197.763H167.5V198.565L168.167 199.011L169 197.763ZM169 190.645V189.145H167.5V190.645H169ZM204.194 190.645H205.694V189.145H204.194V190.645ZM204.194 197.763V199.263H205.694V197.763H204.194ZM180.817 197.763V196.263H175.95L179.972 199.003L180.817 197.763ZM204.194 213.685H205.694V212.891L205.038 212.445L204.194 213.685ZM204.194 221.427L205.036 222.668L205.694 222.222V221.427H204.194ZM180.627 237.411L179.785 236.169L175.743 238.911H180.627V237.411ZM204.194 237.411H205.694V235.911H204.194V237.411ZM204.194 244.466H202.694V245.966H204.194V244.466ZM211.105 244.466H212.605V242.966H211.105V244.466ZM211.105 268.542H209.605V273.654L212.367 269.352L211.105 268.542ZM226.564 244.466V242.966H225.744L225.301 243.655L226.564 244.466ZM234.081 244.466L235.345 243.658L234.902 242.966H234.081V244.466ZM249.601 268.738L248.337 269.546L251.101 273.868V268.738H249.601ZM249.601 244.466V242.966H248.101V244.466H249.601ZM256.451 244.466H257.951V242.966H256.451V244.466ZM256.451 280.712V282.212H257.951V280.712H256.451ZM249.601 280.712L248.333 281.515L248.775 282.212H249.601V280.712ZM262.034 217.529L261.201 216.282L259.338 217.526L261.198 218.775L262.034 217.529ZM291.646 237.411H293.146V236.611L292.482 236.165L291.646 237.411ZM291.646 244.466V245.966H293.146V244.466H291.646ZM256.452 244.466H254.952V245.966H256.452V244.466ZM256.452 237.411V235.911H254.952V237.411H256.452ZM280.019 237.411V238.911H284.903L280.861 236.169L280.019 237.411ZM256.452 221.427H254.952V222.222L255.61 222.668L256.452 221.427ZM256.452 213.685L255.607 212.445L254.952 212.891V213.685H256.452ZM279.829 197.763L280.673 199.003L284.696 196.263H279.829V197.763ZM256.452 197.763H254.952V199.263H256.452V197.763ZM256.452 190.645V189.145H254.952V190.645H256.452ZM291.646 190.645H293.146V189.145H291.646V190.645ZM291.646 197.763L292.478 199.011L293.146 198.565V197.763H291.646ZM209.835 155.197L229.027 185.694L231.566 184.097L212.374 153.6L209.835 155.197ZM204.194 155.898H211.105V152.898H204.194V155.898ZM205.694 190.645V154.398H202.694V190.645H205.694ZM211.105 189.145H204.194V192.145H211.105V189.145ZM209.605 166.569V190.645H212.605V166.569H209.605ZM227.826 189.835L212.367 165.758L209.842 167.379L225.301 191.456L227.826 189.835ZM234.081 189.145H226.564V192.145H234.081V189.145ZM248.337 165.565L232.817 189.837L235.345 191.453L250.864 167.181L248.337 165.565ZM251.101 190.645V166.373H248.101V190.645H251.101ZM256.451 189.145H249.601V192.145H256.451V189.145ZM254.951 154.398V190.645H257.951V154.398H254.951ZM249.601 155.898H256.451V152.898H249.601V155.898ZM231.564 185.698L250.868 155.201L248.333 153.596L229.029 184.093L231.564 185.698ZM212.374 281.511L231.566 251.014L229.027 249.416L209.835 279.913L212.374 281.511ZM204.194 282.212H211.105V279.212H204.194V282.212ZM202.694 244.466V280.712H205.694V244.466H202.694ZM169 245.966H204.194V242.966H169V245.966ZM167.5 237.411V244.466H170.5V237.411H167.5ZM197.775 216.284L168.164 236.165L169.836 238.656L199.447 218.775L197.775 216.284ZM168.167 199.011L197.778 218.777L199.444 216.282L169.833 196.516L168.167 199.011ZM167.5 190.645V197.763H170.5V190.645H167.5ZM204.194 189.145H169V192.145H204.194V189.145ZM205.694 197.763V190.645H202.694V197.763H205.694ZM180.817 199.263H204.194V196.263H180.817V199.263ZM205.038 212.445L181.661 196.523L179.972 199.003L203.349 214.924L205.038 212.445ZM205.694 221.427V213.685H202.694V221.427H205.694ZM181.468 238.652L205.036 222.668L203.352 220.185L179.785 236.169L181.468 238.652ZM204.194 235.911H180.627V238.911H204.194V235.911ZM205.694 244.466V237.411H202.694V244.466H205.694ZM211.105 242.966H204.194V245.966H211.105V242.966ZM212.605 268.542V244.466H209.605V268.542H212.605ZM225.301 243.655L209.842 267.732L212.367 269.352L227.826 245.276L225.301 243.655ZM234.081 242.966H226.564V245.966H234.081V242.966ZM250.864 267.93L235.345 243.658L232.817 245.274L248.337 269.546L250.864 267.93ZM248.101 244.466V268.738H251.101V244.466H248.101ZM256.451 242.966H249.601V245.966H256.451V242.966ZM257.951 280.712V244.466H254.951V280.712H257.951ZM249.601 282.212H256.451V279.212H249.601V282.212ZM229.029 251.017L248.333 281.515L250.868 279.91L231.564 249.413L229.029 251.017ZM261.198 218.775L290.809 238.656L292.482 236.165L262.87 216.284L261.198 218.775ZM290.146 237.411V244.466H293.146V237.411H290.146ZM291.646 242.966H256.452V245.966H291.646V242.966ZM257.952 244.466V237.411H254.952V244.466H257.952ZM256.452 238.911H280.019V235.911H256.452V238.911ZM280.861 236.169L257.294 220.185L255.61 222.668L279.177 238.652L280.861 236.169ZM257.952 221.427V213.685H254.952V221.427H257.952ZM257.296 214.924L280.673 199.003L278.984 196.523L255.607 212.445L257.296 214.924ZM279.829 196.263H256.452V199.263H279.829V196.263ZM257.952 197.763V190.645H254.952V197.763H257.952ZM256.452 192.145H291.646V189.145H256.452V192.145ZM290.146 190.645V197.763H293.146V190.645H290.146ZM290.813 196.516L261.201 216.282L262.867 218.777L292.478 199.011L290.813 196.516Z" fill="#1E1E1E" mask="url(#path-3-outside-1_994_1089)"/>
</svg>
