<svg width="1527" height="903" viewBox="0 0 1527 903" fill="none" xmlns="http://www.w3.org/2000/svg">
<rect width="1527" height="903" fill="black"/>
<path d="M694.509 441.484V292.484H792.109C801.976 292.484 810.643 294.351 818.109 298.084C825.576 301.818 831.376 307.151 835.509 314.084C839.776 321.018 841.909 329.151 841.909 338.484C841.909 347.818 835.509 363.884 835.509 363.884C835.509 363.884 825.576 376.018 818.109 379.884C810.776 383.618 802.109 385.484 792.109 385.484H714.109V441.484H694.509ZM714.109 367.484H792.709C798.709 367.484 803.909 366.351 808.309 364.084C812.709 361.818 816.109 358.551 818.509 354.284C820.909 350.018 822.109 344.084 822.109 338.484C822.109 332.751 820.909 327.818 818.509 323.684C816.109 319.418 812.709 316.151 808.309 313.884C803.909 311.618 798.709 310.484 792.709 310.484H714.109V367.484Z" fill="#E9E9E9"/>
<path d="M975.837 441.484V292.484H993.837L1049.64 371.884H1040.44L1095.84 292.484H1113.84V441.484H1094.04V317.284L1101.04 319.484L1045.64 397.484H1044.04L989.237 319.484L995.438 317.284V441.484H975.837Z" fill="#E9E9E9"/>
<path d="M761.623 610.806C751.09 610.806 741.223 608.94 732.023 605.206C722.823 601.34 714.757 595.94 707.823 589.006C701.023 582.073 695.69 573.94 691.823 564.606C687.957 555.14 686.023 544.873 686.023 533.806C686.023 522.606 687.957 512.34 691.823 503.006C695.69 493.673 701.023 485.54 707.823 478.606C714.757 471.673 722.757 466.34 731.823 462.606C741.023 458.873 750.957 457.006 761.623 457.006C772.29 457.006 782.157 458.94 791.223 462.806C800.423 466.54 808.423 471.873 815.223 478.806C822.157 485.606 827.557 493.673 831.423 503.006C835.423 512.34 837.423 522.606 837.423 533.806C837.423 544.873 835.423 555.14 831.423 564.606C827.557 573.94 822.157 582.073 815.223 589.006C808.423 595.94 800.423 601.34 791.223 605.206C782.157 608.94 772.29 610.806 761.623 610.806ZM761.623 592.606C769.89 592.606 777.423 591.14 784.223 588.206C791.023 585.14 796.89 580.94 801.823 575.606C806.89 570.14 810.757 563.873 813.423 556.806C816.223 549.606 817.623 541.94 817.623 533.806C817.623 525.673 816.223 518.073 813.423 511.006C810.757 503.94 806.89 497.74 801.823 492.406C796.89 486.94 791.023 482.74 784.223 479.806C777.423 476.74 769.89 475.206 761.623 475.206C753.49 475.206 746.023 476.74 739.223 479.806C732.423 482.74 726.49 486.94 721.423 492.406C716.49 497.74 712.623 503.94 709.823 511.006C707.023 518.073 705.623 525.673 705.623 533.806C705.623 541.94 707.023 549.606 709.823 556.806C712.623 563.873 716.49 570.14 721.423 575.606C726.49 580.94 732.423 585.14 739.223 588.206C746.023 591.14 753.49 592.606 761.623 592.606Z" fill="#E9E9E9"/>
<path d="M850.009 608.406V459.406H866.409L952.009 579.806L944.609 580.606V459.406H964.409V608.406H948.009L862.809 487.206L869.609 486.406V608.406H850.009Z" fill="#E9E9E9"/>
<path d="M975.666 608.406V459.406H1113.67V477.406H995.266V524.606H1113.67V542.606H995.266V590.406H1113.67V608.406H975.666Z" fill="#E9E9E9"/>
<path d="M498.587 320.945H433.173V429.43L533.465 300.948L549.23 313.255L453.577 435.793L634.13 359.067L641.952 377.475L468.057 451.37L641.952 525.268L634.13 543.675L453.577 466.948L549.23 589.487L533.465 601.794L433.173 473.312V581.797H498.587V601.797H413.164V581.797H413.173V320.945H413.164V300.945H498.587V320.945Z" fill="url(#paint0_radial_7014_1118)"/>
<rect x="851.766" y="292.195" width="18.0859" height="148.984" fill="#E9E9E9"/>
<path d="M865.075 381.668L852.641 367.68L937.231 292.484H965.403L865.075 381.668Z" fill="#E9E9E9"/>
<path d="M960.476 441.181H932.136L857.648 366.693L871.818 352.523L960.476 441.181Z" fill="#E9E9E9"/>
<defs>
<radialGradient id="paint0_radial_7014_1118" cx="0" cy="0" r="1" gradientUnits="userSpaceOnUse" gradientTransform="translate(356.68 529.663) rotate(4.81476) scale(316.006 240.312)">
<stop stop-color="#F5BCFF"/>
<stop offset="0.485577" stop-color="#FFFED6"/>
<stop offset="1" stop-color="#ABFFDC"/>
</radialGradient>
</defs>
</svg>
