<svg width="3012" height="1571" viewBox="0 0 3012 1571" fill="none" xmlns="http://www.w3.org/2000/svg">
<g clip-path="url(#clip0_6247_872)">
<rect width="3011" height="1571" transform="translate(0.234375)" fill="#FFF3ED"/>
<g filter="url(#filter0_f_6247_872)">
<rect width="1299.24" height="1571" transform="matrix(-1 0 0 1 2897.24 0)" fill="url(#paint0_linear_6247_872)" style="mix-blend-mode:darken"/>
</g>
<path d="M690.47 914.782C695.993 914.782 700.47 919.259 700.47 924.782V962.757C700.47 968.28 695.993 972.757 690.47 972.757H420.676C415.153 972.757 410.676 968.28 410.676 962.757V924.782C410.676 919.259 415.153 914.782 420.676 914.782H690.47ZM690.468 840.969C695.991 840.969 700.468 845.446 700.468 850.969V888.943C700.468 894.466 695.991 898.943 690.468 898.943H636.652C631.13 898.943 626.652 894.466 626.652 888.943V850.969C626.652 845.446 631.13 840.969 636.652 840.969H690.468ZM619.39 767.155C624.912 767.155 629.39 771.633 629.39 777.155V815.13C629.39 820.653 624.912 825.13 619.39 825.13H565.573C560.051 825.13 555.573 820.653 555.573 815.13V777.155C555.573 771.633 560.051 767.155 565.573 767.155H619.39ZM545.57 693.342C551.093 693.342 555.57 697.819 555.57 703.342V741.316C555.57 746.839 551.093 751.316 545.57 751.316H491.755C486.232 751.316 481.755 746.839 481.755 741.316V703.342C481.755 697.819 486.232 693.342 491.755 693.342H545.57ZM761.549 619.527C767.072 619.527 771.549 624.004 771.549 629.527V667.499C771.549 673.022 767.072 677.499 761.549 677.499H491.755C486.232 677.499 481.755 673.022 481.755 667.499V629.527C481.755 624.004 486.232 619.527 491.755 619.527H761.549Z" fill="#2D2D2D"/>
<path d="M990.707 961.798C971.107 961.798 952.907 958.158 936.107 950.878C919.307 943.318 905.027 933.098 893.267 920.218C884.201 910.289 876.966 899.195 871.561 886.937C868.818 880.717 872.069 873.665 878.336 871.033L896.942 863.218C903.677 860.389 911.342 863.715 914.737 870.183C921.833 883.704 931.056 894.502 942.407 902.578C956.967 912.938 973.767 918.118 992.807 918.118C1004.01 918.118 1013.81 916.438 1022.21 913.078C1030.61 909.438 1037.05 904.398 1041.53 897.958C1046.29 891.518 1048.67 884.098 1048.67 875.698C1048.67 864.218 1045.45 855.118 1039.01 848.398C1032.57 841.678 1023.05 836.358 1010.45 832.438L951.647 813.958C928.127 806.678 910.207 795.618 897.887 780.778C885.567 765.658 879.407 748.018 879.407 727.858C879.407 710.218 883.747 694.818 892.427 681.658C901.107 668.218 913.007 657.718 928.127 650.158C943.527 642.598 961.027 638.818 980.627 638.818C999.387 638.818 1016.47 642.178 1031.87 648.898C1047.27 655.338 1060.43 664.298 1071.35 675.778C1079.74 684.383 1086.41 694.01 1091.34 704.659C1094.16 710.755 1091 717.744 1084.85 720.443L1067.14 728.211C1060.31 731.212 1052.45 727.771 1048.82 721.241C1042.94 710.645 1035.19 702.071 1025.57 695.518C1012.69 686.558 997.707 682.078 980.627 682.078C970.267 682.078 961.167 683.898 953.327 687.538C945.487 690.898 939.327 695.938 934.847 702.658C930.647 709.098 928.547 716.658 928.547 725.338C928.547 735.418 931.767 744.378 938.207 752.218C944.647 760.058 954.447 765.938 967.607 769.858L1022.21 787.078C1047.13 794.638 1065.89 805.558 1078.49 819.838C1091.09 833.838 1097.39 851.338 1097.39 872.338C1097.39 889.698 1092.77 905.098 1083.53 918.538C1074.57 931.978 1062.11 942.618 1046.15 950.458C1030.19 958.018 1011.71 961.798 990.707 961.798Z" fill="#2D2D2D"/>
<path d="M1208.46 961.798C1191.38 961.798 1176.4 958.018 1163.52 950.458C1150.64 942.618 1140.56 931.838 1133.28 918.118C1126.28 904.118 1122.78 888.018 1122.78 869.818V742.538C1122.78 735.359 1128.6 729.538 1135.78 729.538H1157.24C1164.42 729.538 1170.24 735.359 1170.24 742.538V865.618C1170.24 875.978 1172.34 885.078 1176.54 892.918C1180.74 900.758 1186.62 906.918 1194.18 911.398C1201.74 915.598 1210.42 917.698 1220.22 917.698C1230.3 917.698 1239.12 915.458 1246.68 910.978C1254.24 906.498 1260.12 900.198 1264.32 892.078C1268.8 883.958 1271.04 874.438 1271.04 863.518V742.538C1271.04 735.359 1276.86 729.538 1284.04 729.538H1305.08C1312.26 729.538 1318.08 735.359 1318.08 742.538V943.758C1318.08 950.938 1312.26 956.758 1305.08 956.758H1286.14C1278.96 956.758 1273.14 950.938 1273.14 943.758V912.238L1278.18 918.118C1272.86 932.118 1264.04 942.898 1251.72 950.458C1239.4 958.018 1224.98 961.798 1208.46 961.798Z" fill="#2D2D2D"/>
<path d="M1352.49 956.758V729.538H1397.85V775.318L1393.65 768.598C1398.69 753.758 1406.81 743.118 1418.01 736.678C1429.21 729.958 1442.65 726.598 1458.33 726.598H1472.19V769.858H1452.45C1436.77 769.858 1424.03 774.758 1414.23 784.558C1404.71 794.078 1399.95 807.798 1399.95 825.718V956.758H1352.49Z" fill="#2D2D2D"/>
<path d="M1593.28 1049.16C1576.76 1049.16 1561.5 1046.5 1547.5 1041.18C1533.5 1035.86 1521.46 1028.44 1511.38 1018.92C1504.52 1012.63 1498.83 1005.56 1494.3 997.714C1490.74 991.545 1494 983.969 1500.58 981.248L1519.89 973.263C1526.71 970.444 1534.39 974.007 1538.66 980.028C1542.55 985.524 1547.6 990.367 1553.8 994.558C1564.44 1001.56 1577.46 1005.06 1592.86 1005.06C1604.9 1005.06 1615.68 1002.68 1625.2 997.918C1634.72 993.438 1642.28 986.718 1647.88 977.758C1653.48 969.078 1656.28 958.578 1656.28 946.258V895.018L1664.68 904.678C1656.84 919.238 1645.92 930.298 1631.92 937.858C1618.2 945.418 1602.66 949.198 1585.3 949.198C1564.3 949.198 1545.4 944.298 1528.6 934.498C1511.8 924.698 1498.5 911.258 1488.7 894.178C1479.18 877.098 1474.42 857.918 1474.42 836.638C1474.42 815.078 1479.18 795.898 1488.7 779.098C1498.5 762.298 1511.66 748.998 1528.18 739.198C1544.7 729.398 1563.6 724.498 1584.88 724.498C1602.24 724.498 1617.64 728.278 1631.08 735.838C1644.8 743.118 1656 753.758 1664.68 767.758L1658.38 779.518V742.538C1658.38 735.359 1664.2 729.538 1671.38 729.538H1690.32C1697.5 729.538 1703.32 735.359 1703.32 742.538V946.258C1703.32 965.858 1698.56 983.358 1689.04 998.758C1679.8 1014.44 1666.92 1026.76 1650.4 1035.72C1633.88 1044.68 1614.84 1049.16 1593.28 1049.16ZM1590.76 905.098C1603.36 905.098 1614.56 902.158 1624.36 896.278C1634.16 890.118 1641.86 881.998 1647.46 871.918C1653.34 861.558 1656.28 849.938 1656.28 837.058C1656.28 824.178 1653.34 812.558 1647.46 802.198C1641.58 791.838 1633.74 783.718 1623.94 777.838C1614.14 771.678 1603.08 768.598 1590.76 768.598C1577.88 768.598 1566.4 771.678 1556.32 777.838C1546.24 783.718 1538.26 791.838 1532.38 802.198C1526.78 812.278 1523.98 823.898 1523.98 837.058C1523.98 849.658 1526.78 861.138 1532.38 871.498C1538.26 881.858 1546.24 890.118 1556.32 896.278C1566.4 902.158 1577.88 905.098 1590.76 905.098Z" fill="#2D2D2D"/>
<path d="M1844.56 961.798C1821.88 961.798 1801.72 956.618 1784.08 946.258C1766.72 935.618 1753.14 921.338 1743.34 903.418C1733.54 885.218 1728.64 864.918 1728.64 842.518C1728.64 819.558 1733.54 799.258 1743.34 781.618C1753.42 763.978 1766.86 750.118 1783.66 740.038C1800.46 729.678 1819.5 724.498 1840.78 724.498C1857.86 724.498 1873.12 727.438 1886.56 733.318C1900 739.198 1911.34 747.318 1920.58 757.678C1929.82 767.758 1936.82 779.378 1941.58 792.538C1946.62 805.698 1949.14 819.698 1949.14 834.538C1949.14 838.178 1949 841.958 1948.72 845.878C1948.44 849.798 1947.88 853.438 1947.04 856.798H1766.02V818.998H1920.16L1897.48 836.218C1900.28 822.498 1899.3 810.318 1894.54 799.678C1890.06 788.758 1883.06 780.218 1873.54 774.058C1864.3 767.618 1853.38 764.398 1840.78 764.398C1828.18 764.398 1816.98 767.618 1807.18 774.058C1797.38 780.218 1789.82 789.178 1784.5 800.938C1779.18 812.418 1777.08 826.418 1778.2 842.938C1776.8 858.338 1778.9 871.778 1784.5 883.258C1790.38 894.738 1798.5 903.698 1808.86 910.138C1819.5 916.578 1831.54 919.798 1844.98 919.798C1858.7 919.798 1870.32 916.718 1879.84 910.558C1886.07 906.643 1891.45 901.993 1895.98 896.608C1900.39 891.362 1907.73 888.962 1913.89 891.975L1930.54 900.12C1936.73 903.149 1939.57 910.564 1935.9 916.401C1931.85 922.844 1926.74 928.877 1920.58 934.498C1911.34 942.898 1900.14 949.618 1886.98 954.658C1874.1 959.418 1859.96 961.798 1844.56 961.798Z" fill="#2D2D2D"/>
<path d="M2001.69 956.758C1994.51 956.758 1988.69 950.938 1988.69 943.758V656.858C1988.69 649.679 1994.51 643.858 2001.69 643.858H2025.25C2032.43 643.858 2038.25 649.679 2038.25 656.858V899.658C2038.25 906.838 2044.07 912.658 2051.25 912.658H2160.49C2167.67 912.658 2173.49 918.479 2173.49 925.658V943.758C2173.49 950.938 2167.67 956.758 2160.49 956.758H2001.69Z" fill="#2D2D2D"/>
<path d="M2257.52 961.798C2242.12 961.798 2228.54 959.138 2216.78 953.818C2205.3 948.218 2196.34 940.658 2189.9 931.138C2183.46 921.338 2180.24 909.858 2180.24 896.698C2180.24 884.378 2182.9 873.318 2188.22 863.518C2193.82 853.718 2202.36 845.458 2213.84 838.738C2225.32 832.018 2239.74 827.258 2257.1 824.458L2336.06 811.438V848.818L2266.34 860.998C2253.74 863.238 2244.5 867.298 2238.62 873.178C2232.74 878.778 2229.8 886.058 2229.8 895.018C2229.8 903.698 2233.02 910.838 2239.46 916.438C2246.18 921.758 2254.72 924.418 2265.08 924.418C2277.96 924.418 2289.16 921.618 2298.68 916.018C2308.48 910.418 2316.04 902.998 2321.36 893.758C2326.68 884.238 2329.34 873.738 2329.34 862.258V803.878C2329.34 792.678 2325.14 783.578 2316.74 776.578C2308.62 769.298 2297.7 765.658 2283.98 765.658C2271.38 765.658 2260.32 769.018 2250.8 775.738C2245.4 779.503 2240.81 783.937 2237.04 789.04C2232.6 795.041 2224.6 798.13 2217.93 794.793L2201.21 786.432C2195.26 783.457 2192.4 776.387 2195.73 770.628C2199.73 763.719 2204.92 757.443 2211.32 751.798C2220.84 743.118 2231.9 736.398 2244.5 731.638C2257.38 726.878 2270.96 724.498 2285.24 724.498C2303.16 724.498 2318.98 727.858 2332.7 734.578C2346.7 741.298 2357.48 750.678 2365.04 762.718C2372.88 774.478 2376.8 788.198 2376.8 803.878V943.758C2376.8 950.938 2370.98 956.758 2363.8 956.758H2344.44C2337.26 956.758 2331.44 950.938 2331.44 943.758V915.598L2341.1 916.858C2335.78 926.098 2328.92 934.078 2320.52 940.798C2312.4 947.518 2303.02 952.698 2292.38 956.338C2282.02 959.978 2270.4 961.798 2257.52 961.798Z" fill="#2D2D2D"/>
<path d="M2532.67 961.798C2515.03 961.798 2498.93 958.158 2484.37 950.878C2470.09 943.598 2459.03 933.098 2451.19 919.378L2456.65 910.558V943.758C2456.65 950.938 2450.83 956.758 2443.65 956.758H2424.29C2417.11 956.758 2411.29 950.938 2411.29 943.758V651.818C2411.29 644.639 2417.11 638.818 2424.29 638.818H2445.75C2452.93 638.818 2458.75 644.639 2458.75 651.818V776.578L2451.19 765.658C2459.59 752.778 2470.79 742.698 2484.79 735.418C2498.79 728.138 2514.75 724.498 2532.67 724.498C2554.23 724.498 2573.55 729.678 2590.63 740.038C2607.99 750.398 2621.57 764.538 2631.37 782.458C2641.45 800.378 2646.49 820.538 2646.49 842.938C2646.49 865.338 2641.45 885.498 2631.37 903.418C2621.57 921.338 2608.13 935.618 2591.05 946.258C2573.97 956.618 2554.51 961.798 2532.67 961.798ZM2528.05 917.698C2541.49 917.698 2553.39 914.478 2563.75 908.038C2574.11 901.598 2582.23 892.778 2588.11 881.578C2594.27 870.098 2597.35 857.218 2597.35 842.938C2597.35 828.658 2594.27 815.918 2588.11 804.718C2582.23 793.518 2574.11 784.698 2563.75 778.258C2553.39 771.818 2541.49 768.598 2528.05 768.598C2514.89 768.598 2502.99 771.818 2492.35 778.258C2481.99 784.698 2473.73 793.518 2467.57 804.718C2461.69 815.918 2458.75 828.658 2458.75 842.938C2458.75 857.218 2461.69 870.098 2467.57 881.578C2473.73 892.778 2481.99 901.598 2492.35 908.038C2502.99 914.478 2514.89 917.698 2528.05 917.698Z" fill="#2D2D2D"/>
<path d="M990.707 961.798C971.107 961.798 952.907 958.158 936.107 950.878C919.307 943.318 905.027 933.098 893.267 920.218C884.201 910.289 876.966 899.195 871.561 886.937C868.818 880.717 872.069 873.665 878.336 871.033L896.942 863.218C903.677 860.389 911.342 863.715 914.737 870.183C921.833 883.704 931.056 894.502 942.407 902.578C956.967 912.938 973.767 918.118 992.807 918.118C1004.01 918.118 1013.81 916.438 1022.21 913.078C1030.61 909.438 1037.05 904.398 1041.53 897.958C1046.29 891.518 1048.67 884.098 1048.67 875.698C1048.67 864.218 1045.45 855.118 1039.01 848.398C1032.57 841.678 1023.05 836.358 1010.45 832.438L951.647 813.958C928.127 806.678 910.207 795.618 897.887 780.778C885.567 765.658 879.407 748.018 879.407 727.858C879.407 710.218 883.747 694.818 892.427 681.658C901.107 668.218 913.007 657.718 928.127 650.158C943.527 642.598 961.027 638.818 980.627 638.818C999.387 638.818 1016.47 642.178 1031.87 648.898C1047.27 655.338 1060.43 664.298 1071.35 675.778C1079.74 684.383 1086.41 694.01 1091.34 704.659C1094.16 710.755 1091 717.744 1084.85 720.443L1067.14 728.211C1060.31 731.212 1052.45 727.771 1048.82 721.241C1042.94 710.645 1035.19 702.071 1025.57 695.518C1012.69 686.558 997.707 682.078 980.627 682.078C970.267 682.078 961.167 683.898 953.327 687.538C945.487 690.898 939.327 695.938 934.847 702.658C930.647 709.098 928.547 716.658 928.547 725.338C928.547 735.418 931.767 744.378 938.207 752.218C944.647 760.058 954.447 765.938 967.607 769.858L1022.21 787.078C1047.13 794.638 1065.89 805.558 1078.49 819.838C1091.09 833.838 1097.39 851.338 1097.39 872.338C1097.39 889.698 1092.77 905.098 1083.53 918.538C1074.57 931.978 1062.11 942.618 1046.15 950.458C1030.19 958.018 1011.71 961.798 990.707 961.798Z" stroke="black"/>
<path d="M1208.46 961.798C1191.38 961.798 1176.4 958.018 1163.52 950.458C1150.64 942.618 1140.56 931.838 1133.28 918.118C1126.28 904.118 1122.78 888.018 1122.78 869.818V742.538C1122.78 735.359 1128.6 729.538 1135.78 729.538H1157.24C1164.42 729.538 1170.24 735.359 1170.24 742.538V865.618C1170.24 875.978 1172.34 885.078 1176.54 892.918C1180.74 900.758 1186.62 906.918 1194.18 911.398C1201.74 915.598 1210.42 917.698 1220.22 917.698C1230.3 917.698 1239.12 915.458 1246.68 910.978C1254.24 906.498 1260.12 900.198 1264.32 892.078C1268.8 883.958 1271.04 874.438 1271.04 863.518V742.538C1271.04 735.359 1276.86 729.538 1284.04 729.538H1305.08C1312.26 729.538 1318.08 735.359 1318.08 742.538V943.758C1318.08 950.938 1312.26 956.758 1305.08 956.758H1286.14C1278.96 956.758 1273.14 950.938 1273.14 943.758V912.238L1278.18 918.118C1272.86 932.118 1264.04 942.898 1251.72 950.458C1239.4 958.018 1224.98 961.798 1208.46 961.798Z" stroke="black"/>
<path d="M1352.49 956.758V729.538H1397.85V775.318L1393.65 768.598C1398.69 753.758 1406.81 743.118 1418.01 736.678C1429.21 729.958 1442.65 726.598 1458.33 726.598H1472.19V769.858H1452.45C1436.77 769.858 1424.03 774.758 1414.23 784.558C1404.71 794.078 1399.95 807.798 1399.95 825.718V956.758H1352.49Z" stroke="black"/>
<path d="M1593.28 1049.16C1576.76 1049.16 1561.5 1046.5 1547.5 1041.18C1533.5 1035.86 1521.46 1028.44 1511.38 1018.92C1504.52 1012.63 1498.83 1005.56 1494.3 997.714C1490.74 991.545 1494 983.969 1500.58 981.248L1519.89 973.263C1526.71 970.444 1534.39 974.007 1538.66 980.028C1542.55 985.524 1547.6 990.367 1553.8 994.558C1564.44 1001.56 1577.46 1005.06 1592.86 1005.06C1604.9 1005.06 1615.68 1002.68 1625.2 997.918C1634.72 993.438 1642.28 986.718 1647.88 977.758C1653.48 969.078 1656.28 958.578 1656.28 946.258V895.018L1664.68 904.678C1656.84 919.238 1645.92 930.298 1631.92 937.858C1618.2 945.418 1602.66 949.198 1585.3 949.198C1564.3 949.198 1545.4 944.298 1528.6 934.498C1511.8 924.698 1498.5 911.258 1488.7 894.178C1479.18 877.098 1474.42 857.918 1474.42 836.638C1474.42 815.078 1479.18 795.898 1488.7 779.098C1498.5 762.298 1511.66 748.998 1528.18 739.198C1544.7 729.398 1563.6 724.498 1584.88 724.498C1602.24 724.498 1617.64 728.278 1631.08 735.838C1644.8 743.118 1656 753.758 1664.68 767.758L1658.38 779.518V742.538C1658.38 735.359 1664.2 729.538 1671.38 729.538H1690.32C1697.5 729.538 1703.32 735.359 1703.32 742.538V946.258C1703.32 965.858 1698.56 983.358 1689.04 998.758C1679.8 1014.44 1666.92 1026.76 1650.4 1035.72C1633.88 1044.68 1614.84 1049.16 1593.28 1049.16ZM1590.76 905.098C1603.36 905.098 1614.56 902.158 1624.36 896.278C1634.16 890.118 1641.86 881.998 1647.46 871.918C1653.34 861.558 1656.28 849.938 1656.28 837.058C1656.28 824.178 1653.34 812.558 1647.46 802.198C1641.58 791.838 1633.74 783.718 1623.94 777.838C1614.14 771.678 1603.08 768.598 1590.76 768.598C1577.88 768.598 1566.4 771.678 1556.32 777.838C1546.24 783.718 1538.26 791.838 1532.38 802.198C1526.78 812.278 1523.98 823.898 1523.98 837.058C1523.98 849.658 1526.78 861.138 1532.38 871.498C1538.26 881.858 1546.24 890.118 1556.32 896.278C1566.4 902.158 1577.88 905.098 1590.76 905.098Z" stroke="black"/>
<path d="M1844.56 961.798C1821.88 961.798 1801.72 956.618 1784.08 946.258C1766.72 935.618 1753.14 921.338 1743.34 903.418C1733.54 885.218 1728.64 864.918 1728.64 842.518C1728.64 819.558 1733.54 799.258 1743.34 781.618C1753.42 763.978 1766.86 750.118 1783.66 740.038C1800.46 729.678 1819.5 724.498 1840.78 724.498C1857.86 724.498 1873.12 727.438 1886.56 733.318C1900 739.198 1911.34 747.318 1920.58 757.678C1929.82 767.758 1936.82 779.378 1941.58 792.538C1946.62 805.698 1949.14 819.698 1949.14 834.538C1949.14 838.178 1949 841.958 1948.72 845.878C1948.44 849.798 1947.88 853.438 1947.04 856.798H1766.02V818.998H1920.16L1897.48 836.218C1900.28 822.498 1899.3 810.318 1894.54 799.678C1890.06 788.758 1883.06 780.218 1873.54 774.058C1864.3 767.618 1853.38 764.398 1840.78 764.398C1828.18 764.398 1816.98 767.618 1807.18 774.058C1797.38 780.218 1789.82 789.178 1784.5 800.938C1779.18 812.418 1777.08 826.418 1778.2 842.938C1776.8 858.338 1778.9 871.778 1784.5 883.258C1790.38 894.738 1798.5 903.698 1808.86 910.138C1819.5 916.578 1831.54 919.798 1844.98 919.798C1858.7 919.798 1870.32 916.718 1879.84 910.558C1886.07 906.643 1891.45 901.993 1895.98 896.608C1900.39 891.362 1907.73 888.962 1913.89 891.975L1930.54 900.12C1936.73 903.149 1939.57 910.564 1935.9 916.401C1931.85 922.844 1926.74 928.877 1920.58 934.498C1911.34 942.898 1900.14 949.618 1886.98 954.658C1874.1 959.418 1859.96 961.798 1844.56 961.798Z" stroke="black"/>
<path d="M2001.69 956.758C1994.51 956.758 1988.69 950.938 1988.69 943.758V656.858C1988.69 649.679 1994.51 643.858 2001.69 643.858H2025.25C2032.43 643.858 2038.25 649.679 2038.25 656.858V899.658C2038.25 906.838 2044.07 912.658 2051.25 912.658H2160.49C2167.67 912.658 2173.49 918.479 2173.49 925.658V943.758C2173.49 950.938 2167.67 956.758 2160.49 956.758H2001.69Z" stroke="black"/>
<path d="M2257.52 961.798C2242.12 961.798 2228.54 959.138 2216.78 953.818C2205.3 948.218 2196.34 940.658 2189.9 931.138C2183.46 921.338 2180.24 909.858 2180.24 896.698C2180.24 884.378 2182.9 873.318 2188.22 863.518C2193.82 853.718 2202.36 845.458 2213.84 838.738C2225.32 832.018 2239.74 827.258 2257.1 824.458L2336.06 811.438V848.818L2266.34 860.998C2253.74 863.238 2244.5 867.298 2238.62 873.178C2232.74 878.778 2229.8 886.058 2229.8 895.018C2229.8 903.698 2233.02 910.838 2239.46 916.438C2246.18 921.758 2254.72 924.418 2265.08 924.418C2277.96 924.418 2289.16 921.618 2298.68 916.018C2308.48 910.418 2316.04 902.998 2321.36 893.758C2326.68 884.238 2329.34 873.738 2329.34 862.258V803.878C2329.34 792.678 2325.14 783.578 2316.74 776.578C2308.62 769.298 2297.7 765.658 2283.98 765.658C2271.38 765.658 2260.32 769.018 2250.8 775.738C2245.4 779.503 2240.81 783.937 2237.04 789.04C2232.6 795.041 2224.6 798.13 2217.93 794.793L2201.21 786.432C2195.26 783.457 2192.4 776.387 2195.73 770.628C2199.73 763.719 2204.92 757.443 2211.32 751.798C2220.84 743.118 2231.9 736.398 2244.5 731.638C2257.38 726.878 2270.96 724.498 2285.24 724.498C2303.16 724.498 2318.98 727.858 2332.7 734.578C2346.7 741.298 2357.48 750.678 2365.04 762.718C2372.88 774.478 2376.8 788.198 2376.8 803.878V943.758C2376.8 950.938 2370.98 956.758 2363.8 956.758H2344.44C2337.26 956.758 2331.44 950.938 2331.44 943.758V915.598L2341.1 916.858C2335.78 926.098 2328.92 934.078 2320.52 940.798C2312.4 947.518 2303.02 952.698 2292.38 956.338C2282.02 959.978 2270.4 961.798 2257.52 961.798Z" stroke="black"/>
<path d="M2532.67 961.798C2515.03 961.798 2498.93 958.158 2484.37 950.878C2470.09 943.598 2459.03 933.098 2451.19 919.378L2456.65 910.558V943.758C2456.65 950.938 2450.83 956.758 2443.65 956.758H2424.29C2417.11 956.758 2411.29 950.938 2411.29 943.758V651.818C2411.29 644.639 2417.11 638.818 2424.29 638.818H2445.75C2452.93 638.818 2458.75 644.639 2458.75 651.818V776.578L2451.19 765.658C2459.59 752.778 2470.79 742.698 2484.79 735.418C2498.79 728.138 2514.75 724.498 2532.67 724.498C2554.23 724.498 2573.55 729.678 2590.63 740.038C2607.99 750.398 2621.57 764.538 2631.37 782.458C2641.45 800.378 2646.49 820.538 2646.49 842.938C2646.49 865.338 2641.45 885.498 2631.37 903.418C2621.57 921.338 2608.13 935.618 2591.05 946.258C2573.97 956.618 2554.51 961.798 2532.67 961.798ZM2528.05 917.698C2541.49 917.698 2553.39 914.478 2563.75 908.038C2574.11 901.598 2582.23 892.778 2588.11 881.578C2594.27 870.098 2597.35 857.218 2597.35 842.938C2597.35 828.658 2594.27 815.918 2588.11 804.718C2582.23 793.518 2574.11 784.698 2563.75 778.258C2553.39 771.818 2541.49 768.598 2528.05 768.598C2514.89 768.598 2502.99 771.818 2492.35 778.258C2481.99 784.698 2473.73 793.518 2467.57 804.718C2461.69 815.918 2458.75 828.658 2458.75 842.938C2458.75 857.218 2461.69 870.098 2467.57 881.578C2473.73 892.778 2481.99 901.598 2492.35 908.038C2502.99 914.478 2514.89 917.698 2528.05 917.698Z" stroke="black"/>
</g>
<defs>
<filter id="filter0_f_6247_872" x="1562.4" y="-35.6" width="1370.44" height="1642.2" filterUnits="userSpaceOnUse" color-interpolation-filters="sRGB">
<feFlood flood-opacity="0" result="BackgroundImageFix"/>
<feBlend mode="normal" in="SourceGraphic" in2="BackgroundImageFix" result="shape"/>
<feGaussianBlur stdDeviation="17.8" result="effect1_foregroundBlur_6247_872"/>
</filter>
<linearGradient id="paint0_linear_6247_872" x1="982.664" y1="785.5" x2="-1.98698e-05" y2="785.5" gradientUnits="userSpaceOnUse">
<stop stop-color="#FFF3ED"/>
<stop offset="0.581731" stop-color="#BCFF92"/>
<stop offset="0.754808" stop-color="#FDEF84"/>
<stop offset="1" stop-color="#FF9F6F"/>
</linearGradient>
<clipPath id="clip0_6247_872">
<rect width="3011" height="1571" fill="white" transform="translate(0.234375)"/>
</clipPath>
</defs>
</svg>
