<svg width="3012" height="1571" viewBox="0 0 3012 1571" fill="none" xmlns="http://www.w3.org/2000/svg">
<rect width="3011" height="1571" transform="translate(0.234375)" fill="#151515"/>
<path d="M690.47 914.782C695.993 914.782 700.47 919.259 700.47 924.782V962.757C700.47 968.28 695.993 972.757 690.47 972.757H420.676C415.153 972.757 410.676 968.28 410.676 962.757V924.782C410.676 919.259 415.153 914.782 420.676 914.782H690.47ZM690.468 840.969C695.991 840.969 700.468 845.446 700.468 850.969V888.943C700.468 894.466 695.991 898.943 690.468 898.943H636.652C631.13 898.943 626.652 894.466 626.652 888.943V850.969C626.652 845.446 631.13 840.969 636.652 840.969H690.468ZM619.39 767.155C624.912 767.155 629.39 771.633 629.39 777.155V815.13C629.39 820.653 624.912 825.13 619.39 825.13H565.573C560.051 825.13 555.573 820.653 555.573 815.13V777.155C555.573 771.633 560.051 767.155 565.573 767.155H619.39ZM545.57 693.342C551.093 693.342 555.57 697.819 555.57 703.342V741.316C555.57 746.839 551.093 751.316 545.57 751.316H491.755C486.232 751.316 481.755 746.839 481.755 741.316V703.342C481.755 697.819 486.232 693.342 491.755 693.342H545.57ZM761.549 619.527C767.072 619.527 771.549 624.004 771.549 629.527V667.499C771.549 673.022 767.072 677.499 761.549 677.499H491.755C486.232 677.499 481.755 673.022 481.755 667.499V629.527C481.755 624.004 486.232 619.527 491.755 619.527H761.549Z" fill="url(#paint0_linear_6248_909)"/>
<path d="M990.707 961.8C971.107 961.8 952.907 958.16 936.107 950.88C919.307 943.32 905.027 933.1 893.267 920.22C884.201 910.291 876.966 899.197 871.561 886.939C868.818 880.719 872.069 873.667 878.336 871.034L896.942 863.22C903.677 860.391 911.342 863.717 914.737 870.185C921.833 883.706 931.056 894.504 942.407 902.58C956.967 912.94 973.767 918.12 992.807 918.12C1004.01 918.12 1013.81 916.44 1022.21 913.08C1030.61 909.44 1037.05 904.4 1041.53 897.96C1046.29 891.52 1048.67 884.1 1048.67 875.7C1048.67 864.22 1045.45 855.12 1039.01 848.4C1032.57 841.68 1023.05 836.36 1010.45 832.44L951.647 813.96C928.127 806.68 910.207 795.62 897.887 780.78C885.567 765.66 879.407 748.02 879.407 727.86C879.407 710.22 883.747 694.82 892.427 681.66C901.107 668.22 913.007 657.72 928.127 650.16C943.527 642.6 961.027 638.82 980.627 638.82C999.387 638.82 1016.47 642.18 1031.87 648.9C1047.27 655.34 1060.43 664.3 1071.35 675.78C1079.74 684.385 1086.41 694.012 1091.34 704.661C1094.16 710.757 1091 717.746 1084.85 720.445L1067.14 728.213C1060.31 731.214 1052.45 727.773 1048.82 721.243C1042.94 710.647 1035.19 702.073 1025.57 695.52C1012.69 686.56 997.707 682.08 980.627 682.08C970.267 682.08 961.167 683.9 953.327 687.54C945.487 690.9 939.327 695.94 934.847 702.66C930.647 709.1 928.547 716.66 928.547 725.34C928.547 735.42 931.767 744.38 938.207 752.22C944.647 760.06 954.447 765.94 967.607 769.86L1022.21 787.08C1047.13 794.64 1065.89 805.56 1078.49 819.84C1091.09 833.84 1097.39 851.34 1097.39 872.34C1097.39 889.7 1092.77 905.1 1083.53 918.54C1074.57 931.98 1062.11 942.62 1046.15 950.46C1030.19 958.02 1011.71 961.8 990.707 961.8Z" fill="#FFF3ED"/>
<path d="M1208.46 961.8C1191.38 961.8 1176.4 958.02 1163.52 950.46C1150.64 942.62 1140.56 931.84 1133.28 918.12C1126.28 904.12 1122.78 888.02 1122.78 869.82V742.54C1122.78 735.361 1128.6 729.54 1135.78 729.54H1157.24C1164.42 729.54 1170.24 735.361 1170.24 742.54V865.62C1170.24 875.98 1172.34 885.08 1176.54 892.92C1180.74 900.76 1186.62 906.92 1194.18 911.4C1201.74 915.6 1210.42 917.7 1220.22 917.7C1230.3 917.7 1239.12 915.46 1246.68 910.98C1254.24 906.5 1260.12 900.2 1264.32 892.08C1268.8 883.96 1271.04 874.44 1271.04 863.52V742.54C1271.04 735.361 1276.86 729.54 1284.04 729.54H1305.08C1312.26 729.54 1318.08 735.361 1318.08 742.54V943.76C1318.08 950.94 1312.26 956.76 1305.08 956.76H1286.14C1278.96 956.76 1273.14 950.94 1273.14 943.76V912.24L1278.18 918.12C1272.86 932.12 1264.04 942.9 1251.72 950.46C1239.4 958.02 1224.98 961.8 1208.46 961.8Z" fill="#FFF3ED"/>
<path d="M1352.49 956.76V729.54H1397.85V775.32L1393.65 768.6C1398.69 753.76 1406.81 743.12 1418.01 736.68C1429.21 729.96 1442.65 726.6 1458.33 726.6H1472.19V769.86H1452.45C1436.77 769.86 1424.03 774.76 1414.23 784.56C1404.71 794.08 1399.95 807.8 1399.95 825.72V956.76H1352.49Z" fill="#FFF3ED"/>
<path d="M1593.28 1049.16C1576.76 1049.16 1561.5 1046.5 1547.5 1041.18C1533.5 1035.86 1521.46 1028.44 1511.38 1018.92C1504.52 1012.63 1498.83 1005.56 1494.3 997.716C1490.74 991.547 1494 983.971 1500.58 981.25L1519.89 973.265C1526.71 970.446 1534.39 974.009 1538.66 980.03C1542.55 985.526 1547.6 990.369 1553.8 994.56C1564.44 1001.56 1577.46 1005.06 1592.86 1005.06C1604.9 1005.06 1615.68 1002.68 1625.2 997.92C1634.72 993.44 1642.28 986.72 1647.88 977.76C1653.48 969.08 1656.28 958.58 1656.28 946.26V895.02L1664.68 904.68C1656.84 919.24 1645.92 930.3 1631.92 937.86C1618.2 945.42 1602.66 949.2 1585.3 949.2C1564.3 949.2 1545.4 944.3 1528.6 934.5C1511.8 924.7 1498.5 911.26 1488.7 894.18C1479.18 877.1 1474.42 857.92 1474.42 836.64C1474.42 815.08 1479.18 795.9 1488.7 779.1C1498.5 762.3 1511.66 749 1528.18 739.2C1544.7 729.4 1563.6 724.5 1584.88 724.5C1602.24 724.5 1617.64 728.28 1631.08 735.84C1644.8 743.12 1656 753.76 1664.68 767.76L1658.38 779.52V742.54C1658.38 735.361 1664.2 729.54 1671.38 729.54H1690.32C1697.5 729.54 1703.32 735.361 1703.32 742.54V946.26C1703.32 965.86 1698.56 983.36 1689.04 998.76C1679.8 1014.44 1666.92 1026.76 1650.4 1035.72C1633.88 1044.68 1614.84 1049.16 1593.28 1049.16ZM1590.76 905.1C1603.36 905.1 1614.56 902.16 1624.36 896.28C1634.16 890.12 1641.86 882 1647.46 871.92C1653.34 861.56 1656.28 849.94 1656.28 837.06C1656.28 824.18 1653.34 812.56 1647.46 802.2C1641.58 791.84 1633.74 783.72 1623.94 777.84C1614.14 771.68 1603.08 768.6 1590.76 768.6C1577.88 768.6 1566.4 771.68 1556.32 777.84C1546.24 783.72 1538.26 791.84 1532.38 802.2C1526.78 812.28 1523.98 823.9 1523.98 837.06C1523.98 849.66 1526.78 861.14 1532.38 871.5C1538.26 881.86 1546.24 890.12 1556.32 896.28C1566.4 902.16 1577.88 905.1 1590.76 905.1Z" fill="#FFF3ED"/>
<path d="M1844.56 961.8C1821.88 961.8 1801.72 956.62 1784.08 946.26C1766.72 935.62 1753.14 921.34 1743.34 903.42C1733.54 885.22 1728.64 864.92 1728.64 842.52C1728.64 819.56 1733.54 799.26 1743.34 781.62C1753.42 763.98 1766.86 750.12 1783.66 740.04C1800.46 729.68 1819.5 724.5 1840.78 724.5C1857.86 724.5 1873.12 727.44 1886.56 733.32C1900 739.2 1911.34 747.32 1920.58 757.68C1929.82 767.76 1936.82 779.38 1941.58 792.54C1946.62 805.7 1949.14 819.7 1949.14 834.54C1949.14 838.18 1949 841.96 1948.72 845.88C1948.44 849.8 1947.88 853.44 1947.04 856.8H1766.02V819H1920.16L1897.48 836.22C1900.28 822.5 1899.3 810.32 1894.54 799.68C1890.06 788.76 1883.06 780.22 1873.54 774.06C1864.3 767.62 1853.38 764.4 1840.78 764.4C1828.18 764.4 1816.98 767.62 1807.18 774.06C1797.38 780.22 1789.82 789.18 1784.5 800.94C1779.18 812.42 1777.08 826.42 1778.2 842.94C1776.8 858.34 1778.9 871.78 1784.5 883.26C1790.38 894.74 1798.5 903.7 1808.86 910.14C1819.5 916.58 1831.54 919.8 1844.98 919.8C1858.7 919.8 1870.32 916.72 1879.84 910.56C1886.07 906.645 1891.45 901.995 1895.98 896.609C1900.39 891.364 1907.73 888.964 1913.89 891.977L1930.54 900.122C1936.73 903.151 1939.57 910.566 1935.9 916.403C1931.85 922.846 1926.74 928.879 1920.58 934.5C1911.34 942.9 1900.14 949.62 1886.98 954.66C1874.1 959.42 1859.96 961.8 1844.56 961.8Z" fill="#FFF3ED"/>
<path d="M2001.69 956.76C1994.51 956.76 1988.69 950.94 1988.69 943.76V656.86C1988.69 649.681 1994.51 643.86 2001.69 643.86H2025.25C2032.43 643.86 2038.25 649.681 2038.25 656.86V899.66C2038.25 906.84 2044.07 912.66 2051.25 912.66H2160.49C2167.67 912.66 2173.49 918.481 2173.49 925.66V943.76C2173.49 950.94 2167.67 956.76 2160.49 956.76H2001.69Z" fill="#FFF3ED"/>
<path d="M2257.52 961.8C2242.12 961.8 2228.54 959.14 2216.78 953.82C2205.3 948.22 2196.34 940.66 2189.9 931.14C2183.46 921.34 2180.24 909.86 2180.24 896.7C2180.24 884.38 2182.9 873.32 2188.22 863.52C2193.82 853.72 2202.36 845.46 2213.84 838.74C2225.32 832.02 2239.74 827.26 2257.1 824.46L2336.06 811.44V848.82L2266.34 861C2253.74 863.24 2244.5 867.3 2238.62 873.18C2232.74 878.78 2229.8 886.06 2229.8 895.02C2229.8 903.7 2233.02 910.84 2239.46 916.44C2246.18 921.76 2254.72 924.42 2265.08 924.42C2277.96 924.42 2289.16 921.62 2298.68 916.02C2308.48 910.42 2316.04 903 2321.36 893.76C2326.68 884.24 2329.34 873.74 2329.34 862.26V803.88C2329.34 792.68 2325.14 783.58 2316.74 776.58C2308.62 769.3 2297.7 765.66 2283.98 765.66C2271.38 765.66 2260.32 769.02 2250.8 775.74C2245.4 779.505 2240.81 783.939 2237.04 789.042C2232.6 795.042 2224.6 798.132 2217.93 794.795L2201.21 786.434C2195.26 783.459 2192.4 776.389 2195.73 770.63C2199.73 763.721 2204.92 757.445 2211.32 751.8C2220.84 743.12 2231.9 736.4 2244.5 731.64C2257.38 726.88 2270.96 724.5 2285.24 724.5C2303.16 724.5 2318.98 727.86 2332.7 734.58C2346.7 741.3 2357.48 750.68 2365.04 762.72C2372.88 774.48 2376.8 788.2 2376.8 803.88V943.76C2376.8 950.94 2370.98 956.76 2363.8 956.76H2344.44C2337.26 956.76 2331.44 950.94 2331.44 943.76V915.6L2341.1 916.86C2335.78 926.1 2328.92 934.08 2320.52 940.8C2312.4 947.52 2303.02 952.7 2292.38 956.34C2282.02 959.98 2270.4 961.8 2257.52 961.8Z" fill="#FFF3ED"/>
<path d="M2532.67 961.8C2515.03 961.8 2498.93 958.16 2484.37 950.88C2470.09 943.6 2459.03 933.1 2451.19 919.38L2456.65 910.56V943.76C2456.65 950.94 2450.83 956.76 2443.65 956.76H2424.29C2417.11 956.76 2411.29 950.94 2411.29 943.76V651.82C2411.29 644.641 2417.11 638.82 2424.29 638.82H2445.75C2452.93 638.82 2458.75 644.641 2458.75 651.82V776.58L2451.19 765.66C2459.59 752.78 2470.79 742.7 2484.79 735.42C2498.79 728.14 2514.75 724.5 2532.67 724.5C2554.23 724.5 2573.55 729.68 2590.63 740.04C2607.99 750.4 2621.57 764.54 2631.37 782.46C2641.45 800.38 2646.49 820.54 2646.49 842.94C2646.49 865.34 2641.45 885.5 2631.37 903.42C2621.57 921.34 2608.13 935.62 2591.05 946.26C2573.97 956.62 2554.51 961.8 2532.67 961.8ZM2528.05 917.7C2541.49 917.7 2553.39 914.48 2563.75 908.04C2574.11 901.6 2582.23 892.78 2588.11 881.58C2594.27 870.1 2597.35 857.22 2597.35 842.94C2597.35 828.66 2594.27 815.92 2588.11 804.72C2582.23 793.52 2574.11 784.7 2563.75 778.26C2553.39 771.82 2541.49 768.6 2528.05 768.6C2514.89 768.6 2502.99 771.82 2492.35 778.26C2481.99 784.7 2473.73 793.52 2467.57 804.72C2461.69 815.92 2458.75 828.66 2458.75 842.94C2458.75 857.22 2461.69 870.1 2467.57 881.58C2473.73 892.78 2481.99 901.6 2492.35 908.04C2502.99 914.48 2514.89 917.7 2528.05 917.7Z" fill="#FFF3ED"/>
<path d="M990.707 961.8C971.107 961.8 952.907 958.16 936.107 950.88C919.307 943.32 905.027 933.1 893.267 920.22C884.201 910.291 876.966 899.197 871.561 886.939C868.818 880.719 872.069 873.667 878.336 871.034L896.942 863.22C903.677 860.391 911.342 863.717 914.737 870.185C921.833 883.706 931.056 894.504 942.407 902.58C956.967 912.94 973.767 918.12 992.807 918.12C1004.01 918.12 1013.81 916.44 1022.21 913.08C1030.61 909.44 1037.05 904.4 1041.53 897.96C1046.29 891.52 1048.67 884.1 1048.67 875.7C1048.67 864.22 1045.45 855.12 1039.01 848.4C1032.57 841.68 1023.05 836.36 1010.45 832.44L951.647 813.96C928.127 806.68 910.207 795.62 897.887 780.78C885.567 765.66 879.407 748.02 879.407 727.86C879.407 710.22 883.747 694.82 892.427 681.66C901.107 668.22 913.007 657.72 928.127 650.16C943.527 642.6 961.027 638.82 980.627 638.82C999.387 638.82 1016.47 642.18 1031.87 648.9C1047.27 655.34 1060.43 664.3 1071.35 675.78C1079.74 684.385 1086.41 694.012 1091.34 704.661C1094.16 710.757 1091 717.746 1084.85 720.445L1067.14 728.213C1060.31 731.214 1052.45 727.773 1048.82 721.243C1042.94 710.647 1035.19 702.073 1025.57 695.52C1012.69 686.56 997.707 682.08 980.627 682.08C970.267 682.08 961.167 683.9 953.327 687.54C945.487 690.9 939.327 695.94 934.847 702.66C930.647 709.1 928.547 716.66 928.547 725.34C928.547 735.42 931.767 744.38 938.207 752.22C944.647 760.06 954.447 765.94 967.607 769.86L1022.21 787.08C1047.13 794.64 1065.89 805.56 1078.49 819.84C1091.09 833.84 1097.39 851.34 1097.39 872.34C1097.39 889.7 1092.77 905.1 1083.53 918.54C1074.57 931.98 1062.11 942.62 1046.15 950.46C1030.19 958.02 1011.71 961.8 990.707 961.8Z" stroke="black"/>
<path d="M1208.46 961.8C1191.38 961.8 1176.4 958.02 1163.52 950.46C1150.64 942.62 1140.56 931.84 1133.28 918.12C1126.28 904.12 1122.78 888.02 1122.78 869.82V742.54C1122.78 735.361 1128.6 729.54 1135.78 729.54H1157.24C1164.42 729.54 1170.24 735.361 1170.24 742.54V865.62C1170.24 875.98 1172.34 885.08 1176.54 892.92C1180.74 900.76 1186.62 906.92 1194.18 911.4C1201.74 915.6 1210.42 917.7 1220.22 917.7C1230.3 917.7 1239.12 915.46 1246.68 910.98C1254.24 906.5 1260.12 900.2 1264.32 892.08C1268.8 883.96 1271.04 874.44 1271.04 863.52V742.54C1271.04 735.361 1276.86 729.54 1284.04 729.54H1305.08C1312.26 729.54 1318.08 735.361 1318.08 742.54V943.76C1318.08 950.94 1312.26 956.76 1305.08 956.76H1286.14C1278.96 956.76 1273.14 950.94 1273.14 943.76V912.24L1278.18 918.12C1272.86 932.12 1264.04 942.9 1251.72 950.46C1239.4 958.02 1224.98 961.8 1208.46 961.8Z" stroke="black"/>
<path d="M1352.49 956.76V729.54H1397.85V775.32L1393.65 768.6C1398.69 753.76 1406.81 743.12 1418.01 736.68C1429.21 729.96 1442.65 726.6 1458.33 726.6H1472.19V769.86H1452.45C1436.77 769.86 1424.03 774.76 1414.23 784.56C1404.71 794.08 1399.95 807.8 1399.95 825.72V956.76H1352.49Z" stroke="black"/>
<path d="M1593.28 1049.16C1576.76 1049.16 1561.5 1046.5 1547.5 1041.18C1533.5 1035.86 1521.46 1028.44 1511.38 1018.92C1504.52 1012.63 1498.83 1005.56 1494.3 997.716C1490.74 991.547 1494 983.971 1500.58 981.25L1519.89 973.265C1526.71 970.446 1534.39 974.009 1538.66 980.03C1542.55 985.526 1547.6 990.369 1553.8 994.56C1564.44 1001.56 1577.46 1005.06 1592.86 1005.06C1604.9 1005.06 1615.68 1002.68 1625.2 997.92C1634.72 993.44 1642.28 986.72 1647.88 977.76C1653.48 969.08 1656.28 958.58 1656.28 946.26V895.02L1664.68 904.68C1656.84 919.24 1645.92 930.3 1631.92 937.86C1618.2 945.42 1602.66 949.2 1585.3 949.2C1564.3 949.2 1545.4 944.3 1528.6 934.5C1511.8 924.7 1498.5 911.26 1488.7 894.18C1479.18 877.1 1474.42 857.92 1474.42 836.64C1474.42 815.08 1479.18 795.9 1488.7 779.1C1498.5 762.3 1511.66 749 1528.18 739.2C1544.7 729.4 1563.6 724.5 1584.88 724.5C1602.24 724.5 1617.64 728.28 1631.08 735.84C1644.8 743.12 1656 753.76 1664.68 767.76L1658.38 779.52V742.54C1658.38 735.361 1664.2 729.54 1671.38 729.54H1690.32C1697.5 729.54 1703.32 735.361 1703.32 742.54V946.26C1703.32 965.86 1698.56 983.36 1689.04 998.76C1679.8 1014.44 1666.92 1026.76 1650.4 1035.72C1633.88 1044.68 1614.84 1049.16 1593.28 1049.16ZM1590.76 905.1C1603.36 905.1 1614.56 902.16 1624.36 896.28C1634.16 890.12 1641.86 882 1647.46 871.92C1653.34 861.56 1656.28 849.94 1656.28 837.06C1656.28 824.18 1653.34 812.56 1647.46 802.2C1641.58 791.84 1633.74 783.72 1623.94 777.84C1614.14 771.68 1603.08 768.6 1590.76 768.6C1577.88 768.6 1566.4 771.68 1556.32 777.84C1546.24 783.72 1538.26 791.84 1532.38 802.2C1526.78 812.28 1523.98 823.9 1523.98 837.06C1523.98 849.66 1526.78 861.14 1532.38 871.5C1538.26 881.86 1546.24 890.12 1556.32 896.28C1566.4 902.16 1577.88 905.1 1590.76 905.1Z" stroke="black"/>
<path d="M1844.56 961.8C1821.88 961.8 1801.72 956.62 1784.08 946.26C1766.72 935.62 1753.14 921.34 1743.34 903.42C1733.54 885.22 1728.64 864.92 1728.64 842.52C1728.64 819.56 1733.54 799.26 1743.34 781.62C1753.42 763.98 1766.86 750.12 1783.66 740.04C1800.46 729.68 1819.5 724.5 1840.78 724.5C1857.86 724.5 1873.12 727.44 1886.56 733.32C1900 739.2 1911.34 747.32 1920.58 757.68C1929.82 767.76 1936.82 779.38 1941.58 792.54C1946.62 805.7 1949.14 819.7 1949.14 834.54C1949.14 838.18 1949 841.96 1948.72 845.88C1948.44 849.8 1947.88 853.44 1947.04 856.8H1766.02V819H1920.16L1897.48 836.22C1900.28 822.5 1899.3 810.32 1894.54 799.68C1890.06 788.76 1883.06 780.22 1873.54 774.06C1864.3 767.62 1853.38 764.4 1840.78 764.4C1828.18 764.4 1816.98 767.62 1807.18 774.06C1797.38 780.22 1789.82 789.18 1784.5 800.94C1779.18 812.42 1777.08 826.42 1778.2 842.94C1776.8 858.34 1778.9 871.78 1784.5 883.26C1790.38 894.74 1798.5 903.7 1808.86 910.14C1819.5 916.58 1831.54 919.8 1844.98 919.8C1858.7 919.8 1870.32 916.72 1879.84 910.56C1886.07 906.645 1891.45 901.995 1895.98 896.609C1900.39 891.364 1907.73 888.964 1913.89 891.977L1930.54 900.122C1936.73 903.151 1939.57 910.566 1935.9 916.403C1931.85 922.846 1926.74 928.879 1920.58 934.5C1911.34 942.9 1900.14 949.62 1886.98 954.66C1874.1 959.42 1859.96 961.8 1844.56 961.8Z" stroke="black"/>
<path d="M2001.69 956.76C1994.51 956.76 1988.69 950.94 1988.69 943.76V656.86C1988.69 649.681 1994.51 643.86 2001.69 643.86H2025.25C2032.43 643.86 2038.25 649.681 2038.25 656.86V899.66C2038.25 906.84 2044.07 912.66 2051.25 912.66H2160.49C2167.67 912.66 2173.49 918.481 2173.49 925.66V943.76C2173.49 950.94 2167.67 956.76 2160.49 956.76H2001.69Z" stroke="black"/>
<path d="M2257.52 961.8C2242.12 961.8 2228.54 959.14 2216.78 953.82C2205.3 948.22 2196.34 940.66 2189.9 931.14C2183.46 921.34 2180.24 909.86 2180.24 896.7C2180.24 884.38 2182.9 873.32 2188.22 863.52C2193.82 853.72 2202.36 845.46 2213.84 838.74C2225.32 832.02 2239.74 827.26 2257.1 824.46L2336.06 811.44V848.82L2266.34 861C2253.74 863.24 2244.5 867.3 2238.62 873.18C2232.74 878.78 2229.8 886.06 2229.8 895.02C2229.8 903.7 2233.02 910.84 2239.46 916.44C2246.18 921.76 2254.72 924.42 2265.08 924.42C2277.96 924.42 2289.16 921.62 2298.68 916.02C2308.48 910.42 2316.04 903 2321.36 893.76C2326.68 884.24 2329.34 873.74 2329.34 862.26V803.88C2329.34 792.68 2325.14 783.58 2316.74 776.58C2308.62 769.3 2297.7 765.66 2283.98 765.66C2271.38 765.66 2260.32 769.02 2250.8 775.74C2245.4 779.505 2240.81 783.939 2237.04 789.042C2232.6 795.042 2224.6 798.132 2217.93 794.795L2201.21 786.434C2195.26 783.459 2192.4 776.389 2195.73 770.63C2199.73 763.721 2204.92 757.445 2211.32 751.8C2220.84 743.12 2231.9 736.4 2244.5 731.64C2257.38 726.88 2270.96 724.5 2285.24 724.5C2303.16 724.5 2318.98 727.86 2332.7 734.58C2346.7 741.3 2357.48 750.68 2365.04 762.72C2372.88 774.48 2376.8 788.2 2376.8 803.88V943.76C2376.8 950.94 2370.98 956.76 2363.8 956.76H2344.44C2337.26 956.76 2331.44 950.94 2331.44 943.76V915.6L2341.1 916.86C2335.78 926.1 2328.92 934.08 2320.52 940.8C2312.4 947.52 2303.02 952.7 2292.38 956.34C2282.02 959.98 2270.4 961.8 2257.52 961.8Z" stroke="black"/>
<path d="M2532.67 961.8C2515.03 961.8 2498.93 958.16 2484.37 950.88C2470.09 943.6 2459.03 933.1 2451.19 919.38L2456.65 910.56V943.76C2456.65 950.94 2450.83 956.76 2443.65 956.76H2424.29C2417.11 956.76 2411.29 950.94 2411.29 943.76V651.82C2411.29 644.641 2417.11 638.82 2424.29 638.82H2445.75C2452.93 638.82 2458.75 644.641 2458.75 651.82V776.58L2451.19 765.66C2459.59 752.78 2470.79 742.7 2484.79 735.42C2498.79 728.14 2514.75 724.5 2532.67 724.5C2554.23 724.5 2573.55 729.68 2590.63 740.04C2607.99 750.4 2621.57 764.54 2631.37 782.46C2641.45 800.38 2646.49 820.54 2646.49 842.94C2646.49 865.34 2641.45 885.5 2631.37 903.42C2621.57 921.34 2608.13 935.62 2591.05 946.26C2573.97 956.62 2554.51 961.8 2532.67 961.8ZM2528.05 917.7C2541.49 917.7 2553.39 914.48 2563.75 908.04C2574.11 901.6 2582.23 892.78 2588.11 881.58C2594.27 870.1 2597.35 857.22 2597.35 842.94C2597.35 828.66 2594.27 815.92 2588.11 804.72C2582.23 793.52 2574.11 784.7 2563.75 778.26C2553.39 771.82 2541.49 768.6 2528.05 768.6C2514.89 768.6 2502.99 771.82 2492.35 778.26C2481.99 784.7 2473.73 793.52 2467.57 804.72C2461.69 815.92 2458.75 828.66 2458.75 842.94C2458.75 857.22 2461.69 870.1 2467.57 881.58C2473.73 892.78 2481.99 901.6 2492.35 908.04C2502.99 914.48 2514.89 917.7 2528.05 917.7Z" stroke="black"/>
<defs>
<linearGradient id="paint0_linear_6248_909" x1="524.529" y1="820.966" x2="822.714" y2="812.961" gradientUnits="userSpaceOnUse">
<stop stop-color="#FFB487"/>
<stop offset="0.346154" stop-color="#FDD87E"/>
<stop offset="0.701923" stop-color="#BFFE92"/>
</linearGradient>
</defs>
</svg>
