<svg width="2239" height="312" viewBox="0 0 2239 312" fill="none" xmlns="http://www.w3.org/2000/svg">
<g clip-path="url(#clip0_5052_210)">
<path fill-rule="evenodd" clip-rule="evenodd" d="M2122.63 312.269C2100.07 312.269 2079.12 308.387 2059.78 300.623C2040.45 292.572 2023.45 281.502 2008.8 267.412C1994.45 253.035 1983.31 236.358 1975.4 217.38C1967.79 198.403 1963.98 177.987 1963.98 156.134C1963.98 134.281 1967.79 113.866 1975.4 94.8882C1983.31 75.9106 1994.45 59.377 2008.8 45.2876C2023.45 31.1981 2040.3 20.1278 2059.35 12.0767C2078.68 4.02556 2099.78 0 2122.63 0C2147.24 0 2168.92 4.02556 2187.68 12.0767C2206.43 19.8403 2222.98 30.623 2237.34 44.425L2196.9 84.1055C2188.41 74.9042 2178.01 67.7157 2165.7 62.54C2153.4 57.3643 2139.04 54.7764 2122.63 54.7764C2108.27 54.7764 2095.09 57.2205 2083.08 62.1087C2071.36 66.7093 2061.1 73.6103 2052.31 82.8115C2043.52 91.7253 2036.79 102.508 2032.1 115.16C2027.41 127.524 2025.07 141.182 2025.07 156.134C2025.07 171.374 2027.41 185.176 2032.1 197.54C2036.79 209.904 2043.52 220.687 2052.31 229.888C2061.1 238.802 2071.36 245.703 2083.08 250.591C2095.09 255.479 2108.27 257.923 2122.63 257.923C2139.92 257.923 2154.71 255.336 2167.02 250.16C2179.62 244.984 2190.17 237.652 2198.66 228.163L2239.1 267.844C2224.74 281.933 2208.04 292.86 2188.99 300.623C2169.95 308.387 2147.83 312.269 2122.63 312.269ZM1152.1 8.79688V312.269H1209.85V131.551L1282.47 250.107H1321.54L1394.59 130.858V312.269H1451.92V8.79688H1411.15L1302.2 186.616L1192.86 8.79688H1152.1ZM1557.97 8.79688V312.269H1615.95V131.551L1688.84 250.107H1728.06L1801.37 130.858V312.269H1858.92V8.79688H1818L1708.64 186.616L1598.9 8.79688H1557.97ZM118.354 312.27V60.3707H0V8H291.888V60.3707H175.393V312.27H118.354ZM400.555 312.27V8H457.177V129.188H637.137V8H693.759V312.27H637.137V181.126H457.177V312.27H400.555ZM799.515 8V312.27H841.149H856.137H1044V260.332H856.137V181.992H1029.43V131.785H856.137V59.9379H1041.92V8H856.137H841.149H799.515Z" fill="#FBF604"/>
</g>
<defs>
<clipPath id="clip0_5052_210">
<rect width="2239" height="312" fill="white"/>
</clipPath>
</defs>
</svg>
