<svg width="3464" height="834" viewBox="0 0 3464 834" fill="none" xmlns="http://www.w3.org/2000/svg">
<g clip-path="url(#clip0_1352_132)">
<path d="M390.32 829V435.32H444.08L603.68 690.68H572.88L731.92 435.32H785.68V829H710.08V565.8L724.64 570.28L613.76 748.36H562.24L451.36 570.28L466.48 565.8V829H390.32Z" fill="#F7F208"/>
<path d="M987.622 834.6C959.248 834.6 934.048 828.627 912.022 816.68C889.995 804.36 872.448 787.56 859.382 766.28C846.688 745 840.342 720.733 840.342 693.48C840.342 666.6 846.502 642.707 858.822 621.8C871.515 600.52 888.688 583.72 910.342 571.4C931.995 558.707 956.075 552.36 982.582 552.36C1008.71 552.36 1031.67 558.334 1051.46 570.28C1071.62 581.854 1087.3 597.907 1098.5 618.44C1110.07 638.6 1115.86 661.56 1115.86 687.32C1115.86 692.173 1115.49 697.214 1114.74 702.44C1114.37 707.294 1113.43 712.894 1111.94 719.24L884.582 719.8V664.92L1077.78 664.36L1048.1 687.32C1047.35 671.267 1044.37 657.827 1039.14 647C1034.29 636.174 1027.01 627.96 1017.3 622.36C1007.97 616.387 996.395 613.4 982.582 613.4C968.022 613.4 955.328 616.76 944.502 623.48C933.675 629.827 925.275 638.973 919.302 650.92C913.702 662.494 910.902 676.307 910.902 692.36C910.902 708.787 913.888 723.16 919.862 735.48C926.208 747.427 935.168 756.76 946.742 763.48C958.315 769.827 971.755 773 987.062 773C1000.87 773 1013.38 770.76 1024.58 766.28C1035.78 761.427 1045.49 754.334 1053.7 745L1096.82 788.12C1083.75 803.427 1067.7 815 1048.66 822.84C1029.99 830.68 1009.65 834.6 987.622 834.6Z" fill="#F7F208"/>
<path d="M1169.07 829V435.32H1222.83L1382.43 690.68H1351.63L1510.67 435.32H1564.43V829H1488.83V565.8L1503.39 570.28L1392.51 748.36H1340.99L1230.11 570.28L1245.23 565.8V829H1169.07Z" fill="#F7F208"/>
<path d="M1766.37 834.6C1738 834.6 1712.8 828.627 1690.77 816.68C1668.74 804.36 1651.2 787.56 1638.13 766.28C1625.44 745 1619.09 720.733 1619.09 693.48C1619.09 666.6 1625.25 642.707 1637.57 621.8C1650.26 600.52 1667.44 583.72 1689.09 571.4C1710.74 558.707 1734.82 552.36 1761.33 552.36C1787.46 552.36 1810.42 558.334 1830.21 570.28C1850.37 581.854 1866.05 597.907 1877.25 618.44C1888.82 638.6 1894.61 661.56 1894.61 687.32C1894.61 692.173 1894.24 697.214 1893.49 702.44C1893.12 707.294 1892.18 712.894 1890.69 719.24L1663.33 719.8V664.92L1856.53 664.36L1826.85 687.32C1826.1 671.267 1823.12 657.827 1817.89 647C1813.04 636.174 1805.76 627.96 1796.05 622.36C1786.72 616.387 1775.14 613.4 1761.33 613.4C1746.77 613.4 1734.08 616.76 1723.25 623.48C1712.42 629.827 1704.02 638.973 1698.05 650.92C1692.45 662.494 1689.65 676.307 1689.65 692.36C1689.65 708.787 1692.64 723.16 1698.61 735.48C1704.96 747.427 1713.92 756.76 1725.49 763.48C1737.06 769.827 1750.5 773 1765.81 773C1779.62 773 1792.13 770.76 1803.33 766.28C1814.53 761.427 1824.24 754.334 1832.45 745L1875.57 788.12C1862.5 803.427 1846.45 815 1827.41 822.84C1808.74 830.68 1788.4 834.6 1766.37 834.6Z" fill="#F7F208"/>
<path d="M2130.38 834.6C2101.63 834.6 2074.94 829.56 2050.3 819.48C2025.66 809.027 2004.01 794.654 1985.34 776.36C1967.05 757.694 1952.86 736.04 1942.78 711.4C1933.07 686.76 1928.22 660.254 1928.22 631.88C1928.22 603.507 1933.07 577 1942.78 552.36C1952.86 527.72 1967.05 506.254 1985.34 487.96C2004.01 469.667 2025.47 455.293 2049.74 444.84C2074.38 434.387 2101.26 429.16 2130.38 429.16C2161.74 429.16 2189.37 434.387 2213.26 444.84C2237.15 454.92 2258.25 468.92 2276.54 486.84L2225.02 538.36C2214.19 526.414 2200.94 517.08 2185.26 510.36C2169.58 503.64 2151.29 500.28 2130.38 500.28C2112.09 500.28 2095.29 503.454 2079.98 509.8C2065.05 515.774 2051.98 524.734 2040.78 536.68C2029.58 548.254 2020.99 562.253 2015.02 578.68C2009.05 594.733 2006.06 612.467 2006.06 631.88C2006.06 651.667 2009.05 669.587 2015.02 685.64C2020.99 701.694 2029.58 715.693 2040.78 727.64C2051.98 739.214 2065.05 748.174 2079.98 754.52C2095.29 760.867 2112.09 764.04 2130.38 764.04C2152.41 764.04 2171.26 760.68 2186.94 753.96C2202.99 747.24 2216.43 737.72 2227.26 725.4L2278.78 776.92C2260.49 795.213 2239.21 809.4 2214.94 819.48C2190.67 829.56 2162.49 834.6 2130.38 834.6Z" fill="#F7F208"/>
<path d="M2429.9 834.6C2405.26 834.6 2383.04 828.44 2363.26 816.12C2343.47 803.8 2327.98 787 2316.78 765.72C2305.58 744.44 2299.98 720.547 2299.98 694.04C2299.98 667.16 2305.58 643.08 2316.78 621.8C2327.98 600.52 2343.47 583.72 2363.26 571.4C2383.04 559.08 2405.26 552.92 2429.9 552.92C2449.31 552.92 2466.67 556.84 2481.98 564.68C2497.28 572.52 2509.42 583.533 2518.38 597.72C2527.71 611.534 2532.75 627.213 2533.5 644.76V742.2C2532.75 760.12 2527.71 775.987 2518.38 789.8C2509.42 803.614 2497.28 814.627 2481.98 822.84C2466.67 830.68 2449.31 834.6 2429.9 834.6ZM2443.34 766.84C2463.87 766.84 2480.48 760.12 2493.18 746.68C2505.87 732.867 2512.22 715.133 2512.22 693.48C2512.22 679.294 2509.23 666.787 2503.26 655.96C2497.66 644.76 2489.63 636.173 2479.18 630.2C2469.1 623.854 2457.15 620.68 2443.34 620.68C2429.9 620.68 2417.95 623.854 2407.5 630.2C2397.42 636.173 2389.39 644.76 2383.42 655.96C2377.82 666.787 2375.02 679.294 2375.02 693.48C2375.02 708.04 2377.82 720.92 2383.42 732.12C2389.39 742.947 2397.42 751.534 2407.5 757.88C2417.95 763.854 2429.9 766.84 2443.34 766.84ZM2508.3 829V756.2L2520.06 690.12L2508.3 625.16V558.52H2581.1V829H2508.3Z" fill="#F7F208"/>
<path fill-rule="evenodd" clip-rule="evenodd" d="M802.176 249.76V404.88H875.536V233.52C875.536 212.987 871.056 194.88 862.096 179.2C853.136 163.52 840.63 151.2 824.576 142.24C808.896 133.28 790.79 128.8 770.256 128.8C749.723 128.8 731.43 133.28 715.376 142.24C707.178 146.925 699.898 152.579 693.536 159.204V0H620.176V404.88H693.536V249.76C693.536 238.933 695.776 229.413 700.256 221.2C705.11 212.987 711.643 206.64 719.856 202.16C728.07 197.68 737.403 195.44 747.856 195.44C763.91 195.44 776.976 200.48 787.056 210.56C797.136 220.64 802.176 233.707 802.176 249.76ZM1061.99 410.48C1033.62 410.48 1008.42 404.507 986.389 392.56C964.363 380.24 946.816 363.44 933.749 342.16C921.056 320.88 914.709 296.613 914.709 269.36C914.709 242.48 920.869 218.587 933.189 197.68C945.883 176.4 963.056 159.6 984.709 147.28C1006.36 134.587 1030.44 128.24 1056.95 128.24C1083.08 128.24 1106.04 134.213 1125.83 146.16C1145.99 157.733 1161.67 173.787 1172.87 194.32C1184.44 214.48 1190.23 237.44 1190.23 263.2C1190.23 268.053 1189.86 273.093 1189.11 278.32C1188.74 283.173 1187.8 288.773 1186.31 295.12L988.499 295.607C989.932 301.186 991.842 306.437 994.229 311.36C1000.58 323.307 1009.54 332.64 1021.11 339.36C1032.68 345.707 1046.12 348.88 1061.43 348.88C1075.24 348.88 1087.75 346.64 1098.95 342.16C1110.15 337.307 1119.86 330.213 1128.07 320.88L1171.19 364C1158.12 379.307 1142.07 390.88 1123.03 398.72C1104.36 406.56 1084.02 410.48 1061.99 410.48ZM993.669 226.8C991.577 231.125 989.875 235.763 988.564 240.714L1119.5 240.335C1118.02 233.911 1116.03 228.092 1113.51 222.88C1108.66 212.053 1101.38 203.84 1091.67 198.24C1082.34 192.267 1070.76 189.28 1056.95 189.28C1042.39 189.28 1029.7 192.64 1018.87 199.36C1008.04 205.707 999.643 214.853 993.669 226.8ZM501.573 282.88C501.563 288.511 501.552 294.055 501.54 299.443C501.543 299.505 501.552 299.682 501.579 299.959C501.642 300.587 501.792 301.67 502.143 303.032C502.845 305.75 504.256 309.266 507.176 312.758C511.842 318.336 527.651 332.362 577.574 330.409L580.506 405.351C515.43 407.898 473.734 389.673 449.647 360.877C426.803 333.565 426.529 304.442 426.54 299.297C426.613 266.474 426.655 227.854 426.664 198.8H365V134.4H428.28V21.84H501.64V134.4H564.92V198.8H501.664C501.661 209.721 501.653 221.991 501.64 234.796V282.88H501.573Z" fill="#F7F208"/>
<path fill-rule="evenodd" clip-rule="evenodd" d="M2744.57 706.04C2744.56 711.671 2744.55 717.215 2744.54 722.603C2744.54 722.665 2744.55 722.842 2744.58 723.119C2744.64 723.747 2744.79 724.83 2745.14 726.192C2745.84 728.91 2747.26 732.426 2750.18 735.918C2754.84 741.496 2770.65 755.522 2820.57 753.569L2823.51 828.511C2758.43 831.058 2716.73 812.833 2692.65 784.037C2669.8 756.725 2669.53 727.602 2669.54 722.457C2669.61 689.634 2669.66 651.014 2669.66 621.96H2608V557.56H2671.28V445H2744.64V557.56H2807.92V621.96H2744.66C2744.66 632.881 2744.65 645.151 2744.64 657.956V706.04H2744.57Z" fill="#F7F208"/>
</g>
<defs>
<clipPath id="clip0_1352_132">
<rect width="3464" height="834" fill="white"/>
</clipPath>
</defs>
</svg>
