<svg width="950" height="671" viewBox="0 0 950 671" fill="none" xmlns="http://www.w3.org/2000/svg">
<g clip-path="url(#clip0_1478_18)">
<path fill-rule="evenodd" clip-rule="evenodd" d="M124.354 290V49.9146H6V0H297.888V49.9146H181.393V290H124.354ZM334.555 290V0H391.177V115.505H571.137V0H627.759V290H571.137V165.007H391.177V290H334.555ZM677.515 0V290H719.149H734.137H922V240.498H734.137V165.832H907.428V117.98H734.137V49.5021H919.918V0H734.137H719.149H677.515ZM833.536 670.911C810.976 670.911 790.027 667.029 770.69 659.266C751.352 651.215 734.359 640.144 719.709 626.055C705.353 611.678 694.219 595 686.308 576.023C678.691 557.045 674.882 536.63 674.882 514.777C674.882 492.924 678.691 472.508 686.308 453.531C694.219 434.553 705.353 418.02 719.709 403.93C734.359 389.841 751.206 378.77 770.25 370.719C789.588 362.668 810.683 358.643 833.536 358.643C858.147 358.643 879.829 362.668 898.58 370.719C917.331 378.483 933.885 389.266 948.242 403.068L907.809 442.748C899.312 433.547 888.911 426.358 876.606 421.183C864.3 416.007 849.944 413.419 833.536 413.419C819.18 413.419 805.995 415.863 793.982 420.751C782.263 425.352 772.008 432.253 763.218 441.454C754.429 450.368 747.69 461.151 743.002 473.802C738.314 486.167 735.97 499.825 735.97 514.777C735.97 530.016 738.314 543.818 743.002 556.183C747.69 568.547 754.429 579.33 763.218 588.531C772.008 597.445 782.263 604.346 793.982 609.234C805.995 614.122 819.18 616.566 833.536 616.566C850.823 616.566 865.619 613.978 877.924 608.802C890.523 603.627 901.07 596.294 909.567 586.806L950 626.486C935.643 640.576 918.943 651.502 899.898 659.266C880.854 667.029 858.733 670.911 833.536 670.911ZM0 367.438V670.91H57.7562V490.192L130.376 608.748H169.446L242.491 489.499V670.91H299.822V367.438H259.053L150.103 545.257L40.7691 367.438H0ZM336.879 367.438V670.91H394.852V490.192L467.744 608.748H506.96L580.279 489.499V670.91H637.825V367.438H596.903L487.545 545.257L377.801 367.438H336.879Z" fill="#FBF604"/>
</g>
<defs>
<clipPath id="clip0_1478_18">
<rect width="950" height="671" fill="white"/>
</clipPath>
</defs>
</svg>
