<svg width="5547" height="5547" viewBox="0 0 5547 5547" fill="none" xmlns="http://www.w3.org/2000/svg">
<path d="M1926.25 1532.83L1451.92 1379.03L1134.95 2356.58L902.711 2281.28L1219.67 1303.73L737.774 1147.48L803.672 944.242L1992.14 1329.6L1926.25 1532.83Z" fill="#F1EC04"/>
<path d="M667.461 3133.89L670.682 3135.69L1435.36 3562.27L1446.91 2687.54L1446.96 2683.85L1602.57 2594.01L2229.72 3680.26L2012.05 3805.94L1661.2 3198.25L1653.74 3768.49L1653.69 3772.18L1506.63 3857.09L1503.4 3855.29L1008.84 3578.31L1358.21 4183.43L1139.01 4309.99L511.855 3223.73L667.461 3133.89Z" fill="#F1EC04" stroke="#949494" stroke-width="13"/>
<path d="M2707.21 3505.08L2707.9 3508.7L2872.88 4368.64L3550.23 3815.04L3553.09 3812.7L3721.96 3874.12L3293.27 5052.89L3057.06 4966.99L3296.88 4307.54L2855.35 4668.48L2852.49 4670.82L2692.9 4612.78L2692.21 4609.15L2586.34 4052.29L2347.53 4708.95L2109.66 4622.44L2538.35 3443.67L2707.21 3505.08Z" fill="#F1EC04" stroke="#949494" stroke-width="13"/>
<path d="M3810.19 2074.41L3560.83 976.992L3748.69 934.306L3998.05 2031.72L3810.19 2074.41ZM3997.85 2031.77L3955.28 1844.44L4800.29 1652.44L4842.85 1839.76L3997.85 2031.77ZM3891.08 1561.89L3849.93 1380.81L4569.72 1217.26L4610.86 1398.34L3891.08 1561.89ZM3791.05 1121.68L3748.49 934.352L4584.11 744.479L4626.68 931.805L3791.05 1121.68Z" fill="#F1EC04"/>
<path d="M2702.47 3002.24L1889.02 2064.62L2070.84 1906.88L2884.29 2844.5L2702.47 3002.24ZM3462.16 2343.16L2648.71 1405.54L2830.53 1247.8L3643.98 2185.42L3462.16 2343.16ZM2466.84 2498.37L2327.99 2338.32L3023.5 1734.91L3162.36 1894.96L2466.84 2498.37Z" fill="#F1EC04"/>
<mask id="path-6-outside-1_6954_228" maskUnits="userSpaceOnUse" x="3618.25" y="2492.42" width="1470.24" height="1529.33" fill="black">
<rect fill="white" x="3618.25" y="2492.42" width="1470.24" height="1529.33"/>
<path d="M4476.86 2577.51C4712.05 2601.08 4909.27 2733.23 5020.66 2917.27L4821.26 3058.83C4751.88 2926.4 4616.61 2829.63 4453.23 2813.26C4198.72 2787.75 3972.37 2966.98 3947.66 3213.57C3922.94 3460.16 4109.23 3680.74 4363.73 3706.24C4538.72 3723.78 4700.4 3644.53 4792.38 3513.14L4963.55 3695.54C4818.61 3870.44 4587.81 3972.52 4339.54 3947.64C3949.04 3908.51 3663.22 3570.07 3701.14 3191.71C3739.06 2813.36 4086.36 2538.37 4476.86 2577.51Z"/>
</mask>
<path d="M4476.86 2577.51C4712.05 2601.08 4909.27 2733.23 5020.66 2917.27L4821.26 3058.83C4751.88 2926.4 4616.61 2829.63 4453.23 2813.26C4198.72 2787.75 3972.37 2966.98 3947.66 3213.57C3922.94 3460.16 4109.23 3680.74 4363.73 3706.24C4538.72 3723.78 4700.4 3644.53 4792.38 3513.14L4963.55 3695.54C4818.61 3870.44 4587.81 3972.52 4339.54 3947.64C3949.04 3908.51 3663.22 3570.07 3701.14 3191.71C3739.06 2813.36 4086.36 2538.37 4476.86 2577.51Z" fill="#F1EC04"/>
<path d="M4476.86 2577.51L4478.15 2564.58L4478.15 2564.58L4476.86 2577.51ZM5020.66 2917.27L5028.18 2927.87L5038.03 2920.87L5031.78 2910.54L5020.66 2917.27ZM4821.26 3058.83L4809.74 3064.87L4816.65 3078.05L4828.79 3069.43L4821.26 3058.83ZM4453.23 2813.26L4454.52 2800.32L4454.52 2800.32L4453.23 2813.26ZM3947.66 3213.57L3934.72 3212.27L3934.72 3212.27L3947.66 3213.57ZM4363.73 3706.24L4362.44 3719.18L4362.44 3719.18L4363.73 3706.24ZM4792.38 3513.14L4801.86 3504.25L4790.91 3492.58L4781.73 3505.69L4792.38 3513.14ZM4963.55 3695.54L4973.56 3703.84L4980.88 3695.01L4973.03 3686.65L4963.55 3695.54ZM4339.54 3947.64L4338.25 3960.58L4338.25 3960.58L4339.54 3947.64ZM3701.14 3191.71L3688.2 3190.42L3688.2 3190.42L3701.14 3191.71ZM4476.86 2577.51L4475.56 2590.45C4706.61 2613.6 4900.22 2743.39 5009.53 2924L5020.66 2917.27L5031.78 2910.54C4918.31 2723.06 4717.49 2588.56 4478.15 2564.58L4476.86 2577.51ZM5020.66 2917.27L5013.13 2906.67L4813.73 3048.23L4821.26 3058.83L4828.79 3069.43L5028.18 2927.87L5020.66 2917.27ZM4821.26 3058.83L4832.77 3052.8C4761.4 2916.55 4622.32 2817.14 4454.52 2800.32L4453.23 2813.26L4451.93 2826.19C4610.9 2842.13 4742.36 2936.25 4809.74 3064.87L4821.26 3058.83ZM4453.23 2813.26L4454.52 2800.32C4193.26 2774.14 3960.19 2958.15 3934.72 3212.27L3947.66 3213.57L3960.59 3214.86C3984.55 2975.8 4204.18 2801.36 4451.93 2826.19L4453.23 2813.26ZM3947.66 3213.57L3934.72 3212.27C3909.25 3466.39 4101.18 3692.99 4362.44 3719.18L4363.73 3706.24L4365.03 3693.31C4117.28 3668.48 3936.63 3453.93 3960.59 3214.86L3947.66 3213.57ZM4363.73 3706.24L4362.44 3719.18C4542.15 3737.19 4708.38 3655.8 4803.03 3520.6L4792.38 3513.14L4781.73 3505.69C4692.43 3633.26 4535.3 3710.37 4365.03 3693.31L4363.73 3706.24ZM4792.38 3513.14L4782.9 3522.04L4954.07 3704.44L4963.55 3695.54L4973.03 3686.65L4801.86 3504.25L4792.38 3513.14ZM4963.55 3695.54L4953.54 3687.25C4811.32 3858.86 4584.73 3959.15 4340.84 3934.71L4339.54 3947.64L4338.25 3960.58C4590.88 3985.9 4825.9 3882.01 4973.56 3703.84L4963.55 3695.54ZM4339.54 3947.64L4340.84 3934.71C3957.1 3896.25 3676.91 3563.84 3714.08 3193.01L3701.14 3191.71L3688.2 3190.42C3649.53 3576.3 3940.99 3920.77 4338.25 3960.58L4339.54 3947.64ZM3701.14 3191.71L3714.08 3193.01C3751.24 2822.19 4091.82 2551.99 4475.56 2590.45L4476.86 2577.51L4478.15 2564.58C4080.9 2524.76 3726.88 2804.54 3688.2 3190.42L3701.14 3191.71Z" fill="#949494" mask="url(#path-6-outside-1_6954_228)"/>
</svg>
