<svg width="7967" height="2536" viewBox="0 0 7967 2536" fill="none" xmlns="http://www.w3.org/2000/svg">
<g clip-path="url(#clip0_6299_677)">
<path d="M1249.35 2487.75V1363.47H1441.81V2487.75H1249.35ZM1441.6 2487.75V2295.84H2307.29V2487.75H1441.6ZM1441.6 2006.37V1820.86H2179V2006.37H1441.6ZM1441.6 1555.38V1363.47H2297.67V1555.38H1441.6Z" fill="#FAF504"/>
<path d="M3669.28 2487.75V1363.47H3861.74V2487.75H3669.28ZM3861.53 2487.75V2295.84H4727.22V2487.75H3861.53ZM3861.53 2006.37V1820.86H4598.93V2006.37H3861.53ZM3861.53 1555.38V1363.47H4717.61V1555.38H3861.53Z" fill="#FAF504"/>
<path d="M0 2487.75V1363.47H153.51L609.244 2126.61H521.295L975.429 1363.47H1128.94V2487.75H913.066V1753.41L954.641 1766.79L638.027 2298.98H490.913L174.298 1766.79L217.473 1753.41V2487.75H0Z" fill="#FAF504"/>
<path d="M2427.69 2487.75V1363.47H2581.2L3036.94 2126.61H2948.99L3403.12 1363.47H3556.63V2487.75H3340.76V1753.41L3382.33 1766.79L3065.72 2298.98H2918.61L2601.99 1766.79L2645.17 1753.41V2487.75H2427.69Z" fill="#FAF504"/>
<path d="M2455.93 1124.78V0.5H2648.39V1124.78H2455.93ZM2648.18 1124.78V932.866H3513.87V1124.78H2648.18ZM2648.18 643.401V457.887H3385.58V643.401H2648.18ZM2648.18 192.411V0.5H3504.26V192.411H2648.18Z" fill="#FAF504"/>
<path d="M1131.6 194.01H679.966V1124.78H458.839V194.01H0V0.5H1131.6V194.01Z" fill="#FAF504"/>
<path d="M1206.58 1124.78V0.5H1424.6V1124.78H1206.58ZM2117.51 1124.78V0.5H2335.52V1124.78H2117.51ZM1344.44 640.202V448.292H2178.42V640.202H1344.44Z" fill="#FAF504"/>
<path d="M7967.28 1556.98H7515.65V2487.75H7294.52V1556.98H6835.68V1363.47H7967.28V1556.98Z" fill="#FAF504"/>
<path d="M5350.88 1363.47C5552.13 1363.47 5730.42 1458.67 5840.41 1605.12L5683.51 1741.98C5613.49 1635.68 5490.68 1565.19 5350.88 1565.19C5133.11 1565.19 4956.57 1736.23 4956.57 1947.23C4956.57 2158.23 5133.11 2329.28 5350.88 2329.28C5500.61 2329.28 5630.85 2248.41 5697.62 2129.3L5858.11 2269.29C5750.17 2429.76 5563.31 2535.84 5350.88 2535.84C5016.75 2535.84 4745.88 2273.39 4745.88 1949.65C4745.88 1625.91 5016.75 1363.47 5350.88 1363.47Z" fill="#FAF504"/>
<path d="M5874.82 2487.75L6291.78 1363.47H6577.33L6994.29 2487.75H6754.17L6668.18 2246.29H6200.93L6113.32 2487.75H5874.82ZM6264.2 2065.2H6604.91L6403.73 1463.32H6465.38L6264.2 2065.2Z" fill="#FAF504"/>
</g>
<defs>
<clipPath id="clip0_6299_677">
<rect width="7967" height="2535" fill="white" transform="translate(0 0.5)"/>
</clipPath>
</defs>
</svg>
