<svg width="8588" height="5631" viewBox="0 0 8588 5631" fill="none" xmlns="http://www.w3.org/2000/svg">
<rect width="8588" height="5630.41" fill="#00E2D4"/>
<path fill-rule="evenodd" clip-rule="evenodd" d="M4493.54 1947.84C4548.37 1900.84 4618.21 1875 4690.44 1875C4736.22 1875 4781.4 1885.39 4822.58 1905.38L4824.9 1906.51C4847.53 1917.49 4868.75 1931.16 4888.11 1947.21L4905.79 1961.86L4909.81 1965.19L4913.44 1968.95L4957.94 2014.95L4960.8 2017.9L4963.39 2021.09L4964.57 2022.54C5003.99 2071.07 5036.27 2124.99 5060.41 2182.66L5071.77 2209.81C5101.57 2280.99 5118.56 2356.88 5121.94 2433.98L5123.61 2471.81C5125.52 2515.38 5123.08 2559.04 5116.32 2602.12L5104.05 2680.27C5096.25 2729.98 5082.74 2778.62 5063.81 2825.23L5029.67 2909.26L5029.21 2910.39L5028.72 2911.52L4963.22 3061.52L4961.14 3066.28L4958.55 3070.79L4875.05 3216.29L4874.05 3218.04L4872.96 3219.76L4831.34 3285.61L5100.45 3572.51L4961.87 3702.49L4726.46 3451.53L4725.9 3452.42C4688.4 3511.74 4641.07 3564.23 4585.92 3607.65L4527.16 3533L4584.87 3608.46L4582.75 3610.08C4531.66 3649.15 4475.08 3680.49 4414.86 3703.07L4400.55 3708.44C4363.17 3722.45 4324.59 3733.02 4285.29 3740.02L4253.05 3745.75C4190.8 3756.83 4127.28 3758.83 4064.45 3751.7L4042.08 3749.16C3925.59 3735.94 3814.78 3691.69 3721.22 3621.04L3675.38 3586.42L3665.25 3593.62C3575.79 3657.18 3471.79 3697.25 3362.81 3710.14L3179.32 3731.84L3157 3543.16L3340.49 3521.45C3405.34 3513.78 3467.7 3492.56 3523.58 3459.32C3482.89 3415.6 3448.24 3366.39 3420.73 3312.97L3399.22 3271.2C3381.31 3236.41 3366.55 3200.09 3355.11 3162.67L3335.74 3099.23C3316.79 3037.21 3307.16 2972.72 3307.16 2907.87V2850.5V2844.85L3307.83 2839.23L3318.52 2749.75C3323.82 2705.41 3333.63 2661.72 3347.82 2619.38L3363.08 2573.82L3363.65 2572.13L3364.28 2570.45L3371.7 2550.79C3388.9 2505.22 3412.58 2462.37 3442 2423.55L3449.02 2414.29C3473.7 2381.72 3502.93 2352.87 3535.81 2328.62L3548.94 2318.93C3567.53 2305.22 3587.68 2293.78 3608.98 2284.85C3685.48 2252.75 3772.06 2254.91 3846.87 2290.79L3851.28 2292.9C3888.33 2310.67 3921.36 2335.82 3948.32 2366.82L3973.83 2396.15L3977.48 2400.34L3980.61 2404.92L3990.29 2419.1C4026.22 2471.7 4054.28 2529.27 4073.58 2589.98L4080.24 2610.92C4096.13 2660.87 4105.96 2712.54 4109.53 2764.83L4114.94 2844.03L4115.39 2850.63L4114.92 2857.22L4110.4 2920.92C4106.15 2980.91 4093.65 3040.03 4073.26 3096.61L4051.96 3155.74C4035.31 3201.96 4013.5 3246.16 3986.96 3287.51L3952.11 3341.82L3949.35 3346.11L3946.15 3350.09L3920.25 3382.24C3894.78 3413.87 3866.45 3443.02 3835.64 3469.35L3835.72 3469.41C3902.14 3519.57 3980.81 3550.99 4063.51 3560.37L4085.88 3562.91C4130.48 3567.98 4175.58 3566.55 4219.77 3558.69L4252.01 3552.95C4279.91 3547.99 4307.3 3540.49 4333.83 3530.54L4348.14 3525.17C4390.9 3509.14 4431.06 3486.89 4467.33 3459.15L4468.89 3457.96C4506.85 3427.99 4539.45 3391.79 4565.3 3350.9L4592.18 3308.37L4507.87 3218.49L4504.45 3214.85L4501.44 3210.87L4443.15 3133.94C4411.91 3092.71 4385.66 3047.91 4364.95 3000.5L4342.62 2949.36C4329.75 2919.89 4319.07 2889.51 4310.67 2858.47L4294.28 2797.96C4285.08 2764 4278.63 2729.35 4275 2694.35L4265.23 2600.22C4260.51 2554.8 4260.56 2509 4265.37 2463.59L4273.71 2384.92C4278.34 2341.24 4287.33 2297.28 4301.89 2254.21C4314.05 2218.22 4332.11 2166.61 4346.43 2135.63C4366.34 2092.57 4406.47 2039.37 4425.19 2015.22C4439.84 1996.3 4456.08 1979.95 4472.65 1965.74L4493.54 1947.84ZM4697.05 3142.45L4711.27 3119.96L4791.18 2980.72L4854.11 2836.61L4887.78 2753.72C4901.22 2720.63 4910.81 2686.1 4916.35 2650.81L4928.61 2572.66C4933.41 2542.07 4935.15 2511.08 4933.79 2480.15L4932.13 2442.32C4929.72 2387.59 4917.67 2333.71 4896.51 2283.17L4885.15 2256.03C4868.29 2215.76 4845.85 2178.06 4818.48 2144.05L4780.51 2104.81L4766.85 2093.49C4759.22 2087.15 4750.84 2081.76 4741.92 2077.43L4739.6 2076.3C4724.28 2068.86 4707.47 2065 4690.44 2065C4663.57 2065 4637.59 2074.61 4617.19 2092.1L4596.3 2110C4587.83 2117.26 4580.92 2124.44 4575.37 2131.59C4554.74 2158.22 4528.31 2194.98 4518.89 2215.37C4509.58 2235.5 4494.65 2277.26 4481.89 2315.04C4472.28 2343.46 4465.97 2373.57 4462.65 2404.94L4454.32 2483.61C4450.9 2515.85 4450.87 2548.36 4454.21 2580.61L4463.99 2674.74C4466.56 2699.58 4471.14 2724.18 4477.67 2748.29L4494.06 2808.8C4500.03 2830.84 4507.61 2852.41 4516.75 2873.33L4539.07 2924.46C4553.77 2958.12 4572.41 2989.92 4594.59 3019.2L4649.86 3092.15L4697.05 3142.45ZM3681.5 3348.98C3715.49 3324.56 3746.02 3295.66 3772.28 3263.06L3794.97 3234.89L3827.07 3184.88C3845.91 3155.53 3861.39 3124.14 3873.21 3091.33L3894.51 3032.21C3908.99 2992.04 3917.86 2950.07 3920.88 2907.48L3924.93 2850.37L3919.97 2777.77C3917.44 2740.65 3910.46 2703.97 3899.18 2668.51L3892.52 2647.56C3878.81 2604.46 3858.89 2563.6 3833.39 2526.25L3826.84 2516.66L3804.97 2491.53C3795.01 2480.08 3782.81 2470.78 3769.13 2464.22L3764.72 2462.11C3738.86 2449.71 3708.93 2448.96 3682.48 2460.05C3675.12 2463.14 3668.15 2467.1 3661.73 2471.84L3648.59 2481.53C3630.35 2494.98 3614.14 2510.98 3600.44 2529.05L3593.42 2538.31C3575.02 2562.59 3560.22 2589.39 3549.46 2617.89L3542.67 2635.88L3527.98 2679.73C3517.91 2709.79 3510.94 2740.8 3507.18 2772.28L3497.16 2856.15V2907.87C3497.16 2953.91 3504 2999.69 3517.45 3043.72L3536.82 3107.16C3544.94 3133.72 3555.42 3159.51 3568.14 3184.21L3589.65 3225.97C3613.3 3271.9 3644.37 3313.44 3681.5 3348.98Z" fill="#0500F4"/>
</svg>
