<svg width="8588" height="5631" viewBox="0 0 8588 5631" fill="none" xmlns="http://www.w3.org/2000/svg">
<rect width="8588" height="5630.41" fill="#00E2D4"/>
<path fill-rule="evenodd" clip-rule="evenodd" d="M2428.44 1831C2356.21 1831 2286.37 1856.84 2231.54 1903.84L2210.65 1921.74C2194.07 1935.95 2177.84 1952.3 2163.19 1971.22C2144.47 1995.37 2104.34 2048.57 2084.43 2091.63C2070.11 2122.61 2052.05 2174.22 2039.89 2210.21C2025.33 2253.28 2016.34 2297.24 2011.71 2340.92L2003.37 2419.59C1998.56 2465 1998.51 2510.8 2003.23 2556.22L2013 2650.35C2016.63 2685.35 2023.08 2720 2032.28 2753.96L2048.67 2814.47C2057.07 2845.51 2067.75 2875.89 2080.62 2905.36L2102.95 2956.5C2123.66 3003.91 2149.91 3048.71 2181.15 3089.94L2239.44 3166.87L2242.45 3170.85L2245.87 3174.49L2330.18 3264.37L2303.3 3306.9C2277.45 3347.79 2244.85 3383.99 2206.89 3413.96L2205.33 3415.15C2169.06 3442.89 2128.9 3465.14 2086.14 3481.17L2071.83 3486.54C2045.3 3496.49 2017.91 3503.99 1990.01 3508.95L1957.77 3514.69C1913.58 3522.55 1868.48 3523.98 1823.88 3518.91L1801.51 3516.37C1718.81 3506.99 1640.14 3475.57 1573.72 3425.41L1573.64 3425.35C1604.45 3399.02 1632.78 3369.87 1658.25 3338.24L1684.15 3306.09L1687.35 3302.11L1690.11 3297.82L1724.96 3243.51C1751.5 3202.16 1773.31 3157.96 1789.96 3111.74L1811.26 3052.61C1831.65 2996.03 1844.15 2936.91 1848.4 2876.92L1852.92 2813.22L1853.39 2806.63L1852.94 2800.03L1847.53 2720.83C1843.96 2668.54 1834.13 2616.87 1818.24 2566.92L1811.58 2545.98C1792.28 2485.27 1764.22 2427.7 1728.29 2375.1L1718.61 2360.92L1715.48 2356.34L1711.83 2352.15L1686.32 2322.82C1659.36 2291.82 1626.33 2266.67 1589.28 2248.9L1584.87 2246.79C1510.06 2210.91 1423.48 2208.75 1346.98 2240.85C1325.68 2249.78 1305.53 2261.22 1286.94 2274.93L1273.81 2284.62C1240.93 2308.87 1211.7 2337.72 1187.02 2370.29L1180 2379.55C1150.58 2418.37 1126.9 2461.22 1109.7 2506.79L1102.28 2526.45L1101.65 2528.13L1101.08 2529.82L1085.82 2575.38C1071.63 2617.72 1061.82 2661.41 1056.52 2705.75L1045.83 2795.23L1045.16 2800.85V2806.5V2863.87C1045.16 2928.72 1054.79 2993.21 1073.74 3055.23L1093.11 3118.67C1104.55 3156.09 1119.31 3192.41 1137.22 3227.2L1158.73 3268.97C1186.24 3322.39 1220.89 3371.6 1261.58 3415.32C1205.7 3448.56 1143.34 3469.78 1078.49 3477.45L895 3499.16L917.318 3687.84L1100.81 3666.14C1209.79 3653.25 1313.79 3613.18 1403.25 3549.62L1413.38 3542.42L1459.22 3577.04C1552.78 3647.69 1663.59 3691.94 1780.08 3705.16L1802.45 3707.7C1865.28 3714.83 1928.8 3712.83 1991.05 3701.75L2023.29 3696.02C2062.59 3689.02 2101.17 3678.45 2138.55 3664.44L2152.86 3659.07C2213.08 3636.49 2269.66 3605.15 2320.75 3566.08L2322.87 3564.46L2265.16 3489L2323.92 3563.65C2379.07 3520.23 2426.4 3467.74 2463.9 3408.42L2464.46 3407.53L2699.87 3658.49L2838.45 3528.51L2569.34 3241.61L2610.96 3175.76L2612.05 3174.04L2613.05 3172.29L2696.55 3026.79L2699.14 3022.28L2701.22 3017.52L2766.72 2867.52L2767.21 2866.39L2767.67 2865.26L2801.81 2781.23C2820.74 2734.62 2834.25 2685.98 2842.05 2636.27L2854.31 2558.12C2861.08 2515.04 2863.52 2471.38 2861.61 2427.81L2859.94 2389.98C2856.56 2312.88 2839.57 2236.99 2809.77 2165.81L2798.41 2138.66C2774.27 2080.99 2741.99 2027.07 2702.57 1978.54L2701.39 1977.09L2698.8 1973.9L2695.94 1970.95L2651.44 1924.95L2647.81 1921.19L2643.79 1917.86L2626.11 1903.21C2606.75 1887.16 2585.53 1873.49 2562.9 1862.51L2560.58 1861.38C2519.4 1841.39 2474.22 1831 2428.44 1831ZM2449.27 3075.96L2435.05 3098.45L2387.86 3048.15L2332.59 2975.2C2310.41 2945.92 2291.77 2914.12 2277.07 2880.46L2254.75 2829.33C2245.61 2808.41 2238.03 2786.84 2232.06 2764.8L2215.67 2704.29C2209.14 2680.18 2204.56 2655.58 2201.99 2630.74L2192.21 2536.61C2188.87 2504.36 2188.9 2471.85 2192.32 2439.61L2200.65 2360.94C2203.97 2329.57 2210.28 2299.46 2219.89 2271.04C2232.65 2233.26 2247.58 2191.5 2256.89 2171.37C2266.31 2150.98 2292.74 2114.22 2313.37 2087.59C2318.92 2080.44 2325.83 2073.26 2334.3 2066L2355.19 2048.1C2375.59 2030.61 2401.57 2021 2428.44 2021C2445.47 2021 2462.28 2024.86 2477.6 2032.3L2479.92 2033.43C2488.84 2037.76 2497.22 2043.15 2504.85 2049.49L2518.51 2060.81L2556.48 2100.05C2583.85 2134.06 2606.29 2171.76 2623.15 2212.03L2634.51 2239.17C2655.67 2289.71 2667.72 2343.59 2670.13 2398.32L2671.79 2436.15C2673.15 2467.08 2671.41 2498.07 2666.61 2528.66L2654.35 2606.81C2648.81 2642.1 2639.22 2676.63 2625.78 2709.72L2592.11 2792.61L2529.18 2936.72L2449.27 3075.96ZM1510.28 3219.06C1484.02 3251.66 1453.49 3280.56 1419.5 3304.98C1382.37 3269.44 1351.3 3227.9 1327.65 3181.97L1306.14 3140.21C1293.42 3115.51 1282.94 3089.72 1274.82 3063.16L1255.45 2999.72C1242 2955.69 1235.16 2909.91 1235.16 2863.87V2812.15L1245.18 2728.28C1248.94 2696.8 1255.91 2665.79 1265.98 2635.73L1280.67 2591.88L1287.46 2573.89C1298.22 2545.39 1313.02 2518.59 1331.42 2494.31L1338.44 2485.05C1352.14 2466.98 1368.35 2450.98 1386.59 2437.53L1399.73 2427.84C1406.15 2423.1 1413.12 2419.14 1420.48 2416.05C1446.93 2404.96 1476.86 2405.71 1502.72 2418.11L1507.13 2420.22C1520.81 2426.78 1533.01 2436.08 1542.97 2447.53L1564.84 2472.66L1571.39 2482.25C1596.89 2519.6 1616.81 2560.46 1630.52 2603.56L1637.18 2624.51C1648.46 2659.97 1655.44 2696.65 1657.97 2733.77L1662.93 2806.37L1658.88 2863.48C1655.86 2906.07 1646.99 2948.04 1632.51 2988.21L1611.21 3047.33C1599.39 3080.14 1583.91 3111.53 1565.07 3140.88L1532.97 3190.89L1510.28 3219.06ZM7498.16 2445C7551.18 2445 7594.16 2413.88 7594.16 2375.5C7594.16 2337.12 7551.18 2306 7498.16 2306C7445.14 2306 7402.16 2337.12 7402.16 2375.5C7402.16 2413.88 7445.14 2445 7498.16 2445ZM5540.58 2673.58V2933H5665.24V2617.65C5665.24 2593.39 5660.64 2571.49 5651.43 2551.95C5642.44 2532.18 5629.42 2515.45 5612.35 2501.75C5595.27 2487.82 5574.39 2477.16 5549.68 2469.74C5525.2 2462.11 5497.35 2458.29 5466.12 2458.29C5441.19 2458.29 5417.5 2460.53 5395.04 2465.03C5372.57 2469.52 5351.35 2475.36 5331.36 2482.55C5311.37 2489.73 5292.5 2497.82 5274.76 2506.8C5257.01 2515.56 5240.28 2524.44 5224.56 2533.42V2470.08H5099.56V2933H5224.56V2642.58C5237.58 2631.57 5252.41 2621.02 5269.03 2610.91C5285.88 2600.8 5303.51 2591.93 5321.93 2584.29C5340.34 2576.66 5358.87 2570.59 5377.52 2566.1C5396.38 2561.38 5414.35 2559.03 5431.42 2559.03C5453.88 2559.03 5472.19 2561.83 5486.34 2567.45C5500.71 2572.84 5511.83 2580.59 5519.69 2590.7C5527.78 2600.58 5533.28 2612.59 5536.2 2626.75C5539.12 2640.67 5540.58 2656.28 5540.58 2673.58ZM6200.93 2887.52V2933H6325.93V2626.07C6325.93 2597.55 6319.19 2572.95 6305.71 2552.29C6292.46 2531.62 6273.93 2514.55 6250.12 2501.08C6226.54 2487.6 6198.35 2477.72 6165.56 2471.43C6132.77 2464.91 6096.94 2461.66 6058.08 2461.66C6038.32 2461.66 6017.65 2462.56 5996.09 2464.35C5974.53 2465.92 5953.19 2468.17 5932.08 2471.09C5910.96 2473.79 5890.64 2477.04 5871.1 2480.86C5851.55 2484.68 5833.92 2488.61 5818.2 2492.65V2603.83C5833.25 2598 5849.98 2592.38 5868.4 2586.99C5886.82 2581.6 5906.25 2576.88 5926.69 2572.84C5947.35 2568.8 5968.69 2565.65 5990.7 2563.41C6012.94 2560.93 6035.4 2559.7 6058.08 2559.7C6086.83 2559.7 6110.42 2561.5 6128.83 2565.09C6147.48 2568.68 6162.08 2573.4 6172.63 2579.24C6183.41 2584.86 6190.83 2591.48 6194.87 2599.12C6198.91 2606.53 6200.93 2614.05 6200.93 2621.69V2631.46C6127.71 2635.5 6064.26 2641.12 6010.58 2648.31C5957.12 2655.5 5912.87 2665.71 5877.83 2678.97C5842.79 2692.22 5816.74 2709.29 5799.67 2730.18C5782.6 2750.84 5774.06 2776.78 5774.06 2808C5774.06 2832.71 5779.45 2853.6 5790.24 2870.67C5801.24 2887.74 5815.73 2901.55 5833.7 2912.11C5851.67 2922.67 5872.22 2930.3 5895.35 2935.02C5918.71 2939.74 5942.86 2942.1 5967.79 2942.1C5989.13 2942.1 6010.24 2940.86 6031.13 2938.39C6052.24 2936.14 6072.68 2932.66 6092.45 2927.95C6112.21 2923.23 6131.19 2917.5 6149.39 2910.76C6167.8 2904.03 6184.99 2896.28 6200.93 2887.52ZM6078.3 2729.5C6111.99 2726.13 6152.87 2723.55 6200.93 2721.75V2782.74C6188.81 2791.27 6174.99 2799.36 6159.49 2806.99C6144.22 2814.41 6127.82 2820.92 6110.3 2826.54C6092.78 2831.93 6074.25 2836.19 6054.71 2839.34C6035.17 2842.48 6015.18 2844.05 5994.74 2844.05C5976.32 2844.05 5961.05 2842.93 5948.92 2840.69C5936.79 2838.44 5927.02 2835.41 5919.61 2831.59C5912.42 2827.77 5907.37 2823.39 5904.45 2818.45C5901.53 2813.28 5900.07 2808 5900.07 2802.61C5900.07 2798.12 5900.74 2793.18 5902.09 2787.79C5903.66 2782.4 5907.59 2777.01 5913.88 2771.62C5920.17 2766.23 5929.61 2760.95 5942.18 2755.78C5954.99 2750.62 5972.51 2745.79 5994.74 2741.3C6016.98 2736.8 6044.83 2732.87 6078.3 2729.5ZM6593.78 2520.95V2470.08H6468.78V2933H6593.78V2625.4C6605.23 2615.74 6617.25 2606.75 6629.83 2598.44C6642.63 2590.13 6655.54 2582.95 6668.57 2576.88C6681.82 2570.82 6694.85 2566.1 6707.65 2562.73C6720.68 2559.36 6733.03 2557.68 6744.71 2557.68C6754.37 2557.68 6763.47 2558.91 6772 2561.38C6780.76 2563.63 6788.4 2567.45 6794.91 2572.84C6801.65 2578.23 6806.93 2585.3 6810.75 2594.06C6814.57 2602.6 6816.48 2613.04 6816.48 2625.4V2933H6941.47V2647.3C6941.47 2642.13 6941.25 2636.96 6940.8 2631.8C6940.57 2626.63 6940.12 2622.14 6939.45 2618.32C6996.95 2577.89 7048.16 2557.68 7093.08 2557.68C7102.74 2557.68 7111.84 2559.03 7120.37 2561.72C7129.13 2564.42 7136.66 2568.57 7142.95 2574.19C7149.46 2579.8 7154.63 2587.1 7158.44 2596.09C7162.26 2605.07 7164.17 2615.74 7164.17 2628.09V2933H7289.17V2610.24C7289.17 2589.12 7285.01 2569.36 7276.7 2550.94C7268.61 2532.3 7256.82 2516.12 7241.32 2502.42C7225.83 2488.72 7206.85 2477.94 7184.39 2470.08C7162.15 2462.22 7136.88 2458.29 7108.58 2458.29C7090.84 2458.29 7073.77 2459.97 7057.37 2463.34C7040.97 2466.49 7024.91 2471.09 7009.19 2477.16C6993.47 2483.22 6977.86 2490.52 6962.36 2499.05C6946.86 2507.59 6931.14 2517.02 6915.19 2527.36C6909.58 2519.27 6902.95 2511.18 6895.31 2503.1C6887.68 2494.79 6878.36 2487.38 6867.35 2480.86C6856.57 2474.12 6843.77 2468.73 6828.94 2464.69C6814.12 2460.42 6796.82 2458.29 6777.06 2458.29C6756.84 2458.29 6737.98 2460.31 6720.46 2464.35C6703.16 2468.17 6686.88 2473.11 6671.6 2479.18C6656.55 2485.24 6642.52 2491.98 6629.49 2499.39C6616.69 2506.8 6604.78 2513.99 6593.78 2520.95ZM7432.36 2470.08V2933H7557.35V2470.08H7432.36ZM3408.59 3332.95L3720.91 3651H3856.35V3188.08H3732.03V3507.47L3419.37 3188.08H3283.6V3651H3408.59V3332.95ZM4403.5 3655.04C4441.46 3649.65 4479.42 3640.67 4517.37 3628.09V3519.94C4507.94 3525.56 4495.48 3531.17 4479.98 3536.79C4464.7 3542.4 4447.52 3547.57 4428.43 3552.28C4409.34 3556.78 4388.79 3560.48 4366.77 3563.4C4344.76 3566.1 4322.3 3567.45 4299.39 3567.45C4267.05 3567.45 4239.2 3565.09 4215.84 3560.37C4192.7 3555.65 4173.16 3549.03 4157.21 3540.49C4141.27 3531.96 4128.58 3521.62 4119.14 3509.5C4109.93 3497.37 4103.31 3484 4099.26 3469.4H4555.45V3438.41C4555.45 3395.96 4548.48 3358.45 4534.56 3325.88C4520.86 3293.31 4501.43 3265.91 4476.27 3243.67C4451.34 3221.43 4421.35 3204.7 4386.31 3193.47C4351.5 3182.02 4313.09 3176.29 4271.09 3176.29C4225.49 3176.29 4184.17 3182.58 4147.11 3195.16C4110.05 3207.51 4078.38 3224.8 4052.1 3247.04C4026.04 3269.05 4005.83 3295.11 3991.45 3325.2C3977.3 3355.08 3970.23 3387.53 3970.23 3422.57C3970.23 3460.31 3977.3 3494.11 3991.45 3523.98C4005.6 3553.86 4026.15 3579.12 4053.11 3599.79C4080.06 3620.45 4113.19 3636.29 4152.5 3647.29C4192.03 3658.08 4237.06 3663.47 4287.6 3663.47C4327.13 3663.47 4365.76 3660.66 4403.5 3655.04ZM4420.68 3342.39C4426.52 3354.52 4430 3366.31 4431.12 3377.76H4099.26C4101.51 3367.66 4106.45 3356.65 4114.09 3344.75C4121.73 3332.84 4132.39 3321.72 4146.1 3311.39C4160.02 3301.06 4177.2 3292.41 4197.64 3285.45C4218.08 3278.49 4242.34 3275 4270.42 3275C4300.29 3275 4325.22 3278.26 4345.21 3284.77C4365.2 3291.06 4381.37 3299.15 4393.73 3309.03C4406.08 3318.92 4415.06 3330.03 4420.68 3342.39ZM4921.67 3651V3288.82H5118.43V3188.08H4600.26V3288.82H4796.68V3651H4921.67ZM3543.02 2570.82V2933H3418.02V2570.82H3221.6V2470.08H3739.78V2570.82H3543.02ZM4249.19 2600.47C4240.43 2596.2 4228.86 2591.37 4214.49 2585.98C4200.11 2580.59 4183.83 2575.53 4165.64 2570.82C4147.44 2565.88 4127.68 2561.83 4106.34 2558.69C4085 2555.32 4063.1 2553.63 4040.64 2553.63C4022.67 2553.63 4007.29 2554.2 3994.48 2555.32C3981.91 2556.44 3971.24 2557.9 3962.48 2559.7C3953.94 2561.5 3947.09 2563.63 3941.93 2566.1C3936.98 2568.35 3933.17 2570.71 3930.47 2573.18C3927.77 2575.65 3925.98 2578.12 3925.08 2580.59C3924.41 2583.06 3924.07 2585.3 3924.07 2587.33C3924.07 2594.06 3927.44 2600.02 3934.18 2605.18C3940.91 2610.12 3950.12 2614.62 3961.8 2618.66C3973.48 2622.48 3987.07 2626.18 4002.57 2629.78C4018.07 2633.15 4034.46 2636.74 4051.76 2640.56C4069.28 2644.15 4087.25 2648.2 4105.67 2652.69C4124.31 2656.96 4142.28 2662.01 4159.57 2667.85C4177.09 2673.69 4193.6 2680.54 4209.1 2688.4C4224.6 2696.04 4238.19 2705.02 4249.86 2715.35C4261.54 2725.69 4270.75 2737.59 4277.49 2751.07C4284.23 2764.54 4287.6 2779.93 4287.6 2797.22C4287.6 2819.46 4283.67 2838.55 4275.81 2854.5C4267.95 2870.45 4257.39 2883.92 4244.14 2894.93C4231.11 2905.93 4215.95 2914.81 4198.65 2921.54C4181.36 2928.06 4163.17 2933.11 4144.07 2936.71C4125.21 2940.3 4106 2942.66 4086.46 2943.78C4067.15 2944.9 4048.73 2945.47 4031.21 2945.47C3985.39 2945.47 3942.94 2941.65 3903.85 2934.01C3865 2926.6 3830.63 2917.28 3800.76 2906.05V2795.54C3831.53 2812.61 3866.57 2825.97 3905.88 2835.63C3945.41 2845.29 3987.63 2850.12 4032.56 2850.12C4059.06 2850.12 4080.62 2848.77 4097.24 2846.08C4114.09 2843.16 4127.23 2839.56 4136.66 2835.29C4146.1 2830.8 4152.5 2825.97 4155.87 2820.81C4159.23 2815.64 4160.92 2810.7 4160.92 2805.98C4160.92 2798.57 4157.55 2792.17 4150.81 2786.78C4144.07 2781.16 4134.86 2776.33 4123.19 2772.29C4111.51 2768.02 4097.92 2764.21 4082.42 2760.84C4066.92 2757.24 4050.41 2753.76 4032.89 2750.39C4015.6 2746.8 3997.74 2742.98 3979.32 2738.94C3960.9 2734.89 3942.94 2730.18 3925.42 2724.79C3908.12 2719.17 3891.73 2712.77 3876.23 2705.58C3860.73 2698.17 3847.14 2689.52 3835.46 2679.64C3823.78 2669.53 3814.57 2657.97 3807.83 2644.94C3801.1 2631.69 3797.73 2616.41 3797.73 2599.12C3797.73 2578.68 3801.32 2561.05 3808.51 2546.22C3815.69 2531.4 3825.35 2518.82 3837.48 2508.49C3849.84 2497.93 3863.99 2489.4 3879.93 2482.88C3896.11 2476.37 3913.06 2471.32 3930.81 2467.72C3948.55 2464.13 3966.52 2461.66 3984.71 2460.31C4002.91 2458.96 4020.2 2458.29 4036.6 2458.29C4054.57 2458.29 4072.98 2459.19 4091.85 2460.98C4110.94 2462.78 4129.7 2465.36 4148.12 2468.73C4166.53 2471.88 4184.28 2475.58 4201.35 2479.85C4218.64 2484.12 4234.59 2488.61 4249.19 2493.33V2600.47ZM4529.17 2470.08V2730.85C4529.17 2748.15 4530.63 2763.87 4533.55 2778.02C4536.47 2791.95 4541.86 2803.96 4549.72 2814.07C4557.58 2823.95 4568.59 2831.7 4582.74 2837.32C4596.89 2842.71 4615.3 2845.4 4637.99 2845.4C4655.06 2845.4 4672.92 2843.04 4691.56 2838.33C4710.43 2833.61 4729.07 2827.32 4747.49 2819.46C4765.9 2811.6 4783.42 2802.61 4800.05 2792.51C4816.89 2782.17 4831.94 2771.51 4845.19 2760.5V2470.08H4969.85V2933H4845.19V2869.66C4829.47 2878.64 4812.74 2887.74 4794.99 2896.95C4777.25 2905.93 4758.38 2914.13 4738.39 2921.54C4718.4 2928.73 4697.17 2934.57 4674.71 2939.06C4652.25 2943.78 4628.56 2946.14 4603.62 2946.14C4572.4 2946.14 4544.44 2942.32 4519.73 2934.68C4495.03 2927.27 4474.14 2916.72 4457.07 2903.01C4440 2889.09 4426.86 2872.36 4417.65 2852.81C4408.66 2833.05 4404.17 2811.04 4404.17 2786.78V2470.08H4529.17Z" fill="#0500F4"/>
</svg>
