<svg width="8588" height="5631" viewBox="0 0 8588 5631" fill="none" xmlns="http://www.w3.org/2000/svg">
<g clip-path="url(#clip0_259_91)">
<rect width="8588" height="5630.41" fill="#00E2D4"/>
<path d="M1460 3799L1618.71 3897.74C1672.19 3931.01 1730.89 3955.02 1792.35 3968.76L1847.16 3981.01C1887.26 3989.98 1928.24 3994.5 1969.33 3994.5H2054.39C2085.08 3994.5 2115.72 3991.98 2145.99 3986.96L2169.06 3983.13C2252.92 3969.23 2332.51 3936.41 2401.81 3887.18L2537.33 3790.88C2579.24 3761.1 2616.86 3725.69 2649.11 3685.65L2675 3653.5L2709.86 3599.2C2732.55 3563.84 2751.19 3526.05 2765.43 3486.53L2786.73 3427.41C2804.16 3379.03 2814.84 3328.49 2818.48 3277.2L2823 3213.5L2817.59 3134.3C2814.54 3089.6 2806.14 3045.42 2792.55 3002.71L2785.89 2981.77C2769.39 2929.87 2745.4 2880.65 2714.68 2835.68L2705 2821.5L2679.49 2792.17C2661.03 2770.95 2638.41 2753.73 2613.05 2741.56L2608.64 2739.45C2558.3 2715.31 2500.05 2713.86 2448.57 2735.45V2735.45C2434.24 2741.46 2420.68 2749.16 2408.18 2758.38L2395.04 2768.07C2369.48 2786.93 2346.76 2809.35 2327.57 2834.67L2320.55 2843.93C2296.64 2875.48 2277.4 2910.31 2263.42 2947.34L2256 2967L2240.74 3012.55C2228.61 3048.76 2220.22 3086.1 2215.69 3124.02L2205 3213.5V3270.87C2205 3326.32 2213.23 3381.45 2229.43 3434.48L2248.81 3497.91C2258.58 3529.91 2271.2 3560.96 2286.52 3590.7L2308.03 3632.47C2346.52 3707.2 2401.33 3772.3 2468.41 3822.96L2581.31 3908.22C2661.3 3968.63 2756.04 4006.46 2855.64 4017.77L2878.01 4020.31C2931.72 4026.4 2986.03 4024.69 3039.25 4015.22L3071.49 4009.49C3105.09 4003.51 3138.08 3994.47 3170.03 3982.49L3184.34 3977.12C3235.83 3957.81 3284.2 3931.02 3327.88 3897.62L3330 3896V3896C3376.66 3859.27 3416.71 3814.85 3448.44 3764.66L3595.5 3532L3679 3386.5L3744.5 3236.5L3778.63 3152.48C3794.82 3112.63 3806.37 3071.04 3813.04 3028.54L3825.31 2950.39C3831.09 2913.56 3833.18 2876.23 3831.54 2838.98L3829.88 2801.15C3826.98 2735.24 3812.46 2670.35 3786.98 2609.49L3775.62 2582.34C3754.98 2533.04 3727.39 2486.94 3693.68 2445.45L3692.5 2444L3648 2398L3630.32 2383.35C3616.82 2372.16 3602.03 2362.63 3586.25 2354.97L3583.93 2353.84C3555.68 2340.13 3524.68 2333 3493.28 2333V2333C3443.73 2333 3395.82 2350.72 3358.2 2382.97L3337.32 2400.87C3324.8 2411.6 3313.22 2423.37 3303.12 2436.41C3283.45 2461.8 3250.17 2506.78 3235.5 2538.5C3223.69 2564.05 3207.19 2610.74 3194.73 2647.62C3182.65 2683.37 3175 2720.41 3171.02 2757.93L3162.69 2836.6C3158.57 2875.43 3158.53 2914.58 3162.56 2953.41L3172.33 3047.55C3175.44 3077.47 3180.95 3107.09 3188.81 3136.12L3205.2 3196.64C3212.39 3223.18 3221.52 3249.15 3232.53 3274.35L3254.85 3325.48C3272.56 3366.02 3295 3404.31 3321.71 3439.57L3380 3516.5L3528.09 3672.61C3546.34 3691.85 3565.93 3709.76 3586.72 3726.22L3704.4 3819.41C3736.37 3844.73 3771.01 3866.48 3807.71 3884.27L3908.23 3933.01C3947.94 3952.27 3989.78 3966.77 4032.9 3976.2L4128 3997L4221 4008.5" stroke="#0500F4" stroke-width="190"/>
<path d="M-818 3964L-595.75 3981.25L-376.5 3986.5L-167.5 3980.5L-72.424 3967.07C16.2318 3954.54 100.592 3920.93 173.58 3869.07L303.33 3776.88C345.244 3747.1 382.856 3711.69 415.108 3671.65L441 3639.5L475.856 3585.2C498.547 3549.84 517.188 3512.05 531.427 3472.53L552.73 3413.41C570.16 3365.03 580.845 3314.49 584.482 3263.2L589 3199.5L583.594 3120.3C580.542 3075.6 572.136 3031.42 558.554 2988.71L551.893 2967.77C535.386 2915.87 511.396 2866.65 480.681 2821.68L471 2807.5L445.49 2778.17C427.025 2756.95 404.414 2739.73 379.047 2727.56L374.636 2725.45C324.301 2701.31 266.046 2699.86 214.57 2721.45V2721.45C200.241 2727.46 186.681 2735.16 174.176 2744.38L161.04 2754.07C135.479 2772.93 112.758 2795.35 93.5735 2820.67L86.5532 2829.93C62.6424 2861.48 43.4006 2896.31 29.4203 2933.34L22 2953L6.73962 2998.55C-5.38834 3034.76 -13.7821 3072.1 -18.3107 3110.02L-29 3199.5V3256.87C-29 3312.32 -20.7661 3367.45 -4.56773 3420.48L14.8101 3483.91C24.5837 3515.91 37.2046 3546.96 52.5213 3576.7L74.0324 3618.47C112.517 3693.2 167.33 3758.3 234.406 3808.96L347.312 3894.22C427.303 3954.63 522.041 3992.46 621.639 4003.77L644.006 4006.31C697.719 4012.4 752.032 4010.69 805.254 4001.22L814.106 3999.65C863.149 3990.92 910.809 3975.69 955.824 3954.36L976.739 3944.45C1006.85 3930.18 1035.63 3913.25 1062.74 3893.86L1090.5 3874L1094.33 3870.96C1140.16 3834.55 1180 3791.17 1212.39 3742.41L1361.5 3518L1445 3372.5L1510.5 3222.5L1544.63 3138.48C1560.82 3098.63 1572.37 3057.04 1579.04 3014.54L1591.31 2936.39C1597.09 2899.56 1599.18 2862.23 1597.54 2824.98L1595.88 2787.15C1592.98 2721.24 1578.46 2656.35 1552.98 2595.49L1541.62 2568.34C1520.98 2519.04 1493.39 2472.94 1459.68 2431.45L1458.5 2430L1414 2384L1396.32 2369.35C1382.82 2358.16 1368.03 2348.63 1352.25 2340.97L1349.93 2339.84C1321.68 2326.13 1290.68 2319 1259.28 2319V2319C1209.73 2319 1161.82 2336.72 1124.2 2368.97L1103.32 2386.87C1090.8 2397.6 1079.22 2409.37 1069.12 2422.41C1049.45 2447.8 1016.17 2492.78 1001.5 2524.5C989.686 2550.05 973.191 2596.74 960.727 2633.62C948.646 2669.37 940.997 2706.41 937.022 2743.93L928.687 2822.6C924.574 2861.43 924.532 2900.58 928.563 2939.41L938.334 3033.55C941.44 3063.47 946.951 3093.09 954.815 3122.12L971.204 3182.64C978.392 3209.18 987.524 3235.15 998.526 3260.35L1020.85 3311.48C1038.56 3352.02 1061 3390.31 1087.71 3425.57L1146 3502.5L1294.09 3658.61C1312.34 3677.85 1331.93 3695.76 1352.72 3712.22L1470.4 3805.41C1502.37 3830.73 1537.01 3852.48 1573.71 3870.27L1674.23 3919.01C1713.94 3938.27 1755.78 3952.77 1798.9 3962.2L1894 3983L1987 3994.5" stroke="#0500F4" stroke-width="190"/>
<path d="M6299.5 4007L6429.03 4006.66C6469.23 4006.55 6509.29 4002.12 6548.54 3993.44L6552.66 3992.52C6625.81 3976.34 6694.97 3945.64 6756.04 3902.25L6904.33 3796.88C6946.24 3767.1 6983.86 3731.69 7016.11 3691.65L7042 3659.5L7076.86 3605.2C7099.55 3569.84 7118.19 3532.05 7132.43 3492.53L7153.73 3433.41C7171.16 3385.03 7181.84 3334.49 7185.48 3283.2L7190 3219.5L7184.59 3140.3C7181.54 3095.6 7173.14 3051.42 7159.55 3008.71L7152.89 2987.77C7136.39 2935.87 7112.4 2886.65 7081.68 2841.68L7072 2827.5L7046.49 2798.17C7028.03 2776.95 7005.41 2759.73 6980.05 2747.56L6975.64 2745.45C6925.3 2721.31 6867.05 2719.86 6815.57 2741.45V2741.45C6801.24 2747.46 6787.68 2755.16 6775.18 2764.38L6762.04 2774.07C6736.48 2792.93 6713.76 2815.35 6694.57 2840.67L6687.55 2849.93C6663.64 2881.48 6644.4 2916.31 6630.42 2953.34L6623 2973L6607.74 3018.55C6595.61 3054.76 6587.22 3092.1 6582.69 3130.02L6572 3219.5V3276.87C6572 3332.32 6580.23 3387.45 6596.43 3440.48L6615.81 3503.91C6625.58 3535.91 6638.2 3566.96 6653.52 3596.7L6675.03 3638.47C6713.52 3713.2 6768.33 3778.3 6835.41 3828.96L6948.31 3914.22C7028.3 3974.63 7123.04 4012.46 7222.64 4023.77L7245.01 4026.31C7298.72 4032.4 7353.03 4030.69 7406.25 4021.22L7438.49 4015.49C7472.09 4009.51 7505.08 4000.47 7537.03 3988.49L7551.34 3983.12C7602.83 3963.81 7651.2 3937.02 7694.88 3903.62L7697 3902V3902C7743.66 3865.27 7783.71 3820.85 7815.44 3770.66L7962.5 3538L8046 3392.5L8111.5 3242.5L8145.63 3158.48C8161.82 3118.63 8173.37 3077.04 8180.04 3034.54L8192.31 2956.39C8198.09 2919.56 8200.18 2882.23 8198.54 2844.98L8196.88 2807.15C8193.98 2741.24 8179.46 2676.35 8153.98 2615.49L8142.62 2588.34C8121.98 2539.04 8094.39 2492.94 8060.68 2451.45L8059.5 2450L8015 2404L7997.32 2389.35C7983.82 2378.16 7969.03 2368.63 7953.25 2360.97L7950.93 2359.84C7922.68 2346.13 7891.68 2339 7860.28 2339V2339C7810.73 2339 7762.82 2356.72 7725.2 2388.97L7704.32 2406.87C7691.8 2417.6 7680.22 2429.37 7670.12 2442.41C7650.45 2467.8 7617.17 2512.78 7602.5 2544.5C7590.69 2570.05 7574.19 2616.74 7561.73 2653.62C7549.65 2689.37 7542 2726.41 7538.02 2763.93L7529.69 2842.6C7525.57 2881.43 7525.53 2920.58 7529.56 2959.41L7539.33 3053.55C7542.44 3083.47 7547.95 3113.09 7555.81 3142.12L7572.2 3202.64C7579.39 3229.18 7588.52 3255.15 7599.53 3280.35L7621.85 3331.48C7639.56 3372.02 7662 3410.31 7688.71 3445.57L7706.9 3469.58C7733.54 3504.74 7764.24 3536.62 7798.36 3564.58L8142.5 3846.5L8251.84 3915.51C8306.86 3950.24 8367.51 3975.11 8431.07 3989.01L8495 4003L8615 4020" stroke="#0500F4" stroke-width="190"/>
<path d="M4142 4000.5L4295 4007.5L4344.58 4002.9C4442.78 3993.8 4536.84 3958.92 4617.23 3901.8L4735.33 3817.88C4777.24 3788.1 4814.86 3752.69 4847.11 3712.65L4873 3680.5L4907.86 3626.2C4930.55 3590.84 4949.19 3553.05 4963.43 3513.53L4984.73 3454.41C5002.16 3406.03 5012.84 3355.49 5016.48 3304.2L5021 3240.5L5015.59 3161.3C5012.54 3116.6 5004.14 3072.42 4990.55 3029.71L4983.89 3008.77C4967.39 2956.87 4943.4 2907.65 4912.68 2862.68L4903 2848.5L4877.49 2819.17C4859.03 2797.95 4836.41 2780.73 4811.05 2768.56L4806.64 2766.45C4756.3 2742.31 4698.05 2740.86 4646.57 2762.45V2762.45C4632.24 2768.46 4618.68 2776.16 4606.18 2785.38L4593.04 2795.07C4567.48 2813.93 4544.76 2836.35 4525.57 2861.67L4518.55 2870.93C4494.64 2902.48 4475.4 2937.31 4461.42 2974.34L4454 2994L4438.74 3039.55C4426.61 3075.76 4418.22 3113.1 4413.69 3151.02L4403 3240.5V3297.87C4403 3353.32 4411.23 3408.45 4427.43 3461.48L4446.81 3524.91C4456.58 3556.91 4469.2 3587.96 4484.52 3617.7L4506.03 3659.47C4544.52 3734.2 4599.33 3799.3 4666.41 3849.96L4779.31 3935.22C4859.3 3995.63 4954.04 4033.46 5053.64 4044.77L5076.01 4047.31C5129.72 4053.4 5184.03 4051.69 5237.25 4042.22L5269.49 4036.49C5303.09 4030.51 5336.08 4021.47 5368.03 4009.49L5382.34 4004.12C5433.83 3984.81 5482.2 3958.02 5525.88 3924.62L5528 3923V3923C5574.66 3886.27 5614.71 3841.85 5646.44 3791.66L5793.5 3559L5877 3413.5L5942.5 3263.5L5976.63 3179.48C5992.82 3139.63 6004.37 3098.04 6011.04 3055.54L6023.31 2977.39C6029.09 2940.56 6031.18 2903.23 6029.54 2865.98L6027.88 2828.15C6024.98 2762.24 6010.46 2697.35 5984.98 2636.49L5973.62 2609.34C5952.98 2560.04 5925.39 2513.94 5891.68 2472.45L5890.5 2471L5846 2425L5828.32 2410.35C5814.82 2399.16 5800.03 2389.63 5784.25 2381.97L5781.93 2380.84C5753.68 2367.13 5722.68 2360 5691.28 2360V2360C5641.73 2360 5593.82 2377.72 5556.2 2409.97L5535.32 2427.87C5522.8 2438.6 5511.22 2450.37 5501.12 2463.41C5481.45 2488.8 5448.17 2533.78 5433.5 2565.5C5421.69 2591.05 5405.19 2637.74 5392.73 2674.62C5380.65 2710.37 5373 2747.41 5369.02 2784.93L5360.69 2863.6C5356.57 2902.43 5356.53 2941.58 5360.56 2980.41L5370.33 3074.55C5373.44 3104.47 5378.95 3134.09 5386.81 3163.12L5403.2 3223.64C5410.39 3250.18 5419.52 3276.15 5430.53 3301.35L5452.85 3352.48C5470.56 3393.02 5493 3431.31 5519.71 3466.57L5578 3543.5L5782.25 3772.82C5811.65 3805.82 5844.85 3835.23 5881.16 3860.43L5892.53 3868.32C5925.74 3891.37 5961.36 3910.76 5998.75 3926.14L6092 3964.5L6166.98 3984.87C6197.94 3993.27 6229.56 3999.01 6261.49 4002L6325.5 4008" stroke="#0500F4" stroke-width="190"/>
</g>
<defs>
<clipPath id="clip0_259_91">
<rect width="8588" height="5630.41" fill="white"/>
</clipPath>
</defs>
</svg>
