<svg width="2986" height="1818" viewBox="0 0 2986 1818" fill="none" xmlns="http://www.w3.org/2000/svg">
<rect width="2986" height="1818" fill="#FFFCEB"/>
<path d="M1003.02 763.172C994.389 812.499 989.616 866.74 989.616 923.679C989.616 981.059 994.466 1035.7 1003.22 1085.33C953.591 1076.58 898.952 1071.72 841.573 1071.72C784.309 1071.72 729.775 1076.55 680.222 1085.28V1083.64C688.791 1034.46 693.53 980.408 693.53 923.683C693.53 866.957 688.791 812.908 680.222 763.729V763.193C729.775 771.917 784.309 776.747 841.573 776.747C898.874 776.747 953.441 771.906 1003.02 763.172ZM1418.46 848.651C1435.53 848.651 1450.6 851.852 1463.66 858.252C1476.99 864.652 1487.26 873.585 1494.46 885.052C1501.93 896.252 1505.66 909.319 1505.66 924.252V1069.85H1462.46V1044.73C1459.32 1048.3 1455.86 1051.61 1452.06 1054.65C1444.33 1061.05 1435.39 1065.98 1425.26 1069.45C1415.39 1072.92 1404.33 1074.65 1392.06 1074.65C1377.39 1074.65 1364.46 1072.12 1353.26 1067.05C1342.33 1061.72 1333.79 1054.52 1327.66 1045.45C1321.53 1036.12 1318.46 1025.18 1318.46 1012.65C1318.46 1000.92 1320.99 990.385 1326.06 981.052C1331.39 971.718 1339.53 963.851 1350.46 957.451C1361.39 951.051 1375.13 946.518 1391.66 943.852L1460.46 932.506V924.252C1460.46 913.585 1456.46 904.919 1448.46 898.252C1440.73 891.319 1430.33 887.852 1417.26 887.852C1405.26 887.852 1394.73 891.051 1385.66 897.451C1376.86 903.584 1370.33 911.585 1366.06 921.451L1328.46 902.651C1332.46 891.985 1338.99 882.651 1348.06 874.651C1357.13 866.385 1367.66 859.984 1379.66 855.451C1391.93 850.918 1404.86 848.651 1418.46 848.651ZM1609.31 848.651C1629.04 848.651 1646.64 853.585 1662.11 863.451C1677.58 873.051 1688.51 886.518 1694.91 903.852L1660.11 920.252C1655.84 909.852 1649.04 901.585 1639.71 895.451C1630.64 889.318 1620.38 886.252 1608.91 886.252C1599.04 886.252 1591.18 888.651 1585.31 893.451C1579.44 897.984 1576.51 903.985 1576.51 911.451C1576.51 916.518 1577.84 920.785 1580.51 924.252C1583.18 927.452 1586.65 930.119 1590.91 932.252C1595.18 934.118 1599.58 935.718 1604.11 937.052L1639.31 947.451C1657.18 952.518 1670.91 960.518 1680.51 971.451C1690.11 982.118 1694.91 994.918 1694.91 1009.85C1694.91 1022.65 1691.44 1033.98 1684.51 1043.85C1677.84 1053.45 1668.51 1061.05 1656.51 1066.65C1644.51 1071.98 1630.51 1074.65 1614.51 1074.65C1592.38 1074.65 1572.91 1069.19 1556.11 1058.25C1539.58 1047.32 1527.98 1032.65 1521.31 1014.25L1556.11 997.852C1561.98 1010.12 1569.98 1019.85 1580.11 1027.05C1590.51 1034.25 1601.98 1037.85 1614.51 1037.85C1625.18 1037.85 1633.84 1035.45 1640.51 1030.65C1647.18 1025.85 1650.51 1019.32 1650.51 1011.05C1650.51 1005.72 1649.04 1001.45 1646.11 998.252C1643.18 994.785 1639.44 991.985 1634.91 989.852C1630.65 987.718 1626.24 986.118 1621.71 985.052L1587.71 975.451C1569.04 970.118 1555.04 962.118 1545.71 951.451C1536.64 940.518 1532.11 927.851 1532.11 913.451C1532.11 900.385 1535.44 889.051 1542.11 879.451C1548.78 869.585 1557.98 861.985 1569.71 856.651C1581.44 851.318 1594.64 848.651 1609.31 848.651ZM1780.95 845.388H1833.95V885.788H1780.95V1029.46H1833.95V1069.86H1793.35C1773.62 1069.86 1759.08 1064.66 1749.75 1054.26C1740.42 1043.86 1735.75 1030.4 1735.75 1013.86V885.788H1705.75V845.388H1716.55C1724.82 845.388 1730.68 843.788 1734.15 840.588C1737.62 837.121 1739.35 831.121 1739.35 822.588V795.344H1780.95V845.388ZM2252.78 845.388H2305.78V885.788H2252.78V1029.46H2305.78V1069.86H2265.18C2245.44 1069.86 2230.91 1064.66 2221.58 1054.26C2212.24 1043.86 2207.58 1030.4 2207.58 1013.86V885.788H2177.58V845.388H2188.38C2196.64 845.388 2202.51 843.788 2205.98 840.588C2209.44 837.121 2211.18 831.121 2211.18 822.588V795.344H2252.78V845.388ZM1221.67 1002.26V1018.97H1227.93V1002.26L1305.82 771.852H1356.62L1251.02 1069.85H1198.22L1092.62 771.852H1143.42L1221.67 1002.26ZM1991.31 771.852C2009.97 771.852 2026.11 775.185 2039.71 781.852C2053.31 788.252 2063.71 797.585 2070.91 809.852C2078.11 821.852 2081.71 836.118 2081.71 852.651C2081.71 867.051 2077.97 880.252 2070.51 892.252C2066.57 898.667 2061.4 904.361 2054.99 909.341C2060.53 912.744 2065.44 916.514 2069.71 920.651C2078.24 928.651 2084.37 937.718 2088.11 947.852C2092.11 957.985 2094.11 968.652 2094.11 979.852C2094.11 1007.85 2084.91 1029.85 2066.51 1045.85C2048.38 1061.85 2023.44 1069.85 1991.71 1069.85H1865.71V771.852H1991.31ZM2159.46 1069.85H2114.26V845.646H2159.46V1069.85ZM1400.46 978.651C1388.46 980.785 1379.66 984.652 1374.06 990.252C1368.46 995.585 1365.66 1002.52 1365.66 1011.05C1365.66 1019.32 1368.73 1026.12 1374.86 1031.45C1381.26 1036.52 1389.39 1039.05 1399.26 1039.05C1411.53 1039.05 1422.19 1036.39 1431.26 1031.05C1440.59 1025.72 1447.79 1018.65 1452.86 1009.85C1457.93 1000.78 1460.46 990.785 1460.46 979.852V968.169L1400.46 978.651ZM1912.91 1027.85H1995.31C2011.04 1027.85 2023.57 1023.58 2032.91 1015.05C2042.24 1006.25 2046.91 994.652 2046.91 980.252C2046.91 965.585 2042.24 953.985 2032.91 945.451C2023.57 936.651 2011.04 932.252 1995.31 932.252H1912.91V1027.85ZM1912.91 890.651H1992.51C2005.31 890.651 2015.57 887.052 2023.31 879.852C2031.04 872.385 2034.91 862.651 2034.91 850.651C2034.91 838.651 2031.04 829.318 2023.31 822.651C2015.57 815.985 2005.31 812.651 1992.51 812.651H1912.91V890.651ZM2159.46 823.852H2114.26V771.852H2159.46V823.852Z" fill="#FFCF10"/>
</svg>
