<svg width="1531" height="970" viewBox="0 0 1531 970" fill="none" xmlns="http://www.w3.org/2000/svg">
<g clip-path="url(#clip0_5006_210)">
<rect width="1531" height="970" fill="#DCEEFF"/>
<path d="M291.2 506.6H248V377H291.2V506.6ZM334.4 506.6V377H377.6V506.6H334.4ZM420.8 506.6V377H464V506.6H420.8ZM334.4 593H291.2V506.6H334.4V593ZM420.8 593H377.6V506.6H420.8V593Z" fill="#76C2FF"/>
<path d="M550.4 593H507.2V377H550.4V593Z" fill="#76C2FF"/>
<path d="M636.8 593H593.6V377H723.2V420.2H636.8V463.4H723.2V506.6H636.8V593ZM723.2 463.4V420.2H766.4V463.4H723.2Z" fill="#76C2FF"/>
<path d="M852.8 593H809.6V377H852.8V593Z" fill="#76C2FF"/>
<path d="M939.2 420.2V377H1025.6V420.2H939.2ZM939.2 593H896V420.2H939.2V463.4H1025.6V420.2H1068.8V593H1025.6V506.6H939.2V593Z" fill="#76C2FF"/>
<path d="M1155.2 593H1112V377H1155.2V505.291V506.6V593Z" fill="#76C2FF"/>
<path d="M1284.8 593H1241.6V506.6V505.291V377H1284.8V593Z" fill="#76C2FF"/>
<rect x="1120.23" y="398.887" width="41.282" height="228.915" transform="rotate(-32.0109 1120.23 398.887)" fill="#76C2FF"/>
<path d="M766.4 463.399C766.4 469.072 765.283 474.69 763.112 479.931C760.941 485.172 757.759 489.935 753.747 493.946C749.736 497.958 744.973 501.14 739.732 503.311C734.491 505.482 728.873 506.599 723.2 506.599V463.399H766.4Z" fill="#76C2FF"/>
<path d="M766.4 420.198C766.4 414.525 765.283 408.908 763.112 403.667C760.941 398.425 757.759 393.663 753.747 389.651C749.736 385.64 744.973 382.458 739.732 380.287C734.491 378.116 728.873 376.998 723.2 376.998V420.198H766.4Z" fill="#76C2FF"/>
</g>
<defs>
<clipPath id="clip0_5006_210">
<rect width="1531" height="970" fill="white"/>
</clipPath>
</defs>
</svg>
