<svg width="1531" height="970" viewBox="0 0 1531 970" fill="none" xmlns="http://www.w3.org/2000/svg">
<g clip-path="url(#clip0_5206_233)">
<rect width="1531" height="970" fill="#DCEEFF"/>
<path d="M399.292 499.6H366V400H399.292V499.6ZM432.583 499.6V400H465.875V499.6H432.583ZM499.167 499.6V400H532.458V499.6H499.167ZM432.583 566H399.292V499.6H432.583V566ZM499.167 566H465.875V499.6H499.167V566Z" fill="#004175"/>
<path d="M599.042 566H565.75V400H599.042V566Z" fill="#004175"/>
<path d="M665.625 566H632.333V400H732.208V433.2H665.625V466.4H732.208V499.6H665.625V566ZM732.208 466.4V433.2H765.5V466.4H732.208Z" fill="#004175"/>
<path d="M832.083 566H798.792V400H832.083V566Z" fill="#004175"/>
<path d="M898.667 433.2V400H965.25V433.2H898.667ZM898.667 566H865.375V433.2H898.667V466.4H965.25V433.2H998.542V566H965.25V499.6H898.667V566Z" fill="#004175"/>
<path d="M1065.13 566H1031.83V400H1065.13V498.594V499.6V566Z" fill="#004175"/>
<path d="M1165 566H1131.71V499.6V498.594V400H1165V566Z" fill="#004175"/>
<rect x="1038.33" y="417.156" width="31.8394" height="176.554" transform="rotate(-32.0109 1038.33 417.156)" fill="#004175"/>
<path d="M765 466.5C765 470.899 764.133 475.255 762.45 479.32C760.766 483.384 758.299 487.077 755.188 490.188C752.077 493.299 748.384 495.766 744.32 497.45C740.255 499.133 735.899 500 731.5 500L731.5 466.5H765Z" fill="#004175"/>
<path d="M765 433C765 428.666 764.133 424.375 762.45 420.371C760.766 416.368 758.299 412.73 755.188 409.665C752.077 406.601 748.384 404.17 744.32 402.512C740.255 400.854 735.899 400 731.5 400L731.5 433H765Z" fill="#004175"/>
</g>
<defs>
<clipPath id="clip0_5206_233">
<rect width="1531" height="970" fill="white"/>
</clipPath>
</defs>
</svg>
