<svg width="2824" height="847" viewBox="0 0 2824 847" fill="none" xmlns="http://www.w3.org/2000/svg">
<rect width="2824" height="847" fill="#0047FF"/>
<rect x="245" y="148" width="63" height="25" fill="#FAF506" stroke="black" stroke-width="6"/>
<rect x="303" y="112" width="58" height="61" fill="#FAF506" stroke="black" stroke-width="6"/>
<rect x="335" y="80" width="225" height="63" fill="#FAF506" stroke="black" stroke-width="6"/>
<rect x="392" y="129" width="240" height="63" fill="#FAF506" stroke="black" stroke-width="6"/>
<rect x="393" y="100" width="240" height="62" fill="#FAF506" stroke="black" stroke-width="6"/>
<rect x="652" y="129" width="117" height="63" fill="#FAF506" stroke="black" stroke-width="6"/>
<rect x="689" y="159" width="103" height="57" fill="#FAF506" stroke="black" stroke-width="6"/>
<rect x="845" y="32" width="255" height="58" fill="#FAF506" stroke="black" stroke-width="6"/>
<rect x="1440" y="116" width="159" height="61" fill="#FAF506" stroke="black" stroke-width="6"/>
<rect x="1367" y="334" width="110" height="62" fill="#FAF506" stroke="black" stroke-width="6"/>
<rect x="1328" y="376" width="372" height="79" fill="#FAF506" stroke="black" stroke-width="6"/>
<rect x="1291" y="452" width="406" height="99" fill="#FAF506" stroke="black" stroke-width="6"/>
<rect x="1459" y="545" width="187" height="138" fill="#FAF506" stroke="black" stroke-width="6"/>
<rect x="1459" y="545" width="200" height="138" fill="#FAF506" stroke="black" stroke-width="6"/>
<rect x="1483" y="649" width="133" height="94" fill="#FAF506" stroke="black" stroke-width="6"/>
<rect x="1518" y="729" width="98" height="70" fill="#FAF506" stroke="black" stroke-width="6"/>
<rect x="1695" y="618" width="43" height="70" fill="#FAF506" stroke="black" stroke-width="6"/>
<rect x="2078" y="645" width="162" height="103" fill="#FAF506" stroke="black" stroke-width="6"/>
<rect x="1376" y="172" width="62" height="62" fill="#FAF506" stroke="black" stroke-width="6"/>
<rect x="1441" y="206" width="138" height="63" fill="#FAF506" stroke="black" stroke-width="6"/>
<rect x="1545" y="190" width="139" height="62" fill="#FAF506" stroke="black" stroke-width="6"/>
<rect x="1656" y="276" width="139" height="62" fill="#FAF506" stroke="black" stroke-width="6"/>
<rect x="1655" y="75" width="476" height="63" fill="#FAF506" stroke="black" stroke-width="6"/>
<rect x="1624" y="155" width="498" height="131" fill="#FAF506" stroke="black" stroke-width="6"/>
<rect x="1747" y="206" width="347" height="132" fill="#FAF506" stroke="black" stroke-width="6"/>
<rect x="1747" y="318" width="224" height="130" fill="#FAF506" stroke="black" stroke-width="6"/>
<rect x="1826" y="265" width="223" height="131" fill="#FAF506" stroke="black" stroke-width="6"/>
<rect x="2149" y="414" width="77" height="76" fill="#FAF506" stroke="black" stroke-width="6"/>
<rect x="2006" y="552" width="333" height="76" fill="#FAF506" stroke="black" stroke-width="6"/>
<rect x="1935" y="512" width="159" height="53" fill="#FAF506" stroke="black" stroke-width="6"/>
<rect x="2223" y="645" width="75" height="74" fill="#FAF506" stroke="black" stroke-width="6"/>
<rect x="2128" y="704" width="77" height="73" fill="#FAF506" stroke="black" stroke-width="6"/>
<rect x="2304" y="776" width="77" height="44" fill="#FAF506" stroke="black" stroke-width="6"/>
<rect x="1759" y="27" width="446" height="187" fill="#FAF506" stroke="black" stroke-width="6"/>
<rect x="1964" y="108" width="294" height="126" fill="#FAF506" stroke="black" stroke-width="6"/>
<rect x="2113" y="72" width="294" height="105" fill="#FAF506" stroke="black" stroke-width="6"/>
<rect x="2236" y="106" width="294" height="43" fill="#FAF506" stroke="black" stroke-width="6"/>
<rect x="2149" y="258" width="56" height="108" fill="#FAF506" stroke="black" stroke-width="6"/>
<rect x="2064" y="386" width="25" height="36" fill="#FAF506" stroke="black" stroke-width="6"/>
<rect x="2102" y="365" width="25" height="36" fill="#FAF506" stroke="black" stroke-width="6"/>
<rect x="2241" y="454" width="26" height="28" fill="#FAF506" stroke="black" stroke-width="6"/>
<rect x="2377" y="414" width="15" height="40" transform="rotate(90 2377 414)" fill="#FAF506" stroke="black" stroke-width="6"/>
<rect x="2273" y="389" width="15" height="62" transform="rotate(90 2273 389)" fill="#FAF506" stroke="black" stroke-width="6"/>
<rect x="2100" y="434" width="31" height="72" fill="#FAF506" stroke="black" stroke-width="6"/>
<rect x="2319" y="414" width="31" height="78" transform="rotate(90 2319 414)" fill="#FAF506" stroke="black" stroke-width="6"/>
<rect x="509" y="328" width="43" height="98" fill="#FAF506" stroke="black" stroke-width="6"/>
<rect x="-3" y="3" width="14" height="38" transform="matrix(-1 0 0 1 640 299)" fill="#FAF506" stroke="black" stroke-width="6"/>
<rect x="-3" y="-3" width="19" height="60" transform="matrix(1.26422e-08 -1 -1 -1.12482e-08 1289 77)" fill="#FAF506" stroke="black" stroke-width="6"/>
<rect x="-3" y="-3" width="15" height="50" transform="matrix(1.26422e-08 -1 -1 -1.12482e-08 1104 146)" fill="#FAF506" stroke="black" stroke-width="6"/>
<rect x="-3" y="3" width="13" height="39" transform="matrix(-1 0 0 1 549 436)" fill="#FAF506" stroke="black" stroke-width="6"/>
<rect x="-3" y="3" width="15" height="17" transform="matrix(-1 0 0 1 613 347)" fill="#FAF506" stroke="black" stroke-width="6"/>
<rect x="-3" y="3" width="14" height="39" transform="matrix(-1 0 0 1 568 384)" fill="#FAF506" stroke="black" stroke-width="6"/>
<rect x="649" y="350" width="43" height="99" fill="#FAF506" stroke="black" stroke-width="6"/>
<rect x="1340" y="235" width="96" height="61" fill="#FAF506" stroke="black" stroke-width="6"/>
<rect x="870" y="92" width="147" height="52" fill="#FAF506" stroke="black" stroke-width="6"/>
<rect x="741" y="60" width="89" height="30" fill="#FAF506" stroke="black" stroke-width="6"/>
<rect x="588" y="155" width="104" height="82" fill="#FAF506" stroke="black" stroke-width="6"/>
<rect x="367" y="188" width="249" height="103" fill="#FAF506" stroke="black" stroke-width="6"/>
<rect x="410" y="258" width="79" height="101" fill="#FAF506" stroke="black" stroke-width="6"/>
<rect x="566" y="456" width="80" height="101" fill="#FAF506" stroke="black" stroke-width="6"/>
<rect x="599" y="486" width="79" height="102" fill="#FAF506" stroke="black" stroke-width="6"/>
<rect x="715" y="463" width="115" height="168" fill="#FAF506" stroke="black" stroke-width="6"/>
<rect x="693" y="510" width="93" height="168" fill="#FAF506" stroke="black" stroke-width="6"/>
<rect x="657" y="645" width="47" height="169" fill="#FAF506" stroke="black" stroke-width="6"/>
<rect x="638" y="434" width="88" height="268" fill="#FAF506" stroke="black" stroke-width="6"/>
<rect x="495" y="202" width="121" height="103" fill="#FAF506" stroke="black" stroke-width="6"/>
</svg>
