<svg width="2824" height="1070" viewBox="0 0 2824 1070" fill="none" xmlns="http://www.w3.org/2000/svg">
<rect width="2824" height="1070" fill="#0047FF"/>
<rect x="371.5" y="230.5" width="74" height="34" fill="#FAF506" stroke="black" stroke-width="5"/>
<rect x="436.5" y="186.5" width="71" height="78" fill="#FAF506" stroke="black" stroke-width="5"/>
<rect x="475.5" y="147.5" width="263" height="80" fill="#FAF506" stroke="black" stroke-width="5"/>
<rect x="541.5" y="207.5" width="280" height="80" fill="#FAF506" stroke="black" stroke-width="5"/>
<rect x="544.5" y="170.5" width="278" height="80" fill="#FAF506" stroke="black" stroke-width="5"/>
<rect x="844.5" y="207.5" width="138" height="80" fill="#FAF506" stroke="black" stroke-width="5"/>
<rect x="887.5" y="243.5" width="121" height="74" fill="#FAF506" stroke="black" stroke-width="5"/>
<rect x="961.5" y="88.5" width="297" height="74" fill="#FAF506" stroke="black" stroke-width="5"/>
<rect x="1282.5" y="145.5" width="180" height="73" fill="#FAF506" stroke="black" stroke-width="5"/>
<rect x="1232.5" y="382.5" width="124" height="73" fill="#FAF506" stroke="black" stroke-width="5"/>
<rect x="1190.5" y="432.5" width="410" height="94" fill="#FAF506" stroke="black" stroke-width="5"/>
<rect x="1148.5" y="521.5" width="449" height="117" fill="#FAF506" stroke="black" stroke-width="5"/>
<rect x="1333.5" y="630.5" width="208" height="162" fill="#FAF506" stroke="black" stroke-width="5"/>
<rect x="1333.5" y="630.5" width="221" height="162" fill="#FAF506" stroke="black" stroke-width="5"/>
<rect x="1361.5" y="750.5" width="146" height="114" fill="#FAF506" stroke="black" stroke-width="5"/>
<rect x="1398.5" y="842.5" width="109" height="84" fill="#FAF506" stroke="black" stroke-width="5"/>
<rect x="1593.5" y="714.5" width="51" height="83" fill="#FAF506" stroke="black" stroke-width="5"/>
<rect x="1985.5" y="764.5" width="179" height="122" fill="#FAF506" stroke="black" stroke-width="5"/>
<rect x="1214.5" y="212.5" width="69" height="75" fill="#FAF506" stroke="black" stroke-width="5"/>
<rect x="1282.5" y="252.5" width="156" height="75" fill="#FAF506" stroke="black" stroke-width="5"/>
<rect x="1398.5" y="232.5" width="156" height="74" fill="#FAF506" stroke="black" stroke-width="5"/>
<rect x="1521.5" y="333.5" width="156" height="74" fill="#FAF506" stroke="black" stroke-width="5"/>
<rect x="1520.5" y="101.5" width="528" height="73" fill="#FAF506" stroke="black" stroke-width="5"/>
<rect x="1486.5" y="191.5" width="551" height="156" fill="#FAF506" stroke="black" stroke-width="5"/>
<rect x="1621.5" y="251.5" width="385" height="156" fill="#FAF506" stroke="black" stroke-width="5"/>
<rect x="1621.5" y="382.5" width="249" height="155" fill="#FAF506" stroke="black" stroke-width="5"/>
<rect x="1708.5" y="322.5" width="249" height="154" fill="#FAF506" stroke="black" stroke-width="5"/>
<rect x="2064.5" y="495.5" width="86" height="89" fill="#FAF506" stroke="black" stroke-width="5"/>
<rect x="1909.5" y="656.5" width="367" height="89" fill="#FAF506" stroke="black" stroke-width="5"/>
<rect x="1828.5" y="607.5" width="178" height="65" fill="#FAF506" stroke="black" stroke-width="5"/>
<rect x="2146.5" y="764.5" width="86" height="89" fill="#FAF506" stroke="black" stroke-width="5"/>
<rect x="2042.5" y="832.5" width="85" height="90" fill="#FAF506" stroke="black" stroke-width="5"/>
<rect x="2237.5" y="917.5" width="84" height="53" fill="#FAF506" stroke="black" stroke-width="5"/>
<rect x="1634.5" y="43.5" width="493" height="221" fill="#FAF506" stroke="black" stroke-width="5"/>
<rect x="1861.5" y="136.5" width="325" height="151" fill="#FAF506" stroke="black" stroke-width="5"/>
<rect x="2026.5" y="70.5" width="324" height="150" fill="#FAF506" stroke="black" stroke-width="5"/>
<rect x="2064.5" y="311.5" width="63" height="129" fill="#FAF506" stroke="black" stroke-width="5"/>
<rect x="1973.5" y="462.5" width="26" height="45" fill="#FAF506" stroke="black" stroke-width="5"/>
<rect x="2014.5" y="437.5" width="29" height="45" fill="#FAF506" stroke="black" stroke-width="5"/>
<rect x="2167.5" y="542.5" width="28" height="32" fill="#FAF506" stroke="black" stroke-width="5"/>
<rect x="2317.5" y="495.5" width="19" height="45" transform="rotate(90 2317.5 495.5)" fill="#FAF506" stroke="black" stroke-width="5"/>
<rect x="2011.5" y="517.5" width="37" height="85" fill="#FAF506" stroke="black" stroke-width="5"/>
<rect x="2251.5" y="495.5" width="38" height="84" transform="rotate(90 2251.5 495.5)" fill="#FAF506" stroke="black" stroke-width="5"/>
<rect x="677.5" y="450.5" width="53" height="123" fill="#FAF506" stroke="black" stroke-width="5"/>
<rect x="-2.5" y="2.5" width="19" height="48" transform="matrix(-1 0 0 1 832 420)" fill="#FAF506" stroke="black" stroke-width="5"/>
<rect x="-2.5" y="2.5" width="19" height="49" transform="matrix(-1 0 0 1 728 587)" fill="#FAF506" stroke="black" stroke-width="5"/>
<rect x="-2.5" y="2.5" width="19" height="24" transform="matrix(-1 0 0 1 802 477)" fill="#FAF506" stroke="black" stroke-width="5"/>
<rect x="-2.5" y="2.5" width="18" height="47" transform="matrix(-1 0 0 1 748 524)" fill="#FAF506" stroke="black" stroke-width="5"/>
<rect x="837.5" y="479.5" width="54" height="123" fill="#FAF506" stroke="black" stroke-width="5"/>
<rect x="1175.5" y="284.5" width="106" height="75" fill="#FAF506" stroke="black" stroke-width="5"/>
<rect x="1004.5" y="161.5" width="116" height="41" fill="#FAF506" stroke="black" stroke-width="5"/>
<rect x="770.5" y="240.5" width="121" height="104" fill="#FAF506" stroke="black" stroke-width="5"/>
<rect x="512.5" y="280.5" width="292" height="128" fill="#FAF506" stroke="black" stroke-width="5"/>
<rect x="561.5" y="365.5" width="94" height="129" fill="#FAF506" stroke="black" stroke-width="5"/>
<rect x="743.5" y="609.5" width="95" height="129" fill="#FAF506" stroke="black" stroke-width="5"/>
<rect x="782.5" y="646.5" width="94" height="129" fill="#FAF506" stroke="black" stroke-width="5"/>
<rect x="916.5" y="618.5" width="134" height="209" fill="#FAF506" stroke="black" stroke-width="5"/>
<rect x="891.5" y="675.5" width="108" height="211" fill="#FAF506" stroke="black" stroke-width="5"/>
<rect x="850.5" y="842.5" width="56" height="180" fill="#FAF506" stroke="black" stroke-width="5"/>
<rect x="826.5" y="583.5" width="105" height="332" fill="#FAF506" stroke="black" stroke-width="5"/>
<rect x="660.5" y="298.5" width="144" height="129" fill="#FAF506" stroke="black" stroke-width="5"/>
</svg>
