<svg width="3032" height="1888" viewBox="0 0 3032 1888" fill="none" xmlns="http://www.w3.org/2000/svg">
<g clip-path="url(#clip0_6552_656)">
<rect width="3032" height="1888" fill="url(#paint0_linear_6552_656)"/>
<path d="M292.191 404.16C292.191 308.466 369.879 230.949 465.574 231.161L1210.82 232.807C1306.21 233.018 1383.43 310.411 1383.43 405.807V705.688C1383.43 801.521 1305.53 879.094 1209.7 878.687L882.718 877.296C846.158 877.141 816.438 906.735 816.438 943.295V959.203C816.438 995.654 845.987 1025.2 882.438 1025.2H918.191C1013.74 1025.2 1091.19 1102.66 1091.19 1198.2V1209.2C1091.19 1304.75 1013.74 1382.2 918.191 1382.2H680.547C661.362 1382.2 645.809 1397.76 645.809 1416.94C645.809 1436.13 661.362 1451.68 680.547 1451.68H770.918C827.678 1451.68 873.69 1497.69 873.69 1554.45C873.69 1611.21 827.678 1657.22 770.918 1657.22H394.963C338.204 1657.22 292.191 1611.21 292.191 1554.45C292.191 1497.69 338.204 1451.68 394.963 1451.68H487.555C506.74 1451.68 522.293 1436.13 522.293 1416.94C522.293 1397.76 506.74 1382.2 487.555 1382.2H458.751C366.763 1382.2 292.191 1307.63 292.191 1215.64V1198.2C292.191 1102.66 369.646 1025.2 465.191 1025.2H516.524C552.975 1025.2 582.524 995.654 582.524 959.203V943.014C582.524 906.563 552.975 877.014 516.524 877.014H465.191C369.646 877.014 292.191 799.559 292.191 704.014V404.16Z" fill="url(#paint1_linear_6552_656)" stroke="url(#paint2_linear_6552_656)"/>
<path d="M501.393 663.219V439.719H536.793V538.119H640.293V439.719H675.393V663.219H640.293V569.619H536.793V663.219H501.393ZM782.605 666.819C766.405 666.819 752.005 663.119 739.405 655.719C727.005 648.119 717.305 637.919 710.305 625.119C703.305 612.119 699.805 597.619 699.805 581.619C699.805 565.219 703.305 550.719 710.305 538.119C717.505 525.519 727.105 515.619 739.105 508.419C751.105 501.019 764.705 497.319 779.905 497.319C792.105 497.319 803.005 499.419 812.605 503.619C822.205 507.819 830.305 513.619 836.905 521.019C843.505 528.219 848.505 536.519 851.905 545.919C855.505 555.319 857.305 565.319 857.305 575.919C857.305 578.519 857.205 581.219 857.005 584.019C856.805 586.819 856.405 589.419 855.805 591.819H726.505V564.819H836.605L820.405 577.119C822.405 567.319 821.705 558.619 818.305 551.019C815.105 543.219 810.105 537.119 803.305 532.719C796.705 528.119 788.905 525.819 779.905 525.819C770.905 525.819 762.905 528.119 755.905 532.719C748.905 537.119 743.505 543.519 739.705 551.919C735.905 560.119 734.405 570.119 735.205 581.919C734.205 592.919 735.705 602.519 739.705 610.719C743.905 618.919 749.705 625.319 757.105 629.919C764.705 634.519 773.305 636.819 782.905 636.819C792.705 636.819 801.005 634.619 807.805 630.219C814.805 625.819 820.305 620.119 824.305 613.119L851.905 626.619C848.705 634.219 843.705 641.119 836.905 647.319C830.305 653.319 822.305 658.119 812.905 661.719C803.705 665.119 793.605 666.819 782.605 666.819ZM878.39 663.219V436.119H912.29V663.219H878.39ZM939.925 663.219V436.119H973.825V663.219H939.925ZM1079.76 666.819C1064.16 666.819 1049.86 663.119 1036.86 655.719C1024.06 648.319 1013.86 638.219 1006.26 625.419C998.66 612.619 994.86 598.119 994.86 581.919C994.86 565.519 998.66 551.019 1006.26 538.419C1013.86 525.619 1024.06 515.619 1036.86 508.419C1049.66 501.019 1063.96 497.319 1079.76 497.319C1095.76 497.319 1110.06 501.019 1122.66 508.419C1135.46 515.619 1145.56 525.619 1152.96 538.419C1160.56 551.019 1164.36 565.519 1164.36 581.919C1164.36 598.319 1160.56 612.919 1152.96 625.719C1145.36 638.519 1135.16 648.619 1122.36 656.019C1109.56 663.219 1095.36 666.819 1079.76 666.819ZM1079.76 635.319C1089.36 635.319 1097.86 633.019 1105.26 628.419C1112.66 623.819 1118.46 617.519 1122.66 609.519C1127.06 601.319 1129.26 592.119 1129.26 581.919C1129.26 571.719 1127.06 562.619 1122.66 554.619C1118.46 546.619 1112.66 540.319 1105.26 535.719C1097.86 531.119 1089.36 528.819 1079.76 528.819C1070.36 528.819 1061.86 531.119 1054.26 535.719C1046.86 540.319 1040.96 546.619 1036.56 554.619C1032.36 562.619 1030.26 571.719 1030.26 581.919C1030.26 592.119 1032.36 601.319 1036.56 609.519C1040.96 617.519 1046.86 623.819 1054.26 628.419C1061.86 633.019 1070.36 635.319 1079.76 635.319Z" fill="white"/>
<path d="M398.485 1262.72V1136.07H451.865C459.798 1136.07 466.655 1137.49 472.435 1140.32C478.215 1143.04 482.635 1147.01 485.695 1152.22C488.755 1157.32 490.285 1163.39 490.285 1170.41C490.285 1176.53 488.698 1182.14 485.525 1187.24C482.465 1192.23 477.648 1196.2 471.075 1199.14V1190.64C476.855 1192.91 481.558 1195.8 485.185 1199.31C488.811 1202.71 491.418 1206.57 493.005 1210.87C494.705 1215.18 495.555 1219.71 495.555 1224.47C495.555 1236.37 491.645 1245.72 483.825 1252.52C476.118 1259.32 465.521 1262.72 452.035 1262.72H398.485ZM418.545 1244.87H453.565C460.251 1244.87 465.578 1243.06 469.545 1239.43C473.511 1235.69 475.495 1230.76 475.495 1224.64C475.495 1218.41 473.511 1213.48 469.545 1209.85C465.578 1206.11 460.251 1204.24 453.565 1204.24H418.545V1244.87ZM418.545 1186.56H452.375C457.815 1186.56 462.178 1185.03 465.465 1181.97C468.751 1178.8 470.395 1174.66 470.395 1169.56C470.395 1164.46 468.751 1160.5 465.465 1157.66C462.178 1154.83 457.815 1153.41 452.375 1153.41H418.545V1186.56ZM551.89 1264.76C543.05 1264.76 534.946 1262.67 527.58 1258.47C520.326 1254.28 514.546 1248.56 510.24 1241.3C505.933 1234.05 503.78 1225.83 503.78 1216.65C503.78 1207.36 505.933 1199.14 510.24 1192C514.546 1184.75 520.326 1179.08 527.58 1175C534.833 1170.81 542.936 1168.71 551.89 1168.71C560.956 1168.71 569.06 1170.81 576.2 1175C583.453 1179.08 589.176 1184.75 593.37 1192C597.676 1199.14 599.83 1207.36 599.83 1216.65C599.83 1225.95 597.676 1234.22 593.37 1241.47C589.063 1248.73 583.283 1254.45 576.03 1258.64C568.776 1262.72 560.73 1264.76 551.89 1264.76ZM551.89 1246.91C557.33 1246.91 562.146 1245.61 566.34 1243C570.533 1240.4 573.82 1236.83 576.2 1232.29C578.693 1227.65 579.94 1222.43 579.94 1216.65C579.94 1210.87 578.693 1205.72 576.2 1201.18C573.82 1196.65 570.533 1193.08 566.34 1190.47C562.146 1187.87 557.33 1186.56 551.89 1186.56C546.563 1186.56 541.746 1187.87 537.44 1190.47C533.246 1193.08 529.903 1196.65 527.41 1201.18C525.03 1205.72 523.84 1210.87 523.84 1216.65C523.84 1222.43 525.03 1227.65 527.41 1232.29C529.903 1236.83 533.246 1240.4 537.44 1243C541.746 1245.61 546.563 1246.91 551.89 1246.91ZM611.784 1262.72V1170.75H630.144V1188.77L627.934 1186.39C630.201 1180.61 633.827 1176.25 638.814 1173.3C643.801 1170.24 649.581 1168.71 656.154 1168.71C662.954 1168.71 668.961 1170.19 674.174 1173.13C679.387 1176.08 683.467 1180.16 686.414 1185.37C689.361 1190.59 690.834 1196.59 690.834 1203.39V1262.72H671.794V1208.49C671.794 1203.85 670.944 1199.94 669.244 1196.76C667.544 1193.48 665.107 1190.98 661.934 1189.28C658.874 1187.47 655.361 1186.56 651.394 1186.56C647.427 1186.56 643.857 1187.47 640.684 1189.28C637.624 1190.98 635.244 1193.48 633.544 1196.76C631.844 1200.05 630.994 1203.96 630.994 1208.49V1262.72H611.784ZM690.483 1300.29C689.237 1300.29 687.877 1300.18 686.403 1299.95C684.817 1299.84 683.513 1299.67 682.493 1299.44V1282.78C684.647 1283.12 686.8 1283.29 688.953 1283.29C693.713 1283.29 697.51 1282.05 700.343 1279.55C703.177 1277.17 704.593 1273.55 704.593 1268.67V1170.75H723.803V1268.67C723.803 1275.36 722.387 1281.08 719.553 1285.84C716.72 1290.6 712.81 1294.17 707.823 1296.55C702.837 1299.05 697.057 1300.29 690.483 1300.29ZM704.593 1158.17V1136.07H723.803V1158.17H704.593ZM783.833 1264.76C774.993 1264.76 766.89 1262.67 759.523 1258.47C752.27 1254.28 746.49 1248.56 742.183 1241.3C737.877 1234.05 735.723 1225.83 735.723 1216.65C735.723 1207.36 737.877 1199.14 742.183 1192C746.49 1184.75 752.27 1179.08 759.523 1175C766.777 1170.81 774.88 1168.71 783.833 1168.71C792.9 1168.71 801.003 1170.81 808.143 1175C815.397 1179.08 821.12 1184.75 825.313 1192C829.62 1199.14 831.773 1207.36 831.773 1216.65C831.773 1225.95 829.62 1234.22 825.313 1241.47C821.007 1248.73 815.227 1254.45 807.973 1258.64C800.72 1262.72 792.673 1264.76 783.833 1264.76ZM783.833 1246.91C789.273 1246.91 794.09 1245.61 798.283 1243C802.477 1240.4 805.763 1236.83 808.143 1232.29C810.637 1227.65 811.883 1222.43 811.883 1216.65C811.883 1210.87 810.637 1205.72 808.143 1201.18C805.763 1196.65 802.477 1193.08 798.283 1190.47C794.09 1187.87 789.273 1186.56 783.833 1186.56C778.507 1186.56 773.69 1187.87 769.383 1190.47C765.19 1193.08 761.847 1196.65 759.353 1201.18C756.973 1205.72 755.783 1210.87 755.783 1216.65C755.783 1222.43 756.973 1227.65 759.353 1232.29C761.847 1236.83 765.19 1240.4 769.383 1243C773.69 1245.61 778.507 1246.91 783.833 1246.91ZM876.538 1264.76C869.624 1264.76 863.561 1263.23 858.348 1260.17C853.134 1257 849.054 1252.64 846.108 1247.08C843.274 1241.42 841.858 1234.9 841.858 1227.53V1170.75H861.068V1225.83C861.068 1230.03 861.918 1233.71 863.618 1236.88C865.318 1240.06 867.698 1242.55 870.758 1244.36C873.818 1246.06 877.331 1246.91 881.298 1246.91C885.378 1246.91 888.948 1246.01 892.008 1244.19C895.068 1242.38 897.448 1239.83 899.148 1236.54C900.961 1233.26 901.868 1229.4 901.868 1224.98V1170.75H920.908V1262.72H902.718V1244.7L904.758 1247.08C902.604 1252.75 899.034 1257.11 894.048 1260.17C889.061 1263.23 883.224 1264.76 876.538 1264.76ZM936.537 1262.72V1170.75H954.897V1189.28L953.197 1186.56C955.237 1180.56 958.524 1176.25 963.057 1173.64C967.591 1170.92 973.031 1169.56 979.377 1169.56H984.987V1187.07H976.997C970.651 1187.07 965.494 1189.06 961.527 1193.02C957.674 1196.88 955.747 1202.43 955.747 1209.68V1262.72H936.537Z" fill="white"/>
<path d="M413.735 1501.58C418.501 1502.1 423.875 1502.49 429.855 1502.75C435.835 1503.01 442.248 1503.14 449.095 1503.14C453.341 1503.14 457.718 1503.05 462.225 1502.88C466.818 1502.71 471.238 1502.49 475.485 1502.23C479.731 1501.97 483.501 1501.67 486.795 1501.32V1518.61C483.761 1518.87 480.078 1519.13 475.745 1519.39C471.498 1519.65 467.035 1519.87 462.355 1520.04C457.761 1520.13 453.385 1520.17 449.225 1520.17C442.465 1520.17 436.181 1520.04 430.375 1519.78C424.568 1519.52 419.021 1519.17 413.735 1518.74V1501.58ZM424.655 1556.7C424.048 1558.95 423.528 1561.16 423.095 1563.33C422.661 1565.5 422.445 1567.66 422.445 1569.83C422.445 1573.99 424.525 1577.41 428.685 1580.1C432.931 1582.79 439.735 1584.13 449.095 1584.13C454.988 1584.13 460.665 1583.91 466.125 1583.48C471.585 1583.05 476.741 1582.44 481.595 1581.66C486.535 1580.88 490.911 1579.97 494.725 1578.93L494.855 1597.26C491.041 1598.13 486.795 1598.86 482.115 1599.47C477.435 1600.16 472.365 1600.68 466.905 1601.03C461.531 1601.46 455.811 1601.68 449.745 1601.68C439.865 1601.68 431.588 1600.6 424.915 1598.43C418.241 1596.26 413.258 1593.14 409.965 1589.07C406.671 1584.91 405.025 1579.84 405.025 1573.86C405.025 1570.05 405.328 1566.58 405.935 1563.46C406.541 1560.34 407.105 1557.57 407.625 1555.14L424.655 1556.7ZM585.205 1499.5C584.598 1500.37 583.905 1501.36 583.125 1502.49C582.431 1503.53 581.738 1504.57 581.045 1505.61C579.485 1507.95 577.751 1510.68 575.845 1513.8C574.025 1516.83 572.118 1520.08 570.125 1523.55C568.131 1526.93 566.181 1530.31 564.275 1533.69C562.455 1537.07 560.721 1540.19 559.075 1543.05C561.501 1541.66 563.971 1540.67 566.485 1540.06C568.998 1539.45 571.511 1539.15 574.025 1539.15C578.878 1539.15 582.691 1540.62 585.465 1543.57C588.325 1546.43 589.885 1550.59 590.145 1556.05C590.231 1557.96 590.275 1560.25 590.275 1562.94C590.275 1565.63 590.275 1568.31 590.275 1571C590.361 1573.69 590.491 1575.94 590.665 1577.76C590.925 1580.27 591.835 1582.09 593.395 1583.22C595.041 1584.26 596.948 1584.78 599.115 1584.78C601.888 1584.78 604.401 1583.96 606.655 1582.31C608.995 1580.66 611.075 1578.41 612.895 1575.55C614.715 1572.6 616.275 1569.31 617.575 1565.67C618.961 1561.94 620.131 1558.09 621.085 1554.1L635.125 1565.54C632.871 1572.91 630.011 1579.41 626.545 1585.04C623.078 1590.59 618.831 1594.88 613.805 1597.91C608.865 1601.03 603.058 1602.59 596.385 1602.59C591.618 1602.59 587.631 1601.72 584.425 1599.99C581.218 1598.34 578.835 1596.18 577.275 1593.49C575.715 1590.72 574.848 1587.73 574.675 1584.52C574.501 1582.18 574.371 1579.58 574.285 1576.72C574.285 1573.86 574.241 1571.09 574.155 1568.4C574.155 1565.63 574.068 1563.37 573.895 1561.64C573.721 1559.39 572.985 1557.61 571.685 1556.31C570.385 1555.01 568.565 1554.36 566.225 1554.36C563.365 1554.36 560.635 1555.27 558.035 1557.09C555.435 1558.91 553.051 1561.29 550.885 1564.24C548.805 1567.19 546.985 1570.44 545.425 1573.99C544.558 1575.9 543.648 1578.15 542.695 1580.75C541.741 1583.35 540.831 1586.04 539.965 1588.81C539.098 1591.58 538.275 1594.18 537.495 1596.61C536.715 1599.12 536.065 1601.25 535.545 1602.98L517.215 1596.74C518.861 1592.41 520.855 1587.47 523.195 1581.92C525.621 1576.29 528.265 1570.39 531.125 1564.24C533.985 1558.09 536.888 1551.98 539.835 1545.91C542.781 1539.84 545.598 1534.12 548.285 1528.75C550.971 1523.29 553.355 1518.57 555.435 1514.58C557.601 1510.51 559.248 1507.43 560.375 1505.35C561.241 1503.62 562.238 1501.67 563.365 1499.5C564.491 1497.33 565.618 1494.86 566.745 1492.09L585.205 1499.5ZM693.235 1505.22C697.221 1505.74 701.685 1506.13 706.625 1506.39C711.651 1506.56 716.721 1506.65 721.835 1506.65C727.035 1506.56 732.018 1506.39 736.785 1506.13C741.551 1505.78 745.668 1505.44 749.135 1505.09V1521.86C745.148 1522.21 740.771 1522.51 736.005 1522.77C731.238 1522.94 726.341 1523.03 721.315 1523.03C716.288 1523.03 711.348 1522.94 706.495 1522.77C701.728 1522.51 697.308 1522.21 693.235 1521.86V1505.22ZM703.635 1560.73C703.115 1562.9 702.725 1564.85 702.465 1566.58C702.205 1568.23 702.075 1569.92 702.075 1571.65C702.075 1573.04 702.421 1574.34 703.115 1575.55C703.808 1576.68 704.848 1577.67 706.235 1578.54C707.708 1579.32 709.571 1579.93 711.825 1580.36C714.165 1580.71 716.981 1580.88 720.275 1580.88C726.081 1580.88 731.541 1580.62 736.655 1580.1C741.768 1579.49 747.185 1578.63 752.905 1577.5L753.165 1595.05C749.005 1595.83 744.195 1596.44 738.735 1596.87C733.361 1597.3 726.991 1597.52 719.625 1597.52C708.445 1597.52 700.125 1595.66 694.665 1591.93C689.205 1588.12 686.475 1582.87 686.475 1576.2C686.475 1573.69 686.648 1571.09 686.995 1568.4C687.428 1565.63 687.991 1562.59 688.685 1559.3L703.635 1560.73ZM673.215 1496.51C672.868 1497.38 672.478 1498.59 672.045 1500.15C671.611 1501.71 671.178 1503.23 670.745 1504.7C670.398 1506.17 670.138 1507.3 669.965 1508.08C669.705 1509.9 669.271 1512.28 668.665 1515.23C668.145 1518.09 667.581 1521.34 666.975 1524.98C666.455 1528.53 665.935 1532.17 665.415 1535.9C664.895 1539.63 664.461 1543.22 664.115 1546.69C663.855 1550.16 663.725 1553.19 663.725 1555.79C663.725 1557 663.725 1558.39 663.725 1559.95C663.811 1561.51 663.985 1562.94 664.245 1564.24C664.851 1562.77 665.501 1561.29 666.195 1559.82C666.888 1558.35 667.581 1556.87 668.275 1555.4C668.968 1553.84 669.575 1552.37 670.095 1550.98L678.155 1557.35C676.941 1560.9 675.685 1564.72 674.385 1568.79C673.171 1572.86 672.045 1576.72 671.005 1580.36C670.051 1583.91 669.315 1586.86 668.795 1589.2C668.621 1590.15 668.448 1591.24 668.275 1592.45C668.188 1593.66 668.145 1594.62 668.145 1595.31C668.145 1596 668.145 1596.83 668.145 1597.78C668.231 1598.82 668.318 1599.77 668.405 1600.64L653.325 1601.68C652.025 1597.17 650.855 1591.19 649.815 1583.74C648.775 1576.2 648.255 1568.01 648.255 1559.17C648.255 1554.32 648.471 1549.38 648.905 1544.35C649.338 1539.32 649.858 1534.51 650.465 1529.92C651.071 1525.24 651.635 1520.99 652.155 1517.18C652.761 1513.37 653.281 1510.2 653.715 1507.69C653.888 1505.87 654.105 1503.83 654.365 1501.58C654.711 1499.24 654.928 1497.03 655.015 1494.95L673.215 1496.51Z" fill="white"/>
<path d="M1715.52 404.16C1715.52 308.466 1793.21 230.949 1888.9 231.161L2634.15 232.807C2729.54 233.018 2806.76 310.411 2806.76 405.807V705.688C2806.76 801.521 2728.86 879.094 2633.03 878.687L2306.05 877.296C2269.49 877.141 2239.77 906.735 2239.77 943.295V959.203C2239.77 995.654 2269.32 1025.2 2305.77 1025.2H2341.52C2437.07 1025.2 2514.52 1102.66 2514.52 1198.2V1209.2C2514.52 1304.75 2437.07 1382.2 2341.52 1382.2H2103.88C2084.69 1382.2 2069.14 1397.76 2069.14 1416.94C2069.14 1436.13 2084.69 1451.68 2103.88 1451.68H2194.25C2251.01 1451.68 2297.02 1497.69 2297.02 1554.45C2297.02 1611.21 2251.01 1657.22 2194.25 1657.22H1818.29C1761.53 1657.22 1715.52 1611.21 1715.52 1554.45C1715.52 1497.69 1761.53 1451.68 1818.29 1451.68H1910.88C1930.07 1451.68 1945.62 1436.13 1945.62 1416.94C1945.62 1397.76 1930.07 1382.2 1910.88 1382.2H1882.08C1790.09 1382.2 1715.52 1307.63 1715.52 1215.64V1198.2C1715.52 1102.66 1792.98 1025.2 1888.52 1025.2H1939.85C1976.31 1025.2 2005.85 995.654 2005.85 959.203V943.014C2005.85 906.563 1976.31 877.014 1939.85 877.014H1888.52C1792.98 877.014 1715.52 799.559 1715.52 704.014V404.16Z" fill="url(#paint3_linear_6552_656)"/>
<path d="M1924.72 663.219V439.719H1960.12V538.119H2063.62V439.719H2098.72V663.219H2063.62V569.619H1960.12V663.219H1924.72ZM2205.94 666.819C2189.74 666.819 2175.34 663.119 2162.74 655.719C2150.34 648.119 2140.64 637.919 2133.64 625.119C2126.64 612.119 2123.14 597.619 2123.14 581.619C2123.14 565.219 2126.64 550.719 2133.64 538.119C2140.84 525.519 2150.44 515.619 2162.44 508.419C2174.44 501.019 2188.04 497.319 2203.24 497.319C2215.44 497.319 2226.34 499.419 2235.94 503.619C2245.54 507.819 2253.64 513.619 2260.24 521.019C2266.84 528.219 2271.84 536.519 2275.24 545.919C2278.84 555.319 2280.64 565.319 2280.64 575.919C2280.64 578.519 2280.54 581.219 2280.34 584.019C2280.14 586.819 2279.74 589.419 2279.14 591.819H2149.84V564.819H2259.94L2243.74 577.119C2245.74 567.319 2245.04 558.619 2241.64 551.019C2238.44 543.219 2233.44 537.119 2226.64 532.719C2220.04 528.119 2212.24 525.819 2203.24 525.819C2194.24 525.819 2186.24 528.119 2179.24 532.719C2172.24 537.119 2166.84 543.519 2163.04 551.919C2159.24 560.119 2157.74 570.119 2158.54 581.919C2157.54 592.919 2159.04 602.519 2163.04 610.719C2167.24 618.919 2173.04 625.319 2180.44 629.919C2188.04 634.519 2196.64 636.819 2206.24 636.819C2216.04 636.819 2224.34 634.619 2231.14 630.219C2238.14 625.819 2243.64 620.119 2247.64 613.119L2275.24 626.619C2272.04 634.219 2267.04 641.119 2260.24 647.319C2253.64 653.319 2245.64 658.119 2236.24 661.719C2227.04 665.119 2216.94 666.819 2205.94 666.819ZM2301.72 663.219V436.119H2335.62V663.219H2301.72ZM2363.26 663.219V436.119H2397.16V663.219H2363.26ZM2503.09 666.819C2487.49 666.819 2473.19 663.119 2460.19 655.719C2447.39 648.319 2437.19 638.219 2429.59 625.419C2421.99 612.619 2418.19 598.119 2418.19 581.919C2418.19 565.519 2421.99 551.019 2429.59 538.419C2437.19 525.619 2447.39 515.619 2460.19 508.419C2472.99 501.019 2487.29 497.319 2503.09 497.319C2519.09 497.319 2533.39 501.019 2545.99 508.419C2558.79 515.619 2568.89 525.619 2576.29 538.419C2583.89 551.019 2587.69 565.519 2587.69 581.919C2587.69 598.319 2583.89 612.919 2576.29 625.719C2568.69 638.519 2558.49 648.619 2545.69 656.019C2532.89 663.219 2518.69 666.819 2503.09 666.819ZM2503.09 635.319C2512.69 635.319 2521.19 633.019 2528.59 628.419C2535.99 623.819 2541.79 617.519 2545.99 609.519C2550.39 601.319 2552.59 592.119 2552.59 581.919C2552.59 571.719 2550.39 562.619 2545.99 554.619C2541.79 546.619 2535.99 540.319 2528.59 535.719C2521.19 531.119 2512.69 528.819 2503.09 528.819C2493.69 528.819 2485.19 531.119 2477.59 535.719C2470.19 540.319 2464.29 546.619 2459.89 554.619C2455.69 562.619 2453.59 571.719 2453.59 581.919C2453.59 592.119 2455.69 601.319 2459.89 609.519C2464.29 617.519 2470.19 623.819 2477.59 628.419C2485.19 633.019 2493.69 635.319 2503.09 635.319Z" fill="black"/>
<path d="M1821.81 1262.72V1136.07H1875.19C1883.13 1136.07 1889.98 1137.49 1895.76 1140.32C1901.54 1143.04 1905.96 1147.01 1909.02 1152.22C1912.08 1157.32 1913.61 1163.39 1913.61 1170.41C1913.61 1176.53 1912.03 1182.14 1908.85 1187.24C1905.79 1192.23 1900.98 1196.2 1894.4 1199.14V1190.64C1900.18 1192.91 1904.89 1195.8 1908.51 1199.31C1912.14 1202.71 1914.75 1206.57 1916.33 1210.87C1918.03 1215.18 1918.88 1219.71 1918.88 1224.47C1918.88 1236.37 1914.97 1245.72 1907.15 1252.52C1899.45 1259.32 1888.85 1262.72 1875.36 1262.72H1821.81ZM1841.87 1244.87H1876.89C1883.58 1244.87 1888.91 1243.06 1892.87 1239.43C1896.84 1235.69 1898.82 1230.76 1898.82 1224.64C1898.82 1218.41 1896.84 1213.48 1892.87 1209.85C1888.91 1206.11 1883.58 1204.24 1876.89 1204.24H1841.87V1244.87ZM1841.87 1186.56H1875.7C1881.14 1186.56 1885.51 1185.03 1888.79 1181.97C1892.08 1178.8 1893.72 1174.66 1893.72 1169.56C1893.72 1164.46 1892.08 1160.5 1888.79 1157.66C1885.51 1154.83 1881.14 1153.41 1875.7 1153.41H1841.87V1186.56ZM1975.22 1264.76C1966.38 1264.76 1958.28 1262.67 1950.91 1258.47C1943.66 1254.28 1937.88 1248.56 1933.57 1241.3C1929.26 1234.05 1927.11 1225.83 1927.11 1216.65C1927.11 1207.36 1929.26 1199.14 1933.57 1192C1937.88 1184.75 1943.66 1179.08 1950.91 1175C1958.16 1170.81 1966.27 1168.71 1975.22 1168.71C1984.29 1168.71 1992.39 1170.81 1999.53 1175C2006.78 1179.08 2012.51 1184.75 2016.7 1192C2021.01 1199.14 2023.16 1207.36 2023.16 1216.65C2023.16 1225.95 2021.01 1234.22 2016.7 1241.47C2012.39 1248.73 2006.61 1254.45 1999.36 1258.64C1992.11 1262.72 1984.06 1264.76 1975.22 1264.76ZM1975.22 1246.91C1980.66 1246.91 1985.48 1245.61 1989.67 1243C1993.86 1240.4 1997.15 1236.83 1999.53 1232.29C2002.02 1227.65 2003.27 1222.43 2003.27 1216.65C2003.27 1210.87 2002.02 1205.72 1999.53 1201.18C1997.15 1196.65 1993.86 1193.08 1989.67 1190.47C1985.48 1187.87 1980.66 1186.56 1975.22 1186.56C1969.89 1186.56 1965.08 1187.87 1960.77 1190.47C1956.58 1193.08 1953.23 1196.65 1950.74 1201.18C1948.36 1205.72 1947.17 1210.87 1947.17 1216.65C1947.17 1222.43 1948.36 1227.65 1950.74 1232.29C1953.23 1236.83 1956.58 1240.4 1960.77 1243C1965.08 1245.61 1969.89 1246.91 1975.22 1246.91ZM2035.11 1262.72V1170.75H2053.47V1188.77L2051.26 1186.39C2053.53 1180.61 2057.16 1176.25 2062.14 1173.3C2067.13 1170.24 2072.91 1168.71 2079.48 1168.71C2086.28 1168.71 2092.29 1170.19 2097.5 1173.13C2102.72 1176.08 2106.8 1180.16 2109.74 1185.37C2112.69 1190.59 2114.16 1196.59 2114.16 1203.39V1262.72H2095.12V1208.49C2095.12 1203.85 2094.27 1199.94 2092.57 1196.76C2090.87 1193.48 2088.44 1190.98 2085.26 1189.28C2082.2 1187.47 2078.69 1186.56 2074.72 1186.56C2070.76 1186.56 2067.19 1187.47 2064.01 1189.28C2060.95 1190.98 2058.57 1193.48 2056.87 1196.76C2055.17 1200.05 2054.32 1203.96 2054.32 1208.49V1262.72H2035.11ZM2113.81 1300.29C2112.57 1300.29 2111.21 1300.18 2109.73 1299.95C2108.15 1299.84 2106.84 1299.67 2105.82 1299.44V1282.78C2107.98 1283.12 2110.13 1283.29 2112.28 1283.29C2117.04 1283.29 2120.84 1282.05 2123.67 1279.55C2126.51 1277.17 2127.92 1273.55 2127.92 1268.67V1170.75H2147.13V1268.67C2147.13 1275.36 2145.72 1281.08 2142.88 1285.84C2140.05 1290.6 2136.14 1294.17 2131.15 1296.55C2126.17 1299.05 2120.39 1300.29 2113.81 1300.29ZM2127.92 1158.17V1136.07H2147.13V1158.17H2127.92ZM2207.16 1264.76C2198.32 1264.76 2190.22 1262.67 2182.85 1258.47C2175.6 1254.28 2169.82 1248.56 2165.51 1241.3C2161.21 1234.05 2159.05 1225.83 2159.05 1216.65C2159.05 1207.36 2161.21 1199.14 2165.51 1192C2169.82 1184.75 2175.6 1179.08 2182.85 1175C2190.11 1170.81 2198.21 1168.71 2207.16 1168.71C2216.23 1168.71 2224.33 1170.81 2231.47 1175C2238.73 1179.08 2244.45 1184.75 2248.64 1192C2252.95 1199.14 2255.1 1207.36 2255.1 1216.65C2255.1 1225.95 2252.95 1234.22 2248.64 1241.47C2244.34 1248.73 2238.56 1254.45 2231.3 1258.64C2224.05 1262.72 2216 1264.76 2207.16 1264.76ZM2207.16 1246.91C2212.6 1246.91 2217.42 1245.61 2221.61 1243C2225.81 1240.4 2229.09 1236.83 2231.47 1232.29C2233.97 1227.65 2235.21 1222.43 2235.21 1216.65C2235.21 1210.87 2233.97 1205.72 2231.47 1201.18C2229.09 1196.65 2225.81 1193.08 2221.61 1190.47C2217.42 1187.87 2212.6 1186.56 2207.16 1186.56C2201.84 1186.56 2197.02 1187.87 2192.71 1190.47C2188.52 1193.08 2185.18 1196.65 2182.68 1201.18C2180.3 1205.72 2179.11 1210.87 2179.11 1216.65C2179.11 1222.43 2180.3 1227.65 2182.68 1232.29C2185.18 1236.83 2188.52 1240.4 2192.71 1243C2197.02 1245.61 2201.84 1246.91 2207.16 1246.91ZM2299.87 1264.76C2292.95 1264.76 2286.89 1263.23 2281.68 1260.17C2276.46 1257 2272.38 1252.64 2269.44 1247.08C2266.6 1241.42 2265.19 1234.9 2265.19 1227.53V1170.75H2284.4V1225.83C2284.4 1230.03 2285.25 1233.71 2286.95 1236.88C2288.65 1240.06 2291.03 1242.55 2294.09 1244.36C2297.15 1246.06 2300.66 1246.91 2304.63 1246.91C2308.71 1246.91 2312.28 1246.01 2315.34 1244.19C2318.4 1242.38 2320.78 1239.83 2322.48 1236.54C2324.29 1233.26 2325.2 1229.4 2325.2 1224.98V1170.75H2344.24V1262.72H2326.05V1244.7L2328.09 1247.08C2325.93 1252.75 2322.36 1257.11 2317.38 1260.17C2312.39 1263.23 2306.55 1264.76 2299.87 1264.76ZM2359.87 1262.72V1170.75H2378.23V1189.28L2376.53 1186.56C2378.57 1180.56 2381.85 1176.25 2386.39 1173.64C2390.92 1170.92 2396.36 1169.56 2402.71 1169.56H2408.32V1187.07H2400.33C2393.98 1187.07 2388.82 1189.06 2384.86 1193.02C2381 1196.88 2379.08 1202.43 2379.08 1209.68V1262.72H2359.87Z" fill="black"/>
<path d="M1837.06 1501.58C1841.83 1502.1 1847.2 1502.49 1853.18 1502.75C1859.16 1503.01 1865.58 1503.14 1872.42 1503.14C1876.67 1503.14 1881.05 1503.05 1885.55 1502.88C1890.15 1502.71 1894.57 1502.49 1898.81 1502.23C1903.06 1501.97 1906.83 1501.67 1910.12 1501.32V1518.61C1907.09 1518.87 1903.41 1519.13 1899.07 1519.39C1894.83 1519.65 1890.36 1519.87 1885.68 1520.04C1881.09 1520.13 1876.71 1520.17 1872.55 1520.17C1865.79 1520.17 1859.51 1520.04 1853.7 1519.78C1847.9 1519.52 1842.35 1519.17 1837.06 1518.74V1501.58ZM1847.98 1556.7C1847.38 1558.95 1846.86 1561.16 1846.42 1563.33C1845.99 1565.5 1845.77 1567.66 1845.77 1569.83C1845.77 1573.99 1847.85 1577.41 1852.01 1580.1C1856.26 1582.79 1863.06 1584.13 1872.42 1584.13C1878.32 1584.13 1883.99 1583.91 1889.45 1583.48C1894.91 1583.05 1900.07 1582.44 1904.92 1581.66C1909.86 1580.88 1914.24 1579.97 1918.05 1578.93L1918.18 1597.26C1914.37 1598.13 1910.12 1598.86 1905.44 1599.47C1900.76 1600.16 1895.69 1600.68 1890.23 1601.03C1884.86 1601.46 1879.14 1601.68 1873.07 1601.68C1863.19 1601.68 1854.92 1600.6 1848.24 1598.43C1841.57 1596.26 1836.59 1593.14 1833.29 1589.07C1830 1584.91 1828.35 1579.84 1828.35 1573.86C1828.35 1570.05 1828.66 1566.58 1829.26 1563.46C1829.87 1560.34 1830.43 1557.57 1830.95 1555.14L1847.98 1556.7ZM2008.53 1499.5C2007.93 1500.37 2007.23 1501.36 2006.45 1502.49C2005.76 1503.53 2005.07 1504.57 2004.37 1505.61C2002.81 1507.95 2001.08 1510.68 1999.17 1513.8C1997.35 1516.83 1995.45 1520.08 1993.45 1523.55C1991.46 1526.93 1989.51 1530.31 1987.6 1533.69C1985.78 1537.07 1984.05 1540.19 1982.4 1543.05C1984.83 1541.66 1987.3 1540.67 1989.81 1540.06C1992.33 1539.45 1994.84 1539.15 1997.35 1539.15C2002.21 1539.15 2006.02 1540.62 2008.79 1543.57C2011.65 1546.43 2013.21 1550.59 2013.47 1556.05C2013.56 1557.96 2013.6 1560.25 2013.6 1562.94C2013.6 1565.63 2013.6 1568.31 2013.6 1571C2013.69 1573.69 2013.82 1575.94 2013.99 1577.76C2014.25 1580.27 2015.16 1582.09 2016.72 1583.22C2018.37 1584.26 2020.28 1584.78 2022.44 1584.78C2025.22 1584.78 2027.73 1583.96 2029.98 1582.31C2032.32 1580.66 2034.4 1578.41 2036.22 1575.55C2038.04 1572.6 2039.6 1569.31 2040.9 1565.67C2042.29 1561.94 2043.46 1558.09 2044.41 1554.1L2058.45 1565.54C2056.2 1572.91 2053.34 1579.41 2049.87 1585.04C2046.41 1590.59 2042.16 1594.88 2037.13 1597.91C2032.19 1601.03 2026.39 1602.59 2019.71 1602.59C2014.95 1602.59 2010.96 1601.72 2007.75 1599.99C2004.55 1598.34 2002.16 1596.18 2000.6 1593.49C1999.04 1590.72 1998.18 1587.73 1998 1584.52C1997.83 1582.18 1997.7 1579.58 1997.61 1576.72C1997.61 1573.86 1997.57 1571.09 1997.48 1568.4C1997.48 1565.63 1997.4 1563.37 1997.22 1561.64C1997.05 1559.39 1996.31 1557.61 1995.01 1556.31C1993.71 1555.01 1991.89 1554.36 1989.55 1554.36C1986.69 1554.36 1983.96 1555.27 1981.36 1557.09C1978.76 1558.91 1976.38 1561.29 1974.21 1564.24C1972.13 1567.19 1970.31 1570.44 1968.75 1573.99C1967.89 1575.9 1966.98 1578.15 1966.02 1580.75C1965.07 1583.35 1964.16 1586.04 1963.29 1588.81C1962.43 1591.58 1961.6 1594.18 1960.82 1596.61C1960.04 1599.12 1959.39 1601.25 1958.87 1602.98L1940.54 1596.74C1942.19 1592.41 1944.18 1587.47 1946.52 1581.92C1948.95 1576.29 1951.59 1570.39 1954.45 1564.24C1957.31 1558.09 1960.22 1551.98 1963.16 1545.91C1966.11 1539.84 1968.93 1534.12 1971.61 1528.75C1974.3 1523.29 1976.68 1518.57 1978.76 1514.58C1980.93 1510.51 1982.58 1507.43 1983.7 1505.35C1984.57 1503.62 1985.57 1501.67 1986.69 1499.5C1987.82 1497.33 1988.95 1494.86 1990.07 1492.09L2008.53 1499.5ZM2116.56 1505.22C2120.55 1505.74 2125.01 1506.13 2129.95 1506.39C2134.98 1506.56 2140.05 1506.65 2145.16 1506.65C2150.36 1506.56 2155.35 1506.39 2160.11 1506.13C2164.88 1505.78 2169 1505.44 2172.46 1505.09V1521.86C2168.48 1522.21 2164.1 1522.51 2159.33 1522.77C2154.57 1522.94 2149.67 1523.03 2144.64 1523.03C2139.62 1523.03 2134.68 1522.94 2129.82 1522.77C2125.06 1522.51 2120.64 1522.21 2116.56 1521.86V1505.22ZM2126.96 1560.73C2126.44 1562.9 2126.05 1564.85 2125.79 1566.58C2125.53 1568.23 2125.4 1569.92 2125.4 1571.65C2125.4 1573.04 2125.75 1574.34 2126.44 1575.55C2127.14 1576.68 2128.18 1577.67 2129.56 1578.54C2131.04 1579.32 2132.9 1579.93 2135.15 1580.36C2137.49 1580.71 2140.31 1580.88 2143.6 1580.88C2149.41 1580.88 2154.87 1580.62 2159.98 1580.1C2165.1 1579.49 2170.51 1578.63 2176.23 1577.5L2176.49 1595.05C2172.33 1595.83 2167.52 1596.44 2162.06 1596.87C2156.69 1597.3 2150.32 1597.52 2142.95 1597.52C2131.77 1597.52 2123.45 1595.66 2117.99 1591.93C2112.53 1588.12 2109.8 1582.87 2109.8 1576.2C2109.8 1573.69 2109.98 1571.09 2110.32 1568.4C2110.76 1565.63 2111.32 1562.59 2112.01 1559.3L2126.96 1560.73ZM2096.54 1496.51C2096.2 1497.38 2095.81 1498.59 2095.37 1500.15C2094.94 1501.71 2094.51 1503.23 2094.07 1504.7C2093.73 1506.17 2093.47 1507.3 2093.29 1508.08C2093.03 1509.9 2092.6 1512.28 2091.99 1515.23C2091.47 1518.09 2090.91 1521.34 2090.3 1524.98C2089.78 1528.53 2089.26 1532.17 2088.74 1535.9C2088.22 1539.63 2087.79 1543.22 2087.44 1546.69C2087.18 1550.16 2087.05 1553.19 2087.05 1555.79C2087.05 1557 2087.05 1558.39 2087.05 1559.95C2087.14 1561.51 2087.31 1562.94 2087.57 1564.24C2088.18 1562.77 2088.83 1561.29 2089.52 1559.82C2090.22 1558.35 2090.91 1556.87 2091.6 1555.4C2092.3 1553.84 2092.9 1552.37 2093.42 1550.98L2101.48 1557.35C2100.27 1560.9 2099.01 1564.72 2097.71 1568.79C2096.5 1572.86 2095.37 1576.72 2094.33 1580.36C2093.38 1583.91 2092.64 1586.86 2092.12 1589.2C2091.95 1590.15 2091.78 1591.24 2091.6 1592.45C2091.52 1593.66 2091.47 1594.62 2091.47 1595.31C2091.47 1596 2091.47 1596.83 2091.47 1597.78C2091.56 1598.82 2091.65 1599.77 2091.73 1600.64L2076.65 1601.68C2075.35 1597.17 2074.18 1591.19 2073.14 1583.74C2072.1 1576.2 2071.58 1568.01 2071.58 1559.17C2071.58 1554.32 2071.8 1549.38 2072.23 1544.35C2072.67 1539.32 2073.19 1534.51 2073.79 1529.92C2074.4 1525.24 2074.96 1520.99 2075.48 1517.18C2076.09 1513.37 2076.61 1510.2 2077.04 1507.69C2077.22 1505.87 2077.43 1503.83 2077.69 1501.58C2078.04 1499.24 2078.26 1497.03 2078.34 1494.95L2096.54 1496.51Z" fill="black"/>
</g>
<rect x="0.5" y="0.5" width="3031" height="1887" stroke="black"/>
<defs>
<linearGradient id="paint0_linear_6552_656" x1="1516" y1="0" x2="1516" y2="1888" gradientUnits="userSpaceOnUse">
<stop stop-color="#1359FF"/>
<stop offset="0.572115" stop-color="#C5A5FB"/>
<stop offset="0.889523" stop-color="#BBB3F8"/>
</linearGradient>
<linearGradient id="paint1_linear_6552_656" x1="837.813" y1="508.656" x2="837.813" y2="1696.98" gradientUnits="userSpaceOnUse">
<stop/>
<stop offset="1" stop-color="#2E64FE"/>
</linearGradient>
<linearGradient id="paint2_linear_6552_656" x1="461.156" y1="323.873" x2="978.348" y2="1735.46" gradientUnits="userSpaceOnUse">
<stop/>
<stop offset="1" stop-color="#666666" stop-opacity="0"/>
</linearGradient>
<linearGradient id="paint3_linear_6552_656" x1="2305.64" y1="886.008" x2="2305.64" y2="1881.58" gradientUnits="userSpaceOnUse">
<stop stop-color="white"/>
<stop offset="1" stop-color="#AF9BFB"/>
</linearGradient>
<clipPath id="clip0_6552_656">
<rect width="3032" height="1888" fill="white"/>
</clipPath>
</defs>
</svg>
