<svg width="3032" height="1888" viewBox="0 0 3032 1888" fill="none" xmlns="http://www.w3.org/2000/svg">
<g clip-path="url(#clip0_6564_629)">
<rect width="3032" height="1888" fill="url(#paint0_linear_6564_629)"/>
<path d="M1293.02 1184.3C1286.94 1184.3 1282.02 1179.37 1282.02 1173.3V1125.62C1282.02 1125.21 1282.15 1124.81 1282.38 1124.47L1413.18 937.335C1425.69 919.438 1412.89 894.867 1391.05 894.867H1304.51C1297.33 894.867 1291.51 889.046 1291.51 881.867V843.812C1291.51 836.633 1297.33 830.812 1304.51 830.812H1524.86C1530.94 830.812 1535.86 835.737 1535.86 841.812V886.039C1535.86 888.697 1535.05 891.291 1533.53 893.472L1405.07 1077.8C1392.59 1095.7 1405.4 1120.24 1427.22 1120.24H1527.61C1534.79 1120.24 1540.61 1126.06 1540.61 1133.24V1171.3C1540.61 1178.48 1534.79 1184.3 1527.61 1184.3H1293.02Z" fill="#E9EFFF"/>
<path d="M1580.06 1184.3C1572.81 1184.3 1566.96 1178.37 1567.06 1171.13L1571.34 843.691C1571.43 836.578 1577.22 830.861 1584.33 830.861H1631.88C1639.12 830.861 1644.97 836.785 1644.87 844.031L1640.6 1171.47C1640.5 1178.58 1634.71 1184.3 1627.6 1184.3H1580.06Z" fill="#E9EFFF"/>
<path d="M1681.95 1184.3C1674.77 1184.3 1668.95 1178.48 1668.95 1171.3V843.812C1668.95 836.633 1674.77 830.812 1681.95 830.812H1729.49C1736.67 830.812 1742.49 836.633 1742.49 843.813V1100.24C1742.49 1111.29 1751.45 1120.24 1762.49 1120.24H1878.95C1886.13 1120.24 1891.95 1126.06 1891.95 1133.24V1171.3C1891.95 1178.48 1886.13 1184.3 1878.95 1184.3H1681.95Z" fill="#E9EFFF"/>
<path d="M2059.73 868.977C2133.27 868.977 2194.15 929.911 2194.15 1006.63C2194.15 1083.36 2133.27 1144.29 2059.73 1144.29C1986.18 1144.29 1925.31 1083.36 1925.31 1006.63C1925.31 929.911 1986.18 868.977 2059.73 868.977Z" stroke="#E9EFFF" stroke-width="80"/>
<path d="M810.836 891.506C810.836 852.786 842.27 821.421 880.991 821.507L1094.02 821.977C1132.62 822.063 1163.87 853.378 1163.87 891.977V960.899C1163.87 999.675 1132.34 1031.06 1093.57 1030.9L1004.46 1030.52C991.207 1030.46 980.436 1041.19 980.436 1054.44C980.436 1067.65 991.145 1078.36 1004.36 1078.36H1023.57C1048.84 1078.36 1069.32 1098.84 1069.32 1124.11V1136.1C1069.32 1168 1043.47 1193.85 1011.57 1193.85H868.583C836.69 1193.85 810.836 1168 810.836 1136.1V1126.7C810.836 1100 832.48 1078.36 859.18 1078.36H880.792C894.03 1078.36 904.762 1067.63 904.762 1054.39C904.762 1041.15 894.03 1030.42 880.792 1030.42H859.18C832.48 1030.42 810.836 1008.77 810.836 982.072V891.506Z" fill="url(#paint1_radial_6564_629)" stroke="url(#paint2_linear_6564_629)" stroke-width="2"/>
</g>
<rect x="0.5" y="0.5" width="3031" height="1887" stroke="black"/>
<defs>
<linearGradient id="paint0_linear_6564_629" x1="1516" y1="535.747" x2="1516" y2="2168.78" gradientUnits="userSpaceOnUse">
<stop offset="0.540288" stop-color="#030017"/>
<stop offset="0.696949" stop-color="#1F57D9"/>
<stop offset="0.789671" stop-color="#CFA9FD"/>
<stop offset="0.854773" stop-color="#9BC3F1"/>
<stop offset="0.902347" stop-color="#9BC3F1"/>
</linearGradient>
<radialGradient id="paint1_radial_6564_629" cx="0" cy="0" r="1" gradientUnits="userSpaceOnUse" gradientTransform="translate(933.046 879.009) rotate(117.233) scale(354.093 335.585)">
<stop stop-color="#0137D7"/>
<stop offset="0.216346" stop-color="#2F68DA"/>
<stop offset="0.403846" stop-color="#4986DF"/>
<stop offset="0.605769" stop-color="#D7ABFF"/>
<stop offset="0.855769" stop-color="#86CCEC"/>
</radialGradient>
<linearGradient id="paint2_linear_6564_629" x1="987.351" y1="821.352" x2="1215.09" y2="1116.45" gradientUnits="userSpaceOnUse">
<stop stop-color="white"/>
<stop offset="0.548077" stop-color="#74DAFF"/>
<stop offset="1" stop-color="#00BBFF"/>
</linearGradient>
<clipPath id="clip0_6564_629">
<rect width="3032" height="1888" fill="white"/>
</clipPath>
</defs>
</svg>
