<svg width="3032" height="1888" viewBox="0 0 3032 1888" fill="none" xmlns="http://www.w3.org/2000/svg">
<g clip-path="url(#clip0_6552_670)">
<rect width="3032" height="1888" fill="url(#paint0_linear_6552_670)"/>
<path d="M2191.33 711.28L2191.74 641.167C2192.29 545.231 2114.68 467.164 2018.74 467.164L1154.66 467.165C1122.39 467.165 1096.24 493.319 1096.24 525.582C1096.24 557.845 1070.08 584 1037.82 584L1006.47 584C974.204 584 948.05 557.845 948.05 525.582C948.05 493.319 921.896 467.165 889.632 467.165L380.798 467.165C285.253 467.165 207.798 544.62 207.798 640.165L207.798 719.722C207.798 809.013 280.183 881.398 369.474 881.398L500.444 881.398C534.951 881.398 562.924 909.371 562.924 943.879C562.924 978.386 534.951 1006.36 500.444 1006.36L369.474 1006.36C280.183 1006.36 207.798 1078.74 207.798 1168.04L207.798 1247.83C207.798 1343.38 285.253 1420.83 380.798 1420.83L1360.88 1420.83C1395.9 1420.83 1424.3 1392.44 1424.3 1357.41C1424.3 1322.39 1452.69 1294 1487.71 1294L1497.66 1294C1532.68 1294 1561.07 1322.39 1561.07 1357.41C1561.07 1392.44 1589.47 1420.83 1624.49 1420.83L2609.58 1420.83C2705.13 1420.83 2782.58 1343.38 2782.58 1247.83L2782.58 1179.36C2782.58 1083.81 2705.13 1006.36 2609.58 1006.36L1621.5 1006.36C1589.26 1006.36 1562.95 1032.13 1562.28 1064.36C1561.61 1096.58 1535.29 1122.36 1503.06 1122.36L1482.3 1122.36C1450.26 1122.36 1424.3 1096.39 1424.3 1064.36C1424.3 1032.33 1398.33 1006.36 1366.3 1006.36L738.443 1006.36C703.936 1006.36 675.962 978.386 675.962 943.879C675.962 909.371 703.936 881.398 738.443 881.398L883.587 881.398C919.189 881.398 948.05 852.537 948.05 816.934C948.05 781.332 976.911 752.471 1012.51 752.471L1030.82 752.471C1066.75 752.471 1095.7 781.95 1095.03 817.875C1094.37 853.799 1123.31 883.278 1159.24 883.278L2018.33 883.277C2113.49 883.277 2190.78 806.432 2191.33 711.28Z" fill="url(#paint1_linear_6552_670)"/>
<path d="M361.405 759.234V587.884H388.545V663.324H467.895V587.884H494.805V759.234H467.895V687.474H388.545V759.234H361.405ZM577.002 761.994C564.582 761.994 553.542 759.158 543.882 753.484C534.375 747.658 526.938 739.838 521.572 730.024C516.205 720.058 513.522 708.941 513.522 696.674C513.522 684.101 516.205 672.984 521.572 663.324C527.092 653.664 534.452 646.074 543.652 640.554C552.852 634.881 563.278 632.044 574.932 632.044C584.285 632.044 592.642 633.654 600.002 636.874C607.362 640.094 613.572 644.541 618.632 650.214C623.692 655.734 627.525 662.098 630.132 669.304C632.892 676.511 634.272 684.178 634.272 692.304C634.272 694.298 634.195 696.368 634.042 698.514C633.888 700.661 633.582 702.654 633.122 704.494H533.992V683.794H618.402L605.982 693.224C607.515 685.711 606.978 679.041 604.372 673.214C601.918 667.234 598.085 662.558 592.872 659.184C587.812 655.658 581.832 653.894 574.932 653.894C568.032 653.894 561.898 655.658 556.532 659.184C551.165 662.558 547.025 667.464 544.112 673.904C541.198 680.191 540.048 687.858 540.662 696.904C539.895 705.338 541.045 712.698 544.112 718.984C547.332 725.271 551.778 730.178 557.452 733.704C563.278 737.231 569.872 738.994 577.232 738.994C584.745 738.994 591.108 737.308 596.322 733.934C601.688 730.561 605.905 726.191 608.972 720.824L630.132 731.174C627.678 737.001 623.845 742.291 618.632 747.044C613.572 751.644 607.438 755.324 600.232 758.084C593.178 760.691 585.435 761.994 577.002 761.994ZM650.436 759.234V585.124H676.426V759.234H650.436ZM697.613 759.234V585.124H723.603V759.234H697.613ZM804.82 761.994C792.86 761.994 781.897 759.158 771.93 753.484C762.117 747.811 754.297 740.068 748.47 730.254C742.644 720.441 739.73 709.324 739.73 696.904C739.73 684.331 742.644 673.214 748.47 663.554C754.297 653.741 762.117 646.074 771.93 640.554C781.744 634.881 792.707 632.044 804.82 632.044C817.087 632.044 828.05 634.881 837.71 640.554C847.524 646.074 855.267 653.741 860.94 663.554C866.767 673.214 869.68 684.331 869.68 696.904C869.68 709.478 866.767 720.671 860.94 730.484C855.114 740.298 847.294 748.041 837.48 753.714C827.667 759.234 816.78 761.994 804.82 761.994ZM804.82 737.844C812.18 737.844 818.697 736.081 824.37 732.554C830.044 729.028 834.49 724.198 837.71 718.064C841.084 711.778 842.77 704.724 842.77 696.904C842.77 689.084 841.084 682.108 837.71 675.974C834.49 669.841 830.044 665.011 824.37 661.484C818.697 657.958 812.18 656.194 804.82 656.194C797.614 656.194 791.097 657.958 785.27 661.484C779.597 665.011 775.074 669.841 771.7 675.974C768.48 682.108 766.87 689.084 766.87 696.904C766.87 704.724 768.48 711.778 771.7 718.064C775.074 724.198 779.597 729.028 785.27 732.554C791.097 736.081 797.614 737.844 804.82 737.844Z" fill="white"/>
<path d="M361.255 759.234V587.884H392.535V662.634H465.445V587.884H496.955V759.234H465.445V690.234H392.535V759.234H361.255ZM577.547 761.994C564.667 761.994 553.397 759.081 543.737 753.254C534.077 747.428 526.564 739.531 521.197 729.564C515.83 719.598 513.147 708.558 513.147 696.444C513.147 683.871 515.83 672.754 521.197 663.094C526.717 653.281 534.154 645.538 543.507 639.864C553.014 634.191 563.594 631.354 575.247 631.354C585.06 631.354 593.647 632.964 601.007 636.184C608.52 639.404 614.884 643.851 620.097 649.524C625.31 655.198 629.297 661.714 632.057 669.074C634.817 676.281 636.197 684.101 636.197 692.534C636.197 694.681 636.044 696.904 635.737 699.204C635.584 701.504 635.2 703.498 634.587 705.184H537.987V682.184H617.567L603.307 692.994C604.687 685.941 604.304 679.654 602.157 674.134C600.164 668.614 596.79 664.244 592.037 661.024C587.437 657.804 581.84 656.194 575.247 656.194C568.96 656.194 563.364 657.804 558.457 661.024C553.55 664.091 549.794 668.691 547.187 674.824C544.734 680.804 543.814 688.088 544.427 696.674C543.814 704.341 544.81 711.164 547.417 717.144C550.177 722.971 554.164 727.494 559.377 730.714C564.744 733.934 570.877 735.544 577.777 735.544C584.677 735.544 590.504 734.088 595.257 731.174C600.164 728.261 603.997 724.351 606.757 719.444L631.137 731.404C628.684 737.384 624.85 742.674 619.637 747.274C614.424 751.874 608.214 755.478 601.007 758.084C593.954 760.691 586.134 761.994 577.547 761.994ZM649.837 759.234V585.124H679.967V759.234H649.837ZM698.586 759.234V585.124H728.716V759.234H698.586ZM808.515 761.994C796.249 761.994 785.055 759.158 774.935 753.484C764.969 747.811 756.995 740.068 751.015 730.254C745.189 720.441 742.275 709.248 742.275 696.674C742.275 684.101 745.189 672.908 751.015 663.094C756.995 653.281 764.969 645.538 774.935 639.864C784.902 634.191 796.095 631.354 808.515 631.354C820.782 631.354 831.899 634.191 841.865 639.864C851.832 645.538 859.729 653.281 865.555 663.094C871.535 672.754 874.525 683.948 874.525 696.674C874.525 709.248 871.535 720.441 865.555 730.254C859.575 740.068 851.602 747.811 841.635 753.484C831.669 759.158 820.629 761.994 808.515 761.994ZM808.515 734.394C815.262 734.394 821.165 732.784 826.225 729.564C831.439 726.344 835.502 721.898 838.415 716.224C841.482 710.398 843.015 703.881 843.015 696.674C843.015 689.314 841.482 682.874 838.415 677.354C835.502 671.681 831.439 667.234 826.225 664.014C821.165 660.641 815.262 658.954 808.515 658.954C801.615 658.954 795.559 660.641 790.345 664.014C785.132 667.234 780.992 671.681 777.925 677.354C775.012 682.874 773.555 689.314 773.555 696.674C773.555 703.881 775.012 710.398 777.925 716.224C780.992 721.898 785.132 726.344 790.345 729.564C795.559 732.784 801.615 734.394 808.515 734.394Z" fill="black"/>
<path d="M1156.03 758.234L1215.14 586.884H1255.62L1314.73 758.234H1280.69L1268.5 721.434H1202.26L1189.84 758.234H1156.03ZM1211.23 693.834H1259.53L1231.01 608.504H1239.75L1211.23 693.834ZM1220.66 564.574L1196.28 524.784H1235.38L1250.33 564.574H1220.66ZM1422.06 760.994C1413.01 760.994 1404.66 759.231 1396.99 755.704C1389.48 752.024 1383.5 746.811 1379.05 740.064L1382.04 734.084V758.234H1353.75V584.124H1383.88V657.954L1379.28 651.744C1383.57 644.998 1389.4 639.784 1396.76 636.104C1404.12 632.271 1412.63 630.354 1422.29 630.354C1434.1 630.354 1444.75 633.268 1454.26 639.094C1463.77 644.921 1471.28 652.741 1476.8 662.554C1482.47 672.368 1485.31 683.408 1485.31 695.674C1485.31 707.788 1482.55 718.828 1477.03 728.794C1471.51 738.761 1464 746.658 1454.49 752.484C1444.98 758.158 1434.17 760.994 1422.06 760.994ZM1418.61 733.394C1425.51 733.394 1431.64 731.784 1437.01 728.564C1442.38 725.344 1446.52 720.898 1449.43 715.224C1452.5 709.551 1454.03 703.034 1454.03 695.674C1454.03 688.314 1452.5 681.874 1449.43 676.354C1446.52 670.681 1442.38 666.234 1437.01 663.014C1431.64 659.641 1425.51 657.954 1418.61 657.954C1412.02 657.954 1406.04 659.564 1400.67 662.784C1395.46 666.004 1391.32 670.528 1388.25 676.354C1385.34 682.028 1383.88 688.468 1383.88 695.674C1383.88 703.034 1385.34 709.551 1388.25 715.224C1391.32 720.898 1395.46 725.344 1400.67 728.564C1406.04 731.784 1412.02 733.394 1418.61 733.394ZM1499.08 758.234V633.114H1529.21V758.234H1499.08ZM1499.08 619.084V586.884H1529.21V619.084H1499.08ZM1607.17 760.994C1594.29 760.994 1583.02 758.081 1573.36 752.254C1563.7 746.428 1556.19 738.531 1550.82 728.564C1545.45 718.598 1542.77 707.558 1542.77 695.444C1542.77 682.871 1545.45 671.754 1550.82 662.094C1556.34 652.281 1563.78 644.538 1573.13 638.864C1582.64 633.191 1593.22 630.354 1604.87 630.354C1614.68 630.354 1623.27 631.964 1630.63 635.184C1638.14 638.404 1644.51 642.851 1649.72 648.524C1654.93 654.198 1658.92 660.714 1661.68 668.074C1664.44 675.281 1665.82 683.101 1665.82 691.534C1665.82 693.681 1665.67 695.904 1665.36 698.204C1665.21 700.504 1664.82 702.498 1664.21 704.184H1567.61V681.184H1647.19L1632.93 691.994C1634.31 684.941 1633.93 678.654 1631.78 673.134C1629.79 667.614 1626.41 663.244 1621.66 660.024C1617.06 656.804 1611.46 655.194 1604.87 655.194C1598.58 655.194 1592.99 656.804 1588.08 660.024C1583.17 663.091 1579.42 667.691 1576.81 673.824C1574.36 679.804 1573.44 687.088 1574.05 695.674C1573.44 703.341 1574.43 710.164 1577.04 716.144C1579.8 721.971 1583.79 726.494 1589 729.714C1594.37 732.934 1600.5 734.544 1607.4 734.544C1614.3 734.544 1620.13 733.088 1624.88 730.174C1629.79 727.261 1633.62 723.351 1636.38 718.444L1660.76 730.404C1658.31 736.384 1654.47 741.674 1649.26 746.274C1644.05 750.874 1637.84 754.478 1630.63 757.084C1623.58 759.691 1615.76 760.994 1607.17 760.994ZM1679.46 758.234V633.114H1707.75V657.724L1705.45 653.354C1708.36 645.841 1713.12 640.168 1719.71 636.334C1726.46 632.348 1734.28 630.354 1743.17 630.354C1752.37 630.354 1760.5 632.348 1767.55 636.334C1774.76 640.321 1780.35 645.918 1784.34 653.124C1788.33 660.178 1790.32 668.381 1790.32 677.734V758.234H1760.19V684.864C1760.19 679.344 1759.12 674.591 1756.97 670.604C1754.82 666.618 1751.83 663.551 1748 661.404C1744.32 659.104 1739.95 657.954 1734.89 657.954C1729.98 657.954 1725.61 659.104 1721.78 661.404C1717.95 663.551 1714.96 666.618 1712.81 670.604C1710.66 674.591 1709.59 679.344 1709.59 684.864V758.234H1679.46ZM1863.64 759.614C1849.53 759.614 1838.57 755.781 1830.75 748.114C1823.08 740.294 1819.25 729.331 1819.25 715.224V660.024H1797.63V633.114H1799.93C1806.06 633.114 1810.81 631.504 1814.19 628.284C1817.56 625.064 1819.25 620.388 1819.25 614.254V604.594H1849.38V633.114H1878.13V660.024H1849.38V713.614C1849.38 717.754 1850.07 721.281 1851.45 724.194C1852.98 727.108 1855.28 729.331 1858.35 730.864C1861.57 732.398 1865.63 733.164 1870.54 733.164C1871.61 733.164 1872.84 733.088 1874.22 732.934C1875.75 732.781 1877.21 732.628 1878.59 732.474V758.234C1876.44 758.541 1873.99 758.848 1871.23 759.154C1868.47 759.461 1865.94 759.614 1863.64 759.614ZM1952.46 760.994C1940.2 760.994 1929 758.158 1918.88 752.484C1908.92 746.811 1900.94 739.068 1894.96 729.254C1889.14 719.441 1886.22 708.248 1886.22 695.674C1886.22 683.101 1889.14 671.908 1894.96 662.094C1900.94 652.281 1908.92 644.538 1918.88 638.864C1928.85 633.191 1940.04 630.354 1952.46 630.354C1964.73 630.354 1975.85 633.191 1985.81 638.864C1995.78 644.538 2003.68 652.281 2009.5 662.094C2015.48 671.754 2018.47 682.948 2018.47 695.674C2018.47 708.248 2015.48 719.441 2009.5 729.254C2003.52 739.068 1995.55 746.811 1985.58 752.484C1975.62 758.158 1964.58 760.994 1952.46 760.994ZM1952.46 733.394C1959.21 733.394 1965.11 731.784 1970.17 728.564C1975.39 725.344 1979.45 720.898 1982.36 715.224C1985.43 709.398 1986.96 702.881 1986.96 695.674C1986.96 688.314 1985.43 681.874 1982.36 676.354C1979.45 670.681 1975.39 666.234 1970.17 663.014C1965.11 659.641 1959.21 657.954 1952.46 657.954C1945.56 657.954 1939.51 659.641 1934.29 663.014C1929.08 666.234 1924.94 670.681 1921.87 676.354C1918.96 681.874 1917.5 688.314 1917.5 695.674C1917.5 702.881 1918.96 709.398 1921.87 715.224C1924.94 720.898 1929.08 725.344 1934.29 728.564C1939.51 731.784 1945.56 733.394 1952.46 733.394ZM1907.61 611.034L1934.52 573.084H1970.17L1997.31 611.034H1967.41L1952.46 590.334L1937.51 611.034H1907.61ZM2086.92 759.614C2072.81 759.614 2061.85 755.781 2054.03 748.114C2046.36 740.294 2042.53 729.331 2042.53 715.224V660.024H2020.91V633.114H2023.21C2029.34 633.114 2034.09 631.504 2037.47 628.284C2040.84 625.064 2042.53 620.388 2042.53 614.254V604.594H2072.66V633.114H2101.41V660.024H2072.66V713.614C2072.66 717.754 2073.35 721.281 2074.73 724.194C2076.26 727.108 2078.56 729.331 2081.63 730.864C2084.85 732.398 2088.91 733.164 2093.82 733.164C2094.89 733.164 2096.12 733.088 2097.5 732.934C2099.03 732.781 2100.49 732.628 2101.87 732.474V758.234C2099.72 758.541 2097.27 758.848 2094.51 759.154C2091.75 759.461 2089.22 759.614 2086.92 759.614Z" fill="black"/>
<path d="M1778.84 1287.09C1767.95 1287.09 1758.52 1285.71 1750.55 1282.95C1742.73 1280.03 1736.67 1275.43 1732.38 1269.15C1728.09 1262.71 1725.63 1254.12 1725.02 1243.39L1720.88 1150.7H1753.31L1757.22 1232.12C1757.53 1238.4 1758.52 1243.23 1760.21 1246.61C1762.05 1249.83 1764.66 1252.05 1768.03 1253.28C1771.4 1254.35 1775.77 1254.89 1781.14 1254.89C1786.97 1254.89 1791.11 1256.42 1793.56 1259.49C1796.01 1262.4 1797.24 1266.08 1797.24 1270.53C1797.24 1275.28 1795.63 1279.27 1792.41 1282.49C1789.34 1285.55 1784.82 1287.09 1778.84 1287.09ZM1736.75 1265.7C1726.48 1268 1716.59 1269.07 1707.08 1268.92C1697.57 1268.61 1689.06 1266.92 1681.55 1263.86C1674.04 1260.64 1668.06 1256.04 1663.61 1250.06C1659.32 1244.08 1657.17 1236.49 1657.17 1227.29C1657.17 1219.16 1658.93 1211.8 1662.46 1205.21C1666.14 1198.46 1671.2 1192.56 1677.64 1187.5C1684.23 1182.44 1691.9 1178.14 1700.64 1174.62C1709.38 1171.09 1718.89 1168.41 1729.16 1166.57L1732.38 1199.23C1725.79 1199.53 1719.81 1200.45 1714.44 1201.99C1709.23 1203.37 1704.7 1205.21 1700.87 1207.51C1697.19 1209.81 1694.35 1212.41 1692.36 1215.33C1690.37 1218.09 1689.37 1221.08 1689.37 1224.3C1689.37 1226.9 1690.29 1229.05 1692.13 1230.74C1693.97 1232.42 1696.42 1233.8 1699.49 1234.88C1702.56 1235.8 1706.08 1236.33 1710.07 1236.49C1714.06 1236.64 1718.12 1236.41 1722.26 1235.8C1726.55 1235.18 1730.77 1234.19 1734.91 1232.81L1736.75 1265.7ZM1737.44 1127.01C1732.99 1127.01 1729.16 1125.47 1725.94 1122.41C1722.87 1119.19 1721.34 1115.43 1721.34 1111.14C1721.34 1106.69 1722.87 1102.86 1725.94 1099.64C1729.16 1096.42 1732.99 1094.81 1737.44 1094.81C1741.73 1094.81 1745.41 1096.42 1748.48 1099.64C1751.55 1102.86 1753.08 1106.69 1753.08 1111.14C1753.08 1115.43 1751.55 1119.19 1748.48 1122.41C1745.41 1125.47 1741.73 1127.01 1737.44 1127.01ZM1697.65 1126.78C1693.2 1126.78 1689.37 1125.24 1686.15 1122.18C1683.08 1118.96 1681.55 1115.2 1681.55 1110.91C1681.55 1106.46 1683.08 1102.63 1686.15 1099.41C1689.37 1096.19 1693.2 1094.58 1697.65 1094.58C1701.94 1094.58 1705.62 1096.19 1708.69 1099.41C1711.76 1102.63 1713.29 1106.46 1713.29 1110.91C1713.29 1115.2 1711.76 1118.96 1708.69 1122.18C1705.62 1125.24 1701.94 1126.78 1697.65 1126.78ZM1769.56 1287.09L1771.86 1254.89C1775.39 1254.89 1778.38 1254.04 1780.83 1252.36C1783.44 1250.52 1786.12 1247.53 1788.88 1243.39C1791.64 1239.09 1794.86 1233.34 1798.54 1226.14C1803.14 1216.94 1807.9 1209.73 1812.8 1204.52C1817.86 1199.3 1823 1195.62 1828.21 1193.48C1833.58 1191.18 1838.95 1190.03 1844.31 1190.03C1851.06 1190.03 1857.35 1191.48 1863.17 1194.4C1869 1197.31 1874.06 1201.3 1878.35 1206.36C1882.65 1211.26 1885.94 1216.94 1888.24 1223.38C1890.7 1229.66 1891.92 1236.18 1891.92 1242.93C1891.92 1251.05 1890.16 1258.41 1886.63 1265.01C1883.26 1271.45 1878.51 1276.58 1872.37 1280.42C1866.39 1284.1 1859.49 1285.94 1851.67 1285.94C1845.08 1285.94 1837.41 1284.79 1828.67 1282.49C1819.93 1280.19 1810.73 1275.36 1801.07 1268L1812.8 1240.17C1819.7 1244.92 1826.14 1248.37 1832.12 1250.52C1838.26 1252.66 1843.32 1253.74 1847.3 1253.74C1850.37 1253.74 1852.9 1253.43 1854.89 1252.82C1856.89 1252.2 1858.34 1251.21 1859.26 1249.83C1860.18 1248.45 1860.64 1246.61 1860.64 1244.31C1860.64 1241.09 1859.88 1237.79 1858.34 1234.42C1856.81 1231.04 1854.74 1228.21 1852.13 1225.91C1849.68 1223.45 1846.77 1222.23 1843.39 1222.23C1840.17 1222.23 1837.41 1223.45 1835.11 1225.91C1832.97 1228.21 1830.82 1231.58 1828.67 1236.03C1826.68 1240.32 1824.23 1245.38 1821.31 1251.21C1817.79 1258.26 1814.34 1264.16 1810.96 1268.92C1807.59 1273.52 1803.99 1277.2 1800.15 1279.96C1796.47 1282.56 1792.1 1284.4 1787.04 1285.48C1782.14 1286.55 1776.31 1287.09 1769.56 1287.09ZM2050.63 1287.09C2039.9 1287.09 2031 1286.32 2023.95 1284.79C2017.05 1283.1 2011.61 1280.57 2007.62 1277.2C2003.63 1273.67 2000.8 1269.3 1999.11 1264.09C1997.42 1258.87 1996.43 1252.66 1996.12 1245.46L1991.29 1117.58H2023.49L2028.32 1230.05C2028.63 1237.1 2029.39 1242.39 2030.62 1245.92C2031.85 1249.44 2034.15 1251.82 2037.52 1253.05C2041.05 1254.27 2046.18 1254.89 2052.93 1254.89C2058.76 1254.89 2062.9 1256.42 2065.35 1259.49C2067.96 1262.4 2069.26 1266.08 2069.26 1270.53C2069.26 1275.28 2067.65 1279.27 2064.43 1282.49C2061.21 1285.55 2056.61 1287.09 2050.63 1287.09ZM1926.89 1287.09C1922.75 1287.09 1918.53 1286.7 1914.24 1285.94C1910.1 1285.32 1907.19 1284.86 1905.5 1284.56L1909.87 1251.21C1920.45 1252.59 1930.72 1252.89 1940.69 1252.13C1950.81 1251.21 1959.86 1248.75 1967.83 1244.77C1975.96 1240.63 1982.4 1234.65 1987.15 1226.83C1991.9 1218.85 1994.28 1208.58 1994.28 1196.01L2006.7 1232.12C2004.86 1242.54 2001.72 1251.21 1997.27 1258.11C1992.98 1264.85 1987.84 1270.22 1981.86 1274.21C1976.03 1278.04 1969.82 1280.88 1963.23 1282.72C1956.64 1284.56 1950.2 1285.71 1943.91 1286.17C1937.62 1286.78 1931.95 1287.09 1926.89 1287.09ZM1976.8 1255.58C1974.5 1251.13 1971.2 1245.92 1966.91 1239.94C1962.62 1233.8 1957.33 1227.06 1951.04 1219.7C1944.91 1212.18 1937.85 1204.29 1929.88 1196.01C1921.91 1187.57 1913.09 1178.91 1903.43 1170.02L1923.44 1148.17C1937.7 1161.66 1949.28 1173.01 1958.17 1182.21C1967.06 1191.41 1974.12 1199.15 1979.33 1205.44C1984.7 1211.57 1988.76 1216.86 1991.52 1221.31C1994.43 1225.75 1996.89 1230.05 1998.88 1234.19L1976.8 1255.58ZM2041.58 1287.09L2043.88 1254.89C2048.94 1254.89 2053.08 1254.5 2056.3 1253.74C2059.52 1252.82 2062.13 1250.9 2064.12 1247.99C2066.27 1244.92 2068.11 1240.4 2069.64 1234.42C2071.33 1228.28 2073.17 1220 2075.16 1209.58L2105.06 1215.1C2104.45 1218.47 2103.61 1222.69 2102.53 1227.75C2101.61 1232.81 2101.15 1237.18 2101.15 1240.86C2101.15 1243.77 2101.69 1246.3 2102.76 1248.45C2103.99 1250.44 2105.98 1252.05 2108.74 1253.28C2111.66 1254.35 2115.64 1254.89 2120.7 1254.89C2124.69 1254.89 2128.06 1254.5 2130.82 1253.74C2133.74 1252.82 2136.19 1250.9 2138.18 1247.99C2140.33 1244.92 2142.17 1240.24 2143.7 1233.96C2145.39 1227.52 2147 1218.85 2148.53 1207.97L2178.89 1212.8C2178.28 1216.32 2177.67 1220.08 2177.05 1224.07C2176.44 1228.05 2175.9 1231.73 2175.44 1235.11C2174.98 1238.48 2174.75 1241.24 2174.75 1243.39C2174.75 1245.38 2175.29 1247.3 2176.36 1249.14C2177.59 1250.82 2179.74 1252.2 2182.8 1253.28C2186.02 1254.35 2190.47 1254.89 2196.14 1254.89C2203.04 1254.89 2208.1 1253.43 2211.32 1250.52C2214.7 1247.45 2216.38 1242.85 2216.38 1236.72C2216.38 1233.19 2216.31 1229.43 2216.15 1225.45C2216 1221.31 2215.69 1216.71 2215.23 1211.65C2214.93 1206.43 2214.31 1200.53 2213.39 1193.94L2243.06 1191.64C2244.14 1204.82 2245.36 1215.56 2246.74 1223.84C2248.12 1232.12 2249.96 1238.56 2252.26 1243.16C2254.72 1247.6 2257.94 1250.67 2261.92 1252.36C2266.06 1254.04 2271.43 1254.89 2278.02 1254.89C2283.85 1254.89 2287.99 1256.42 2290.44 1259.49C2293.05 1262.4 2294.35 1266.08 2294.35 1270.53C2294.35 1275.28 2292.74 1279.27 2289.52 1282.49C2286.46 1285.55 2281.86 1287.09 2275.72 1287.09C2271.58 1287.09 2267.29 1286.7 2262.84 1285.94C2258.4 1285.32 2254.1 1284.02 2249.96 1282.03C2245.82 1279.88 2242.14 1276.81 2238.92 1272.83C2235.7 1268.84 2233.17 1263.55 2231.33 1256.96L2235.47 1258.34C2233.33 1266 2230.41 1271.91 2226.73 1276.05C2223.05 1280.19 2218.53 1283.1 2213.16 1284.79C2207.8 1286.32 2201.36 1287.09 2193.84 1287.09C2186.94 1287.09 2180.81 1286.17 2175.44 1284.33C2170.08 1282.49 2165.78 1279.5 2162.56 1275.36C2159.5 1271.06 2157.89 1265.31 2157.73 1258.11H2165.55C2162.49 1266.69 2158.96 1273.06 2154.97 1277.2C2150.99 1281.34 2146.16 1284.02 2140.48 1285.25C2134.81 1286.47 2127.68 1287.09 2119.09 1287.09C2113.88 1287.09 2108.74 1286.55 2103.68 1285.48C2098.62 1284.25 2094.1 1281.57 2090.11 1277.43C2086.13 1273.13 2083.21 1266.39 2081.37 1257.19L2093.79 1256.73C2090.57 1265.77 2086.36 1272.44 2081.14 1276.74C2076.08 1281.03 2070.26 1283.87 2063.66 1285.25C2057.07 1286.47 2049.71 1287.09 2041.58 1287.09ZM2266.65 1287.09L2268.95 1254.89C2276 1254.89 2281.06 1254.2 2284.13 1252.82C2287.2 1251.28 2289.04 1248.52 2289.65 1244.54C2290.26 1240.4 2290.42 1234.42 2290.11 1226.6L2285.97 1117.58H2318.4L2323 1228.9C2323.31 1237.79 2322.92 1245.84 2321.85 1253.05C2320.93 1260.1 2318.55 1266.16 2314.72 1271.22C2311.04 1276.28 2305.29 1280.19 2297.47 1282.95C2289.8 1285.71 2279.53 1287.09 2266.65 1287.09ZM2344.13 1285.94L2339.3 1117.58H2371.5L2376.33 1285.94H2344.13ZM2485.41 1376.56C2475.29 1376.56 2465.78 1375.48 2456.89 1373.34C2447.99 1371.19 2440.17 1367.89 2433.43 1363.45C2426.83 1359 2421.62 1353.25 2417.79 1346.2C2414.11 1339.14 2412.27 1330.79 2412.27 1321.13C2412.27 1311.16 2414.34 1302.34 2418.48 1294.68C2422.62 1287.16 2427.91 1280.57 2434.35 1274.9C2440.79 1269.07 2447.61 1263.86 2454.82 1259.26C2462.18 1254.5 2469.08 1249.98 2475.52 1245.69C2481.96 1241.39 2487.25 1237.02 2491.39 1232.58C2495.53 1227.98 2497.6 1222.92 2497.6 1217.4C2497.6 1215.4 2497.06 1213.56 2495.99 1211.88C2495.07 1210.04 2493.46 1208.58 2491.16 1207.51C2489.01 1206.28 2485.94 1205.67 2481.96 1205.67C2479.35 1205.67 2476.67 1205.97 2473.91 1206.59C2471.15 1207.05 2468.46 1207.74 2465.86 1208.66C2463.25 1209.42 2460.8 1210.42 2458.5 1211.65C2462.48 1214.87 2466.39 1218.47 2470.23 1222.46C2474.21 1226.29 2477.82 1230.05 2481.04 1233.73C2484.41 1237.25 2487.02 1240.32 2488.86 1242.93C2492.38 1244.77 2496.22 1246.45 2500.36 1247.99C2504.5 1249.37 2508.87 1250.59 2513.47 1251.67C2518.22 1252.74 2523.13 1253.58 2528.19 1254.2C2533.25 1254.66 2538.46 1254.89 2543.83 1254.89C2549.65 1254.89 2553.79 1256.42 2556.25 1259.49C2558.7 1262.4 2559.93 1266.08 2559.93 1270.53C2559.93 1275.28 2558.32 1279.27 2555.1 1282.49C2551.88 1285.55 2547.35 1287.09 2541.53 1287.09C2528.8 1287.09 2517.91 1286.17 2508.87 1284.33C2499.97 1282.49 2491.92 1279.73 2484.72 1276.05C2477.66 1272.21 2470.38 1267.54 2462.87 1262.02C2461.03 1258.8 2458.34 1255.27 2454.82 1251.44C2451.29 1247.45 2447.69 1243.69 2444.01 1240.17C2440.48 1236.64 2437.49 1233.88 2435.04 1231.89C2434.58 1231.43 2433.81 1229.89 2432.74 1227.29C2431.66 1224.53 2430.67 1221.61 2429.75 1218.55C2428.98 1215.48 2428.6 1213.33 2428.6 1212.11C2428.6 1209.04 2430.05 1205.59 2432.97 1201.76C2435.88 1197.77 2439.94 1194.01 2445.16 1190.49C2450.52 1186.81 2456.73 1183.82 2463.79 1181.52C2470.84 1179.06 2478.51 1177.84 2486.79 1177.84C2501.81 1177.84 2512.62 1181.06 2519.22 1187.5C2525.96 1193.78 2529.34 1201.91 2529.34 1211.88C2529.34 1221.08 2527.27 1229.28 2523.13 1236.49C2519.14 1243.69 2513.93 1250.29 2507.49 1256.27C2501.05 1262.25 2494.22 1267.77 2487.02 1272.83C2479.96 1277.89 2473.22 1282.79 2466.78 1287.55C2460.34 1292.45 2455.05 1297.36 2450.91 1302.27C2446.92 1307.33 2444.93 1312.77 2444.93 1318.6C2444.93 1323.5 2446.15 1327.57 2448.61 1330.79C2451.21 1334.16 2454.51 1336.84 2458.5 1338.84C2462.48 1340.83 2466.85 1342.21 2471.61 1342.98C2476.51 1343.9 2481.27 1344.36 2485.87 1344.36C2490.62 1344.36 2495.53 1343.97 2500.59 1343.21C2505.8 1342.44 2511.17 1341.21 2516.69 1339.53C2522.36 1337.99 2528.19 1336 2534.17 1333.55L2543.83 1361.15C2538 1364.21 2531.79 1366.9 2525.2 1369.2C2518.6 1371.65 2511.93 1373.49 2505.19 1374.72C2498.44 1375.94 2491.85 1376.56 2485.41 1376.56ZM2532.4 1287.09L2534.7 1254.89C2538.23 1254.89 2541.22 1254.04 2543.67 1252.36C2546.28 1250.52 2548.96 1247.53 2551.72 1243.39C2554.48 1239.09 2557.7 1233.34 2561.38 1226.14C2565.98 1216.94 2570.73 1209.73 2575.64 1204.52C2580.7 1199.3 2585.84 1195.62 2591.05 1193.48C2596.42 1191.18 2601.78 1190.03 2607.15 1190.03C2613.9 1190.03 2620.18 1191.48 2626.01 1194.4C2631.84 1197.31 2636.9 1201.3 2641.19 1206.36C2645.48 1211.26 2648.78 1216.94 2651.08 1223.38C2653.53 1229.66 2654.76 1236.18 2654.76 1242.93C2654.76 1251.05 2653 1258.41 2649.47 1265.01C2646.1 1271.45 2641.34 1276.58 2635.21 1280.42C2629.23 1284.1 2622.33 1285.94 2614.51 1285.94C2607.92 1285.94 2600.25 1284.79 2591.51 1282.49C2582.77 1280.19 2573.57 1275.36 2563.91 1268L2575.64 1240.17C2582.54 1244.92 2588.98 1248.37 2594.96 1250.52C2601.09 1252.66 2606.15 1253.74 2610.14 1253.74C2613.21 1253.74 2615.74 1253.43 2617.73 1252.82C2619.72 1252.2 2621.18 1251.21 2622.1 1249.83C2623.02 1248.45 2623.48 1246.61 2623.48 1244.31C2623.48 1241.09 2622.71 1237.79 2621.18 1234.42C2619.65 1231.04 2617.58 1228.21 2614.97 1225.91C2612.52 1223.45 2609.6 1222.23 2606.23 1222.23C2603.01 1222.23 2600.25 1223.45 2597.95 1225.91C2595.8 1228.21 2593.66 1231.58 2591.51 1236.03C2589.52 1240.32 2587.06 1245.38 2584.15 1251.21C2580.62 1258.26 2577.17 1264.16 2573.8 1268.92C2570.43 1273.52 2566.82 1277.2 2562.99 1279.96C2559.31 1282.56 2554.94 1284.4 2549.88 1285.48C2544.97 1286.55 2539.15 1287.09 2532.4 1287.09Z" fill="black"/>
<path d="M312.212 1120.73C320.646 1121.65 330.152 1122.34 340.732 1122.8C351.312 1123.26 362.659 1123.49 374.772 1123.49C382.286 1123.49 390.029 1123.33 398.002 1123.03C406.129 1122.72 413.949 1122.34 421.462 1121.88C428.976 1121.42 435.646 1120.88 441.472 1120.27V1150.86C436.106 1151.32 429.589 1151.78 421.922 1152.24C414.409 1152.7 406.512 1153.08 398.232 1153.39C390.106 1153.54 382.362 1153.62 375.002 1153.62C363.042 1153.62 351.926 1153.39 341.652 1152.93C331.379 1152.47 321.566 1151.85 312.212 1151.09V1120.73ZM331.532 1218.25C330.459 1222.23 329.539 1226.14 328.772 1229.98C328.006 1233.81 327.622 1237.64 327.622 1241.48C327.622 1248.84 331.302 1254.89 338.662 1259.65C346.176 1264.4 358.212 1266.78 374.772 1266.78C385.199 1266.78 395.242 1266.39 404.902 1265.63C414.562 1264.86 423.686 1263.79 432.272 1262.41C441.012 1261.03 448.756 1259.42 455.502 1257.58L455.732 1290.01C448.986 1291.54 441.472 1292.84 433.192 1293.92C424.912 1295.14 415.942 1296.06 406.282 1296.68C396.776 1297.44 386.656 1297.83 375.922 1297.83C358.442 1297.83 343.799 1295.91 331.992 1292.08C320.186 1288.24 311.369 1282.72 305.542 1275.52C299.716 1268.16 296.802 1259.19 296.802 1248.61C296.802 1241.86 297.339 1235.73 298.412 1230.21C299.486 1224.69 300.482 1219.78 301.402 1215.49L331.532 1218.25ZM615.582 1117.05C614.509 1118.58 613.282 1120.34 611.902 1122.34C610.676 1124.18 609.449 1126.02 608.222 1127.86C605.462 1132 602.396 1136.83 599.022 1142.35C595.802 1147.71 592.429 1153.46 588.902 1159.6C585.376 1165.58 581.926 1171.56 578.552 1177.54C575.332 1183.52 572.266 1189.04 569.352 1194.1C573.646 1191.64 578.016 1189.88 582.462 1188.81C586.909 1187.73 591.356 1187.2 595.802 1187.2C604.389 1187.2 611.136 1189.8 616.042 1195.02C621.102 1200.08 623.862 1207.44 624.322 1217.1C624.476 1220.47 624.552 1224.53 624.552 1229.29C624.552 1234.04 624.552 1238.79 624.552 1243.55C624.706 1248.3 624.936 1252.29 625.242 1255.51C625.702 1259.95 627.312 1263.17 630.072 1265.17C632.986 1267.01 636.359 1267.93 640.192 1267.93C645.099 1267.93 649.546 1266.47 653.532 1263.56C657.672 1260.64 661.352 1256.66 664.572 1251.6C667.792 1246.38 670.552 1240.56 672.852 1234.12C675.306 1227.52 677.376 1220.7 679.062 1213.65L703.902 1233.89C699.916 1246.92 694.856 1258.42 688.722 1268.39C682.589 1278.2 675.076 1285.79 666.182 1291.16C657.442 1296.68 647.169 1299.44 635.362 1299.44C626.929 1299.44 619.876 1297.9 614.202 1294.84C608.529 1291.92 604.312 1288.09 601.552 1283.34C598.792 1278.43 597.259 1273.14 596.952 1267.47C596.646 1263.33 596.416 1258.73 596.262 1253.67C596.262 1248.61 596.186 1243.7 596.032 1238.95C596.032 1234.04 595.879 1230.05 595.572 1226.99C595.266 1223 593.962 1219.86 591.662 1217.56C589.362 1215.26 586.142 1214.11 582.002 1214.11C576.942 1214.11 572.112 1215.72 567.512 1218.94C562.912 1222.16 558.696 1226.37 554.862 1231.59C551.182 1236.8 547.962 1242.55 545.202 1248.84C543.669 1252.21 542.059 1256.2 540.372 1260.8C538.686 1265.4 537.076 1270.15 535.542 1275.06C534.009 1279.96 532.552 1284.56 531.172 1288.86C529.792 1293.3 528.642 1297.06 527.722 1300.13L495.292 1289.09C498.206 1281.42 501.732 1272.68 505.872 1262.87C510.166 1252.9 514.842 1242.47 519.902 1231.59C524.962 1220.7 530.099 1209.89 535.312 1199.16C540.526 1188.42 545.509 1178.3 550.262 1168.8C555.016 1159.14 559.232 1150.78 562.912 1143.73C566.746 1136.52 569.659 1131.08 571.652 1127.4C573.186 1124.33 574.949 1120.88 576.942 1117.05C578.936 1113.21 580.929 1108.84 582.922 1103.94L615.582 1117.05ZM806.712 1127.17C813.766 1128.09 821.662 1128.78 830.402 1129.24C839.296 1129.54 848.266 1129.7 857.312 1129.7C866.512 1129.54 875.329 1129.24 883.762 1128.78C892.196 1128.16 899.479 1127.55 905.612 1126.94V1156.61C898.559 1157.22 890.816 1157.76 882.382 1158.22C873.949 1158.52 865.286 1158.68 856.392 1158.68C847.499 1158.68 838.759 1158.52 830.172 1158.22C821.739 1157.76 813.919 1157.22 806.712 1156.61V1127.17ZM825.112 1225.38C824.192 1229.21 823.502 1232.66 823.042 1235.73C822.582 1238.64 822.352 1241.63 822.352 1244.7C822.352 1247.15 822.966 1249.45 824.192 1251.6C825.419 1253.59 827.259 1255.35 829.712 1256.89C832.319 1258.27 835.616 1259.34 839.602 1260.11C843.742 1260.72 848.726 1261.03 854.552 1261.03C864.826 1261.03 874.486 1260.57 883.532 1259.65C892.579 1258.57 902.162 1257.04 912.282 1255.05L912.742 1286.1C905.382 1287.48 896.872 1288.55 887.212 1289.32C877.706 1290.08 866.436 1290.47 853.402 1290.47C833.622 1290.47 818.902 1287.17 809.242 1280.58C799.582 1273.83 794.752 1264.55 794.752 1252.75C794.752 1248.3 795.059 1243.7 795.672 1238.95C796.439 1234.04 797.436 1228.67 798.662 1222.85L825.112 1225.38ZM771.292 1111.76C770.679 1113.29 769.989 1115.44 769.222 1118.2C768.456 1120.96 767.689 1123.64 766.922 1126.25C766.309 1128.85 765.849 1130.85 765.542 1132.23C765.082 1135.45 764.316 1139.66 763.242 1144.88C762.322 1149.94 761.326 1155.69 760.252 1162.13C759.332 1168.41 758.412 1174.85 757.492 1181.45C756.572 1188.04 755.806 1194.4 755.192 1200.54C754.732 1206.67 754.502 1212.04 754.502 1216.64C754.502 1218.78 754.502 1221.24 754.502 1224C754.656 1226.76 754.962 1229.29 755.422 1231.59C756.496 1228.98 757.646 1226.37 758.872 1223.77C760.099 1221.16 761.326 1218.55 762.552 1215.95C763.779 1213.19 764.852 1210.58 765.772 1208.13L780.032 1219.4C777.886 1225.68 775.662 1232.43 773.362 1239.64C771.216 1246.84 769.222 1253.67 767.382 1260.11C765.696 1266.39 764.392 1271.61 763.472 1275.75C763.166 1277.43 762.859 1279.35 762.552 1281.5C762.399 1283.64 762.322 1285.33 762.322 1286.56C762.322 1287.78 762.322 1289.24 762.322 1290.93C762.476 1292.77 762.629 1294.45 762.782 1295.99L736.102 1297.83C733.802 1289.85 731.732 1279.27 729.892 1266.09C728.052 1252.75 727.132 1238.26 727.132 1222.62C727.132 1214.03 727.516 1205.29 728.282 1196.4C729.049 1187.5 729.969 1178.99 731.042 1170.87C732.116 1162.59 733.112 1155.07 734.032 1148.33C735.106 1141.58 736.026 1135.98 736.792 1131.54C737.099 1128.32 737.482 1124.71 737.942 1120.73C738.556 1116.59 738.939 1112.68 739.092 1109L771.292 1111.76ZM1028.66 1104.63C1027.44 1108.61 1026.36 1112.6 1025.44 1116.59C1024.68 1120.42 1023.91 1124.25 1023.14 1128.09C1022.38 1131.77 1021.46 1135.98 1020.38 1140.74C1019.46 1145.49 1018.39 1150.55 1017.16 1155.92C1016.09 1161.13 1014.86 1166.42 1013.48 1171.79C1012.26 1177.15 1010.95 1182.44 1009.57 1187.66C1008.19 1192.72 1006.89 1197.39 1005.66 1201.69C1015.02 1196.47 1024.29 1192.79 1033.49 1190.65C1042.69 1188.35 1052.43 1187.2 1062.7 1187.2C1075.12 1187.2 1085.93 1189.27 1095.13 1193.41C1104.49 1197.55 1111.69 1203.3 1116.75 1210.66C1121.97 1218.02 1124.57 1226.6 1124.57 1236.42C1124.57 1249.3 1121.58 1260.18 1115.6 1269.08C1109.78 1277.97 1101.34 1284.95 1090.3 1290.01C1079.42 1295.07 1066.31 1298.29 1050.97 1299.67C1035.79 1301.05 1018.93 1300.74 1000.37 1298.75L992.322 1269.08C1004.9 1271.22 1017.16 1272.3 1029.12 1272.3C1041.24 1272.3 1052.12 1271.15 1061.78 1268.85C1071.44 1266.55 1079.11 1262.87 1084.78 1257.81C1090.61 1252.59 1093.52 1245.77 1093.52 1237.34C1093.52 1230.44 1090.61 1224.53 1084.78 1219.63C1078.96 1214.57 1070.45 1212.04 1059.25 1212.04C1045.91 1212.04 1033.65 1214.34 1022.45 1218.94C1011.41 1223.54 1002.44 1230.21 995.542 1238.95C994.469 1240.63 993.396 1242.24 992.322 1243.78C991.402 1245.31 990.329 1247.07 989.102 1249.07L961.962 1239.41C966.256 1231.13 970.242 1221.7 973.922 1211.12C977.602 1200.54 980.899 1189.88 983.812 1179.15C986.726 1168.41 989.102 1158.45 990.942 1149.25C992.782 1139.89 994.086 1132.3 994.852 1126.48C995.619 1121.57 996.079 1117.43 996.232 1114.06C996.386 1110.53 996.309 1106.93 996.002 1103.25L1028.66 1104.63ZM948.392 1131.54C955.752 1132.76 963.726 1133.84 972.312 1134.76C980.899 1135.52 988.796 1135.91 996.002 1135.91C1003.36 1135.91 1011.41 1135.68 1020.15 1135.22C1029.05 1134.76 1038.4 1134.07 1048.21 1133.15C1058.03 1132.23 1067.84 1131.08 1077.65 1129.7C1087.62 1128.16 1097.36 1126.4 1106.86 1124.41L1107.32 1151.78C1099.96 1153 1091.61 1154.23 1082.25 1155.46C1073.05 1156.68 1063.39 1157.83 1053.27 1158.91C1043.15 1159.83 1033.19 1160.59 1023.37 1161.21C1013.56 1161.82 1004.51 1162.13 996.232 1162.13C987.339 1162.13 978.829 1161.97 970.702 1161.67C962.729 1161.21 955.292 1160.67 948.392 1160.06V1131.54ZM1235.2 1146.72C1241.8 1147.33 1248.39 1147.87 1254.98 1148.33C1261.73 1148.63 1268.55 1148.79 1275.45 1148.79C1289.56 1148.79 1303.59 1148.17 1317.54 1146.95C1331.5 1145.72 1344.38 1143.8 1356.18 1141.2V1169.95C1344.22 1171.63 1331.27 1173.01 1317.31 1174.09C1303.36 1175.01 1289.41 1175.47 1275.45 1175.47C1268.71 1175.47 1261.96 1175.39 1255.21 1175.24C1248.62 1174.93 1241.95 1174.55 1235.2 1174.09V1146.72ZM1322.6 1107.85C1322.3 1109.99 1321.99 1112.37 1321.68 1114.98C1321.53 1117.58 1321.38 1120.19 1321.22 1122.8C1321.07 1125.25 1320.92 1128.55 1320.76 1132.69C1320.61 1136.83 1320.53 1141.5 1320.53 1146.72C1320.53 1151.78 1320.53 1157.14 1320.53 1162.82C1320.53 1173.24 1320.69 1183.06 1320.99 1192.26C1321.3 1201.3 1321.68 1209.74 1322.14 1217.56C1322.6 1225.22 1322.99 1232.28 1323.29 1238.72C1323.75 1245.16 1323.98 1251.14 1323.98 1256.66C1323.98 1262.64 1323.14 1268.16 1321.45 1273.22C1319.92 1278.28 1317.39 1282.72 1313.86 1286.56C1310.34 1290.39 1305.66 1293.3 1299.83 1295.3C1294.16 1297.44 1287.18 1298.52 1278.9 1298.52C1262.96 1298.52 1250.38 1295.3 1241.18 1288.86C1231.98 1282.42 1227.38 1273.14 1227.38 1261.03C1227.38 1253.21 1229.45 1246.38 1233.59 1240.56C1237.73 1234.58 1243.64 1229.98 1251.3 1226.76C1258.97 1223.38 1268.02 1221.7 1278.44 1221.7C1289.33 1221.7 1299.22 1222.85 1308.11 1225.15C1317.01 1227.45 1325.13 1230.51 1332.49 1234.35C1339.85 1238.18 1346.37 1242.4 1352.04 1247C1357.87 1251.44 1363.08 1255.74 1367.68 1259.88L1351.81 1284.03C1343.07 1275.75 1334.56 1268.62 1326.28 1262.64C1318 1256.66 1309.72 1252.06 1301.44 1248.84C1293.32 1245.62 1284.88 1244.01 1276.14 1244.01C1269.7 1244.01 1264.41 1245.23 1260.27 1247.69C1256.29 1250.14 1254.29 1253.59 1254.29 1258.04C1254.29 1262.64 1256.36 1266.01 1260.5 1268.16C1264.64 1270.3 1269.7 1271.38 1275.68 1271.38C1280.44 1271.38 1284.19 1270.61 1286.95 1269.08C1289.71 1267.39 1291.63 1265.01 1292.7 1261.95C1293.93 1258.73 1294.54 1254.89 1294.54 1250.45C1294.54 1246.46 1294.39 1241.25 1294.08 1234.81C1293.78 1228.37 1293.39 1221.16 1292.93 1213.19C1292.63 1205.21 1292.32 1196.93 1292.01 1188.35C1291.71 1179.61 1291.55 1171.1 1291.55 1162.82C1291.55 1154.08 1291.48 1146.18 1291.32 1139.13C1291.32 1131.92 1291.32 1126.55 1291.32 1123.03C1291.32 1121.34 1291.17 1118.96 1290.86 1115.9C1290.56 1112.83 1290.17 1110.15 1289.71 1107.85H1322.6ZM1210.36 1110.38C1209.9 1111.91 1209.21 1114.06 1208.29 1116.82C1207.53 1119.58 1206.84 1122.26 1206.22 1124.87C1205.76 1127.47 1205.38 1129.47 1205.07 1130.85C1204.31 1134.07 1203.46 1138.44 1202.54 1143.96C1201.62 1149.32 1200.63 1155.46 1199.55 1162.36C1198.63 1169.1 1197.71 1176.08 1196.79 1183.29C1195.87 1190.34 1195.18 1197.09 1194.72 1203.53C1194.26 1209.81 1194.03 1215.26 1194.03 1219.86C1194.03 1222.16 1194.03 1224.69 1194.03 1227.45C1194.19 1230.05 1194.49 1232.51 1194.95 1234.81C1196.03 1232.05 1197.1 1229.36 1198.17 1226.76C1199.4 1224.15 1200.63 1221.54 1201.85 1218.94C1203.08 1216.33 1204.23 1213.72 1205.3 1211.12L1219.33 1222.62C1217.19 1228.9 1214.96 1235.5 1212.66 1242.4C1210.52 1249.3 1208.52 1255.81 1206.68 1261.95C1205 1268.08 1203.69 1273.22 1202.77 1277.36C1202.47 1278.89 1202.16 1280.73 1201.85 1282.88C1201.7 1285.02 1201.62 1286.79 1201.62 1288.17C1201.62 1289.39 1201.62 1290.85 1201.62 1292.54C1201.78 1294.38 1201.93 1296.06 1202.08 1297.6L1176.09 1299.67C1173.64 1291.54 1171.49 1281.19 1169.65 1268.62C1167.81 1255.89 1166.89 1241.71 1166.89 1226.07C1166.89 1217.48 1167.28 1208.51 1168.04 1199.16C1168.81 1189.65 1169.65 1180.53 1170.57 1171.79C1171.65 1163.05 1172.72 1155.07 1173.79 1147.87C1174.87 1140.51 1175.71 1134.6 1176.32 1130.16C1176.78 1126.94 1177.24 1123.33 1177.7 1119.35C1178.16 1115.21 1178.47 1111.3 1178.62 1107.62L1210.36 1110.38Z" fill="black"/>
</g>
<rect x="0.5" y="0.5" width="3031" height="1887" stroke="url(#paint2_linear_6552_670)"/>
<defs>
<linearGradient id="paint0_linear_6552_670" x1="1516" y1="0" x2="1516" y2="1888" gradientUnits="userSpaceOnUse">
<stop stop-color="#1359FF"/>
<stop offset="0.572115" stop-color="#C5A5FB"/>
<stop offset="0.889523" stop-color="#BBB3F8"/>
</linearGradient>
<linearGradient id="paint1_linear_6552_670" x1="1495.19" y1="1024.87" x2="1495.19" y2="1593.43" gradientUnits="userSpaceOnUse">
<stop stop-color="white"/>
<stop offset="1" stop-color="#AF9BFB"/>
</linearGradient>
<linearGradient id="paint2_linear_6552_670" x1="1516" y1="0" x2="1516" y2="1888" gradientUnits="userSpaceOnUse">
<stop/>
<stop offset="1" stop-color="#666666"/>
</linearGradient>
<clipPath id="clip0_6552_670">
<rect width="3032" height="1888" fill="white"/>
</clipPath>
</defs>
</svg>
